<svg xmlns="http://www.w3.org/2000/svg" viewBox="0 0 36.36 73.52"><defs><style>.cls-1{fill:#51bfa1;}.cls-1,.cls-2{stroke:#40937a;stroke-miterlimit:10;}.cls-2{fill:none;}</style></defs><title>Phone</title><g id="Layer_2" data-name="Layer 2"><g id="Layer_1-2" data-name="Layer 1"><path class="cls-1" d="M28.66,73l-22.82-.6A3,3,0,0,1,3,69.71L.5,40.13,1.82,12.46A4.52,4.52,0,0,1,6.47,8.14l25,.66a4.53,4.53,0,0,1,4.42,4.56l-.15,27.7-4,29.41A3,3,0,0,1,28.66,73Z"/><path class="cls-1" d="M9.26.5h0a1.33,1.33,0,0,1,1.33,1.33V8.21a0,0,0,0,1,0,0H7.93a0,0,0,0,1,0,0V1.83A1.33,1.33,0,0,1,9.26.5Z" transform="translate(0.12 -0.24) rotate(1.51)"/><rect class="cls-2" x="5.11" y="19.7" width="26.67" height="16.58" rx="3.7" ry="3.7" transform="matrix(1, 0.03, -0.03, 1, 0.75, -0.48)"/><rect class="cls-2" x="15" y="13.64" width="7.62" height="0.76" rx="0.38" ry="0.38" transform="translate(0.38 -0.49) rotate(1.51)"/><path class="cls-2" d="M15.17,45c0,1.6-2.76,1.51-5.36,1.45s-5.12-2.95-5.07-4.54,2.62-1.3,5.22-1.23S15.22,43.37,15.17,45Z"/><path class="cls-2" d="M20.81,45.11c0,1.6,2.68,1.66,5.28,1.73s5.26-2.68,5.3-4.27-2.55-1.44-5.15-1.5S20.85,43.52,20.81,45.11Z"/><rect class="cls-2" x="7.42" y="50.61" width="6.48" height="3.53" rx="1.77" ry="1.77" transform="translate(1.39 -0.26) rotate(1.51)"/><rect class="cls-2" x="14.52" y="50.79" width="6.48" height="3.53" rx="1.77" ry="1.77" transform="translate(1.39 -0.45) rotate(1.51)"/><rect class="cls-2" x="21.69" y="50.98" width="6.48" height="3.53" rx="1.77" ry="1.77" transform="translate(1.4 -0.64) rotate(1.51)"/><rect class="cls-2" x="7.29" y="55.36" width="6.48" height="3.53" rx="1.77" ry="1.77" transform="translate(1.51 -0.26) rotate(1.51)"/><rect class="cls-2" x="14.4" y="55.54" width="6.48" height="3.53" rx="1.77" ry="1.77" transform="translate(1.52 -0.45) rotate(1.51)"/><rect class="cls-2" x="21.56" y="55.73" width="6.48" height="3.53" rx="1.77" ry="1.77" transform="translate(1.53 -0.63) rotate(1.51)"/><rect class="cls-2" x="7.17" y="60.03" width="6.48" height="3.53" rx="1.77" ry="1.77" transform="translate(1.64 -0.25) rotate(1.51)"/><rect class="cls-2" x="14.27" y="60.22" width="6.48" height="3.53" rx="1.77" ry="1.77" transform="translate(1.64 -0.44) rotate(1.51)"/><rect class="cls-2" x="21.44" y="60.41" width="6.48" height="3.53" rx="1.77" ry="1.77" transform="translate(1.65 -0.63) rotate(1.51)"/></g></g></svg>