<?xml version="1.0" encoding="utf-8"?>
<!-- Generator: Adobe Illustrator 16.0.0, SVG Export Plug-In . SVG Version: 6.00 Build 0)  -->
<!DOCTYPE svg PUBLIC "-//W3C//DTD SVG 1.1//EN" "http://www.w3.org/Graphics/SVG/1.1/DTD/svg11.dtd">
<svg version="1.1" id="Layer_1" xmlns="http://www.w3.org/2000/svg" xmlns:xlink="http://www.w3.org/1999/xlink" x="0px" y="0px"
	 width="595.279px" height="841.891px" viewBox="0 0 595.279 841.891" enable-background="new 0 0 595.279 841.891"
	 xml:space="preserve">
<title>CollabCARD</title>
<rect x="0" y="140.305" fill="#151516" width="595.279" height="595.28"/>
<g enable-background="new    ">
	<path fill="#FFFFFF" d="M57.989,348.184l10.365-0.906c0.49,4.154,1.633,7.562,3.427,10.224c1.793,2.662,4.578,4.814,8.354,6.457
		c3.775,1.643,8.023,2.464,12.744,2.464c4.191,0,7.892-0.623,11.102-1.869c3.209-1.246,5.598-2.954,7.165-5.126
		c1.566-2.171,2.351-4.54,2.351-7.108c0-2.605-0.756-4.88-2.266-6.825c-1.511-1.944-4.003-3.577-7.477-4.899
		c-2.229-0.868-7.156-2.218-14.783-4.05c-7.628-1.831-12.971-3.559-16.029-5.183c-3.965-2.076-6.92-4.653-8.864-7.731
		c-1.945-3.077-2.917-6.522-2.917-10.337c0-4.191,1.189-8.108,3.568-11.753c2.379-3.644,5.853-6.409,10.422-8.298
		c4.568-1.888,9.647-2.832,15.236-2.832c6.154,0,11.583,0.991,16.284,2.974s8.316,4.899,10.847,8.751
		c2.529,3.852,3.889,8.213,4.078,13.084l-10.535,0.793c-0.566-5.248-2.483-9.213-5.749-11.895
		c-3.267-2.681-8.091-4.021-14.472-4.021c-6.646,0-11.489,1.218-14.528,3.653c-3.04,2.436-4.56,5.372-4.56,8.808
		c0,2.983,1.076,5.438,3.229,7.363c2.114,1.926,7.637,3.899,16.567,5.919c8.93,2.021,15.057,3.786,18.38,5.296
		c4.833,2.229,8.401,5.051,10.705,8.468c2.303,3.418,3.455,7.354,3.455,11.81c0,4.418-1.266,8.581-3.795,12.489
		c-2.53,3.908-6.165,6.948-10.903,9.119c-4.739,2.171-10.073,3.257-16.001,3.257c-7.515,0-13.812-1.096-18.89-3.285
		c-5.079-2.189-9.063-5.484-11.951-9.884C59.659,358.71,58.139,353.734,57.989,348.184z"/>
	<path fill="#FFFFFF" d="M254.024,345.748l10.988,2.775c-2.304,9.025-6.448,15.907-12.433,20.646
		c-5.985,4.739-13.302,7.108-21.948,7.108c-8.949,0-16.228-1.821-21.835-5.466c-5.607-3.644-9.875-8.921-12.801-15.831
		c-2.927-6.91-4.39-14.33-4.39-22.26c0-8.646,1.651-16.189,4.956-22.628c3.304-6.438,8.005-11.328,14.104-14.67
		c6.098-3.342,12.81-5.013,20.136-5.013c8.307,0,15.293,2.115,20.957,6.344c5.664,4.229,9.609,10.177,11.838,17.842l-10.818,2.549
		c-1.926-6.041-4.721-10.44-8.383-13.197c-3.663-2.756-8.27-4.135-13.82-4.135c-6.382,0-11.716,1.529-16.001,4.588
		c-4.286,3.059-7.298,7.165-9.034,12.319c-1.737,5.154-2.605,10.47-2.605,15.944c0,7.062,1.028,13.226,3.087,18.493
		c2.058,5.268,5.258,9.204,9.601,11.81c4.342,2.605,9.043,3.908,14.104,3.908c6.154,0,11.365-1.774,15.633-5.324
		C249.625,358.002,252.513,352.734,254.024,345.748z"/>
	<path fill="#FFFFFF" d="M334.57,374.861v-83.035h10.988v34.098h43.16v-34.098h10.988v83.035h-10.988v-39.139h-43.16v39.139H334.57z
		"/>
	<path fill="#FFFFFF" d="M473.907,374.861v-83.035h60.039v9.799h-49.051v25.432h45.936v9.742h-45.936v28.264h50.977v9.799H473.907z"
		/>
</g>
<g>
	<g>
		<path fill="#FFFFFF" d="M57.727,587.445V504.41H86.33c6.457,0,11.385,0.396,14.783,1.189c4.758,1.096,8.816,3.078,12.178,5.947
			c4.38,3.701,7.655,8.431,9.827,14.188c2.171,5.759,3.257,12.339,3.257,19.739c0,6.307-0.736,11.895-2.209,16.766
			s-3.361,8.902-5.664,12.093c-2.304,3.191-4.824,5.702-7.562,7.533c-2.738,1.832-6.042,3.22-9.912,4.163
			c-3.871,0.944-8.317,1.416-13.339,1.416H57.727z M68.715,577.646h17.729c5.475,0,9.771-0.51,12.886-1.529s5.598-2.454,7.448-4.305
			c2.605-2.605,4.635-6.107,6.089-10.507c1.453-4.398,2.181-9.732,2.181-16.001c0-8.685-1.426-15.358-4.276-20.022
			c-2.852-4.663-6.315-7.788-10.394-9.374c-2.945-1.133-7.685-1.699-14.217-1.699H68.715V577.646z"/>
		<path fill="#FFFFFF" d="M257.467,504.41h10.988v47.975c0,8.346-0.944,14.973-2.832,19.881c-1.889,4.909-5.296,8.902-10.224,11.979
			c-4.928,3.078-11.395,4.616-19.399,4.616c-7.779,0-14.142-1.341-19.088-4.021c-4.947-2.681-8.478-6.561-10.592-11.64
			c-2.115-5.078-3.172-12.017-3.172-20.815V504.41h10.988v47.918c0,7.213,0.67,12.527,2.011,15.944
			c1.34,3.418,3.644,6.052,6.91,7.901c3.266,1.851,7.259,2.775,11.979,2.775c8.08,0,13.839-1.831,17.275-5.494
			c3.436-3.662,5.154-10.705,5.154-21.127V504.41z"/>
		<path fill="#FFFFFF" d="M347.777,587.445V504.41h10.988v73.236h40.895v9.799H347.777z"/>
		<path fill="#FFFFFF" d="M474.45,587.445V504.41h60.039v9.799h-49.051v25.432h45.936v9.742h-45.936v28.264h50.977v9.799H474.45z"/>
	</g>
</g>
</svg>
