<?xml version="1.0" encoding="utf-8"?>
<!-- Generator: Adobe Illustrator 16.0.0, SVG Export Plug-In . SVG Version: 6.00 Build 0)  -->
<!DOCTYPE svg PUBLIC "-//W3C//DTD SVG 1.1//EN" "http://www.w3.org/Graphics/SVG/1.1/DTD/svg11.dtd">
<svg version="1.1" id="Layer_1" xmlns="http://www.w3.org/2000/svg" xmlns:xlink="http://www.w3.org/1999/xlink" x="0px" y="0px"
	 width="807.202px" height="102.847px" viewBox="0 0 807.202 102.847" enable-background="new 0 0 807.202 102.847"
	 xml:space="preserve">
<g>
	<g>
		<path fill="#E39F32" d="M601.04,102.561c-4.381,1.129-8.919-1.167-10.606-5.364c-2.649-7.514-3.286-15.591-1.847-23.426
			c0.649-4.281,1.518-8.528,2.597-12.722c1.014-2.773-0.192-5.869-2.816-7.226c-1.188-0.802-2.338-1.664-3.438-2.584
			c-1.422,1.626-2.699,3.355-4.239,4.807c-6.49,6.127-12.823,12.49-19.749,18.104c-3.309,2.492-7.159,4.171-11.237,4.899
			c-5.511,1.409-11.12-1.916-12.528-7.427c-0.45-1.76-0.428-3.607,0.066-5.354l1.185,2.56v-6.626
			c-0.958,1.155-1.477,1.818-2.042,2.452c-3.698,4.138-7.268,8.411-11.18,12.342c-1.979,1.89-4.241,3.457-6.705,4.645
			c-7.139,3.619-13.436,0.811-15.038-7.01c-0.488-3.813-0.595-7.666-0.316-11.501c0.104-1.328,0.303-2.647,0.596-3.947
			c-0.377,0.13-0.736,0.304-1.072,0.52c-8.451,7.856-18.31,14.046-29.057,18.247c-4.283,1.794-8.936,2.531-13.563,2.149
			c-7.394-0.098-13.308-6.171-13.21-13.565c0.018-1.418,0.262-2.823,0.722-4.164c1.272-5.552,4.385-10.51,8.827-14.072
			c2.939-2.17,5.482-4.878,8.445-7.01c1.334-0.825,2.906-1.182,4.467-1.015c3.989,0.251,7.764,1.888,10.674,4.629
			c2.467,2.427,2.486,3.839,0,6.125c-2.096,1.92-4.435,3.574-7.307,5.856c0.395-4.917,1.958-8.876-0.022-13.139
			c-0.894,0.485-1.727,1.074-2.485,1.754c-3.611,4.308-7.205,8.633-10.667,13.06c-0.83,1.155-1.405,2.474-1.685,3.868
			c-2.312,10.126,0.896,13.277,9.216,11.618c6.944-1.659,13.705-4.007,20.181-7.01c3.834-1.824,7.477-4.027,10.871-6.576
			c4.203-2.599,7.32-6.631,8.778-11.351c1.271-4.414,3.349-8.568,5.304-13.418c2.579,1.777,5.066,3.684,7.451,5.712
			c0.5,1.075,0.5,2.316,0,3.391c-1.838,5.351-4.146,10.53-6.893,15.477c-3.593,5.645-1.659,11.476-2.051,17.211
			c-0.143,2.076,1.523,2.736,3.337,1.354c2.718-1.868,5.189-4.071,7.358-6.556c6.329-8.079,12.342-16.411,18.461-24.664
			c0.72-0.972,1.347-2.01,2.237-3.35c3.435,3.329,7.854,5.588,7.529,11.023c-0.201,1.666-0.779,3.265-1.69,4.674
			c-2.231,3.34-2.952,7.465-1.986,11.363c0.314,2.798,2.839,4.813,5.638,4.498c0.565-0.063,1.117-0.222,1.632-0.468
			c2.314-0.799,4.486-1.964,6.433-3.448c7.743-6.044,14.692-13.038,20.688-20.816c1.51-1.44,1.655-3.803,0.327-5.414
			c-6.209-9.807-5.354-22.505,2.115-31.391c1.094-1.653,3.318-2.108,4.972-1.016c0.029,0.02,0.06,0.04,0.089,0.061
			c4.115,1.87,6.699,6.034,6.549,10.551c0.385,6.058-0.807,12.112-3.456,17.572c-1.709,3.655-0.383,6.301,3.079,8.23
			c3.152,1.784,6.021,4.027,8.516,6.653c0.964,1.573,1.235,3.476,0.747,5.256c-1.038,4.585-2.746,9.019-3.854,13.594
			c-1.345,5.187-2.392,10.445-3.135,15.751C595.318,95.427,597.217,100.03,601.04,102.561z M586.655,39.938
			c2.678-4.699,3.895-10.369,2.896-13.604C587.074,30.574,584.016,34.385,586.655,39.938z M592.475,82.676
			c-0.688,5.811-0.49,7.547,1.143,9.772L592.475,82.676z"/>
		<path fill="#E39F32" d="M690.229,23.805c-5.193,0.411-9.884,0.644-14.54,1.182c-6.136,0.759-12.347-0.583-17.621-3.807
			c-1.257-0.748-2.915-1.506-0.817-3.536c2.495,2.524,5.251,1.348,8.145,0.701c4.286-0.977,8.628-1.695,13-2.15
			c4.672-0.464,9.408-0.537,14.12-0.613c1.609,0.012,3.075-0.921,3.744-2.383c2.336-3.767,4.832-7.423,7.301-11.102
			c0.545-0.73,1.13-1.431,1.752-2.098c2.69,2.251,3.063,3.933,1.667,6.727c-1.16,2.337-2.307,4.674-3.269,6.616
			c12.05-0.306,23.941-0.613,35.828-0.883c0.235,0.3,0.416,0.64,0.535,1.002l-13.528,2.217l0.043,0.628l3.651,1.09
			c-6.533,1.142-12.263,2.168-18.001,3.139c-3.438,0.582-6.914,0.968-10.323,1.683c-1.109,0.241-2.063,0.945-2.622,1.934
			c-7.189,18.488-11.321,38.024-12.23,57.839c0.017,3.751,0.548,7.48,1.575,11.087c0.322,2.877,2.915,4.948,5.793,4.627
			c0.155-0.018,0.31-0.042,0.463-0.073c-1.591,2.592-4.952,3.445-7.586,1.93c-3.415-1.689-6.168-4.474-7.814-7.909
			c-3.771-7.246-3.938-15.026-3.256-22.911c0.242-1.766,0.305-3.551,0.183-5.329c-0.591,0.726-1.126,1.506-1.779,2.169
			c-4.189,4.565-8.608,8.914-13.242,13.03c-3.057,2.361-6.561,4.08-10.301,5.053c-9.795,2.733-17.79-3.235-18.533-13.376
			c-0.063-0.904-0.113-1.817-0.24-3.809c-2.216,1.377-4.247,3.028-6.047,4.917c-2.651,3.764-4.449,5.123-7.633,4.431
			c-4.934-1.068-7.74-3.872-8.124-8.17c-0.07-0.845-0.049-1.695,0.065-2.536c2.21-11.653,10.623-21.162,21.92-24.776
			c3.038-0.961,6.345,0.205,8.112,2.856c1.252-2.033,2.338-3.762,3.376-5.51c0.361-1.012,1.478-1.539,2.489-1.176
			c0.296,0.106,0.561,0.281,0.773,0.511c0.153,0.11,0.312,0.212,0.475,0.307c5.25,3.227,5.535,3.85,3.267,9.515
			c-1.997,4.988-4.414,9.817-6.23,14.858c-1.487,3.852-2.534,7.857-3.117,11.943c-0.521,4.445,2.132,6.821,6.637,6.854
			c4.565-0.007,9.013-1.443,12.722-4.107c7.27-5.143,13.254-11.896,17.486-19.731c0.766-2.289,1.355-4.632,1.766-7.01
			c2.774-7.609,5.728-15.155,8.623-22.718C689.209,26.087,689.609,25.249,690.229,23.805z M620.065,69.159
			c10.604-5.283,17.449-12.597,19.453-24.028c-5.828-0.462-9.626,2.855-12.889,7.04C622.877,56.97,619.751,62.06,620.065,69.159z
			 M680.242,64.673c-2.474,7.75-2.532,10.015,0,15.306V64.673z"/>
		<path fill="#E39F32" d="M782.089,42.748c-4.784,4-9.221,7.771-13.73,11.458c-2.992,2.451-3.395,4.017-0.929,7.01
			c3.116,3.783,6.444,7.382,9.809,10.941c0.737,0.522,1.669,0.695,2.545,0.472c5.575-1.249,11.082-2.79,16.496-4.616
			c3.792-1.725,7.443-3.739,10.923-6.028c-0.474,2.146-1.884,3.966-3.843,4.962c-3.608,2.012-7.355,3.8-11.147,5.451
			c-3.376,1.462-6.856,2.653-10.329,3.855c-1.035,0.101-1.795,1.021-1.694,2.058c0.021,0.212,0.076,0.419,0.166,0.611
			c1.212,4.428-0.478,9.14-4.227,11.787c-5.765,4.313-12.484,7.17-19.588,8.331c-3.912-0.148-7.507-2.196-9.631-5.485
			c-0.283-1.211-0.054-2.485,0.634-3.521c5.144-7.445,12.759-12.827,21.494-15.19c0.813-0.239,1.626-0.48,2.429-0.753
			c0.326-0.268,0.619-0.576,0.872-0.917l-12.336-12.686c-4.491,3.152-9.062,6.286-13.552,9.526
			c-7.058,5.559-15.174,9.621-23.853,11.942c-4.508,1.135-9.24,1.009-13.683-0.36c-5.724-1.442-9.741-6.583-9.755-12.485
			c-0.292-13.407,5.711-23.762,16.437-31.415c3.139-2.432,7.582-2.212,10.465,0.52c0.373,0.274,0.769,0.518,1.185,0.727
			c0.198,0.003,0.396-0.023,0.586-0.078l0.379-4.526c3.895-0.688,7.608,1.912,8.296,5.807c0.245,1.387,0.077,2.815-0.486,4.106
			c-1.104,2.599-2.792,4.908-4.934,6.75c-5.558,4.46-11.407,8.669-18.814,9.539c-1.634,0.066-3.001,1.265-3.279,2.876
			c-1.298,4.428-2.597,8.96,0.955,12.854c3.44,3.772,8.21,3.606,12.41,2.173c6.073-1.973,11.928-4.566,17.471-7.739
			c5.862-3.772,11.479-7.91,16.818-12.39c0.848-0.874,1.256-2.085,1.111-3.294c-0.599-2.327-0.036-4.8,1.51-6.64
			c3.265-3.634,6.655-7.173,10.08-10.668c0.591-0.585,1.407-0.88,2.235-0.81C775.586,37.771,779.242,39.805,782.089,42.748z
			 M711.21,59.431c5.816-4.393,10.931-8.466,14.318-14.772c-5.964,0.873-12.698,7.771-14.324,14.781L711.21,59.431z M758.967,89.504
			c6.276-0.644,11.963-4.754,12.683-9.121c-4.697,2.357-9.245,4.479-12.688,9.119L758.967,89.504z"/>
	</g>
	<g>
		<path fill="#E39F32" d="M245.713,60.822h11.844c-0.213-3.092-2.743-5.513-5.841-5.592c-3.12,0.097-5.688,2.486-6.007,5.592l0,0
			H245.713z M251.886,48.475c15.959,0,15.3,15.549,15.3,15.549v2.467H245.55c0.092,3.727,3.188,6.674,6.916,6.582
			c0.025,0,0.051-0.002,0.077-0.002c2.553-0.17,4.847-1.627,6.088-3.866l7.648,3.78c-2.885,4.758-8.091,7.613-13.653,7.486
			c-16.62,0-16.947-13.819-16.947-15.545C235.68,63.199,235.931,48.475,251.886,48.475L251.886,48.475z M287.417,71.754
			L287.417,71.754c-0.505,0-6.666,0.084-6.666-7.484c-0.348-3.957,2.579-7.448,6.538-7.796c0.068-0.007,0.139-0.011,0.207-0.015
			c4.19,0.049,7.561,3.459,7.561,7.65c0.105,4.117-3.147,7.542-7.265,7.646c-0.13,0.004-0.259,0.004-0.387,0l0,0L287.417,71.754z
			 M294.657,29.205v22.806c-2.882-2.105-6.313-3.33-9.876-3.528c-5.261,0-14.146,3.702-14.146,15.371
			c0,11.67,7.56,16.129,14.068,16.129c3.819,0.021,7.479-1.527,10.121-4.285v3.806h9.377V29.205h-9.54H294.657z M357.908,50.038
			h9.543v16.865c0.094,3.097,2.581,5.585,5.678,5.678c2.969-0.058,5.33-2.511,5.273-5.479c-0.001-0.066-0.004-0.133-0.007-0.198
			V50.12h9.623v17.36c0,0,1.236,13.572-14.644,13.572c-15.879,0-15.466-11.927-15.466-14.066V50.04l0,0L357.908,50.038z
			 M393.57,29.205h9.419v50.298h-9.419V29.205L393.57,29.205L393.57,29.205z M409.57,29.205h9.295v50.298h-9.295V29.205
			L409.57,29.205L409.57,29.205z M338.782,71.097h-8.923V39.64h4.77c0,0,6.481-0.488,6.481,5.169
			c0.278,2.569-1.58,4.878-4.148,5.155c-0.336,0.037-0.673,0.037-1.008,0h-2.969v8.478h5.796c3.336-0.176,6.182,2.387,6.357,5.722
			c0.01,0.192,0.012,0.386,0.003,0.579c0,5.568-6.357,6.354-6.357,6.354l0,0H338.782z M346.803,53.245
			c2.806-2.485,4.397-6.066,4.359-9.815c0-6.428-4.669-12.224-14.615-12.224h-16.648v48.297h20.508c0,0,14.698-0.167,14.698-13.446
			c0-7.711-2.994-10.664-8.315-12.809l0,0L346.803,53.245z M201.278,30.175v49.328h9.955V39.6h4.689c0,0,7.32-0.331,7.32,6.334
			c0.151,3.439-2.514,6.349-5.953,6.499c-0.183,0.009-0.364,0.009-0.547,0h-2.386v11.352l9.957,15.729h11.679l-13.903-20.16
			c6.778-0.705,11.809-6.605,11.433-13.409c0-12.42-8.638-15.747-20.159-15.747h-12.096L201.278,30.175z"/>
		<path fill="#E39F32" d="M61.51,44.957c-0.22-0.44-0.18-0.967,0.106-1.368c0.577-0.885,1.116,0.081,1.116,0.081
			c1.145,2.132,1.333,4.65,0.52,6.929c0.003-2.013-0.604-3.979-1.741-5.639l0,0V44.957z M78.672,63.335
			c0.192-1.146-0.07-2.321-0.731-3.276c-0.305-0.252-1.513-1.566-1.513-1.566c-0.057-0.154-0.175-0.277-0.325-0.34
			c-0.251,0.107-0.455,0.305-0.571,0.553c-0.862,1.661-1.72,1.46-1.72,1.46c0.015-0.226,0.081-0.445,0.197-0.641
			c0.233-0.442,1.235-2.427,1.235-2.427c0.125-0.289,0.253-0.672,0.253-0.672c0.832-1.288,1.612-0.309,1.612-0.309
			c0.682,1.011,1.421,1.98,2.212,2.906c0.244,0.285,0.401,0.635,0.455,1.008c0.433,3.044-1.093,3.291-1.093,3.291l0,0L78.672,63.335
			z M73.761,71.092c-0.353,0-0.442-0.139-0.401-0.527c0.143-0.645,0.542-1.203,1.105-1.549c1.627-0.973,1.824,0,1.824,0
			c0.279,0.771-0.121,1.624-0.895,1.902c-0.059,0.021-0.118,0.039-0.18,0.053c-0.481,0.076-0.967,0.117-1.454,0.121l0,0H73.761z
			 M2.986,76.131c0.223,0.195,0.29,0.512,0.164,0.779c-0.411,1.069-0.703,2.182-0.863,3.316c0,0-2.015,0.357-2.286-0.633
			c-0.011-0.334,0.085-0.661,0.273-0.938c0.251-0.449,0.397-0.95,0.429-1.465c0,0-0.032-2.381,1.512-1.75
			c0.298,0.18,0.559,0.412,0.771,0.688l0,0V76.131z M5.437,72.18c0.347-0.297,0.811-0.42,1.26-0.332
			c0.342,0.035,0.59,0.342,0.554,0.685c-0.015,0.138-0.076,0.267-0.172,0.366c-0.487,0.719-1.05,1.383-1.678,1.98
			c-0.617,0.498-1.517,0.426-2.049-0.164C3.04,74.5,2.961,74.07,3.177,73.758c0.102-0.146,0.254-0.246,0.427-0.282
			c0.66-0.364,1.277-0.8,1.842-1.298l0,0L5.437,72.18z M17.2,57.285c-0.166,2.277,0.254,4.561,1.225,6.629
			c0.641,0.807,0.621,1.953-0.045,2.737l-2.433,1.413c-0.441,0.201-0.935,0.258-1.41,0.162c-0.676-0.211-1.41-0.104-1.998,0.289
			c-0.279,0.795-0.606,1.57-0.981,2.324c-0.607,1.397-1.635,2.571-2.941,3.359c-0.847,0.209-1.552,0.799-1.902,1.6
			c-0.292,0.521-0.819,0.867-1.413,0.928c-0.645,0.385-1.076,1.044-1.17,1.789c-0.148,0.586-0.233,1.187-0.252,1.791
			c0.662-0.086,1.335-0.043,1.981,0.126c1.029,0.368,2.177-0.021,2.772-0.937c0,0,1.662-2.846,2.891-2.417
			c1.48,0.457,3.092,0.084,4.221-0.979c1.507-1.551,3.646-2.319,5.795-2.081c1.649,0.406,3.378,0.369,5.008-0.107
			c0,0,2.409-1.262,3.312-1.57c0.672-0.228,1.15-0.828,1.219-1.535c0.304-0.796,0.692-1.557,1.161-2.268l-1.822-0.021
			c-1.043,1.663-2.61,2.933-4.453,3.608c-1.503,0.418-3.086,0.458-4.609,0.115c-3.129-0.436-6.264,0.77-8.295,3.191
			c-0.281,0.422-0.804,0.609-1.288,0.461c1.579-2.37,4.049-4,6.849-4.521c0.93-0.187,1.883-0.227,2.826-0.118
			c3.997-0.071,7.6-2.421,9.278-6.048c0,0-0.318-5.32,1.084-6.58c0,0,0.542-0.166,0.436,0.865c0,0-0.965,5.574,0.846,6.652
			c0.892,0.559,1.967,0.745,2.996,0.52c1.752-0.402,3.561-0.502,5.348-0.295c2.247,0.506,4.559,0.665,6.854,0.471
			c-0.503-0.832-0.735-1.801-0.663-2.771c0,0,0.454-1.079,0.976-0.386c0.722,2.303,2.372,4.2,4.55,5.236
			c1.899,0.843,3.069,2.783,2.926,4.856c-1.355,0.867-2.841,1.514-4.399,1.917c-0.717,0.278-1.532,0.013-1.949-0.635
			c0,0-1.902-4.072-3.558-3.946l-3.109,0.252c-0.337,0.031-0.584,0.33-0.553,0.666c0.017,0.186,0.118,0.354,0.273,0.455
			c0.55,0.725,1.056,1.482,1.512,2.268c0.127,0.456,0.602,0.721,1.057,0.593c0.023-0.007,0.047-0.014,0.069-0.022
			c0,0,1.388-0.688,2.17,1.893c0.44,0.762,1.117,1.359,1.928,1.703c0.732,0.213,1.52,0.135,2.196-0.219
			c2.062-0.725,4.076-1.578,6.031-2.553c0.604-0.34,1.311-0.455,1.991-0.322c0.832,0.213,1.707-0.129,2.174-0.85l1.591-2.461
			c0.222-0.422,0.326-0.895,0.304-1.369c0.051-0.553-0.132-1.102-0.504-1.512c-0.305-0.314-0.541-0.688-0.695-1.097l-1.135-2.666
			c-0.254-0.394-0.581-0.735-0.965-1.007l-1.512,0.109c0.498,1.297,1.101,2.551,1.803,3.748c0.525,0.771,0.86,1.657,0.981,2.582
			c-0.029,0.36-0.146,0.707-0.346,1.009c0,0-0.351,0.56-0.491,0.831c-0.195,0.456-0.479,0.869-0.832,1.217
			c-0.253,0.157-0.522,0.29-0.801,0.396c0,0-0.279,0.078-0.073-0.424c0.424-0.859,0.692-1.788,0.794-2.742
			c0.086-0.582-0.116-1.17-0.542-1.576c-0.705-1.084-1.334-2.215-1.886-3.385c-0.205-0.441-0.472-0.853-0.793-1.221
			c-0.249-0.279-0.224-0.707,0.055-0.957c0.085-0.075,0.187-0.127,0.298-0.153c0.932-0.194,1.847-0.464,2.734-0.81
			c0.992-0.552,1.671-1.535,1.837-2.658c0.526-1.408,0.857-2.881,0.982-4.379c1.119,2.543,0.667,5.504-1.161,7.598
			c1.131,0.381,2.354,0.381,3.484,0c0,0,3.073-0.449,3.666-0.613c0,0,0.771-0.186,0.33,0.361c-0.474,0.656-0.816,1.396-1.009,2.182
			c-0.053,0.432-0.277,0.823-0.623,1.088c-0.871,0.578-1.535,1.416-1.899,2.395c0,0-0.375,1.127,0.399,0.857
			c0.438-0.254,0.979-0.254,1.417,0c0,0,0.107,0.051-0.296,0.504c-0.617,0.558-1.017,1.314-1.129,2.137
			c0.074,0.651,0.267,1.283,0.565,1.867c0.282,0.379,0.76,0.555,1.219,0.449c0.167-0.105,0.371-0.125,0.555-0.053
			c0.458-0.05,0.906-0.162,1.332-0.336c0,0,1.462-0.4,1.95-0.574c0.892-0.332,1.825-0.54,2.772-0.619
			c0.455-0.035,0.913-0.007,1.359,0.084c1.443,0.115,2.863-0.415,3.878-1.447c0,0,1.182-0.936,1.582-0.027
			c1.762,2.232,4.615,3.309,7.414,2.796c-1.837-0.716-3.432-1.946-4.59-3.543c-0.285-1.542-0.988-2.976-2.037-4.144
			c0,0-0.584-0.798-0.019-1.008c0,0,0.324-0.252,1.039,0.472c1.003,0.966,1.837,2.093,2.468,3.335
			c1.163,1.852,3.373,2.764,5.504,2.268c-1.478-0.589-2.771-1.563-3.747-2.818c-0.625-1.73-1.75-3.236-3.231-4.328
			c-0.055-1.535-0.488-3.033-1.26-4.36c0,0-0.592-2.62-0.756-3.233c-0.275-0.963-0.484-1.945-0.623-2.938
			c0.062-1.93-0.551-3.821-1.73-5.347c-0.865-1.592-1.986-3.027-3.322-4.25c0,0-1.537-1.9-2.679-3.061
			c-1.436-1.534-3.042-2.897-4.787-4.064c-0.917-0.677-1.777-1.426-2.573-2.24c0,0-5.783-4.163-9.962-0.824
			c-1.633,1.103-3.414,1.969-5.292,2.57c-2.794,0.344-5.333,1.79-7.056,4.015c-0.521,0.654-1.347,0.987-2.177,0.876
			c-3.018-0.132-5.893,1.295-7.612,3.779c-1.269,1.049-2.827,1.684-4.468,1.82c-3.015-0.199-5.958,0.984-7.995,3.218
			c0,0-7.956,6.939-12.699,2.439c0,0-2.456-2.329,0.353-6.552c1.443-1.639,3.061-3.113,4.824-4.398
			c1.407-1.001,1.956-2.829,1.334-4.439c-0.623-1.788-2.404-2.903-4.284-2.679c-2.433-0.445-4.69-1.568-6.514-3.238
			c0,0-2.093,7.378,6.127,7.253c0,0,2.143,0.317,1.394,2.015c-0.639,0.858-1.484,1.541-2.459,1.983
			c-1.796,1.003-3.098,2.701-3.602,4.694c-1.45,3.354,0.095,7.247,3.45,8.696c0.051,0.022,0.104,0.045,0.157,0.065
			c2.448,0.665,5.021,0.716,7.493,0.149l0,0L17.2,57.285z"/>
		<path fill="#E39F32" d="M124.083,44.957c0.22-0.44,0.18-0.967-0.106-1.368c-0.577-0.885-1.113,0.081-1.113,0.081
			c-1.146,2.132-1.336,4.65-0.522,6.929c-0.004-2.013,0.604-3.979,1.742-5.639l0,0V44.957z M106.922,63.335
			c-0.194-1.146,0.067-2.321,0.728-3.276c0.308-0.252,1.513-1.566,1.513-1.566c0.057-0.154,0.175-0.277,0.325-0.34
			c0.253,0.107,0.455,0.305,0.572,0.553c0.859,1.661,1.719,1.46,1.719,1.46c-0.015-0.226-0.081-0.445-0.197-0.641
			c-0.233-0.442-1.235-2.427-1.235-2.427c-0.125-0.289-0.253-0.672-0.253-0.672c-0.832-1.288-1.612-0.309-1.612-0.309
			c-0.682,1.011-1.419,1.98-2.212,2.906c-0.243,0.285-0.401,0.635-0.454,1.008c-0.432,3.044,1.091,3.291,1.091,3.291l0,0
			L106.922,63.335z M111.833,71.092c0.354,0,0.442-0.139,0.4-0.527c-0.142-0.645-0.542-1.203-1.104-1.549
			c-1.627-0.973-1.826,0-1.826,0c-0.278,0.771,0.121,1.624,0.895,1.902c0.059,0.021,0.12,0.039,0.18,0.053
			C110.858,71.047,111.344,71.088,111.833,71.092L111.833,71.092z M182.606,76.131c-0.221,0.195-0.287,0.512-0.164,0.779
			c0.413,1.069,0.704,2.182,0.865,3.316c0,0,2.015,0.357,2.285-0.633c0.011-0.334-0.085-0.662-0.273-0.938
			c-0.251-0.449-0.397-0.95-0.429-1.465c0,0,0.032-2.381-1.512-1.75c-0.297,0.18-0.56,0.413-0.772,0.688l0,0V76.131z M180.157,72.18
			c-0.345-0.293-0.802-0.416-1.248-0.332c-0.342,0.035-0.591,0.34-0.557,0.683c0.015,0.138,0.076,0.269,0.172,0.368
			c0.486,0.719,1.05,1.383,1.678,1.98c0.619,0.498,1.518,0.426,2.049-0.164c0.312-0.215,0.39-0.645,0.174-0.957
			c-0.102-0.146-0.254-0.246-0.427-0.282c-0.658-0.364-1.274-0.8-1.839-1.298l0,0L180.157,72.18z M168.394,57.285
			c0.167,2.277-0.254,4.561-1.225,6.629c-0.641,0.807-0.621,1.953,0.045,2.737l2.431,1.413c0.444,0.201,0.938,0.258,1.414,0.162
			c0.676-0.211,1.41-0.104,1.999,0.289c0.277,0.795,0.606,1.57,0.981,2.324c0.607,1.397,1.634,2.571,2.94,3.359
			c0.849,0.207,1.552,0.799,1.902,1.6c0.293,0.521,0.821,0.867,1.415,0.928c0.645,0.385,1.076,1.044,1.169,1.789
			c0.147,0.586,0.232,1.187,0.251,1.791c-0.663-0.086-1.336-0.043-1.983,0.126c-1.03,0.368-2.177-0.021-2.772-0.937
			c0,0-1.662-2.846-2.893-2.417c-1.48,0.457-3.092,0.084-4.22-0.979c-1.506-1.551-3.645-2.319-5.796-2.081
			c-1.648,0.406-3.375,0.369-5.005-0.107c0,0-2.408-1.262-3.312-1.57c-0.672-0.227-1.15-0.828-1.219-1.535
			c-0.304-0.796-0.693-1.557-1.161-2.268l1.822-0.021c1.043,1.663,2.61,2.933,4.453,3.608c1.504,0.418,3.087,0.458,4.61,0.115
			c3.129-0.436,6.264,0.77,8.295,3.191c0.279,0.42,0.801,0.607,1.284,0.461c-1.578-2.371-4.047-4.002-6.848-4.521
			c-0.931-0.187-1.883-0.227-2.825-0.118c-3.997-0.071-7.602-2.421-9.279-6.048c0,0,0.32-5.32-1.084-6.58
			c0,0-0.54-0.166-0.434,0.865c0,0,0.963,5.574-0.847,6.652c-0.892,0.558-1.968,0.744-2.996,0.52
			c-1.752-0.402-3.56-0.502-5.346-0.295c-2.247,0.506-4.561,0.665-6.857,0.471c0.503-0.832,0.734-1.801,0.661-2.771
			c0,0-0.455-1.079-0.976-0.386c-0.723,2.302-2.371,4.2-4.549,5.236c-1.899,0.842-3.07,2.782-2.929,4.856
			c1.358,0.867,2.844,1.514,4.402,1.917c0.719,0.278,1.534,0.013,1.952-0.635c0,0,1.899-4.072,3.558-3.946l3.109,0.252
			c0.337,0.033,0.583,0.332,0.55,0.668c-0.017,0.186-0.118,0.352-0.272,0.453c-0.551,0.725-1.057,1.482-1.513,2.268
			c-0.126,0.455-0.598,0.721-1.051,0.594c-0.025-0.006-0.05-0.014-0.074-0.023c0,0-1.386-0.688-2.169,1.893
			c-0.441,0.762-1.117,1.36-1.928,1.703c-0.734,0.213-1.521,0.135-2.198-0.219c-2.06-0.725-4.075-1.578-6.028-2.553
			c-0.604-0.34-1.311-0.455-1.991-0.322c-0.832,0.213-1.708-0.129-2.174-0.85l-1.591-2.461c-0.222-0.422-0.327-0.895-0.304-1.369
			c-0.051-0.553,0.132-1.102,0.504-1.512c0.307-0.314,0.542-0.688,0.696-1.097l1.135-2.666c0.254-0.395,0.581-0.735,0.965-1.007
			l1.512,0.109c-0.499,1.297-1.103,2.551-1.806,3.748c-0.525,0.771-0.86,1.657-0.981,2.582c0.029,0.36,0.148,0.707,0.346,1.009
			c0,0,0.351,0.56,0.504,0.831c0.194,0.456,0.476,0.869,0.829,1.217c0.254,0.158,0.522,0.29,0.801,0.396c0,0,0.282,0.078,0.07-0.424
			c-0.425-0.859-0.693-1.788-0.793-2.742c-0.086-0.581,0.114-1.17,0.539-1.576c0.705-1.084,1.336-2.215,1.887-3.385
			c0.207-0.443,0.473-0.854,0.794-1.221c0.248-0.279,0.224-0.707-0.058-0.957c-0.084-0.075-0.188-0.128-0.298-0.153
			c-0.933-0.194-1.847-0.464-2.733-0.81c-0.994-0.552-1.673-1.533-1.84-2.658c-0.526-1.408-0.857-2.881-0.982-4.379
			c-1.119,2.543-0.667,5.504,1.164,7.598c-1.131,0.381-2.357,0.381-3.488,0c0,0-3.072-0.449-3.667-0.613
			c0,0-0.771-0.186-0.328,0.361c0.473,0.656,0.815,1.396,1.007,2.182c0.054,0.432,0.277,0.824,0.623,1.088
			c0.871,0.578,1.535,1.416,1.899,2.395c0,0,0.375,1.127-0.399,0.857c-0.437-0.254-0.977-0.254-1.414,0c0,0-0.107,0.051,0.295,0.504
			c0.616,0.558,1.015,1.314,1.126,2.137c-0.074,0.651-0.267,1.283-0.563,1.867c-0.283,0.379-0.762,0.555-1.221,0.449
			c-0.166-0.105-0.374-0.125-0.557-0.053c-0.458-0.05-0.906-0.162-1.333-0.336c0,0-1.461-0.4-1.95-0.574
			c-0.892-0.332-1.825-0.54-2.772-0.619c-0.454-0.035-0.911-0.007-1.358,0.084c-1.444,0.115-2.864-0.415-3.878-1.447
			c0,0-1.179-0.936-1.581-0.027c-1.763,2.233-4.617,3.31-7.416,2.796c1.84-0.716,3.436-1.945,4.594-3.543
			c0.283-1.542,0.988-2.976,2.037-4.144c0,0,0.581-0.798,0.019-1.008c0,0-0.324-0.252-1.038,0.472
			c-1.003,0.966-1.837,2.093-2.467,3.335c-1.163,1.852-3.373,2.762-5.504,2.268c1.478-0.59,2.771-1.563,3.747-2.818
			c0.625-1.73,1.751-3.238,3.234-4.328c0.053-1.535,0.486-3.033,1.26-4.36c0,0,0.591-2.62,0.754-3.233
			c0.276-0.963,0.484-1.945,0.623-2.938c-0.061-1.93,0.551-3.821,1.732-5.347c0.864-1.592,1.987-3.027,3.323-4.25
			c0,0,1.537-1.9,2.679-3.061c1.437-1.534,3.042-2.897,4.789-4.064c0.915-0.677,1.775-1.426,2.57-2.24c0,0,5.783-4.163,9.961-0.824
			c1.633,1.103,3.415,1.969,5.292,2.57c2.792,0.344,5.333,1.79,7.056,4.015c0.52,0.655,1.347,0.988,2.175,0.876
			c3.018-0.132,5.895,1.295,7.613,3.779c1.27,1.049,2.83,1.684,4.471,1.82c3.015-0.199,5.957,0.984,7.993,3.218
			c0,0,7.956,6.939,12.7,2.439c0,0,2.458-2.329-0.353-6.552c-1.44-1.639-3.058-3.113-4.821-4.398
			c-1.407-1.001-1.956-2.829-1.334-4.439c0.623-1.788,2.404-2.903,4.284-2.679c2.433-0.445,4.69-1.568,6.514-3.238
			c0,0,2.097,7.378-6.127,7.253c0,0-2.141,0.317-1.394,2.015c0.639,0.858,1.486,1.541,2.46,1.983
			c1.795,1.003,3.097,2.701,3.601,4.694c1.449,3.354-0.096,7.247-3.45,8.696c-0.054,0.022-0.106,0.045-0.159,0.065
			c-2.447,0.665-5.02,0.716-7.492,0.149l0,0L168.394,57.285z"/>
		<path fill="#E39F32" d="M92.797,19.173c11.843,0.006,22.887,5.981,29.373,15.891c0.26-0.154,0.534-0.278,0.822-0.371
			c-6.637-10.229-18-16.406-30.195-16.413c-12.098,0.006-23.387,6.086-30.049,16.186c0.298,0.061,0.584,0.172,0.847,0.327
			C70.11,25.037,81.066,19.176,92.797,19.173z"/>
		<path fill="#E39F32" d="M122.893,72.416c-6.354,10.559-17.771,17.02-30.096,17.025c-12.144-0.006-23.424-6.283-29.83-16.602
			c-0.194,0.23-0.425,0.428-0.681,0.588c6.585,10.51,18.11,16.896,30.511,16.906c12.558-0.007,24.205-6.549,30.745-17.268
			C123.301,72.877,123.084,72.658,122.893,72.416z"/>
	</g>
</g>
</svg>
