<?xml version="1.0" encoding="utf-8"?>
<!-- Generator: Adobe Illustrator 16.0.0, SVG Export Plug-In . SVG Version: 6.00 Build 0)  -->
<!DOCTYPE svg PUBLIC "-//W3C//DTD SVG 1.1//EN" "http://www.w3.org/Graphics/SVG/1.1/DTD/svg11.dtd">
<svg version="1.1" id="Layer_1" xmlns="http://www.w3.org/2000/svg" xmlns:xlink="http://www.w3.org/1999/xlink" x="0px" y="0px"
	 width="688.714px" height="86.551px" viewBox="0 0 688.714 86.551" enable-background="new 0 0 688.714 86.551"
	 xml:space="preserve">
<g>
	<path fill="#E29E33" d="M209.43,52.473h10.095c-0.181-2.637-2.338-4.7-4.978-4.767c-2.66,0.083-4.85,2.119-5.12,4.767l0,0H209.43z
		 M214.689,41.948c13.604,0,13.042,13.252,13.042,13.252v2.102H209.29c0.079,3.178,2.718,5.689,5.895,5.609c0.021,0,0.043,0,0.065,0
		c2.176-0.146,4.131-1.387,5.189-3.295l6.519,3.221c-2.459,4.057-6.896,6.489-11.636,6.381c-14.167,0-14.445-11.777-14.445-13.248
		C200.877,54.497,201.092,41.948,214.689,41.948L214.689,41.948z M244.974,61.79L244.974,61.79c-0.43,0-5.681,0.069-5.681-6.38
		c-0.296-3.374,2.199-6.35,5.573-6.646c0.059-0.006,0.118-0.01,0.177-0.012c3.571,0.041,6.444,2.947,6.444,6.519
		c0.09,3.512-2.683,6.43-6.192,6.52c-0.111,0.005-0.219,0.005-0.329,0l0,0L244.974,61.79z M251.146,25.523v19.439
		c-2.457-1.795-5.38-2.84-8.418-3.008c-4.483,0-12.057,3.156-12.057,13.102c0,9.946,6.444,13.746,11.992,13.746
		c3.255,0.02,6.373-1.302,8.626-3.651v3.243h7.992V25.523h-8.131H251.146z M305.056,43.28h8.134v14.374
		c0.079,2.638,2.2,4.76,4.839,4.84c2.531-0.049,4.542-2.14,4.495-4.67c-0.001-0.056-0.004-0.112-0.006-0.17V43.351h8.203v14.797
		c0,0,1.053,11.568-12.481,11.568c-13.534,0-13.181-10.167-13.181-11.99V43.282l0,0L305.056,43.28z M335.452,25.523h8.028v42.871
		h-8.028V25.523L335.452,25.523L335.452,25.523z M349.089,25.523h7.924v42.871h-7.924V25.523L349.089,25.523L349.089,25.523z
		 M288.755,61.228h-7.606V34.417h4.065c0,0,5.525-0.417,5.525,4.406c0.236,2.189-1.348,4.157-3.537,4.395
		c-0.286,0.029-0.573,0.029-0.859,0h-2.53v7.225h4.94c2.842-0.149,5.268,2.035,5.418,4.877c0.009,0.163,0.01,0.329,0.003,0.492
		C294.175,60.561,288.756,61.228,288.755,61.228L288.755,61.228L288.755,61.228z M295.591,46.013
		c2.392-2.117,3.748-5.17,3.715-8.365c0-5.479-3.979-10.419-12.456-10.419h-14.19v41.166h17.479c0,0,12.529-0.141,12.529-11.46
		c0-6.573-2.552-9.09-7.089-10.918l0,0L295.591,46.013z M171.555,26.35v42.044h8.485V34.383h3.997c0,0,6.238-0.281,6.238,5.4
		c0.13,2.931-2.142,5.409-5.073,5.539c-0.156,0.005-0.31,0.005-0.466,0h-2.034v9.675l8.486,13.404h9.955l-11.849-17.183
		c5.776-0.601,10.063-5.63,9.744-11.427c0-10.588-7.362-13.423-17.182-13.423h-10.309L171.555,26.35z"/>
	<path fill="#E29E33" d="M52.427,38.95c-0.188-0.377-0.153-0.824,0.09-1.166c0.492-0.756,0.951,0.068,0.951,0.068
		c0.977,1.818,1.137,3.963,0.443,5.904C53.914,42.044,53.396,40.368,52.427,38.95L52.427,38.95L52.427,38.95z M67.055,54.613
		c0.164-0.977-0.059-1.979-0.624-2.792c-0.26-0.213-1.29-1.337-1.29-1.337c-0.047-0.13-0.149-0.235-0.276-0.29
		c-0.214,0.094-0.388,0.262-0.487,0.474c-0.734,1.415-1.465,1.243-1.465,1.243c0.013-0.193,0.069-0.379,0.168-0.545
		c0.198-0.379,1.053-2.07,1.053-2.07c0.106-0.244,0.215-0.572,0.215-0.572c0.709-1.096,1.375-0.262,1.375-0.262
		c0.58,0.859,1.21,1.688,1.885,2.477c0.207,0.244,0.342,0.541,0.388,0.859c0.369,2.594-0.931,2.805-0.931,2.805l0,0L67.055,54.613z
		 M62.869,61.224c-0.301,0-0.376-0.117-0.342-0.447c0.122-0.549,0.462-1.026,0.942-1.322c1.388-0.829,1.555,0,1.555,0
		c0.238,0.658-0.104,1.384-0.763,1.621c-0.05,0.021-0.1,0.035-0.154,0.045C63.697,61.188,63.283,61.223,62.869,61.224L62.869,61.224
		L62.869,61.224z M2.545,65.521c0.19,0.166,0.248,0.436,0.14,0.664c-0.35,0.91-0.598,1.858-0.735,2.825c0,0-1.717,0.306-1.949-0.538
		c-0.009-0.285,0.074-0.564,0.234-0.799c0.214-0.383,0.338-0.811,0.365-1.248c0,0-0.027-2.031,1.288-1.494
		c0.254,0.156,0.477,0.354,0.657,0.588l0,0V65.521z M4.634,62.151c0.295-0.253,0.692-0.355,1.075-0.283
		C6,61.899,6.211,62.161,6.18,62.452c-0.012,0.118-0.064,0.227-0.146,0.313c-0.416,0.612-0.896,1.18-1.431,1.688
		c-0.526,0.425-1.293,0.362-1.746-0.139c-0.266-0.185-0.333-0.549-0.149-0.815c0.086-0.125,0.217-0.211,0.364-0.242
		c0.562-0.309,1.088-0.681,1.569-1.105l0,0L4.634,62.151z M14.66,49.456c-0.142,1.942,0.217,3.887,1.044,5.65
		c0.546,0.688,0.529,1.665-0.039,2.334l-2.073,1.203c-0.376,0.172-0.796,0.221-1.201,0.14c-0.578-0.18-1.202-0.09-1.704,0.246
		c-0.238,0.677-0.516,1.338-0.836,1.979c-0.519,1.191-1.394,2.193-2.508,2.863c-0.721,0.18-1.322,0.682-1.621,1.363
		c-0.249,0.443-0.698,0.74-1.205,0.792c-0.549,0.327-0.917,0.89-0.996,1.524c-0.126,0.499-0.2,1.012-0.216,1.527
		c0.565-0.073,1.139-0.037,1.689,0.107c0.878,0.314,1.856-0.018,2.364-0.799c0,0,1.417-2.426,2.463-2.059
		c1.262,0.389,2.635,0.069,3.597-0.835c1.285-1.321,3.108-1.978,4.939-1.774c1.405,0.347,2.88,0.314,4.269-0.092
		c0,0,2.053-1.075,2.822-1.338c0.573-0.193,0.981-0.705,1.04-1.309c0.259-0.68,0.59-1.325,0.99-1.932l-1.554-0.02
		c-0.889,1.418-2.224,2.501-3.795,3.076c-1.281,0.356-2.63,0.393-3.929,0.1c-2.667-0.373-5.339,0.654-7.07,2.72
		c-0.239,0.358-0.685,0.519-1.097,0.392c1.345-2.018,3.451-3.409,5.836-3.852c0.793-0.16,1.605-0.195,2.409-0.102
		c3.405-0.063,6.477-2.063,7.908-5.156c0,0-0.271-4.532,0.923-5.607c0,0,0.462-0.141,0.372,0.738c0,0-0.823,4.75,0.722,5.67
		c0.76,0.477,1.676,0.635,2.554,0.441c1.493-0.342,3.035-0.427,4.558-0.252c1.915,0.433,3.885,0.567,5.841,0.401
		c-0.428-0.708-0.626-1.535-0.564-2.36c0,0,0.387-0.92,0.831-0.33c0.615,1.963,2.022,3.58,3.879,4.464
		c1.619,0.717,2.615,2.372,2.493,4.139c-1.155,0.739-2.421,1.292-3.749,1.634c-0.612,0.236-1.306,0.01-1.661-0.541
		c0,0-1.621-3.471-3.034-3.363l-2.65,0.215c-0.286,0.027-0.498,0.281-0.47,0.568c0.015,0.158,0.101,0.301,0.233,0.389
		c0.469,0.617,0.9,1.262,1.289,1.932c0.11,0.389,0.514,0.613,0.901,0.505c0.02-0.005,0.04-0.011,0.058-0.019
		c0,0,1.183-0.586,1.851,1.612c0.374,0.649,0.952,1.16,1.643,1.451c0.625,0.183,1.295,0.116,1.872-0.187
		c1.757-0.617,3.475-1.345,5.141-2.176c0.515-0.288,1.117-0.387,1.696-0.274c0.709,0.183,1.456-0.11,1.854-0.724l1.356-2.099
		c0.189-0.357,0.277-0.761,0.259-1.167c0.043-0.469-0.113-0.937-0.43-1.287c-0.261-0.27-0.461-0.585-0.592-0.936l-0.968-2.271
		c-0.217-0.334-0.496-0.627-0.822-0.859l-1.288,0.096c0.423,1.105,0.938,2.172,1.537,3.192c0.447,0.659,0.733,1.413,0.836,2.202
		c-0.024,0.306-0.124,0.602-0.295,0.859c0,0-0.299,0.477-0.418,0.709c-0.167,0.389-0.408,0.74-0.709,1.037
		c-0.215,0.135-0.445,0.248-0.683,0.337c0,0-0.238,0.065-0.063-0.36c0.362-0.732,0.592-1.524,0.678-2.339
		c0.074-0.495-0.098-0.997-0.461-1.344c-0.601-0.923-1.138-1.888-1.607-2.883c-0.174-0.378-0.401-0.728-0.676-1.04
		c-0.212-0.238-0.191-0.604,0.047-0.818c0.073-0.063,0.16-0.107,0.254-0.13c0.793-0.166,1.574-0.396,2.33-0.689
		c0.846-0.47,1.424-1.308,1.566-2.266c0.448-1.201,0.731-2.455,0.837-3.733c0.954,2.17,0.569,4.693-0.99,6.477
		c0.965,0.324,2.006,0.324,2.97,0c0,0,2.619-0.383,3.125-0.522c0,0,0.656-0.157,0.28,0.309c-0.404,0.56-0.695,1.19-0.859,1.857
		c-0.045,0.368-0.236,0.703-0.531,0.931c-0.743,0.49-1.309,1.205-1.619,2.039c0,0-0.32,0.961,0.34,0.73
		c0.374-0.216,0.834-0.216,1.208,0c0,0,0.091,0.043-0.252,0.429c-0.526,0.476-0.867,1.12-0.962,1.822
		c0.063,0.556,0.227,1.095,0.481,1.591c0.24,0.324,0.647,0.474,1.039,0.383c0.142-0.09,0.316-0.106,0.473-0.045
		c0.391-0.041,0.772-0.139,1.135-0.284c0,0,1.247-0.343,1.664-0.491c0.759-0.283,1.556-0.459,2.362-0.529
		c0.388-0.028,0.779-0.005,1.158,0.072c1.23,0.1,2.44-0.352,3.307-1.232c0,0,1.007-0.797,1.348-0.023
		c1.501,1.903,3.934,2.821,6.318,2.382c-1.566-0.608-2.925-1.657-3.912-3.019c-0.243-1.314-0.843-2.537-1.736-3.531
		c0,0-0.498-0.68-0.016-0.859c0,0,0.277-0.213,0.885,0.401c0.855,0.823,1.566,1.783,2.104,2.843
		c0.991,1.578,2.874,2.356,4.691,1.934c-1.259-0.503-2.361-1.332-3.192-2.402c-0.534-1.475-1.492-2.759-2.754-3.69
		c-0.048-1.307-0.416-2.583-1.074-3.716c0,0-0.505-2.234-0.646-2.754c-0.234-0.823-0.412-1.658-0.53-2.504
		c0.052-1.647-0.47-3.258-1.475-4.559c-0.738-1.356-1.693-2.58-2.832-3.623c0,0-1.309-1.619-2.283-2.608
		c-1.224-1.307-2.592-2.468-4.081-3.464c-0.781-0.577-1.514-1.216-2.193-1.91c0,0-4.929-3.548-8.491-0.703
		c-1.392,0.941-2.91,1.679-4.51,2.19c-2.382,0.292-4.545,1.526-6.013,3.422c-0.445,0.558-1.148,0.842-1.856,0.748
		c-2.572-0.113-5.022,1.103-6.488,3.221c-1.082,0.895-2.409,1.436-3.809,1.551c-2.569-0.17-5.078,0.84-6.814,2.744
		c0,0-6.781,5.914-10.824,2.078c0,0-2.094-1.984,0.301-5.584c1.23-1.397,2.608-2.654,4.112-3.749
		c1.199-0.853,1.667-2.411,1.138-3.783c-0.531-1.526-2.05-2.474-3.652-2.283c-2.072-0.379-3.998-1.337-5.551-2.761
		c0,0-1.785,6.29,5.222,6.182c0,0,1.826,0.271,1.188,1.718c-0.545,0.731-1.266,1.313-2.097,1.689
		c-1.53,0.855-2.64,2.304-3.069,4.003c-1.236,2.857,0.081,6.178,2.94,7.412c0.042,0.018,0.088,0.039,0.133,0.055
		c2.086,0.567,4.28,0.611,6.387,0.128l0,0L14.66,49.456z"/>
	<path fill="#E29E33" d="M105.759,38.95c0.188-0.377,0.155-0.824-0.089-1.166c-0.492-0.756-0.949,0.068-0.949,0.068
		c-0.977,1.818-1.138,3.963-0.445,5.904C104.272,42.044,104.791,40.365,105.759,38.95L105.759,38.95L105.759,38.95z M91.133,54.613
		c-0.166-0.977,0.057-1.978,0.62-2.792c0.263-0.213,1.29-1.337,1.29-1.337c0.047-0.13,0.149-0.235,0.277-0.29
		c0.215,0.094,0.387,0.262,0.487,0.474c0.732,1.415,1.465,1.243,1.465,1.243c-0.013-0.193-0.069-0.379-0.167-0.545
		c-0.2-0.379-1.054-2.07-1.054-2.07c-0.106-0.244-0.216-0.572-0.216-0.572c-0.708-1.096-1.374-0.262-1.374-0.262
		c-0.581,0.859-1.209,1.688-1.886,2.477c-0.207,0.244-0.341,0.541-0.386,0.859c-0.368,2.594,0.93,2.805,0.93,2.805l0,0
		L91.133,54.613z M95.318,61.224c0.303,0,0.378-0.117,0.341-0.447c-0.121-0.549-0.462-1.026-0.94-1.322
		c-1.387-0.829-1.557,0-1.557,0c-0.236,0.658,0.102,1.384,0.762,1.621c0.051,0.021,0.102,0.035,0.154,0.045
		C94.488,61.188,94.902,61.223,95.318,61.224L95.318,61.224z M155.64,65.521c-0.188,0.166-0.244,0.436-0.139,0.664
		c0.352,0.91,0.6,1.858,0.738,2.825c0,0,1.717,0.306,1.947-0.538c0.009-0.285-0.072-0.564-0.233-0.799
		c-0.214-0.383-0.338-0.811-0.365-1.248c0,0,0.027-2.031-1.289-1.494c-0.252,0.156-0.477,0.354-0.659,0.588l0,0V65.521z
		 M153.554,62.151c-0.294-0.248-0.685-0.355-1.064-0.283c-0.292,0.03-0.503,0.291-0.475,0.584c0.013,0.117,0.065,0.227,0.146,0.313
		c0.416,0.612,0.896,1.18,1.43,1.688c0.528,0.425,1.294,0.362,1.747-0.139c0.266-0.185,0.333-0.549,0.149-0.815
		c-0.086-0.125-0.216-0.211-0.364-0.242c-0.562-0.309-1.086-0.681-1.567-1.105l0,0L153.554,62.151z M143.528,49.456
		c0.142,1.942-0.218,3.887-1.044,5.65c-0.545,0.688-0.529,1.665,0.04,2.334l2.072,1.203c0.377,0.172,0.8,0.221,1.205,0.14
		c0.577-0.181,1.202-0.09,1.703,0.246c0.237,0.677,0.517,1.338,0.836,1.979c0.518,1.191,1.393,2.193,2.505,2.863
		c0.725,0.18,1.323,0.682,1.623,1.363c0.249,0.443,0.699,0.74,1.205,0.792c0.549,0.327,0.918,0.89,0.997,1.524
		c0.125,0.499,0.199,1.012,0.214,1.527c-0.564-0.073-1.138-0.037-1.69,0.107c-0.876,0.314-1.855-0.018-2.362-0.799
		c0,0-1.417-2.426-2.465-2.059c-1.263,0.389-2.636,0.069-3.598-0.835c-1.284-1.321-3.106-1.978-4.94-1.774
		c-1.404,0.347-2.876,0.314-4.267-0.092c0,0-2.052-1.075-2.823-1.338c-0.573-0.193-0.98-0.705-1.039-1.309
		c-0.259-0.68-0.59-1.325-0.989-1.932l1.553-0.02c0.889,1.418,2.225,2.501,3.795,3.076c1.282,0.356,2.631,0.393,3.929,0.1
		c2.668-0.373,5.339,0.654,7.071,2.72c0.238,0.358,0.683,0.519,1.094,0.392c-1.345-2.021-3.45-3.409-5.837-3.852
		c-0.792-0.16-1.605-0.195-2.407-0.102c-3.407-0.063-6.479-2.063-7.91-5.156c0,0,0.273-4.532-0.923-5.607
		c0,0-0.461-0.141-0.371,0.738c0,0,0.821,4.75-0.722,5.67c-0.76,0.475-1.677,0.632-2.553,0.441
		c-1.495-0.342-3.035-0.427-4.557-0.252c-1.916,0.433-3.887,0.567-5.844,0.401c0.429-0.708,0.625-1.535,0.563-2.36
		c0,0-0.388-0.92-0.832-0.33c-0.615,1.963-2.02,3.58-3.877,4.464c-1.619,0.717-2.617,2.372-2.496,4.139
		c1.157,0.739,2.423,1.292,3.751,1.634c0.613,0.238,1.307,0.013,1.664-0.541c0,0,1.619-3.471,3.032-3.363l2.65,0.215
		c0.288,0.029,0.497,0.285,0.469,0.57c-0.014,0.156-0.1,0.299-0.231,0.387c-0.47,0.617-0.901,1.262-1.29,1.932
		c-0.108,0.389-0.51,0.613-0.896,0.505c-0.022-0.005-0.042-0.011-0.063-0.019c0,0-1.181-0.586-1.849,1.612
		c-0.376,0.649-0.953,1.16-1.643,1.451c-0.626,0.183-1.297,0.116-1.874-0.187c-1.756-0.617-3.474-1.345-5.138-2.176
		c-0.516-0.288-1.117-0.387-1.698-0.274c-0.708,0.183-1.455-0.11-1.853-0.724l-1.357-2.099c-0.188-0.357-0.279-0.761-0.258-1.167
		c-0.044-0.469,0.112-0.937,0.43-1.287c0.261-0.268,0.462-0.585,0.592-0.936l0.968-2.271c0.216-0.338,0.495-0.627,0.822-0.859
		l1.289,0.096c-0.426,1.105-0.94,2.172-1.539,3.192c-0.448,0.659-0.733,1.413-0.837,2.202c0.024,0.306,0.126,0.602,0.295,0.859
		c0,0,0.299,0.477,0.43,0.709c0.166,0.389,0.405,0.74,0.707,1.037c0.217,0.135,0.444,0.248,0.683,0.337c0,0,0.241,0.065,0.061-0.36
		c-0.363-0.732-0.59-1.524-0.676-2.339c-0.074-0.495,0.098-0.995,0.458-1.344c0.601-0.923,1.139-1.888,1.609-2.883
		c0.176-0.378,0.403-0.728,0.677-1.04c0.211-0.238,0.191-0.605-0.048-0.818c-0.072-0.063-0.161-0.108-0.254-0.13
		c-0.796-0.166-1.574-0.396-2.331-0.689c-0.846-0.47-1.425-1.308-1.568-2.266c-0.448-1.201-0.73-2.455-0.838-3.733
		c-0.953,2.17-0.568,4.693,0.993,6.477c-0.964,0.324-2.008,0.324-2.973,0c0,0-2.619-0.383-3.125-0.522c0,0-0.658-0.157-0.281,0.309
		c0.403,0.56,0.695,1.19,0.86,1.857c0.045,0.368,0.236,0.703,0.529,0.931c0.744,0.49,1.31,1.205,1.619,2.039
		c0,0,0.32,0.961-0.338,0.73c-0.374-0.216-0.833-0.216-1.207,0c0,0-0.092,0.043,0.252,0.429c0.524,0.476,0.864,1.122,0.959,1.822
		c-0.063,0.556-0.228,1.095-0.48,1.591c-0.242,0.324-0.65,0.474-1.041,0.383c-0.142-0.09-0.319-0.106-0.475-0.045
		c-0.39-0.041-0.772-0.139-1.137-0.284c0,0-1.245-0.343-1.662-0.491c-0.759-0.283-1.556-0.459-2.362-0.529
		c-0.387-0.028-0.777-0.005-1.157,0.072c-1.231,0.1-2.441-0.352-3.306-1.232c0,0-1.005-0.797-1.348-0.023
		c-1.502,1.903-3.934,2.821-6.32,2.382c1.569-0.608,2.929-1.657,3.917-3.019c0.24-1.314,0.841-2.537,1.736-3.531
		c0,0,0.494-0.68,0.016-0.859c0,0-0.276-0.213-0.884,0.401c-0.855,0.823-1.566,1.783-2.103,2.843
		c-0.991,1.578-2.875,2.354-4.692,1.934c1.26-0.503,2.362-1.332,3.194-2.402c0.533-1.475,1.492-2.759,2.757-3.69
		c0.045-1.307,0.414-2.583,1.074-3.716c0,0,0.503-2.234,0.643-2.754c0.236-0.823,0.413-1.658,0.531-2.504
		c-0.051-1.647,0.47-3.258,1.477-4.559c0.737-1.356,1.694-2.58,2.833-3.623c0,0,1.309-1.619,2.283-2.608
		c1.224-1.307,2.592-2.468,4.081-3.464c0.781-0.577,1.514-1.216,2.191-1.91c0,0,4.929-3.548,8.49-0.703
		c1.393,0.941,2.911,1.679,4.511,2.19c2.38,0.292,4.546,1.526,6.015,3.422c0.442,0.558,1.147,0.842,1.854,0.748
		c2.573-0.113,5.025,1.103,6.489,3.221c1.083,0.895,2.412,1.436,3.81,1.551c2.571-0.17,5.077,0.84,6.813,2.744
		c0,0,6.781,5.914,10.825,2.078c0,0,2.094-1.984-0.301-5.584c-1.228-1.397-2.606-2.654-4.109-3.749
		c-1.2-0.853-1.667-2.411-1.137-3.783c0.531-1.526,2.048-2.474,3.65-2.283c2.074-0.379,3.999-1.337,5.553-2.761
		c0,0,1.788,6.29-5.222,6.182c0,0-1.824,0.271-1.187,1.718c0.544,0.731,1.266,1.313,2.096,1.689c1.53,0.855,2.64,2.304,3.069,4.003
		c1.234,2.859-0.082,6.178-2.94,7.411c-0.046,0.019-0.091,0.04-0.136,0.056c-2.085,0.567-4.278,0.611-6.385,0.128l0,0
		L143.528,49.456z"/>
	<path fill="#E29E33" d="M79.094,16.973c10.094,0.006,19.508,5.099,25.035,13.544c0.222-0.131,0.456-0.238,0.7-0.315
		c-5.656-8.719-15.341-13.983-25.735-13.989c-10.313,0.004-19.934,5.187-25.612,13.795c0.254,0.053,0.499,0.147,0.722,0.279
		C59.757,21.969,69.095,16.976,79.094,16.973z"/>
	<path fill="#E29E33" d="M104.746,62.354c-5.415,8.998-15.147,14.505-25.651,14.511c-10.351-0.006-19.965-5.355-25.425-14.151
		c-0.166,0.197-0.362,0.365-0.58,0.501c5.612,8.96,15.436,14.402,26.005,14.41c10.703-0.006,20.63-5.581,26.205-14.718
		C105.094,62.746,104.908,62.558,104.746,62.354z"/>
</g>
<g>
	<path fill="#E29E33" d="M515.216,86.31c-3.686,0.95-7.504-0.98-8.924-4.514c-2.23-6.322-2.766-13.12-1.554-19.714
		c0.546-3.604,1.275-7.178,2.185-10.706c0.853-2.335-0.163-4.939-2.371-6.081c-1-0.675-1.967-1.4-2.894-2.175
		c-1.195,1.368-2.271,2.824-3.567,4.045c-5.462,5.156-10.791,10.512-16.62,15.235c-2.784,2.098-6.024,3.511-9.455,4.123
		c-4.638,1.186-9.358-1.613-10.545-6.25c-0.379-1.481-0.359-3.036,0.058-4.506l0.996,2.154v-5.576
		c-0.807,0.972-1.243,1.529-1.72,2.063c-3.111,3.482-6.115,7.078-9.407,10.387c-1.665,1.59-3.57,2.908-5.643,3.909
		c-6.008,3.045-11.307,0.682-12.656-5.9c-0.41-3.209-0.5-6.451-0.266-9.679c0.087-1.117,0.255-2.228,0.503-3.322
		c-0.318,0.109-0.622,0.257-0.903,0.438c-7.113,6.61-15.409,11.82-24.453,15.355c-3.605,1.51-7.521,2.131-11.415,1.809
		c-6.222-0.082-11.198-5.193-11.117-11.415c0.016-1.193,0.221-2.376,0.608-3.506c1.071-4.671,3.69-8.844,7.428-11.842
		c2.474-1.826,4.614-4.105,7.107-5.899c1.124-0.694,2.445-0.995,3.758-0.854c3.357,0.211,6.535,1.589,8.983,3.894
		c2.076,2.044,2.093,3.233,0,5.156c-1.764,1.615-3.732,3.007-6.148,4.928c0.332-4.138,1.647-7.47-0.019-11.056
		c-0.753,0.408-1.453,0.904-2.091,1.476c-3.039,3.625-6.065,7.265-8.978,10.99c-0.698,0.973-1.183,2.082-1.418,3.256
		c-1.945,8.521,0.754,11.174,7.757,9.777c5.843-1.396,11.532-3.373,16.981-5.899c3.227-1.535,6.293-3.39,9.149-5.534
		c3.536-2.187,6.16-5.581,7.388-9.554c1.069-3.714,2.818-7.21,4.462-11.29c2.171,1.495,4.265,3.099,6.271,4.806
		c0.421,0.904,0.421,1.949,0,2.854c-1.546,4.502-3.487,8.861-5.8,13.023c-3.023,4.75-1.396,9.658-1.727,14.483
		c-0.12,1.748,1.282,2.304,2.809,1.141c2.288-1.571,4.367-3.426,6.191-5.517c5.328-6.8,10.387-13.811,15.538-20.757
		c0.604-0.817,1.132-1.69,1.883-2.818c2.89,2.801,6.609,4.702,6.336,9.277c-0.17,1.402-0.656,2.747-1.423,3.932
		c-1.877,2.812-2.484,6.284-1.672,9.564c0.265,2.354,2.389,4.049,4.744,3.785c0.476-0.054,0.941-0.187,1.373-0.395
		c1.948-0.671,3.776-1.651,5.414-2.901c6.516-5.086,12.364-10.972,17.409-17.519c1.271-1.212,1.393-3.2,0.276-4.556
		c-5.226-8.253-4.505-18.939,1.781-26.417c0.918-1.392,2.79-1.775,4.183-0.856c0.024,0.017,0.051,0.035,0.074,0.052
		c3.463,1.573,5.639,5.077,5.51,8.879c0.326,5.098-0.677,10.192-2.907,14.788c-1.439,3.076-0.321,5.302,2.592,6.925
		c2.651,1.503,5.065,3.39,7.166,5.602c0.813,1.322,1.039,2.923,0.629,4.421c-0.874,3.858-2.312,7.59-3.245,11.44
		c-1.131,4.365-2.011,8.791-2.637,13.256C510.404,80.307,512,84.18,515.216,86.31z M503.113,33.609
		c2.252-3.954,3.277-8.726,2.436-11.448C503.464,25.729,500.891,28.937,503.113,33.609z M508.008,69.575
		c-0.578,4.891-0.411,6.352,0.962,8.224L508.008,69.575z"/>
	<path fill="#E29E33" d="M590.275,20.033c-4.369,0.346-8.317,0.542-12.236,0.995c-5.162,0.639-10.389-0.49-14.829-3.204
		c-1.057-0.629-2.453-1.267-0.688-2.976c2.1,2.123,4.42,1.134,6.854,0.59c3.607-0.823,7.261-1.426,10.939-1.81
		c3.934-0.391,7.919-0.452,11.884-0.515c1.354,0.01,2.588-0.775,3.151-2.005c1.966-3.17,4.065-6.247,6.145-9.343
		c0.459-0.616,0.95-1.205,1.474-1.766c2.264,1.895,2.577,3.31,1.403,5.661c-0.977,1.966-1.94,3.933-2.751,5.566
		c10.142-0.257,20.148-0.515,30.151-0.742c0.198,0.252,0.35,0.538,0.451,0.843l-11.385,1.866l0.036,0.529l3.072,0.918
		c-5.498,0.96-10.32,1.824-15.15,2.642c-2.891,0.489-5.817,0.814-8.686,1.416c-0.934,0.202-1.737,0.795-2.208,1.627
		c-6.049,15.558-9.526,32-10.292,48.675c0.014,3.155,0.461,6.295,1.326,9.329c0.271,2.422,2.453,4.166,4.874,3.895
		c0.131-0.015,0.261-0.035,0.391-0.062c-1.338,2.182-4.168,2.899-6.385,1.623c-2.874-1.421-5.19-3.763-6.575-6.654
		c-3.173-6.099-3.315-12.647-2.74-19.282c0.203-1.485,0.256-2.987,0.152-4.483c-0.496,0.609-0.946,1.268-1.496,1.824
		c-3.526,3.843-7.245,7.502-11.145,10.966c-2.572,1.987-5.521,3.435-8.67,4.252c-8.243,2.301-14.969-2.723-15.596-11.257
		c-0.053-0.76-0.095-1.529-0.202-3.205c-1.865,1.159-3.574,2.549-5.087,4.138c-2.233,3.168-3.746,4.311-6.425,3.73
		c-4.151-0.9-6.514-3.26-6.837-6.876c-0.059-0.711-0.041-1.427,0.055-2.135c1.861-9.808,8.94-17.808,18.447-20.85
		c2.557-0.809,5.34,0.171,6.828,2.403c1.054-1.711,1.967-3.166,2.839-4.637c0.305-0.852,1.243-1.294,2.095-0.989
		c0.25,0.088,0.473,0.236,0.652,0.43c0.128,0.092,0.262,0.179,0.399,0.257c4.418,2.716,4.658,3.24,2.749,8.008
		c-1.68,4.197-3.716,8.262-5.244,12.505c-1.252,3.24-2.132,6.611-2.623,10.05c-0.438,3.741,1.795,5.739,5.586,5.769
		c3.842-0.006,7.584-1.215,10.705-3.456c6.118-4.328,11.154-10.012,14.715-16.605c0.646-1.926,1.141-3.898,1.487-5.899
		c2.334-6.404,4.819-12.753,7.257-19.118C589.417,21.954,589.753,21.248,590.275,20.033z M531.228,58.201
		c8.925-4.446,14.685-10.602,16.372-20.222c-4.904-0.389-8.102,2.404-10.847,5.926C533.594,47.943,530.964,52.226,531.228,58.201z
		 M581.872,54.426c-2.083,6.522-2.132,8.427,0,12.88V54.426z"/>
	<path fill="#E29E33" d="M667.58,35.974c-4.026,3.367-7.76,6.54-11.555,9.642c-2.518,2.063-2.856,3.38-0.781,5.898
		c2.622,3.185,5.423,6.213,8.254,9.209c0.621,0.439,1.405,0.585,2.143,0.396c4.691-1.051,9.326-2.348,13.882-3.884
		c3.191-1.452,6.263-3.148,9.192-5.074c-0.398,1.806-1.586,3.337-3.234,4.176c-3.036,1.693-6.189,3.197-9.382,4.589
		c-2.84,1.229-5.769,2.232-8.691,3.243c-0.871,0.085-1.511,0.859-1.427,1.731c0.019,0.179,0.064,0.353,0.141,0.516
		c1.02,3.726-0.402,7.691-3.558,9.919c-4.85,3.629-10.506,6.032-16.483,7.011c-3.292-0.125-6.318-1.848-8.104-4.615
		c-0.239-1.02-0.046-2.092,0.533-2.964c4.328-6.266,10.737-10.794,18.088-12.784c0.685-0.2,1.368-0.403,2.044-0.633
		c0.274-0.227,0.521-0.485,0.734-0.771l-10.382-10.676c-3.778,2.653-7.625,5.29-11.404,8.018
		c-5.939,4.677-12.769,8.096-20.073,10.049c-3.793,0.955-7.776,0.851-11.516-0.303c-4.816-1.214-8.197-5.54-8.209-10.507
		c-0.245-11.283,4.808-19.997,13.832-26.438c2.642-2.046,6.381-1.861,8.807,0.438c0.314,0.231,0.647,0.436,0.997,0.612
		c0.167,0.002,0.333-0.02,0.494-0.066l0.318-3.808c3.277-0.579,6.404,1.61,6.981,4.887c0.207,1.167,0.065,2.37-0.41,3.456
		c-0.928,2.188-2.349,4.131-4.151,5.681c-4.677,3.753-9.599,7.295-15.833,8.027c-1.376,0.056-2.525,1.064-2.76,2.421
		c-1.092,3.726-2.185,7.54,0.803,10.816c2.896,3.176,6.91,3.035,10.444,1.829c5.11-1.66,10.039-3.843,14.703-6.513
		c4.933-3.175,9.659-6.656,14.152-10.427c0.714-0.735,1.059-1.754,0.937-2.772c-0.504-1.958-0.031-4.038,1.271-5.586
		c2.748-3.06,5.601-6.037,8.482-8.978c0.498-0.492,1.185-0.741,1.882-0.683C662.107,31.786,665.184,33.497,667.58,35.974z
		 M607.931,50.015c4.896-3.697,9.199-7.125,12.05-12.432c-5.018,0.733-10.687,6.539-12.054,12.438L607.931,50.015z M648.122,75.322
		c5.282-0.542,10.067-4,10.673-7.676c-3.953,1.984-7.78,3.769-10.678,7.673L648.122,75.322z"/>
</g>
</svg>
