<svg xmlns="http://www.w3.org/2000/svg" viewBox="0 0 90.66 53.13"><defs><style>.cls-1{fill:#bf612e;}.cls-1,.cls-2{stroke:#91462b;stroke-miterlimit:10;}.cls-2{fill:none;}</style></defs><title>Boombox</title><g id="Layer_2" data-name="Layer 2"><g id="Layer_1-2" data-name="Layer 1"><rect class="cls-1" x="0.6" y="10.56" width="89.46" height="41.83" rx="3" ry="3" transform="translate(-0.17 0.25) rotate(-0.32)"/><rect class="cls-2" x="29.76" y="0.59" width="30.84" height="9.97" transform="translate(-0.03 0.25) rotate(-0.32)"/><circle class="cls-2" cx="20.07" cy="31.62" r="12.81"/><circle class="cls-2" cx="71.54" cy="31.33" r="12.81"/><rect class="cls-2" x="47.4" y="21.44" width="2.13" height="2.13" transform="translate(-0.12 0.27) rotate(-0.32)"/><rect class="cls-2" x="45.24" y="21.45" width="2.13" height="2.13" transform="translate(-0.12 0.26) rotate(-0.32)"/><rect class="cls-2" x="43.11" y="21.47" width="2.13" height="2.13" transform="translate(-0.12 0.25) rotate(-0.32)"/><circle class="cls-2" cx="48.5" cy="29.04" r="1.07"/><circle class="cls-2" cx="48.53" cy="33.54" r="1.07"/><circle class="cls-2" cx="44.22" cy="29.07" r="1.07"/><circle class="cls-2" cx="44.24" cy="33.57" r="1.07"/><rect class="cls-2" x="40.13" y="38.83" width="12.62" height="5.49" transform="translate(-0.23 0.26) rotate(-0.32)"/></g></g></svg>