<svg xmlns="http://www.w3.org/2000/svg" viewBox="0 0 29.54 29.53"><defs><style>.cls-1{fill:#c3822a;}</style></defs><title>Henna</title><g id="Layer_2" data-name="Layer 2"><g id="Layer_1-2" data-name="Layer 1"><path class="cls-1" d="M0,14.77A14.77,14.77,0,1,1,14.74,29.53,14.78,14.78,0,0,1,0,14.77Zm1.33,0A13.44,13.44,0,1,0,14.76,1.33,13.43,13.43,0,0,0,1.33,14.77Z"/><path class="cls-1" d="M7.91,15.24a.68.68,0,0,0-.19,1c3.68,6.82,3.53,6.89,3.68,7.42a.65.65,0,0,0,.64.5h7.2a.65.65,0,0,0,.65-.5c.91-3.37.72-5,.72-13.56a1.44,1.44,0,0,0-1.44-1.44,1.33,1.33,0,0,0-.87.3V8.38a1.45,1.45,0,0,0-1.44-1.44,1.36,1.36,0,0,0-.88.31V6.83a1.44,1.44,0,0,0-2.88,0v.42a1.4,1.4,0,0,0-.87-.31,1.45,1.45,0,0,0-1.44,1.44v7a2.31,2.31,0,0,0-2.88-.11Zm3.26,2.09a.32.32,0,0,0,.38.15.31.31,0,0,0,.15-.38l-.45-1V8.38a.87.87,0,0,1,1.74,0h0v5.27a.31.31,0,0,0,.61,0V8.38h0V6.83a.87.87,0,1,1,1.74,0V8.38h0v5.27a.29.29,0,0,0,.3.3.3.3,0,0,0,.31-.3V8.38h0a.87.87,0,0,1,1.74,0v5.27a.29.29,0,0,0,.3.3.3.3,0,0,0,.31-.3V10.09a.87.87,0,0,1,1.74,0c0,8.64.19,10.15-.68,13.41,0,0,0,.08-.12.08S12,23.62,12,23.5L11.82,23c-.23-.79-3.6-7.16-3.6-7.16a1.32,1.32,0,0,1,1.06-.46C10.41,15.35,10.76,16.38,11.17,17.33Z"/><path class="cls-1" d="M16.78,11.19a.3.3,0,0,0,.3-.31v-.75a.3.3,0,0,0-.3-.31.3.3,0,0,0-.3.31v.75A.35.35,0,0,0,16.78,11.19Z"/><path class="cls-1" d="M19.13,12.74a.29.29,0,0,0,.3-.3v-.76a.3.3,0,1,0-.6,0v.76A.27.27,0,0,0,19.13,12.74Z"/><path class="cls-1" d="M14.47,11.19a.3.3,0,0,0,.3-.31v-.75a.3.3,0,0,0-.3-.31.3.3,0,0,0-.3.31v.75A.3.3,0,0,0,14.47,11.19Z"/><path class="cls-1" d="M14.47,8a.29.29,0,0,0,.3-.3V7a.3.3,0,0,0-.6,0v.76A.27.27,0,0,0,14.47,8Z"/><path class="cls-1" d="M14.47,9.41a.3.3,0,0,0,.3-.31V8.72a.3.3,0,0,0-.6,0V9.1A.28.28,0,0,0,14.47,9.41Z"/><path class="cls-1" d="M14.47,12.55a.29.29,0,0,0,.3-.3v-.38a.3.3,0,1,0-.6,0v.38A.27.27,0,0,0,14.47,12.55Z"/><path class="cls-1" d="M12.12,13a.3.3,0,0,0,.3-.31v-.76a.29.29,0,0,0-.3-.3.3.3,0,0,0-.3.3v.76C11.85,12.85,12,13,12.12,13Z"/><path class="cls-1" d="M12.12,9.86a.29.29,0,0,0,.3-.3V8.8a.3.3,0,0,0-.6,0v.76A.31.31,0,0,0,12.12,9.86Z"/><path class="cls-1" d="M12.12,11.22a.29.29,0,0,0,.3-.3v-.38a.3.3,0,1,0-.6,0v.38A.31.31,0,0,0,12.12,11.22Z"/><path class="cls-1" d="M12.12,14.37a.29.29,0,0,0,.3-.3v-.38a.3.3,0,1,0-.6,0v.38A.31.31,0,0,0,12.12,14.37Z"/><path class="cls-1" d="M9.73,17.48a.28.28,0,1,0,.49-.27l-.37-.64a.28.28,0,0,0-.5.26Z"/><path class="cls-1" d="M10.26,18.31l.19.34a.28.28,0,0,0,.38.12.27.27,0,0,0,.11-.38l-.18-.34a.28.28,0,0,0-.5.26Z"/><path class="cls-1" d="M16.78,9.41a.3.3,0,0,0,.3-.31V8.72a.3.3,0,1,0-.6,0V9.1A.32.32,0,0,0,16.78,9.41Z"/><path class="cls-1" d="M16.78,12.55a.29.29,0,0,0,.3-.3v-.38a.3.3,0,0,0-.6,0v.38A.31.31,0,0,0,16.78,12.55Z"/><path class="cls-1" d="M19.13,11a.3.3,0,0,0,.3-.31v-.37a.3.3,0,0,0-.3-.31.3.3,0,0,0-.3.31v.37A.3.3,0,0,0,19.13,11Z"/><path class="cls-1" d="M19.13,14.14a.29.29,0,0,0,.3-.3v-.38a.3.3,0,0,0-.6,0v.38A.29.29,0,0,0,19.13,14.14Z"/><path class="cls-1" d="M12.08,19.3a.3.3,0,0,0,.3.3h.5a1.33,1.33,0,0,0,.57,1.06,1.61,1.61,0,0,0,1.17-.15c-.34.79-.23,1.06-.15,1.17a1.22,1.22,0,0,0,1.06.57v.46a.29.29,0,0,0,.3.3.3.3,0,0,0,.31-.3v-.5a1.32,1.32,0,0,0,1.06-.57c0-.11.19-.37-.15-1.17a2.3,2.3,0,0,0,.87.23.7.7,0,0,0,.3-.08,1.21,1.21,0,0,0,.57-1.06h.49a.29.29,0,0,0,.3-.3.3.3,0,0,0-.3-.31h-.49a1.38,1.38,0,0,0-.57-1.06,1.54,1.54,0,0,0-1.17.16,1.44,1.44,0,0,0,.15-1.18,1.22,1.22,0,0,0-1.06-.57v-.41a.31.31,0,1,0-.61,0v.49a1.36,1.36,0,0,0-1.06.57c-.08.15-.15.45.15,1.17A1.53,1.53,0,0,0,13.45,18,1.22,1.22,0,0,0,12.88,19h-.5A.25.25,0,0,0,12.08,19.3Zm4.21.6c-.84.68-1.9-.57-1.06-1.25S17.16,19.22,16.29,19.9Zm.3,1.48c-.08.15-.38.26-.8.26h0c-.45,0-.75-.15-.79-.26s0-.3.23-.83a1.41,1.41,0,0,0,1.17,0C16.63,21.08,16.63,21.3,16.59,21.38Zm1.21-2.92h.08c.15.08.26.38.26.8s-.15.76-.26.79a1.72,1.72,0,0,1-.83-.22,1.47,1.47,0,0,0,0-1.18A3.2,3.2,0,0,1,17.8,18.46ZM15,17.21c.08-.15.38-.26.8-.26s.75.15.79.26,0,.3-.22.84a1.39,1.39,0,0,0-1.18,0A2.78,2.78,0,0,1,15,17.21Zm-1.25,1.25h.08a2.25,2.25,0,0,1,.75.23,1.44,1.44,0,0,0,0,1.17c-.15.08-.68.31-.83.23s-.26-.38-.26-.79S13.56,18.54,13.71,18.46Z"/></g></g></svg>