<svg xmlns="http://www.w3.org/2000/svg" viewBox="0 0 29.54 29.53"><defs><style>.cls-1{fill:#c3822a;}</style></defs><title>Nail</title><g id="Layer_2" data-name="Layer 2"><g id="Layer_1-2" data-name="Layer 1"><path class="cls-1" d="M0,14.77A14.77,14.77,0,1,1,14.74,29.53,14.78,14.78,0,0,1,0,14.77Zm1.33,0A13.44,13.44,0,1,0,14.76,1.33,13.43,13.43,0,0,0,1.33,14.77Z"/><path class="cls-1" d="M10.17,6.68a.23.23,0,0,1,.23-.21H13a.24.24,0,0,1,.23.21l.54,7a.19.19,0,0,1-.19.21H9.94a.2.2,0,0,1-.2-.21Z"/><path class="cls-1" d="M18.05,22.85a.23.23,0,0,0,.23.21h2.55a.23.23,0,0,0,.23-.21l.61-7a.19.19,0,0,0-.19-.21H17.82a.2.2,0,0,0-.2.21Zm1.28-12.12H20v4.68h-.64Z"/><path class="cls-1" d="M19.49,10.51l-.38-1c0-.09.06-.25.13-.25H20c.09,0,.2.14.18.21l-.4,1.06Z"/><path class="cls-1" d="M14.92,20.2l-.3,2.23a.73.73,0,0,1-.72.63H9.6a.76.76,0,0,1-.73-.63L8.54,20.2l-.66-4.39a1.42,1.42,0,0,1,1.45-1.68H14a1.45,1.45,0,0,1,1.48,1.69l-.57,4.38ZM8.6,15.06a2.51,2.51,0,0,0-.15,1.6l.41,3.1.38.19,2.64-5.4H10A1.77,1.77,0,0,0,8.6,15.06Z"/></g></g></svg>