<svg xmlns="http://www.w3.org/2000/svg" viewBox="0 0 26.58 26.58"><defs><style>.cls-1{fill:#c3822a;}</style></defs><title>Dinner</title><g id="Layer_2" data-name="Layer 2"><g id="Layer_1-2" data-name="Layer 1"><path class="cls-1" d="M0,13.29A13.29,13.29,0,1,1,13.26,26.58,13.3,13.3,0,0,1,0,13.29Zm1.2,0A12.09,12.09,0,1,0,13.28,1.2,12.07,12.07,0,0,0,1.2,13.29Z"/><path class="cls-1" d="M17.11,5.5A.52.52,0,0,0,16.7,6V9.48h-.5V6a.52.52,0,0,0-.41-.51.5.5,0,0,0-.58.5V9.48h-.5V6a.52.52,0,0,0-.41-.51.5.5,0,0,0-.58.5v4.73a.5.5,0,0,0,.49.5l1,.22L15,20.59c0,.27.48.49.75.49s.76-.22.76-.49l-.26-9.14,1-.22a.5.5,0,0,0,.49-.5V6A.48.48,0,0,0,17.11,5.5Z"/><path class="cls-1" d="M10.87,5.5a2,2,0,0,0-2,2V9.24a2.36,2.36,0,0,0,1.49,2.21l-.25,9.14c0,.27.48.49.75.49s.75-.22.75-.49l-.25-9.14a2.36,2.36,0,0,0,1.49-2.21V7.49A2,2,0,0,0,10.87,5.5Z"/></g></g></svg>