<svg xmlns="http://www.w3.org/2000/svg" viewBox="0 0 29.54 29.53"><defs><style>.cls-1{fill:#c3822a;}</style></defs><title>Games</title><g id="Layer_2" data-name="Layer 2"><g id="Layer_1-2" data-name="Layer 1"><path class="cls-1" d="M0,14.77A14.77,14.77,0,1,1,14.74,29.53,14.78,14.78,0,0,1,0,14.77Zm1.33,0A13.44,13.44,0,1,0,14.76,1.33,13.43,13.43,0,0,0,1.33,14.77Z"/><path class="cls-1" d="M12.23,19.07a.72.72,0,0,0,1-.2.71.71,0,0,0-.2-1L7.26,13.17a1.49,1.49,0,0,0-1.64,2.49ZM6,14.14a.5.5,0,1,1,.14.7A.5.5,0,0,1,6,14.14Z"/><path class="cls-1" d="M23.91,15.66a1.49,1.49,0,0,0-1.63-2.49L16.53,17.9a.69.69,0,0,0-.2,1,.71.71,0,0,0,1,.2Zm-.54-.82a.5.5,0,0,1-.69-.15.49.49,0,0,1,.14-.69.5.5,0,0,1,.69.14A.51.51,0,0,1,23.37,14.84Z"/><path class="cls-1" d="M12.86,10.35A1.66,1.66,0,1,0,14.52,12,1.66,1.66,0,0,0,12.86,10.35Zm1.19,1.78,0,.08a.25.25,0,0,1,0-.07.79.79,0,0,1,0-.09l0-.1-.05-.11a.67.67,0,0,0-.06-.12l-.08-.12-.08-.12-.09-.12-.1-.1a.9.9,0,0,0-.09-.1l-.09-.08L13.19,11,13.12,11l-.06,0h.23l.05,0,.14.05.14.08.13.11.12.14.09.15a1.11,1.11,0,0,1,.07.16s0,.1,0,.15a.61.61,0,0,0,0,.14c0,.05,0,.09,0,.12A.51.51,0,0,0,14.05,12.13Z"/></g></g></svg>