<svg xmlns="http://www.w3.org/2000/svg" viewBox="0 0 29.54 29.53"><defs><style>.cls-1{fill:#c3822a;}</style></defs><title>Hashtag</title><g id="Layer_2" data-name="Layer 2"><g id="Layer_1-2" data-name="Layer 1"><path class="cls-1" d="M0,14.77A14.77,14.77,0,1,1,14.74,29.53,14.78,14.78,0,0,1,0,14.77Zm1.33,0A13.44,13.44,0,1,0,14.76,1.33,13.43,13.43,0,0,0,1.33,14.77Z"/><path class="cls-1" d="M20.75,10.59h-1L20.15,9a1.22,1.22,0,1,0-2.39-.48l-.36,2H13.87L14.17,9a1.22,1.22,0,1,0-2.39-.48l-.36,2H10A1.2,1.2,0,0,0,10,13h1l-.72,3.59H8.79a1.2,1.2,0,1,0,0,2.39h1l-.36,1.56A1.25,1.25,0,0,0,10.34,22h.24a1.28,1.28,0,0,0,1.2-.95l.42-2h3.52l-.35,1.56a1.24,1.24,0,0,0,1,1.43h.24a1.28,1.28,0,0,0,1.2-.95l.42-2h1.37a1.2,1.2,0,1,0,0-2.39h-1L19.31,13h1.44a1.2,1.2,0,0,0,0-2.39Zm-4.55,6H12.67L13.39,13h3.53Z"/></g></g></svg>