<svg xmlns="http://www.w3.org/2000/svg" viewBox="0 0 29.54 29.53"><defs><style>.cls-1{fill:#c3822a;}</style></defs><title>Instagram</title><g id="Layer_2" data-name="Layer 2"><g id="Layer_1-2" data-name="Layer 1"><path class="cls-1" d="M0,14.77A14.77,14.77,0,1,1,14.74,29.53,14.78,14.78,0,0,1,0,14.77Zm1.33,0A13.44,13.44,0,1,0,14.76,1.33,13.43,13.43,0,0,0,1.33,14.77Z"/><path class="cls-1" d="M11.2,7.24a4,4,0,0,0-4,4v7.13a4,4,0,0,0,4,4h7.13a4,4,0,0,0,4-4V11.2a4,4,0,0,0-4-4Zm0,1.59h7.13a2.35,2.35,0,0,1,2.38,2.37v7.13a2.36,2.36,0,0,1-2.38,2.38H11.2a2.35,2.35,0,0,1-2.37-2.38V11.2A2.34,2.34,0,0,1,11.2,8.83ZM18.73,10a.8.8,0,1,0,.79.8A.79.79,0,0,0,18.73,10Zm-4,1a3.77,3.77,0,1,0,3.76,3.77A3.79,3.79,0,0,0,14.77,11Zm0,1.59a2.18,2.18,0,1,1-2.18,2.18A2.17,2.17,0,0,1,14.77,12.59Z"/></g></g></svg>