<svg xmlns="http://www.w3.org/2000/svg" viewBox="0 0 29.68 29.68"><defs><style>.cls-1{fill:#c3822a;}</style></defs><title>Sneaker</title><g id="Layer_2" data-name="Layer 2"><g id="Layer_1-2" data-name="Layer 1"><path class="cls-1" d="M0,14.84A14.84,14.84,0,1,1,14.81,29.68,14.85,14.85,0,0,1,0,14.84Zm1.34,0a13.5,13.5,0,1,0,13.5-13.5A13.49,13.49,0,0,0,1.34,14.84Z"/><path class="cls-1" d="M13.07,18.46,17.74,18l7.51-.12v-.25s0-.05,0-.07a.07.07,0,0,0-.06,0l-7.44.13-4.67.48-3.76.06,0,.34Z"/><path class="cls-1" d="M17.74,18.05l-4.67.48-3.82.06h0L6,18.19v.63s0,.06.07.09l1.07.2a18.38,18.38,0,0,0,3.39.34H25.16a.1.1,0,0,0,.09-.08V18Z"/><polygon class="cls-1" points="6.09 17.77 6.04 18.13 9.19 18.51 9.23 18.17 6.09 17.77"/><path class="cls-1" d="M8.81,15.84a.61.61,0,0,1-.12.05l-1.56.31a1.22,1.22,0,0,0-1,1l-.08.48,3.12.4.19-1.64.35-.75.13-.21Z"/><path class="cls-1" d="M15.71,12h0L17,13a.14.14,0,0,0,.16,0,.2.2,0,0,0,.15-.08.26.26,0,0,0,0-.31l-1.26-1h0a0,0,0,0,0,0,0l-.25.32Z"/><path class="cls-1" d="M22.73,14.94a.5.5,0,0,0,.17,0L24,14.57a.5.5,0,0,1,.21-.05.59.59,0,0,1,.37.13l.55.38h0a18.34,18.34,0,0,0-.76-2.5.18.18,0,0,0-.12-.12h0a.34.34,0,0,0-.15,0,.48.48,0,0,0-.15,0,.18.18,0,0,0-.12.12l-.21.63a.65.65,0,0,1-.44.44l-1.3.44a.65.65,0,0,1-.19,0l.69.7A.74.74,0,0,0,22.73,14.94Z"/><polygon class="cls-1" points="15.41 17.79 16.48 17.69 14.22 14.71 13.32 15.07 15.41 17.79"/><polygon class="cls-1" points="12.5 15.38 9.48 16.52 9.29 18.11 13.05 18.05 14.43 17.9 12.5 15.38"/><polygon class="cls-1" points="16 14.04 15.06 14.42 17.49 17.58 17.72 17.56 18.68 17.56 16 14.04"/><path class="cls-1" d="M25.16,15.11a.15.15,0,0,1-.1,0l-.55-.38a.64.64,0,0,0-.33-.1.58.58,0,0,0-.19,0l-1,.35a.42.42,0,0,1-.19,0,.66.66,0,0,1-.42-.17l-.77-.74a2.22,2.22,0,0,1-.63,0l-.19,0a2.31,2.31,0,0,1-.82-.36l-1-.71-2.09.8,2.91,3.79,5.39-.08C25.18,17.37,25.52,16.87,25.16,15.11Z"/><path class="cls-1" d="M16.3,13l-.82-.69h0l-.26.32v0l.82.69a.17.17,0,0,0,.17,0c.06,0,.1,0,.15-.08A.24.24,0,0,0,16.3,13Z"/><path class="cls-1" d="M14.76,13.16s0,0,0,0l-.12,0s0,0,0,0v0l.46.42a.23.23,0,0,0,.16.06.19.19,0,0,0,.15-.09.22.22,0,0,0,0-.31L14.91,13h0Z"/><path class="cls-1" d="M14.09,13.45h0l-.4.17a0,0,0,0,0,0,0v0l.42.4a.22.22,0,0,0,.32,0,.23.23,0,0,0,.06-.16.24.24,0,0,0-.06-.17Z"/><path class="cls-1" d="M12.73,14v0l.38.38a.23.23,0,0,0,.31,0,.22.22,0,0,0,.07-.17.23.23,0,0,0-.07-.17l-.27-.27h0l-.38.19Z"/><path class="cls-1" d="M12.48,14.48l-.25-.27s0,0,0,0l-.4.15,0,0v0l.33.35a.23.23,0,0,0,.32,0,.74.74,0,0,0,.08-.15A.14.14,0,0,0,12.48,14.48Z"/><path class="cls-1" d="M11.49,15.15a.18.18,0,0,0,.09-.14.24.24,0,0,0-.06-.17l-.23-.25h0l-.37.14,0,0v0l.34.35A.21.21,0,0,0,11.49,15.15Z"/><path class="cls-1" d="M10.57,15.22,10.38,15a0,0,0,0,0,0,0,2.75,2.75,0,0,0-.33.23s0,0,0,.05l.21.25a.22.22,0,0,0,.31,0,.2.2,0,0,0,.08-.15A.38.38,0,0,0,10.57,15.22Z"/><path class="cls-1" d="M18.39,12.6a1.24,1.24,0,0,0-.48-.19l-.23-.07a.5.5,0,0,0-.17,0,1.26,1.26,0,0,0-.27,0l-.13.05.17.12a.31.31,0,0,1,.06.42.36.36,0,0,1-.19.13h0a.32.32,0,0,1-.19-.07l-.44-.33-.31.13.15.12a.31.31,0,0,1,0,.42.27.27,0,0,1-.21.1h0a.33.33,0,0,1-.19-.06l-.36-.33-.31.12.12.13a.3.3,0,0,1,0,.42.28.28,0,0,1-.21.1h0a.22.22,0,0,1-.18-.08l-.36-.32-.34.13.13.1a.29.29,0,0,1,.08.21.26.26,0,0,1-.08.21.29.29,0,0,1-.42,0l-.29-.29-.34.15.11.1a.28.28,0,0,1,.08.21.36.36,0,0,1-.08.21.43.43,0,0,1-.19.08.24.24,0,0,1-.21-.08l-.27-.27-.4.15.08.1a.29.29,0,0,1,.09.21.31.31,0,0,1-.11.21.33.33,0,0,1-.19.06.34.34,0,0,1-.23-.1l-.23-.25-.36.14.09.09a.27.27,0,0,1,.06.21.32.32,0,0,1-.1.21.33.33,0,0,1-.19.06.3.3,0,0,1-.23-.11l-.21-.23-.36.15.06.08a.37.37,0,0,1,.07.21.23.23,0,0,1-.11.19.24.24,0,0,1-.17.07.38.38,0,0,1-.23-.11l-.08-.1a1.94,1.94,0,0,0-.23.33l-.31.67,9.32-3.54Z"/><path class="cls-1" d="M17.22,12.32a.68.68,0,0,1,.29-.06.62.62,0,0,1,.19,0l.23.06a1.72,1.72,0,0,1,.29.11l.49-.78a.5.5,0,0,0-.23-.73l-.68-.29a.88.88,0,0,0-1,.25l-.61.75.9.71Z"/><polygon class="cls-1" points="16.44 12.64 15.79 12.13 15.62 12.34 16.13 12.76 16.44 12.64"/><polygon class="cls-1" points="15.52 13.02 15.27 12.8 15.08 13.04 15.21 13.14 15.52 13.02"/><path class="cls-1" d="M12.88,6.63a.36.36,0,0,0-.27,0l-8,3.61a.36.36,0,0,0-.18.48l.76,1.69a.36.36,0,0,0,.48.18l.19-.08.94,2.1a.36.36,0,1,0,.68-.25l0,0-.94-2.11.34-.15.94,2.1a.36.36,0,0,0,.66-.29l-.94-2.1.34-.16.94,2.1a.37.37,0,0,0,.47.22.35.35,0,0,0,.21-.46.08.08,0,0,0,0-.05l-.94-2.1.33-.16.95,2.1a.36.36,0,1,0,.66-.29l-.94-2.11.34-.15.94,2.1a.36.36,0,1,0,.68-.25.08.08,0,0,0,0,0l-.93-2.11.34-.15.94,2.1a.36.36,0,0,0,.49.15.37.37,0,0,0,.17-.45L11.49,10l.34-.15.94,2.1a.36.36,0,1,0,.68-.25s0,0,0-.05l-.94-2.09.34-.15.94,2.1a.37.37,0,0,0,.48.18.35.35,0,0,0,.18-.48l-.94-2.11L13.68,9a.37.37,0,0,0,.18-.48L13.1,6.82A.35.35,0,0,0,12.88,6.63ZM13,8.48l-.19.08h0l-1,.45h0l-1,.46h0l-1,.44h0l-1,.45h0l-1,.45h0l-1,.45h0l-1,.44h0l-.19.09-.46-1L12.6,7.44Z"/></g></g></svg>