<svg xmlns="http://www.w3.org/2000/svg" viewBox="0 0 29.54 29.53"><defs><style>.cls-1{fill:#c3822a;}</style></defs><title>Tarot</title><g id="Layer_2" data-name="Layer 2"><g id="Layer_1-2" data-name="Layer 1"><path class="cls-1" d="M0,14.77A14.77,14.77,0,1,1,14.74,29.53,14.78,14.78,0,0,1,0,14.77Zm1.33,0A13.44,13.44,0,1,0,14.76,1.33,13.43,13.43,0,0,0,1.33,14.77Z"/><path class="cls-1" d="M18,12.28l.23,1.58,1.56.58-1.49.69-.24,1.76-.95-1.31-1.48.66.69-1.64-.85-1.28,1.54.21Z"/><path class="cls-1" d="M22.42,9.7,15.25,7.77a.74.74,0,0,0-.89.54l-.07.27h-3.5a.72.72,0,0,0-.76.68v.42l-2.91.78a.72.72,0,0,0-.51.89l2.65,9.9a.73.73,0,0,0,.89.51l5.52-1.48h.88l2.84.74a.74.74,0,0,0,.89-.53l2.65-9.9A.73.73,0,0,0,22.42,9.7ZM12,9.79h2L11.71,18.2a.74.74,0,0,0,.39.86h-.34c-.4,0-.53-.37-.53-.77V10.48A.72.72,0,0,1,12,9.79Zm-3.9,2.42a.71.71,0,0,1,.5-.88L10,10.94v8.5Zm13.35-.76-2,7.55a.73.73,0,0,1-.89.52l-5.06-1.36c-.39-.1-.38-.44-.28-.83l2-7.55a.71.71,0,0,1,.88-.51l4.84,1.29A.72.72,0,0,1,21.44,11.45Z"/></g></g></svg>