<svg xmlns="http://www.w3.org/2000/svg" viewBox="0 0 56.47 65.76"><defs><style>.cls-1{fill:#ddb654;}.cls-2,.cls-3{fill:none;stroke-miterlimit:10;}.cls-2{stroke:#b69745;}.cls-3{stroke:#b59644;}.cls-4{fill:#b59644;}</style></defs><title>Shirt</title><g id="Layer_2" data-name="Layer 2"><g id="Layer_1-2" data-name="Layer 1"><path class="cls-1" d="M39.82.87c8,5.28,12.94,9.18,12.94,9.18A81.46,81.46,0,0,1,48.88,20.2a19.74,19.74,0,0,1-3.35,0A46.57,46.57,0,0,1,39.82.87Z"/><path class="cls-1" d="M45.53,20.21,55.85,55.16l-33.8,10L11.88,30.61A43.86,43.86,0,0,0,6.36,10.93l9.17-6.34A12.5,12.5,0,0,0,28.9.51L39.82.87A46.57,46.57,0,0,0,45.53,20.21Zm-6.69-.78L37,13a41.34,41.34,0,0,1-7.24,2.14l1.81,6.14,4.33,1.34Z"/><path class="cls-1" d="M37,13l1.89,6.39-3,3.23-4.33-1.34-1.81-6.14A41.34,41.34,0,0,0,37,13Z"/><path class="cls-1" d="M6.36,10.93a43.86,43.86,0,0,1,5.52,19.68A20.42,20.42,0,0,1,9.19,32C2.32,27,.58,25.24.58,25.24,3.16,18.63,6.36,10.93,6.36,10.93Z"/><path class="cls-2" d="M11.88,30.61,22.05,65.13l33.8-10L45.53,20.21a19.74,19.74,0,0,0,3.35,0,81.46,81.46,0,0,0,3.88-10.15s-5-3.9-12.94-9.18L28.9.51A12.5,12.5,0,0,1,15.53,4.59L6.36,10.93S3.16,18.63.58,25.24c0,0,1.74,1.78,8.61,6.75A20.42,20.42,0,0,0,11.88,30.61Z"/><path class="cls-3" d="M45.53,20.21A46.57,46.57,0,0,1,39.82.87"/><path class="cls-3" d="M11.88,30.61A43.86,43.86,0,0,0,6.36,10.93"/><path class="cls-3" d="M29.71,15.18A41.34,41.34,0,0,0,37,13l1.89,6.39-3,3.23-4.33-1.34Z"/><path class="cls-4" d="M37,13l.43,1.45a41.6,41.6,0,0,1-7.25,2.14l-.42-1.45Z"/></g></g></svg>