<svg xmlns="http://www.w3.org/2000/svg" viewBox="0 0 32.42 65.31"><defs><style>.cls-1{fill:none;}.cls-1,.cls-2{stroke:#b69745;stroke-miterlimit:10;}.cls-2{fill:#ddb654;}</style></defs><title>Polish</title><g id="Layer_2" data-name="Layer 2"><g id="Layer_1-2" data-name="Layer 1"><g id="Layer_2-2" data-name="Layer 2"><g id="Layer_1-2-2" data-name="Layer 1-2"><line class="cls-1" x1="26.67" y1="6.9" x2="14.54" y2="31.73"/><path class="cls-2" d="M10.43,33.09l9.28-.1a.73.73,0,0,1,.73.71h0a.73.73,0,0,1-.72.73l-9.27.1a.72.72,0,0,1-.73-.71h0A.71.71,0,0,1,10.43,33.09Z"/><path class="cls-2" d="M10.42,31.65l9.27-.1a.72.72,0,0,1,.73.71h0a.71.71,0,0,1-.71.73l-9.28.1a.73.73,0,0,1-.73-.71h0A.73.73,0,0,1,10.42,31.65Z"/><path class="cls-2" d="M10.4,30.21l9.28-.1a.73.73,0,0,1,.73.71h0a.73.73,0,0,1-.72.73l-9.27.1a.72.72,0,0,1-.73-.71h0A.71.71,0,0,1,10.4,30.21Z"/><path class="cls-2" d="M15.64,64.72l8.92-.1a1.62,1.62,0,0,0,1.57-1.32l3.71-26.24a2.29,2.29,0,0,0-2.27-2.71l-24.81.26A2.28,2.28,0,0,0,.55,37.37L4.81,63.53a1.62,1.62,0,0,0,1.6,1.28Z"/><polyline class="cls-2" points="22.18 29.44 31.8 3.33 29.07 1.99 26.34 0.65 11.56 24.23"/><path class="cls-2" d="M10.13,24.78h0a1.12,1.12,0,0,1,1.5-.52l10.48,5.15a1.12,1.12,0,0,1,.52,1.5h0a1.12,1.12,0,0,1-1.5.51L10.64,26.27A1.12,1.12,0,0,1,10.13,24.78Z"/></g></g></g></g></svg>