<svg xmlns="http://www.w3.org/2000/svg" viewBox="0 0 70.21 45.85"><defs><style>.cls-1{fill:#ddb654;stroke:#b69745;stroke-miterlimit:10;}.cls-2{fill:#b69745;}</style></defs><title>Barber</title><g id="Layer_2" data-name="Layer 2"><g id="Layer_1-2" data-name="Layer 1"><g id="Layer_2-2" data-name="Layer 2"><g id="Layer_1-2-2" data-name="Layer 1-2"><circle class="cls-1" cx="7" cy="8.25" r="6.49"/><rect class="cls-1" x="25.03" y="-4.85" width="13.26" height="52.22" transform="translate(-1.96 39.26) rotate(-62.05)"/><polygon class="cls-2" points="49.78 38.3 46.7 21.66 41.26 18.77 44.34 35.42 49.78 38.3"/><polygon class="cls-2" points="60.62 44.13 57.53 27.48 52.1 24.6 55.18 41.25 60.62 44.13"/><polygon class="cls-2" points="39 32.66 35.92 16.01 30.48 13.13 33.56 29.78 39 32.66"/><polygon class="cls-2" points="28.13 26.89 25.05 10.25 19.61 7.36 22.7 24.01 28.13 26.89"/><polygon class="cls-2" points="17.38 21.19 14.3 4.54 10.27 2.4 10.07 2.3 9.46 4.89 11.95 18.31 17.38 21.19"/><path class="cls-1" d="M12,2.41,5,15.69a1.3,1.3,0,0,1-1.76.54h0a1.3,1.3,0,0,1-.53-1.76l7-13.28A1.31,1.31,0,0,1,11.49.65h0A1.3,1.3,0,0,1,12,2.41Z"/><path class="cls-1" d="M58.09,29.87a8.13,8.13,0,1,1-4.48,9"/><path class="cls-1" d="M60.57,28.17l-7,13.28a1.28,1.28,0,0,1-1.75.54h0a1.29,1.29,0,0,1-.54-1.75L58.28,27A1.31,1.31,0,0,1,60,26.41h0A1.3,1.3,0,0,1,60.57,28.17Z"/></g></g></g></g></svg>