<svg xmlns="http://www.w3.org/2000/svg" viewBox="0 0 52.8 52.8"><defs><style>.cls-1{fill:#c34c46;stroke:#963e3f;stroke-miterlimit:10;}</style></defs><title>Clock_1</title><g id="Layer_2" data-name="Layer 2"><g id="Layer_1-2" data-name="Layer 1"><circle class="cls-1" cx="26.4" cy="26.4" r="25.89"/><line class="cls-1" x1="19.91" y1="47.94" x2="20.92" y2="44.58"/><line class="cls-1" x1="31.55" y1="48.3" x2="30.75" y2="44.89"/><line class="cls-1" x1="41.81" y1="42.8" x2="39.41" y2="40.24"/><line class="cls-1" x1="47.94" y1="32.89" x2="44.58" y2="31.88"/><line class="cls-1" x1="48.3" y1="21.25" x2="44.89" y2="22.05"/><line class="cls-1" x1="42.8" y1="10.99" x2="40.24" y2="13.39"/><line class="cls-1" x1="32.89" y1="4.86" x2="31.88" y2="8.22"/><line class="cls-1" x1="21.25" y1="4.49" x2="22.05" y2="7.91"/><line class="cls-1" x1="10.99" y1="10" x2="13.39" y2="12.56"/><line class="cls-1" x1="4.86" y1="19.91" x2="8.22" y2="20.92"/><line class="cls-1" x1="4.49" y1="31.55" x2="7.91" y2="30.75"/><line class="cls-1" x1="10" y1="41.81" x2="12.56" y2="39.41"/><circle class="cls-1" cx="26.4" cy="26.4" r="1.11"/><line class="cls-1" x1="26.87" y1="27.04" x2="31.52" y2="35.7"/><line class="cls-1" x1="26.5" y1="26.35" x2="7.68" y2="23.59"/></g></g></svg>