<svg xmlns="http://www.w3.org/2000/svg" viewBox="0 0 28.23 42.24"><defs><style>.cls-1{fill:#963e3f;}</style></defs><title>Question Mark</title><g id="Layer_2" data-name="Layer 2"><g id="Layer_1-2" data-name="Layer 1"><path class="cls-1" d="M.88,9A13.5,13.5,0,0,1,3.56,4.37,12.7,12.7,0,0,1,7.84,1.26,14.89,14.89,0,0,1,13.53,0a18.14,18.14,0,0,1,6.85.91,13.24,13.24,0,0,1,4.5,2.65,10,10,0,0,1,2.5,3.52,10.46,10.46,0,0,1,.84,3.57,12.27,12.27,0,0,1-.58,4.57A11.23,11.23,0,0,1,26,18.34a12.05,12.05,0,0,1-2.29,2.23c-.85.63-1.64,1.25-2.39,1.87a11.26,11.26,0,0,0-2,2.1,5.93,5.93,0,0,0-1,2.92l.07,2.18-7.77.25-.08-2.59a11.56,11.56,0,0,1,.82-4.17A11.71,11.71,0,0,1,13,20.22a14.08,14.08,0,0,1,2.12-2.11c.75-.6,1.44-1.2,2.07-1.79a7.56,7.56,0,0,0,1.52-2,4.71,4.71,0,0,0,.47-2.6,5.29,5.29,0,0,0-1.42-3.88,5,5,0,0,0-3.64-1.15,5.63,5.63,0,0,0-2.66.7A5.31,5.31,0,0,0,9.7,9.1a7,7,0,0,0-1,2.39,12,12,0,0,0-.25,2.92L0,14.68A16.56,16.56,0,0,1,.88,9Zm18,24.13L19.2,42l-9,.29-.28-8.87Z"/></g></g></svg>