<svg id="Layer_1" data-name="Layer 1" xmlns="http://www.w3.org/2000/svg" viewBox="0 0 43.299 43.316"><defs><style>.cls-1{fill:#484749;}</style></defs><title>1833LandingLogo</title><path class="cls-1" d="M-6771.675,1396.637a21.02,21.02,0,0,0-21.024,20.711,21.021,21.021,0,0,0,20.706,21.335,21.023,21.023,0,0,0,21.34-20.758,21.022,21.022,0,0,0-21.022-21.287h0Zm21.647,21.646a1.507,1.507,0,0,0-.024.177,19.271,19.271,0,0,1-.548,4.008,23.047,23.047,0,0,1-.872,2.959,20.8,20.8,0,0,1-2.626,4.853,21.594,21.594,0,0,1-2.278,2.7,22.228,22.228,0,0,1-5.167,3.813,20.277,20.277,0,0,1-5.08,1.885c-0.667.153-1.334,0.312-2.013,0.4-0.554.074-1.11,0.129-1.667,0.183-0.255.025-.512,0.026-0.768,0.039-0.046,0-.092.013-0.137,0.02h-0.951a1.106,1.106,0,0,0-.137-0.02,19.893,19.893,0,0,1-2.518-.234c-0.7-.108-1.39-0.267-2.08-0.429a20.546,20.546,0,0,1-4.684-1.723,22.376,22.376,0,0,1-3.072-1.936,20.914,20.914,0,0,1-2.693-2.373,22.385,22.385,0,0,1-2.157-2.675,20.383,20.383,0,0,1-3.17-7.12c-0.162-.7-0.331-1.4-0.426-2.108-0.075-.559-0.132-1.12-0.184-1.681-0.03-.325-0.045-0.652-0.047-0.978,0-.475,0-0.951.024-1.426,0.027-.615.091-1.227,0.179-1.836,0.1-.692.244-1.375,0.4-2.057a21.541,21.541,0,0,1,1.048-3.358,20.711,20.711,0,0,1,2.358-4.242,22.7,22.7,0,0,1,1.761-2.188,20.916,20.916,0,0,1,3.084-2.73,22.477,22.477,0,0,1,2.533-1.615,20.284,20.284,0,0,1,4.8-1.852,23.413,23.413,0,0,1,2.338-.49c0.544-.076,1.091-0.133,1.638-0.187a16.045,16.045,0,0,1,1.775-.056,20.5,20.5,0,0,1,4.4.547,25.386,25.386,0,0,1,2.517.7,20.7,20.7,0,0,1,5.408,2.824,21.636,21.636,0,0,1,2.711,2.288,22.246,22.246,0,0,1,3.8,5.159,20.366,20.366,0,0,1,1.9,5.136c0.155,0.677.306,1.354,0.4,2.042a16.2,16.2,0,0,1,.188,2.045c0,0.092.017,0.184,0.026,0.276v1.259h0Z" transform="translate(6793.328 -1396.007)"/><path class="cls-1" d="M-6783.55,1421.865c0.033-.334.017-8.674-0.015-8.777h-1.968c-0.047.085-.091,0.167-0.136,0.248a3.777,3.777,0,0,1-1.192,1.309,6.074,6.074,0,0,1-1.3.64l-0.326.118v1.973a8.719,8.719,0,0,0,1.3-.486,8.021,8.021,0,0,0,1.2-.741v2.865q0,0.713,0,1.426c0,0.474,0,.947,0,1.425h2.427Zm21.265-2.272a4.163,4.163,0,0,0,.333.837,2.8,2.8,0,0,0,1.692,1.409,4.474,4.474,0,0,0,1.2.187,6.433,6.433,0,0,0,1.653-.106,2.809,2.809,0,0,0,1.421-.732,2.766,2.766,0,0,0,.808-2.542,1.761,1.761,0,0,0-1.2-1.4c-0.118-.044-0.239-0.081-0.375-0.126,0.1-.07.194-0.127,0.281-0.189a1.9,1.9,0,0,0,.889-1.9,1.987,1.987,0,0,0-1.088-1.548,3.9,3.9,0,0,0-1.74-.394c-0.3-.013-0.6,0-0.893.017a3.87,3.87,0,0,0-1.078.208,2.571,2.571,0,0,0-1.041.658,2.939,2.939,0,0,0-.687,1.217c-0.014.046-.02,0.095-0.031,0.147l0.5,0.091,1.661,0.3c0.123,0.022.117,0.018,0.145-.1a4.712,4.712,0,0,1,.139-0.481,0.791,0.791,0,0,1,.259-0.357,1.035,1.035,0,0,1,.955-0.151,0.741,0.741,0,0,1,.273.161,0.911,0.911,0,0,1,.181,1.043,1.1,1.1,0,0,1-1.191.615c-0.044-.005-0.087-0.008-0.138-0.013l-0.125,1.722,0.147-.035a2.667,2.667,0,0,1,.7-0.1,1.022,1.022,0,0,1,1,.739,1.681,1.681,0,0,1,.009.976,1.144,1.144,0,0,1-.362.569,1.046,1.046,0,0,1-.765.241,0.98,0.98,0,0,1-.8-0.421,1.905,1.905,0,0,1-.269-0.655c-0.016-.062-0.033-0.124-0.054-0.2l-2.41.32h0Zm-9.01,0a4.386,4.386,0,0,0,.33.824,2.794,2.794,0,0,0,1.714,1.422,4.543,4.543,0,0,0,1.182.182,6.461,6.461,0,0,0,1.64-.1,2.818,2.818,0,0,0,1.423-.728,2.765,2.765,0,0,0,.816-2.54,1.764,1.764,0,0,0-1.209-1.414c-0.116-.043-0.235-0.079-0.353-0.118l0-.017c0.037-.027.074-0.055,0.114-0.08a2.566,2.566,0,0,0,.616-0.522,1.815,1.815,0,0,0,.424-1.428,2,2,0,0,0-1.134-1.62,3.931,3.931,0,0,0-1.689-.373c-0.3-.013-0.6.006-0.893,0.016a3.871,3.871,0,0,0-.893.147,2.649,2.649,0,0,0-1.21.693,2.932,2.932,0,0,0-.728,1.3,0.644,0.644,0,0,0-.011.09l2.268,0.408c0.012-.049.019-0.08,0.027-0.11,0.047-.165.084-0.334,0.143-0.495a0.782,0.782,0,0,1,.306-0.389,1.049,1.049,0,0,1,.962-0.094,0.671,0.671,0,0,1,.211.133,0.9,0.9,0,0,1,.2,1.028,1.04,1.04,0,0,1-.981.642c-0.115,0-.23,0-0.358,0l-0.124,1.705,0.152-.038a2.625,2.625,0,0,1,.7-0.1,1.022,1.022,0,0,1,1,.731,1.691,1.691,0,0,1,.015.976,1.143,1.143,0,0,1-.369.581,1.049,1.049,0,0,1-.766.237,0.977,0.977,0,0,1-.785-0.414,1.876,1.876,0,0,1-.278-0.681c-0.046-.192-0.046-0.19-0.24-0.164l-1.85.249c-0.119.016-.237,0.035-0.369,0.054h0Zm-3.456-2.372c0.125-.1.238-0.183,0.342-0.275a1.967,1.967,0,0,0,.662-2.088,2.146,2.146,0,0,0-1.322-1.456,4.411,4.411,0,0,0-1.619-.323,5.923,5.923,0,0,0-1.184.047,3.163,3.163,0,0,0-1.395.534,2.04,2.04,0,0,0-.933,1.761,1.879,1.879,0,0,0,.881,1.634l0.254,0.166c-0.093.046-.172,0.083-0.249,0.123a1.966,1.966,0,0,0-1.067,1.279,2.675,2.675,0,0,0-.07,1.023,2.414,2.414,0,0,0,1.526,2.084,4.6,4.6,0,0,0,1.611.291c0.32,0.014.642,0,.963-0.017a4.548,4.548,0,0,0,1.244-.231,2.242,2.242,0,0,0,.92-0.539,2.594,2.594,0,0,0,.774-2.171,2.18,2.18,0,0,0-1.032-1.66c-0.1-.063-0.2-0.119-0.307-0.183h0Zm-17.1.424a20.165,20.165,0,0,1,20.187-20.159,20.142,20.142,0,0,1,20.159,20.181,20.138,20.138,0,0,1-20.194,20.159,20.162,20.162,0,0,1-20.152-20.18h0Z" transform="translate(6793.328 -1396.007)"/><path class="cls-1" d="M-6775.822,1419.248a1.308,1.308,0,0,1-.55,1.113,0.974,0.974,0,0,1-1.225-.07,1.343,1.343,0,0,1-.447-1.258,1.278,1.278,0,0,1,.123-0.442,1.088,1.088,0,0,1,.766-0.617,1,1,0,0,1,.913.268,1.313,1.313,0,0,1,.42,1.006h0Z" transform="translate(6793.328 -1396.007)"/><path class="cls-1" d="M-6776.927,1416.513a0.951,0.951,0,0,1-1-.982,0.951,0.951,0,0,1,.988-0.978,0.949,0.949,0,0,1,.962,1,0.9,0.9,0,0,1-.949.964h0Z" transform="translate(6793.328 -1396.007)"/></svg>