<?xml version="1.0" encoding="utf-8"?>
<!-- Generator: Adobe Illustrator 18.0.0, SVG Export Plug-In . SVG Version: 6.00 Build 0)  -->
<!DOCTYPE svg PUBLIC "-//W3C//DTD SVG 1.1//EN" "http://www.w3.org/Graphics/SVG/1.1/DTD/svg11.dtd">
<svg version="1.1" id="Layer_1" xmlns="http://www.w3.org/2000/svg" xmlns:xlink="http://www.w3.org/1999/xlink" x="0px" y="0px"
	 viewBox="0 0 1000 856" enable-background="new 0 0 1000 856" xml:space="preserve">
<g>
	<path fill="#FFFFFF" d="M424.1,559.1c-2.4-0.6-4.7-1.3-7.1-1.9c1-20,2-40,3-60c-2.2-0.8-4.5-1.7-6.7-2.5
		c-17,26.1-33.9,52.2-53.7,82.7c0.8-15.8,0.6-27.1,2-38.1c5.7-44.2,28.1-81.8,48.1-120.2c15.3-29.4,30.3-59,31.8-92.8
		c1.9-43.4,1.7-86.8,3.6-130.2c1.7-40.6,4.4-81.2,7.7-121.7c1-12.4,3-26.5,18.4-30.1c19.8-4.6,39.8-8,59.8-11.2
		c4.5-0.7,9.5,1.7,16.2,3c-23.5,24.1-55.2,8.7-78,25c24.7-0.9,48.8-4.7,72.3-10.5c4.9-1.2,8-9.9,11.9-15.2
		c-6.3-3.5-12.7-10.2-18.8-9.9c-16.9,0.6-33.8,3.5-50.5,6.5c-27.3,4.9-35.8,11.9-37.9,39.6c-4.3,59.1-7.2,118.4-8.8,177.7
		c-1.5,54.5-0.6,108.5-29.4,158.4c-18,31.2-33,64.6-45.4,98.5c-7.1,19.5-6.8,42-8.6,63.2c-0.4,4.3,4.7,9,7.3,13.5
		c3.5-2.9,7.7-5.4,10.3-9c4-5.5,7-11.8,10-17.1c3.2,4.7,6.1,8.7,8.9,12.8c6.3-7.6,12.6-15.1,17.9-21.4c2.6,5.9,6.2,13.9,9.7,21.8
		c2.3,0.2,4.6,0.3,6.9,0.5c11-24.3,22-48.6,33.1-72.9c1.5,0.6,2.9,1.2,4.4,1.8c-4.4,11.2-9.5,22.2-12.8,33.7
		c-1.4,5,1.1,11.2,1.8,16.8c3.8-3.8,9.2-7,11.2-11.6c8-18.8,14.9-38,23.2-59.7c3.1,18.4,5.6,33.1,8,47.7c2.4,0.2,4.8,0.5,7.1,0.7
		c3.1-5.2,7.7-10.2,8.9-15.8c2.1-10.1,1.3-20.8,3.1-31.1c1.1-6.4,4.8-12.3,7.3-18.5c1.4,0.5,2.9,1,4.3,1.6c0,6.5-1.5,13.4,0.4,19.3
		c2.6,8.3,7.6,15.8,11.6,23.6c5.1-6.2,10.3-12.4,15.5-18.6c0.5-0.6,1.4-1,2-1.4c11.6,12,16.4,11.6,21.1-3.5
		c3.1-10.1,3-21.3,4.3-31.9c5.5-2.9,11.3-5,16-8.6c27.5-20.9,38.4-44,2.6-65.1c-26.4-15.7-37.4-40.2-36.6-71
		c0.5-20.9-1.7-41.8-1.9-62.6c-0.4-58.8-0.4-117.6-0.7-176.4c0-5.3-1.4-10.6-2.2-15.8c-1.6,0.2-3.3,0.4-4.9,0.6c0,5.7,0,11.4,0,17.2
		c-0.1,23.1-0.8,46.2-0.3,69.3c1.4,64.3,3.6,128.5,4.7,192.8c0.1,4.4-5.4,11.9-9.6,13c-21.2,5.7-42.8,9.9-64.3,14.2
		c-11.3,2.2-22.8,3.5-34.2,5.3c0.3,1.8,0.6,3.6,0.9,5.4c38.5,0.6,75.2-11.3,108.4-19.4c16.4,14.6,31.6,27,45.4,40.9
		c5.1,5.1,10.2,13.6,9.7,20.3c-0.7,11.7-22.2,30.3-34.3,29.6c-12.1-0.7-17.1,5.3-21,14.3c-4.3,10.1-7.9,20.4-12.1,30.6
		c-1.8,4.4-4.3,8.6-6.4,12.8c-1.6-0.4-3.1-0.9-4.7-1.3c0-16.4,0-32.7,0-48.8c-42,7.4-21.4,45.5-35,70.8c-1.5-9.1-3.3-14.9-3.2-20.6
		c0.4-15.9,2.1-31.8,2.3-47.7c0.1-11.5,3.8-18.1,16.2-19.9c6.8-1,13-5.6,19.5-8.6c-0.7-1.5-1.4-2.9-2.1-4.4
		c-9.7,2.3-19.4,4.6-30.6,7.3c0-12.3,0-22,0-31.8c-4.6,3.7-5.9,7.2-5.9,10.8c-0.3,13.3-1.9,24.7-18.8,27.5c-6,1-11,7.7-16.5,11.8
		c0.8,1.2,1.7,2.4,2.5,3.6c8.4-3.5,16.7-7.1,29.8-12.6c-7.8,24.7-14,44.3-21.6,68.3c-4.6-13.5-7.4-21.4-11.4-33.1
		C446.1,502.5,435.1,530.8,424.1,559.1z M541,581c1.3-6.7,2.6-9.5,2-11.7c-1.1-4.4-3.3-8.5-5-12.7c-4.3,2.5-9,4.6-12.7,7.8
		c-2.2,2-3.1,5.8-4.1,8.9c-4.2,13.1-3.7,28.7-20.3,35.2c-1.4,0.6-0.3,7.8-0.4,11.9c0,11.4,0,22.7,0,34.1c-1.8-0.1-3.7-0.1-5.5-0.2
		c-9.7-20.7-6.5-40.2,4.6-60.2c8.2-14.9,16.2-30.8,9.8-51.8c-29.3,23.2-13.4,64.6-41.2,89.9c0-19.7,0-35.7,0-51.1
		c-6.5,5.4-11.5,12-18.1,14.6c-10.2,4-11.4,11-12.5,20.1c-1.5,12.9-4.5,25.7-6.9,38.5c-2-0.3-4-0.5-6-0.8c0-13.6,0-27.2,0-40.8
		c-1.3-0.2-2.6-0.4-3.8-0.6c-5.7,17.6-11.3,35.2-17,52.7c-2-0.5-4-0.9-6-1.4c0-19.1,0-38.2,0-57.2c-12.1,12.5-18.8,27.7-29.8,38.4
		c-24.9,24-27.5,53.2-25.2,84.6c0.9,12.1,1.5,24.2,1.1,36.3c-0.7,23.7,9,39.3,31.4,48.6c31.2,12.9,63.5,14.7,96.7,16.4
		c53.6,2.7,102.1-9.6,148.1-36.2c20.6-11.9,35.7-27.5,36.1-51.4c1.3-69.1,1.1-138.2,0.7-207.3c0-6.6-5.8-13.2-8.8-19.9
		c-6.5,3.2-14.2,5.2-19.1,10c-12.9,12.7-24.5,26.6-38.3,41.9c0.7-15.3,1.3-27.7,1.9-40.2c-1.4-0.1-2.9-0.3-4.3-0.4
		c-5.7,15-11.4,30.1-17,45.1c-0.7-0.3-1.4-0.5-2.1-0.8c1.2-11.1,2.4-22.1,3.5-33.2c-2.2-0.7-4.3-1.3-6.5-2
		C558.8,549.5,551.2,563,541,581z"/>
	<path d="M424.1,559.1c11-28.3,22.1-56.6,35.1-90c4,11.7,6.8,19.6,11.4,33.1c7.6-24,13.8-43.6,21.6-68.3
		c-13.1,5.5-21.5,9.1-29.8,12.6c-0.8-1.2-1.7-2.4-2.5-3.6c5.5-4.1,10.5-10.8,16.5-11.8c17-2.8,18.6-14.1,18.8-27.5
		c0.1-3.6,1.4-7.1,5.9-10.8c0,9.7,0,19.5,0,31.8c11.2-2.7,20.9-5,30.6-7.3c0.7,1.5,1.4,2.9,2.1,4.4c-6.5,3-12.7,7.6-19.5,8.6
		c-12.4,1.8-16.1,8.3-16.2,19.9c-0.2,15.9-1.9,31.8-2.3,47.7c-0.1,5.7,1.7,11.5,3.2,20.6c13.6-25.3-7-63.4,35-70.8
		c0,16.1,0,32.5,0,48.8c1.6,0.4,3.1,0.9,4.7,1.3c2.2-4.3,4.6-8.4,6.4-12.8c4.2-10.1,7.8-20.5,12.1-30.6c3.9-9,8.9-15,21-14.3
		c12.1,0.7,33.6-17.9,34.3-29.6c0.4-6.6-4.6-15.1-9.7-20.3c-13.8-13.8-29-26.3-45.4-40.9c-33.3,8.1-69.9,19.9-108.4,19.4
		c-0.3-1.8-0.6-3.6-0.9-5.4c11.4-1.7,22.9-3,34.2-5.3c21.5-4.3,43.1-8.5,64.3-14.2c4.2-1.1,9.6-8.6,9.6-13
		c-1.1-64.3-3.3-128.5-4.7-192.8c-0.5-23.1,0.2-46.2,0.3-69.3c0-5.7,0-11.4,0-17.2c1.6-0.2,3.3-0.4,4.9-0.6
		c0.8,5.3,2.2,10.6,2.2,15.8c0.3,58.8,0.3,117.6,0.7,176.4c0.2,20.9,2.4,41.8,1.9,62.6c-0.7,30.7,10.2,55.3,36.6,71
		c35.7,21.2,24.9,44.2-2.6,65.1c-4.7,3.6-10.6,5.7-16,8.6c-1.3,10.6-1.2,21.8-4.3,31.9c-4.7,15.1-9.5,15.5-21.1,3.5
		c-0.7,0.4-1.5,0.8-2,1.4c-5.2,6.2-10.3,12.4-15.5,18.6c-4-7.8-9.1-15.3-11.6-23.6c-1.8-5.9-0.4-12.9-0.4-19.3
		c-1.4-0.5-2.9-1-4.3-1.6c-2.5,6.1-6.1,12.1-7.3,18.5c-1.8,10.2-1,20.9-3.1,31.1c-1.1,5.6-5.8,10.6-8.9,15.8
		c-2.4-0.2-4.8-0.5-7.1-0.7c-2.5-14.6-4.9-29.3-8-47.7c-8.3,21.7-15.2,41-23.2,59.7c-2,4.6-7.4,7.8-11.2,11.6
		c-0.7-5.6-3.2-11.8-1.8-16.8c3.2-11.5,8.4-22.5,12.8-33.7c-1.5-0.6-2.9-1.2-4.4-1.8c-11,24.3-22,48.6-33.1,72.9
		c-2.3-0.2-4.6-0.3-6.9-0.5c-3.5-7.9-7.1-15.9-9.7-21.8c-5.3,6.3-11.6,13.9-17.9,21.4c-2.8-4.1-5.7-8.1-8.9-12.8
		c-3,5.3-6,11.6-10,17.1c-2.6,3.6-6.8,6-10.3,9c-2.6-4.5-7.7-9.3-7.3-13.5c1.8-21.2,1.4-43.6,8.6-63.2
		c12.3-33.9,27.4-67.2,45.4-98.5c28.7-49.9,27.8-104,29.4-158.4c1.6-59.3,4.5-118.6,8.8-177.7c2-27.7,10.5-34.7,37.9-39.6
		c16.7-3,33.6-5.9,50.5-6.5c6.1-0.2,12.5,6.4,18.8,9.9c-3.9,5.3-7,14-11.9,15.2c-23.6,5.8-47.6,9.6-72.3,10.5
		c22.8-16.3,54.6-0.9,78-25c-6.7-1.3-11.7-3.7-16.2-3c-20,3.2-40.1,6.6-59.8,11.2c-15.5,3.6-17.5,17.8-18.4,30.1
		c-3.3,40.5-6,81.1-7.7,121.7c-1.8,43.4-1.7,86.8-3.6,130.2c-1.5,33.8-16.5,63.4-31.8,92.8c-20,38.4-42.4,76.1-48.1,120.2
		c-1.4,11.1-1.2,22.3-2,38.1c19.8-30.5,36.8-56.6,53.7-82.7c2.2,0.8,4.5,1.7,6.7,2.5c-1,20-2,40-3,60
		C419.3,557.8,421.7,558.4,424.1,559.1z M412.6,514.9c-1.6-1-3.1-2.1-4.7-3.1c-5.7,13.6-11.4,27.3-17.1,40.9
		c1.7,0.7,3.4,1.4,5.2,2.1C401.5,541.5,407,528.2,412.6,514.9z M572,453.9c-2-0.4-4-0.7-6-1.1c-1.8,10.4-3.6,20.8-5.3,31.2
		c2.3,0.4,4.6,0.8,7,1.2C569.1,474.8,570.5,464.4,572,453.9z"/>
	<path d="M541,581c10.2-18,17.8-31.5,25.5-45c2.2,0.7,4.3,1.3,6.5,2c-1.2,11.1-2.4,22.1-3.5,33.2c0.7,0.3,1.4,0.5,2.1,0.8
		c5.7-15,11.4-30.1,17-45.1c1.4,0.1,2.9,0.3,4.3,0.4c-0.6,12.5-1.2,24.9-1.9,40.2c13.8-15.3,25.4-29.2,38.3-41.9
		c4.9-4.8,12.6-6.7,19.1-10c3.1,6.6,8.8,13.2,8.8,19.9c0.4,69.1,0.6,138.2-0.7,207.3c-0.4,23.9-15.5,39.5-36.1,51.4
		c-46,26.6-94.5,38.9-148.1,36.2c-33.2-1.7-65.5-3.5-96.7-16.4c-22.4-9.3-32.1-24.9-31.4-48.6c0.4-12.1-0.3-24.2-1.1-36.3
		c-2.3-31.4,0.3-60.6,25.2-84.6c11-10.6,17.6-25.9,29.8-38.4c0,19.1,0,38.2,0,57.2c2,0.5,4,0.9,6,1.4c5.7-17.6,11.3-35.2,17-52.7
		c1.3,0.2,2.6,0.4,3.8,0.6c0,13.6,0,27.2,0,40.8c2,0.3,4,0.5,6,0.8c2.4-12.8,5.4-25.6,6.9-38.5c1-9.1,2.3-16.1,12.5-20.1
		c6.6-2.6,11.6-9.1,18.1-14.6c0,15.4,0,31.4,0,51.1c27.8-25.3,11.9-66.7,41.2-89.9c6.4,21-1.6,36.9-9.8,51.8
		c-11,20-14.2,39.5-4.6,60.2c1.8,0.1,3.7,0.1,5.5,0.2c0-11.4,0-22.7,0-34.1c0-4.1-1.1-11.4,0.4-11.9c16.5-6.4,16-22.1,20.3-35.2
		c1-3.1,1.8-6.9,4.1-8.9c3.7-3.2,8.4-5.3,12.7-7.8c1.7,4.2,3.9,8.3,5,12.7C543.6,571.5,542.2,574.3,541,581z M403.3,676.7
		c-2.6-0.3-5.1-0.7-7.7-1c-1.8-16-3.6-31.9-5.5-48c-24.1,28.2-47.7,55.9-40.4,97.2c2.7,15,2.7,30.7,2.6,46
		c-0.1,17.2,7.9,27.1,23,34.1c30.3,14,62.1,15.7,94.8,17c52,2.2,100-7.9,145.2-34.4c22.2-13,34.9-29.8,35.5-55
		c1.4-57.6,2.3-115.3,2.7-173c0.1-12.1-3-24.2-4.6-36.4c-2.1-0.4-4.1-0.8-6.2-1.3c-22.2,25.9-54.7,44.7-52.1,87.1
		c0.8,12.3-1.6,25.3-5,37.3c-1.7,5.9-8.9,10.3-13.6,15.4c-3-6.9-9.6-14.6-8.3-20.6c3.8-17.5,11-34.3,16.4-51.5
		c2.3-7.3,3.5-14.9,6-25.9c-8.8,9.3-14.4,15.4-20.1,21.4c-1.4-1-2.9-1.9-4.3-2.9c0-7.3,0-14.6,0-24.4c-7.2,14.5-12.1,26.9-19.3,37.7
		c-4.1,6.2-13.8,15.2-18,13.8c-18.7-6-16.7,4.2-15.6,16c1.3,14.6,2.7,29.6-15.1,42.1c-4.9-12.5-9.1-23.4-12.8-32.8
		c-4.9,1.3-9.3,2.5-13.7,3.8c-2.8-13-5.7-26-8.5-38.7c-16.1,5-12.6,21.9-16.3,35.3c-3.1,11.3-7.6,22.2-11.5,33.2
		c-2-0.3-4.1-0.6-6.1-0.9c-2.4-5.2-4.8-10.4-6.9-14.8C413.3,660.4,408.3,668.6,403.3,676.7z M569,652.2c2.7,0.5,5.5,1,8.2,1.5
		c2.7-15.5,5.4-31,8.2-46.5c-2.1-0.4-4.1-0.8-6.2-1.2C575.8,621.4,572.4,636.8,569,652.2z"/>
</g>
</svg>
