<svg xmlns="http://www.w3.org/2000/svg" xmlns:xlink="http://www.w3.org/1999/xlink" viewBox="0 0 129.71 54.82"><defs><style>.cls-1{fill:none;}.cls-2{clip-path:url(#clip-path);}.cls-3{fill:#484748;}.cls-4{fill:#484749;}.cls-5{fill:#231f20;}</style><clipPath id="clip-path" transform="translate(0 0)"><rect class="cls-1" width="129.71" height="54.82"/></clipPath></defs><title>Bam</title><g id="Layer_2" data-name="Layer 2"><g id="Layer_1-2" data-name="Layer 1"><g class="cls-2"><path class="cls-3" d="M5.51,5.62c.29.14.47.08.58-.14,0,0,0-.17-.1-.2-.32-.13-.3.2-.48.34Zm5.06-2.88v-.1H9.39a2.09,2.09,0,0,0,1.18.1Zm-5.82.63a.77.77,0,0,0-1-.32l1,.32ZM4.54,5.92c0-.34-.16-.33-.36-.24s-.5.54-.46,1.17c.09-.23.16-.36.2-.51.08-.31.2-.55.62-.42ZM7,3.1c0,.29.19.22.36.2h.48C8,2.91,7.59,3,7.45,2.85L7,3.1Zm.34,9.84c.2-.12.14-.35.18-.52s0-.42-.2-.45-.24.16-.32.21l.34.76ZM4.57,20.82c.18-.69.37-1.38.57-2.14l-.33.14,0-.31a5.16,5.16,0,0,0-.19,2.31Zm1.16-18c-.19.3-.19.3,0,.56,0,.06,0,.17,0,.31a1.13,1.13,0,0,1,.63.7c.09.34.24.67.36,1,.55-.41.58-.44.34-.94A5.46,5.46,0,0,0,5.73,2.8ZM23.47,18.63a1.79,1.79,0,0,0,.81-.85,5.2,5.2,0,0,0,0-4.06,1.47,1.47,0,0,0-.86-.83v5.74Zm0,11.22A2.34,2.34,0,0,0,25,28.33a7.38,7.38,0,0,0,.23-3.27,3.29,3.29,0,0,0-.74-1.76,2.32,2.32,0,0,0-1-.67v7.22Zm-3-17.28V19a5.15,5.15,0,0,0,2.5-.25l-.1-.28-.08.19-.28-.6s.19-.1.2-.08a4.77,4.77,0,0,1,.23.46c0-.16,0-.24,0-.32s0-.11,0-.14c.16-.23.13-.39-.26-.45l.31-.1-.15-.29-.08-.09c-.08.73-.56.16-.84.34l.45-.66.16.21,0-.32.29.38a1,1,0,0,0,0-.93c-.09-.15-.33-.21-.47-.29,0,0,.09-.12.09-.2,0-.37.15-.52.51-.47l-.3-.82.31-.19,0-.06-.4,0,0-.12c.35-.06.38-.3.33-.56,0,0-.16-.06-.26-.09a1,1,0,0,1,.08.32.2.2,0,0,1-.13.15.21.21,0,0,1-.18-.1c-.06-.23.06-.53-.36-.59l.26-.11-.08-.33.53,0v-.07ZM23.1,27.44c.34-.42-.24-.93.16-1.35l-.6-.12.6-.8L22.8,25l0-.1.21-.07c-.08-.19.24-.34,0-.55A.56.56,0,0,1,23,24a1.65,1.65,0,0,1,.06-.32l-.08,0,.2-.1L23,23.08h-.24c.25-.27.19-.62-.15-.66-.72-.08-1.45-.1-2.19-.14v7.85c.43,0,.83,0,1.24,0s.9-.08,1.35-.12c.2,0,.29-.26.23-.31-.3-.23,0-.44,0-.66s0-.6,0-.9a2.16,2.16,0,0,0-.1-.48l-.23.06-.05-.09.27-.19ZM22,5.06c0-.58,0-.58-.56-.59-.18,0-.36,0-.54,0a22.57,22.57,0,0,0-6,1.26,11,11,0,0,0-2.31,1.07,34,34,0,0,0-2.7,2.12L9.69,9l.29.12V9.2c-.56-.23-.77.35-1.24.44.13.83.05,1.69.26,2.52a5.46,5.46,0,0,0,.22-.69c0-.07.14-.11.21-.16.05.22.19.46.14.66a3.73,3.73,0,0,1-.38.83l.28.34a1.46,1.46,0,0,1-.39.29s-.23-.18-.25-.3a7.09,7.09,0,0,1,0-.8c0-.12-.14-.23-.15-.35-.06-.48-.07-1-.11-1.46a3.25,3.25,0,0,0-.11-.42H8.32l-.51,1.16c.28.06.24.26.19.52s-.43.8,0,1.24l-.63.13.06.56-.08,0-.21-.28-.35.56.08,0L7.16,14l.07,0a2,2,0,0,1-.09.22l-.31.36c-.3.36-.11.78-.12,1.18a2.41,2.41,0,0,1-.07.35l-.11,0a5.54,5.54,0,0,1-.17-.58c-.06-.28,0-.67-.17-.84s-.05-.52,0-.76.16-.5.24-.75a2.61,2.61,0,0,0,.06-.27,16,16,0,0,0-1.65,4.48l.12.05,1-2.29.11,0c.17.5.34,1,.51,1.52-.29,0-.33.17-.17.42A.63.63,0,0,1,6.2,18v-.86l-.09,0c-.08.17-.26.44-.22.5.34.35-.07.4-.18.61L5.49,18l.28-.18-.06-.09c-.12.09-.29.16-.34.28a2.19,2.19,0,0,0-.09.68c0,.69,0,1.38,0,2.07,0,.05-.07.09-.1.14a.74.74,0,0,1-.12-.13A.85.85,0,0,1,5,20.54c-.07.12-.14.19-.13.25.06.34-.18.58-.29.87a1.64,1.64,0,0,0-.08.5A17.09,17.09,0,0,0,5.39,27,5.17,5.17,0,0,0,5.81,28a6.31,6.31,0,0,0,.51.76,3.46,3.46,0,0,0,1,1.85l0-.4a3,3,0,0,1,1.31,1.45l-.76-.2a3.73,3.73,0,0,0,.84,1.07c.23.21.45.49.84.32a2.63,2.63,0,0,0,1.08,1.44,16.3,16.3,0,0,0,4.81,2.62,18.79,18.79,0,0,0,7.51,1c.25,0,.37-.09.36-.36a1.55,1.55,0,0,1,0-.37h.09v.74c1-.2,1.89-.35,2.78-.6a14.53,14.53,0,0,0,7.36-4.91A17.5,17.5,0,0,0,37,26.66a18.57,18.57,0,0,0,.56-9.15A15.07,15.07,0,0,0,33.1,9.38a18.36,18.36,0,0,0-4.47-3.27,19.7,19.7,0,0,0-5.15-1.5V8.9h.19a14.3,14.3,0,0,1,4.06.6A4.82,4.82,0,0,1,31,12.68a3.34,3.34,0,0,0,1.08,1.54l.44.39c-.12.09-.21.18-.31.25A3,3,0,0,0,31,16.63a5.18,5.18,0,0,1-2.14,2.89c-.55.39-1.16.7-1.75,1l.2.08a20.77,20.77,0,0,1,2.41,1.07A4.65,4.65,0,0,1,32,25a3,3,0,0,0,1,1.8c.26.21.49.45.75.69-.22.19-.4.36-.6.51A4.46,4.46,0,0,0,31.7,30a4.54,4.54,0,0,1-2.43,2.55,11.59,11.59,0,0,1-4.79,1H23.43V37.1l-.37-1.33.18-.06c0-.72-.09-1.4-.14-2.12H11a11.61,11.61,0,0,0,1.33-1.08A5.4,5.4,0,0,0,13.51,29c.06-1.29.07-2.58.1-3.87a3.87,3.87,0,0,0-1.43-3.28l-.71-.62a2.49,2.49,0,0,1,.24-.23,4.61,4.61,0,0,0,1.81-3.56,40.26,40.26,0,0,0-.07-4.11A9.2,9.2,0,0,0,13,11.19a3.63,3.63,0,0,0-1.31-1.87,6.31,6.31,0,0,0-.76-.42H22.21L22.35,8a3.16,3.16,0,0,1-.31.16.46.46,0,0,1-.23,0c-.09-.05-.18-.13-.28-.2-.11.27.07.6-.3.6l0-.81.22.11c0-.2-.27-.62.26-.36.05,0,.16,0,.22-.07s.31-.22.46-.32V7l-.4,0c-.33-.6-1-.51-1.6-.71L21.09,6c.29.36.4-.15.63-.13l-.53-.06c.11-.14.18-.21.24-.3a.5.5,0,0,0,.1-.19s0-.09-.07-.13l-.17.12-.24.12.08-.51.39,0,0-.07-.32-.23c.31-.28.47.23.7.12l.06.31ZM7.82,37.72l-.45.05-.15-.53-.49.36c.2-.64-.15-1-.55-1.3-.11.21-.24.38-.47.12L6,36.2l-1.3-1.4a.52.52,0,0,1,0,.21.45.45,0,0,1-.11.13L4.48,35a0,0,0,0,1,0,0c.23-.5-.12-.8-.37-1.14a20.47,20.47,0,0,1-4-10.41,23.25,23.25,0,0,1,3.15-14,1.8,1.8,0,0,0,.2-.73c0-.51,0-1,0-1.55,0-.08.12-.15.18-.23-.3-.14-.32-.59-.12-.93L3.43,4.63l.37-.11a2.34,2.34,0,0,0-.19-.68,2,2,0,0,1-.13-1.19c0-.1.21-.28.33-.29.79,0,1.57,0,2.35,0a1.09,1.09,0,0,1,.3.07c.19.06.37.17.55,0s.2,0,.3,0h3.51a1.19,1.19,0,0,0,.49-.1A26.88,26.88,0,0,1,21.37,0,19.53,19.53,0,0,1,35.73,5.48a20.86,20.86,0,0,1,6.44,12.67,20.42,20.42,0,0,1-3.31,14.76,24.18,24.18,0,0,1-7.2,6.72,18.09,18.09,0,0,1-5.82,2.31A20.72,20.72,0,0,1,8.6,38.37a3.39,3.39,0,0,0-.39-.27.68.68,0,0,0-.29,0l-.24,0c0-.08,0-.16.05-.24l.09-.14Z" transform="translate(0 0)"/><path class="cls-4" d="M70.7,25.69a1.09,1.09,0,0,0,0-.17l-.42-.14a.89.89,0,0,0-.07.16l.44.15Zm.62-.51c0-.11-.1-.26-.11-.26l-.44.17,0,.09Zm6.79-6.3c.28-.46.28-.65,0-.78v.78Zm.42-2.12-.17,0-.12.71.13,0c0-.23.11-.46.16-.7ZM84,11c.33.08.3-.17.38-.38-.25.06-.49.05-.38.38ZM78.18,27.59v-.78c-.27.39-.27.6,0,.78ZM104,11.05c.4-.22.48-.43.27-.76l-.27.76ZM102.4,31.61l.09.06a2.17,2.17,0,0,0,.31-.37s0-.15-.06-.23-.19.06-.22.13a1.77,1.77,0,0,0-.12.41ZM73.1,29.55l.06.13.53-.1-.13-.37-.46.34ZM71,22.89l.58.29v-.66l-.58.37Zm31,1.42.43.59.09,0v-.54ZM86.05,8.4c0-.31-.13-.36-.75-.24.17.37.48.23.75.24Zm-.21,12.86c.19.68.22.72.5.68-.09-.49-.21-.66-.5-.68Zm-.22-13.6,0-.09a.76.76,0,0,0-.94.46l1-.37ZM71.94,24c.25-.16.49-.27.37-.56,0,0-.33,0-.55.07.08.2.12.32.18.49Zm32.54-9c.44-.28.24-.63.29-1-.19,0-.3,0-.29.19s0,.47,0,.76Zm-33,11.07c0,.3,0,.52-.06.78.55-.25.57-.4.06-.78Zm33.19-4.19c-.13-.61-.26-.74-.84-.52l.84.52ZM87.81,8.16l.78.86c.09-.66-.24-1-.78-.86Zm-17,5.78-.09-.09c-.06.05-.18.1-.18.16,0,.32,0,.64,0,1,.45-.34.18-.75.28-1.08ZM97.11,10.2c.63-.07.69-.18.5-.78-.16.26-.53.36-.5.78Zm1-.48c.22-1,.21-.85-.3-1.08.09.38-.15.79.3,1.08Zm-19.53,22c.27-.62.25-1.09,0-1.22-.23.41-.23.64,0,1.22Zm7.79-15.46v.37l.91.11-.3-.52.09,0,.23-.42-.93.42Zm16-1c.61-.37.66-.56.38-1.39l-1,.65s0,.07,0,.11l.39.13c.07-.24.13-.49.5-.41-.1.3-.18.58-.28.91Zm1.62.5.46.38s.11.15.16.14a.3.3,0,0,0,.18-.15c.07-.18.12-.37.18-.55s0-.3-.23-.32c-.43-.05-.55.32-.75.5Zm.22,18.92-.76,0,.13.54c.73-.25.8-.25.78-.77,0-.28-.3-.55-.47-.82,0,0-.1,0-.28,0l.6,1ZM70,30.72c.77-.25,1-.87.67-1.37l-.81.77c0,.15.08.36.14.6Zm34.94-17.29-.34-.14a1.64,1.64,0,0,0,0-.52c-.07-.16-.23-.29-.31-.45a.59.59,0,0,0-.94-.27l.76.44c-.39.32.13.5.11.82l-.57-.33c0,.17-.06.29-.08.39l.54.11.52.16c.18.07.3,0,.35-.21ZM72.15,31.87a1.39,1.39,0,0,0,.1-.28c.14-.82.24-.6-.52-.89-.44-.18-.47.23-.64.41s0,.4.16.48a6.72,6.72,0,0,0,.9.28Zm28.1-7.44a2.7,2.7,0,0,1,.41.16.4.4,0,0,0,.6-.12,1.66,1.66,0,0,1,.33-.24c0,.18,0,.29,0,.4l.1,0c.05-.15.16-.32.12-.45a.86.86,0,0,0-1-.48c-.06.4.33.13.43.29.1.38-.23.37-.42.4-.44.08-.46-.3-.56-.7l-.33.4-.75,0,.79,1c.08-.28.14-.48.21-.7Zm3.46,6.13c-.43.09-.56,0-.71-.33,0-.09-.14-.15-.22-.23-.06.12-.07.17-.06.21.06.52.08.54.57.58,0,0,.06,0,.06,0,0,.26.3,0,.41.19s.28.22.42.33a1.34,1.34,0,0,0-.28-1.72l-.44.57.25.39Zm-5.06-7.89c-.07.47-.51.71-.31,1.12.68,0,1.39-.64,1.28-1.18l-1.26-.26c-.5-.1-.76.19-.61.7l.9-.38Zm1.87-12a3.71,3.71,0,0,0,1.14-1.58,1.17,1.17,0,0,0-.57-1.41.28.28,0,0,0-.18,0c-.25.07-.5.16-.79.27.61.23,1.18.44,1.19,1.16,0,.5-.33.81-1.11,1,.11.17.2.33.32.53Zm-.69,4.6c-.14-.86-1-.79-1.48-1.17a2.56,2.56,0,0,0,.09-.26H98v.86c-.42,0-.11-.62-.55-.58-.11.88,0,1.07.79,1.42.43-.69,1-.21,1.6-.27Zm-12-3.52A1.67,1.67,0,0,0,86.92,10c.15,0,.28,0,.35-.08a.78.78,0,0,0,.3-.35c.11-.37-.18-.59-.44-.75-.07-.05-.33.17-.49.28a1.1,1.1,0,0,0-.28.29,2.14,2.14,0,0,0-.19.4l.47,0c0,.45-.7.83-1.29.69,0-.16,0-.32,0-.56l-.63.42c.56.14.59.21.31.64.41.08,1,0,1,.64l1.14-.28c.28.18.47.31.66.45ZM109.7,30.94A70.05,70.05,0,0,0,118.62,33a18.2,18.2,0,0,0,5.8.08,5.71,5.71,0,0,0,3.06-1.35,2,2,0,0,0,.06-3,6.61,6.61,0,0,0-3.46-1.62,15.45,15.45,0,0,0-8.43.79,40.5,40.5,0,0,0-5.1,2.56l-.85.49ZM69.92,26c0-.05-.14-.1-.14-.15,0-.67,0-1.34,0-1.95l.31-.26-.24-.17V22.16c.6-.08.6-.08.72-.48l-.61.16a5,5,0,0,1,0-.55c.06-.52.15-1,.2-1.56a3.39,3.39,0,0,0,0-.84c0-.25-.06-.46.21-.62-.24-.31-.06-.56.11-.79s.18-.59-.21-.86c-.11.6-.21,1.18-.32,1.76h-.1a2.14,2.14,0,0,1-.06-.35V14.16a2.48,2.48,0,0,0-.52-1.72.43.43,0,0,1,0-.28c0-.33.1-.65.16-1,.49-.13.55-.19.54-.68a1.67,1.67,0,0,0-.55.28,1.54,1.54,0,0,0-.27.61A4.31,4.31,0,0,0,69,12c-.06,0-.11,0-.15,0a2.09,2.09,0,0,0-2,.55l-.79.59c-.12-.38-.22-.69-.3-1,0-.06,0-.17.09-.23,1.24-1.11,2.49-2.22,3.81-3.31l-.12.95.08.06c.06-.07.15-.14.17-.22A4.92,4.92,0,0,1,70,8.34a5,5,0,0,1,.76-1c.07-.08.21-.1.36-.17a.79.79,0,0,0,.87.73c.32,0,.44.13.46.43,0,.11.05.21.08.37.91-.53,1.84-.17,2.79-.18l-.11.31,2.67,1.06c0-.13,0-.24,0-.38a.41.41,0,0,1,.27.5,6.64,6.64,0,0,0-.1.81l-.22.08.2.08a.46.46,0,0,1,.5.44c.09.41.2.81.32,1.26,0-.08.07-.1.06-.12a1.2,1.2,0,0,1,.57-1.2c.43-.35.82-.76,1.24-1.13a.58.58,0,0,1,.28-.09c.16,0,.35,0,.47-.08s.38-.31.21-.59c0,0,0-.07,0-.11l.06-.06c.22-.1.51-.32.65-.25s.23.42.33.64l.15.3c.39-.17.41-.16.62.46a1.13,1.13,0,0,0,.72-1.26l-.69.1a.18.18,0,0,1,0-.09c-.3-1.26-.28-1.24.82-2A14.42,14.42,0,0,0,85.8,6l.64-.56c.26-.23.4-.22.71.08a1.33,1.33,0,0,0-.26,0,1,1,0,0,0-.21.15c.06,0,.11.14.18.16a2.38,2.38,0,0,0,.4.07l.28,0c0-.09,0-.17.08-.27a7.5,7.5,0,0,1,3.87,3l-.4.07L91,8.84l.13,0a1.13,1.13,0,0,1,1,.94,13.16,13.16,0,0,1,.26,1.78c0,.13-.08.28-.15.51a2.41,2.41,0,0,0,.38-.22q2.51-1.8,5-3.62c.22-.16.43-.26.61-.08.25-.56.81-.76,1.19-1.14l.12.08c-.1.18-.28.36-.27.54a1.88,1.88,0,0,0,.27.64l.5-.39c-.08-.25-.18-.52-.27-.79l0-.08c.37.32.5.09.65-.18s.42-.72.63-1.07l.64.09c0-.23,0-.4,0-.63.12,0,.28,0,.31.1a4,4,0,0,0,1.29,1.37,3.47,3.47,0,0,0,.38.29c.38.28.39.34.13.78h.75c-.11.34-.39.42-.62.53a.44.44,0,0,0-.29.35,2.46,2.46,0,0,1-.42.61l-.1,0c.07.12.15.24.23.4l-.56,0-.06.1c.18.14.35.37.56.41s.65-.39.66-.63v-1c.36-.09.69-.19,1-.27a.34.34,0,0,1,.26.08,11.8,11.8,0,0,0,3.78,2.32.56.56,0,0,1,.34.75c-.1.29-.34.35-.79.11l.73-.5-.9-.28-1,.5.12.36-1.57,1.58.14,0c0,1.32,0,2.61-.06,3.9V27.74c-.26,0-.49.08-.72.1-.52.06-.52.06-.44.63l1.17-.28.48,1a2.91,2.91,0,0,1-.39-.09c-.29-.14-.54-.11-.66.2a8.43,8.43,0,0,0-.26,1.13l.13.06.51-.4c.58.27.77.16,1.1-.65.54.23.88-.17,1.26-.43a25.59,25.59,0,0,1,7.84-3.68,15.76,15.76,0,0,1,10.77.92,6.09,6.09,0,0,1,1.95,1.4,3,3,0,0,1-.28,4.43,7.29,7.29,0,0,1-4.15,1.72,24.7,24.7,0,0,1-6.81-.36,70.61,70.61,0,0,1-8.34-2,.46.46,0,0,0-.49.13c-1.29,1-2.59,2.07-3.88,3.11-.22.18-.55.21-.65.58,0,.11-.35.14-.45.18a2.52,2.52,0,0,1-.32.47c-.52.41-1.05.8-1.59,1.21a9.57,9.57,0,0,1-4.15-4.06,5.53,5.53,0,0,1-.53-2.44c0-5.83,0-11.67,0-17.51a1.43,1.43,0,0,0-2.07-1.36c-.72.31-1.37.78-2.09,1.13a1.4,1.4,0,0,0-.85,1.51c0,4.09,0,8.18,0,12.27,0,1,.06,2,.16,3.05a2.39,2.39,0,0,0,.46,1,1.31,1.31,0,0,0,1.16.45v.9c-2,.25-3.33,1.63-4.6,3-.55.61-1,1.29-1.58,2l-.44-.64a14.78,14.78,0,0,0-2.38-2.74,5.72,5.72,0,0,0-3.62-1.59v-.91l.32,0a1.66,1.66,0,0,0,1.74-1.33,9.23,9.23,0,0,0,.2-1.58c.06-.78.11-1.56.11-2.34,0-2.92,0-5.84,0-8.76v-.43l.68.3.12-.09c-.09-.3-.19-.6-.27-.88l-.53.1c0-.19,0-.33,0-.47,0-.91-.11-1.81-.17-2.71a1.4,1.4,0,0,0-.11-.4c-.3-.88-.8-1.16-1.67-.84s-1.82.75-2.73,1.13c0,0-.11,0-.14.1-.18.26-.31.1-.42-.06a1.22,1.22,0,0,1-.09-.27h-.09c0,.36,0,.72,0,1.09,0,.05.16.1.32.21,0,1.28-.1,2.61-.14,4a2.83,2.83,0,0,0,.06.77.41.41,0,0,1-.22.5.5.5,0,0,0-.2.31c0,.71-.08,1.42-.12,2.12l.1,0-.33.12.38.11c0,.27-.09.53-.14.78h.09a5.43,5.43,0,0,0,.14-3.07h.19c0,.45.12.91.13,1.36s0,1.09-.07,1.63a.45.45,0,0,1,0,.16,1.49,1.49,0,0,0-.19,1c0,.08-.07.2-.13.33l.23.09c0,.06-.08.15,0,.21.22.52,0,1,0,1.54a2.16,2.16,0,0,0,.15.52,1.7,1.7,0,0,1,.1.37c0,.79.06,1.59.15,2.38a2.71,2.71,0,0,0,.66,1.46c.08.1.16.3.11.36-.23.32-.13.71-.26,1.05a1.09,1.09,0,0,1-.79.71,3.32,3.32,0,0,0-.77.4l-.33.18a1.42,1.42,0,0,1-.19.37c-.58.63-1.2,1.21-1.74,1.87a15.33,15.33,0,0,0-1,1.55c-.06,0-.17-.13-.26-.22-1.08-1.06-2.14-2.14-3.25-3.16a5,5,0,0,0-2.24-1.33c.28-.44-.1-.6-.34-.86-.16.22-.4.4-.15.66H67.12l0-.12.43-.34c0-.13,0-.33,0-.58l.26.13,1-.32a1.42,1.42,0,0,0,.06-.24c.28.06.54.51.88.09a.9.9,0,0,0-.14-.2c-.25-.21-.1-.39,0-.58s.13-.15.14-.23c0-.68.11-1.36.13-2a4.57,4.57,0,0,0-.09-.76c.46-.23.18-.62.08-1l.26.2.08-.06-.18-.64-.11,0,0,.49Z" transform="translate(0 0)"/></g><path class="cls-4" d="M51.14,22.33c.49,0,.88-.12,1.27-.13a8.42,8.42,0,0,1,1.22.08c.48,0,.52,0,.38-.45-.43-1.49-.87-3-1.3-4.46,0-.08-.06-.15-.11-.28a29.45,29.45,0,0,0-1.46,5.24ZM44.77,23a4.2,4.2,0,0,1-.19-.47,2.51,2.51,0,0,1,2.11-3A7.71,7.71,0,0,1,48,19.36c.26,0,.47-.07.55-.36.36-1.34.74-2.68,1.08-4a.88.88,0,0,0-.44-1.16,1.63,1.63,0,0,0-1.52.31c-.15.16-.32.3-.48.46l-.11,0a2.73,2.73,0,0,1,0-.75,3.22,3.22,0,0,1,2.21-2.58,5.3,5.3,0,0,1,4.25.32,10.37,10.37,0,0,1,1.24,1,5.48,5.48,0,0,0,.53-.48,3.73,3.73,0,0,1,2.42-1.18,4.89,4.89,0,0,1,3.07.55,2.15,2.15,0,0,1,.86,2.89.9.9,0,0,1-.1.12,7.75,7.75,0,0,0-.66-.63,1.39,1.39,0,0,0-2,.36,1.27,1.27,0,0,0-.17.69,16.45,16.45,0,0,0,1,3.64c.94,3,1.87,6,2.81,9.06a2,2,0,0,0,1,1.25,1.4,1.4,0,0,0,1.64-.34,5.06,5.06,0,0,1,.41-.37,1.45,1.45,0,0,1,.08,1.2c-.46,1.84-2,2.32-3.48,2.26a3.3,3.3,0,0,1-2.45-1.17,3.55,3.55,0,0,0-.34-.33s0,0-.08-.05a3.08,3.08,0,0,1-1.8,1.4A4.46,4.46,0,0,1,54.18,31a2.13,2.13,0,0,1-1-2.67l.26.2a1.52,1.52,0,0,0,1.31.32.94.94,0,0,0,.76-1.07,12.56,12.56,0,0,0-.28-1.51A1.56,1.56,0,0,0,54,25.08a5.38,5.38,0,0,0-3.47.47.8.8,0,0,0-.36.41,14.16,14.16,0,0,0-.44,1.54A1,1,0,0,0,50,28.66a1.19,1.19,0,0,0,1.28.11c.23-.1.44-.23.66-.34a2.16,2.16,0,0,1-1.53,2.93,2.54,2.54,0,0,1-2.75-.87s0,0-.12-.09c-.15.13-.31.25-.45.38a2.91,2.91,0,0,1-3.45.32,1.51,1.51,0,0,1-.48-.6A2.69,2.69,0,0,1,43,28.55c0-.11.12-.25.21-.27s.23.07.31.15a1.11,1.11,0,0,0,1.86-.08,7.89,7.89,0,0,0,1.27-2.87l.72-2.8c.12-.5,0-.72-.48-.82A1.66,1.66,0,0,0,44.77,23Z" transform="translate(0 0)"/><path class="cls-4" d="M27.81,50.17c.65,0,1.26,0,1.87,0a1,1,0,0,0,.57-.25,1.39,1.39,0,0,0-.5-2.28,11.3,11.3,0,0,0-1.94-.13v2.67Zm1.32.75,3,3.74c-.47,0-.87,0-1.27,0-.08,0-.16-.14-.23-.23-.84-1.13-1.67-2.26-2.5-3.4l-.28-.36v4h-1V46.7l.26,0c.95,0,1.91,0,2.86,0a1.79,1.79,0,0,1,1.56,1.15,2.08,2.08,0,0,1-1.11,2.92,5.16,5.16,0,0,1-1.23.13Z" transform="translate(0 0)"/><path class="cls-4" d="M53.35,51.42h2.59c-.44-1.12-.86-2.21-1.32-3.37-.44,1.16-.84,2.25-1.27,3.37Zm5,3.21-.11,0c-1,.06-1,.06-1.36-.85-.19-.46-.39-.92-.57-1.38a.31.31,0,0,0-.35-.25c-.88,0-1.77,0-2.65,0a.34.34,0,0,0-.37.27c-.26.64-.53,1.27-.78,1.92-.09.22-.2.33-.45.3s-.45,0-.71,0c0-.13.06-.21.09-.29,1.09-2.54,2.17-5.09,3.26-7.63a1.78,1.78,0,0,1,.26-.31c.09.1.22.18.27.3q1.68,3.78,3.33,7.56c.05.1.09.2.14.33Z" transform="translate(0 0)"/><path class="cls-4" d="M78.47,46.69h4.32v.84H79.45v2.35h3.34v.85H79.44V53.8h3.35v.84H78.47v-8Z" transform="translate(0 0)"/><g class="cls-2"><path class="cls-4" d="M43.94,54.65H39.63v-8h4.31v.84H40.6v2.35h3.34v.85H40.6v3.06h3.34v.86Z" transform="translate(0 0)"/><path class="cls-4" d="M91,52.87l.94-.48a1.65,1.65,0,0,0,2.45,1.37,1.48,1.48,0,0,0,.73-1.31,1.2,1.2,0,0,0-.78-1.14c-.51-.23-1-.41-1.58-.61a2.08,2.08,0,0,1-1.45-2.6,1.89,1.89,0,0,1,1.43-1.45,2.65,2.65,0,0,1,2.59.48,6.4,6.4,0,0,1,.71.91l-.92.43a1.65,1.65,0,0,0-1.84-1.08A1.22,1.22,0,0,0,93,49.73l1.72.64a2,2,0,0,1,1.35,1.7,2.17,2.17,0,0,1-.85,2.23,2.79,2.79,0,0,1-3.53-.22A7,7,0,0,1,91,52.87Z" transform="translate(0 0)"/><path class="cls-4" d="M18.9,53.15v.32c0,.91,0,.92-.9,1.15a4.6,4.6,0,0,1-4.22-.76,4.23,4.23,0,0,1-1-5,4.09,4.09,0,0,1,2.76-2.28,5.16,5.16,0,0,1,3.13.3c.18.08.28.16.26.38s0,.5,0,.81a3.87,3.87,0,0,0-2.7-.67,3.09,3.09,0,0,0-2.31,1.45A3.43,3.43,0,0,0,14.28,53a3.33,3.33,0,0,0,2.25,1,3.41,3.41,0,0,0,2.37-.81Z" transform="translate(0 0)"/></g><path class="cls-4" d="M67.23,47.53H65V46.7h5.56v.82H68.26v7.12h-1V47.53Z" transform="translate(0 0)"/><path class="cls-4" d="M74.19,5.84a6.07,6.07,0,0,1,.92.58c.76.71,1.5,1.45,2.25,2.17.22.21.06.36,0,.48h-.94l-.64-1.21c-.85.38-1.77-.36-1.55-2Z" transform="translate(0 0)"/><path class="cls-4" d="M5.05,37.52l.46-.88c.39.15.46.36.27.66A6.13,6.13,0,0,1,5.3,38a.76.76,0,0,1-1.06.09l.44-.65.37.05Z" transform="translate(0 0)"/><path class="cls-4" d="M73.24,5.25c.1.29.17.53.26.77s0,.3-.21.32a.88.88,0,0,1-.43,0A2.55,2.55,0,0,1,72.39,6a3.11,3.11,0,0,1,.31-.32c.16-.13.34-.24.54-.38Z" transform="translate(0 0)"/><path class="cls-4" d="M80.61,32.1c-.5,0-.62-.19-.55-1,.45,0,.67.4.55,1Z" transform="translate(0 0)"/><path class="cls-4" d="M6.79,37.92c-.31.23-.48.52-.91.5l.41-.71.5.21Z" transform="translate(0 0)"/><path class="cls-4" d="M5.2,35.77c-.09.27-.17.53-.27.79,0,0-.09.07-.14.11s-.09-.12-.1-.18c0-.37.24-.53.43-.75l.08,0Z" transform="translate(0 0)"/><path class="cls-4" d="M108.55,11.62h-.43l.43-.34v.34Z" transform="translate(0 0)"/><path class="cls-4" d="M104.48,15c0-.29,0-.53,0-.76s.1-.24.29-.19c0,.32.15.67-.29,1Z" transform="translate(0 0)"/><path class="cls-4" d="M104.26,10.29c.21.33.13.54-.27.76" transform="translate(0 0)"/><path class="cls-4" d="M69.92,26l0-.49.11,0,.18.64-.08.06-.26-.2Z" transform="translate(0 0)"/><path class="cls-4" d="M84,11c-.11-.33.13-.32.38-.38-.08.21,0,.46-.38.38Z" transform="translate(0 0)"/><path class="cls-4" d="M78.53,16.76c0,.24-.11.47-.16.7l-.13,0,.12-.71.17,0Z" transform="translate(0 0)"/><path class="cls-4" d="M78.11,18.88V18.1c.28.13.28.32,0,.78Z" transform="translate(0 0)"/><path class="cls-4" d="M71.32,25.18h-.51l0-.09.44-.17s.06.15.11.26Z" transform="translate(0 0)"/><path class="cls-4" d="M70.7,25.69l-.44-.15a.89.89,0,0,1,.07-.16l.42.14a1.09,1.09,0,0,1,0,.17Z" transform="translate(0 0)"/><path class="cls-4" d="M7.4,29.07l.49-.1h.25l-.05.2.18.55c.4.07.43.05.52-.35-.22.13-.3.1-.29-.1a2.45,2.45,0,0,0,0-.27.76.76,0,0,0-.32-.64,2.56,2.56,0,0,1-.62-.61A2.87,2.87,0,0,1,9,28.9l.3-.38,0-.06L9,28.52c-.12-.47.39-.94-.08-1.38L9,27.07l.47.3-.19.26.65.42.34-.09,0,.13-.31.06c.33.24,0,.42,0,.64s0,.23,0,.28a.5.5,0,0,1,0,.71c-.14.21-.31.41-.51.68l-.13-.35A.52.52,0,0,0,8.43,30s0,.14,0,.21A1,1,0,0,0,9,31c.15-.15.38-.17.5-.44a.85.85,0,0,1,.83-.44c-.06.26-.11.5-.17.77.32.07.37.21.11.45a.43.43,0,0,0-.08.32,5.11,5.11,0,0,0,.16.58c-.46,0-.19-.6-.58-.59-.08.36-.15.39-.45.17a3,3,0,0,1-1-1.32,6.54,6.54,0,0,0-.72-1.18l-.33.23-.09-.07.1-.31v-.65l.23,0L7.35,28c.26.06.41.45.37,1l-.27-.17L7.36,29l0,.1Z" transform="translate(0 0)"/><path class="cls-4" d="M6.89,20.91c-.1.17-.21.34-.3.51s-.16.33-.25.52c-.29-.39,0-.88-.17-1.37L5.71,21,5.55,21c.07-.38.13-.75.19-1.13a.41.41,0,0,0,0-.22c-.26-.45,0-.83.14-1.23a.31.31,0,0,1,.22-.15.32.32,0,0,1,.21.18,3.4,3.4,0,0,1,.11.7c0,.44,0,.88-.06,1.31,0,0,0,.08.11.17l.15-.93a.87.87,0,0,1,.31,1.07l.31-.29.07.06-.12.33c.38.45.36.93-.08,1.55l.39-.12c-.2.31-.1.67-.5.82a.53.53,0,0,0-.2.46c.12.59-.3.94-.54,1.4L6,24.79a1.17,1.17,0,0,0,.25-1.15.33.33,0,0,1,.11-.4l.07-.07a.73.73,0,0,0,.26-1.06c-.08-.15,0-.4.07-.59A4.07,4.07,0,0,1,7,20.94l-.12,0Z" transform="translate(0 0)"/><path class="cls-4" d="M7,27.33c-.09-.38-.19-.77-.27-1.16a3.08,3.08,0,0,1-.07-.68,1.27,1.27,0,0,1,.12-.36s.05-.06,0-.09c-.08-.47.18-.59.58-.59.11.42.07.51-.29.56.11.17.23.32.33.48a1,1,0,0,1,0,.25l-.2-.16s0-.06-.09-.14L7,26.09c.18.07.4.08.46.18s0,.42-.24.53l.3.38L7.72,27l.4.5a1.73,1.73,0,0,1-.4,0c-.32-.1-.48,0-.51.34,0,.13,0,.27-.06.4s-.08.08-.12.12-.11-.09-.11-.13c0-.28,0-.57.07-.86Z" transform="translate(0 0)"/><path class="cls-4" d="M6.33,27.27c.19.1.33.24.08.45,0,0,0,0,0,.06l.06.63-.14,0c-.08-.07-.21-.13-.24-.22A2,2,0,0,1,6,27c.15-.52.24-1,.38-1.65.07.11.16.18.15.24a2.61,2.61,0,0,0,.07,1.24c0,.11-.16.31-.26.47Z" transform="translate(0 0)"/><path class="cls-4" d="M8,21.08l.1-.81-.37.09c.05-.29.08-.31.42-.24l.25-.4.11,0,0,.37a1.82,1.82,0,0,1,.28.39c.11.33.4.37.66.45a1.14,1.14,0,0,0,.27,0c-.13.18-.13.17-.46,0a3.19,3.19,0,0,0-.57-.12c-.13.26,0,.61-.23.81l-.1,0,.15-1.06-.07,0-.28.52L8,21.08Z" transform="translate(0 0)"/><path class="cls-4" d="M8.47,22.58,8,23c0-.33-.08-.68-.12-1l.52,0-.06.44.48.34.31-.15.19.56-.08.08-.31-.3c-.08.17-.17.38-.28.57a.53.53,0,0,1-.23.18s-.11-.09-.11-.14,0-.27.09-.29c.32-.11.15-.35.2-.53l-.08-.07Z" transform="translate(0 0)"/><path class="cls-4" d="M5,23.73V21.42a1.18,1.18,0,0,1,.5,1,2.1,2.1,0,0,1-.37,1.3l-.13,0Z" transform="translate(0 0)"/><path class="cls-4" d="M7.07,15.57a2.21,2.21,0,0,1,1.17-2l.25.22c-.13.13-.25.25-.38.36s-.11,0-.12,0l-.56,1.07c-.08.15-.18.3-.27.45l-.09,0Z" transform="translate(0 0)"/><path class="cls-4" d="M8.72,17.66c0,.2.18.37,0,.59s0,.37,0,.56.05.66.06,1c0,.06-.07.12-.11.19l-.09-.07.11-.25c-.31-.11-.3-.33-.25-.6a4.17,4.17,0,0,0,.05-.71V17.6l.27.07Z" transform="translate(0 0)"/><path class="cls-4" d="M6.65,19.47a3.44,3.44,0,0,1,0-1.75c.35.13.35,1.27,0,1.75Z" transform="translate(0 0)"/><path class="cls-4" d="M7.94,27l-.34-.46h.51l-.23-.27c0-.07-.06-.15-.1-.23a1.1,1.1,0,0,1,.26,0c.05,0,.08.07.12.11.42.42.38.57-.22.83Z" transform="translate(0 0)"/><path class="cls-4" d="M7.41,16.74c.22-.48.73-.69,1.05-1.08l.11.1a4.47,4.47,0,0,0-.29.35,3.47,3.47,0,0,1-.31.44,2.52,2.52,0,0,1-.48.28l-.08-.09Z" transform="translate(0 0)"/><path class="cls-4" d="M6.9,17.06c.12-.4.23-.81.36-1.21,0-.06.12-.1.19-.14s.09.14.08.19c-.12.38-.24.75-.37,1.12,0,0-.09.07-.14.1l-.12-.06Z" transform="translate(0 0)"/><path class="cls-4" d="M8.87,27.17l.1.71c-.26.09-.47,0-.49-.22a.41.41,0,0,1,.39-.49Z" transform="translate(0 0)"/><path class="cls-4" d="M8,24c.33.28.29.53-.19.94,0-.35-.14-.67.19-.94Z" transform="translate(0 0)"/><path class="cls-4" d="M8.89,25.79l-.35-.17-.24.13c0-.07.07-.14.06-.2a1.87,1.87,0,0,0-.08-.32c.23-.07.4.07.61.56Z" transform="translate(0 0)"/><path class="cls-4" d="M8.73,17.67c-.06-.19-.13-.37-.18-.56s.06-.13.09-.19.15.09.17.15.1.41.16.66l-.25-.07Z" transform="translate(0 0)"/><path class="cls-4" d="M6,22.89a4.59,4.59,0,0,1,.17-.48s.12-.05.19-.07.07.15,0,.2a3.9,3.9,0,0,1-.31.4L6,22.89Z" transform="translate(0 0)"/><path class="cls-4" d="M8.31,24.63l.4.13-.26.35-.23-.4.09-.08Z" transform="translate(0 0)"/><path class="cls-5" d="M22.67,16.5l-.21,0-.16-.41c.09-.08.09-.08.37.37Z" transform="translate(0 0)"/></g></g></svg>