<?xml version="1.0" encoding="utf-8"?>
<!-- Generator: Adobe Illustrator 16.0.0, SVG Export Plug-In . SVG Version: 6.00 Build 0)  -->
<!DOCTYPE svg PUBLIC "-//W3C//DTD SVG 1.1//EN" "http://www.w3.org/Graphics/SVG/1.1/DTD/svg11.dtd">
<svg version="1.1" id="Layer_1" xmlns="http://www.w3.org/2000/svg" xmlns:xlink="http://www.w3.org/1999/xlink" x="0px" y="0px"
	 width="595.28px" height="510.432px" viewBox="0 165.732 595.28 510.432" enable-background="new 0 165.732 595.28 510.432"
	 xml:space="preserve">
<title>BlindBarberGrey</title>
<path fill="#333333" d="M107.239,355.952l191.335-190.22c63.729,63.357,127.482,126.764,191.261,190.22
	c-63.73,63.43-127.484,126.837-191.261,190.22L107.239,355.952z M298.573,536.505c60.755-60.383,121.063-120.394,181.668-180.627
	c-60.68-60.234-121.235-120.418-181.668-180.553c-60.754,60.308-121.311,120.517-181.668,180.627
	C177.585,416.26,237.894,476.271,298.573,536.505z"/>
<path fill="#333333" d="M272.918,675.712v-44.32c0.654-0.195,1.327-0.32,2.008-0.372c7.883,0,15.766,0.074,23.573,0.074
	c2.56-0.029,5.079,0.639,7.288,1.934c7.659,4.462,6.841,15.468,0.371,18.889c-0.38,0.197-0.73,0.447-1.041,0.743
	c0.206,0.263,0.43,0.511,0.67,0.744c4.981,2.899,6.989,7.213,6.022,12.864c-0.817,4.834-4.685,8.403-10.038,9.37
	c-0.808,0.172-1.629,0.271-2.454,0.297h-25.135C273.75,675.947,273.321,675.871,272.918,675.712z M281.916,667.532h15.914
	c0.727-0.06,1.434-0.261,2.082-0.595c1.687-0.606,2.854-2.153,2.975-3.941c0.253-1.885-0.738-3.717-2.454-4.536
	c-1.372-0.665-2.864-1.045-4.388-1.116c-4.016-0.148-7.957-0.074-11.972-0.074c-0.67,0-1.339,0.224-2.157,0.298V667.532
	L281.916,667.532z M281.99,639.423v9.146c0.312,0.152,0.635,0.276,0.967,0.372h13.758c0.823-0.048,1.63-0.25,2.379-0.595
	c1.711-0.744,2.9-1.934,2.975-3.867c0.095-1.797-0.945-3.462-2.603-4.164c-0.711-0.414-1.492-0.691-2.306-0.818
	C292.253,639.423,287.271,639.423,281.99,639.423L281.99,639.423z"/>
<path fill="#333333" d="M0.379,631.243c0.818-0.074,1.71-0.224,2.603-0.224c7.437,0,14.947,0.074,22.384,0.074
	c2.682-0.066,5.33,0.602,7.659,1.934c8.18,4.76,6.618,15.988,0.297,19.037c-0.297,0.148-0.521,0.372-0.967,0.669
	c0.521,0.372,0.967,0.744,1.413,1.041c4.313,2.603,5.875,6.618,5.429,11.452c-0.446,4.76-2.975,7.957-7.362,9.667
	c-1.705,0.674-3.521,1.026-5.354,1.041c-8.255,0.074-16.583,0.074-24.837,0c-0.372,0-0.818-0.148-1.116-0.148
	C-0.067,673.48-0.216,634.887,0.379,631.243z M9.229,667.532h15.839c0.804-0.074,1.587-0.302,2.306-0.67
	c3.495-1.784,3.792-6.172,0.521-8.18c-1.412-0.789-2.994-1.223-4.611-1.264c-3.94-0.224-7.956-0.075-11.972-0.075
	c-0.67,0-1.339,0.224-2.157,0.298C9.229,660.839,9.229,664.037,9.229,667.532L9.229,667.532z M9.303,648.569
	c0.33,0.167,0.68,0.292,1.041,0.372c4.61,0,9.146,0.074,13.757,0c0.91-0.063,1.797-0.317,2.603-0.744
	c1.558-0.632,2.604-2.113,2.678-3.792c0.168-1.696-0.801-3.301-2.38-3.941c-1.284-0.606-2.673-0.96-4.09-1.041
	c-3.867-0.148-7.734-0.074-11.601,0c-0.675,0.063-1.345,0.162-2.008,0.298C9.303,642.77,9.303,645.743,9.303,648.569L9.303,648.569z
	"/>
<path fill="#333333" d="M443.952,675.86v-44.617c1.041-0.074,1.934-0.224,2.826-0.224c7.287,0,14.501,0.074,21.788,0.074
	c2.976-0.117,5.92,0.632,8.478,2.157c7.733,4.982,6.023,15.765-0.074,18.739c-0.298,0.148-0.595,0.446-1.115,0.743
	c0.354,0.274,0.726,0.522,1.115,0.744c4.759,2.305,6.47,7.957,5.874,11.897c-0.619,4.944-4.281,8.963-9.146,10.039
	c-1.289,0.324-2.611,0.499-3.941,0.521c-8.105,0.074-16.137,0-24.242,0C444.992,675.977,444.468,675.951,443.952,675.86z
	 M452.95,667.606c5.28,0,10.188,0.074,15.021,0c3.421-0.074,5.651-2.082,5.875-4.685c0.223-2.752-2.008-4.982-5.503-5.503
	c-0.813-0.124-1.634-0.174-2.454-0.149H452.95C452.95,660.839,452.95,664.037,452.95,667.606z M452.95,648.867
	c5.28,0,10.262,0.074,15.244-0.074c1.019-0.088,1.994-0.447,2.826-1.042c2.751-1.784,2.826-5.428,0.074-7.139
	c-1.411-0.789-2.994-1.223-4.61-1.264c-3.123-0.224-6.321-0.074-9.444-0.074h-4.016C452.95,642.694,452.95,645.595,452.95,648.867z"
	/>
<path fill="#333333" d="M135.274,631.02c2.677,0,5.428-0.148,8.105,0.074c0.817,0.074,1.636,1.116,2.23,1.934
	c5.577,7.437,11.08,14.947,16.657,22.458c0.744,0.967,1.487,1.934,2.156,2.825c0.159-0.011,0.313-0.062,0.446-0.148
	c0.074-0.055,0.127-0.134,0.149-0.223v-26.696c3.049-0.521,5.8-0.298,8.552-0.224c0.669,2.306,0.892,40.751,0.223,44.915
	c-2.454,0-4.982,0.149-7.437-0.074c-0.893-0.074-1.784-1.189-2.38-2.082c-5.874-7.957-11.749-15.988-17.623-24.02l-1.785-2.23
	c-0.223,0.074-0.372,0.148-0.595,0.224v27.96h-8.478C134.753,673.556,134.604,635.109,135.274,631.02z"/>
<path fill="#333333" d="M564.644,660.244v15.765h-8.478c-0.595-2.23-0.744-40.527-0.074-44.543c0.764-0.114,1.533-0.189,2.305-0.223
	c7.437,0,14.947,0.074,22.384,0.074c12.716,0,16.731,11.749,13.236,20.673c-1.413,3.569-4.239,5.651-8.031,7.213
	c3.123,5.577,6.098,11.08,9.295,16.806h-10.188c-1.339-2.528-2.751-5.205-4.164-7.882c-1.115-2.156-2.306-4.313-3.421-6.544
	c-0.296-0.887-1.148-1.465-2.082-1.413C571.931,660.244,568.584,660.244,564.644,660.244z M564.941,651.767
	c5.354,0,10.337,0.075,15.319-0.074c2.809,0.091,5.225-1.971,5.577-4.759c0.669-3.941-1.487-6.916-5.503-7.214
	c-2.604-0.223-5.28-0.148-7.957-0.148h-7.437C564.941,643.811,564.941,647.603,564.941,651.767z"/>
<path fill="#333333" d="M393.684,660.393v15.616h-8.329c-0.743-2.156-0.967-38.594-0.223-44.395
	c0.764-0.114,1.533-0.188,2.305-0.223h22.384c13.162,0,16.731,12.344,13.236,20.673c-1.069,2.701-3.112,4.903-5.727,6.172
	c-0.743,0.372-1.412,0.744-2.379,1.19c1.636,2.899,3.123,5.651,4.685,8.402c1.487,2.677,2.975,5.28,4.61,8.255h-10.262
	c-2.677-5.206-5.429-10.411-8.18-15.691H393.684L393.684,660.393z M393.906,651.767c5.577,0,10.857,0.149,16.137-0.074
	c2.9-0.148,4.76-2.454,4.982-5.354c0.411-3.178-1.832-6.086-5.009-6.496c-0.238-0.031-0.478-0.047-0.717-0.048
	c-4.388-0.224-8.775-0.149-13.163-0.149c-0.75,0.04-1.496,0.14-2.23,0.298V651.767L393.906,651.767z"/>
<path fill="#333333" d="M194.242,631.317c0.373-0.177,0.778-0.278,1.19-0.298c6.246,0.074,12.493-0.223,18.665,0.298
	c11.154,0.967,18.813,9.444,19.186,20.673c0.089,2.342-0.086,4.687-0.521,6.99c-1.859,8.923-7.437,14.5-16.286,16.359
	c-7.213,1.487-14.649,0.446-22.234,0.744V631.317L194.242,631.317z M203.166,667.532c3.347,0,6.396,0.223,9.444-0.074
	c3.539-0.272,6.765-2.132,8.774-5.058c3.421-4.759,3.645-12.418,0.521-17.4c-1.47-2.385-3.776-4.135-6.47-4.908
	c-4.016-1.189-8.03-0.669-12.27-0.595V667.532z"/>
<path fill="#333333" d="M535.568,631.614v5.652c0,0.595-0.074,1.189-0.148,2.156h-23.722v9.667h23.275v8.329h-23.201
	c-0.595,3.495-0.224,6.692-0.298,10.188c7.957,0.372,15.839,0,23.87,0.223v8.105h-32.719v-44.171
	C504.633,631.094,530.585,630.871,535.568,631.614z"/>
<path fill="#333333" d="M343.563,630.871h8.998c6.172,14.724,12.419,29.597,18.889,44.915h-7.586
	c-0.934,0.032-1.766-0.585-2.007-1.487c-0.596-1.487-1.339-2.975-1.859-4.536c-0.292-1.008-1.261-1.664-2.306-1.562h-21.044
	c-1.116,2.454-2.157,4.834-3.347,7.362h-8.254C325.196,673.109,339.547,638.604,343.563,630.871z M355.684,659.575
	c-2.603-6.098-4.982-11.898-7.733-18.368c-2.752,6.544-5.205,12.271-7.809,18.368H355.684z"/>
<path fill="#333333" d="M65,630.945v36.512h23.499v8.255H56.152v-44.618C58.977,630.723,61.729,631.094,65,630.945z"/>
<path fill="#333333" d="M112.667,675.86h-8.031c-0.744-2.23-1.041-40.305-0.298-44.617h8.031
	C113.038,633.399,113.336,670.432,112.667,675.86z"/>
<path fill="#333333" d="M350.181,278.02c0.943,3.872,0.496,7.951-1.264,11.526c-5.801,12.642-11.526,25.358-17.326,38
	c-6.321,13.906-12.642,27.737-18.963,41.643c-0.298,0.669-0.521,1.339-0.967,2.38c4.759,0.669,9.295,1.413,12.195,5.503
	c2.826,4.016,3.198,8.552,2.454,13.459c0.744,0.149,1.413,0.297,2.082,0.372c2.008,0.298,4.09,0.372,6.098,0.818
	c13.608,2.9,20.227,18.219,13.906,31.083c-4.76,9.742-14.427,14.278-25.283,12.122c-0.893-2.306-1.562-4.537-2.528-6.619
	c-5.354-11.525-10.758-23.003-16.211-34.43c-0.744-1.562-1.413-2.9-3.347-3.123c-2.082-0.223-1.858-2.528-3.197-3.718
	c-0.391,0.384-0.739,0.808-1.041,1.264c-0.521,1.487-1.413,2.454-3.049,2.603c-1.636,0.223-2.008,1.636-2.528,2.826l-14.055,29.671
	c-1.041,2.156-2.082,4.238-2.975,6.395c-0.595,1.487-0.967,3.049-1.636,5.057c-7.288,1.19-14.575,0.372-20.45-5.428
	c-6.767-6.693-8.924-14.725-6.246-23.945c0.934-3.151,2.647-6.016,4.982-8.328c2.229-2.44,5.124-4.173,8.328-4.983
	c3.123-0.744,6.396-1.115,9.965-1.785c-0.669-4.536-0.446-9.146,2.38-13.236c2.899-4.165,7.436-5.057,12.344-5.577
	c-0.521-1.264-0.893-2.157-1.339-3.124c-11.823-26.101-23.696-52.178-35.619-78.229c-1.578-3.346-2.367-7.009-2.306-10.708
	c0-0.446,0.149-0.967,0.298-2.157c17.772,28.778,35.099,56.962,52.798,85.666C315.454,334.313,332.781,306.129,350.181,278.02z
	 M280.949,398.785c-4.759-2.454-9.221-3.644-14.203-3.421c-7.808,0.446-13.757,4.685-16.063,11.973
	c-2.156,6.618,0.521,14.872,6.173,19.26c2.688,2.127,6.017,3.28,9.443,3.271C271.134,419.458,275.967,409.271,280.949,398.785
	L280.949,398.785z M329.211,429.72c8.552,0.074,14.129-6.47,15.839-13.088c1.859-7.511-1.338-15.616-7.882-18.962
	c-7.511-3.867-14.947-2.826-22.532,1.041C319.544,409.195,324.377,419.458,329.211,429.72L329.211,429.72z M283.329,393.654
	c1.859-3.941,3.644-7.51,5.28-11.154c1.412-3.123-0.224-5.726-3.645-5.651c-1.019-0.027-2.037,0.023-3.049,0.148
	c-4.685,0.446-7.436,3.421-7.808,8.329c-0.298,3.792,2.008,6.619,6.32,7.808C281.247,393.356,282.14,393.431,283.329,393.654
	L283.329,393.654z M312.108,393.505c8.031-0.595,11.377-5.726,8.328-12.121c-1.096-2.376-3.35-4.01-5.948-4.313
	c-1.43-0.188-2.872-0.262-4.313-0.223c-2.825,0-4.685,2.603-3.495,5.205C308.39,385.846,310.248,389.638,312.108,393.505
	L312.108,393.505z"/>
<path fill="#333333" d="M403.871,349.036v3.198h-52.649v-3.198H403.871L403.871,349.036z"/>
<path fill="#333333" d="M191.64,362.793v-3.198h52.649c0.074,1.041,0.074,2.008,0.148,3.198H191.64z"/>
<path fill="#333333" d="M351.222,359.521h52.575c0.074,0.967,0.148,1.934,0.223,2.826c-2.38,0.744-49.525,0.893-52.798,0.149
	V359.521z"/>
<path fill="#333333" d="M191.491,349.036h52.798c0.074,1.116,0.074,2.083,0.148,3.272H191.64
	C191.64,351.193,191.566,350.226,191.491,349.036z"/>
</svg>
