<svg id="Layer_1" data-name="Layer 1" xmlns="http://www.w3.org/2000/svg" xmlns:xlink="http://www.w3.org/1999/xlink" viewBox="0 0 83.685 33.826"><defs><style>.cls-1{fill:none;}.cls-2{clip-path:url(#clip-path);}.cls-3{fill:#484748;}</style><clipPath id="clip-path" transform="translate(6617.821 -1452.049)"><rect class="cls-1" x="-6617.821" y="1452.049" width="83.684" height="33.826"/></clipPath></defs><title>ColdChillenLandingLogo</title><g class="cls-2"><path class="cls-3" d="M-6541.052,1470.855v0.937a0.6,0.6,0,0,0,0-.937h0Zm-6.63-1.524-0.108-.092a1.423,1.423,0,0,1,.15-0.4,5.478,5.478,0,0,0,1.078-2.19,11.736,11.736,0,0,0,.012-3.846c-0.083-.716-0.259-1.423-0.409-2.216a0.916,0.916,0,0,0-.183.177,8.333,8.333,0,0,0-.5,2.986,2.883,2.883,0,0,1-.11.839,4.554,4.554,0,0,0-.11.57,6.926,6.926,0,0,1-.261,2.394,0.887,0.887,0,0,0,.006.344c0.011,0.242.041,0.485,0.031,0.726-0.012.31-.056,0.618-0.094,1.012l0.494-.3h0Zm11.991,16.544a3.224,3.224,0,0,1-.878-2.568,0.233,0.233,0,0,1,.037-0.151c0.628-.784.114-1.6,0.087-2.4-0.03-.892-0.067-1.786-0.042-2.678a3.487,3.487,0,0,0-.117-1.638,2.9,2.9,0,0,1-.077-0.81c-0.034-.268-0.1-0.533-0.139-0.8a0.382,0.382,0,0,1,.009-0.26,1.369,1.369,0,0,0,.132-1.133,2.1,2.1,0,0,0-.27-0.531c0.442-.926.122-2.048,0.268-3.13a8.507,8.507,0,0,0,.028-1.361,4.7,4.7,0,0,0-.135-0.506,1.687,1.687,0,0,1,0-.518,4.8,4.8,0,0,1,.164-0.512,1.006,1.006,0,0,1,.006-0.192,1.973,1.973,0,0,0-.082-1.428,14.1,14.1,0,0,1-.138-1.613c-0.067-2.118-.117-4.237-0.177-6.356a0.706,0.706,0,0,0-.1-0.344c-0.04.253-.092,0.506-0.119,0.761-0.147,1.395-.274,2.792-0.437,4.185a9.416,9.416,0,0,1-.389,2.265c-0.265.695-.228,1.41-0.42,2.1a14.891,14.891,0,0,0-.206,2.126c-0.134,1.072-.356,2.137-0.453,3.211-0.149,1.643-.227,3.292-0.328,4.939-0.1,1.567.188,3.125,0.138,4.691-0.01.312-.011,0.624-0.012,0.936a1.187,1.187,0,0,1-1.529.972c-0.464-.167-0.963-0.255-1.434-0.409a0.315,0.315,0,0,1-.216-0.489,1.253,1.253,0,0,0,.038-0.717,13.914,13.914,0,0,1-.168-2.965c0-1.09-.08-2.182-0.161-3.271a22.3,22.3,0,0,0-.393-2.909c-0.173.839-.327,1.681-0.526,2.515-0.184.77-.4,1.534-0.636,2.292a8.3,8.3,0,0,1-.583,1.487,3.993,3.993,0,0,1-.9,1.162,2.238,2.238,0,0,1-1.011.249,2.454,2.454,0,0,1-1.718-.783,12.217,12.217,0,0,1-1.77-5.569c-0.014-.115.024-0.236,0-0.35-0.033-.191-0.093-0.378-0.142-0.566l-0.2.013q-0.457,2.724-.914,5.448a30.343,30.343,0,0,0-.919,5.447,0.182,0.182,0,0,1-.075.04,3.184,3.184,0,0,0-1.693.354,0.491,0.491,0,0,1-.574-0.19,3.546,3.546,0,0,1-.59-2.687c0.055-3.369.131-6.738,0.106-10.12-0.363,2.11-.76,4.216-1.08,6.332s-1.078,4.147-1.073,6.355a2.029,2.029,0,0,0-1.536.244c-0.6.171-.557,0.15-0.926-0.306a3.233,3.233,0,0,1-.461-2.33q0.164-7.3.378-14.594c0.1-3.2.246-6.392,0.373-9.588,0.027-.7.371-1.417-0.334-2.1l0.595,0.029-0.345-.66,0.261-.982c0.773,0.066,1.5.128,2.224,0.191a0.538,0.538,0,0,1,.608.674c-0.09.95-.229,1.9-0.262,2.849a13.72,13.72,0,0,0-.058,3,6.877,6.877,0,0,1-.059,1.547c-0.055,1.085-.1,2.17-0.167,3.255a26.166,26.166,0,0,1-.627,4.905,17,17,0,0,0-.185,2.992c-0.036.538-.164,1.072-0.185,1.609-0.033.815-.012,1.631-0.01,2.447,0,0.1.026,0.207,0.034,0.31q0.086,1.12.169,2.24l0.109,0.016a1.567,1.567,0,0,0,.1-0.257c0.428-2.068.861-4.136,1.275-6.206,0.345-1.726.68-3.454,0.991-5.185,0.127-.706.16-1.426,0.268-2.135,0.1-.649.245-1.292,0.364-1.939a3.22,3.22,0,0,0,.054-0.5c0.052-2.08.1-4.16,0.152-6.24a3.871,3.871,0,0,1,.083-0.657,1.078,1.078,0,0,0-.25-1.063,0.519,0.519,0,0,1-.056-0.215h0.477l-0.337-.652,0.259-.983c0.765,0.065,1.491.127,2.216,0.19,0.472,0.041.647,0.208,0.615,0.63-0.029.379-.109,0.754-0.142,1.133-0.045.524-.07,1.049-0.1,1.574-0.01.181,0.005,0.364-.017,0.544-0.031.253-.087,0.5-0.13,0.755a1.614,1.614,0,0,0-.043.342c0.015,0.286.064,0.571,0.068,0.856,0.01,0.685.026,1.371,0,2.055-0.07,1.62-.119,3.243-0.268,4.858-0.1,1.133-.369,2.254-0.545,3.383a11.412,11.412,0,0,0-.12,1.279,26.749,26.749,0,0,1-.108,2.8,15.179,15.179,0,0,0-.124,3.362c0.056,0.756.125,1.512,0.189,2.268l0.156,0.01c0.177-.77.375-1.537,0.529-2.311,0.516-2.6,1.029-5.2,1.512-7.8a12.183,12.183,0,0,0,.152-1.9,15.179,15.179,0,0,1,.4-3.052c0.384-1.654.644-3.331,0.958-5a6.374,6.374,0,0,1,.164-0.765,0.564,0.564,0,0,0-.178-0.779c0.258-.128.477-0.254,0.714-0.343a0.765,0.765,0,0,1,.328.03c0.649,0.095,1.3.189,1.947,0.289a0.635,0.635,0,0,1,.353.1,8.861,8.861,0,0,1,.733,1.119,9.691,9.691,0,0,1,.442,1.125,0.416,0.416,0,0,1,.055.263,0.982,0.982,0,0,0,.1.84,14.421,14.421,0,0,1,.52,2.98,4.183,4.183,0,0,1,.035.968c-0.037.944-.054,1.891-0.151,2.831a2.254,2.254,0,0,1-.993,1.745,5.953,5.953,0,0,0-.829.882,11.335,11.335,0,0,1-.857.82,0.73,0.73,0,0,1-.4.033c-0.243-.006-0.485-0.038-0.727-0.031a0.268,0.268,0,0,0-.2.15c-0.047.392-.056,0.787-0.1,1.179a7.729,7.729,0,0,0,.74,3.015c0.136,0.476.41,0.918,0.574,1.389s0.262,0.949.42,1.541a6.213,6.213,0,0,0,.558-0.914c0.383-1,.71-2.027,1.09-3.033a32.542,32.542,0,0,0,1.538-6.386,7.448,7.448,0,0,0-.064-1.56,2.808,2.808,0,0,1,.082-1.6,0.216,0.216,0,0,0,.012-0.149,11.253,11.253,0,0,1-.1-3.216c0.016-1.037-.006-2.076-0.042-3.113a1.462,1.462,0,0,0-.254-0.555c-0.123-.227-0.2-0.428.146-0.559,0.367-.138.718-0.316,1.09-0.439a1.415,1.415,0,0,1,1.8,1.014c0.04,1.009.009,2.021-.027,3.031-0.035.969-.132,1.936-0.174,2.9-0.047,1.078-.074,2.156-0.09,3.234-0.015,1.02,0,2.039,0,3.059l0.126,0.041a1.273,1.273,0,0,0,.144-0.37c0.022-.441.015-0.884,0.021-1.326a0.088,0.088,0,0,1,.028-0.07c0.712-.21.3-0.774,0.426-1.16a5.713,5.713,0,0,0,.153-1.186,0.362,0.362,0,0,0,.012-0.154,0.923,0.923,0,0,1,.31-1.253l-0.4-.091a0.146,0.146,0,0,1-.012-0.073,8.411,8.411,0,0,0,.265-0.977,41.3,41.3,0,0,0,.666-4.706c0.25-1.358.4-2.732,0.645-4.09a15.528,15.528,0,0,1,.579-2.071,1.156,1.156,0,0,1,.96-0.756,5.152,5.152,0,0,0,.862-0.247,0.519,0.519,0,0,1,.769.258,5.108,5.108,0,0,1,.408,1.383c0.126,1.721.2,3.445,0.27,5.169,0.057,1.374.09,2.75,0.123,4.125,0.008,0.35-.045.7-0.038,1.051,0.009,0.424.071,0.846,0.077,1.27,0.005,0.387-.051.774-0.051,1.161,0,0.7.042,1.409,0.024,2.112-0.014.567-.124,1.133-0.132,1.7-0.013.942,0.019,1.884,0.036,2.827,0.017,0.97.034,1.941,0.062,2.911,0.01,0.361.063,0.722,0.077,1.083,0.034,0.869.032,1.74,0.094,2.607,0.042,0.594.188,1.182,0.248,1.776,0.034,0.343-.037.694-0.016,1.039,0.049,0.81.126,1.619,0.191,2.428v0.312a0.8,0.8,0,0,1-.762.408,1.039,1.039,0,0,0-.362.138h-0.432Z" transform="translate(6617.821 -1452.049)"/><path class="cls-3" d="M-6606.143,1460.79a6.773,6.773,0,0,0,.072-0.91c-0.018-.347-0.137-0.657-0.57-0.563-0.564-.467-0.6-1.193-1.194-1.633-0.112.358-.211,0.649-0.292,0.943a1.057,1.057,0,0,0-.057.421,2.665,2.665,0,0,0,2.041,1.741h0Zm-2.234-.614a1.353,1.353,0,0,0-.074.2c-0.169,1.276-.348,2.551-0.5,3.829-0.166,1.382-.352,2.764-0.447,4.151-0.074,1.086.007,2.18-.038,3.268-0.033.8-.194,1.6-0.226,2.408a9.334,9.334,0,0,0,.131,1.7c0.079,0.537.222,1.066,0.345,1.6,0.051,0.222.123,0.441,0.185,0.661l0.12-.015c0.028-.069.057-0.138,0.083-0.208a26.932,26.932,0,0,0,1.092-5.2c0.406-2.528.715-5.07,1.059-7.606q0.22-1.621.408-3.246a0.438,0.438,0,0,0-.129-0.371c-0.647-.4-1.314-0.778-2.007-1.181h0Zm-3.348,14.017c-0.06.219-.117,0.439-0.18,0.658a20.192,20.192,0,0,1-.952,3.106c-0.363.76-.437,1.685-1.256,2.251a1.281,1.281,0,0,0-.2.338,0.513,0.513,0,0,1-.747.125,3.3,3.3,0,0,0-.821-0.129c-1.142-.173-1.349-0.328-1.587-1.348a13.291,13.291,0,0,1-.224-4.852,33.739,33.739,0,0,0,.13-6c-0.057-1.363-.018-2.73.02-4.094a6.237,6.237,0,0,1,.256-1.167,0.982,0.982,0,0,0,.025-0.154c0.06-.92.138-1.839,0.17-2.759,0.024-.677-0.023-1.356-0.016-2.034a1.513,1.513,0,0,1,.127-0.724,1,1,0,0,1,.584-0.492,4.55,4.55,0,0,1,1.27.079,5.61,5.61,0,0,1,1.281.307,2.408,2.408,0,0,1,.884.632,4.1,4.1,0,0,1,1.068,2.349,2.36,2.36,0,0,1-.154.675l-0.141-.006c-0.165-.344-0.319-0.692-0.5-1.029a1.271,1.271,0,0,0-.349-0.478,3.212,3.212,0,0,0-.691-0.269,4.962,4.962,0,0,0-.205.53c-0.194.731-.428,1.459-0.548,2.2-0.153.946-.206,1.9-0.311,2.857-0.1.928-.226,1.853-0.324,2.782q-0.2,1.854-.365,3.711c-0.058.63-.109,1.261-0.128,1.892a4.842,4.842,0,0,0,.135.721c0.119,0.915.2,1.834,0.348,2.746a2.669,2.669,0,0,0,.769,1.667,1.812,1.812,0,0,0,.171-0.272q0.3-.773.587-1.55c0.356-.962.755-1.913,1.05-2.89,0.317-1.052.549-2.126,0.789-3.2a3.354,3.354,0,0,0,.1-1.117,36.129,36.129,0,0,1,.215-7.323c0.074-.908.181-1.818,0.175-2.727a5.881,5.881,0,0,1,.1-1.775,0.71,0.71,0,0,1,.615-0.571,5.477,5.477,0,0,1,.762-0.122,1.815,1.815,0,0,1,1.775.8c0.306-.749,1.1-0.644,1.731-0.821a1.305,1.305,0,0,1,.573.084,1.2,1.2,0,0,0,.261.124c0.544-.088.572,0.291,0.687,0.594a2.338,2.338,0,0,0,.1.259,2.825,2.825,0,0,1,0,2.25,2.489,2.489,0,0,0-.008.657c0.595-.157,1.185-0.3,1.764-0.477a0.4,0.4,0,0,0,.164-0.31c0.053-.753.084-1.507,0.128-2.261,0.02-.337.048-0.674,0.082-1.01a1.415,1.415,0,0,0-.249-1.3,0.488,0.488,0,0,1-.048-0.208l0.48,0.045-0.342-.682,0.266-.973c0.761,0.066,1.473.13,2.185,0.189,0.517,0.043.69,0.223,0.646,0.683-0.092.952-.225,1.9-0.266,2.856a14.027,14.027,0,0,0-.051,3.081,6.7,6.7,0,0,1-.067,1.469c-0.056,1.085-.1,2.17-0.165,3.254a25.17,25.17,0,0,1-.632,4.906,15.578,15.578,0,0,0-.18,2.8c-0.042.6-.158,1.2-0.184,1.806-0.035.789-.02,1.58-0.015,2.37,0,0.286.028,0.572,0.055,0.856,0.055,0.585.117,1.17,0.176,1.755l0.119,0.01c0.16-.6.355-1.185,0.474-1.787,0.576-2.917,1.161-5.833,1.682-8.759a27.851,27.851,0,0,0,.374-3.566c0.1-2.144.14-4.291,0.176-6.437a7.323,7.323,0,0,0-.171-1.426,0.611,0.611,0,0,0-.3-0.33c-0.245-.139-0.3-0.314-0.051-0.415,0.678-.28,1.552-0.4,1.879.51a6.548,6.548,0,0,1,.374,3.25,12.788,12.788,0,0,0,.034,2.247,0.912,0.912,0,0,0,.12.228,33.322,33.322,0,0,0,.671-3.622,29.507,29.507,0,0,1,.664-3.844c0.116-.65.213-1.3,0.314-1.955a1.084,1.084,0,0,1,.8-0.888,4.835,4.835,0,0,1,1.181-.172,0.518,0.518,0,0,1,.343.264,12.786,12.786,0,0,1,1.433,4.1c0.273,1.76.641,3.508,0.909,5.269,0.164,1.072.19,2.16,0.329,3.236,0.237,1.842.519,3.679,0.77,5.519,0.049,0.36.038,0.726,0.058,1.09,0.027,0.486.091,0.973,0.081,1.458a33.7,33.7,0,0,1-.262,4.512,16.609,16.609,0,0,1-1.438,4.164,0.862,0.862,0,0,0-.1.256c-0.089,1.133-1.118,1.665-1.88,2.35a1.32,1.32,0,0,1-1.543.223,2.424,2.424,0,0,0-.718-0.093c-0.352-.044-0.442-0.236-0.283-0.524,1.01-1.821,2.1-3.613,2.982-5.483a11.724,11.724,0,0,0,.815-3.146,21.511,21.511,0,0,0,.393-3.957c-0.052-2.129-.258-4.257-0.482-6.379a46.5,46.5,0,0,0-1.818-8.892c-0.034-.109-0.071-0.218-0.107-0.326l-0.147-.015a8.634,8.634,0,0,0-.193,1.383,8.1,8.1,0,0,1-.257,2.461,3.015,3.015,0,0,0-.133,1.766,2.884,2.884,0,0,1-.116.983c-0.09.964-.164,1.93-0.252,2.895-0.057.628-.139,1.255-0.188,1.884-0.023.3,0.026,0.6,0.007,0.892-0.153,2.338-.341,4.674-0.465,7.013-0.069,1.317-.036,2.638-0.052,3.958,0,0.411-.036.823-0.024,1.234,0.016,0.571.093,1.142,0.084,1.712a6.356,6.356,0,0,1-.18,1.45,0.671,0.671,0,0,1-.549.315,11.77,11.77,0,0,1-2.017-.519,0.919,0.919,0,0,1-.528-1.189,2.966,2.966,0,0,0,.1-0.843c-0.057-1.149-.14-2.3-0.216-3.488l0.17-.035a0.514,0.514,0,0,0-.082-0.108,0.53,0.53,0,0,1-.2-0.692,1.925,1.925,0,0,0,0-.607q0-1.949,0-3.9v-0.658l-0.122-.012c-0.33,1.944-.673,3.885-0.985,5.831s-1,3.818-.986,5.859a2.144,2.144,0,0,0-1.612.28,0.6,0.6,0,0,1-.8-0.271,2.686,2.686,0,0,1-.508-1.576c0.153-5.4.278-10.8,0.426-16.193,0.048-1.752.14-3.5,0.218-5.384-0.443.193-.771,0.305-1.06,0.472a0.666,0.666,0,0,1-.752.139,0.591,0.591,0,0,0-.248,0c-0.053.4-.1,0.773-0.155,1.147-0.1.683-.218,1.365-0.319,2.049-0.015.1,0.036,0.205,0.028,0.307-0.02.263-.061,0.525-0.085,0.788a11.062,11.062,0,0,1-.1,1.158c-0.234,1.184-.12,2.39-0.3,3.573-0.307,2.028-.628,4.056-0.993,6.076-0.159.881-.451,1.742-0.662,2.616-0.077.316-.094,0.644-0.139,0.966a1.123,1.123,0,0,1-1.733.874,2.44,2.44,0,0,1-1.473-1.73,21.14,21.14,0,0,1-.774-4.227,4.27,4.27,0,0,0-.135-0.667h-0.1Z" transform="translate(6617.821 -1452.049)"/></g><path class="cls-3" d="M-6567.392,1484.826c0.705-.471,1.4-0.95,2.119-1.409a0.564,0.564,0,0,0,.3-0.578c-0.06-1.625-.078-3.251-0.116-4.876-0.008-.343-0.053-0.685-0.059-1.028q-0.02-1.031-.011-2.062a0.324,0.324,0,0,1,.138-0.263c0.36-.107.3-0.36,0.306-0.6,0.029-1,.072-2,0.094-3a3.111,3.111,0,0,0-.1-0.6,1.3,1.3,0,0,1-.049-0.228c0.012-1.251-.011-2.5.052-3.752a48.551,48.551,0,0,1,.427-6.418,8.272,8.272,0,0,0-.024-1.515c-0.006-1.114,0-2.229,0-3.353l-0.985-.176a7.533,7.533,0,0,0-.088,1.24,8.068,8.068,0,0,1-.189,2.226c-0.158.824-.206,1.665-0.315,2.5a2.849,2.849,0,0,1-.287,1.58,0.187,0.187,0,0,0-.034.15c0.326,1.04-.133,2.058-0.1,3.093,0.032,1.1-.011,2.2-0.037,3.306-0.012.522-.063,1.044-0.089,1.566-0.01.208,0,.416,0,0.624a10.306,10.306,0,0,1-.053,1.931,10.488,10.488,0,0,0,.01,3.131c0.008,0.09.01,0.182,0.01,0.273,0.007,1.714.02,3.428,0.016,5.143a3.518,3.518,0,0,1-.584,2.118,0.817,0.817,0,0,1-.5.275,1.8,1.8,0,0,1-1.008-.007,6.813,6.813,0,0,1-1.1-1.052l0.149-.054a1.291,1.291,0,0,0,.192-0.472c-0.06-1.351-.15-2.7-0.22-4.05a79.815,79.815,0,0,1,.095-9.594,12.915,12.915,0,0,0-.113-1.737c-0.635.2-1.233,0.376-1.817,0.586a0.418,0.418,0,0,0-.209.327c-0.016,1.753,0,3.507-.023,5.26-0.008.718-.083,1.434-0.118,2.152-0.018.363-.007,0.727-0.023,1.09-0.018.413-.079,0.825-0.074,1.237,0.007,0.568.087,1.136,0.086,1.7,0,0.986-.056,1.973-0.06,2.959,0,0.595.031,1.191,0.084,1.784,0.02,0.228.2,0.5-.094,0.629a1.8,1.8,0,0,1-1.005.182,8.794,8.794,0,0,1-1.458-.633c0.265-.285.538-0.559,0.023-0.83a0.509,0.509,0,0,1-.025-0.26c-0.023-.212-0.048-0.423-0.078-0.677a0.758,0.758,0,0,0,.356-0.794c0.032-1.039.112-2.078,0.155-3.117,0.05-1.221.092-2.442,0.113-3.663,0.019-1.127,0-2.255,0-3.382l-0.214-.022c-0.361,1.262-.716,2.525-1.087,3.785-0.257.875-.515,1.752-0.814,2.616a7.677,7.677,0,0,1-.664,1.458,6.543,6.543,0,0,1-.935,1.145,0.4,0.4,0,0,1-.619,0,1.821,1.821,0,0,0-.8-0.139c-1.147-.174-1.375-0.347-1.6-1.385a14.115,14.115,0,0,1-.234-4.621c0.108-.971.238-1.943,0.261-2.917,0.023-1.012-.089-2.027-0.11-3.041-0.026-1.261-.054-2.524-0.013-3.784a12.558,12.558,0,0,1,.306-1.75,2.139,2.139,0,0,0,.008-0.271c0.033-.7.085-1.4,0.1-2.1,0.008-.495-0.063-0.99-0.052-1.485,0.009-.415.089-0.828,0.131-1.242,0.114-1.13.566-1.151,1.547-1.044a10.706,10.706,0,0,1,1.937.491,1.217,1.217,0,0,1,.521.382,4.649,4.649,0,0,1,1.153,2.238,4.174,4.174,0,0,1-.049.921l-0.2.027c-0.167-.346-0.348-0.687-0.5-1.039a1.211,1.211,0,0,0-.8-0.714c-0.212-.067-0.363-0.051-0.4.2a33.185,33.185,0,0,0-.79,3.9,37.126,37.126,0,0,1-.324,3.717c-0.128,1.09-.362,2.17-0.471,3.261-0.079.787-.007,1.585-0.045,2.376a23.53,23.53,0,0,0,.447,4.267,2.044,2.044,0,0,0,.75,1.394,49.29,49.29,0,0,0,2.992-9.976,1.516,1.516,0,0,1-1.816-.329,0.919,0.919,0,0,1-.176-0.362c0.721-.115,1.368-0.222,2.017-0.32a0.43,0.43,0,0,0,.408-0.377,15.171,15.171,0,0,0,.466-3.082c0.011-.9.233-1.8,0.306-2.709s0.068-1.792.109-2.688c0.055-1.208.124-2.415,0.182-3.622a0.359,0.359,0,0,1,.4-0.367,1.335,1.335,0,0,1,1.668,1.376c-0.032.758-.118,1.514-0.2,2.269-0.1.888-.259,1.773-0.306,2.663-0.077,1.45-.086,2.9-0.119,4.354-0.009.413,0,.827,0,1.289,0.688-.194,1.363-0.366,2.019-0.583a0.534,0.534,0,0,0,.235-0.4c0.114-1.035.195-2.073,0.3-3.108,0.193-1.85.356-3.7,0.617-5.547a26.687,26.687,0,0,1,.675-2.654,5.325,5.325,0,0,0,.156-0.954,0.5,0.5,0,0,1,.38-0.575,0.733,0.733,0,0,1,.871.248c0.207,0.309.392,0.63,0.591,0.952,0.622-.292,1.192-0.6,1.8-0.832a7.917,7.917,0,0,1,1.443-.356,1.55,1.55,0,0,1,1.4.483l-1.378.858a1.275,1.275,0,0,1,.459,1.342c-0.106,1.308-.169,2.619-0.243,3.928-0.048.85-.06,1.7-0.136,2.549a28.95,28.95,0,0,0,.074,3.28c0.018,0.758.015,1.517,0.046,2.274,0.052,1.284.124,2.568,0.184,3.852a3.387,3.387,0,0,1,0,.542,5.635,5.635,0,0,0,.237,2.621,2.025,2.025,0,0,1,.034.618c0.017,0.545.036,1.09,0.046,1.636,0,0.219-.02.439-0.017,0.658,0.007,0.632.068,1.267,0.023,1.9-0.07.959,0.258,1.943-.205,2.881a0.917,0.917,0,0,0,.011.3,5.376,5.376,0,0,1-.132,1.388,1,1,0,0,1-1.231.584,1.346,1.346,0,0,0-.524.118,5.883,5.883,0,0,1-.668.242c-0.841.161-1.685,0.313-2.534,0.433a1.792,1.792,0,0,1-.607-0.142l0.023-.134h0Z" transform="translate(6617.821 -1452.049)"/></svg>