<svg id="Layer_1" data-name="Layer 1" xmlns="http://www.w3.org/2000/svg" xmlns:xlink="http://www.w3.org/1999/xlink" viewBox="0 0 79.406 28.837"><defs><style>.cls-1{fill:none;}.cls-2{clip-path:url(#clip-path);}.cls-3,.cls-5{fill:#484748;}.cls-3,.cls-4{fill-rule:evenodd;}.cls-4{fill:#231f20;}</style><clipPath id="clip-path" transform="translate(5910.764 -1454.514)"><rect class="cls-1" x="-5910.764" y="1454.514" width="79.406" height="28.837"/></clipPath></defs><title>CorazonLandingLogo</title><g class="cls-2"><path class="cls-3" d="M-5865.3,1460.839a10.451,10.451,0,0,1-1.807-.026v-0.077a2.532,2.532,0,0,0,.336-0.13,4.044,4.044,0,0,0,.129-1.445v-2.814a2.638,2.638,0,0,0-.1-1.136,1.635,1.635,0,0,0-.335-0.129v-0.052a5.1,5.1,0,0,1,.619-0.155,1.063,1.063,0,0,1,.413-0.155,0.509,0.509,0,0,1,.233-0.129c0.017-.083-0.014-0.044.051-0.078v0.052a1.024,1.024,0,0,1,.026.439v3.847a9.7,9.7,0,0,0,.025,1.368c-0.008.043-.017,0.086-0.025,0.129,0.013,0.057.061,0.132,0.077,0.207h0.052a0.449,0.449,0,0,0,.129.129,0.476,0.476,0,0,1,.181.026v0.129h0Z" transform="translate(5910.764 -1454.514)"/></g><path class="cls-3" d="M-5880.3,1456.631h-0.129a1.466,1.466,0,0,0-.129-0.284v-0.129c-0.154-.434-0.184-0.89-0.8-0.878a3.4,3.4,0,0,0-.129,1.5v3.433a0.665,0.665,0,0,1,.052.207c0.061,0.036.1,0.127,0.155,0.155,0.159,0.08.263-.074,0.284,0.181a0.132,0.132,0,0,0-.052.051,2.36,2.36,0,0,0-.619-0.026h-1.265v-0.129a1,1,0,0,0,.362-0.181,2.818,2.818,0,0,0,.129-1.394c0-1.227.022-2.654-.052-3.717a0.369,0.369,0,0,1-.155-0.078,0.918,0.918,0,0,0-.723.619v0.129l-0.052.025a0.77,0.77,0,0,1-.31.62,0.814,0.814,0,0,1-.052-0.284,1.283,1.283,0,0,0,.052-0.464c0.038-.141.079-0.507,0.1-0.645a0.9,0.9,0,0,1,.077-0.439,0.2,0.2,0,0,1,.129-0.026c0.087,0.309.386,0.258,0.775,0.258h1.962a1.432,1.432,0,0,1,.233-0.1,0.613,0.613,0,0,1,.232-0.258,0.639,0.639,0,0,1,.026.336,1.81,1.81,0,0,1-.052.542v0.852a0.2,0.2,0,0,0-.052.129h0Z" transform="translate(5910.764 -1454.514)"/><path class="cls-3" d="M-5868.5,1454.772a0.348,0.348,0,0,1,.207.051c0.523,0.149.467,1.321-.233,1.317a1.4,1.4,0,0,0-.232-0.129,0.41,0.41,0,0,1-.077-0.155h-0.052a1.289,1.289,0,0,1,0-.8,1.266,1.266,0,0,0,.232-0.233,0.522,0.522,0,0,0,.156-0.051h0Z" transform="translate(5910.764 -1454.514)"/><path class="cls-3" d="M-5869.329,1457.3c0.127-.025.033-0.037,0.1-0.078l0.078,0.026c0.008-.026.017-0.052,0.026-0.077l0.154-.026c0.089-.046.2-0.135,0.284-0.181,0.069-.036.115-0.013,0.181-0.052l0.077-.1h0.077a0.591,0.591,0,0,1,.31-0.232v0.052c0.033,0.069,0,.878,0,1.084v1.7a3.978,3.978,0,0,0,.026.672c-0.008.043-.017,0.086-0.026,0.129a0.791,0.791,0,0,1,.052.232c0.065,0.046.092,0.136,0.155,0.181a0.725,0.725,0,0,1,.257.129c0.009,0.017.018,0.034,0.026,0.052h-0.026a1.164,1.164,0,0,1-.465.026,7.819,7.819,0,0,1-1.342-.026v-0.077a0.693,0.693,0,0,0,.386-0.206,1.639,1.639,0,0,0,.078-0.878c0-.7-0.012-1.485-0.026-2.065-0.06-.036-0.1-0.129-0.155-0.155a0.729,0.729,0,0,1-.233-0.026v-0.1h0Z" transform="translate(5910.764 -1454.514)"/><path class="cls-3" d="M-5873.253,1456.683l0.826,0.026a2.4,2.4,0,0,1,.439,0,1.354,1.354,0,0,1,.077.8v2.53a3.185,3.185,0,0,1,.155.335,0.756,0.756,0,0,1,.207.078,0.665,0.665,0,0,0,.31-0.052,1.493,1.493,0,0,0,.258-0.413c0.008-.293.017-0.585,0.025-0.877a8.767,8.767,0,0,0-.025-1.652v-0.284a2.632,2.632,0,0,0-.156-0.284,0.8,0.8,0,0,1-.258-0.052,0.376,0.376,0,0,1-.026-0.129h0.052a0.884,0.884,0,0,1,.413,0c0.192-.016.475-0.029,0.826-0.026,0.009,0.026.017,0.051,0.026,0.077a1.967,1.967,0,0,1,.025.723v1.962a1.352,1.352,0,0,0,.129.878l0.233,0.077a0.143,0.143,0,0,1,0,.1,1.044,1.044,0,0,1-.336.155,3.97,3.97,0,0,1-.9.439v-0.052a2.9,2.9,0,0,1-.025-0.542,0.251,0.251,0,0,0-.13-0.052c-0.066.08-.067,0.007-0.128,0.052v0.052h-0.052v0.051a0.7,0.7,0,0,1-.129.077v0.052l-0.077-.026c-0.007,0-.071.123-0.077,0.129l-0.207.1a0.914,0.914,0,0,1-.878-0.362v-0.1h-0.052v-0.1l-0.052-.025v-0.1a2.379,2.379,0,0,1-.077-0.852,1.34,1.34,0,0,0,.026-0.387,2.4,2.4,0,0,1,0-.517,3.758,3.758,0,0,0-.026-0.542l0.026-.155c0-.206,0-0.366,0-0.568l-0.052-.077v-0.1a0.768,0.768,0,0,0-.413-0.232l0.026-.129h0Z" transform="translate(5910.764 -1454.514)"/><path class="cls-3" d="M-5878.675,1456.812c-0.052.07-.156,0.088-0.206,0.155a1.389,1.389,0,0,0-.232,1.161,0.673,0.673,0,0,0,.955-0.671v-0.284a1.037,1.037,0,0,0-.284-0.361h-0.232Zm1.291,2.891a1.361,1.361,0,0,1-.775,1.136l-0.233.052a1.18,1.18,0,0,1-.723,0,2.448,2.448,0,0,1-1.007-2.633l-0.026-.155a2.761,2.761,0,0,1,.129-0.258,1.868,1.868,0,0,1,.052-0.258,2.811,2.811,0,0,1,.516-0.723h0.077a0.365,0.365,0,0,1,.259-0.155l0.051-.077a1.279,1.279,0,0,1,.749,0,1.4,1.4,0,0,1,.955,1.678,0.379,0.379,0,0,1-.129.1,1.775,1.775,0,0,1-.465,0,3.928,3.928,0,0,0-1.213.077v0.026h-0.026c0.018,0.11-.012.341,0,0.438a2.712,2.712,0,0,0,.387,1.188,0.812,0.812,0,0,0,.955.155,1.207,1.207,0,0,0,.387-0.594h0.078Z" transform="translate(5910.764 -1454.514)"/><path class="cls-3" d="M-5875.292,1456.863a1.634,1.634,0,0,0-.232.207,4.02,4.02,0,0,0-.258,2.272v0.284a0.928,0.928,0,0,0,.594.826,0.38,0.38,0,0,0,.181,0,1.391,1.391,0,0,0,.181-0.258v-0.181a8.315,8.315,0,0,0,.052-1.807,3.987,3.987,0,0,0-.052-0.981,1.27,1.27,0,0,0-.258-0.362h-0.207Zm0.49,3.743h-0.258v0.052h-0.1a0.714,0.714,0,0,1-.078.129l-0.077-.026-0.078.129a1,1,0,0,1-.7,0,1.182,1.182,0,0,1-.155-0.181h-0.078a0.475,0.475,0,0,1-.025-0.1,1.371,1.371,0,0,1-.181-0.155,3.557,3.557,0,0,1-.258-2.117,3.382,3.382,0,0,1,.7-1.368l0.052,0.026a0.047,0.047,0,0,0,0-.078c0.042-.03.088-0.02,0.128-0.052v-0.051h0.1v-0.052h0.077l0.052-.077,0.077,0.026c0.023-.007.081-0.07,0.1-0.077a2.386,2.386,0,0,1,.542.052,1.888,1.888,0,0,0,.8.335,1.48,1.48,0,0,1,.155-0.129,0.507,0.507,0,0,1,.206-0.31,0.256,0.256,0,0,1,.052.129,4.493,4.493,0,0,0-.1,1.6v3.046a3.628,3.628,0,0,0,.052,1.265,2.467,2.467,0,0,0,.361.207,0.056,0.056,0,0,1,0,.077,1.245,1.245,0,0,1-.491.026h-1.264l-0.052-.078a0.8,0.8,0,0,0,.439-0.336,1.979,1.979,0,0,0,.026-0.594,12.453,12.453,0,0,0-.026-1.317h0Z" transform="translate(5910.764 -1454.514)"/><path class="cls-3" d="M-5863.34,1458.619c-0.066.086-.192,0.122-0.259,0.206-0.2.252-.592,1.164-0.129,1.394a0.593,0.593,0,0,0,.284.026,1.432,1.432,0,0,0,.258-0.439v-1.161h-0.052a0.146,0.146,0,0,0-.1-0.026h0Zm-0.155-2.04a1.238,1.238,0,0,1,1.161.31,2.336,2.336,0,0,1,.052.878v2.117c0.038,0.075.075,0.368,0.1,0.439a1.544,1.544,0,0,0,.258-0.052,0.551,0.551,0,0,1,.129-0.232c0.017-.02,0-0.007.027,0a0.393,0.393,0,0,1,.025.206,0.292,0.292,0,0,1,0,.1l-0.078.025c0.009,0.026.018,0.052,0.026,0.078a0.867,0.867,0,0,1-.748.491c-0.1.064-.109-0.05-0.154-0.078a0.483,0.483,0,0,0-.1,0,2.89,2.89,0,0,1-.232-0.335,0.373,0.373,0,0,0-.1-0.259,0.414,0.414,0,0,1-.129.026,1.442,1.442,0,0,1-.981.646,0.2,0.2,0,0,1-.155-0.026,0.96,0.96,0,0,1-.413-1.213,1.955,1.955,0,0,1,.929-0.9l0.1-.129h0.026c0.043,0.056.086-.08,0.129-0.1l0.052,0.025v-0.052c0.046-.04.108-0.039,0.155-0.078v-0.051c0.131-.1.216-0.062,0.233-0.284a0.793,0.793,0,0,0,.025-0.284,2.155,2.155,0,0,0-.129-1.058h-0.31c-0.064.126-.2,0.2-0.258,0.335v0.129a2.774,2.774,0,0,1-.257.7v0.077c-0.026.03-.149,0.074-0.181,0.1-0.008.026-.017,0.052-0.026,0.077l-0.077-.026c-0.009.026-.017,0.052-0.025,0.077a0.608,0.608,0,0,1-.284.1,0.494,0.494,0,0,1-.1-0.181,1.508,1.508,0,0,1,0-.465,2.485,2.485,0,0,1,.155-0.336l0.077-.025-0.026-.077,0.077-.026a1.7,1.7,0,0,1,.465-0.439c0.067-.038.112-0.014,0.18-0.052l0.052-.077a0.944,0.944,0,0,0,.336-0.1h0Z" transform="translate(5910.764 -1454.514)"/><path class="cls-3" d="M-5860.63,1470.778h-0.077a1.665,1.665,0,0,1-.232.284l-0.129.026a1.023,1.023,0,0,0-.1.155l-0.078.026a1.391,1.391,0,0,1-.18.207h-0.078a0.551,0.551,0,0,0-.051.1h-0.052a1.823,1.823,0,0,0-.129.181h-0.052c-0.021.021-.029,0.087-0.051,0.1h-0.1c-0.143.107-.238,0.314-0.387,0.413h-0.078v0.051c-0.068.061-.138,0.12-0.207,0.181a1.479,1.479,0,0,1-.1.181,1.754,1.754,0,0,1-.207.129,4.39,4.39,0,0,1-.594.516v0.052a1.44,1.44,0,0,0,.49.051,0.78,0.78,0,0,0,.181-0.181h0.155l0.129-.155a0.77,0.77,0,0,1,.181-0.1l0.361-.387,0.077,0.026c0.031-.029.022-0.1,0.052-0.129h0.052l0.258-.284,0.077,0.026V1472.2a4.705,4.705,0,0,1,.387-0.387h0.1c0.02-.015.033-0.084,0.052-0.1a2.507,2.507,0,0,1,.181-0.181h0.051a0.466,0.466,0,0,1,.052-0.1l0.078,0.026v-0.078a1.088,1.088,0,0,1,.128-0.051l0.026-.078c0.048-.046.106-0.115,0.155-0.155h0.051v-0.052l0.129-.026v-0.052c0.026-.024.106-0.056,0.13-0.078v-0.051h0.051v-0.052h0.052c0.024-.024.027-0.081,0.051-0.1,0.049-.045.127-0.036,0.181-0.077l0.026-.077h0.051a2.18,2.18,0,0,1,.31-0.336l0.052,0.026v-0.052h0.052c0.1-.112.207-0.224,0.309-0.336l0.1-.026c0.145-.109.246-0.3,0.387-0.413l0.052,0.026a5.653,5.653,0,0,1,.386-0.413l0.052,0.026v-0.051c0.044-.043.111-0.061,0.155-0.1l0.206-.232h0.077c0.022-.016.031-0.086,0.052-0.1h0.077a3.056,3.056,0,0,1,.284-0.335,1.017,1.017,0,0,0,.18-0.078,2.944,2.944,0,0,1,.259-0.31,1.747,1.747,0,0,0,.465-0.413,2.034,2.034,0,0,0,.206-0.1,1.455,1.455,0,0,1,.233-0.284l0.077,0.026a0.933,0.933,0,0,0,.052-0.1c0.1-.125.254-0.213,0.361-0.336h0.1v0.1c-0.1.065-.161,0.2-0.258,0.258a1.792,1.792,0,0,0-.335.258l-0.155.181-0.078-.026a2.074,2.074,0,0,1-.36.413l-0.078-.026v0.052c-0.116.106-.218,0.232-0.335,0.336a0.126,0.126,0,0,1-.13.026,2.281,2.281,0,0,1-.361.413l-0.077-.026v0.052c-0.09.083-.2,0.147-0.284,0.232-0.016.016-.065,0.118-0.077,0.13l-0.129.025v0.052a1.2,1.2,0,0,0-.181.128v0.052h-0.051v0.052h-0.052v0.051c-0.048.044-.133,0.035-0.181,0.078v0.052a1.558,1.558,0,0,1-.18.129l-0.129.155a1.7,1.7,0,0,0-.336.258l-0.154.18a1.074,1.074,0,0,0-.207.13,0.459,0.459,0,0,1-.284.232,5.844,5.844,0,0,1-.928.826c-0.149.093-.238,0.321-0.388,0.414a4.142,4.142,0,0,0-.723.62c-0.045.046-.164,0.195-0.231,0.129a3.008,3.008,0,0,1-.388.438,0.991,0.991,0,0,0-.155.052c-0.009.026-.017,0.052-0.025,0.077h-0.052v0.051a1.831,1.831,0,0,1-.206.156v0.052a0.333,0.333,0,0,0-.129.026v0.155a0.056,0.056,0,0,1,.026.025,2.689,2.689,0,0,1,.722.129c0.18,0.051.387,0.019,0.49,0.051a0.122,0.122,0,0,1,.129-0.051,2.479,2.479,0,0,1,.388.155,0.383,0.383,0,0,0,.155,0h0.309a2.451,2.451,0,0,0,1.214-.052,2.416,2.416,0,0,0,.309-0.052V1473.7h0.1c0.031-.015.1-0.087,0.129-0.1h0.078l0.1-.129,0.052,0.026a1.546,1.546,0,0,1,.155-0.181h0.077c0.212-.156.355-0.483,0.569-0.62,0.026,0.13.067,0.057,0.1,0.129v0.258c0.035,0.107.115,0.259,0.154,0.361s0.009,0.162.052,0.258a13.129,13.129,0,0,0,.723,1.368h-0.1a2.939,2.939,0,0,0-.646-0.1c-0.309-.086-0.687-0.108-0.955-0.181a0.453,0.453,0,0,0-.206.026l-0.569-.077c-0.289-.118-0.736-0.137-1.059-0.232h-0.232a2.416,2.416,0,0,0-.878-0.129,1.713,1.713,0,0,0-.569-0.052l-0.026-.078a0.127,0.127,0,0,0-.128,0c-0.254-.094-0.579-0.111-0.8-0.18h-0.258c-0.422-.1-1.049-0.146-1.445-0.258a0.882,0.882,0,0,1-.258,0,3.587,3.587,0,0,0-1.162-.232v-0.077c0.137-.084.22-0.265,0.335-0.337h0.078l0.207-.231h0.052a1.99,1.99,0,0,1,.155-0.207l0.077,0.026v-0.078l0.052,0.026a3.919,3.919,0,0,1,.31-0.309v-0.052l0.129-.026,0.051-.1,0.077-.026a2.451,2.451,0,0,1,.284-0.31h0.078v-0.052c0.1-.092.214-0.162,0.309-0.258,0.015-.015.075-0.126,0.078-0.129l0.077,0.026c0.152-.115.253-0.335,0.413-0.439h0.077c0.154-.114.253-0.336,0.413-0.439h0.077v-0.051h0.052l0.309-.336h0.052c0.075-.067.135-0.185,0.207-0.258,0.039-.04.121-0.061,0.155-0.1s0.02-.095.051-0.129a1.1,1.1,0,0,1,.181-0.1c0.1-.069.181-0.179,0.284-0.259,0.035-.051.068-0.1,0.1-0.155h0.155c0.086-.094.171-0.189,0.258-0.283l0.077,0.026c0.048-.03.151-0.214,0.207-0.258,0.02-.016.112-0.06,0.129-0.078a0.473,0.473,0,0,1,.052-0.1h0.077l0.1-.129h0.052V1468.3a2.047,2.047,0,0,1,.206-0.155v-0.052c0.043-.039.106-0.016,0.154-0.052a1.811,1.811,0,0,0,.1-0.155h0.052v-0.052c0.038-.045.135-0.087,0.18-0.128v-0.052a0.128,0.128,0,0,1,.129-0.026v-0.052a3.5,3.5,0,0,0,.593-0.542,0.128,0.128,0,0,1,0-.129,1.045,1.045,0,0,1-.438-0.1,1.2,1.2,0,0,1-.258,0l-0.052-.052h-0.233l-0.051-.052h-0.284a3.748,3.748,0,0,0-2.375.052,1.447,1.447,0,0,0-.129.155l-0.129.026v0.078a1.01,1.01,0,0,0-.1.052,4.715,4.715,0,0,0-.309.491h-0.026v-0.026a0.131,0.131,0,0,1-.077-0.1,0.827,0.827,0,0,0,.154-0.258,1.11,1.11,0,0,1,.232-0.181,1.42,1.42,0,0,1,.18-0.232l0.078,0.026v-0.052a1.148,1.148,0,0,1,.1-0.078h0.079V1466.6a2.189,2.189,0,0,1,.258-0.051,2.764,2.764,0,0,1,.361-0.129c0.095-.02.432,0.053,0.594,0.026a2.791,2.791,0,0,1,.774.1h0.206c0.1,0.028.316,0.072,0.413,0.1h0.232c0.074,0.023.289,0.064,0.414,0.1h0.18a1.907,1.907,0,0,0,.439.1,1.761,1.761,0,0,0,.361-0.31,0.331,0.331,0,0,1,0-.129,1.356,1.356,0,0,1-.464-0.1,1.13,1.13,0,0,1-.259,0c-0.188-.061-0.483-0.093-0.671-0.155h-0.31l-0.051-.051h-0.31l-0.052-.052h-0.309a2.72,2.72,0,0,0-3.047.929h-0.025a2.682,2.682,0,0,0-.155-0.336v-0.129c-0.015-.036-0.087-0.114-0.1-0.155v-0.1c-0.042-.093-0.141-0.213-0.18-0.31-0.082-.209-0.11-0.4-0.207-0.594-0.032-.067-0.126-0.156-0.154-0.232V1465a0.594,0.594,0,0,1-.1-0.155h0.077a3.92,3.92,0,0,0,.568.077c0.3,0.114.656,0.1,1.007,0.207l0.361,0.026c0.3,0.086.716,0.111,1.007,0.206,0.116,0.038.405,0,.594,0.051,1.009,0.266,2.128.3,3.123,0.543l0.517,0.052c0.367,0.1.765,0.133,1.059,0.206a1.436,1.436,0,0,1,.645.129,0.95,0.95,0,0,0-.413.361,1.185,1.185,0,0,1-.129.052c-0.06.069-.12,0.138-0.18,0.206a0.665,0.665,0,0,0-.129.078v0.052l-0.129.026v0.052l-0.155.1-0.026.077c-0.189.156-.371,0.294-0.542,0.465-0.045.045-.129,0.146-0.181,0.1a2.515,2.515,0,0,1-.36.388h-0.078c-0.14.106-.268,0.347-0.413,0.439l-0.052-.026-0.387.413a5.09,5.09,0,0,0-.723.62,1.115,1.115,0,0,1-.233.155l-0.258.283h-0.051a0.529,0.529,0,0,1-.052.1h-0.1c-0.009.034-.017,0.069-0.026,0.1l-0.1.025c-0.026.024-.025,0.08-0.051,0.1h-0.053v0.051a0.624,0.624,0,0,1-.1.052v0.052l-0.129.026v0.077h0Z" transform="translate(5910.764 -1454.514)"/><path class="cls-3" d="M-5845.914,1466.673a7.775,7.775,0,0,0,1.472,0v0.026h-0.026v0.026a3.3,3.3,0,0,0-.49.336c-0.043.025-.145,0.025-0.182,0.051v0.052h-0.051l-0.051.078-0.052-.026v0.052h-0.052l-0.051.077h-0.078v0.052h-0.077v0.051c-0.09.065-.224,0.088-0.309,0.155v0.052h-0.1v0.052c-0.03.024-.13,0.031-0.155,0.051v0.052a1.092,1.092,0,0,1-.18.1,2.9,2.9,0,0,1-.774,0v-0.025h0.026a2.848,2.848,0,0,1,.387-0.387c0.061-.065.1-0.139,0.155-0.207h0.052l-0.026-.051c0.16-.208.4-0.359,0.568-0.568h0Z" transform="translate(5910.764 -1454.514)"/><path class="cls-3" d="M-5844,1467.061c0.085,0.025.089,0.031,0.1,0.129-0.051.026-.05,0.066-0.1,0.026v0.052h-0.052c-0.017.026-.035,0.051-0.051,0.077l-0.078-.026v0.052l-0.077.026v0.051h-0.077l-0.078.1h-0.1a0.813,0.813,0,0,1-.052.1h-0.077c-0.03.018-.073,0.085-0.1,0.1h-0.078c-0.008.026-.017,0.052-0.026,0.077l-0.128.026-0.026.077-0.13.026c-0.066.042-.185,0.188-0.257,0.232-0.044.025-.144,0.025-0.181,0.051v0.052l-0.078.052h-0.077a0.729,0.729,0,0,1-.129.129h-0.929a0.348,0.348,0,0,1-.052-0.1h0.026v-0.026a4.978,4.978,0,0,0,.9.026l0.026-.077,0.077,0.026c0.005,0,.071-0.125.078-0.129l0.077,0.025c0.006-.006.069-0.123,0.078-0.129h0.1v-0.052a1.545,1.545,0,0,1,.155-0.052l0.078-.1h0.077l0.077-.1h0.078l0.1-.129,0.051,0.026c0.079-.052.183-0.187,0.259-0.232a2,2,0,0,0,.594-0.387h0Z" transform="translate(5910.764 -1454.514)"/><path class="cls-3" d="M-5873.175,1466.8c-0.27.472-.461,1.019-0.723,1.5a2.3,2.3,0,0,0-.181.465,1.335,1.335,0,0,0,.49.49,0.734,0.734,0,0,1,.078.129,4.584,4.584,0,0,1,.619.7,0.06,0.06,0,0,0,.026-0.025,6.514,6.514,0,0,0,.568-0.517,0.59,0.59,0,0,0,.258-0.207,0.107,0.107,0,0,0,.026-0.077,1.488,1.488,0,0,1-.232-0.516c-0.188-.4-0.4-0.849-0.594-1.239a3.292,3.292,0,0,0-.284-0.672,0.074,0.074,0,0,0-.051-0.025h0Zm4.44,2.22a2.828,2.828,0,0,0-.774,0c-0.056.018-.133,0.086-0.181,0.1-0.192.07-.419-0.01-0.439,0.232a0.665,0.665,0,0,1,.129.284,4.345,4.345,0,0,1,.335.749,0.058,0.058,0,0,0,.026-0.026,6,6,0,0,0,.051-0.7c-0.012-.063-0.059-0.136-0.077-0.206h0.077a1.028,1.028,0,0,0,.542-0.026,0.967,0.967,0,0,1,.361.052c0.147,0.045.478-.01,0.671,0.026v-0.052c-0.027-.039,0-0.1-0.026-0.155-0.005-.013-0.088-0.162-0.1-0.181h-0.052c-0.026-.035-0.028-0.137-0.051-0.181s-0.086-.073-0.1-0.1v-0.077l-0.077-.026c0.008-.018.017-0.035,0.025-0.052a2.374,2.374,0,0,1-.336-0.748h0.052c0.038,0.048.024,0.039,0.1,0.052a2.81,2.81,0,0,0,.206.594l0.078,0.052-0.026.051,0.078,0.052-0.026.077,0.077,0.026c0.031,0.044.023,0.083,0.052,0.13l0.052,0.025v0.1h0.051c0.038,0.047.017,0.1,0.052,0.155h0.052v0.1h0.051c0.037,0.045.016,0.105,0.052,0.155s0.1,0.075.129,0.129h-0.181a2.072,2.072,0,0,0-.645-0.052,3.48,3.48,0,0,0-.8-0.052,0.257,0.257,0,0,0-.051.129,1.012,1.012,0,0,1,.1.155v0.129h0.052v0.1l0.052,0.025v0.077c0.017,0.032.087,0.1,0.1,0.129l0.052,0.233c0.022,0.047.106,0.113,0.129,0.155l-0.025.052c0.052,0.095.138,0.211,0.18,0.31v0.1h0.052v0.1h0.052v0.1c0.015,0.031.088,0.1,0.1,0.13,0.017,0.077.035,0.155,0.052,0.232a2.16,2.16,0,0,1,.309.7l0.078,0.026v0.1a1.737,1.737,0,0,0,.516.387,2.191,2.191,0,0,1,.155.231h0.078l-0.026.052h0.1c0.023,0.016.025,0.086,0.052,0.1a1.1,1.1,0,0,1,.155.052v0.052l0.077,0.051h0.078c0.056,0.041.1,0.144,0.154,0.18l0.052-.025a2.879,2.879,0,0,1,.439.388h-0.1a3.2,3.2,0,0,0-.413,0h-1.549a0.371,0.371,0,0,0-.258-0.052,2.57,2.57,0,0,1-1.162,0h-0.31a5.882,5.882,0,0,1-.955-0.025v-0.051h0.077a0.8,0.8,0,0,0,.336.026h0.852c0.008-.026.017-0.052,0.026-0.078a0.3,0.3,0,0,1-.052-0.258,0.125,0.125,0,0,0,.1-0.129h-0.052a1.245,1.245,0,0,0-.49-0.026c-0.441,0-.915.013-1.317,0.026v-0.051a2.669,2.669,0,0,0,.852-0.543,0.264,0.264,0,0,0,.207-0.207,1.023,1.023,0,0,0-.232-0.568c-0.077-.14-0.087-0.289-0.155-0.439l-0.052-.026v-0.1c-0.044-.073-0.176-0.175-0.207-0.232l0.026-.077c-0.081-.188-0.229-0.438-0.284-0.594a0.512,0.512,0,0,0-.1.026c-0.106.065-.161,0.2-0.258,0.258-0.034.022-.127,0.029-0.155,0.052v0.052c-0.088.084-.2,0.146-0.284,0.232v0.052h-0.052v0.052a0.748,0.748,0,0,0-.284.31h-0.077a0.73,0.73,0,0,1-.181.284l-0.077.025c-0.021.025,0,.056-0.026,0.077-0.039-.016-0.046.035-0.077,0a0.07,0.07,0,0,1-.052-0.026,1.307,1.307,0,0,0,.31-0.335l0.258-.232a0.737,0.737,0,0,1,.181-0.258h0.1v-0.052l0.078-.026v-0.077h0.052c0.081-.083.15-0.177,0.232-0.258a0.482,0.482,0,0,0,.31-0.413,1.077,1.077,0,0,1-.181-0.207,1.524,1.524,0,0,0-.542.361c-0.015.015-.075,0.127-0.077,0.129h-0.1a1.059,1.059,0,0,0-.1.155h-0.052a5.444,5.444,0,0,0-.413.414,0.96,0.96,0,0,1-.439.439,1.453,1.453,0,0,0-.258-0.31v-0.078l-0.078-.026-0.026-.129-0.052-.077h-0.052v-0.078l-0.336-.31a0.814,0.814,0,0,0-.051-0.155c-0.02-.021-0.1-0.051-0.129-0.078s-0.179-.244-0.207-0.258h-0.206c-0.142.34-.341,0.671-0.465,0.955v0.129l-0.051.026v0.129l-0.052.026v0.232a1.8,1.8,0,0,0,0,1.006c0.007,0.016.067,0.058,0.077,0.078a1.912,1.912,0,0,0,.155.362h0.052v0.051a1.54,1.54,0,0,1,.206.181v0.078l0.129,0.1a3.232,3.232,0,0,1,.439.464h-1.472a4.347,4.347,0,0,1-.8,0h-2.142a0.428,0.428,0,0,0-.052-0.129,0.443,0.443,0,0,1,.155-0.026c0.18,0.087.659-.044,0.955,0.026a5.155,5.155,0,0,0,1.007.026l2.04-.026,0.025-.052a1.779,1.779,0,0,1-.465-0.491,3.773,3.773,0,0,1-.387-0.438,2.276,2.276,0,0,1,0-1.626c0.059-.154.17-0.343,0.233-0.491V1470.6a2.375,2.375,0,0,1,.129-0.207v-0.077a0.654,0.654,0,0,0,.155-0.335,1.074,1.074,0,0,0-.361-0.31v0.026a1.887,1.887,0,0,0-.284.62,3.012,3.012,0,0,0-.388,2.272,1.986,1.986,0,0,0,.388.465l0.1,0.025,0.206,0.232a0.44,0.44,0,0,1,.156.129h-0.465a3.457,3.457,0,0,0-.878-0.026l-1.73.026a3.507,3.507,0,0,0-.929.025v0.026a1.459,1.459,0,0,1,.465.154,0.06,0.06,0,0,1-.026.027,0.674,0.674,0,0,1-.387.077l-0.077.1h-0.1c-0.045.019-.111,0.084-0.155,0.1h-0.1v0.052c-0.074.042-.135,0.014-0.207,0.051-0.137.073-.3,0.19-0.438,0.258l-0.207.026c-0.03.013-.1,0.087-0.129,0.1h-0.077c-0.026.033-.052,0.068-0.078,0.1h-0.078c-0.072.04-.141,0.141-0.206,0.181h-0.078c-0.1.054-.192,0.178-0.284,0.233h-0.077a0.439,0.439,0,0,1-.258.155,1.758,1.758,0,0,1-.542.387l-0.026-.077a2.03,2.03,0,0,0,.284-0.233h0.077c0.031-.018.072-0.084,0.1-0.1h0.077v-0.052l0.078-.051h0.077l0.077-.129,0.077,0.025,0.1-.129h0.026c0.043,0.041.038-.019,0.077-0.052l0.052,0.026v-0.078a5.132,5.132,0,0,1,1.007-.543,3.037,3.037,0,0,0,.93-0.465,13.832,13.832,0,0,1-1.756-.877,2.357,2.357,0,0,0-.749-0.516,0.149,0.149,0,0,1-.052.077v-0.051a1.659,1.659,0,0,1-.232-0.284v-0.077c-0.041-.053-0.141-0.073-0.181-0.129-0.081-.117-0.124-0.225-0.206-0.336l-0.31-.284v-0.077c-0.055-.071-0.3-0.242-0.336-0.31a9.979,9.979,0,0,0-.594-0.826,3.484,3.484,0,0,0,.7-0.336,0.4,0.4,0,0,1,.284-0.155c0.024-.02.055-0.109,0.077-0.13s0.093-.021.129-0.051v-0.052h0.077c0.092-.071.147-0.2,0.232-0.284h0.052a1.566,1.566,0,0,0,.18-0.232h0.052c0.037-.043.015-0.107,0.052-0.155,0.008-.011.121-0.063,0.129-0.077-0.009-.025-0.017-0.051-0.026-0.077h0.051c0.044-.07.012-0.138,0.052-0.206l0.077-.026c-0.009-.034-0.018-0.069-0.026-0.1,0-.012.071-0.059,0.077-0.077a2.369,2.369,0,0,0,.052-0.852c-0.016-.061-0.079-0.426-0.1-0.465s-0.043.026-.077-0.078h0.026v-0.026h0.026v0.026a1.913,1.913,0,0,1,.233,1.239,3.276,3.276,0,0,1-1.265,1.652c-0.055.045-.15,0.031-0.206,0.078l-0.026.077h-0.1l-0.025.077-0.129.026c-0.009.026-.018,0.051-0.026,0.077a1.343,1.343,0,0,0-.284.129v0.155a0.793,0.793,0,0,1,.155.181v0.078c0.009,0.013.123,0.068,0.129,0.077l-0.026.078a1.007,1.007,0,0,0,.129.077,1.325,1.325,0,0,1,.052.155c0.048,0.066.162,0.112,0.206,0.181v0.078h0.052c0.192,0.222.388,0.414,0.594,0.619l0.439,0.465a1.328,1.328,0,0,1,.181.077v0.052a0.81,0.81,0,0,0,.129.077v0.052h0.078c0.049,0.031.084,0.12,0.129,0.155h0.077c0.049,0.03.084,0.122,0.129,0.155h0.1s0.076,0.128.077,0.129l0.078-.026v0.052l0.155,0.051a4.764,4.764,0,0,0,1.214.568,0.148,0.148,0,0,0,.078-0.078h0.232a1.179,1.179,0,0,0,.129-0.129h0.1l0.078-.1h0.077c0.031-.016.1-0.087,0.129-0.1h0.1a0.816,0.816,0,0,1,.052-0.1h0.1v-0.052l0.181-.129v-0.078a0.435,0.435,0,0,1,.129-0.052s0.093-.144.1-0.155h0.052l-0.026-.052c0.081-.092.209-0.162,0.284-0.258v-0.077c0.03-.048.122-0.083,0.155-0.129v-0.1c0.013-.019.088-0.033,0.1-0.051v-0.078c0.038-.066.139-0.12,0.18-0.181l-0.025-.051,0.129-.1c0.044-.074.033-0.137,0.078-0.206l0.077-.052c0.039-.066.016-0.112,0.051-0.181,0.054-.1.155-0.231,0.206-0.335v-0.1h0.052v-0.1l0.077-.026a0.036,0.036,0,0,0-.026-0.052,0.7,0.7,0,0,1,.129-0.233c-0.008-.018-0.017-0.035-0.026-0.051l0.078-.052v-0.1c0.015-.041.087-0.12,0.1-0.155v-0.129a0.533,0.533,0,0,0,.128-0.31,2.21,2.21,0,0,0-.955-0.387,1.037,1.037,0,0,1-.232-0.026,0.071,0.071,0,0,1-.026-0.051,3.771,3.771,0,0,0,.49-0.7,0.635,0.635,0,0,1,.18-0.336l0.052,0.1,0.129,0.025,0.155,0.181h0.078a0.811,0.811,0,0,0,.594.336,1.858,1.858,0,0,0,.1-0.362l-0.1-.051v-0.052l-0.078.025v-0.052c-0.063-.052-0.136-0.055-0.206-0.1l-0.1-.128c-0.045-.029-0.2-0.045-0.129-0.1a0.227,0.227,0,0,1-.206-0.155,0.137,0.137,0,0,0,.052-0.051c0.13,0.071.256,0.127,0.387,0.206l0.1,0.13c0.029,0.017.031-.041,0.078,0a0.36,0.36,0,0,0,.309.18,2.214,2.214,0,0,0,.336-0.7c0.19-.38.347-0.893,0.568-1.317a0.66,0.66,0,0,0-.052-0.1v-0.284a4.66,4.66,0,0,0-.129-0.594,1.1,1.1,0,0,0-.232-0.284h-0.026v0.026a0.189,0.189,0,0,1-.078-0.077h3.691v0.026a1.966,1.966,0,0,0-.8.878,2.572,2.572,0,0,1,.31.671l0.077,0.052a0.7,0.7,0,0,0,.155.361l-0.026.077,0.078,0.052v0.078c0.016,0.031.088,0.1,0.1,0.129v0.1c0.014,0.029.089,0.1,0.1,0.129v0.129h0.052v0.1h0.051v0.1c0.015,0.031.087,0.1,0.1,0.129v0.078l0.052,0.026v0.128l0.077,0.052c-0.008.018-.017,0.035-0.025,0.052l0.078,0.052c0.008,0.052.016,0.1,0.026,0.155,0.011,0.023.067,0.059,0.077,0.077a0.472,0.472,0,0,0,.078.207h0.1a0.657,0.657,0,0,0,.233-0.259,3.122,3.122,0,0,1-.129-0.464c-0.03-.061-0.1-0.095-0.129-0.155v-0.1h-0.052v-0.1c-0.019-.044-0.084-0.11-0.1-0.155v-0.1h-0.052v-0.1h-0.051v-0.1c-0.036-.074-0.123-0.18-0.155-0.258v-0.1a7.7,7.7,0,0,1-.491-1.007c0.064-.04.1-0.118,0.155-0.155h0.077c0.024-.018.03-0.082,0.052-0.1h0.052V1465.2h0.052v-0.051a2,2,0,0,0,.206-0.155,0.647,0.647,0,0,1,.336-0.284,0.144,0.144,0,0,0,.051.052v0.026h-0.025a2.115,2.115,0,0,0-.749.878,5.428,5.428,0,0,1,.31.594v0.1l0.077,0.052c-0.008.026-.017,0.052-0.025,0.077l0.078,0.026-0.026.077,0.077,0.052-0.025.052c0.009,0.025.115,0.151,0.129,0.181a2.243,2.243,0,0,0,.051.232h0.052v0.1l0.052,0.026c0.037,0.071.016,0.109,0.051,0.181l0.052,0.026c0.008,0.077.018,0.155,0.026,0.232,0.07,0.156.2,0.366,0.233,0.49a0.524,0.524,0,0,0,.18.026,0.337,0.337,0,0,1,.181-0.129l0.077-.1h0.1a0.447,0.447,0,0,0,.052-0.155,0.441,0.441,0,0,1,.206-0.052,3.024,3.024,0,0,1,.13.413c0.049,0.1.152,0.233,0.206,0.336v0.077c0.017,0.032.087,0.1,0.1,0.129v0.078a0.56,0.56,0,0,1,.129.232h0Z" transform="translate(5910.764 -1454.514)"/><path class="cls-4" d="M-5894.448,1467.938l0.129,0.052v0.026h-0.077a0.186,0.186,0,0,1-.052-0.078h0Z" transform="translate(5910.764 -1454.514)"/><path class="cls-3" d="M-5892.951,1476.484a0.242,0.242,0,0,0-.129.051v0.051h-0.1v0.052a1.377,1.377,0,0,1-.155.051l-0.077.1c-0.128.076-.258,0.081-0.387,0.155l-0.052.078-0.052-.026a5.6,5.6,0,0,1-1.317.49h-0.207a2.672,2.672,0,0,1-1.085.051,4.9,4.9,0,0,0,2.117-.465c0.091-.041.142-0.009,0.232-0.051,0.163-.076.342-0.2,0.49-0.285h0.078v-0.051h0.1v-0.051c0.085-.067.222-0.09,0.31-0.155,0.045-.034.08-0.124,0.129-0.155h0.077v-0.052c0.2-.166.362-0.336,0.542-0.517l0.155-.129v-0.077c0.059-.1.2-0.186,0.258-0.285a1.33,1.33,0,0,1,.052-0.155h0.052c0.027-.038.027-0.137,0.052-0.181l0.078-.052c0.065-.119.087-0.3,0.155-0.413a3.512,3.512,0,0,0,.31-1.962v-0.413c-0.061-.191-0.092-0.351-0.155-0.542v-0.181c-0.057-.144-0.153-0.343-0.207-0.49v-0.129c-0.022-.049-0.109-0.123-0.129-0.181l0.026-.051c-0.011-.029-0.113-0.128-0.129-0.155-0.043-.073-0.014-0.135-0.052-0.207s-0.122-.126-0.155-0.18-0.013-.116-0.051-0.181l-0.1-.077v-0.077l-0.18-.155,0.025-.077c-0.024-.042-0.2-0.129-0.233-0.181-0.008-.043-0.017-0.085-0.026-0.129a1.352,1.352,0,0,0-.18-0.1,1.433,1.433,0,0,0-.155-0.206h-0.077a2.541,2.541,0,0,0-.207-0.233c-0.171-.09-0.448-0.27-0.671-0.387a0.407,0.407,0,0,1-.284-0.181h0.026a0.978,0.978,0,0,0,.284.1c0.009,0.017.018,0.034,0.026,0.052h0.078c0.031,0.016.1,0.088,0.129,0.1h0.1l0.078,0.129h0.1v0.052h0.077l0.078,0.051v0.052h0.077v0.052h0.077c0.049,0.03.084,0.12,0.129,0.155h0.078c0.04,0.025.574,0.559,0.594,0.593l-0.026.078,0.078,0.026a1.272,1.272,0,0,1,.284.491,0.047,0.047,0,0,0,.078,0c0.2,0.392.369,0.8,0.542,1.213v0.155a1.911,1.911,0,0,1,.155.748,2.227,2.227,0,0,1,.052.981c0.008,0.068.017,0.137,0.026,0.206a5.723,5.723,0,0,1-.129.619v0.181c-0.04.12-.11,0.3-0.155,0.414v0.1a4.515,4.515,0,0,1-.439.723v0.1h-0.052c-0.049.06-.051,0.151-0.1,0.207-0.012.013-.113,0.061-0.129,0.077s-0.022.077-.052,0.1h-0.052a0.153,0.153,0,0,1-.026.13c-0.166.143-.329,0.29-0.49,0.438-0.034.032-.162,0.124-0.181,0.077v0.078h0Z" transform="translate(5910.764 -1454.514)"/><path class="cls-3" d="M-5849.244,1468.687a3.653,3.653,0,0,1-.569.1,3.126,3.126,0,0,0-1.162.8,7.929,7.929,0,0,0-.594.852c-0.237.43-.39,0.914-0.594,1.368-0.046.1-.011,0.17-0.052,0.284-0.108.309-.179,0.622-0.284,0.981v0.258a3.032,3.032,0,0,0,.181,1.782,3.217,3.217,0,0,0,1.755,1.369h0.181c0.093,0.029.307,0.079,0.413,0.1a1.365,1.365,0,0,0,.465-0.051h0.206a2.642,2.642,0,0,0,1.316-.9c0.086-.115.226-0.215,0.309-0.336a8.489,8.489,0,0,0,.749-1.523v-0.13c0.009-.024.068-0.078,0.077-0.1,0.135-.343.2-0.742,0.309-1.085v-0.181a3.787,3.787,0,0,0,.1-1.73,2.789,2.789,0,0,0-2.814-1.859h0Zm-0.749-.645a5.23,5.23,0,0,1,4.751,2.479,4.982,4.982,0,0,1,.335,1.161,4.878,4.878,0,0,1-.284,2.607v0.129l-0.051.027v0.1c-0.017.009-.034,0.018-0.052,0.026v0.1l-0.052.026c-0.05.1-.048,0.213-0.1,0.31a1.019,1.019,0,0,1-.077.1h-0.051c0.008,0.026.017,0.051,0.025,0.077l-0.077.052,0.025,0.051-0.128.1v0.077c-0.035.026-.07,0.051-0.1,0.078v0.077l-0.154.129v0.052h-0.052v0.078c-0.023.034-.379,0.39-0.413,0.412h-0.078c-0.075.057-.126,0.181-0.206,0.233h-0.077v0.051l-0.078.052h-0.076v0.051l-0.078.051c-0.07.04-.135,0.009-0.207,0.052v0.051h-0.1a3.975,3.975,0,0,1-.878.336h-0.31a3.623,3.623,0,0,1-1.961-.18,2.209,2.209,0,0,1-.93-0.361h-0.1c-0.008-.018-0.016-0.034-0.025-0.052h-0.077c-0.032-.016-0.1-0.085-0.129-0.1h-0.078c-0.035-.044-0.068-0.087-0.1-0.129a4.633,4.633,0,0,1-1.833-2.014,2.275,2.275,0,0,1-.051-0.259l-0.052-.026V1473.9a3.274,3.274,0,0,1-.181-1.575,9.622,9.622,0,0,1,.336-1.446,8.945,8.945,0,0,1,.748-1.342,0.6,0.6,0,0,1,.1-0.052,3.589,3.589,0,0,1,.232-0.284h0.052v-0.052a2.658,2.658,0,0,1,.258-0.206v-0.052c0.025-.019.122-0.029,0.155-0.052l0.077-.1h0.077v-0.052a1.606,1.606,0,0,1,.259-0.1c0.1-.055.23-0.153,0.335-0.207a5.28,5.28,0,0,1,.98-0.284,1.253,1.253,0,0,0,.465-0.052h0Z" transform="translate(5910.764 -1454.514)"/><path class="cls-3" d="M-5896.746,1469.074a1.712,1.712,0,0,1,.955.155h-0.026c-0.117.063-.892-0.085-1.162,0a2.615,2.615,0,0,0-1.368.749,2.414,2.414,0,0,0-.387,1.988v0.284c0.067,0.236.131,0.55,0.206,0.775v0.155a7.894,7.894,0,0,0,1.136,2.323,3.439,3.439,0,0,0,.852.7,1.471,1.471,0,0,1,.491.207h-0.026v0.026a3,3,0,0,1-2.246-2.091c-0.056-.131-0.15-0.308-0.207-0.439v-0.129a2.534,2.534,0,0,1-.129-0.258l0.026-.078c-0.024-.062-0.1-0.211-0.129-0.285V1473a4.307,4.307,0,0,1-.052-2.684,2.265,2.265,0,0,1,1.342-1.11h0.129c0.063-.022.217-0.084,0.284-0.1a1.415,1.415,0,0,0,.31-0.026h0Zm-0.465-.387a1.919,1.919,0,0,1-.49.1c-0.069.024-.172,0.1-0.232,0.129l-0.232.052a2.736,2.736,0,0,0-1.265,1.316v0.1c-0.06.158-.132,0.4-0.181,0.568v1.032a1.082,1.082,0,0,1,.077.336,5.241,5.241,0,0,0,.362,1.394c0.056,0.147.036,0.271,0.1,0.414a4.274,4.274,0,0,0,1.833,2.3,2.681,2.681,0,0,0,1.368.1h0.232a2.83,2.83,0,0,0,1.833-1.42,4.3,4.3,0,0,0,0-2.659c-0.059-.171-0.041-0.352-0.1-0.516-0.455-1.209-.892-2.663-2.143-3.149a3.386,3.386,0,0,0-1.162-.1h0Zm0.542-.645c2.45-.041,3.286,1.108,4.208,2.556a1.772,1.772,0,0,1,.051.206,8.929,8.929,0,0,1,.439,1.265v0.31a2.958,2.958,0,0,1-.052,1.394v0.18c-0.016.049-.084,0.188-0.1,0.233v0.129a4.554,4.554,0,0,1-2.865,2.53c-0.308.114-.671,0.187-0.955,0.285h-0.361a2.229,2.229,0,0,1-.826.051l-0.051-.051h-0.336l-0.051-.053h-0.207a4.663,4.663,0,0,1-1.084-.438h-0.1c-0.061-.033-0.2-0.2-0.258-0.233l-0.051.026a4.16,4.16,0,0,1-1.343-1.575,2.165,2.165,0,0,1-.31-0.8,3.1,3.1,0,0,1-.284-1.446,3.424,3.424,0,0,0-.026-0.516,5.006,5.006,0,0,1,.232-1.11,7.811,7.811,0,0,1,.749-1.213,5.153,5.153,0,0,1,.439-0.439h0.077v-0.051h0.052l0.129-.155h0.078c0.07-.046.178-0.185,0.258-0.232a10.071,10.071,0,0,1,1.446-.646h0.129c0.172-.053.449-0.114,0.568-0.155a1.444,1.444,0,0,0,.413-0.052h0Z" transform="translate(5910.764 -1454.514)"/><path class="cls-3" d="M-5849.038,1469.2a2.818,2.818,0,0,0,.62.052s0.263,0.121.284,0.129l0.078-.026a2.279,2.279,0,0,1,1.265,1.007h-0.026a1.755,1.755,0,0,0-.49-0.387,2.228,2.228,0,0,0-1.833-.543h-0.206l-0.052.052-0.232.052a3.831,3.831,0,0,0-1.472,1.807v0.1c-0.05.127-.15,0.289-0.206,0.413-0.044.1-.01,0.161-0.052,0.258a3.685,3.685,0,0,0-.309,1.11,0.467,0.467,0,0,1-.077.156v0.309c0,0.006-.05.122-0.052,0.129a1.98,1.98,0,0,0,.052.826v0.232a2.6,2.6,0,0,0,.515,1.033c-0.008.026-.017,0.051-0.026,0.077a0.959,0.959,0,0,1-.231-0.309,4.745,4.745,0,0,1-.31-0.465c-0.045-.089-0.01-0.156-0.052-0.258l-0.051-.026v-0.129l-0.052-.051v-0.181l-0.052-.051V1473.9a4.3,4.3,0,0,1,.259-1.342c0.051-.15.039-0.269,0.1-0.413l0.051-.026c0.046-.108.006-0.181,0.051-0.284,0.191-.425.372-0.864,0.595-1.265,0.017-.031.083-0.073,0.1-0.1,0.078-.116.125-0.224,0.207-0.336,0.043-.034.086-0.069,0.129-0.1a1.808,1.808,0,0,1,.335-0.388,2.223,2.223,0,0,1,.748-0.387,0.317,0.317,0,0,0,.129.026s0.252-.073.258-0.078h0Z" transform="translate(5910.764 -1454.514)"/><path class="cls-4" d="M-5844.959,1470.133c0.083,0.028.071,0.026,0.077,0.129h-0.026v-0.026a0.162,0.162,0,0,1-.051-0.1h0Z" transform="translate(5910.764 -1454.514)"/><path class="cls-4" d="M-5844.857,1470.287a0.108,0.108,0,0,1,.1.1h-0.051a0.15,0.15,0,0,1-.053-0.1h0Z" transform="translate(5910.764 -1454.514)"/><path class="cls-3" d="M-5844.8,1470.416a0.106,0.106,0,0,1,.077.026,2.047,2.047,0,0,1,.335.723c0.048,0.125.117,0.259,0.181,0.413v0.181l0.052,0.052v0.232l0.052,0.052v0.594a3.971,3.971,0,0,1-.155,1.317v0.155a8,8,0,0,1-.955,1.936,1.8,1.8,0,0,1-.206.207h-0.052l0.026,0.077h-0.026a4.35,4.35,0,0,1-.412.439l-0.078-.026v0.051h-0.051v0.052a0.755,0.755,0,0,1-.13.078v0.051l-0.128.025-0.026.078c-0.049.037-.1,0.015-0.155,0.051v0.052h-0.1v0.052l-0.077.052a5.853,5.853,0,0,1-1.188.438c-0.214.067-.438-0.007-0.671,0.052a1.175,1.175,0,0,1-.619,0l-0.078.026a2.432,2.432,0,0,1-.491-0.078h-0.232a10.3,10.3,0,0,1-1.11-.387l-0.233-.051a3.372,3.372,0,0,1-.7-0.465h0.026v-0.027a8.508,8.508,0,0,0,1.523.671,4.682,4.682,0,0,0,1.085.18,5.11,5.11,0,0,0,.644.027c0.313-.079.679-0.052,0.982-0.155a4.551,4.551,0,0,0,3.2-3.382c0.019-.077.1-0.225,0.129-0.309,0.059-.19.057-0.4,0.1-0.568v-0.361a1.039,1.039,0,0,0,.051-0.491c-0.1-.389-0.078-0.85-0.206-1.213a3.508,3.508,0,0,0-.232-0.568,1.674,1.674,0,0,1-.154-0.259h0Z" transform="translate(5910.764 -1454.514)"/><path class="cls-3" d="M-5885.8,1474.057v0.078l0.077-.027c0.021,0.013.158,0.109,0.18,0.129v0.052h0.1c0.313,0.175.576,0.44,0.878,0.568v0.025h-0.155a1.449,1.449,0,0,1-.362.052c-0.28.077-.522,0.087-0.775,0.156h-0.258c-0.256.079-.753,0.092-1.059,0.206h-0.336l-0.026.052h-0.232l-0.1.052h-0.31a1.935,1.935,0,0,1-.645.1v-0.026h-0.026V1475.4a2.1,2.1,0,0,0,.671-0.1,1.853,1.853,0,0,1,.31,0c0.009-.016.017-0.034,0.026-0.051h0.284c0.045-.015.193-0.065,0.258-0.078a0.194,0.194,0,0,0,.1.026l0.052-.051h0.258c0.289-.083.638-0.072,0.955-0.155a4.816,4.816,0,0,1,.955-0.156V1474.7a0.507,0.507,0,0,1-.232-0.155h-0.1l-0.078-.129-0.077.027c-0.066-.036-0.142-0.143-0.206-0.181h-0.078c-0.027-.017-0.029-0.088-0.051-0.1s-0.163-.025-0.207-0.052c-0.1-.061-0.193-0.172-0.31-0.231a4.787,4.787,0,0,0-.155-0.955q-0.026-.271-0.052-0.542c-0.117-.442-0.124-0.8-0.206-1.214a6.724,6.724,0,0,0,1.523-.49v0.077c-0.248.087-.5,0.213-0.748,0.31-0.072.029-.284,0.078-0.284,0.078a2.123,2.123,0,0,0-.31.1c0,0.087,0,.173,0,0.259a2.285,2.285,0,0,1,.1.671c0.1,0.381.1,0.8,0.232,1.214a1.809,1.809,0,0,0,.078.49,0.817,0.817,0,0,0,.336.18h0Zm-0.594-8.106a2.1,2.1,0,0,1-.542.1,4.557,4.557,0,0,0-.723.284c-0.164.085-.327,0.065-0.336,0.31a4.023,4.023,0,0,1,.181.826v0.233c0.158,0.551.156,1.232,0.31,1.781v0.284c0.029,0.1.061,0.334,0.1,0.439l0.077,0.026c0.091-.073.271-0.056,0.361-0.129a0.071,0.071,0,0,0,.026-0.051,2.227,2.227,0,0,0-.1-0.646,1.944,1.944,0,0,0-.1-0.645c-0.056-.2.006-0.395-0.052-0.594a5.563,5.563,0,0,1-.206-1.446h0.026V1466.7a2.319,2.319,0,0,0,.413-0.129h0.155c0.075-.022.264-0.081,0.336-0.1h0.258a2.3,2.3,0,0,1,2.117.438h-0.077a0.872,0.872,0,0,0-.387-0.155c-0.048-.017-0.159-0.087-0.207-0.1h-0.155l-0.026-.052h-0.207a2.987,2.987,0,0,0-1.394.052h-0.206a3.922,3.922,0,0,0-.465.181v0.155a3.837,3.837,0,0,1,.155.775v0.232c0.172,0.646.2,1.4,0.336,2.066a0.072,0.072,0,0,1,.052.025,4.553,4.553,0,0,0,.723-0.284h0.1c0.047-.018.134-0.085,0.181-0.1h0.1a3.722,3.722,0,0,0,1.653-1.213,3.094,3.094,0,0,0,.232-0.619,1.077,1.077,0,0,0-.078-0.775,1.912,1.912,0,0,0-.1-0.284,2.239,2.239,0,0,0-1.058-.749h-0.155l-0.052-.052h-0.206l-0.052-.052h-1.007Zm4.57,8.648a2.138,2.138,0,0,0-.7.491c-0.075-.033-0.075.016-0.077-0.129a0.1,0.1,0,0,1-.077-0.026,0.109,0.109,0,0,0,.026-0.077,0.1,0.1,0,0,1-.078-0.027,0.148,0.148,0,0,0,.026-0.1h-0.077a0.747,0.747,0,0,0-.1-0.232c-0.111-.27-0.186-0.512-0.31-0.749-0.051-.1-0.055-0.239-0.1-0.335l-0.077-.052,0.026-.052a0.485,0.485,0,0,1-.155-0.336c-0.278-.418-0.486-0.913-0.774-1.316v-0.078c-0.049-.084-0.158-0.175-0.207-0.258a1.6,1.6,0,0,0-.516-0.7,0.48,0.48,0,0,1-.181.1v-0.077c0.117-.042.157-0.037,0.155-0.207a1.8,1.8,0,0,0-.232-0.259,1.452,1.452,0,0,0-.491.1c-0.313.114-.685,0.224-1.007,0.336a2.426,2.426,0,0,0-.542.129,0.072,0.072,0,0,0-.026.052,5.689,5.689,0,0,0,.1.852c0.148,0.566.158,1.278,0.31,1.756v0.309c0.012,0.037.058,0.132,0.077,0.181,0.158,0.08.244,0.163,0.361,0.233a0.243,0.243,0,0,0,.207.077l0.026,0.077h0.078a0.355,0.355,0,0,1,.077.1c0.081,0.059.125-.013,0.181,0.1h-0.051a7.052,7.052,0,0,1-.8.155h-0.258l-0.052.051h-0.31l-0.052.052h-0.232c-0.155.036-.571,0.091-0.8,0.154h-0.206a2.821,2.821,0,0,1-.62.1v-0.051a3.333,3.333,0,0,0,.568-0.568h0.052v-0.051h0.052v-0.052h0.052c0.028-.028.026-0.072,0.052-0.1h0.052v-0.309a1.81,1.81,0,0,1-.077-0.465c-0.06-.189-0.081-0.514-0.155-0.749v-0.31a2.063,2.063,0,0,1-.1-0.568,7.375,7.375,0,0,0-1.033.335l-0.026-.052c0.216-.106.474-0.223,0.7-0.31a2.059,2.059,0,0,0,.31-0.077v-0.258c-0.011-.021-0.027-0.117-0.052-0.181l-0.078-.026a1.02,1.02,0,0,1-.413.1c-0.257.089-.545,0.234-0.8,0.31v-0.052c0.1-.11.114-0.7,0.207-0.748h0.336a2.819,2.819,0,0,1,.645-0.129v-0.206a2.356,2.356,0,0,1-.1-0.671c-0.113-.424-0.111-0.824-0.232-1.239v-0.258l-0.051-.052v-0.31l-0.052-.052v-0.31l-0.052-.026a1.123,1.123,0,0,0-.052-0.31,8.224,8.224,0,0,0-.826-0.232,0.558,0.558,0,0,0,.284-0.18l0.077,0.026,0.078-.13h0.077c0.032-.019.1-0.085,0.129-0.1h0.077l0.052-.077a4.518,4.518,0,0,1,.439-0.181c0.031-.015.1-0.088,0.129-0.1a15.215,15.215,0,0,1,1.988-.671h0.232l0.052-.051h0.258l0.026-.052h0.336l0.026-.052a1.657,1.657,0,0,1,.335-0.026,1.021,1.021,0,0,0,.284.026,1.4,1.4,0,0,1,.723,0,0.636,0.636,0,0,0,.258-0.026,1.32,1.32,0,0,1,.387.078h0.258c0.166,0.053.366,0.1,0.542,0.155,0.7,0.233,1.8,1.013,1.291,2.195v0.129a1.677,1.677,0,0,1-.155.181c-0.036.051-.014,0.11-0.052,0.155h-0.051c-0.025.029-.032,0.129-0.052,0.155-0.033.043-.119,0.061-0.155,0.1a2.681,2.681,0,0,1-.31.31v0.052h-0.1c-0.045.031-.082,0.124-0.129,0.155h-0.077l-0.026.077-0.129.026-0.026.078a2.513,2.513,0,0,1-.258.1,1.434,1.434,0,0,1-.1.1c-0.1.05-.2,0.055-0.31,0.1l-0.026.052h-0.1c-0.029.014-.1,0.09-0.129,0.1a0.9,0.9,0,0,0-.129.026c0.03,0.044,0,.117.026,0.181a1.97,1.97,0,0,0,.155.181v0.077c0.033,0.045.125,0.08,0.155,0.129a7.742,7.742,0,0,0,1.136,1.342c0.115,0.114.26,0.238,0.362,0.361,0,0,.051.1,0.051,0.1l0.077-.026a2.361,2.361,0,0,0,.31.336,1.282,1.282,0,0,1,.207.026c0.024,0.021.024,0.082,0.052,0.1a9.821,9.821,0,0,0,1.291.878,1.445,1.445,0,0,0,.387.207,0.066,0.066,0,0,1-.026.026,2.205,2.205,0,0,1-.336.155,3.812,3.812,0,0,1-.646.387l-0.233.027-0.077.1a0.335,0.335,0,0,1-.155.051h-0.026l-0.1.129-0.077-.025v0.077h0Z" transform="translate(5910.764 -1454.514)"/><path class="cls-3" d="M-5904.336,1470.933a1.8,1.8,0,0,1-.077.439c0.009,0.086.017,0.172,0.025,0.258l-0.052.052a2.371,2.371,0,0,0-.025.31c0.008,0.1.017,0.207,0.025,0.31-0.045.157-.057,0.585-0.077,0.7-0.044.239,0.057,0.607,0,.7a0.068,0.068,0,0,1-.026.051,0.075,0.075,0,0,0-.052-0.025,1.231,1.231,0,0,0-.387-0.413,3.143,3.143,0,0,0-.516-0.439c-0.067-.039-0.111-0.017-0.181-0.051l-0.026-.052h-0.129a2.63,2.63,0,0,0-1.91.052,2.092,2.092,0,0,0-.232.051v0.052c-0.061.041-.145,0.006-0.206,0.051a0.707,0.707,0,0,1-.077.129l-0.078-.026v0.051c-0.016.014-.113,0.061-0.129,0.078v0.051h-0.052c-0.026.026-.026,0.077-0.052,0.1-0.042.043-.112,0.061-0.155,0.1s-0.059.115-.1,0.155l-0.1.052,0.025,0.077-0.129.1c-0.02.032,0.021,0.012,0.026,0.026,0.023,0.079-.105,0-0.052.129a1.557,1.557,0,0,0-.129.155,2.1,2.1,0,0,0-.051.258,3.961,3.961,0,0,0,.439,2.866c0.038,0.072.008,0.133,0.052,0.207h0.052v0.1h0.052v0.1h0.052v0.1h0.052v0.1l0.077,0.026c0.055,0.078.053,0.176,0.1,0.258,0.068,0.109.193,0.228,0.258,0.335v0.078c0.035,0.025.069,0.051,0.1,0.078v0.076l0.18,0.156-0.025.051,0.284,0.258v0.078c0.026,0.042.142,0.044,0.077,0.1,0.33,0.193.573,0.5,0.826,0.645a6.233,6.233,0,0,0,.723.31h0.18a1.885,1.885,0,0,0,1.136,0h0.155c0.065-.02.2-0.079,0.258-0.1h0.1a3.533,3.533,0,0,0,1.652-1.368,1.434,1.434,0,0,0,.052-0.233l0.051-.026V1478.5l0.052-.026a4.766,4.766,0,0,0,.052-1.188c-0.042-.147-0.105-0.358-0.155-0.49v-0.129a0.607,0.607,0,0,1-.1-0.362,0.356,0.356,0,0,0,.155-0.156,0.611,0.611,0,0,1,.31.078,2.7,2.7,0,0,1,.387,1.807v0.31l-0.052.026c-0.049.118,0,.2-0.052,0.31l-0.052.025v0.078c-0.016.03-.087,0.1-0.1,0.129v0.1l-0.077.026c-0.073.1-.089,0.2-0.155,0.31-0.042.066-.164,0.11-0.207,0.18a0.954,0.954,0,0,1-.258.335h-0.078l-0.129.155h-0.052c-0.009.025-.017,0.051-0.026,0.078l-0.129.025a0.9,0.9,0,0,1-.052.1h-0.1l-0.077.128c-0.026.02-.124,0.028-0.155,0.052v0.052c-0.065.044-.145,0.008-0.207,0.051a5.817,5.817,0,0,1-1.085.542c-0.1.044-.229,0.01-0.335,0.051a2,2,0,0,1-.929.156,0.181,0.181,0,0,0-.077.051,2.471,2.471,0,0,1-.852-0.051h-0.181l-0.026-.052a0.845,0.845,0,0,1-.206,0c-0.046-.016-0.166-0.086-0.206-0.1h-0.129c-0.035-.015-0.115-0.086-0.155-0.1h-0.1a4.6,4.6,0,0,1-1.807-1.575l-0.155-.128v-0.078c-0.038-.064-0.147-0.141-0.181-0.206l0.026-.078a3.052,3.052,0,0,1-.491-0.981v-0.129a1.646,1.646,0,0,1-.155-0.646h-0.1v-1.29a0.109,0.109,0,0,0,.078-0.026,0.224,0.224,0,0,0,0-.1l0.052-.051V1475.5a0.633,0.633,0,0,0,.078-0.1,0.816,0.816,0,0,1,.026-0.258,7.417,7.417,0,0,1,.62-1.265c0.042-.07.157-0.116,0.206-0.181a5.313,5.313,0,0,1,2.659-1.73h0.155c0.38-.129.9-0.185,1.291-0.31a2.894,2.894,0,0,0,.31-0.052l0.052-.078,0.155-.026,0.052-.077,0.051,0.026c0.067-.043.142-0.14,0.207-0.181a1.976,1.976,0,0,0,.207-0.1c0.109-.094.029-0.211,0.232-0.232h0Z" transform="translate(5910.764 -1454.514)"/><path class="cls-3" d="M-5903.768,1470.933h0.129a2.56,2.56,0,0,1-.1.7v0.387l-0.052.052a3.392,3.392,0,0,0,0,.542l-0.052.052c-0.009.378-.018,0.758-0.026,1.136a0.222,0.222,0,0,0-.155,0v-0.309a7.427,7.427,0,0,0,.077-0.981c0.038-.149.008-0.348,0.052-0.517a5.839,5.839,0,0,0,.129-1.058h0Z" transform="translate(5910.764 -1454.514)"/><path class="cls-3" d="M-5836.7,1473.541a3.683,3.683,0,0,0-1.163.025,0.193,0.193,0,0,0-.025.129,1.313,1.313,0,0,1,.025.439,0.325,0.325,0,0,0,.052.1c0.023,0.093-.047.361-0.026,0.465,0.085,0.42.013,1.043,0.129,1.445v0.879l0.051,0.051v0.879l0.052,0.051v0.9a0.346,0.346,0,0,1,.052.154,1.85,1.85,0,0,0,.026.49,0.139,0.139,0,0,0,.154.052,2.15,2.15,0,0,1,.362-0.671,3.586,3.586,0,0,1,.155-0.361l0.077-.052a0.186,0.186,0,0,0,.026-0.129v-0.025l0.077-.052c0.037-.066.012-0.115,0.051-0.181l0.1-.078v-0.1h0.052v-0.078c0.017-.032.086-0.1,0.1-0.129v-0.078c0.032-.059.118-0.128,0.154-0.18l0.026-.13h0.052c-0.009-.025-0.017-0.05-0.026-0.077l0.078-.052c0.042-.066.034-0.141,0.077-0.207l0.077-.051c0.075-.13.081-0.258,0.155-0.388a4.706,4.706,0,0,0,.594-1.187,2.246,2.246,0,0,0-.309-1.291,0.285,0.285,0,0,1-.129-0.206h0.051a1.409,1.409,0,0,0,.387.206l0.026,0.078,0.129,0.026c0.056,0.029.108,0.1,0.155,0.13h0.077c0.032,0.016.1,0.085,0.13,0.1h0.077a3.146,3.146,0,0,1,.31.231l0.078-.026v0.051c0.116,0.075.249,0.077,0.361,0.156,0.009,0.025.018,0.051,0.025,0.077h0.1c0.053,0.027.127,0.1,0.181,0.129l0.129,0.026,0.078,0.051v0.051c0.037,0.027.134,0.027,0.18,0.052a1.371,1.371,0,0,0,.388.207v0.051h-0.9a3.138,3.138,0,0,1-.464.155l-0.1.129c-0.017-.009-0.035-0.016-0.052-0.026s-0.467.46-.49,0.49v0.078c-0.1.161-.259,0.327-0.361,0.49a2.562,2.562,0,0,1-.1.258,1.082,1.082,0,0,0-.129.129,2.434,2.434,0,0,1-.155.388h-0.052v0.077c-0.058.1-.145,0.233-0.206,0.336l-0.052.155a1.416,1.416,0,0,0-.129.129c-0.057.106-.066,0.236-0.128,0.335-0.4.641-.689,1.287-1.111,1.936-0.042.066-.035,0.141-0.078,0.207-0.069.107-.17,0.245-0.232,0.361v0.078c-0.031.057-.125,0.122-0.155,0.181a1.229,1.229,0,0,1-.051.205h-0.051c-0.057.075-.052,0.179-0.1,0.258-0.029.045-.1,0.107-0.129,0.156a0.617,0.617,0,0,1-.361.49,2.657,2.657,0,0,0-.646-0.362c-0.044-.029-0.106-0.1-0.154-0.128a1.165,1.165,0,0,1-.336-0.156V1481.1a1.289,1.289,0,0,1-.052-0.594c0-.227-0.049-0.341-0.051-0.541v-0.619c-0.115-.453-0.033-1.022-0.1-1.524-0.027-.19-0.035-0.55-0.077-0.852a1.734,1.734,0,0,0,.026-0.362c-0.037-.127-0.055-0.388-0.077-0.542a0.493,0.493,0,0,0,.025-0.155,7.642,7.642,0,0,1-.1-1.446h-0.025c-0.032.025-.088,0-0.13,0.026a0.252,0.252,0,0,0-.025.1l-0.1.077v0.1h-0.051v0.1h-0.052c-0.04.061-.014,0.117-0.052,0.181-0.021.038-.111,0.086-0.129,0.129,0.008,0.018.018,0.035,0.026,0.052l-0.077.026c-0.029.04-.023,0.162-0.052,0.207h-0.052v0.1c-0.029.059-.123,0.126-0.154,0.18v0.078c-0.017.032-.085,0.1-0.1,0.129v0.078c-0.018.03-.087,0.073-0.1,0.1v0.078l-0.078.025c-0.008.061-.017,0.12-0.026,0.181-0.023.036-.106,0.088-0.128,0.129-0.027.078-.052,0.155-0.078,0.233l-0.077.026c-0.026.036-.027,0.161-0.052,0.207-0.043.078-.2,0.239-0.233,0.31,0.008,0.017.017,0.034,0.026,0.051-0.027.047-.1,0.112-0.13,0.155a1.144,1.144,0,0,1-.051.155h-0.052v0.1c-0.03.058-.121,0.122-0.155,0.18v0.077h-0.051c-0.043.071-.009,0.14-0.052,0.207h-0.051v0.128l-0.052.027v0.1c-0.025.018-.052,0.036-0.077,0.052a1.837,1.837,0,0,1-.1.439,0.686,0.686,0,0,0,.025.284c0.023,0.115-.05.173-0.025,0.283,0.01,0.042.069,0.144,0.077,0.181l-0.026.051a1.194,1.194,0,0,1,.181.517h-0.026v0.025a1.18,1.18,0,0,1-.181-0.128,0.247,0.247,0,0,1-.154-0.027l-0.052-.077c-0.066-.037-0.115-0.013-0.181-0.052-0.027-.034-0.052-0.068-0.078-0.1-0.147-.088-0.328-0.111-0.465-0.207-0.009-.026-0.017-0.052-0.025-0.078l-0.078.026-0.026-.077-0.076.026c-0.009-.026-0.018-0.052-0.026-0.078l-0.078.026-0.051-.077c-0.076-.043-0.138-0.032-0.207-0.078-0.017-.026-0.034-0.051-0.052-0.077-0.068-.04-0.136-0.008-0.206-0.052a8.926,8.926,0,0,0-1.291-.722v-0.051h0.026a1.957,1.957,0,0,0,.748.076l0.052-.051h0.18l0.052-.052h0.129v-0.051c0.075-.043.134-0.012,0.206-0.051l0.078-.052v-0.052h0.077a3.213,3.213,0,0,0,.413-0.464l0.078-.026c0.455-.794,1.1-1.938,1.549-2.736,0.037-.068.013-0.113,0.051-0.181s0.118-.128.155-0.18,0.026-.134.051-0.181c0.053-.1.154-0.215,0.207-0.31v-0.077l0.077-.025c-0.008-.027-0.017-0.052-0.026-0.078l0.077-.025c-0.008-.026-0.017-0.052-0.025-0.078l0.077-.025,0.026-.129c0.029-.055.1-0.107,0.129-0.155,0.075-.129.081-0.256,0.155-0.387,0.023-.041.106-0.067,0.129-0.1a0.474,0.474,0,0,0,.025-0.18h0.052v-0.1a1.442,1.442,0,0,0,.388-0.826h-0.052s-0.087-.279-0.1-0.31a5.715,5.715,0,0,1-.335-0.62h0.129a0.539,0.539,0,0,0,.206.1c0.059,0.032.122,0.122,0.181,0.155s0.113,0.014.181,0.052l0.051,0.077H-5840v-0.025l0.206,0.1,0.026,0.078c0.057,0.044.143,0.012,0.206,0.051v0.052h0.1c0.432,0.269.928,0.509,1.342,0.8h0.1v0.051c0.068,0.045.14,0.009,0.206,0.052v0.052h0.1l0.1,0.129,0.052-.026a0.347,0.347,0,0,0,.129.077l0.026,0.077h-1.137a1.147,1.147,0,0,0-.025.336,1.636,1.636,0,0,1,.025.465c0.069,0.281.035,0.7,0.078,0.929v0.439l0.052,0.051c0.052,0.187-.07.614,0,0.878a2.888,2.888,0,0,1,.052.645v0.31l0.051,0.051v0.672a1.189,1.189,0,0,0,.052.284v0.31a2.52,2.52,0,0,0,.052.594v0.878l0.051,0.052c0.075,0.231-.03.6,0.052,0.826a0.309,0.309,0,0,1,.129,0,2.784,2.784,0,0,1,.309-0.593v-0.388c0-.374-0.051-0.6-0.051-0.956a2.241,2.241,0,0,0-.051-0.516v-0.284a2.377,2.377,0,0,0-.052-0.595v-0.335a2.293,2.293,0,0,0-.052-0.568v-0.31a2.759,2.759,0,0,0-.052-0.567v-0.465c-0.062-.262.015-0.631-0.051-0.9-0.02-.084.007-0.275-0.026-0.387l-0.051-.052a1.547,1.547,0,0,0,0-.361h1.291a0.072,0.072,0,0,0,.052.026v0.1h0Z" transform="translate(5910.764 -1454.514)"/><path class="cls-4" d="M-5867.471,1473.36v-0.1a4.479,4.479,0,0,0-.619-0.413,0.162,0.162,0,0,0-.052.129,2.833,2.833,0,0,0,.671.387h0Z" transform="translate(5910.764 -1454.514)"/><path class="cls-3" d="M-5855.828,1475.037a1.308,1.308,0,0,0,.1.207l-0.051-.026s-0.385.383-.387,0.387c-0.066.1,0,.112-0.155,0.129a1.8,1.8,0,0,0-.671-0.129c-0.312-.086-0.736-0.115-1.033-0.207a1.45,1.45,0,0,1-.283,0c-0.593-.192-1.442-0.2-2.143-0.387-0.217-.059-0.453-0.051-0.646-0.1h-0.206c-0.224-.061-0.538-0.1-0.749-0.18l-0.542-.026-0.052-.051c-0.191-.061-0.4.01-0.594-0.052-0.043-.014-0.167-0.089-0.206-0.1h-0.31l-0.026-.051h-0.284l-0.025-.052h-0.284l-0.026-.051h-0.309l-0.026-.052h-0.284l-0.026-.052-0.542-.025v-0.051a2.037,2.037,0,0,0-.207,0c-0.009-.034-0.017-0.069-0.025-0.1h0.206a1.641,1.641,0,0,0,.568.1c0.052,0,.077-0.029.1-0.025,0.048,0,.179.064,0.232,0.077l0.077-.026c0.159,0.024.5,0.107,0.594,0.129,0.216,0.048.361-.009,0.542,0.052l0.052,0.051,0.258,0.027,0.051,0.051h0.284l0.026,0.051h0.283c0.008,0.018.017,0.034,0.026,0.052l0.7,0.026,0.1,0.051h0.232l0.052,0.078h0.18c0.209,0.059.521,0.091,0.724,0.154h0.258c0.232,0.067.468,0.083,0.723,0.155a0.78,0.78,0,0,0,.232-0.026s0.112,0.02.129,0.026l0.026,0.052a0.865,0.865,0,0,1,.388.026,1.611,1.611,0,0,0,.155.1,0.985,0.985,0,0,1,.284,0c0.008,0.017.017,0.035,0.026,0.051h0.283l0.078,0.052h0.258a5.208,5.208,0,0,0,.541.129l0.129-.025a2.548,2.548,0,0,0,.774.129,0.959,0.959,0,0,0,.31-0.517,0.533,0.533,0,0,1-.206-0.309l-0.129-.1,0.025-.078c-0.025-.007-0.051-0.017-0.077-0.026l-0.052-.155h-0.051c-0.029-.042-0.023-0.159-0.052-0.207h-0.052v-0.1h-0.051v-0.1c-0.042-.088-0.14-0.2-0.18-0.284s-0.036-.244-0.079-0.336l-0.077-.052a2.58,2.58,0,0,1-.1-0.413h0.026v-0.026a0.624,0.624,0,0,0,.129.026,0.826,0.826,0,0,0,.1.361c0.044,0.1,0,.186.051,0.285,0.008,0.016.066,0.057,0.078,0.077-0.009.025-.019,0.052-0.027,0.078l0.078,0.051,0.026,0.156a4.016,4.016,0,0,0,.335.567v0.077a2.092,2.092,0,0,0,.387.49h0Z" transform="translate(5910.764 -1454.514)"/><path class="cls-3" d="M-5906.891,1472.947a1.4,1.4,0,0,1,.645.051,2.235,2.235,0,0,0-2.246,1.369,3.465,3.465,0,0,0,.078,1.729,6.941,6.941,0,0,0,2.556,3.614,3.414,3.414,0,0,0,.62.207c0.022,0.007.081,0.071,0.1,0.077a0.268,0.268,0,0,1,.1-0.025c0.072,0.016.252,0.046,0.335,0.076v0.026h-0.413a1.643,1.643,0,0,0-.414-0.1c-0.044-.016-0.142-0.086-0.181-0.1h-0.1v-0.052h-0.1v-0.051h-0.1c-0.059-.029-0.123-0.122-0.18-0.155h-0.078c-0.059-.035-0.1-0.139-0.155-0.181h-0.077l-0.155-.181c-0.154-.145-0.31-0.292-0.465-0.438v-0.077c-0.042-.057-0.14-0.1-0.181-0.155-0.1-.139-0.154-0.283-0.258-0.413h-0.052v-0.1a6.491,6.491,0,0,1-1.033-2.323,2.707,2.707,0,0,1,.155-1.678,3,3,0,0,1,.981-0.9c0.144-.08.512-0.117,0.619-0.206h0Z" transform="translate(5910.764 -1454.514)"/><path class="cls-4" d="M-5868.477,1473.85h0.928a0.72,0.72,0,0,0,.027-0.233,0.2,0.2,0,0,0,.025-0.128h-0.878a0.079,0.079,0,0,1-.026.026c0,0.164-.063.182-0.077,0.335h0Z" transform="translate(5910.764 -1454.514)"/><path class="cls-3" d="M-5837.885,1483.35a1.116,1.116,0,0,1-.388-0.207c-0.069-.036-0.112-0.013-0.18-0.051l-0.078-.052v-0.051h-0.1v-0.052h-0.1v-0.051h-0.1v-0.052c-0.076-.056-0.178-0.052-0.258-0.1-0.017-.025-0.035-0.051-0.051-0.077a0.5,0.5,0,0,1-.31-0.181,0.1,0.1,0,0,1-.026-0.076h0.052a0.774,0.774,0,0,0,.309.154c0.043,0.025.088,0.106,0.129,0.129h0.077c0.033,0.017.1,0.086,0.129,0.1h0.078v0.052h0.1a3.944,3.944,0,0,0,.568.335,0.146,0.146,0,0,1,.1-0.026,3.4,3.4,0,0,1,.516-0.9,3.218,3.218,0,0,1,.258-0.568h0.051c0.03-.043.023-0.161,0.052-0.206,0.064-.1.161-0.216,0.232-0.31a0.3,0.3,0,0,1,.1-0.206c-0.008-.017-0.018-0.035-0.026-0.052l0.077-.051c0.037-.067.013-0.114,0.051-0.182l0.052-.076h0.052v-0.1h0.052v-0.077l0.051-.026c0.036-.069.014-0.112,0.052-0.181,0.017-.03.087-0.073,0.1-0.1,0.038-.068.014-0.115,0.052-0.181l0.078-.052c-0.009-.017-0.017-0.035-0.026-0.052l0.078-.051c0.043-.066.034-0.141,0.077-0.207l0.077-.051v-0.078c0.017-.031.087-0.1,0.1-0.128a1.429,1.429,0,0,1,.1-0.258l0.078-.026-0.026-.078,0.078-.025c-0.008-.026-0.017-0.051-0.026-0.078l0.077-.026a0.937,0.937,0,0,1,.129-0.335l0.077-.026v-0.1h0.052c0.043-.072.008-0.14,0.052-0.207h0.051v-0.1l0.052-.077h0.051v-0.078c0.019-.032.087-0.1,0.1-0.129v-0.1l0.077-.025c0.04-.063.014-0.116,0.052-0.181l0.1-.078c-0.009-.025-0.018-0.05-0.026-0.077l0.077-.026c0.025-.036.048-0.189,0.078-0.233,0.267-.386.735-1.179,1.394-0.981h0.258l0.052,0.051c0.112,0.045.194-.026,0.258,0.1a0.137,0.137,0,0,0-.052.051,1.257,1.257,0,0,0-1.575.465v0.1h-0.051l-0.052.077v0.078h-0.052v0.1c-0.053.1-.175,0.213-0.231,0.31-0.077.129-.082,0.256-0.155,0.387l-0.052.078h-0.052v0.1h-0.051v0.1h-0.052v0.1h-0.052c-0.056.085-.048,0.175-0.1,0.259l-0.077.051,0.026,0.051-0.077.027c0.008,0.025.017,0.051,0.025,0.076-0.017.033-.083,0.066-0.1,0.1a1.34,1.34,0,0,1-.077.206h-0.052c-0.045.063-.008,0.137-0.052,0.207h-0.051c-0.04.061-.015,0.115-0.052,0.18l-0.077.052c-0.008.043-.017,0.086-0.026,0.129l-0.078.026c0.01,0.025.017,0.051,0.026,0.077-0.039.048-.06-0.011-0.077,0.077h0.026v0.026l-0.078.052c-0.042.066-.035,0.14-0.077,0.207-0.026.016-.051,0.034-0.077,0.051-0.075.13-.08,0.257-0.156,0.387l-0.077.052c-0.008.043-.017,0.085-0.025,0.129l-0.078.025,0.026,0.078h-0.051c-0.075.121-.076,0.248-0.156,0.361l-0.076.026v0.1h-0.052a1.777,1.777,0,0,0-.052.207l-0.051.025a2.031,2.031,0,0,1-.078.206l-0.077.052c-0.09.154-.107,0.323-0.207,0.464l-0.077.026c0.008,0.026.017,0.051,0.025,0.078l-0.077.026v0.076l-0.051.027v0.1h-0.052v0.078l-0.052.026v0.077c-0.031.057-.121,0.127-0.155,0.181v0.1c-0.015.03-.086,0.075-0.1,0.1a0.177,0.177,0,0,0,0,.1,0.3,0.3,0,0,0-.129.207h0Z" transform="translate(5910.764 -1454.514)"/><path class="cls-3" d="M-5904.207,1481.362a0.1,0.1,0,0,1,.026-0.077,2.577,2.577,0,0,1,.258-0.077v-0.052h0.1c0.044-.018.11-0.086,0.155-0.1h0.129V1481h0.077l0.026-.051h0.077c0.055-.033.122-0.122,0.181-0.155h0.078l0.052-.077,0.051,0.025,0.052-.078,0.129-.025,0.077-.129,0.077,0.026c0.008-.026.017-0.052,0.026-0.077a2.551,2.551,0,0,1,.258-0.156,2.1,2.1,0,0,0,.18-0.232h0.052a1.115,1.115,0,0,0,.052-0.1h0.052v-0.052h0.052a1.6,1.6,0,0,0,.129-0.181h0.052c0.037-.043.015-0.107,0.052-0.155,0.015-.02.088-0.032,0.1-0.051,0.036-.048.014-0.112,0.052-0.155,0.026-.01.052-0.017,0.078-0.025l-0.026-.079a3.443,3.443,0,0,0,.491-1.161,2.521,2.521,0,0,0-.1-1.059v-0.18l-0.051-.027c-0.045-.11-0.011-0.178-0.052-0.284a1.4,1.4,0,0,1-.155-0.439,0.2,0.2,0,0,1,.155-0.077l-0.026.077c0.026,0.009.052,0.018,0.077,0.025a2.491,2.491,0,0,1,.051.259l0.052,0.026v0.155h0.052a2.767,2.767,0,0,1,.051.362,3.291,3.291,0,0,1,.129.982,3.24,3.24,0,0,1-.439,1.341l-0.077.027v0.052a0.129,0.129,0,0,1-.052.1h-0.052v0.1l-0.155.129v0.052c-0.018.019-.114,0.057-0.129,0.077l0.026,0.052a4.1,4.1,0,0,1-1.084.852c-0.065.037-.141,0.145-0.206,0.18l-0.078-.026c-0.008.026-.017,0.052-0.026,0.078a2.824,2.824,0,0,1-.31.129c-0.021.011-.061,0.07-0.077,0.077h-0.129c-0.034.015-.115,0.088-0.155,0.1h-0.129v0.051a0.969,0.969,0,0,1-.258.051h0Z" transform="translate(5910.764 -1454.514)"/><path class="cls-3" d="M-5845.733,1478.961a0.488,0.488,0,0,1,.257.154c0.042,0.029.16,0.024,0.207,0.053v0.051h0.1c0.037,0.023.091,0.107,0.129,0.13s0.086,0.016.129,0.025l0.026,0.077h0.1v0.052h0.1v0.051h0.1v0.052h0.1v0.052h0.077v0.051a3.8,3.8,0,0,0,.388.155c0.065,0.037.144,0.147,0.206,0.18l0.078-.025c0.008,0.025.017,0.051,0.026,0.078a3.823,3.823,0,0,1,.361.154v0.051h0.1v0.052h0.1v0.052h0.1v0.052c0.041,0.027.134,0.025,0.181,0.051,0.073,0.04.1,0.139,0.18,0.1,0.018,0.026.035,0.051,0.052,0.078l0.052-.027,0.051,0.078a2.777,2.777,0,0,1,.259.1v0.051h0.206v-0.051a1.673,1.673,0,0,1-.156-0.491h0.026c0.037,0.048.023,0.039,0.1,0.052,0.033,0.293.218,0.514,0.258,0.8h-0.052a1.268,1.268,0,0,0-.336-0.181c-0.058-.036-0.125-0.12-0.181-0.155l-0.051.026-0.052-.077a3.087,3.087,0,0,1-.361-0.156v-0.051h-0.1v-0.052h-0.1v-0.051h-0.1c-0.1-.061-0.213-0.173-0.309-0.232l-0.051.025a1.693,1.693,0,0,0-.155-0.129h-0.078l-0.026-.051h-0.077l-0.078-.1h-0.1v-0.051h-0.077c-0.008-.018-0.017-0.035-0.026-0.052h-0.1v-0.052c-0.082-.056-0.18-0.046-0.258-0.1v-0.052c-0.066-.044-0.141-0.013-0.207-0.051-0.04-.023-0.086-0.107-0.129-0.129a2.058,2.058,0,0,1-.9-0.568h0Z" transform="translate(5910.764 -1454.514)"/><path class="cls-4" d="M-5904.362,1481.337h0.129v0.025h-0.026v0.027a0.539,0.539,0,0,1-.387.051h0.052a1.315,1.315,0,0,0,.232-0.1h0Z" transform="translate(5910.764 -1454.514)"/><g class="cls-2"><path class="cls-4" d="M-5904.723,1481.44c0.066,0.03.021-.013,0.052,0.051h-0.052a0.143,0.143,0,0,1-.1.026v-0.026h0.026c0.021-.019.057-0.031,0.077-0.051h0Z" transform="translate(5910.764 -1454.514)"/><path class="cls-5" d="M-5832.681,1478.364l0.12,0.093a0.263,0.263,0,0,0,.392.016,0.258,0.258,0,0,0-.114-0.378,0.981,0.981,0,0,0-.126-0.085l-0.272.354h0Zm-0.445.578-0.166-.128,0.8-1.044a2.613,2.613,0,0,1,.314.2,0.691,0.691,0,0,1,.263.329,0.313,0.313,0,0,1-.07.289,0.327,0.327,0,0,1-.4.1l-0.007.009a0.318,0.318,0,0,1-.02.388,1.1,1.1,0,0,0-.133.309l-0.174-.134a1,1,0,0,1,.134-0.322,0.246,0.246,0,0,0-.083-0.355l-0.117-.089-0.346.449h0Zm1.2-1.2a0.974,0.974,0,0,0-1.358.215,0.972,0.972,0,0,0,.143,1.374,0.964,0.964,0,0,0,1.357-.214,0.973,0.973,0,0,0-.138-1.371l0,0h0Zm0.116-.142a1.165,1.165,0,0,1,.2,1.643,1.165,1.165,0,0,1-1.647.23,1.173,1.173,0,0,1-.2-1.654,1.173,1.173,0,0,1,1.648-.223l0,0h0Z" transform="translate(5910.764 -1454.514)"/></g></svg>