<svg id="Layer_1" data-name="Layer 1" xmlns="http://www.w3.org/2000/svg" viewBox="0 0 74.603 20.877"><defs><style>.cls-1{fill:#484748;}</style></defs><title>EntenteLandingLogo</title><path class="cls-1" d="M-6772.81,1470.406l0.119,0.1q0.974-.939,1.947-1.88a0.83,0.83,0,0,0,.162-0.239c0.084-.178.016-0.289-0.181-0.279a0.769,0.769,0,0,0-.344.1,4.163,4.163,0,0,0-1.7,2.2h0Zm-31.211,3.265,0.117,0.085c0.155-.094.311-0.186,0.464-0.283a25.319,25.319,0,0,0,3.888-2.859,7.274,7.274,0,0,0,.865-1.059,0.415,0.415,0,0,0,.018-0.392,0.437,0.437,0,0,0-.389-0.092,6.564,6.564,0,0,0-1.211.477,7.838,7.838,0,0,0-2.359,2.125c-0.493.645-.931,1.331-1.393,2h0Zm-9.488,4.618a2.673,2.673,0,0,1,.479-0.3,62.274,62.274,0,0,0,6.85-2.948,0.768,0.768,0,0,0,.431-0.556,10.84,10.84,0,0,1,5.016-6.937,3.185,3.185,0,0,1,3.179-.134,2.007,2.007,0,0,1,.62,3.213,9.236,9.236,0,0,1-2.838,2.456c-1.407.83-2.867,1.573-4.3,2.36a2.246,2.246,0,0,0-.331.272,1.042,1.042,0,0,0,.441.237,11.676,11.676,0,0,0,2.079-.292,22.149,22.149,0,0,0,5.219-2.458c1.76-1.049,3.5-2.133,5.248-3.2a4.672,4.672,0,0,1,.713-0.362,0.874,0.874,0,0,1,1.276.988c-0.01.082-.027,0.164-0.052,0.315,0.26-.215.463-0.413,0.7-0.569,0.663-.443,1.326-0.889,2.013-1.293a1.487,1.487,0,0,1,1.269-.135,1.158,1.158,0,0,1,.7,1.54,6.973,6.973,0,0,1-.751,1.43c-0.654,1.012-1.35,2-2.014,3a3.3,3.3,0,0,0-.251.618l0.076,0.1a2.636,2.636,0,0,0,.615-0.2c1.038-.644,2.116-1.24,3.082-1.978a48.553,48.553,0,0,0,6.973-6.86c0.5-.572.981-1.159,1.528-1.807-0.172.013-.259,0.012-0.343,0.026a6.112,6.112,0,0,0-2.425.941,9.183,9.183,0,0,1-1.092.653,0.673,0.673,0,0,1-.56.02,0.637,0.637,0,0,1-.185-0.524,2.232,2.232,0,0,1,1.172-1.613,7.549,7.549,0,0,1,3.087-1.022,5.118,5.118,0,0,1,.98-0.076,1.123,1.123,0,0,0,1.083-.554c0.54-.755,1.127-1.478,1.694-2.215,0.258-.336.513-0.413,0.764-0.229a0.492,0.492,0,0,1,.027.762c-0.486.7-.98,1.4-1.506,2.147,0.176,0.008.3,0.013,0.428,0.02l5.972,0.327c0.254,0.014.475,0.081,0.456,0.389s-0.251.335-.5,0.348c-2.32.119-4.639,0.245-6.96,0.357a0.633,0.633,0,0,0-.583.329c-1.384,2.25-2.792,4.486-4.166,6.742a12.948,12.948,0,0,0-.8,1.694,0.491,0.491,0,0,0,.062.45,0.516,0.516,0,0,0,.453-0.018q1.815-.963,3.608-1.966a0.629,0.629,0,0,0,.23-0.4,7.813,7.813,0,0,1,1.4-3.412,3.417,3.417,0,0,1,3.288-1.384,1.373,1.373,0,0,1,1.218,1.778,4.636,4.636,0,0,1-1.467,2.286c-0.885.818-1.848,1.556-2.792,2.311-0.314.251-.351,0.359-0.148,0.9a0.547,0.547,0,0,0,.683.439,7.976,7.976,0,0,0,1.244-.4,15.072,15.072,0,0,0,3.512-2.435c0.306-.257.606-0.521,0.921-0.767a0.7,0.7,0,0,1,.931-0.1,0.672,0.672,0,0,1,.131.888c-0.229.47-.485,0.928-0.68,1.441,0.705-.56,1.4-1.135,2.119-1.677q1.479-1.113,2.994-2.18a2.857,2.857,0,0,1,.789-0.363,1,1,0,0,1,1.049.231,0.921,0.921,0,0,1,.251,1.06,9.112,9.112,0,0,1-.685,1.267,17.98,17.98,0,0,0-2.057,3.727c-0.189.558-.345,1.128-0.5,1.7a0.517,0.517,0,0,1-.546.51,0.529,0.529,0,0,1-.45-0.634,8.894,8.894,0,0,1,.947-4.437c0.026-.053.048-0.109,0.07-0.164a0.223,0.223,0,0,0-.025-0.066c-0.23.129-.46,0.251-0.682,0.385q-1.944,1.177-3.886,2.358a2.106,2.106,0,0,1-.608.317,0.837,0.837,0,0,1-.63-0.088,0.74,0.74,0,0,1-.176-0.6,5.272,5.272,0,0,1,.377-0.953l-0.686.522a10.3,10.3,0,0,1-2.636,1.523c-1.68.628-2.548,0.259-3.243-1.408-0.147.076-.292,0.15-0.436,0.227a12.188,12.188,0,0,1-3.742,1.474,1.617,1.617,0,0,1-2.088-1.522,4.863,4.863,0,0,1,.144-1.066,7.5,7.5,0,0,1,.244-0.769c-0.136.115-.215,0.173-0.285,0.242a23.586,23.586,0,0,1-4.614,3.744,14.6,14.6,0,0,1-2.313,1.04,1.307,1.307,0,0,1-1.793-1.065,3.591,3.591,0,0,1,.348-2.142c0.241-.549.56-1.066,0.848-1.595,0.083-.153.179-0.3,0.322-0.54a5.157,5.157,0,0,0-2.18,1.5c-0.63.76-1.185,1.583-1.767,2.381-0.121.165-.21,0.354-0.335,0.516a0.541,0.541,0,0,1-.722.231,0.543,0.543,0,0,1-.272-0.734,6,6,0,0,1,.3-0.7c0.519-1.074,1.043-2.146,1.564-3.219,0.051-.106.091-0.217,0.177-0.426-0.22.13-.359,0.208-0.494,0.294a64.374,64.374,0,0,1-7.17,4.084,14.934,14.934,0,0,1-3.846,1.317,7.227,7.227,0,0,1-.944.079,1.92,1.92,0,0,1-2.041-1.13c-0.395.158-.769,0.322-1.154,0.458q-2.915,1.034-5.835,2.058c-0.078.027-.15,0.069-0.225,0.1h-0.584v-0.506h0Z" transform="translate(6813.508 -1457.918)"/><path class="cls-1" d="M-6748.635,1473.168a18.027,18.027,0,0,0,4.347-2.908c-0.854-.287-3.369,1.429-4.347,2.908h0Zm0.752-15.25c0.389,0.412.372,0.545-.026,1.038q-2.288,2.833-4.559,5.679c-0.067.084-.125,0.175-0.231,0.326,0.5,0.037.952,0.06,1.4,0.105q5.913,0.6,11.825,1.212l0.073,0.008a0.338,0.338,0,0,1,.372.39,0.338,0.338,0,0,1-.425.29c-0.741-.033-1.482-0.07-2.224-0.094-3.889-.126-7.779-0.245-11.668-0.379a0.746,0.746,0,0,0-.743.372,31.806,31.806,0,0,0-3.026,5.258,9.134,9.134,0,0,0-.5,1.653,0.891,0.891,0,0,0,.851,1.254,7.193,7.193,0,0,0,2.9.056,18.776,18.776,0,0,0,2.081-.515,0.762,0.762,0,0,0,.389-0.364,11.181,11.181,0,0,1,6.561-5.748,2.863,2.863,0,0,1,1.762-.006,1.26,1.26,0,0,1,.816,1.89,5.633,5.633,0,0,1-1.279,1.452,25.238,25.238,0,0,1-6.176,3.438c-0.2.083-.493,0.09-0.444,0.424a0.492,0.492,0,0,0,.558.416,17.244,17.244,0,0,0,2.206-.165,12.634,12.634,0,0,0,6.206-2.764,13.352,13.352,0,0,0,1.358-1.4c0.363-.413.487-0.447,0.921-0.1V1472c-2.339,3.416-5.792,4.911-9.752,5.522a4.7,4.7,0,0,1-1.019.025,2.067,2.067,0,0,1-2.04-1.555l-1.2.378a10.2,10.2,0,0,1-3.826.612,2.787,2.787,0,0,1-2.874-2.976,5.974,5.974,0,0,1,.227-1.312,15.443,15.443,0,0,1,2.1-4.145c0.385-.584.8-1.146,1.205-1.719,0.06-.086.115-0.175,0.217-0.33-0.668.034-1.27,0.047-1.868,0.1-0.8.07-1.6,0.17-2.393,0.259-0.339.038-.617,0.1-0.534,0.567a0.368,0.368,0,0,1-.406.411,0.925,0.925,0,0,1-.972-0.751,1.43,1.43,0,0,1,.605-1.487,4.066,4.066,0,0,1,2.237-.675c1.421-.049,2.844-0.052,4.266-0.055a0.688,0.688,0,0,0,.581-0.26q2.853-3.186,5.732-6.348c0.113-.124.243-0.233,0.366-0.348h0.365Z" transform="translate(6813.508 -1457.918)"/><path class="cls-1" d="M-6808.839,1463.519a0.32,0.32,0,0,0-.075-0.217,0.267,0.267,0,0,0-.206-0.09h-0.719v0.588h0.719a0.258,0.258,0,0,0,.206-0.077,0.286,0.286,0,0,0,.075-0.2h0Zm-0.074-.936a0.216,0.216,0,0,0-.055-0.157,0.225,0.225,0,0,0-.152-0.064h-0.719v0.448h0.719a0.213,0.213,0,0,0,.155-0.067,0.237,0.237,0,0,0,.052-0.16h0Zm0.471,0.959a0.631,0.631,0,0,1-.092.326,0.633,0.633,0,0,1-.246.239,0.709,0.709,0,0,1-.344.094h-1.123v-2.239h1.043a0.785,0.785,0,0,1,.388.08,0.551,0.551,0,0,1,.3.511,0.5,0.5,0,0,1-.231.468,0.533,0.533,0,0,1,.3.521h0Z" transform="translate(6813.508 -1457.918)"/><path class="cls-1" d="M-6806.637,1462.647a0.263,0.263,0,0,0-.087-0.207,0.341,0.341,0,0,0-.234-0.077h-0.635v0.558h0.635a0.345,0.345,0,0,0,.234-0.075,0.25,0.25,0,0,0,.087-0.2h0Zm0.448,1.554h-0.448l-0.361-.879h-0.595v0.879h-0.4v-2.239h1.029a0.762,0.762,0,0,1,.384.094,0.645,0.645,0,0,1,.344.592,0.638,0.638,0,0,1-.361.595l0.408,0.959h0Z" transform="translate(6813.508 -1457.918)"/><polygon class="cls-1" points="8.239 6.283 7.838 6.283 7.838 4.044 8.239 4.044 8.239 6.283 8.239 6.283"/><path class="cls-1" d="M-6803.428,1463.275l-0.314-.755-0.314.755h0.628Zm0.826,0.926h-0.435l-0.217-.525h-0.976l-0.221.525h-0.438l0.943-2.239h0.408l0.936,2.239h0Z" transform="translate(6813.508 -1457.918)"/><polygon class="cls-1" points="13.021 6.283 12.677 6.283 11.608 4.772 11.608 6.283 11.217 6.283 11.217 4.044 11.608 4.044 12.637 5.538 12.637 4.044 13.021 4.044 13.021 6.283 13.021 6.283"/><polygon class="cls-1" points="16.013 4.445 14.749 4.445 14.749 4.899 15.448 4.899 15.448 5.31 14.749 5.31 14.749 6.283 14.342 6.283 14.342 4.044 16.013 4.044 16.013 4.445 16.013 4.445"/><polygon class="cls-1" points="16.945 6.283 16.544 6.283 16.544 4.044 16.945 4.044 16.945 6.283 16.945 6.283"/><path class="cls-1" d="M-6794.344,1463.549a0.636,0.636,0,0,1-.232.495,0.95,0.95,0,0,1-.64.2,1.065,1.065,0,0,1-.892-0.461l0.334-.227a0.711,0.711,0,0,0,.571.3,0.554,0.554,0,0,0,.336-0.084,0.279,0.279,0,0,0,.125-0.231,0.21,0.21,0,0,0-.1-0.2,1.382,1.382,0,0,0-.434-0.154,1.317,1.317,0,0,1-.613-0.264,0.518,0.518,0,0,1-.159-0.368,0.542,0.542,0,0,1,.209-0.433,0.819,0.819,0,0,1,.56-0.189,1.04,1.04,0,0,1,.836.425l-0.317.211a0.728,0.728,0,0,0-.518-0.241,0.469,0.469,0,0,0-.274.067,0.169,0.169,0,0,0-.087.15,0.169,0.169,0,0,0,.1.154,0.966,0.966,0,0,0,.3.1,1.369,1.369,0,0,1,.68.282,0.624,0.624,0,0,1,.216.466h0Z" transform="translate(6813.508 -1457.918)"/><polygon class="cls-1" points="21.36 6.283 20.963 6.283 20.963 5.3 19.957 5.31 19.957 6.283 19.556 6.283 19.556 4.044 19.957 4.044 19.957 4.909 20.963 4.909 20.963 4.044 21.36 4.044 21.36 6.283 21.36 6.283"/><polygon class="cls-1" points="23.499 6.283 21.828 6.283 21.828 4.044 23.463 4.044 23.463 4.445 22.236 4.445 22.236 4.863 22.904 4.863 22.904 5.27 22.236 5.27 22.236 5.882 23.499 5.882 23.499 6.283 23.499 6.283"/><path class="cls-1" d="M-6788.188,1462.647a0.263,0.263,0,0,0-.087-0.207,0.34,0.34,0,0,0-.234-0.077h-0.635v0.558h0.635a0.345,0.345,0,0,0,.234-0.075,0.25,0.25,0,0,0,.087-0.2h0Zm0.448,1.554h-0.448l-0.361-.879h-0.595v0.879h-0.4v-2.239h1.029a0.762,0.762,0,0,1,.384.094,0.645,0.645,0,0,1,.344.592,0.638,0.638,0,0,1-.361.595l0.408,0.959h0Z" transform="translate(6813.508 -1457.918)"/><path class="cls-1" d="M-6784.793,1463.386a0.56,0.56,0,0,0-.09-0.329,0.274,0.274,0,0,0-.234-0.129,0.279,0.279,0,0,0-.241.13,0.562,0.562,0,0,0-.09.328,0.57,0.57,0,0,0,.09.329,0.278,0.278,0,0,0,.241.132,0.273,0.273,0,0,0,.234-0.132,0.57,0.57,0,0,0,.09-0.329h0Zm0.388,0a0.914,0.914,0,0,1-.209.6,0.637,0.637,0,0,1-.506.251,0.636,0.636,0,0,1-.508-0.251,0.919,0.919,0,0,1-.207-0.6,0.923,0.923,0,0,1,.207-0.608,0.636,0.636,0,0,1,.508-0.251,0.637,0.637,0,0,1,.506.251,0.919,0.919,0,0,1,.209.608h0Z" transform="translate(6813.508 -1457.918)"/><path class="cls-1" d="M-6783.363,1462.961h-0.244v1.24H-6784v-1.24h-0.211v-0.384H-6784v-0.207a0.43,0.43,0,0,1,.1-0.292,0.377,0.377,0,0,1,.3-0.115,0.615,0.615,0,0,1,.237.053v0.328a0.525,0.525,0,0,0-.134-0.023,0.1,0.1,0,0,0-.11.124v0.134h0.244v0.384h0Z" transform="translate(6813.508 -1457.918)"/></svg>