<svg id="Layer_1" data-name="Layer 1" xmlns="http://www.w3.org/2000/svg" xmlns:xlink="http://www.w3.org/1999/xlink" viewBox="0 0 47.066 26.105"><defs><style>.cls-1{fill:none;}.cls-2{clip-path:url(#clip-path);}.cls-3{fill:#484748;}</style><clipPath id="clip-path" transform="translate(5976.165 -1406.833)"><rect class="cls-1" x="-5976.165" y="1406.833" width="47.066" height="26.105"/></clipPath></defs><title>FewLandingLogo</title><g class="cls-2"><path class="cls-3" d="M-5936.956,1409.006v-2.163h5.031v2.165c-0.117,0-.225-0.006-0.333,0a0.55,0.55,0,0,0-.6.528c-0.073.446-.133,0.895-0.189,1.343-0.17,1.356-.309,2.715-0.445,4.074-0.128,1.269-.25,2.539-0.375,3.809q-0.184,1.871-.368,3.742-0.153,1.54-.309,3.079c-0.043.422-.093,0.842-0.139,1.26a0.11,0.11,0,0,1-.107-0.039,22.851,22.851,0,0,0-3.955-2.145,0.253,0.253,0,0,1-.18-0.23q-0.371-2.757-.756-5.512c-0.057-.412-0.115-0.823-0.2-1.237l-0.855,6.186a0.11,0.11,0,0,1-.106-0.012,33.887,33.887,0,0,0-3.967-1.069,0.168,0.168,0,0,1-.153-0.164q-0.4-2.162-.8-4.323c-0.349-1.886-.7-3.77-1.049-5.656-0.183-1-.356-1.995-0.5-3a1.272,1.272,0,0,0-.079-0.3,0.555,0.555,0,0,0-.543-0.335c-0.1-.007-0.207,0-0.319,0v-2.163h5.13V1409c-0.195.027-.389,0-0.581,0.026a0.532,0.532,0,0,0-.522.672c0.138,1.054.338,2.1,0.51,3.147,0.245,1.5.5,2.989,0.751,4.483,0.128,0.763.257,1.525,0.4,2.289,0.424-3.087.619-6.2,1.035-9.3h2.938l1.5,9.365,0.026,0c0.012-.086.027-0.172,0.037-0.258q0.223-1.88.446-3.76,0.246-2.055.5-4.109c0.066-.539.136-1.077,0.2-1.616a1.66,1.66,0,0,0-.02-0.514,0.433,0.433,0,0,0-.4-0.394,1.857,1.857,0,0,0-.351-0.027c-0.1,0-.2,0-0.307,0h0Z" transform="translate(5976.165 -1406.833)"/><path class="cls-3" d="M-5965.433,1418.689h-2.685c0-.221,0-0.436,0-0.652a1.553,1.553,0,0,0-.084-0.547,0.731,0.731,0,0,0-.759-0.537,7.223,7.223,0,0,0-1.164.062,1.511,1.511,0,0,0-.2.045,0.494,0.494,0,0,0-.4.526c-0.006.276,0,.552,0,0.828q0,1.2,0,2.4c0,0.072,0,.145.007,0.217a1.106,1.106,0,0,0,1.117,1.09,4.909,4.909,0,0,0,1.411-.151l0.16-.034v0.485c0,0.34,0,.679,0,1.018a0.153,0.153,0,0,1-.132.177,25.833,25.833,0,0,0-4.685,1.963,19.265,19.265,0,0,0-3.2,2.166c-0.03.025-.063,0.048-0.1,0.075a0.169,0.169,0,0,1-.021-0.122c0-.774,0-1.548,0-2.322a0.164,0.164,0,0,1,.121-0.178,2.812,2.812,0,0,0,.956-0.607,1.317,1.317,0,0,0,.4-0.963q0-6.892,0-13.784a0.759,0.759,0,0,0-.652-0.821,1.918,1.918,0,0,0-.634-0.034c-0.053.006-.107,0.009-0.172,0.014v-2.167h13.367v3.9h-2.805c0-.265,0-0.526,0-0.787a1.553,1.553,0,0,0-.052-0.457,0.6,0.6,0,0,0-.625-0.481c-0.633-.016-1.267-0.027-1.9-0.046a8.808,8.808,0,0,0-1.625.064,1.68,1.68,0,0,0-.615.2,0.606,0.606,0,0,0-.32.558c0,1.44,0,2.879,0,4.319a0.734,0.734,0,0,0,.676.765,3.949,3.949,0,0,0,1.054.054,0.924,0.924,0,0,0,.877-1c0-.253,0-0.506,0-0.771h2.685v5.533h0Z" transform="translate(5976.165 -1406.833)"/><path class="cls-3" d="M-5949.279,1422.1a57.067,57.067,0,0,0-12.477.141V1419.4c0.173,0,.343,0,0.513,0a0.621,0.621,0,0,0,.739-0.712c0-3.065,0-6.13,0-9.195a0.653,0.653,0,0,0-.708-0.721c-0.18,0-.36,0-0.537,0-0.022-.119-0.027-1.767-0.007-1.931h12.473v3.375h-2.522a2.6,2.6,0,0,1-.011-0.4,2.532,2.532,0,0,0-.024-0.433,0.678,0.678,0,0,0-.606-0.589,1.573,1.573,0,0,0-.243-0.018q-1.609,0-3.219,0a1.82,1.82,0,0,0-.189.011,0.652,0.652,0,0,0-.659.736c-0.037.936-.013,1.874-0.01,2.811a0.77,0.77,0,0,0,.711.757,7.684,7.684,0,0,0,1.22.041,2.043,2.043,0,0,0,.6-0.123,0.684,0.684,0,0,0,.47-0.677c0-.108,0-0.216,0-0.334h2.54v4.079h-2.527a1,1,0,0,1-.011-0.265,1.133,1.133,0,0,0-.07-0.426,0.626,0.626,0,0,0-.537-0.441,6.444,6.444,0,0,0-1.57-.014,0.935,0.935,0,0,0-.782.575,0.523,0.523,0,0,0-.042.21c0,0.969-.023,1.939.01,2.906a0.724,0.724,0,0,0,.762.782c1.132,0,2.264,0,3.4,0a0.721,0.721,0,0,0,.774-0.749c0.018-.256,0-0.515,0-0.785h2.541v4.229h0Z" transform="translate(5976.165 -1406.833)"/><path class="cls-3" d="M-5941.852,1432.195c-0.448-.046-0.883-0.1-1.32-0.133-0.772-.063-1.545-0.092-2.318-0.1-1.141-.014-2.281.006-3.419,0.088-1.06.077-2.12,0.17-3.179,0.257-0.8.066-1.6,0.139-2.407,0.2q-1.814.138-3.628,0.262-1.612.111-3.227,0.157c-1.041.03-2.081,0.008-3.121-.044a34.061,34.061,0,0,1-3.789-.408,1.351,1.351,0,0,1-.14-0.04c0.554,0.023,1.1.049,1.638,0.068,1.213,0.042,2.425.018,3.637-.034,1.194-.051,2.384-0.152,3.574-0.259q1.44-.129,2.88-0.254c1.136-.1,2.271-0.2,3.408-0.288,1.33-.1,2.661-0.213,4-0.243a27.144,27.144,0,0,1,7.338.722,0.083,0.083,0,0,1,.079.049h0Z" transform="translate(5976.165 -1406.833)"/></g><path class="cls-3" d="M-5968.39,1425.407c0.923,0.05,1.845.082,2.768,0.084,1.616,0,3.23-.07,4.84-0.21s3.2-.277,4.8-0.421c1.347-.121,2.7-0.222,4.045-0.324,1.264-.1,2.529-0.162,3.8-0.153a25.734,25.734,0,0,1,6.184.725,0.315,0.315,0,0,1,.125.055l-0.812-.085c-0.964-.1-1.931-0.14-2.9-0.15-1.245-.014-2.489.019-3.73,0.114-1.123.086-2.245,0.189-3.368,0.281-0.951.079-1.9,0.158-2.855,0.229-1.119.083-2.238,0.163-3.358,0.233-0.989.061-1.979,0.105-2.97,0.117-0.942.011-1.883-.005-2.823-0.06a34.649,34.649,0,0,1-3.653-.407,0.694,0.694,0,0,1-.09-0.027h0Z" transform="translate(5976.165 -1406.833)"/><path class="cls-3" d="M-5955.515,1428.614a3.128,3.128,0,0,0,.577-0.079,0.574,0.574,0,0,0,.411-0.362,1.77,1.77,0,0,0-.015-1.156,0.406,0.406,0,0,0-.34-0.278,2.291,2.291,0,0,0-.633.034v1.842h0Zm2.928,1.57c0.078,0.014.085,0.05,0.047,0.114a0.726,0.726,0,0,1-.373.322,1.713,1.713,0,0,1-.947.089,0.683,0.683,0,0,1-.593-0.727,5.839,5.839,0,0,0-.023-0.894,0.426,0.426,0,0,0-.52-0.406c-0.167.012-.333,0.031-0.513,0.049v2c0.14,0.028.28-.039,0.426-0.013,0.029,0.075,0,.1-0.076.11-0.491.043-.982,0.091-1.473,0.136l-0.76.068c-0.035-.08-0.023-0.119.07-0.123a1.5,1.5,0,0,0,.355-0.04v-3.948c-0.148-.022-0.285.031-0.429,0.015-0.04-.085,0-0.1.081-0.111q1.148-.1,2.3-0.214a3.828,3.828,0,0,1,1-.024,1.6,1.6,0,0,1,.551.182,0.787,0.787,0,0,1,.191,1.25,1.833,1.833,0,0,1-.861.491,0.817,0.817,0,0,0-.128.045,3.519,3.519,0,0,1,.58.066,1.583,1.583,0,0,1,.231.076,0.541,0.541,0,0,1,.355.541c0,0.276,0,.552,0,0.828a1.644,1.644,0,0,0,.009.19,0.207,0.207,0,0,0,.113.2,0.221,0.221,0,0,0,.245-0.074,1.94,1.94,0,0,0,.145-0.192h0Z" transform="translate(5976.165 -1406.833)"/><path class="cls-3" d="M-5962.938,1427.242v1.938c0.111,0,.211.008,0.309,0a0.613,0.613,0,0,0,.641-0.516,2.451,2.451,0,0,0,0-1,0.488,0.488,0,0,0-.465-0.422c-0.156-.015-0.315,0-0.483,0h0Zm-1.456-.033c-0.131-.006-0.248-0.013-0.365-0.015-0.077,0-.1-0.035-0.073-0.092,0.294,0,.582-0.008.87,0,0.615,0.021,1.23.008,1.845,0.007a2.921,2.921,0,0,1,.9.119,0.873,0.873,0,0,1,.706.765,0.965,0.965,0,0,1-.536,1.011,2.911,2.911,0,0,1-1.286.287c-0.2.009-.4,0-0.6,0v1.895a1.363,1.363,0,0,0,.343.012c0.043,0,.1-0.015.1,0.058s-0.058.056-.1,0.056c-0.72.008-1.439,0-2.158-.031-0.074,0-.1-0.029-0.073-0.108h0.433v-3.966h0Z" transform="translate(5976.165 -1406.833)"/><path class="cls-3" d="M-5948.129,1430.191v-3.953a1.267,1.267,0,0,0-1.337,1.2,0.118,0.118,0,0,1-.118,0v-1.275a42.849,42.849,0,0,1,4.367-.03v1.273a0.12,0.12,0,0,1-.123,0,1.253,1.253,0,0,0-.512-0.957,1.325,1.325,0,0,0-.824-0.233v3.951a2.222,2.222,0,0,0,.332.021c0.043,0.007.112-.025,0.112,0.057s-0.069.053-.111,0.054c-0.566,0-1.131,0-1.7.007-0.14,0-.28.012-0.42,0.015-0.044,0-.111.024-0.111-0.058s0.061-.052.1-0.055c0.112-.008.223-0.014,0.341-0.02h0Z" transform="translate(5976.165 -1406.833)"/><path class="cls-3" d="M-5941.659,1426.52c0.061,0,.122-0.012.122,0.072,0,0.356,0,.713,0,1.065-0.112.028-.135-0.032-0.161-0.109a1.694,1.694,0,0,0-1.324-1.225,0.945,0.945,0,0,0-.548.038,0.614,0.614,0,0,0-.413.541,0.549,0.549,0,0,0,.317.554,4.617,4.617,0,0,0,1.011.346,3.673,3.673,0,0,1,.844.332,1.435,1.435,0,0,1,.58,1.819,1.149,1.149,0,0,1-.941.671,2.531,2.531,0,0,1-1.62-.257,1.489,1.489,0,0,0-.4-0.175,0.213,0.213,0,0,0-.278.129c-0.028.076-.076,0.061-0.138,0.044V1429.1c0.116-.045.128,0.033,0.147,0.112a1.751,1.751,0,0,0,1.992,1.282,0.7,0.7,0,0,0,.634-0.789,0.667,0.667,0,0,0-.359-0.5,3.715,3.715,0,0,0-.936-0.314,4.165,4.165,0,0,1-.883-0.3,1.25,1.25,0,0,1-.656-1.429,1.234,1.234,0,0,1,1.138-.963,2.043,2.043,0,0,1,1.248.286,3.641,3.641,0,0,0,.332.183c0.154,0.069.233,0.027,0.287-.144h0Z" transform="translate(5976.165 -1406.833)"/><path class="cls-3" d="M-5965.779,1427.018v1.127c-0.11.043-.135-0.021-0.161-0.1a1.679,1.679,0,0,0-1.625-1.188,0.62,0.62,0,0,0-.629.814,0.656,0.656,0,0,0,.342.369,3.8,3.8,0,0,0,.848.282,5.764,5.764,0,0,1,.875.289,1.377,1.377,0,0,1,.241,2.328,1.728,1.728,0,0,1-1.018.273,2.22,2.22,0,0,1-1.194-.354,1.264,1.264,0,0,0-.312-0.162,0.222,0.222,0,0,0-.319.146c-0.055,0-.12.013-0.121-0.077,0-.4,0-0.8,0-1.207,0.1-.027.126,0.019,0.151,0.1a1.867,1.867,0,0,0,1.351,1.39,1.223,1.223,0,0,0,.873-0.089,0.676,0.676,0,0,0,.414-0.62,0.632,0.632,0,0,0-.4-0.6,5.649,5.649,0,0,0-1.017-.333,2.689,2.689,0,0,1-1-.465,1.386,1.386,0,0,1-.326-1.612,1.125,1.125,0,0,1,.939-0.583,2.275,2.275,0,0,1,1.4.3,2.418,2.418,0,0,0,.279.138,0.178,0.178,0,0,0,.274-0.121c0.031-.086.082-0.039,0.137-0.046h0Z" transform="translate(5976.165 -1406.833)"/><path class="cls-3" d="M-5960.09,1431.227c-0.021-.172.1-0.111,0.169-0.123a2.38,2.38,0,0,1,.264-0.02v-3.957a3.409,3.409,0,0,0-.424.007c-0.042-.094,0-0.114.087-0.119q0.67-.041,1.341-0.087c0.289-.02.577-0.046,0.869-0.069,0.043,0.077.021,0.116-.066,0.122l-0.347.025v3.972l0.415-.029c0.026,0.062.031,0.108-.051,0.115-0.748.065-1.5,0.122-2.258,0.164h0Z" transform="translate(5976.165 -1406.833)"/><path class="cls-3" d="M-5950.39,1430.3l0.435-.024c0.015,0.059.041,0.109-.052,0.116l-2.232.158a0.066,0.066,0,0,1-.025-0.008c-0.007-.1-0.007-0.1.156-0.112,0.085-.007.17-0.017,0.266-0.026v-3.967c-0.1.007-.2,0.015-0.289,0.018-0.051,0-.13.055-0.144-0.036s0.08-.07.127-0.074c0.4-.035.8-0.064,1.2-0.093,0.329-.024.658-0.044,0.98-0.065a0.1,0.1,0,0,1,.012.113l-0.436.028v3.971h0Z" transform="translate(5976.165 -1406.833)"/><path class="cls-3" d="M-5934.228,1427.781c-0.19-.13-0.365-0.248-0.538-0.369a19.378,19.378,0,0,0-3.862-2.113,0.77,0.77,0,0,1-.271-0.321,20.284,20.284,0,0,1,4.5,2.53c0.027-.227.053-0.422,0.073-0.617,0.167-1.625.336-3.249,0.5-4.874,0.187-1.877.363-3.756,0.551-5.633,0.178-1.783.355-3.565,0.569-5.344,0.057-.471.127-0.941,0.193-1.411a0.247,0.247,0,0,1,.309-0.271c0.208,0,.416,0,0.645,0v-2.5a0.308,0.308,0,0,1,.18.3c-0.007.738,0,1.476,0,2.214v0.169h-0.6c-0.283,0-.315.027-0.356,0.308-0.159,1.083-.287,2.17-0.4,3.259q-0.2,1.944-.4,3.888c-0.107,1.076-.207,2.153-0.312,3.229q-0.182,1.857-.368,3.714-0.123,1.229-.253,2.457c-0.048.454-.1,0.908-0.151,1.387h0Z" transform="translate(5976.165 -1406.833)"/><path class="cls-3" d="M-5961.76,1422.592a56.969,56.969,0,0,1,12.838-.106v-4.624a0.348,0.348,0,0,1,.183.313c-0.006,1.439,0,2.879,0,4.318v0.171l-0.811-.077q-1.588-.15-3.183-0.2-2.023-.067-4.045,0-1.282.044-2.561,0.147c-0.7.056-1.4,0.126-2.091,0.224a0.309,0.309,0,0,1-.327-0.169h0Z" transform="translate(5976.165 -1406.833)"/><path class="cls-3" d="M-5975.985,1428.487l-0.172-.173c0.346-.31.7-0.6,1.062-0.872a22.03,22.03,0,0,1,5.556-2.976q0.857-.323,1.734-0.587a0.154,0.154,0,0,0,.133-0.178c-0.006-.53,0-1.059,0-1.589v-0.146a0.3,0.3,0,0,1,.176.292c-0.007.543-.006,1.086,0,1.63a0.147,0.147,0,0,1-.126.168,26.086,26.086,0,0,0-4.906,2.031,18.583,18.583,0,0,0-3.353,2.321c-0.03.026-.062,0.05-0.1,0.08h0Z" transform="translate(5976.165 -1406.833)"/><path class="cls-3" d="M-5942.759,1409.357v-2.488a0.233,0.233,0,0,1,.182.239q0,1.161,0,2.322c0,0.031,0,.062-0.008.109h-0.639c-0.059,0-.118,0-0.177,0-0.268.009-.326,0.065-0.285,0.332,0.105,0.693.219,1.385,0.334,2.076,0.248,1.49.5,2.98,0.752,4.469a1.767,1.767,0,0,1-.03.7c-0.035-.2-0.072-0.405-0.106-0.608q-0.553-3.305-1.1-6.611a1.7,1.7,0,0,1-.028-0.351,0.165,0.165,0,0,1,.165-0.177,6.177,6.177,0,0,1,.691-0.017c0.076,0,.153,0,0.252,0h0Z" transform="translate(5976.165 -1406.833)"/><path class="cls-3" d="M-5968.092,1419.05h3.022v-5.893a0.348,0.348,0,0,1,.186.3q-0.008,2.8,0,5.607v0.14a0.3,0.3,0,0,1-.172.022c-0.905,0-1.81,0-2.715,0a0.315,0.315,0,0,1-.318-0.177h0Z" transform="translate(5976.165 -1406.833)"/><path class="cls-3" d="M-5966.014,1409.511c-0.464,0-.928.007-1.392,0a13.606,13.606,0,0,0-2.073.036,1.646,1.646,0,0,0-.509.137,0.344,0.344,0,0,0-.214.342c0,1.4,0,2.805,0,4.208,0,0.072.01,0.143,0.017,0.23a0.345,0.345,0,0,1-.188-0.274,0.893,0.893,0,0,1,0-.149c0-1.394,0-2.787,0-4.181a0.359,0.359,0,0,1,.249-0.372,2.393,2.393,0,0,1,.741-0.149,21.884,21.884,0,0,1,2.251.012c0.285,0.007.57,0.01,0.855,0.015a0.25,0.25,0,0,1,.268.148h0Z" transform="translate(5976.165 -1406.833)"/><path class="cls-3" d="M-5940.256,1424.545c-0.193-.066-0.38-0.133-0.568-0.193-1.25-.4-2.523-0.716-3.8-1.025a0.455,0.455,0,0,1-.289-0.2,29.61,29.61,0,0,1,4.478,1.246l0.466-4.077a2.787,2.787,0,0,1,.078,1.167c-0.129,1-.237,2-0.354,3,0,0.022-.007.043-0.013,0.079h0Z" transform="translate(5976.165 -1406.833)"/><path class="cls-3" d="M-5950.687,1416.615h-0.345c-0.792,0-1.585,0-2.377,0a0.355,0.355,0,0,1-.339-0.18h2.881v-4.445a0.362,0.362,0,0,1,.184.312c-0.006,1.376,0,2.753,0,4.129v0.18h0Z" transform="translate(5976.165 -1406.833)"/><path class="cls-3" d="M-5952.221,1409.324c-0.373-.037-0.735-0.017-1.1-0.018-0.819,0-1.638,0-2.457,0a0.391,0.391,0,0,0-.459.464c0,0.892,0,1.783,0,2.675a1.768,1.768,0,0,0,.05.249,0.471,0.471,0,0,1-.221-0.4q-0.009-1.364,0-2.729a0.373,0.373,0,0,1,.431-0.435q1.677-.006,3.353,0a0.393,0.393,0,0,1,.4.2h0Z" transform="translate(5976.165 -1406.833)"/><path class="cls-3" d="M-5965.579,1411.1h3.155v-4.247a0.329,0.329,0,0,1,.182.321c-0.006,1.312,0,2.625,0,3.937v0.144a0.244,0.244,0,0,1-.165.024c-0.955,0-1.91,0-2.864,0a0.344,0.344,0,0,1-.3-0.184h0Z" transform="translate(5976.165 -1406.833)"/><path class="cls-3" d="M-5948.967,1415.274a0.636,0.636,0,0,1,.628-0.647,0.645,0.645,0,0,1,.651.642,0.641,0.641,0,0,1-.64.637,0.629,0.629,0,0,1-.639-0.633h0Z" transform="translate(5976.165 -1406.833)"/><path class="cls-3" d="M-5963.369,1415.275a0.635,0.635,0,0,1,.628-0.647,0.644,0.644,0,0,1,.652.641,0.64,0.64,0,0,1-.639.639,0.629,0.629,0,0,1-.641-0.632h0Z" transform="translate(5976.165 -1406.833)"/><path class="cls-3" d="M-5948.921,1406.85a0.336,0.336,0,0,1,.181.311c-0.007,1.141,0,2.282,0,3.422a0.363,0.363,0,0,1-.012.16,0.339,0.339,0,0,1-.161.015c-0.851,0-1.7,0-2.553,0a0.335,0.335,0,0,1-.321-0.183h2.871v-3.729h0Z" transform="translate(5976.165 -1406.833)"/><path class="cls-3" d="M-5938.226,1410.326a0.4,0.4,0,0,1,.2.283q0.467,2.948.948,5.895a1.73,1.73,0,0,1-.049.642l-1.095-6.82h0Z" transform="translate(5976.165 -1406.833)"/><path class="cls-3" d="M-5968.591,1417.5a7.453,7.453,0,0,0-1.1.014,1.556,1.556,0,0,0-.267.043,0.251,0.251,0,0,0-.239.3q0,1.582,0,3.164a1.216,1.216,0,0,0,.128.573,0.447,0.447,0,0,1-.217-0.251,1.288,1.288,0,0,1-.087-0.5q0-1.575,0-3.15a0.256,0.256,0,0,1,.252-0.318,6.04,6.04,0,0,1,1.272-.055,0.309,0.309,0,0,1,.26.182h0Z" transform="translate(5976.165 -1406.833)"/><g class="cls-2"><path class="cls-3" d="M-5954.188,1415.47a10.875,10.875,0,0,0-1.21-.05,1.7,1.7,0,0,0-.481.077,0.479,0.479,0,0,0-.356.5q0,1.317,0,2.634a0.8,0.8,0,0,0,.036.337,0.475,0.475,0,0,1-.21-0.359q-0.006-1.439,0-2.879a0.417,0.417,0,0,1,.246-0.364,1,1,0,0,1,.417-0.108,8.768,8.768,0,0,1,1.288.027,0.3,0.3,0,0,1,.269.186h0Z" transform="translate(5976.165 -1406.833)"/><path class="cls-3" d="M-5929.1,1407.832a0.171,0.171,0,0,1-.146,0v-0.676l-0.03,0c-0.044.2-.086,0.393-0.133,0.588-0.011.049-.01,0.108-0.091,0.111a0.1,0.1,0,0,1-.113-0.1,4.95,4.95,0,0,0-.145-0.568v0.63a0.2,0.2,0,0,1-.156.031v-1h0.254l0.136,0.618,0.027,0c0.03-.135.061-0.27,0.091-0.405,0.052-.237.052-0.237,0.307-0.215v0.99h0Z" transform="translate(5976.165 -1406.833)"/></g><path class="cls-3" d="M-5930.271,1407.835a0.259,0.259,0,0,1-.173-0.005v-0.807l-0.242-.013a0.233,0.233,0,0,1-.008-0.168h0.656a0.313,0.313,0,0,1,0,.157,1.732,1.732,0,0,1-.237.029v0.807h0Z" transform="translate(5976.165 -1406.833)"/><path class="cls-3" d="M-5976.158,1409.36a1.186,1.186,0,0,1,1.053.212,2.175,2.175,0,0,0-.818-0.035,0.33,0.33,0,0,1-.235-0.178h0Z" transform="translate(5976.165 -1406.833)"/><path class="cls-3" d="M-5961.745,1409.147a0.832,0.832,0,0,1,.872.158c-0.222,0-.443,0-0.664,0a0.336,0.336,0,0,1-.208-0.157h0Z" transform="translate(5976.165 -1406.833)"/><path class="cls-3" d="M-5936.262,1409.538c-0.157,0-.314,0-0.471,0a0.427,0.427,0,0,1-.236-0.184,0.792,0.792,0,0,1,.707.185h0Z" transform="translate(5976.165 -1406.833)"/><path class="cls-3" d="M-5947.692,1409.524c-0.346.05-.392,0.037-0.529-0.147a0.4,0.4,0,0,1,.529.147h0Z" transform="translate(5976.165 -1406.833)"/></svg>