<?xml version="1.0" encoding="utf-8"?>
<!-- Generator: Adobe Illustrator 16.0.0, SVG Export Plug-In . SVG Version: 6.00 Build 0)  -->
<!DOCTYPE svg PUBLIC "-//W3C//DTD SVG 1.1//EN" "http://www.w3.org/Graphics/SVG/1.1/DTD/svg11.dtd">
<svg version="1.1" id="Layer_1" xmlns="http://www.w3.org/2000/svg" xmlns:xlink="http://www.w3.org/1999/xlink" x="0px" y="0px"
	 width="445.624px" height="610.479px" viewBox="0 0 445.624 610.479" enable-background="new 0 0 445.624 610.479"
	 xml:space="preserve">
<g>
	<path fill="#333333" d="M132.004,195.901c11.663-18.102,38.185-20.42,54.193-8.712c0.068-0.564,0.181-0.992,0.158-1.442
		c-0.383-7.564-0.021-15.265-1.396-22.626c-1.171-6.417-0.788-12.699-0.809-18.979c-0.135-46.787-0.046-93.55-0.046-140.313
		c0-3.49,0.315-3.805,3.829-3.805c11.391,0,22.829,0,34.266,0c2.995,0.022,3.558,0.563,3.558,3.625c0,51.648,0,103.342,0,155.014
		c0,3.422-0.788,4.21-4.097,4.21c-6.213,0-12.427,0-18.643,0h-2.431c-0.271,5.472-0.495,10.784-0.744,16.075
		c-0.067,1.351-0.113,2.747-0.472,4.053c-0.383,1.531-1.396,1.733-2.635,0.743c-2.003-1.554-2.588-4.368-2.138-6.822
		c0.516-2.747,0.472-5.63,0.63-8.442c0.021-0.338-0.091-0.811-0.316-1.036c-0.788-0.878-1.666-1.666-2.499-2.477
		c-0.541,0.924-1.554,1.868-1.554,2.814c0.044,6.146,0.293,12.271,0.472,18.417c0.023,0.653,0.158,1.35,0.204,2.026
		c0.27,2.86,0.945,5.426,2.679,7.926c3.85,5.605,5.854,12.046,6.237,18.799c0.36,6.868,0.36,13.756,0.381,20.647
		c0.067,13.665,0.113,27.332,0,41c-0.09,9.5-2.319,18.438-8.284,26.026c-2.117,2.724-4.954,4.842-7.408,7.25
		c-0.428,0.405-1.013,0.924-0.99,1.374c0.451,7.136,0.99,14.297,1.508,21.57c10.333-1.938,19.993-1.555,29.359,2.25
		c9.344,3.806,16.278,10.402,21.704,19.431c3.467-13.06,3.444-25.825,3.288-38.657c-6.643-0.767-12.608-2.77-17.876-6.597
		c-8.49-6.169-13.217-14.544-14.569-24.879c-0.27-2.026-0.359-4.076-0.359-6.123c-0.023-31.477,0-62.974,0-94.474
		c0-3.332,0.044-3.376,3.444-3.376c9.388,0,18.777,0,28.144,0c2.521,0,3.039,0.495,3.039,3.04c0,29.991,0,59.98,0.021,89.993
		c0,0.967,0.091,1.957,0.337,2.903c0.362,1.329,1.375,1.778,2.726,1.756c1.262-0.023,2.185-0.564,2.478-1.801
		c0.27-0.99,0.404-2.049,0.404-3.085c0.022-29.697-0.021-59.394,0.067-89.067c0-3.332,0.99-6.641,1.194-9.997
		c0.202-3.671,0.044-7.385,0.044-11.258h-2.138c-4.91,0-9.817,0-14.726,0c-2.386-0.023-2.679-0.383-1.981-2.59
		c2.319-7.474,4.638-14.927,6.957-22.401c5.923-18.958,11.866-37.961,17.676-56.985c0.428-1.329,0.065-3.085-0.385-4.481
		C246.56,52.145,238.544,27.919,230.53,3.67c-0.158-0.54-0.427-1.035-0.518-1.599c-0.181-1.148,0.247-1.958,1.531-2.026
		c0.359-0.022,0.742-0.022,1.102-0.022c12.429,0,24.856,0.045,37.286-0.022c1.957-0.023,2.813,0.765,3.174,2.521
		c1.487,6.867,2.994,13.711,4.526,20.557c0.201,0.922,0.563,1.801,0.855,2.724l0.606,0.045c0.316-0.743,0.699-1.486,0.857-2.251
		c1.599-7.002,3.197-14.004,4.683-21.051c0.404-1.846,1.169-2.567,3.13-2.544c12.225,0.067,24.473,0.022,36.721,0.022
		c3.603,0,4.188,0.811,3.04,4.21c-5.382,15.917-10.74,31.813-16.144,47.731c-2.792,8.218-5.674,16.413-8.285,24.676
		c-0.54,1.688-0.519,3.873,0.022,5.584c5.898,18.822,11.911,37.599,17.897,56.354c2.254,7.069,4.55,14.163,6.757,21.254
		c0.247,0.834,0.449,1.913,0.135,2.679c-2.274,5.697-1.981,11.663-2.319,17.876c1.778,0,3.421,0.023,5.089,0
		c11.055-0.156,20.286,3.94,27.715,12.046c5.336,5.83,7.971,12.878,8.284,20.758c0.204,5.899-0.292,11.753-2.249,17.404
		c-2.747,7.882-7.971,12.924-16.978,14.456c1.216,0.405,1.937,0.676,2.612,0.923c4.322,1.44,8.421,3.265,11.933,6.26
		c4.682,4.075,6.731,9.434,7.229,15.378c0.404,4.39,0.448,8.825,0.493,13.215c0.022,3.04,1.194,5.291,4.01,6.485
		c1.98,0.855,2.768,2.296,2.633,4.39c-0.45,6.822-1.396,13.689-6.866,18.236c-3.514,2.928-4.301,6.462-5.065,10.379
		c-1.689,8.624-1.511,17.224,0.179,26.005c0.384-0.27,0.721-0.472,0.992-0.742c13.193-13.397,29.155-16.797,46.739-11.888
		c17.337,4.817,27.491,17.065,31.769,34.244c0.923,3.692,1.148,7.588,1.487,11.416c0.224,2.882-0.678,3.668-3.49,3.781
		c-7.7,0.36-15.378,0.721-23.395,1.127c0.158,1.529,0.315,2.993,0.497,4.411c0.135,1.262,0.428,2.477,0.381,3.694
		c-0.022,0.854-0.404,1.756-0.832,2.498c-0.068,0.137-1.486-0.091-1.71-0.495c-0.497-0.832-0.857-1.868-0.834-2.814
		c0.091-2.298,0.428-4.594,0.676-7.07h-2.5c0.181,3.467,0.563,6.777,0.474,10.11c-0.069,2.948,1.327,4.524,3.67,6.011
		c7.498,4.773,13.891,10.784,18.912,18.214c7.52,11.102,9.388,23.259,6.98,36.295c-1.083,5.675-2.726,11.168-5.382,16.368
		c-0.27,0.563-0.451,1.306-0.428,1.957c0.337,9.165,0.832,18.329,3.106,27.313c0.542,2.184,0.542,4.705,0.114,6.934
		c-0.632,3.151-3.671,3.783-5.743,1.329c-2.297-2.746-3.468-5.99-2.185-9.524c0.743-2.205,0.767-4.255-0.156-6.327
		c-0.857-1.98-1.847-3.918-2.86-5.83c-0.224-0.406-0.809-0.653-1.26-0.969c-0.339,0.474-0.855,0.878-1.013,1.419
		c-0.249,0.945-0.405,1.959-0.428,2.926c-0.362,11.709,0.585,23.325,3.241,34.741c0.742,3.219-0.72,5.81-3.804,6.62
		c-3.312,0.878-6.372-0.767-6.98-4.053c-0.293-1.533-0.226-3.243,0.135-4.772c2.319-9.165,1.959-18.464,1.237-27.763
		c-0.112-1.418-0.291-2.836-0.449-4.254c-0.021-0.25-0.113-0.474-0.202-0.835c-2.096,0.901-4.144,1.712-6.125,2.657
		c-0.382,0.204-0.765,0.812-0.832,1.261c-2.973,19.364-5.697,38.749-4.773,58.382c0.293,5.765,1.801,11.481,2.635,17.246
		c0.247,1.689,0.291,3.49,0.021,5.156c-0.743,4.457-3.715,6.934-7.745,6.776c-4.233-0.181-7.744-3.377-8.037-7.587
		c-0.158-1.757-0.045-3.67,0.518-5.337c2.612-7.543,3.355-15.377,3.895-23.233c0.923-12.901,0.788-25.803,0-38.703
		c-0.225-3.717-0.631-7.431-0.945-10.854c-6.192-0.945-12.137-1.847-18.327-2.791c-0.789,1.283-0.945,2.904-0.067,4.615
		c0.36,0.72,0.899,1.464,0.946,2.184c0.067,1.103,0.089,2.814-0.474,3.151c-0.968,0.519-2.499,0.384-3.648,0.091
		c-1.327-0.337-1.868-1.485-1.755-2.926c0.113-1.396,0.406-2.928,0-4.211c-0.564-1.689-1.622-3.288-2.656-4.796
		c-0.406-0.608-1.352-0.855-2.072-1.283c-0.181,0.089-0.382,0.18-0.586,0.271c0,1.171-0.181,2.318,0.023,3.421
		c1.44,7.791,2.949,15.582,4.413,23.371c0.135,0.674,0.27,1.352,0.383,2.003c0.697,3.873-1.418,6.351-5.335,6.148
		c-2.319-0.114-4.369-0.925-6.058-2.523c-1.689-1.599-2.498-3.647-1.577-5.74c2.748-6.417,2.546-13.126,2.184-19.792
		c-0.246-5.154-0.832-10.289-1.35-15.421c-0.091-0.855-0.405-1.824-0.923-2.522c-6.035-8.082-9.188-17.27-10.536-27.108
		c-0.678-4.796-0.834-9.635-1.127-14.477c-0.137-2.094,0.63-2.836,2.656-2.971c9.681-0.496,19.363-0.991,29.022-1.464
		c2.478-0.113,2.949,0.382,3.49,2.836c0.765,3.513,1.395,7.07,2.565,10.447c0.767,2.138,2.117,4.256,3.716,5.899
		c3.017,3.106,7.137,1.688,8.149-2.521c0.697-2.793,0.204-5.314-1.733-7.25c-4.322-4.368-8.714-8.667-13.283-12.766
		c-4.684-4.144-9.816-7.836-14.432-12.023c-9.817-8.871-16.143-19.813-18.058-32.939c-0.632-4.323-0.181-8.803-0.226-13.171
		c-0.021-0.563,0.158-1.148,0-1.666c-1.508-4.953-0.448-9.795,0.519-14.656c1.801-8.962,2.635-18.036,1.733-27.177
		c-0.382-3.963-0.901-7.947-1.373-12.046h-6.237c0.18,3.333,0.249,6.845,0.653,10.335c0.315,2.993,1.148,5.944,1.44,8.938
		c0.182,1.803,0.023,3.738-0.404,5.495c-0.834,3.13-2.995,4.322-6.371,3.738c-1.757,4.524-3.49,9.072-5.247,13.621
		c-6.19,16.097-12.339,32.174-18.553,48.249c-0.809,2.161-0.697,4.211,0.047,6.349c9.229,26.049,18.417,52.121,27.602,78.171
		c0.135,0.384,0.271,0.721,0.406,1.058c0.563,1.915,0.157,2.545-1.802,2.589c-0.135,0-0.27,0-0.383,0
		c-3.985,0.023-4.12,0-4.908,3.918c-0.383,1.914-0.383,3.94-0.248,5.878c0.181,2.701-0.674,4.638-2.656,5.132
		c-2.837,0.654-4.931-1.62-4.231-4.795c0.674-3.018,0.765-5.943-0.25-8.827c-0.201-0.516-0.921-1.236-1.418-1.26
		c-6.416-0.067-12.788-0.046-19.565-0.046c0,2.658-0.27,5.224,0.069,7.747c0.493,3.94,1.44,7.812,2.161,11.707
		c0.45,2.342,0.313,4.705-1.329,6.506c-0.855,0.947-2.365,1.645-3.625,1.733c-1.531,0.135-2.724-1.171-2.95-2.633
		c-0.293-1.981-0.54-4.097-0.156-6.058c1.169-6.19,2.025-12.359,1.147-18.89c-2.477,0.249-2.679-1.575-3.018-3.399
		c-2.589-13.599-5.178-27.175-7.79-40.752c-0.181-0.833-0.563-1.62-0.854-2.408c-0.271,0.023-0.519,0.044-0.767,0.089
		c-0.066,0.855-0.224,1.689-0.224,2.546c-0.023,13.058-0.023,26.094-0.023,39.129c0,3.783-0.608,4.482-4.57,4.817
		c-0.314,3.49-0.721,7.026-0.923,10.605c-0.834,13.712-0.676,27.446,0.765,41.112c1.104,10.762,2.837,21.39,6.664,31.589
		c1.15,3.083,1.689,6.236,0.992,9.501c-1.419,6.146-8.061,9.322-14.727,7.115c-6.279-2.117-9.611-8.219-8.06-15.445
		c0.788-3.625,2.252-7.093,3.13-10.696c2.656-11.009,3.242-22.242,2.882-33.479c-0.406-12.967-1.419-25.914-2.205-38.859
		c-0.023-0.495-0.158-0.969-0.271-1.508h-13.081c-0.585,4.931-1.396,9.839-1.688,14.746c-0.563,9.75-1.014,19.477-1.192,29.225
		c-0.069,3.423,0.923,6.867,1.147,10.334c0.135,1.803-0.157,3.692-0.608,5.471c-0.382,1.51-1.621,2.792-3.241,2.59
		c-1.262-0.135-2.702-0.923-3.558-1.892c-1.622-1.777-1.711-4.188-1.171-6.371c3.309-13.215,2.972-26.702,2.881-40.165
		c-0.022-4.596-0.337-9.188-0.517-13.714c-4.03-0.899-4.323-1.26-4.323-5.267V336.012c0-3.738,0.248-3.964,4.031-3.964h15.399
		c0.472-8.352,1.823-16.638,0.113-24.878c-0.315-0.113-0.608-0.204-0.901-0.271c-0.519,0.811-1.238,1.577-1.487,2.477
		c-1.036,3.4-0.765,6.89,0.091,10.29c0.653,2.521-0.113,4.594-1.419,6.62c-0.271,0.428-0.99,0.923-1.283,0.809
		c-0.472-0.179-0.944-0.809-1.058-1.306c-0.271-1.125-0.383-2.319-0.406-3.512c-0.044-3.152-0.021-6.327-0.065-9.501
		c0-0.697-0.093-1.418-0.135-1.869c-3.987,1.418-7.858,2.814-11.754,4.12c-1.217,0.383-2.522,0.495-3.828,0.607
		c-1.103,0.113-1.62,0.585-1.757,1.733c-1.102,8.918-2.363,17.854-1.8,26.861c0.271,4.3,1.283,8.533,1.98,12.789
		c0.36,2.431,0.653,5.043-1.104,6.911c-1.373,1.418-3.399,2.207-5.245,3.31c0.675,3.378,1.688,7.161,2.094,11.01
		c0.541,5.111,0.653,10.268,0.788,15.424c0.067,2.521-0.293,2.7-2.814,2.813c-10.672,0.384-21.343,0.766-32.083,1.17
		c-2.207,8.376,1.464,16.325,1.801,24.677c1.192,0.091,2.454,0.181,3.76,0.226c8.556,0.293,17.111,0.563,25.666,0.899
		c2.883,0.093,3.197,0.428,3.153,3.312c-0.249,12.585-1.307,25.037-5.494,37.036c-3.467,9.816-8.646,18.418-17.426,24.428
		c-1.982,1.352-4.233,2.342-6.283,3.604c-0.518,0.293-1.171,0.877-1.215,1.373c-0.226,4.076-0.428,8.173-0.428,12.248
		c0,1.374,0.495,2.814,0.99,4.12c1.104,2.882-0.563,6.597-3.512,7.589c-1.938,0.651-3.581-0.339-3.76-2.658
		c-0.204-2.251-0.113-4.57,0.156-6.845c0.316-2.77,1.036-5.471,1.396-8.24c0.202-1.688,0.046-3.444,0.046-5.2
		c-1.464-0.226-2.274,0.381-2.477,1.801c-0.225,1.554-0.362,3.084-0.766,4.594c-0.382,1.464-0.855,3.309-2.814,3.151
		c-1.982-0.182-2.071-2.071-2.206-3.603c-0.137-1.464-0.023-2.95-0.023-4.684c-7.768,0.541-15.22-0.158-22.56-3.31
		c-0.293,3.964-0.585,7.654-0.811,11.372c-0.697,11.368-1.036,22.739,0.608,34.019c0.586,3.895,1.689,7.722,2.793,11.526
		c0.876,3.039,1.71,5.967,0.899,9.12c-1.643,6.438-9.838,9.501-15.288,5.695c-3.062-2.139-4.098-5.967-2.724-10.582
		c1.553-5.178,3.421-10.243,4.683-15.467c3.376-13.914,4.729-27.986,3.985-42.306c-0.226-4.233-1.013-7.7-4.954-10.379
		c-2.993-2.026-5.2-5.247-8.015-8.219c0.405,3.94,0.697,7.746,1.239,11.483c0.381,2.386,1.417,4.661,1.666,7.046
		c0.158,1.464-0.226,3.22-0.969,4.479c-0.946,1.622-2.837,2.005-4.638,1.51c-1.824-0.496-2.77-1.868-2.928-3.691
		c-0.112-1.15-0.156-2.41,0.137-3.512c1.845-6.936,1.035-13.914,0.811-20.918c-0.204-6.731-3.355-12.676-4.415-19.138
		c-0.788-4.975-1.62-9.974-1.688-14.95c-0.204-15.895-0.181-31.79-0.023-47.708c0.112-11.686,2.003-23.1,7.003-33.816
		c0.607-1.283,1.079-2.726,2.003-3.76c2.972-3.467,3.151-7.656,3.197-11.866c0.044-4.908,0.158-9.817-0.046-14.702
		c-0.067-2.343-0.54-4.683-1.171-6.935c-0.63-2.207-2.184-2.477-3.962-0.945c-3.332,2.904-4.029,6.506-2.791,10.604
		c1.013,3.332,2.184,6.599,2.904,9.975c0.855,3.939,0.135,7.745-2.23,11.123c-0.899,1.283-1.98,2.319-3.692,2.048
		c-1.689-0.293-2.431-1.712-2.521-3.106c-0.225-3.468-0.112-7.004-0.158-10.515c-0.067-5.808-0.023-11.64-0.293-17.449
		c-0.135-2.77-0.765-5.516-1.373-8.195c-0.179-0.855-0.811-1.847-1.531-2.274c-10.29-5.944-15.76-15.13-17.718-26.546
		c-0.63-3.713-0.811-7.541-0.811-11.302c-0.09-18.957,0-37.891,0.023-56.826v-1.261c-2.702-0.744-4.256-2.633-5.089-5.651
		c-1.35,4.279-2.588,8.197-3.827,12.136c-3.669,11.843-7.498,23.639-10.942,35.55c-1.194,4.166-1.892,8.602-1.982,12.97
		c-0.226,13.575-0.091,27.174-0.091,40.772c0,4.076-0.202,4.346-4.569,4.503c-0.339,2.207-0.79,4.503-1.059,6.778
		c-1.013,8.646-1.441,17.337-0.72,26.004c0.474,5.675,1.329,11.326,1.982,16.977c0.472,4.098,0.36,8.173-0.969,12.112
		c-0.405,1.24-1.058,2.411-1.846,3.424c-1.914,2.431-4.773,2.499-6.868,0.247c-2.048-2.207-2.858-5.043-2.701-7.882
		c0.247-3.938,0.9-7.833,1.599-11.729c0.9-4.997,1.53-9.974,0.967-15.128c-1.215,3.151-2.477,6.279-3.669,9.432
		c-6.395,16.729-12.789,33.459-19.251,50.164c-0.855,2.205-0.899,4.277-0.112,6.506c9.232,26.051,18.417,52.123,27.626,78.172
		c0.179,0.539,0.404,1.059,0.539,1.599c0.339,1.352-0.067,2.161-1.62,2.138c-1.869-0.044-3.715,0-5.628,0
		c-0.767,2.997-0.541,5.855,0.021,8.736c0.451,2.387,0.788,4.773,1.126,7.183c0.089,0.765,0.089,1.599-0.023,2.387
		c-0.181,1.329-0.249,3.017-1.938,3.221c-1.822,0.246-2.747-1.353-2.97-2.793c-0.383-2.273-0.249-4.638-0.383-7.003
		c-0.158-3.872-0.316-7.743-0.495-11.661h-4.729c0,1.485-0.044,2.882,0,4.299c0.607,17.382,1.892,34.697,4.84,51.874
		c0.36,2.026,0.249,4.233-0.135,6.26c-0.788,3.806-3.962,4.819-7.024,2.41c-2.726-2.185-4.143-5.224-4.413-8.557
		c-0.226-3.13-0.181-6.327,0.337-9.412c1.622-9.793,1.824-19.654,1.689-29.516c-0.09-5.719-0.36-11.438-0.563-17.428h-2.072
		c-5.447,0-10.942-0.065-16.413,0.023c-1.733,0.022-2.432-0.765-2.747-2.296c-2.612-13.847-5.247-27.671-7.903-41.518
		c-0.181-0.923-0.608-1.778-0.945-2.68c-0.249,0.047-0.474,0.089-0.744,0.136c-0.067,0.878-0.202,1.756-0.202,2.611
		c0,13.171,0,26.364,0,39.535c0,3.267-0.923,4.188-4.21,4.188c-6.012,0-12.046,0-18.057,0h-2.252
		c-0.607,6.036-1.328,11.935-1.733,17.878c-0.608,8.308-0.923,16.615,0.608,24.878c0.36,2.072,0.968,4.122,1.239,6.192
		c0.179,1.44,0.157,2.995-0.067,4.436c-0.609,3.67-3.018,5.854-6.351,5.921c-3.489,0.091-6.754-2.207-7.429-5.561
		c-0.316-1.712-0.451-3.716,0.135-5.314c2.724-7.7,3.602-15.691,4.076-23.752c0.472-8.129,0.539-16.233,0.81-24.678
		c-1.823,0-3.354,0-4.862,0c-2.433-0.021-3.49-1.079-3.581-3.512c0-0.427,0-0.878,0-1.282V335.808c0-3.421,0.316-3.76,3.67-3.76
		c11.438,0,22.875,0,34.269,0c3.174,0,3.737,0.563,3.737,3.648c0,11.684-0.023,23.369,0,35.055c0,0.878,0.135,1.757,0.202,2.635
		c0.27,0.066,0.495,0.135,0.744,0.202c0.427-0.923,0.99-1.823,1.215-2.77c1.958-8.532,3.806-17.067,5.697-25.623
		c0.765-3.421,1.529-6.888,2.319-10.332c0.472-2.162,1.283-2.815,3.467-2.815c3.174-0.023,6.302,0,9.815,0
		c-0.293-4.705-0.54-9.276-0.832-13.824c-0.158-2.229-0.542-4.436-0.563-6.665c-0.046-11.662-0.249-23.348,0.044-35.011
		c0.225-8.172-1.127-15.917-3.49-23.707c-7.136-23.236-13.938-46.562-20.872-69.887c-0.653-2.23-0.406-2.567,1.982-2.567
		c10.267,0,20.488,0.044,30.733-0.021c1.936-0.023,2.768,0.674,3.174,2.499c2.679,11.73,5.426,23.483,8.173,35.191
		c0.248,1.013,0.653,1.98,0.99,2.994c0.226-0.023,0.451-0.023,0.653-0.046c0.563-2.227,1.148-4.48,1.645-6.73
		c2.296-10.177,4.547-20.355,6.821-30.554c0.653-2.926,1.215-3.332,4.324-3.332h22.919h2.544
		c-1.485-5.719-2.905-11.166-4.368-16.593c-0.089-0.36-0.563-0.833-0.923-0.901c-4.345-0.833-8.126,2.77-7.542,7.205
		c0.023,0.18,0.067,0.36,0.067,0.541c0.204,2.408-0.81,4.255-2.543,4.638c-1.824,0.428-3.513-0.855-4.256-3.288
		c-0.27-0.946-0.382-1.936-0.585-2.904c-0.674-4.097-3.063-6.192-7.137-6.214c-2.544-0.023-3.376-0.923-3.376-3.76
		c0-30.238,0-60.497,0-90.735c0-21.344,0-42.71,0-64.1c0-3.535,0.721-4.255,4.232-4.255c25.014,0,50.027,0,75.02,0
		c3.511,0,4.029,0.518,4.029,3.963c0,11.594,0,23.212,0,34.83c0,3.399-0.765,4.165-4.143,4.165c-10.896,0-21.748,0-32.601,0
		c-2.972,0-3.602,0.608-3.625,3.58c0,3.738,0,7.453,0.023,11.19c0,2.049,0.585,2.635,2.679,2.657c5.021,0,10.041-0.022,15.085,0
		c2.454,0,3.286,0.788,3.286,3.197c0,12.474,0.023,24.969-0.067,37.442c0,0.969-0.788,1.937-1.193,2.904
		c-0.27,0.541-0.631,1.037-0.766,1.621c-0.765,3.581-0.54,7.137,0.428,10.672c0.315,1.126,0.541,2.341,0.406,3.467
		c-0.293,2.341-2.387,3.624-4.638,3.062c-2.251-0.608-3.242-2.498-2.14-4.817c2.005-4.121,1.51-8.173,0.271-12.315
		c-0.292-0.991-0.766-1.396-1.824-1.374c-2.86,0.09-5.719,0.022-8.579,0.044c-1.801,0-2.747,0.878-2.928,2.635
		c-0.066,0.563-0.044,1.126-0.044,1.688c0,16.706,0,33.411,0.023,50.118c0,1.53,0,2.972-1.531,3.941
		c-0.292,0.179-0.428,0.742-0.54,1.125c-2.883,10.199-3.513,20.532-1.87,31.002C131.779,195.137,131.892,195.474,132.004,195.901
		 M312.709,316.041h-2.276c-6.032,0-12.065,0-18.078-0.021c-2.139,0-2.814-0.631-2.814-2.725c0-43.409,0-86.817,0-130.249
		c0-2.026,0.653-2.633,2.634-2.656c5.854,0,11.687,0,17.518,0h2.116c0.135-6.056,0.089-11.821-1.575-17.516
		c-7.633,0-15.085-0.067-22.539,0.021c-1.98,0.023-2.724-0.674-3.084-2.566c-1.485-8.309-3.084-16.593-4.683-24.856
		c-0.135-0.742-0.474-1.419-0.72-2.117c-0.182,0.023-0.362,0.023-0.542,0.046c-0.225,0.651-0.541,1.306-0.676,2.003
		c-1.464,7.79-2.904,15.602-4.434,23.371c-0.339,1.71-1.329,3.354-1.464,5.02c-0.316,4.233-0.293,8.444-0.404,12.677
		c-0.047,1.283,0,2.542,0,3.916c2.655,0,5.088,0,7.52,0c2.835,0,3.241,0.383,3.241,3.176c0,31.835,0.021,63.693,0,95.551
		c-0.021,5.697-1.192,11.167-3.625,16.347c-0.383,0.834-0.765,1.756-0.811,2.633c-0.495,8.49-0.99,16.977-1.373,25.488
		c-0.135,2.768-0.021,5.516-0.021,8.465c4.907,0,9.681-0.023,14.453,0c3.017,0,3.625,0.608,3.625,3.558
		c0,11.729,0,23.483,0.023,35.213c0,0.878,0.135,1.733,0.224,2.612c0.271,0.044,0.541,0.09,0.834,0.157
		c0.383-1.08,0.923-2.14,1.171-3.241c2.656-11.776,5.245-23.574,7.902-35.371c0.517-2.296,1.283-2.928,3.579-2.928
		c1.712-0.023,3.423,0,5.404,0C313.43,326.555,313.091,321.377,312.709,316.041 M318.719,332.048c7.183,0,13.825-0.023,20.467,0
		c1.148,0.046,1.306-0.653,1.395-1.486c0.541-5.043,1.105-10.086,1.533-15.128c0.044-0.541-0.497-1.261-0.947-1.691
		c-1.755-1.62-3.825-2.993-5.336-4.838c-3.871-4.819-5.177-10.628-5.268-16.64c-0.135-9.86-0.023-19.768-0.044-29.629
		c0-2.635-0.316-5.224-2.073-7.317c-0.608-0.72-1.733-0.969-2.635-1.44c-0.292,0.855-0.854,1.733-0.854,2.611
		c-0.045,18.304-0.045,36.61-0.023,54.935c0,3.604,0.181,4.842-4.346,4.638c-0.135,0-0.246,0.092-0.741,0.292
		C319.462,321.377,319.103,326.601,318.719,332.048 M203.984,422.041c0.247-2.004,0.382-3.807,0.744-5.562
		c1.148-5.537,1.395-11.167,0.944-16.818c-0.089-1.104-0.247-1.824-1.71-1.778c-2.972,0.089-4.571-1.575-4.592-4.572
		c-0.046-3.397-0.023-6.82-0.023-10.22c0-1.329,0.068-2.635-0.046-3.94c-0.179-2.026-1.485-3.287-3.309-3.355
		c-1.778-0.089-3.399,1.329-3.648,3.287c-0.089,0.607-0.066,1.239-0.066,1.848c0,21.681,0,43.318,0,64.978
		c0,0.63-0.023,1.238,0.044,1.868c0.249,1.733,1.553,2.972,3.219,3.106s3.13-0.855,3.581-2.611c0.179-0.675,0.225-1.441,0.225-2.185
		c0.023-6.888,0-13.779,0.023-20.667c0-2.591,0.967-3.468,3.511-3.401C203.241,422.041,203.601,422.041,203.984,422.041
		 M160.239,248.182c0,8.556,0,17.133,0.021,25.71c0,1.105,0,2.342,0.495,3.244c0.474,0.855,1.578,1.845,2.41,1.845
		c0.811,0.023,1.936-0.99,2.363-1.822c0.52-0.99,0.585-2.275,0.585-3.423c0.023-16.954,0.023-33.93-0.021-50.861
		c0-1.396-0.337-2.86-0.878-4.12c-0.293-0.676-1.396-1.352-2.14-1.375c-0.674-0.021-1.71,0.699-1.958,1.329
		c-0.541,1.238-0.833,2.612-0.833,3.964C160.216,231.159,160.239,239.67,160.239,248.182 M168.794,340.222
		c3.827-1.938,7.474-3.717,11.054-5.674c0.606-0.315,1.104-1.283,1.148-2.003c0.225-2.478,0.27-4.954,0.292-7.431
		c0.023-4.188,0-8.375,0-12.542c-4.12,1.328-7.903,2.521-11.774,3.739C169.267,324.303,169.041,332.364,168.794,340.222
		 M89.158,331.959c-0.899-4.954-1.845-9.796-2.656-14.658c-0.156-1.059-0.585-1.24-1.552-1.306c-1.396-0.09-2.275,0.27-2.319,1.801
		c-0.046,1.462-0.023,2.949-0.136,4.413c-0.112,1.531-0.066,3.129-0.63,4.504c-0.383,0.967-1.643,2.138-2.565,2.184
		c-0.923,0.065-2.387-0.924-2.814-1.824c-0.811-1.801-1.352-3.827-1.531-5.809c-0.518-4.931-0.857-5.426-4.864-5.202
		c-0.113,0.023-0.225,0.113-0.315,0.158v15.74H89.158z M411.076,395.202c0.202-0.065,0.427-0.135,0.63-0.2
		c-0.36-2.905-0.699-5.81-1.081-8.714c-0.111-0.969-0.45-1.599-1.599-1.868c-0.721-0.182-1.373-1.194-1.733-1.984
		c-0.608-1.213-0.743-2.677-1.464-3.804c-0.855-1.351-1.892-2.86-3.221-3.646c-2.52-1.51-5.042-0.046-5.042,2.882
		c-0.023,1.621,0.36,3.399,1.125,4.796C401.574,388.044,406.461,391.511,411.076,395.202 M253.944,162.963
		c0.789,2.342,1.328,4.413,2.207,6.326c1.575,3.536,3.151,7.003,1.486,10.986h5.696v-17.312H253.944z M324.933,228.254
		c0,2.725-0.021,5.451,0,8.174c0.023,1.622,0.699,2.094,2.23,1.643c1.71-0.518,2.454-1.959,2.565-3.512
		c0.27-3.76,0.451-7.542,0.362-11.302c-0.047-1.803-0.992-3.423-2.635-4.415c-1.531-0.899-2.5-0.358-2.523,1.419
		C324.911,222.942,324.933,225.598,324.933,228.254 M320.206,180.275c-0.946-5.582-1.824-10.94-2.77-16.322
		c-0.067-0.382-0.474-0.697-0.721-1.059c-0.27,0.385-0.632,0.699-0.721,1.126c-1.08,5.381-0.832,10.784,0.202,16.254H320.206z"/>
	<path fill="#333333" d="M137.678,495.078c-0.27,3.31-0.563,6.642-0.788,9.974c-1.306,19.454-2.454,38.907-2.208,58.45
		c0.114,8.871,0.653,17.696,2.251,26.476c0.857,4.729,0.744,9.569-1.283,14.096c-0.811,1.757-1.936,3.534-3.355,4.818
		c-2.926,2.655-6.327,1.892-8.149-1.621c-1.869-3.558-1.803-7.476-1.374-11.303c1.597-14.746,3.623-29.427,4.817-44.22
		c0.788-9.749,0.518-19.588,0.563-29.381c0-1.892-0.472-3.806-0.967-5.651c-0.608-2.14-2.319-2.567-3.445-0.698
		c-1.239,1.981-2.161,4.368-2.499,6.664c-0.901,6.146-0.497,12.248,1.306,18.238c1.037,3.49-1.283,10.717-4.122,12.989
		c-1.35,1.06-2.475,0.855-3.016-0.809c-0.54-1.577-0.923-3.267-0.967-4.887c-0.248-6.643-0.225-13.284-0.428-19.926
		c-0.292-8.578-0.676-17.134-2.974-25.441c-0.63-2.252-1.733-4.368-2.7-6.509c-0.495-1.102-1.374-1.575-2.703-1.462
		c-5.472,0.428-5.809-1.126-5.809-5.786c0.046-51.108,0.023-102.217,0.023-153.305c0-3.421,0.337-3.736,3.738-3.736
		c11.414,0,22.852,0,34.266,0c3.153,0,3.694,0.519,3.694,3.692c0,51.583,0,103.208,0,154.812
		C141.551,493.907,141.01,494.539,137.678,495.078"/>
</g>
</svg>
