<svg id="Layer_1" data-name="Layer 1" xmlns="http://www.w3.org/2000/svg" xmlns:xlink="http://www.w3.org/1999/xlink" viewBox="0 0 107.608 28.027"><defs><style>.cls-1{fill:none;}.cls-2{fill:#484748;}.cls-3{clip-path:url(#clip-path);}</style><clipPath id="clip-path" transform="translate(6114.378 -1455.541)"><rect class="cls-1" x="-6114.378" y="1455.541" width="107.608" height="28.027"/></clipPath></defs><title>HendricksLandingLogo</title><path class="cls-2" d="M-6114.378,1457.467v-0.686h4.954v0.674c-0.145.008-.285,0.015-0.424,0.025a0.926,0.926,0,0,0-.964.948c-0.02.259-.019,0.519-0.02,0.779,0,0.709,0,1.418,0,2.127v0.2h5.077a0.43,0.43,0,0,0,.016-0.081c0-.957,0-1.914-0.007-2.871a1.634,1.634,0,0,0-.046-0.35,0.89,0.89,0,0,0-.87-0.745c-0.14-.014-0.281-0.019-0.433-0.03v-0.671h4.925v0.671c-0.157.008-.309,0.011-0.46,0.023a0.923,0.923,0,0,0-.948.926,3.529,3.529,0,0,0-.02.371q0,3.509,0,7.019a2.641,2.641,0,0,0,.073.63,0.891,0.891,0,0,0,.931.694c0.135,0.01.271,0,.421,0v0.7h-4.921v-0.693h0.17a1.026,1.026,0,0,0,1.177-1.144c0.017-.91.008-1.819,0.009-2.729,0-.212,0-0.424,0-0.647h-5.094v0.2q0,1.5,0,3a3.417,3.417,0,0,0,.022.389,0.944,0.944,0,0,0,.988.931c0.128,0.009.257,0,.4,0v0.7h-4.953v-0.678c0.184-.013.361-0.013,0.533-0.04a0.9,0.9,0,0,0,.828-0.815,2.55,2.55,0,0,0,.039-0.44q0-3.554,0-7.107a2.109,2.109,0,0,0-.01-0.248,1,1,0,0,0-1.129-1.024c-0.082,0-.164,0-0.263,0h0Z" transform="translate(6114.378 -1455.541)"/><path class="cls-2" d="M-6058.9,1462.378a6.7,6.7,0,0,0,1.915-.146,1.991,1.991,0,0,0,1.565-1.7,4.974,4.974,0,0,0,.045-1.058,2.162,2.162,0,0,0-1.615-2.05,2.969,2.969,0,0,0-.693-0.13c-0.4-.021-0.808-0.006-1.217-0.006v5.09h0Zm-3.694-5.616c0.377-.026.741-0.057,1.106-0.077,1.2-.066,2.4-0.155,3.607-0.184a7.985,7.985,0,0,1,2.763.351,3.016,3.016,0,0,1,1.7,4.341,3.167,3.167,0,0,1-1.712,1.358l-0.183.067a3.234,3.234,0,0,1,.267.3c0.468,0.666.922,1.342,1.4,2,0.375,0.522.759,1.039,1.167,1.535a2.327,2.327,0,0,0,1.562.819c0.082,0.011.163,0.024,0.245,0.036a0.34,0.34,0,0,1,.043.014v0.7h-0.371a11,11,0,0,1-2.329-.141,2.761,2.761,0,0,1-1.717-1.044c-0.45-.605-0.845-1.252-1.28-1.869-0.411-.583-0.842-1.151-1.268-1.724a0.223,0.223,0,0,0-.138-0.1c-0.383-.008-0.766,0-1.162,0,0,0.072-.01.129-0.01,0.186,0,0.863,0,1.725,0,2.588a2.068,2.068,0,0,0,.039.387,0.951,0.951,0,0,0,1.02.82c0.2,0.011.4,0,.63,0v0.693h-5.413v-0.672c0.233-.016.462-0.022,0.688-0.049a0.892,0.892,0,0,0,.866-0.887c0.018-.194.029-0.389,0.029-0.583q0-3.359,0-6.718a4.744,4.744,0,0,0-.033-0.548,0.906,0.906,0,0,0-.9-0.872c-0.2-.017-0.4-0.02-0.61-0.029v-0.695h0Z" transform="translate(6114.378 -1455.541)"/><path class="cls-2" d="M-6070.4,1467.118v-0.027c0.159,0,.318,0,0.477,0a3.056,3.056,0,0,0,.317-0.033,3.646,3.646,0,0,0,3-2.09,6.317,6.317,0,0,0,.033-5.383,3.4,3.4,0,0,0-2.344-2.018,7.01,7.01,0,0,0-2.6-.131,0.191,0.191,0,0,0-.205.24q0.008,4.155.006,8.311a3.073,3.073,0,0,0,.045.528,0.6,0.6,0,0,0,.549.542c0.238,0.037.481,0.044,0.722,0.064h0Zm-4.885.7c0-.049-0.012-0.089-0.012-0.128,0-.182,0-0.364,0-0.552,0.184-.017.353-0.028,0.521-0.048a0.9,0.9,0,0,0,.9-0.93c0.008-.1.009-0.2,0.009-0.3q0-3.456,0-6.911a4.327,4.327,0,0,0-.036-0.565,0.89,0.89,0,0,0-.947-0.9c-0.141-.012-0.282-0.018-0.434-0.027v-0.7c0.238-.015.477-0.034,0.716-0.045,1.379-.065,2.758-0.153,4.138-0.183a10.872,10.872,0,0,1,3.125.323,4.586,4.586,0,0,1,3.354,3.377,6.083,6.083,0,0,1-1.123,5.705,4.782,4.782,0,0,1-2.835,1.647,10.745,10.745,0,0,1-2.285.239c-1.642.01-3.284,0-4.927,0-0.051,0-.1-0.006-0.163-0.009h0Z" transform="translate(6114.378 -1455.541)"/><path class="cls-2" d="M-6026.386,1467.121v0.7h-5.032v-0.7c0.143,0,.293.008,0.443,0a0.941,0.941,0,0,0,.989-0.965c0.01-.106.017-0.212,0.017-0.318q0-3.536,0-7.072a2.723,2.723,0,0,0-.048-0.51,0.872,0.872,0,0,0-.861-0.77c-0.176-.016-0.353-0.02-0.541-0.03v-0.669h5.031v0.669c-0.182.009-.357,0.016-0.532,0.028a0.825,0.825,0,0,0-.853.763,2.436,2.436,0,0,0-.042.422q0,1.631,0,3.261c0,0.04.006,0.081,0.012,0.154,0.145-.042.281-0.072,0.41-0.122a3.442,3.442,0,0,0,1.17-.783,8.624,8.624,0,0,0,1.748-2.453,2.513,2.513,0,0,0,.172-0.5,0.525,0.525,0,0,0-.447-0.706c-0.2-.042-0.407-0.05-0.622-0.075v-0.661h4.124c0,0.2.007,0.4-.006,0.594a0.179,0.179,0,0,1-.128.1c-0.174.031-.351,0.046-0.527,0.067a1.561,1.561,0,0,0-1.116.679c-0.227.316-.437,0.644-0.649,0.971-0.273.421-.523,0.858-0.816,1.264s-0.617.772-.928,1.155a25.187,25.187,0,0,1,2.983,3.943,9.064,9.064,0,0,0,.934,1.081,1.817,1.817,0,0,0,1.243.485c0.034,0,.068.009,0.112,0.014v0.682h-5.271v-0.678c0.17-.016.335-0.023,0.5-0.05a1.349,1.349,0,0,0,.353-0.105,0.331,0.331,0,0,0,.174-0.486,5.524,5.524,0,0,0-.492-0.817q-1-1.289-2.026-2.551a1.055,1.055,0,0,0-.9-0.454v0.188c0,1.01,0,2.021,0,3.031a2.292,2.292,0,0,0,.038.4,0.929,0.929,0,0,0,1,.819c0.128,0.008.258,0,.4,0h0Z" transform="translate(6114.378 -1455.541)"/><path class="cls-2" d="M-6088.832,1457.459v-0.689h0.19c0.928,0,1.855,0,2.783,0a0.394,0.394,0,0,1,.343.16q2.968,3.569,5.943,7.132a0.922,0.922,0,0,0,.221.207V1464.1q0-2.6,0-5.193a3.891,3.891,0,0,0-.037-0.582,0.841,0.841,0,0,0-.93-0.84c-0.211-.013-0.423,0-0.648,0v-0.705h3.979v0.674l-0.346.019-0.142.007a0.821,0.821,0,0,0-.93.977q0,4.582,0,9.163v0.255c-0.279,0-.548,0-0.817,0a0.249,0.249,0,0,1-.131-0.1q-3.037-3.65-6.073-7.3l-1.087-1.308c-0.037-.045-0.078-0.087-0.136-0.152-0.007.068-.016,0.111-0.016,0.154q0,3.243,0,6.487a4.592,4.592,0,0,0,.033.53,0.943,0.943,0,0,0,.933.913c0.181,0.022.363,0.032,0.568,0.05v0.678h-3.73v-0.677c0.161-.016.319-0.026,0.475-0.049a0.806,0.806,0,0,0,.754-0.8c0.012-.141.019-0.283,0.019-0.424q0-3.908,0-7.816a0.275,0.275,0,0,0-.173-0.308c-0.265-.093-0.532-0.178-0.8-0.259a1.352,1.352,0,0,0-.25-0.026h0Z" transform="translate(6114.378 -1455.541)"/><path class="cls-2" d="M-6091.278,1459.348h-0.589c-0.041-.224-0.076-0.444-0.121-0.662a3.058,3.058,0,0,0-.1-0.34,0.764,0.764,0,0,0-.769-0.588q-0.726-.007-1.453-0.008c-0.6,0-1.205,0-1.808,0h-0.2v3.989h2.585a0.936,0.936,0,0,0,1.057-.979c0.009-.093.009-0.186,0.013-0.288h0.614v3.517h-0.6c-0.016-.169-0.025-0.339-0.049-0.506a0.721,0.721,0,0,0-.635-0.684,4.031,4.031,0,0,0-.738-0.071c-0.715-.009-1.429,0-2.144,0-0.028,0-.057,0-0.092.007a0.391,0.391,0,0,0-.014.071q0,1.683.006,3.367a1.5,1.5,0,0,0,.032.281,0.416,0.416,0,0,0,.465.39c0.945,0,1.89.007,2.835,0a1.325,1.325,0,0,0,1.351-.967c0.08-.234.146-0.473,0.2-0.713a0.138,0.138,0,0,1,.165-0.133c0.146,0.008.293,0,.46,0-0.021.362-.04,0.707-0.062,1.052-0.033.518-.074,1.036-0.1,1.555a0.168,0.168,0,0,1-.207.2q-4.466-.008-8.932,0h-0.187v-0.7h0.279c0.159,0,.319,0,0.478-0.006a0.976,0.976,0,0,0,1.056-1.07c0.017-.9.014-1.807,0.015-2.711q0-2.18,0-4.359c0-.171-0.007-0.342-0.017-0.513a0.916,0.916,0,0,0-.959-0.983c-0.169-.013-0.339-0.02-0.516-0.03v-0.673h8.519l0.153,2.567h0Z" transform="translate(6114.378 -1455.541)"/><path class="cls-2" d="M-6009.152,1456.784c0.1,0.953.2,1.9,0.3,2.853h-0.63a3.732,3.732,0,0,0-.58-1.3,2.291,2.291,0,0,0-2.027-1.057,1.953,1.953,0,0,0-.745.191,1.169,1.169,0,0,0-.5,1.7,2.439,2.439,0,0,0,.836.827c0.628,0.408,1.272.793,1.9,1.206a6.281,6.281,0,0,1,1.607,1.482,3.376,3.376,0,0,1-1.731,5.27,4.293,4.293,0,0,1-2.391-.107c-0.335-.094-0.664-0.208-1-0.306a0.3,0.3,0,0,0-.431.159c-0.106.176-.266,0.068-0.4,0.082a0.329,0.329,0,0,1-.08-0.182c-0.118-.949-0.23-1.9-0.344-2.847-0.007-.063-0.01-0.126-0.016-0.208,0.187,0,.358-0.01.526,0.007a0.217,0.217,0,0,1,.117.139,5.414,5.414,0,0,0,.663,1.422,2.283,2.283,0,0,0,1.808,1.095,1.715,1.715,0,0,0,1.651-.8,1.734,1.734,0,0,0,.035-1.835,2.957,2.957,0,0,0-1.051-1.058c-0.563-.368-1.143-0.709-1.71-1.072a5.016,5.016,0,0,1-1.419-1.266,2.916,2.916,0,0,1,2.111-4.654,5.5,5.5,0,0,1,2.367.308,1.754,1.754,0,0,0,.355.1,0.561,0.561,0,0,0,.315-0.056,0.509,0.509,0,0,1,.461-0.1h0Z" transform="translate(6114.378 -1455.541)"/><path class="cls-2" d="M-6033.96,1457.059c0.048,1.043.094,2.067,0.142,3.113-0.189,0-.365.008-0.539-0.006a0.225,0.225,0,0,1-.109-0.13,11.263,11.263,0,0,0-.541-1.187,3.065,3.065,0,0,0-4.644-.687,4.218,4.218,0,0,0-1.41,2.416,6.316,6.316,0,0,0,.661,4.737,3.7,3.7,0,0,0,2.113,1.737,3.082,3.082,0,0,0,3.482-1.172,8.561,8.561,0,0,0,.635-1.1,0.207,0.207,0,0,1,.225-0.142c0.146,0.011.293,0,.47,0a15.073,15.073,0,0,1-.865,3.241,4.712,4.712,0,0,0-2.3.077,5.7,5.7,0,0,1-4.722-1.048,5.48,5.48,0,0,1-2.128-3.748,5.684,5.684,0,0,1,1.566-4.879,5.777,5.777,0,0,1,3.375-1.721,6.12,6.12,0,0,1,3.549.556,0.941,0.941,0,0,0,.267.09,0.344,0.344,0,0,0,.247-0.039,0.637,0.637,0,0,1,.53-0.108h0Z" transform="translate(6114.378 -1455.541)"/><path class="cls-2" d="M-6049.728,1457.455v-0.671h4.91v0.672c-0.151.008-.3,0.011-0.453,0.024a0.938,0.938,0,0,0-.947.877,2.947,2.947,0,0,0-.034.441q0,3.526,0,7.052a2.784,2.784,0,0,0,.035.441,0.924,0.924,0,0,0,.985.83c0.134,0.01.27,0,.415,0v0.7h-4.909v-0.69c0.072,0,.146,0,0.22,0a1,1,0,0,0,1.114-1.054c0.005-.076.006-0.153,0.006-0.23q0-3.508,0-7.016a3.076,3.076,0,0,0-.064-0.632,0.831,0.831,0,0,0-.812-0.711c-0.151-.015-0.3-0.02-0.464-0.03h0Z" transform="translate(6114.378 -1455.541)"/><g class="cls-3"><path class="cls-2" d="M-6052.1,1477.938v0.386q0,1.684,0,3.368a4.591,4.591,0,0,0,.026.459,0.641,0.641,0,0,0,.662.647l0.269,0.028v0.532h-2.6v-0.535c0.064-.006.127-0.014,0.191-0.019a0.638,0.638,0,0,0,.695-0.666,5.3,5.3,0,0,0,.032-0.566c0-1.483,0-2.966.005-4.449a0.3,0.3,0,0,0-.194-0.319c-0.207-.078-0.422-0.134-0.658-0.207V1476.1c0.048,0,.094-0.011.14-0.011,0.709,0,1.418,0,2.127,0a0.288,0.288,0,0,1,.245.137q1.788,2.189,3.578,4.375c0.04,0.049.083,0.1,0.145,0.169,0.005-.077.012-0.126,0.012-0.175q0-1.524,0-3.049c0-.059,0-0.118-0.006-0.177a0.656,0.656,0,0,0-.695-0.709l-0.218-.023v-0.529h2.563v0.529c-0.1.01-.2,0.018-0.3,0.03a0.587,0.587,0,0,0-.57.534,2.888,2.888,0,0,0-.038.476q0,2.774,0,5.548v0.229c-0.263,0-.509.006-0.755-0.005a0.262,0.262,0,0,1-.148-0.107q-2.173-2.629-4.342-5.261c-0.044-.054-0.09-0.106-0.136-0.158l-0.038.018h0Z" transform="translate(6114.378 -1455.541)"/><path class="cls-2" d="M-6068.041,1476.062v2.425a3.224,3.224,0,0,1-.41-0.006,0.2,0.2,0,0,1-.1-0.136,2.572,2.572,0,0,0-.592-1.191,2.017,2.017,0,0,0-3.008.086,3.343,3.343,0,0,0-.742,1.9,4.441,4.441,0,0,0,.364,2.384,2.254,2.254,0,0,0,1.236,1.23,1.782,1.782,0,0,0,1.363-.026,0.259,0.259,0,0,0,.18-0.283c-0.014-.413,0-0.827-0.012-1.24a0.721,0.721,0,0,0-.78-0.811c-0.117-.009-0.236,0-0.367,0v-0.552h3.6v0.523a0.055,0.055,0,0,1-.022.018,0.679,0.679,0,0,0-.686.795c-0.015.537,0,1.075-.013,1.612a0.23,0.23,0,0,1-.092.178,6.127,6.127,0,0,1-4.109.414,3.21,3.21,0,0,1-2.353-2.479,4.062,4.062,0,0,1,.534-3.456,3.568,3.568,0,0,1,2.736-1.525,6.5,6.5,0,0,1,2.24.257c0.137,0.035.276,0.063,0.415,0.09a0.278,0.278,0,0,0,.291-0.108,0.757,0.757,0,0,1,.333-0.095h0Z" transform="translate(6114.378 -1455.541)"/></g><path class="cls-2" d="M-6058.921,1476.1v0.534c-0.116.012-.228,0.018-0.337,0.034a0.581,0.581,0,0,0-.545.538,2.347,2.347,0,0,0-.036.387q0,2.144,0,4.288a0.751,0.751,0,0,0,.834.932,0.649,0.649,0,0,1,.08.014v0.532h-3.5v-0.534c0.077-.009.152-0.019,0.226-0.027a0.6,0.6,0,0,0,.593-0.532,1.515,1.515,0,0,0,.036-0.3q0-2.259,0-4.518a1.347,1.347,0,0,0-.046-0.314,0.581,0.581,0,0,0-.531-0.471c-0.087-.012-0.175-0.019-0.275-0.029V1476.1h3.506Z" transform="translate(6114.378 -1455.541)"/><path class="cls-2" d="M-6040.289,1480.076c-0.052.192-.091,0.377-0.151,0.554a0.644,0.644,0,0,1-.668.446,0.593,0.593,0,0,1-.591-0.421,1.07,1.07,0,0,1,.778-1.444,0.985,0.985,0,0,1,.556.106,1.8,1.8,0,0,1,.821,1.774,1.578,1.578,0,0,1-1.329,1.438,1.644,1.644,0,0,1-1.693-.8,2.9,2.9,0,0,1,.363-3.545c0.251-.253.546-0.462,0.826-0.694l-0.268-.157a0.37,0.37,0,0,1-.178-0.394,0.376,0.376,0,0,1,.26-0.344,2.41,2.41,0,0,1,1.379-.023,5.709,5.709,0,0,1,1.392.555,9.13,9.13,0,0,0,3.863,1.049c1.562,0.073,3.127.1,4.69,0.117,1.925,0.026,3.85.027,5.775,0.038,0.171,0,.343,0,0.514-0.009s0.2,0.1.21,0.221-0.075.154-.18,0.155c-0.673.005-1.346,0.019-2.019,0.015-1.169-.007-2.338-0.009-3.507-0.043q-2.982-.086-5.962-0.213a15.237,15.237,0,0,1-2.52-.462,11.054,11.054,0,0,0-1.9-.322,2.715,2.715,0,0,0-2.418,1.123,2.327,2.327,0,0,0,.108,2.872,1.27,1.27,0,0,0,1.84.208,1.347,1.347,0,0,0,.325-1.568,0.338,0.338,0,0,0-.317-0.236h0Z" transform="translate(6114.378 -1455.541)"/><g class="cls-3"><path class="cls-2" d="M-6079.972,1477.641a3.166,3.166,0,0,1,1.338,1.33,2.872,2.872,0,0,1-.282,3.113,1.573,1.573,0,0,1-2.712-.428,1.8,1.8,0,0,1,.163-1.678,1.437,1.437,0,0,1,.574-0.563,0.808,0.808,0,0,1,.856.049,1.1,1.1,0,0,1,.408,1.369,0.562,0.562,0,0,1-.589.366,0.626,0.626,0,0,1-.625-0.4c-0.061-.189-0.108-0.384-0.164-0.582a0.269,0.269,0,0,0-.29.178,1.351,1.351,0,0,0,.288,1.605,1.165,1.165,0,0,0,1.528.068,2.062,2.062,0,0,0,.832-2.01,2.519,2.519,0,0,0-2.257-2.222,4.675,4.675,0,0,0-1.891.161c-0.789.173-1.571,0.393-2.369,0.5a22.717,22.717,0,0,1-2.541.186c-2.378.064-4.757,0.1-7.136,0.145-0.785.014-1.571,0-2.356,0-0.1,0-.227.017-0.223-0.15a0.205,0.205,0,0,1,.242-0.225c1.73,0,3.461,0,5.191-.015,1.1-.007,2.209-0.012,3.312-0.047,1.043-.034,2.089-0.065,3.126-0.173a8.757,8.757,0,0,0,3.292-1.078,3.663,3.663,0,0,1,2.066-.512,2.527,2.527,0,0,1,.414.087,0.376,0.376,0,0,1,.3.355,0.388,0.388,0,0,1-.209.414c-0.087.049-.175,0.1-0.285,0.158h0Z" transform="translate(6114.378 -1455.541)"/><path class="cls-2" d="M-6019.089,1460.385c-0.04-.259-0.076-0.49-0.114-0.736,0.123-.026.238-0.046,0.351-0.073a1.491,1.491,0,0,0,1.213-1.267c0.036-.328-0.043-0.4-0.373-0.362a2.071,2.071,0,0,1-.509.02,0.921,0.921,0,0,1-.828-0.8,1.8,1.8,0,0,1-.019-0.6,1.1,1.1,0,0,1,1.491-.876,1.341,1.341,0,0,1,.926.857,3.067,3.067,0,0,1-.38,2.991,2.034,2.034,0,0,1-1.553.842c-0.063.005-.127,0-0.2,0h0Z" transform="translate(6114.378 -1455.541)"/></g><path class="cls-2" d="M-6074.56,1468.641v-0.263h0.219c1.624,0,3.248.01,4.872-.009a8.934,8.934,0,0,0,2.561-.386,4.873,4.873,0,0,0,3.031-2.691,6.235,6.235,0,0,0,.617-2.771,8.355,8.355,0,0,0-.254-2.436c-0.094-.307-0.234-0.6-0.363-0.922,0.087,0.118.168,0.219,0.238,0.328a3.6,3.6,0,0,1,.558,1.7,13.624,13.624,0,0,1,.066,2.067,5.5,5.5,0,0,1-2.52,4.515,5.583,5.583,0,0,1-2.145.731,13.652,13.652,0,0,1-2.257.144c-1.465-.006-2.93,0-4.394,0h-0.23Z" transform="translate(6114.378 -1455.541)"/><path class="cls-2" d="M-6078.7,1468.435c0.18,0,.349-0.01.516,0s0.218-.049.217-0.219q-0.007-4.358,0-8.715c0-.271.012-0.542,0.028-0.813a0.591,0.591,0,0,1,.48-0.584,3.957,3.957,0,0,1,.734-0.081c0.145-.006.208-0.049,0.194-0.195a0.216,0.216,0,0,1,.008-0.121,0.163,0.163,0,0,1,.11-0.08,0.3,0.3,0,0,1,.131.078,0.082,0.082,0,0,1,.005.051,0.98,0.98,0,0,1-.028.465,0.809,0.809,0,0,1-.42.068c-0.111.015-.223,0.026-0.332,0.051a0.689,0.689,0,0,0-.622.7,2.684,2.684,0,0,0-.015.3q0,4.552,0,9.1c0,0.258,0,.258-0.258.258h-0.372c-0.228,0-.261-0.023-0.375-0.275h0Z" transform="translate(6114.378 -1455.541)"/><path class="cls-2" d="M-6099.555,1468.631v-0.253h8.757c0.263,0,.257,0,0.273-0.261,0.043-.7.093-1.4,0.138-2.1,0.015-.234.173-0.095,0.286-0.142-0.021.391-.039,0.749-0.061,1.106-0.032.5-.072,1-0.1,1.5a0.137,0.137,0,0,1-.166.162q-4.518,0-9.036,0c-0.023,0-.047,0-0.093-0.009h0Z" transform="translate(6114.378 -1455.541)"/><path class="cls-2" d="M-6039.18,1466.088a4.457,4.457,0,0,1-1.546-2.628,5.168,5.168,0,0,1,1.285-4.545,3.156,3.156,0,0,1,2.784-.923,1.743,1.743,0,0,1,1.093.665,1.793,1.793,0,0,0-.858-0.4,3.244,3.244,0,0,0-2.21.511,3.822,3.822,0,0,0-1.547,2.054,5.406,5.406,0,0,0-.165,3.369,5.137,5.137,0,0,0,1.121,1.848l0.044,0.054h0Z" transform="translate(6114.378 -1455.541)"/><path class="cls-2" d="M-6014.264,1468.587c-0.008-.078-0.016-0.148-0.023-0.218l0.108,0.1a1.429,1.429,0,0,1,.08-0.244,0.289,0.289,0,0,1,.374-0.146c0.479,0.142.956,0.3,1.441,0.418a3.358,3.358,0,0,0,2.711-.339,3.511,3.511,0,0,0,1.683-2.691,4.817,4.817,0,0,0-.075-1.723,5.6,5.6,0,0,0-.249-0.65,2.054,2.054,0,0,1,.562,1.147,4.925,4.925,0,0,1-.088,2.139,3.364,3.364,0,0,1-2.566,2.453,4.069,4.069,0,0,1-1.991-.14c-0.386-.1-0.764-0.242-1.151-0.34a0.4,0.4,0,0,0-.315.081,0.423,0.423,0,0,1-.5.153h0Z" transform="translate(6114.378 -1455.541)"/><path class="cls-2" d="M-6044.107,1458.274a5.2,5.2,0,0,0-.559.04,0.946,0.946,0,0,0-.853.916,5.135,5.135,0,0,0-.034.582q0,3.082,0,6.164a5.709,5.709,0,0,0,.078.664,0.609,0.609,0,0,1-.308-0.46,2.777,2.777,0,0,1-.036-0.44q0-3.144,0-6.288a3.264,3.264,0,0,1,.067-0.684,0.887,0.887,0,0,1,.89-0.741c0.053,0,.106,0,0.16,0,0.294-.006.29-0.006,0.337-0.295a0.161,0.161,0,0,1,.122-0.1,0.162,0.162,0,0,1,.128.09c0.013,0.181.006,0.363,0.006,0.553h0Z" transform="translate(6114.378 -1455.541)"/><path class="cls-2" d="M-6041.031,1467.552a6.4,6.4,0,0,0,2.757,1.028,6.91,6.91,0,0,0,2.287-.112,4.681,4.681,0,0,1,1.666-.126c0.029,0,.059,0,0.088.009,0.337,0.058.356,0.064,0.451-.267,0.228-.791.436-1.589,0.656-2.383a0.318,0.318,0,0,1,.106-0.2c0.16-.068.248,0.011,0.218,0.186a15.9,15.9,0,0,1-.779,2.878,0.123,0.123,0,0,1-.17.1,3.674,3.674,0,0,0-1.717.027,9.022,9.022,0,0,1-2.073.2,6.169,6.169,0,0,1-3.491-1.339h0Z" transform="translate(6114.378 -1455.541)"/><path class="cls-2" d="M-6101.463,1458.3a4.366,4.366,0,0,0-.51,0,0.967,0.967,0,0,0-.91,1.064q-0.018,1.682-.02,3.365c0,1.051-.005,2.1,0,3.153,0,0.249.048,0.5,0.072,0.73a0.582,0.582,0,0,1-.315-0.527c-0.01-.123-0.015-0.248-0.015-0.371q0-3.189,0-6.377a2.935,2.935,0,0,1,.047-0.545,0.874,0.874,0,0,1,.9-0.764l0.159,0c0.289,0,.285-0.005.332-0.3a0.161,0.161,0,0,1,.123-0.1,0.164,0.164,0,0,1,.129.09c0.013,0.18.006,0.362,0.006,0.575h0Z" transform="translate(6114.378 -1455.541)"/><path class="cls-2" d="M-6020.534,1458.273c-0.219.03-.416,0.062-0.615,0.083a1.547,1.547,0,0,0-1.175.7c-0.319.482-.608,0.983-0.9,1.479a6.437,6.437,0,0,1-1.2,1.549l-0.294-.231a0.5,0.5,0,0,1,.052-0.071,6.837,6.837,0,0,0,1.21-1.607c0.241-.413.482-0.826,0.732-1.233a1.759,1.759,0,0,1,1.519-.889,1.168,1.168,0,0,1,.123-0.016,0.235,0.235,0,0,0,.295-0.3,0.2,0.2,0,0,1,.131-0.109c0.081-.022.131,0.02,0.128,0.117-0.005.171,0,.342,0,0.528h0Z" transform="translate(6114.378 -1455.541)"/><path class="cls-2" d="M-6106.22,1463.163v0.265h-0.212c-1.169,0-2.338,0-3.507,0a0.162,0.162,0,0,0-.2.2c0.011,0.856.011,1.711,0.026,2.567a2.377,2.377,0,0,0,.093.445,0.689,0.689,0,0,1-.353-0.609c-0.017-.909-0.013-1.818-0.021-2.727,0-.147.091-0.137,0.189-0.137h3.985Z" transform="translate(6114.378 -1455.541)"/><path class="cls-2" d="M-6054.556,1462.885c0.3-.144.6-0.264,0.882-0.427a2.394,2.394,0,0,0,1.222-2.156,3.945,3.945,0,0,0-.178-1.414,4.81,4.81,0,0,1-.187-0.522,4.042,4.042,0,0,1,.367.6,3.686,3.686,0,0,1,.1,2.544,2.2,2.2,0,0,1-1.075,1.245,5.186,5.186,0,0,1-.624.291c-0.308.124-.31,0.118-0.51-0.16h0Z" transform="translate(6114.378 -1455.541)"/><path class="cls-2" d="M-6092.5,1458.589h-3.12v0.214q0,1.2,0,2.41c0,0.092.01,0.177-.128,0.177s-0.138-.071-0.138-0.17q0-1.373,0-2.746c0-.115.023-0.17,0.154-0.169,0.909,0.006,1.819,0,2.728.006a0.543,0.543,0,0,1,.5.278h0Z" transform="translate(6114.378 -1455.541)"/><path class="cls-2" d="M-6016.579,1456.919a1.737,1.737,0,0,1,.5,1.042,3.148,3.148,0,0,1-.394,2.2,2.071,2.071,0,0,1-1.726,1.044,0.151,0.151,0,0,1-.181-0.157c-0.017-.114.063-0.125,0.138-0.139a2.251,2.251,0,0,0,1.8-1.738,3.081,3.081,0,0,0-.139-2.247h0Z" transform="translate(6114.378 -1455.541)"/><path class="cls-2" d="M-6056.767,1467.993h0.238v0.635c-0.051,0-.1.013-0.153,0.013q-2.516,0-5.033,0c-0.118,0-.209-0.014-0.176-0.158a0.189,0.189,0,0,1,.106-0.1,0.377,0.377,0,0,1,.14,0h4.572c0.306,0,.295.03,0.292-0.283a0.836,0.836,0,0,1,.013-0.1h0Z" transform="translate(6114.378 -1455.541)"/><path class="cls-2" d="M-6019.683,1467.964l0.239,0.031v0.634h-5.237v-0.251h4.691c0.308,0,.291.03,0.291-0.282a1.206,1.206,0,0,1,.015-0.132h0Z" transform="translate(6114.378 -1455.541)"/><path class="cls-2" d="M-6086.215,1460.2a0.618,0.618,0,0,1,.261.51q-0.013,2.586,0,5.171a7.6,7.6,0,0,0,.077.767,0.718,0.718,0,0,1-.32-0.568,2.338,2.338,0,0,1-.017-0.318q0-2.683,0-5.366v-0.2h0Z" transform="translate(6114.378 -1455.541)"/><path class="cls-2" d="M-6025.683,1468v0.625h-4.986v-0.246h4.434c0.311,0,.3.033,0.3-0.277a0.977,0.977,0,0,1,.011-0.1h0.244Z" transform="translate(6114.378 -1455.541)"/><path class="cls-2" d="M-6108.709,1468.008v0.62h-4.918v-0.25h0.209c1.417,0,2.835,0,4.252,0a0.157,0.157,0,0,0,.194-0.19c0-.223.014-0.231,0.263-0.183h0Z" transform="translate(6114.378 -1455.541)"/><path class="cls-2" d="M-6093.136,1463.6c-0.391-.019-0.794-0.046-1.2-0.057-0.377-.01-0.755,0-1.133,0-0.1,0-.155.016-0.154,0.134,0,0.832,0,1.664.007,2.5a2.627,2.627,0,0,0,.031.276,0.343,0.343,0,0,1-.256-0.3,2.534,2.534,0,0,1-.044-0.456c0-.749,0-1.5,0-2.248,0-.046.007-0.092,0.011-0.132a0.118,0.118,0,0,1,.038-0.022c0.713,0.008,1.426.009,2.139,0.031a0.646,0.646,0,0,1,.559.285h0Z" transform="translate(6114.378 -1455.541)"/><path class="cls-2" d="M-6106.361,1468.624v-0.244h4.625l0.017-.38h0.242v0.624h-4.884Z" transform="translate(6114.378 -1455.541)"/><path class="cls-2" d="M-6044.359,1468h0.241v0.631c-0.055,0-.106.012-0.157,0.012q-2.266,0-4.532,0a0.22,0.22,0,0,1-.173-0.083c-0.038-.112.005-0.181,0.15-0.179,0.455,0.008.909,0,1.363,0h2.851c0.243,0,.242,0,0.249-0.25,0-.04.006-0.08,0.01-0.131h0Z" transform="translate(6114.378 -1455.541)"/><path class="cls-2" d="M-6027.372,1461.41a0.18,0.18,0,0,1-.013-0.049c0.009-.814.006-1.628,0.034-2.442a0.84,0.84,0,0,1,.926-0.893l0.159,0c0.295,0,.29,0,0.332-0.285a0.2,0.2,0,0,1,.133-0.109c0.082-.022.13,0.022,0.127,0.117-0.005.17,0,.341,0,0.526a6.122,6.122,0,0,0-.62.045,0.841,0.841,0,0,0-.793.9c-0.024.648-.025,1.3-0.034,1.946,0,0.243,0,.243-0.251.247h0Z" transform="translate(6114.378 -1455.541)"/><path class="cls-2" d="M-6108.7,1458.3a3.982,3.982,0,0,0-.488,0,0.966,0.966,0,0,0-.928,1.049c-0.012.56-.015,1.121-0.021,1.682,0,0.091.005,0.2-.129,0.174a0.171,0.171,0,0,1-.12-0.107c0.007-.766-0.011-1.535.049-2.3a0.828,0.828,0,0,1,.887-0.771c0.041,0,.083,0,0.124,0a0.59,0.59,0,0,0,.291-0.027,0.886,0.886,0,0,0,.068-0.271,0.2,0.2,0,0,1,.148-0.1,0.156,0.156,0,0,1,.113.1c0.013,0.175.005,0.351,0.005,0.561h0Z" transform="translate(6114.378 -1455.541)"/><path class="cls-2" d="M-6049.793,1473.19a0.741,0.741,0,0,0,.765-1.05,0.816,0.816,0,0,0-.7-0.409,0.171,0.171,0,0,0-.234.18c-0.007.353-.013,0.705-0.028,1.058-0.007.166,0.045,0.251,0.2,0.221h0Zm-0.824.017a0.534,0.534,0,0,1,.155-0.044c0.141,0,.163-0.077.166-0.192,0.009-.322.02-0.645,0.038-0.967,0.008-.145,0-0.26-0.184-0.273a0.379,0.379,0,0,1-.107-0.092c0.127-.008.21-0.017,0.294-0.017,0.306,0,.614-0.01.919,0a0.847,0.847,0,0,1,.738.7,0.75,0.75,0,0,1-.549.854,4.33,4.33,0,0,1-.783.108c-0.226.017-.453,0-0.68,0l-0.008-.087h0Z" transform="translate(6114.378 -1455.541)"/><path class="cls-2" d="M-6108.785,1473.206a2.657,2.657,0,0,0,.356-0.093,0.7,0.7,0,0,0,.462-0.682,0.776,0.776,0,0,0-.864-0.694,0.2,0.2,0,0,0-.135.137c-0.023.363-.024,0.728-0.042,1.092-0.008.167,0.041,0.253,0.224,0.24h0Zm-0.852,0a0.246,0.246,0,0,1,.092-0.038c0.227,0.013.226-.126,0.225-0.3,0-.282.014-0.564,0.038-0.845,0.014-.159.011-0.286-0.189-0.3a0.086,0.086,0,0,1-.043-0.029,0.094,0.094,0,0,1-.014-0.031,0.069,0.069,0,0,1,.018-0.028,11.268,11.268,0,0,1,1.251.009,0.8,0.8,0,0,1,.649.831,0.759,0.759,0,0,1-.621.719,6.686,6.686,0,0,1-.874.076c-0.176.01-.354,0-0.531,0l0-.069h0Z" transform="translate(6114.378 -1455.541)"/><path class="cls-2" d="M-6084.094,1472.547h0.01c0,0.159-.009.318,0,0.475a0.209,0.209,0,0,0,.1.156,0.857,0.857,0,0,0,.89-0.459,0.671,0.671,0,0,0-.1-0.685,0.851,0.851,0,0,0-.741-0.3,0.194,0.194,0,0,0-.116.14c-0.027.221-.035,0.445-0.05,0.668h0Zm-0.618.665a0.4,0.4,0,0,1,.139-0.046c0.175,0.011.18-.1,0.183-0.227,0.006-.294.014-0.588,0.034-0.881,0.011-.163.031-0.313-0.2-0.331a0.312,0.312,0,0,1-.083-0.089c0.173-.01.309-0.024,0.446-0.025q0.363,0,.726.011a0.833,0.833,0,0,1,.767.689,0.748,0.748,0,0,1-.544.87,4.144,4.144,0,0,1-.766.108c-0.232.017-.466,0-0.7,0l-0.007-.083h0Z" transform="translate(6114.378 -1455.541)"/><path class="cls-2" d="M-6013.466,1472.8h-0.025c0,0.035,0,.071-0.005.106-0.006.269,0.024,0.3,0.29,0.277a1.012,1.012,0,0,0,.273-0.067,0.679,0.679,0,0,0,.459-0.824,0.787,0.787,0,0,0-.768-0.567,0.176,0.176,0,0,0-.224.2q0,0.44,0,.88h0Zm-0.653.405a0.408,0.408,0,0,1,.138-0.044c0.175,0.011.18-.1,0.183-0.227,0.006-.293.013-0.586,0.035-0.879,0.012-.164.028-0.311-0.194-0.331a0.292,0.292,0,0,1-.076-0.088c0.115-.007.2-0.016,0.282-0.017,0.306,0,.613-0.01.918,0.006a0.844,0.844,0,0,1,.737.721,0.755,0.755,0,0,1-.536.828,4.011,4.011,0,0,1-.763.114c-0.237.018-.476,0-0.714,0l-0.009-.086h0Z" transform="translate(6114.378 -1455.541)"/><path class="cls-2" d="M-6069.765,1472.046c0.068,0.1-.063.308,0.129,0.348a0.43,0.43,0,0,0,.434-0.383,0.352,0.352,0,0,0-.4-0.276c-0.2.013-.132,0.186-0.167,0.311h0Zm0.008,0.764c0.007,0.348.027,0.381,0.211,0.379a0.4,0.4,0,0,0,.452-0.352,0.432,0.432,0,0,0-.5-0.349c-0.269.008-.122,0.227-0.166,0.321h0Zm-0.561.424a0.2,0.2,0,0,1,.053-0.058c0.208,0.005.227-.125,0.222-0.289-0.01-.337-0.007-0.675-0.02-1.012a0.2,0.2,0,0,0-.127-0.1,1.239,1.239,0,0,0-.216-0.037l0-.075a1.258,1.258,0,0,1,.225-0.036c0.305,0,.611.019,0.916,0.026a0.327,0.327,0,0,1,.343.269,0.377,0.377,0,0,1-.177.453l-0.076.054c0.052,0.035.091,0.065,0.133,0.088a0.39,0.39,0,0,1,.225.416,0.339,0.339,0,0,1-.324.32c-0.351.026-.7,0.028-1.056,0.036a0.37,0.37,0,0,1-.123-0.057h0Z" transform="translate(6114.378 -1455.541)"/><path class="cls-2" d="M-6040.821,1472.756c-0.024-.251-0.057-0.5-0.07-0.753a0.2,0.2,0,0,0-.239-0.229,1.05,1.05,0,0,1-.232-0.044l0.008-.07h0.926l0.016,0.037a0.765,0.765,0,0,1-.207.087,0.149,0.149,0,0,0-.152.189c0.013,0.223.035,0.446,0.026,0.669-0.009.2-.054,0.4-0.091,0.653l-1.34-1.179c0,0.248,0,.443,0,0.639,0,0.023.012,0.047,0.009,0.07a0.274,0.274,0,0,0,.276.332,0.436,0.436,0,0,1,.135.078,0.586,0.586,0,0,1-.149.044c-0.212,0-.424,0-0.636,0a1.321,1.321,0,0,1-.156-0.02l-0.006-.052a0.789,0.789,0,0,0,.2-0.066,0.339,0.339,0,0,0,.167-0.172,3.411,3.411,0,0,0,0-.855,1.087,1.087,0,0,0-.334-0.383,0.945,0.945,0,0,0-.094-0.077,0.7,0.7,0,0,1,.776.217,11.7,11.7,0,0,0,.887.78,2.284,2.284,0,0,0,.25.164l0.035-.058h0Z" transform="translate(6114.378 -1455.541)"/><path class="cls-2" d="M-6015.51,1471.7a0.471,0.471,0,0,1-.167.082c-0.176,0-.189.1-0.186,0.246,0.007,0.273-.013.546-0.02,0.819,0,0.132,0,.265,0,0.4l-0.064.034-1.323-1.165c0,0.225,0,.391,0,0.557,0,0.385,0,.387.379,0.5a0.283,0.283,0,0,1,.057.035,1.631,1.631,0,0,1-.952.016,0.067,0.067,0,0,1,.016-0.028,0.649,0.649,0,0,0,.3-0.141,1.623,1.623,0,0,0,.066-0.482,0.676,0.676,0,0,1-.013-0.087,0.7,0.7,0,0,0-.409-0.79,0.165,0.165,0,0,1-.03-0.041,0.7,0.7,0,0,1,.763.211c0.263,0.275.568,0.511,0.855,0.764a0.222,0.222,0,0,0,.044.03l0.251,0.125a2.483,2.483,0,0,0,.008-0.271c-0.012-.176-0.043-0.35-0.052-0.526a0.194,0.194,0,0,0-.22-0.213,1.565,1.565,0,0,1-.249-0.043l0.009-.071h0.924l0.008,0.04h0Z" transform="translate(6114.378 -1455.541)"/><path class="cls-2" d="M-6029.448,1472.5a3.153,3.153,0,0,0-.18-0.489,0.531,0.531,0,0,0-.831-0.137,0.84,0.84,0,0,0,.069,1.228,0.474,0.474,0,0,0,.712-0.107,2.665,2.665,0,0,0,.23-0.5h0Zm0.312-.08a0.907,0.907,0,0,1-.991.888,0.911,0.911,0,0,1-.831-0.472,0.829,0.829,0,0,1,.541-1.183,0.978,0.978,0,0,1,1.261.644,1.248,1.248,0,0,1,.02.124h0Z" transform="translate(6114.378 -1455.541)"/><path class="cls-2" d="M-6088.142,1468.627v-0.248h3.189c0.273,0,.276.032,0.273-0.266a1.061,1.061,0,0,1,.012-0.115h0.24v0.629h-3.713Z" transform="translate(6114.378 -1455.541)"/><path class="cls-2" d="M-6066.369,1471.733a0.593,0.593,0,0,0-.467.3,0.886,0.886,0,0,0-.024.8,0.578,0.578,0,0,0,.495.378,0.535,0.535,0,0,0,.525-0.325,0.844,0.844,0,0,0-.067-0.931,0.543,0.543,0,0,0-.461-0.224h0Zm0.08,1.586a0.983,0.983,0,0,1-.918-0.488,0.822,0.822,0,0,1,.534-1.171,1,1,0,0,1,1.216.479,0.792,0.792,0,0,1-.425,1.068c-0.153.055-.315,0.087-0.407,0.112h0Z" transform="translate(6114.378 -1455.541)"/><path class="cls-2" d="M-6087.965,1473.253a0.157,0.157,0,0,1,.031-0.056c0.263-.01.236-0.2,0.236-0.374,0-.306,0-0.612.006-0.917,0-.091-0.027-0.148-0.134-0.137a0.27,0.27,0,0,1-.139-0.012,0.34,0.34,0,0,1-.087-0.1,0.265,0.265,0,0,1,.105-0.062c0.475,0.007.951,0.018,1.426,0.036a0.164,0.164,0,0,1,.123.091,2.5,2.5,0,0,1,.045.338l-0.041.017c-0.077-.072-0.152-0.145-0.23-0.217a1.024,1.024,0,0,0-.678-0.114,0.082,0.082,0,0,0-.055.057,3.543,3.543,0,0,0,0,.542,0.387,0.387,0,0,0,.248.053,0.369,0.369,0,0,0,.205-0.12c0.055-.06.013-0.213,0.156-0.18a0.57,0.57,0,0,1,.019.232c0,0.141-.007.283-0.02,0.424a0.231,0.231,0,0,1-.065.086,0.181,0.181,0,0,1-.068-0.064c0.026-.292-0.175-0.263-0.359-0.26h-0.169c0,0.194-.008.379,0.007,0.563a0.184,0.184,0,0,0,.14.092c0.223,0.012.446,0.009,0.67,0.009a0.237,0.237,0,0,0,.258-0.168,0.591,0.591,0,0,1,.128-0.156l0.068,0.024a1.589,1.589,0,0,1-.006.287,0.158,0.158,0,0,1-.117.1c-0.55.013-1.1,0.017-1.651,0.022a0.167,0.167,0,0,1-.055-0.035h0Z" transform="translate(6114.378 -1455.541)"/><path class="cls-2" d="M-6052.313,1472.084l-0.133-.157a0.83,0.83,0,0,0-.743-0.171,0.43,0.43,0,0,0-.1.276,0.494,0.494,0,0,0,.087.354,0.3,0.3,0,0,0,.428-0.2,0.369,0.369,0,0,1,.12-0.1,0.453,0.453,0,0,1,.039.135c-0.005.164-.016,0.329-0.034,0.492a0.415,0.415,0,0,1-.064.127,1.023,1.023,0,0,1-.074-0.113,0.458,0.458,0,0,0-.089-0.191,1.344,1.344,0,0,0-.384-0.007,0.178,0.178,0,0,0-.049.121,2.23,2.23,0,0,0,0,.406,0.184,0.184,0,0,0,.134.114c0.229,0.014.458,0.011,0.688,0.009a0.228,0.228,0,0,0,.243-0.164,0.476,0.476,0,0,1,.139-0.139,0.67,0.67,0,0,1,.059.216,0.218,0.218,0,0,1-.1.165c-0.273.019-.546,0.018-0.82,0.021-0.248,0-.5,0-0.743,0h-0.194a0.3,0.3,0,0,1,.062-0.088c0.225-.014.236-0.163,0.234-0.339-0.005-.323.007-0.647,0-0.97a0.2,0.2,0,0,0-.114-0.114c-0.044-.021-0.109,0-0.155-0.016a0.291,0.291,0,0,1-.082-0.1,0.264,0.264,0,0,1,.1-0.061q0.714,0.011,1.426.035a0.132,0.132,0,0,1,.1.048c0.029,0.129.045,0.261,0.066,0.392l-0.058.012h0Z" transform="translate(6114.378 -1455.541)"/><path class="cls-2" d="M-6054.133,1468.055a3.906,3.906,0,0,0,1.378.408c0.733,0.061,1.47.078,2.205,0.1a0.493,0.493,0,0,0,.338-0.073,0.658,0.658,0,0,0,.034-0.337c0.219-.037.254-0.011,0.255,0.182,0,0.152,0,.3,0,0.468-0.074.007-.131,0.017-0.188,0.017a9.867,9.867,0,0,1-2.812-.194,7.552,7.552,0,0,1-1.063-.462,0.8,0.8,0,0,1-.147-0.114h0Z" transform="translate(6114.378 -1455.541)"/><path class="cls-2" d="M-6091.34,1464.739c-0.157,0-.3,0-0.439,0s-0.128,0-.123-0.16a0.072,0.072,0,0,1,.027-0.021c0.281-.029.281-0.029,0.281-0.317q0-1.345,0-2.691v-0.218h0.254v3.408h0Z" transform="translate(6114.378 -1455.541)"/><path class="cls-2" d="M-6020.093,1472.1l-0.063-.023-0.208.5h0.457l-0.186-.475h0Zm0.934,1.187h-0.9a1.032,1.032,0,0,1,.119-0.09c0.087-.043.228-0.027,0.185-0.2-0.063-.248-0.087-0.271-0.309-0.266a1.038,1.038,0,0,1-.141,0,0.294,0.294,0,0,0-.34.269c-0.024.09-.007,0.151,0.1,0.165,0.048,0.007.1,0.019,0.158,0.031a1.137,1.137,0,0,1-.878.01,0.363,0.363,0,0,1,.119-0.058,0.314,0.314,0,0,0,.289-0.218c0.16-.32.334-0.632,0.494-0.952a0.943,0.943,0,0,0,.045-0.238c-0.012.011-.005,0,0,0,0.361-.094.288-0.108,0.4,0.2q0.189,0.512.365,1.029a0.256,0.256,0,0,0,.21.207,0.32,0.32,0,0,1,.1.056l-0.016.049h0Z" transform="translate(6114.378 -1455.541)"/><path class="cls-2" d="M-6035.876,1471.635a1.977,1.977,0,0,1-.045.443c-0.036.112-.12,0.048-0.167-0.025a0.513,0.513,0,0,0-.451-0.294,0.3,0.3,0,0,0-.154.023,0.354,0.354,0,0,0-.153.175,0.223,0.223,0,0,0,.114.175c0.191,0.089.394,0.151,0.59,0.232a0.5,0.5,0,0,1,.362.449,0.46,0.46,0,0,1-.419.418,3.037,3.037,0,0,1-.537.014c-0.091,0-.181.012-0.272,0.009a0.182,0.182,0,0,1-.106-0.042c0.015-.168.04-0.335,0.064-0.5a0.182,0.182,0,0,1,.055-0.026c0.021,0.05.04,0.1,0.062,0.15a0.515,0.515,0,0,0,.756.229c0.162-.119.17-0.272-0.005-0.363a2.98,2.98,0,0,0-.527-0.19,0.478,0.478,0,0,1-.4-0.453,0.506,0.506,0,0,1,.473-0.428,0.864,0.864,0,0,1,.365.038,0.262,0.262,0,0,0,.344-0.062l0.05,0.028h0Z" transform="translate(6114.378 -1455.541)"/><path class="cls-2" d="M-6102.24,1471.632c-0.012.148-.02,0.3-0.042,0.442a0.172,0.172,0,0,1-.134.022,0.59,0.59,0,0,1-.084-0.109,1.029,1.029,0,0,0-.276-0.207,0.337,0.337,0,0,0-.44.151,0.32,0.32,0,0,0,.3.295c0.151,0.049.3,0.091,0.45,0.153a0.462,0.462,0,0,1,.32.425,0.464,0.464,0,0,1-.372.421,0.978,0.978,0,0,1-.59.024,1.482,1.482,0,0,0-.374-0.005l0.059-.552,0.061,0c0.022,0.05.042,0.1,0.065,0.15a0.515,0.515,0,0,0,.756.225c0.161-.12.168-0.27-0.006-0.362a2.694,2.694,0,0,0-.509-0.186,0.48,0.48,0,0,1-.417-0.472,0.523,0.523,0,0,1,.5-0.415,0.839,0.839,0,0,1,.346.044,0.244,0.244,0,0,0,.326-0.063l0.054,0.023h0Z" transform="translate(6114.378 -1455.541)"/><path class="cls-2" d="M-6058.114,1466.662a0.752,0.752,0,0,1-.356-0.712c-0.013-.732,0-1.464,0-2.2a0.237,0.237,0,0,1,.022-0.056c0.282,0,.577-0.016.867,0.01a0.658,0.658,0,0,1,.247.205l-0.015.046c-0.226,0-.453.007-0.679,0a0.146,0.146,0,0,0-.185.178c0.006,0.667,0,1.334.007,2a3.306,3.306,0,0,0,.092.526h0Z" transform="translate(6114.378 -1455.541)"/><path class="cls-2" d="M-6056.257,1471.684c-0.075.008-.151,0.017-0.226,0.022a0.139,0.139,0,0,0-.165.14c0,0.417,0,.833,0,1.278a2.231,2.231,0,0,0,.957-0.062,4.078,4.078,0,0,0,.371-0.333c-0.019.164-.033,0.33-0.063,0.492a0.223,0.223,0,0,1-.141.038c-0.364,0-.728,0-1.091,0-0.2,0-.4.02-0.6,0.02a0.4,0.4,0,0,1-.143-0.065,0.615,0.615,0,0,1,.134-0.076,1.7,1.7,0,0,1,.23-0.03c0-.262,0-0.514,0-0.766,0-.141,0-0.283,0-0.424,0-.123-0.02-0.2-0.17-0.156a0.213,0.213,0,0,1-.135-0.016,0.111,0.111,0,0,1-.039-0.087,0.079,0.079,0,0,1,.057-0.054c0.328-.006.656-0.009,0.985-0.01a0.11,0.11,0,0,1,.044.025l-0.006.064h0Z" transform="translate(6114.378 -1455.541)"/><path class="cls-2" d="M-6032.65,1471.71v0.534a0.828,0.828,0,0,1-.123-0.116,0.65,0.65,0,0,0-.71-0.333,0.642,0.642,0,0,0-.445.63,0.608,0.608,0,0,0,.613.686,0.453,0.453,0,0,0,.432-0.224,1.245,1.245,0,0,1,.1-0.147,0.117,0.117,0,0,1,.091-0.027,0.081,0.081,0,0,1,.042.066c-0.011.155-.028,0.309-0.046,0.487l-0.144-.122a1.1,1.1,0,0,1-.907.087,0.781,0.781,0,0,1-.516-0.867,0.82,0.82,0,0,1,.785-0.73,2.2,2.2,0,0,1,.4.022c0.13,0.012.26,0.032,0.43,0.054h0Z" transform="translate(6114.378 -1455.541)"/><path class="cls-2" d="M-6074.472,1473.076a0.8,0.8,0,0,0,.73-0.65,0.9,0.9,0,0,0-.73.65h0Zm0.8,0.016,0.364-.239,0.024,0.041a0.581,0.581,0,0,1-.667.381v-0.286a2.056,2.056,0,0,1-.378.272,0.453,0.453,0,0,1-.357.01,0.409,0.409,0,0,1-.037-0.33,1.226,1.226,0,0,1,.806-0.649,0.472,0.472,0,0,0,.459-0.421,0.154,0.154,0,0,0-.089-0.09,0.9,0.9,0,0,0-.151-0.031,0.209,0.209,0,0,1-.036-0.071l0.666-.054-0.644,1.437,0.04,0.031h0Z" transform="translate(6114.378 -1455.541)"/><path class="cls-2" d="M-6089.41,1472.733c-0.018.157-.029,0.315-0.06,0.469a0.2,0.2,0,0,1-.146.056c-0.358,0-.715,0-1.073,0-0.2,0-.4.017-0.6,0.017a0.564,0.564,0,0,1-.167-0.055,0.761,0.761,0,0,1,.146-0.083,1.453,1.453,0,0,1,.224-0.031v-0.7c0-.159,0-0.317,0-0.476,0-.128-0.018-0.216-0.178-0.167a0.116,0.116,0,0,1-.086,0,0.5,0.5,0,0,1-.084-0.1,0.224,0.224,0,0,1,.087-0.064c0.287-.013.575-0.022,0.862-0.024a0.323,0.323,0,0,1,.123.064,0.4,0.4,0,0,1-.125.06c-0.261.02-.264,0.019-0.264,0.279,0,0.335,0,.671,0,1.006a0.111,0.111,0,0,0,.13.138,4.686,4.686,0,0,0,.633,0,0.847,0.847,0,0,0,.347-0.2,1.126,1.126,0,0,0,.172-0.212l0.057,0.016h0Z" transform="translate(6114.378 -1455.541)"/><path class="cls-2" d="M-6023.292,1471.678a1.082,1.082,0,0,0-.213.032,0.283,0.283,0,0,0-.167.106c-0.012.431-.007,0.862-0.007,1.32a7.167,7.167,0,0,0,.773-0.009,0.7,0.7,0,0,0,.321-0.184,1.187,1.187,0,0,0,.175-0.23l0.057,0.018c-0.017.158-.026,0.317-0.057,0.472a0.2,0.2,0,0,1-.148.054c-0.364,0-.727,0-1.091,0-0.188,0-.376.013-0.564,0.017a1.621,1.621,0,0,1-.183-0.017l-0.015-.064a0.653,0.653,0,0,1,.177-0.056,0.178,0.178,0,0,0,.208-0.221c-0.013-.334-0.007-0.67,0-1,0-.133-0.034-0.18-0.176-0.154a0.39,0.39,0,0,1-.177-0.087,0.507,0.507,0,0,1,.155-0.07c0.222-.016.445-0.023,0.668-0.028,0.085,0,.17.01,0.256,0.015l0.009,0.087h0Z" transform="translate(6114.378 -1455.541)"/><path class="cls-2" d="M-6092.8,1472.734c-0.016.154-.025,0.309-0.055,0.461a0.188,0.188,0,0,1-.143.062c-0.358.005-.715,0-1.073,0-0.2,0-.4.014-0.6,0.016a1.32,1.32,0,0,1-.181-0.022l-0.009-.067a1.168,1.168,0,0,1,.2-0.051,0.159,0.159,0,0,0,.18-0.192c-0.009-.345,0-0.692.005-1.037,0-.114-0.03-0.187-0.166-0.147a0.149,0.149,0,0,1-.1,0,0.382,0.382,0,0,1-.082-0.1,0.227,0.227,0,0,1,.088-0.063c0.287-.013.575-0.022,0.862-0.024a0.311,0.311,0,0,1,.121.066,0.429,0.429,0,0,1-.129.057c-0.248.018-.262,0.029-0.263,0.286,0,0.339,0,.678.008,1.016a0.162,0.162,0,0,0,.109.113,3.468,3.468,0,0,0,.668.008,0.768,0.768,0,0,0,.332-0.195,1.14,1.14,0,0,0,.169-0.218l0.061,0.02h0Z" transform="translate(6114.378 -1455.541)"/><path class="cls-2" d="M-6012.59,1459.482a0.853,0.853,0,0,1-.042-1.342,1.491,1.491,0,0,1,1.353-.265,2.234,2.234,0,0,1,.887.533,1.644,1.644,0,0,0-1.011-.287,2.512,2.512,0,0,0-.705.144,0.907,0.907,0,0,0-.482,1.217h0Z" transform="translate(6114.378 -1455.541)"/><path class="cls-2" d="M-6027.386,1463.254a0.366,0.366,0,0,1,.434.224c-0.173,0-.171.114-0.17,0.236,0,0.721-.005,1.442.005,2.162,0,0.284.048,0.567,0.073,0.833a0.686,0.686,0,0,1-.3-0.49,2.409,2.409,0,0,1-.039-0.44c0-.774,0-1.548,0-2.322v-0.2h0Z" transform="translate(6114.378 -1455.541)"/><path class="cls-2" d="M-6063.822,1472.079a0.521,0.521,0,0,1,.06-0.5,0.1,0.1,0,0,1,.068,0,3.837,3.837,0,0,0,1.348.087,1.13,1.13,0,0,0,.25-0.042,0.539,0.539,0,0,1-.036.439,0.125,0.125,0,0,1-.051-0.023,0.449,0.449,0,0,0-.5-0.217,0.2,0.2,0,0,0-.106.151c-0.02.276-.024,0.552-0.034,0.829a0.93,0.93,0,0,1-.006.14c-0.028.149,0.016,0.226,0.181,0.22a0.591,0.591,0,0,1,.175.049l-0.007.054a0.392,0.392,0,0,1-.107.033c-0.259,0-.518.006-0.777,0a0.424,0.424,0,0,1-.151-0.076,0.374,0.374,0,0,1,.145-0.064,0.2,0.2,0,0,0,.247-0.25c-0.006-.265.016-0.53,0.012-0.795a0.405,0.405,0,0,0-.072-0.273,0.415,0.415,0,0,0-.465.038c-0.06.062-.11,0.134-0.17,0.207h0Z" transform="translate(6114.378 -1455.541)"/><path class="cls-2" d="M-6025.912,1472.076a0.4,0.4,0,0,0-.47-0.27,0.141,0.141,0,0,0-.168.155c-0.01.348-.025,0.7-0.039,1.043a0.127,0.127,0,0,0,.146.152,1.364,1.364,0,0,1,.215.041v0.063a0.478,0.478,0,0,1-.12.034c-0.259,0-.519.005-0.778,0a0.454,0.454,0,0,1-.148-0.062,0.352,0.352,0,0,1,.147-0.077,0.207,0.207,0,0,0,.247-0.253c0-.306.005-0.613,0.015-0.919a0.147,0.147,0,0,0-.147-0.175,0.438,0.438,0,0,0-.509.183,0.3,0.3,0,0,1-.08.062,0.594,0.594,0,0,1,.066-0.46,0.138,0.138,0,0,1,.1-0.01,2.414,2.414,0,0,0,.361.078c0.306,0.012.614,0.013,0.92,0a1.39,1.39,0,0,0,.307-0.084v0.473l-0.062.025h0Z" transform="translate(6114.378 -1455.541)"/><path class="cls-2" d="M-6098.866,1471.6v0.47a0.247,0.247,0,0,1-.08-0.033,0.447,0.447,0,0,0-.5-0.219,0.2,0.2,0,0,0-.112.145q-0.034.529-.04,1.059a0.236,0.236,0,0,0,.126.129,0.942,0.942,0,0,0,.138.011,0.262,0.262,0,0,1,.078.078,0.2,0.2,0,0,1-.078.052c-0.282,0-.565.006-0.847,0a0.26,0.26,0,0,1-.1-0.071,0.318,0.318,0,0,1,.1-0.068c0.289-.046.287-0.044,0.288-0.334,0-.236.014-0.471,0.008-0.707a0.41,0.41,0,0,0-.068-0.275,0.44,0.44,0,0,0-.454.019c-0.027.022-.046,0.055-0.074,0.075-0.051.037-.106,0.067-0.16,0.1a1.871,1.871,0,0,1,.007-0.2,1.122,1.122,0,0,1,.044-0.152c0.03-.107.069-0.151,0.186-0.071a0.49,0.49,0,0,0,.246.044c0.277,0.009.554,0.02,0.831,0.013a3.813,3.813,0,0,0,.461-0.067h0Z" transform="translate(6114.378 -1455.541)"/><path class="cls-2" d="M-6058.818,1471.611v0.444l-0.056.032a0.378,0.378,0,0,0-.445-0.28,0.161,0.161,0,0,0-.2.181c-0.007.336-.02,0.671-0.036,1.007a0.133,0.133,0,0,0,.153.163,1.085,1.085,0,0,1,.209.045l-0.005.058a0.381,0.381,0,0,1-.106.034c-0.259,0-.518.006-0.777,0a0.438,0.438,0,0,1-.153-0.074,0.351,0.351,0,0,1,.141-0.066,0.205,0.205,0,0,0,.249-0.251c0-.265.013-0.53,0.007-0.795a0.4,0.4,0,0,0-.071-0.272,0.433,0.433,0,0,0-.468.036c-0.063.059-.127,0.116-0.19,0.173a0.576,0.576,0,0,1,.076-0.462,0.083,0.083,0,0,1,.066-0.009,2.461,2.461,0,0,0,1.032.094,4.182,4.182,0,0,0,.572-0.055h0Z" transform="translate(6114.378 -1455.541)"/><path class="cls-2" d="M-6033.119,1460.983a2.476,2.476,0,0,1-.479-0.009,0.554,0.554,0,0,1-.189-0.192l0.032-.051a0.81,0.81,0,0,1,.167-0.009c0.183,0.027.214-.061,0.206-0.222-0.042-.8-0.075-1.6-0.111-2.4,0-.085-0.033-0.184.109-0.193s0.127,0.083.131,0.174q0.066,1.35.133,2.7c0,0.058,0,.117,0,0.2h0Z" transform="translate(6114.378 -1455.541)"/><path class="cls-2" d="M-6008.8,1460.2l0.372-.018c-0.011-.143-0.019-0.28-0.034-0.417q-0.1-.94-0.2-1.879a0.32,0.32,0,0,1-.005-0.139,0.185,0.185,0,0,1,.1-0.114,0.158,0.158,0,0,1,.118.1c0.065,0.538.121,1.076,0.179,1.615,0.032,0.3.06,0.6,0.1,0.9,0.025,0.206.018,0.221-.194,0.222h-0.177c-0.227,0-.229,0-0.257-0.266h0Z" transform="translate(6114.378 -1455.541)"/><path class="cls-2" d="M-6090.972,1457.647c0.191-.058.248-0.006,0.257,0.166,0.035,0.7.086,1.4,0.13,2.1,0,0.076,0,.152,0,0.256a2.562,2.562,0,0,1-.477-0.01,0.516,0.516,0,0,1-.134-0.225c0.374-.058.362-0.057,0.337-0.4-0.046-.627-0.076-1.255-0.113-1.886h0Z" transform="translate(6114.378 -1455.541)"/><path class="cls-2" d="M-6076.017,1472.457a0.678,0.678,0,0,0-.45.274c-0.13.159-.265,0.314-0.385,0.481a0.175,0.175,0,0,1-.242.066,0.284,0.284,0,0,1,.032-0.188c0.113-.184.24-0.359,0.362-0.538l-0.026-.039-0.318.153-0.031-.05a1.112,1.112,0,0,1,.479-0.344c0.164-.038.2,0.036,0.112,0.258,0.171-.071.337-0.148,0.51-0.205a0.758,0.758,0,0,1,.234,0,0.837,0.837,0,0,1-.055.22c-0.1.17-.209,0.331-0.322,0.506l0.275-.018a0.686,0.686,0,0,1-.507.293,0.137,0.137,0,0,1-.115-0.055,0.179,0.179,0,0,1,.016-0.143c0.1-.159.211-0.311,0.316-0.467,0.037-.055.067-0.116,0.116-0.2h0Z" transform="translate(6114.378 -1455.541)"/><path class="cls-2" d="M-6044.217,1471.708c-0.328.142-.325,0.142-0.344,0.528-0.012.246-.027,0.493-0.052,0.738a0.164,0.164,0,0,0,.18.215,0.211,0.211,0,0,1,.151.093h-0.966l-0.012-.066a1.12,1.12,0,0,0,.193-0.064,0.215,0.215,0,0,0,.116-0.113c0.037-.357.06-0.714,0.092-1.072a0.152,0.152,0,0,0-.148-0.194,0.675,0.675,0,0,1-.155-0.031,0.089,0.089,0,0,1-.035-0.069,0.064,0.064,0,0,1,.048-0.039q0.448,0.006.9,0.019a0.157,0.157,0,0,1,.036.054h0Z" transform="translate(6114.378 -1455.541)"/><path class="cls-2" d="M-6097.336,1473.225a0.289,0.289,0,0,1,.115-0.059c0.168,0.008.2-.073,0.2-0.226,0.011-.323.049-0.645,0.082-0.967a0.159,0.159,0,0,0-.16-0.2,1.937,1.937,0,0,1-.231-0.065,2.041,2.041,0,0,1,1.024,0,0.066,0.066,0,0,1-.019.028c-0.31.111-.305,0.111-0.318,0.457-0.01.258-.024,0.517-0.052,0.773a0.17,0.17,0,0,0,.188.225,0.2,0.2,0,0,1,.146.088h-0.969l-0.008-.052h0Z" transform="translate(6114.378 -1455.541)"/><path class="cls-2" d="M-6105.117,1473.277h-0.967l-0.006-.047a0.24,0.24,0,0,1,.1-0.06c0.179,0.006.216-.078,0.22-0.247,0.008-.317.05-0.633,0.079-0.95a0.156,0.156,0,0,0-.161-0.2,0.451,0.451,0,0,1-.137-0.027,0.091,0.091,0,0,1-.036-0.069,0.063,0.063,0,0,1,.045-0.041c0.3,0.006.608,0.015,0.912,0.024a0.187,0.187,0,0,1,.034.053,0.954,0.954,0,0,0-.207.067,0.276,0.276,0,0,0-.142.144c-0.03.352-.039,0.7-0.063,1.057a0.166,0.166,0,0,0,.188.21,0.576,0.576,0,0,1,.155.048l-0.014.039h0Z" transform="translate(6114.378 -1455.541)"/><g class="cls-3"><path class="cls-2" d="M-6078.474,1472.452a0.947,0.947,0,0,0-.687.575,0.139,0.139,0,0,0,.018.092,0.182,0.182,0,0,0,.127-0.016c0.159-.147.314-0.3,0.462-0.456a0.687,0.687,0,0,0,.081-0.194h0Zm-0.041.635,0.312-.139a0.5,0.5,0,0,1-.488.346,0.534,0.534,0,0,1-.139-0.2,1.494,1.494,0,0,1-.171.1,0.884,0.884,0,0,1-.247.087,0.194,0.194,0,0,1-.219-0.268,1.267,1.267,0,0,1,1-.678,0.538,0.538,0,0,0,.126-0.023l0.139-.021a0.348,0.348,0,0,1,0,.147c-0.084.175-.179,0.345-0.269,0.517-0.015.03-.024,0.063-0.049,0.129h0Z" transform="translate(6114.378 -1455.541)"/><path class="cls-2" d="M-6007.607,1457.1a0.71,0.71,0,0,0,.694-0.721,0.731,0.731,0,0,0-.675-0.731,0.729,0.729,0,0,0-.7.721,0.711,0.711,0,0,0,.683.731h0Zm-0.825-.719a0.823,0.823,0,0,1,.837-0.841,0.823,0.823,0,0,1,.825.836,0.823,0.823,0,0,1-.837.841,0.823,0.823,0,0,1-.824-0.836h0Z" transform="translate(6114.378 -1455.541)"/></g><path class="cls-2" d="M-6079.74,1458.35l-0.78-.086c0-.061-0.006-0.137-0.01-0.211a0.636,0.636,0,0,1,.789.3h0Z" transform="translate(6114.378 -1455.541)"/><path class="cls-2" d="M-6014.063,1465.363a0.565,0.565,0,0,1,.169.118c0.106,0.2.182,0.411,0.3,0.6a5.232,5.232,0,0,0,.413.5,2.014,2.014,0,0,1-.884-1.216h0Z" transform="translate(6114.378 -1455.541)"/><path class="cls-2" d="M-6061.475,1458.335l-0.673-.069v-0.218a0.525,0.525,0,0,1,.673.287h0Z" transform="translate(6114.378 -1455.541)"/><path class="cls-2" d="M-6098.844,1458.361c-0.168-.024-0.344-0.062-0.521-0.069a0.126,0.126,0,0,1-.143-0.163c0.006-.123.089-0.105,0.164-0.1a0.515,0.515,0,0,1,.5.328h0Z" transform="translate(6114.378 -1455.541)"/><path class="cls-2" d="M-6074.565,1458.364l-0.567-.1v-0.212a0.48,0.48,0,0,1,.567.313h0Z" transform="translate(6114.378 -1455.541)"/><path class="cls-2" d="M-6030.406,1458.321c-0.147-.011-0.3-0.03-0.455-0.031-0.111,0-.121-0.061-0.122-0.146a0.1,0.1,0,0,1,.13-0.118,0.445,0.445,0,0,1,.448.3h0Z" transform="translate(6114.378 -1455.541)"/><path class="cls-2" d="M-6018.389,1458.381c0.123,0,.222.006,0.321,0,0.145-.01.2,0.054,0.139,0.187a1.659,1.659,0,0,1-.187.255l-0.272-.441h0Z" transform="translate(6114.378 -1455.541)"/><path class="cls-2" d="M-6113.4,1458.329a3.968,3.968,0,0,0-.4-0.039c-0.121,0-.13-0.063-0.13-0.155,0-.117.074-0.115,0.155-0.1a0.447,0.447,0,0,1,.379.3h0Z" transform="translate(6114.378 -1455.541)"/><path class="cls-2" d="M-6049.286,1458.264v-0.215a0.389,0.389,0,0,1,.488.289l-0.488-.074h0Z" transform="translate(6114.378 -1455.541)"/><path class="cls-2" d="M-6106.152,1458.352l-0.491-.091v-0.214a0.423,0.423,0,0,1,.491.3h0Z" transform="translate(6114.378 -1455.541)"/><path class="cls-2" d="M-6088.392,1458.261c0-.038-0.005-0.073-0.005-0.108s0-.046.009-0.088a0.6,0.6,0,0,1,.465.312l-0.469-.116h0Z" transform="translate(6114.378 -1455.541)"/><path class="cls-2" d="M-6058.448,1457.8c0.438,0.022.88,0.024,1.317,0.073a1.278,1.278,0,0,1,.891.618c-0.033-.026-0.067-0.051-0.1-0.079a1.443,1.443,0,0,0-.985-0.328c-0.23,0-.461.008-0.691,0-0.159-.008-0.2.053-0.2,0.205q0.007,1.771,0,3.543a0.275,0.275,0,0,1-.042.177,0.2,0.2,0,0,1-.167.009,0.14,0.14,0,0,1-.052-0.112q0-2.01,0-4.021a0.534,0.534,0,0,1,.026-0.082h0Z" transform="translate(6114.378 -1455.541)"/><path class="cls-2" d="M-6067.578,1458.835a2.82,2.82,0,0,0-1.255-.568,6.938,6.938,0,0,0-2.045-.006,0.153,0.153,0,0,0-.14.2c0,1.152,0,2.3,0,3.455,0,1.364,0,2.729,0,4.093,0,0.192.033,0.384,0.025,0.605a0.957,0.957,0,0,1-.182-0.243,1.7,1.7,0,0,1-.1-0.515c-0.008-2.557-.006-5.115-0.011-7.672a0.164,0.164,0,0,1,.182-0.194,6.738,6.738,0,0,1,2.131.042,2.493,2.493,0,0,1,1.392.807h0Z" transform="translate(6114.378 -1455.541)"/><path class="cls-2" d="M-6007.709,1456.388a0.506,0.506,0,0,0,.215-0.1,0.267,0.267,0,0,0,.012-0.228,0.613,0.613,0,0,0-.227-0.133v0.457h0Zm0.25,0.026,0.291,0.381a0.217,0.217,0,0,1-.293-0.133,0.291,0.291,0,0,0-.272-0.238l0.061,0.384h-0.3a0.924,0.924,0,0,0-.016-0.884,4.529,4.529,0,0,1,.5,0,0.225,0.225,0,0,1,.14.385,1.084,1.084,0,0,1-.113.1h0Z" transform="translate(6114.378 -1455.541)"/></svg>