<svg id="Layer_1" data-name="Layer 1" xmlns="http://www.w3.org/2000/svg" viewBox="0 0 69.702 38.45"><defs><style>.cls-1{fill:#484748;}</style></defs><title>LaMarcaLogoLanding</title><path class="cls-1" d="M5576.708,2321.376a4.433,4.433,0,0,1-4.083-.947,9.48,9.48,0,0,1-1.781-2.779c-0.244-.533-0.462-1.078-0.721-1.6a2.647,2.647,0,0,0-1.5-1.395c-0.431-.155-0.663-0.079-0.645.471,0.036,1.083.025,2.168,0.006,3.252a1.049,1.049,0,0,0,.919,1.265c0.139,0.021.29,0.044,0.273,0.222-0.014.145-.158,0.129-0.267,0.129q-3.962,0-7.924-.013a0.538,0.538,0,0,1-.188-0.119,0.6,0.6,0,0,1,.657-0.2,0.592,0.592,0,0,0,.687-0.7,6.666,6.666,0,0,0-.657-2.26,0.443,0.443,0,0,0-.521-0.2c-0.836,0-1.672.013-2.507-.01a0.569,0.569,0,0,0-.646.443c-0.175.535-.422,1.051-0.554,1.6-0.194.8,0.036,1.079,0.845,1.151a0.519,0.519,0,0,1,.511.249h-7.223a0.818,0.818,0,0,1,.172-0.188c1.2-.489,1.35-0.667,1.256-1.94-0.138-1.868-.324-3.732-0.494-5.6a1.819,1.819,0,0,0-.115-0.329l-2.9,7.034-2.77-6.825-0.143.017c-0.141,2.077-.313,4.153-0.409,6.232-0.044.959,0.328,1.287,1.327,1.424,0.089,0.012.186,0,.2,0.253a24.711,24.711,0,0,1-3.711.007c1.5-.524,1.394-1.825,1.509-2.975,0.184-1.842.3-3.69,0.446-5.536a1.281,1.281,0,0,0-1.228-1.657c-0.168-.041-0.407.012-0.363-0.266,0.035-.221.246-0.149,0.39-0.15,0.858-.006,1.717.02,2.574-0.015a0.514,0.514,0,0,1,.53.479q1.029,2.5,2.061,5.005c0.04,0.1.093,0.188,0.2,0.4l1.623-3.887a5.412,5.412,0,0,0,.4-1,1.172,1.172,0,0,1,1.545-1,17.22,17.22,0,0,0,1.828.018,0.217,0.217,0,0,1,.269.141c0.035,0.192-.122.2-0.251,0.235-1.289.362-1.286,0.363-1.165,1.7,0.208,2.292.284,4.6,0.643,6.873,0.069,0.435-.045,1.117.518,1.2s0.683-.589.854-0.994c1.263-2.992,2.492-6,3.736-9,0.081-.2.068-0.51,0.358-0.511s0.285,0.313.367,0.507c1.221,2.887,2.43,5.78,3.656,8.666a7.419,7.419,0,0,0,.6,1.057,0.594,0.594,0,0,0,.686.32,0.68,0.68,0,0,0,.5-0.653c0.015-.225.027-0.451,0.027-0.676-0.009-2.394-.038-4.787-0.02-7.181a1.1,1.1,0,0,0-.958-1.248c-0.138-.03-0.366.018-0.337-0.225,0.027-.224.228-0.16,0.379-0.16,1.761-.006,3.524-0.067,5.282,0,1.8,0.065,2.745,1.032,2.729,2.611a2.267,2.267,0,0,1-1.65,2.222c-0.25.081-.509,0.136-0.915,0.242,1.586,0.977,2.078,2.591,2.857,4.016C5574.18,2319.864,5574.8,2321.241,5576.708,2321.376Zm-8.722-9.288c0,0.5.007,0.993,0,1.489,0,0.236.04,0.383,0.323,0.386a2.605,2.605,0,0,0,2.615-1.085,2.323,2.323,0,0,0-.095-2.354,1.483,1.483,0,0,0-1.39-.667,4.39,4.39,0,0,0-.936.1,0.535,0.535,0,0,0-.52.644C5568.007,2311.094,5567.987,2311.592,5567.986,2312.088Zm-8.286.106-1.445,3.646h2.92Z" transform="translate(-5524.87 -2291.833)"/><path class="cls-1" d="M5582.451,2320.1a26.133,26.133,0,0,1-3.982-.257,5.305,5.305,0,0,1-3.64-6.967,4.856,4.856,0,0,1,5.489-3.573,2.826,2.826,0,0,1,.841.237,1.1,1.1,0,0,0,1.467-.2,0.307,0.307,0,0,1,.352-0.134,0.3,0.3,0,0,1,.139.347q0.013,1.456.018,2.913c0,0.126.045,0.309-.154,0.3-0.163-.006-0.171-0.182-0.2-0.313a3.1,3.1,0,0,0-1.9-2.45,2.7,2.7,0,0,0-3.457,1.316,7.36,7.36,0,0,0,.418,6.912,3.165,3.165,0,0,0,5.459-.468,55.473,55.473,0,0,0,2.532-6.7c0.675-1.89,1.288-3.8,1.946-5.7,0.081-.232.042-0.618,0.4-0.635,0.381-.018.329,0.378,0.4,0.607q1.935,5.913,3.848,11.834a5.971,5.971,0,0,0,1,2.057,2,2,0,0,0,.873.616c0.113,0.041.3,0.024,0.274,0.225s-0.21.2-.37,0.2c-0.428-.014-0.856-0.039-1.285-0.047-1.242-.023-2.483-0.036-3.725-0.062-0.182,0-.471.077-0.459-0.236,0.011-.27.285-0.144,0.438-0.176a1.3,1.3,0,0,0,1.235-1.771,18.788,18.788,0,0,0-.74-2.949,0.509,0.509,0,0,0-.568-0.43c-1.038,0-2.076-.043-3.114-0.064a0.45,0.45,0,0,0-.566.227,9.8,9.8,0,0,0-.893,3.517,1.188,1.188,0,0,0,1,1.379c0.156,0.029.349,0.059,0.3,0.276-0.043.2-.24,0.168-0.394,0.168Q5583.941,2320.1,5582.451,2320.1Zm5.125-11.535c-0.637,1.811-1.213,3.462-1.8,5.109-0.119.332,0.07,0.326,0.293,0.331,0.97,0.019,1.941.037,2.911,0.065,0.259,0.007.382-.044,0.284-0.34C5588.712,2312.06,5588.172,2310.39,5587.576,2308.563Z" transform="translate(-5524.87 -2291.833)"/><path class="cls-1" d="M5536.135,2320.167c-0.817.043-1.634,0.1-2.452,0.126q-3.891.139-7.783,0.263c-0.158.005-.316,0-0.474,0-0.108,0-.239.02-0.276-0.125a0.2,0.2,0,0,1,.163-0.255c1.194-.284,1.224-1.161,1.2-2.161-0.09-3.521-.128-7.043-0.182-10.565a1.47,1.47,0,0,0-1.178-1.711c-0.116-.043-0.3-0.025-0.281-0.222,0.019-.246.22-0.178,0.363-0.181q2.031-.046,4.062-0.078c0.14,0,.352-0.093.4,0.125,0.061,0.262-.175.25-0.34,0.31a1.283,1.283,0,0,0-1.053,1.512q0.1,5.689.224,11.378a1.5,1.5,0,0,0,1.559,1.577,3.827,3.827,0,0,0,4.247-2.651c0.924-2.568,1.984-5.087,2.994-7.623,0.076-.191.065-0.5,0.373-0.49a0.494,0.494,0,0,1,.34.456q1.921,4.331,3.834,8.666a1.729,1.729,0,0,0,1.791,1.3l-0.114.253h-5.13a0.243,0.243,0,0,1,.287-0.181c1.055-.093,1.218-0.315.968-1.323-0.431-1.735-.486-1.778-2.263-1.771a2.34,2.34,0,0,0-.406,0c-0.5.092-1.183-.2-1.479,0.2a4.185,4.185,0,0,0-.742,2.083,0.678,0.678,0,0,0,.7.811c0.213,0.019.427,0.031,0.64,0.046Zm1.051-7.585c-0.474,1.238-.885,2.32-1.3,3.4-0.125.322,0.06,0.33,0.291,0.329,0.822,0,1.644,0,2.6,0Z" transform="translate(-5524.87 -2291.833)"/><path class="cls-1" d="M5584.823,2301.314a1.3,1.3,0,0,0-1.7-.851,6.924,6.924,0,0,1-3.457.342,0.8,0.8,0,0,0-.5.177,2.455,2.455,0,0,1-1.574.212,1.107,1.107,0,0,0-.835.135,2.678,2.678,0,0,1-2.068.4,1.192,1.192,0,0,0-.888.231,4.27,4.27,0,0,1-4.207.016,2.141,2.141,0,0,1-.81-3.023,2.375,2.375,0,0,1,3.286-.6,1.114,1.114,0,0,1,.468.564c0.036,0.147.243,0.362-.021,0.46-0.2.075-.217-0.178-0.294-0.3a1.852,1.852,0,0,0-2.557-.494,1.825,1.825,0,0,0-.293,2.637,3.534,3.534,0,0,0,4.189.462c0.307-.215.117-0.314-0.034-0.442a1.638,1.638,0,0,1-.688-1.4,1.215,1.215,0,1,1,2.366.189,2.045,2.045,0,0,1-.277.825c-0.374.558-.05,0.621,0.387,0.591a4.083,4.083,0,0,0,.789-0.173c0.431-.119.749-0.289,0.288-0.758a0.777,0.777,0,0,1-.178-0.565,0.8,0.8,0,0,1,.382-0.866,0.653,0.653,0,0,1,.707.053,1.116,1.116,0,0,1,.362.97c0,0.277-.636.737,0.2,0.809,0.824,0.07,1.323-.242,1.33-0.851,0-.265.019-0.538,0.341-0.563,0.363-.028.382,0.281,0.349,0.523-0.073.536,0.247,0.619,0.649,0.6a5.426,5.426,0,0,0,1.528-.257,4.35,4.35,0,0,1,1.93-.255A0.906,0.906,0,0,1,5584.823,2301.314Zm-9.93-1.458a0.993,0.993,0,0,0-.84-1.1,1.059,1.059,0,0,0-.8,1.158A0.908,0.908,0,1,0,5574.894,2299.856Zm2.432,0.122c-0.013-.273-0.036-0.559-0.4-0.575a0.376,0.376,0,0,0-.379.454,0.625,0.625,0,0,0,.466.716C5577.282,2300.588,5577.285,2300.224,5577.326,2299.978Z" transform="translate(-5524.87 -2291.833)"/><path class="cls-1" d="M5545.836,2301.4c-0.673-1.521-.613-2.444.153-2.837a1.075,1.075,0,0,1,1.409.409c0.563,0.849.351,1.673-.642,2.5a3.558,3.558,0,0,0,4.231-.038,1.888,1.888,0,0,0,.525-1.985,1.5,1.5,0,0,0-1.374-1.135,1.61,1.61,0,0,0-1.878.861,0.245,0.245,0,0,1-.29.187,0.872,0.872,0,0,1,.451-0.989,2.411,2.411,0,0,1,3.356.6,2.133,2.133,0,0,1-.9,3.047,4.1,4.1,0,0,1-4.078-.037,1.586,1.586,0,0,0-1.217-.21,0.406,0.406,0,0,1-.2.035,37.894,37.894,0,0,0-4.02-.838,1.972,1.972,0,0,0-.819-0.105,4.491,4.491,0,0,1-2.207-.16c-0.171-.057-0.342-0.118-0.516-0.164-0.816-.212-1.612-0.351-2.047.7a0.791,0.791,0,0,1,.76-1.116,4.2,4.2,0,0,1,1.993.263,3.839,3.839,0,0,0,1.594.234c0.307-.019.637-0.042,0.5-0.545a0.406,0.406,0,0,1,.4-0.566,0.465,0.465,0,0,1,.346.633c-0.06.263-.127,0.471,0.2,0.594a1.847,1.847,0,0,0,1.379.1c0.2-.083.062-0.322,0.019-0.488a1.025,1.025,0,0,1,.38-1.257,0.578,0.578,0,0,1,.787.169,0.943,0.943,0,0,1-.037,1.3c-0.368.438-.138,0.549,0.24,0.665A2.773,2.773,0,0,0,5545.836,2301.4Zm1.417-1.289c0-.7-0.084-1.215-0.686-1.33a0.8,0.8,0,0,0-.9.721,0.948,0.948,0,0,0,0,.659,1.1,1.1,0,0,0,.744,1A1.062,1.062,0,0,0,5547.254,2300.108Zm-3.272-.152c-0.015-.289-0.009-0.569-0.362-0.557a0.458,0.458,0,0,0-.433.559c0.011,0.258.064,0.623,0.364,0.618A0.6,0.6,0,0,0,5543.981,2299.955Z" transform="translate(-5524.87 -2291.833)"/><path class="cls-1" d="M5542.891,2324.953a5.149,5.149,0,0,1,3.619.052,1.245,1.245,0,0,1-.023,2.148,0.559,0.559,0,0,0-.139.921,4.721,4.721,0,0,0,2.2,1.988,2.625,2.625,0,0,1-2.544-1.085,3.293,3.293,0,0,1-.521-0.94c-0.136-.407-0.424-0.325-0.707-0.323-0.4,0-.229.308-0.254,0.5a2.742,2.742,0,0,0,0,.541c0.034,0.53-.073,1.158.919,1.061l-0.151.185h-2.248c0.962-.236.673-1.015,0.685-1.649,0.015-.812,0-1.624-0.017-2.436C5543.7,2325.417,5543.686,2324.9,5542.891,2324.953Zm1.616,1.282h0.01c0,0.268,0,.537,0,0.805a0.262,0.262,0,0,0,.162.315,1.456,1.456,0,0,0,1.513-.617,1.283,1.283,0,0,0-.532-1.567c-0.77-.39-1.149-0.173-1.154.661C5544.506,2325.966,5544.507,2326.1,5544.507,2326.234Z" transform="translate(-5524.87 -2291.833)"/><path class="cls-1" d="M5551.807,2330.124a2.718,2.718,0,0,1-2.858-2.643,2.846,2.846,0,0,1,2.948-2.958,2.771,2.771,0,0,1,2.9,2.622A3.022,3.022,0,0,1,5551.807,2330.124Zm-0.055-5.232a1.842,1.842,0,0,0-1.8,1.185,3.046,3.046,0,0,0-.023,2.123,2.169,2.169,0,0,0,2.27,1.547,1.989,1.989,0,0,0,1.759-2A2.432,2.432,0,0,0,5551.752,2324.892Z" transform="translate(-5524.87 -2291.833)"/><path class="cls-1" d="M5581.835,2324.68a2.731,2.731,0,0,1,2.831,2.73,2.971,2.971,0,0,1-3.075,2.856,2.776,2.776,0,0,1-2.784-2.732A3.033,3.033,0,0,1,5581.835,2324.68Zm2.015,2.934a2.579,2.579,0,0,0-.9-2.1,1.926,1.926,0,0,0-2.21-.266,2.226,2.226,0,0,0-1.085,2.357,2.33,2.33,0,0,0,2.26,2.312A2.059,2.059,0,0,0,5583.851,2327.614Z" transform="translate(-5524.87 -2291.833)"/><path class="cls-1" d="M5558.63,2293.469c0.112-.014.223-0.032,0.335-0.04a0.352,0.352,0,0,1,.4.2c0.078,0.211-.141.25-0.255,0.336a5.371,5.371,0,0,0-1.616,1.692,0.928,0.928,0,0,0-.178.359c0.007,1-.785.823-1.369,0.93-0.3.056-.3-0.2-0.317-0.4-0.019-.261,0-0.491.353-0.53,0.272-.03.755,0.221,0.772-0.083,0.022-.392-0.46-0.092-0.7-0.182a0.4,0.4,0,0,1-.247-0.493c0.432-.347.951-0.051,1.449-0.176a0.693,0.693,0,0,1-.568-0.814,1.922,1.922,0,0,0-.987.89,7.207,7.207,0,0,0-1.445,2.078c-0.1.167-.107,0.538-0.427,0.381a0.952,0.952,0,0,1-.757-0.685c-0.028-.3.175-0.386,0.436-0.364,0.453,0.037.653-.092,0.444-0.58-0.17-.4.014-0.622,0.426-0.61a0.383,0.383,0,0,0,.479-0.466,0.3,0.3,0,0,1,.039-0.189c0.659-.116.955-0.891,1.662-0.91a0.849,0.849,0,0,0,.252,0c0.275-.829,1.266-0.236,1.666-0.839a0.372,0.372,0,0,1,.5.028,0.746,0.746,0,0,1-.394.4,2.722,2.722,0,0,0-1.659.8l0.942,0.231c-0.189-.443-0.207-0.494-0.1-0.564a0.531,0.531,0,0,1,.562-0.057C5558.681,2293.981,5558.693,2293.956,5558.63,2293.469Z" transform="translate(-5524.87 -2291.833)"/><path class="cls-1" d="M5559.7,2296.972c-0.262.048-.551,0.248-0.426-0.332a6.223,6.223,0,0,0,.344-3.1c-0.082-.293.48-0.505,0.925-0.315,0.3,0.127.732,0.138,0.873,0.248a2.176,2.176,0,0,0,1.191.354c0.383,0.056.107,0.351,0,.578l1.029-.145-0.006-.005a0.123,0.123,0,0,0,.141.141l-0.005,0a0.529,0.529,0,0,1-.63.586c0.34,0.373.581,0.065,0.815,0.084,0.273,0.022.591,0.005,0.622,0.367,0.034,0.4-.289.307-0.526,0.312-0.167,0-.424-0.078-0.395.2,0.031,0.3.26,0.13,0.421,0.106,0.621-.091.916,0.161,0.742,0.633-0.055.15-.145,0.334-0.33,0.256a1.124,1.124,0,0,0-.908-0.028c-0.23.089-.21-0.168-0.245-0.3a4.509,4.509,0,0,0-2.153-2.738c-0.125-.078-0.225-0.263-0.406-0.158-0.164.095-.022,0.24-0.021,0.362,0.011,0.988.342,1.932,0.422,2.942-0.316.1-.493-0.368-0.8-0.187l0.007,0.006c-0.213-.341-0.3-0.324-0.684.135Zm0.924-1.736c0.025,0.065.052,0.121,0.125,0.042l-0.093-.074a0.67,0.67,0,0,0-.868,0Zm-0.9.821,1.018,0.007c0.037,0.049.071,0.119,0.134,0.03a0.559,0.559,0,0,0-.08-0.082,0.765,0.765,0,0,0-1.128-.01,0.539,0.539,0,0,0-.08.083C5559.647,2296.169,5559.685,2296.107,5559.723,2296.057Zm0.326-2.4a0.271,0.271,0,0,0,.118.049c0.079-.016.244,0.071,0.213-0.072C5560.363,2293.554,5560.162,2293.557,5560.049,2293.652Z" transform="translate(-5524.87 -2291.833)"/><path class="cls-1" d="M5539.215,2328.024c0,0.2-.01.406-0.007,0.608,0.009,0.588-.131,1.257.736,1.463H5537.7c0.773-.171.72-0.743,0.706-1.311-0.019-.766-0.011-1.533-0.021-2.3-0.008-.644.152-1.373-0.76-1.671a23.724,23.724,0,0,1,2.641.021,1.323,1.323,0,0,1,1.25,1.55,1.562,1.562,0,0,1-1.763,1.272c-0.02-.287.245-0.2,0.373-0.264a1.3,1.3,0,0,0,.155-2.064,0.992,0.992,0,0,0-.966-0.147c-0.265.12-.131,0.446-0.134,0.678-0.008.54,0.016,1.08,0.028,1.621A0.425,0.425,0,0,0,5539.215,2328.024Z" transform="translate(-5524.87 -2291.833)"/><path class="cls-1" d="M5565.407,2302.634c-2.963-.219-5.8-0.117-8.64-0.08-0.629.008-1.257,0.071-1.886,0.1-0.241.013-.463-0.01-0.46-0.338,0-.284.2-0.3,0.414-0.323a41.859,41.859,0,0,1,7.277-.158c1.076,0.081,2.163,0,3.235.159,0.247,0.037.685-.16,0.667,0.322C5566,2302.818,5565.561,2302.611,5565.407,2302.634Z" transform="translate(-5524.87 -2291.833)"/><path class="cls-1" d="M5577.325,2326.379c-0.993-1.368-1.731-1.69-2.8-1.269a2.243,2.243,0,0,0-1.22,2.288,2.406,2.406,0,0,0,1.9,2.39,1.752,1.752,0,0,0,2.02-1.264,1.071,1.071,0,0,1-.226,1.368,3.1,3.1,0,0,1-4.506-2.13,2.751,2.751,0,0,1,1.426-2.72,2.961,2.961,0,0,1,3.152-.053A1.244,1.244,0,0,1,5577.325,2326.379Z" transform="translate(-5524.87 -2291.833)"/><path class="cls-1" d="M5564.211,2326.624v1.069a0.75,0.75,0,0,1-.452-0.283,0.82,0.82,0,0,0-1.294.832,0.353,0.353,0,0,0,0,.068c0.09,0.429-.207,1.008.4,1.241a1.842,1.842,0,0,0,1.882-.576c0.212,0.736.038,0.988-.657,0.984-0.947-.006-1.895,0-2.842,0-0.144,0-.321.1-0.43-0.182,1.02-.033.876-0.785,0.882-1.436,0.008-.88,0-1.76-0.015-2.64-0.007-.413-0.029-0.839-0.655-0.866a12.7,12.7,0,0,1,3.206-.186c0.555-.022.265,0.485,0.32,0.8a2.161,2.161,0,0,0-1.665-.437,0.318,0.318,0,0,0-.4.381c0.01,0.157-.035.318-0.015,0.473,0.05,0.387-.207.99,0.173,1.114A1.287,1.287,0,0,0,5564.211,2326.624Z" transform="translate(-5524.87 -2291.833)"/><path class="cls-1" d="M5571.017,2326.405a2.469,2.469,0,0,0-1.093-1.348,2,2,0,0,0-2.8,1.378,2.832,2.832,0,0,0,.86,2.879c1.093,0.854,2.317.5,2.987-.869a0.988,0.988,0,0,1-.546,1.507,3.58,3.58,0,0,1-2.879-.241,2.572,2.572,0,0,1-1.222-3.066,3.078,3.078,0,0,1,3.118-2.11c0.157,0.015.313,0.042,0.468,0.072C5571.039,2324.831,5571.165,2325.01,5571.017,2326.405Z" transform="translate(-5524.87 -2291.833)"/><path class="cls-1" d="M5559.174,2325.746a1.214,1.214,0,0,0-1.175-.871,0.8,0.8,0,0,0-.757.47,0.773,0.773,0,0,0,.183.871,5.074,5.074,0,0,0,1.1.774,1.59,1.59,0,0,1,.71,2.292,1.81,1.81,0,0,1-2.494.548c-0.5-.284-0.57-0.692-0.231-1.443a0.926,0.926,0,0,1,.272.652,1.126,1.126,0,0,0,1.137.687,0.858,0.858,0,0,0,.908-0.663,1.032,1.032,0,0,0-.552-1.133c-0.333-.231-0.695-0.42-1.023-0.656a1.455,1.455,0,0,1-.5-2.055,1.772,1.772,0,0,1,2.233-.54C5559.453,2324.942,5559.267,2325.346,5559.174,2325.746Z" transform="translate(-5524.87 -2291.833)"/><path class="cls-1" d="M5560.949,2297.96a0.833,0.833,0,0,1,.927.185,0.631,0.631,0,0,1,.009.761c-0.151.2-.366,0.729-0.628,0.05-0.068-.177-0.22-0.127-0.34-0.085a0.251,0.251,0,0,0-.129.388c0.1,0.206.153,0.334-.116,0.47a1.136,1.136,0,0,1-1.095-.082c-0.289-.15.044-0.281,0.086-0.422a0.25,0.25,0,0,0-.092-0.346,0.269,0.269,0,0,0-.368.045c-0.107.2-.139,0.464-0.455,0.25a0.755,0.755,0,0,1-.283-0.715,0.459,0.459,0,0,1,.389-0.543c0.826,0.128.733-.48,0.841-0.943l-0.005,0a1.609,1.609,0,0,0,.684-0.135l-0.007-.006c0.182,0.352.693,0.543,0.525,1.068-0.055.036-.121,0.072-0.031,0.136A0.517,0.517,0,0,0,5560.949,2297.96Zm-1.084.3a0.773,0.773,0,0,0-.141-0.164,0.077,0.077,0,0,0-.123.078,0.377,0.377,0,0,0,.124.2C5559.8,2298.437,5559.824,2298.348,5559.865,2298.255Zm0.662,0.086a0.95,0.95,0,0,0,.162.075,0.177,0.177,0,0,0,.053-0.107,0.092,0.092,0,0,0-.134-0.09A0.337,0.337,0,0,0,5560.528,2298.342Z" transform="translate(-5524.87 -2291.833)"/><path class="cls-1" d="M5556.045,2298.185c-0.006-.135-0.022-0.27-0.017-0.4a0.546,0.546,0,0,1,1.061-.249,0.56,0.56,0,0,0,.658.412,0.505,0.505,0,0,1,.522.438,0.73,0.73,0,0,1-.178.752c-0.182.207-.343,0.163-0.435-0.116-0.069-.209-0.242-0.187-0.384-0.1a0.229,0.229,0,0,0-.047.4c0.628,0.5-.073.52-0.256,0.593-0.463.185-.753-0.086-0.679-0.575,0.023-.149.007-0.282-0.163-0.31a0.219,0.219,0,0,0-.26.23c-0.07.395-.25,0.313-0.414,0.067a0.831,0.831,0,0,1-.14-0.884,0.593,0.593,0,0,1,.707-0.23l0.112,0.159c0.031,0.1.04,0.216,0.184,0.2a0.111,0.111,0,0,0,.077-0.076c0.007-.141-0.109-0.155-0.209-0.183Zm0.908,0.142a0.637,0.637,0,0,0-.065.156,0.186,0.186,0,0,0,.095.059,0.892,0.892,0,0,0,.094-0.139Z" transform="translate(-5524.87 -2291.833)"/><path class="cls-1" d="M5563.629,2294.266a3.721,3.721,0,0,0-1.749-.922,0.584,0.584,0,0,1-.383-0.244,0.176,0.176,0,0,1,.073-0.156,0.438,0.438,0,0,1,.5.111,1.337,1.337,0,0,0,.772.233,6.965,6.965,0,0,1,1.718.877,0.67,0.67,0,0,0,.385.271c0.452-.006.751,0.1,0.632,0.669-0.068.323,0.232,0.266,0.417,0.262,0.5-.009.685,0.2,0.459,0.668-0.2.419-.015,0.534,0.365,0.529,0.254,0,.566-0.022.563,0.316a1.043,1.043,0,0,1-.768.774c-0.323.195-.28-0.188-0.359-0.323a11.657,11.657,0,0,0-1.7-2.506,0.96,0.96,0,0,0-.793-0.43l0.005,0a0.12,0.12,0,0,0-.141-0.141Z" transform="translate(-5524.87 -2291.833)"/><path class="cls-1" d="M5564.194,2299.48c0.158,0.233,0,.308-0.178.4a0.84,0.84,0,0,1-.888-0.128c-0.273-.164-0.069-0.268.046-0.4a0.27,0.27,0,0,0-.027-0.419,0.213,0.213,0,0,0-.366.119c-0.147.38-.335,0.205-0.476,0.01a0.718,0.718,0,0,1-.053-0.825,0.453,0.453,0,0,1,.616-0.256c0.275,0.119.332,0.011,0.4-.234a0.7,0.7,0,0,1,.72-0.6,0.653,0.653,0,0,1,.441.688,0.3,0.3,0,0,0,.282.357c0.588,0.1.507,0.525,0.394,0.939a0.454,0.454,0,0,1-.305.338c-0.286.079-.174-0.176-0.222-0.294a0.2,0.2,0,0,0-.261-0.145C5564.081,2299.121,5564.132,2299.3,5564.194,2299.48Zm0.1-1.012-0.085-.111a0.916,0.916,0,0,0-.127.118,0.2,0.2,0,0,0,.062.085A0.974,0.974,0,0,0,5564.293,2298.469Zm-0.71-.054a0.345,0.345,0,0,0-.114-0.082,0.09,0.09,0,0,0-.1.123,0.138,0.138,0,0,0,.076.073A0.969,0.969,0,0,0,5563.583,2298.415Z" transform="translate(-5524.87 -2291.833)"/><path class="cls-1" d="M5565.661,2299.959c-0.057-.161.395-0.292,0.057-0.444a0.692,0.692,0,0,1-.306-0.922,0.523,0.523,0,0,1,.562-0.392c0.47-.051.475,0.364,0.58,0.657,0.257-.088.149-0.219,0.113-0.335a0.471,0.471,0,0,1,.135-0.6,1.314,1.314,0,0,1,.963-0.237c0.2,0.034.144,0.2,0.07,0.315-0.442.679-.876,1.364-1.342,2.026-0.286.407-.542-0.2-0.836-0.067Zm0.392-.941-0.113.31a0.607,0.607,0,0,0,.157.047,0.138,0.138,0,0,0,.048-0.1A1.45,1.45,0,0,0,5566.053,2299.018Z" transform="translate(-5524.87 -2291.833)"/><path class="cls-1" d="M5553.858,2298.866c0.106-.5.3-0.857,0.86-0.6a0.653,0.653,0,0,1,.3.924c-0.2.5-.437,0.048-0.642-0.027a0.282,0.282,0,0,0,.053.433c0.116,0.134.321,0.241,0.068,0.414-0.179.123-.4,0.3-0.581,0.027a16.509,16.509,0,0,1-1.289-2.049c-0.116-.247-0.01-0.31.233-0.32C5553.542,2297.633,5553.846,2298,5553.858,2298.866Z" transform="translate(-5524.87 -2291.833)"/><path class="cls-1" d="M5565.657,2299.955c-0.2.345,0.6,0.413,0.235,0.747a1.065,1.065,0,0,1-.832-0.091c-1.523-.063-3.045-0.164-4.58-0.252a1.968,1.968,0,0,1,2.447-.286,1.043,1.043,0,0,0,1.23.13,3.283,3.283,0,0,1,1.5-.244Z" transform="translate(-5524.87 -2291.833)"/><path class="cls-1" d="M5560.2,2300.626a2.844,2.844,0,0,1,1.057.133,0.386,0.386,0,0,1,.3.315,0.329,0.329,0,0,1-.3.312,3.17,3.17,0,0,1-2.04.031,0.371,0.371,0,0,1-.324-0.369,0.346,0.346,0,0,1,.309-0.3A3,3,0,0,1,5560.2,2300.626Z" transform="translate(-5524.87 -2291.833)"/><path class="cls-1" d="M5560.67,2292.875a5.082,5.082,0,0,0-.869.056c-0.247.067-.441,0.089-0.557-0.181a0.547,0.547,0,0,1,.148-0.671,1.537,1.537,0,0,1,1.59-.047,0.621,0.621,0,0,1,.168.736C5561.012,2293.194,5560.7,2292.871,5560.67,2292.875Z" transform="translate(-5524.87 -2291.833)"/><path class="cls-1" d="M5556.752,2301.6c-0.322-.061-0.853.11-0.886-0.337s0.524-.424.842-0.45c0.379-.031,1.016-0.205,1.031.366C5557.753,2301.662,5557.135,2301.54,5556.752,2301.6Z" transform="translate(-5524.87 -2291.833)"/><path class="cls-1" d="M5563.656,2301.593c-0.37-.034-1.032.032-1-0.431,0.034-.564.7-0.322,1.118-0.361a0.443,0.443,0,0,1,.2.038c0.236,0.094.615,0.085,0.579,0.435s-0.386.3-.649,0.318C5563.829,2301.6,5563.762,2301.593,5563.656,2301.593Z" transform="translate(-5524.87 -2291.833)"/><path class="cls-1" d="M5559.966,2300.329a28.077,28.077,0,0,1-2.818.105Q5558.224,2299.223,5559.966,2300.329Z" transform="translate(-5524.87 -2291.833)"/><path class="cls-1" d="M5556.9,2300.545l-2.574.177C5554.936,2299.792,5555.453,2299.743,5556.9,2300.545Z" transform="translate(-5524.87 -2291.833)"/><path class="cls-1" d="M5565.847,2301.044a0.386,0.386,0,0,1,.468.353,0.335,0.335,0,0,1-.386.354c-0.248-.013-0.518-0.064-0.51-0.388A0.367,0.367,0,0,1,5565.847,2301.044Z" transform="translate(-5524.87 -2291.833)"/><path class="cls-1" d="M5555.032,2301.451a0.451,0.451,0,0,1-.544.276,0.311,0.311,0,0,1-.335-0.392,0.421,0.421,0,0,1,.532-0.283A0.342,0.342,0,0,1,5555.032,2301.451Z" transform="translate(-5524.87 -2291.833)"/><path class="cls-1" d="M5553.966,2300.66a0.387,0.387,0,0,1-.083.066c-0.429.106-.511-0.252-0.657-0.508-0.04-.07.011-0.213,0.119-0.181A1.2,1.2,0,0,1,5553.966,2300.66Z" transform="translate(-5524.87 -2291.833)"/><path class="cls-1" d="M5539.215,2328.024a0.425,0.425,0,0,1-.01-0.543l0.155,0.056-0.008.217Z" transform="translate(-5524.87 -2291.833)"/><path class="cls-1" d="M5539.353,2327.753l0.008-.217c0.126-.037.3-0.073,0.3,0.1S5539.478,2327.765,5539.353,2327.753Z" transform="translate(-5524.87 -2291.833)"/><path class="cls-1" d="M5560.375,2296.842a1.609,1.609,0,0,1-.684.135C5560.071,2296.519,5560.162,2296.5,5560.375,2296.842Z" transform="translate(-5524.87 -2291.833)"/><path class="cls-1" d="M5560.652,2295.2l0.093,0.074c-0.073.079-.1,0.022-0.126-0.042Z" transform="translate(-5524.87 -2291.833)"/><path class="cls-1" d="M5563.623,2294.261a0.12,0.12,0,0,1,.141.141A0.123,0.123,0,0,1,5563.623,2294.261Z" transform="translate(-5524.87 -2291.833)"/><path class="cls-1" d="M5559.723,2296.057c-0.038.051-.076,0.112-0.136,0.027a0.555,0.555,0,0,1,.079-0.083Z" transform="translate(-5524.87 -2291.833)"/><path class="cls-1" d="M5560.8,2296.011a0.559,0.559,0,0,1,.08.082c-0.063.089-.1,0.02-0.134-0.029Z" transform="translate(-5524.87 -2291.833)"/><path class="cls-1" d="M5556.045,2298.185l0.14,0.129-0.052.053-0.113-.158Z" transform="translate(-5524.87 -2291.833)"/></svg>