<svg id="Layer_1" data-name="Layer 1" xmlns="http://www.w3.org/2000/svg" xmlns:xlink="http://www.w3.org/1999/xlink" viewBox="0 0 36.893 45.018"><defs><style>.cls-1{fill:none;}.cls-2{clip-path:url(#clip-path);}.cls-3{fill:#484748;}</style><clipPath id="clip-path" transform="translate(6179.076 -1395.156)"><rect class="cls-1" x="-6179.076" y="1395.156" width="36.893" height="45.018"/></clipPath></defs><title>OldStyleLandingLogo</title><g class="cls-2"><path class="cls-3" d="M-6162.986,1435.242q1.07,0.479,2.139.959a0.3,0.3,0,0,0,.259.033,20.376,20.376,0,0,0,2.173-1.065,23.9,23.9,0,0,0-4.571.073h0Zm-4.61,2.436a2.168,2.168,0,0,0,.2-0.824,0.246,0.246,0,0,0-.112-0.266,1.639,1.639,0,0,0-1.62-.286,9.238,9.238,0,0,0-2.006.93c-0.11.089-.315,0.177-0.23,0.347a0.447,0.447,0,0,0,.431.071,0.3,0.3,0,0,0,.075-0.016c0.64-.122,1.276-0.285,1.922-0.351a1.166,1.166,0,0,1,1.335.393h0Zm13.866-.042a0.831,0.831,0,0,1,.752-0.372,15.746,15.746,0,0,1,2.464.369c0.176,0.028.433,0.132,0.521-.074,0.08-.185-0.176-0.279-0.3-0.4a0.784,0.784,0,0,0-.161-0.1,10.831,10.831,0,0,0-1.693-.723,1.431,1.431,0,0,0-1.5.111,0.52,0.52,0,0,0-.275.586,1.563,1.563,0,0,0,.192.606h0Zm-22.014,2.109a8.966,8.966,0,0,1,1.131-.458,32.889,32.889,0,0,1,4.817-.621,4.756,4.756,0,0,0,1.635-.42,0.449,0.449,0,0,0,.372-0.476,0.526,0.526,0,0,0-.58-0.346,4.691,4.691,0,0,0-1.033.115,14.863,14.863,0,0,1-1.746.279,0.382,0.382,0,0,1-.451-0.466c0.014-.7.112-1.394,0.09-2.1-0.008-.25-0.057-0.336-0.326-0.309-0.668.066-1.34,0.087-2.009,0.147a11.144,11.144,0,0,0-2.551.435,7.606,7.606,0,0,1,1.909,1.514c0.168,0.173.167,0.258-.013,0.422a4.181,4.181,0,0,0-1.244,2.282h0Zm25.779-2.581c0-.128,0-0.228,0-0.328,0.05-1.258-.109-2.511-0.081-3.769a0.856,0.856,0,0,0-.765-1.095,28.319,28.319,0,0,0-7.716-1.545,30.336,30.336,0,0,0-4.924.058,31.666,31.666,0,0,0-4.639.737,16.471,16.471,0,0,0-2.641.84,0.752,0.752,0,0,0-.562.848,7.815,7.815,0,0,1-.029,1.085c-0.026,1.05-.009,2.1-0.009,3.151,0.149-.1.3-0.225,0.467-0.319a4.6,4.6,0,0,1,.56-0.26,27.048,27.048,0,0,1,7.856-1.626,25.433,25.433,0,0,1,4.147.056,29.47,29.47,0,0,1,4.226.641,12.029,12.029,0,0,1,4.109,1.524h0Zm2.377-34.6a1.608,1.608,0,0,0-.743-0.136c-1.481-.183-2.964-0.367-4.452-0.469-1.662-.114-3.325-0.258-4.994-0.249-0.311,0-.622-0.012-0.932-0.031-1.256-.078-2.514-0.059-3.77-0.018-1.6.053-3.2,0.129-4.807,0.209-0.744.037-1.489,0.092-2.23,0.167q-1.631.166-3.258,0.376c-1.031.131-2.057,0.307-3.09,0.419a0.4,0.4,0,0,0-.414.506q0.018,9.431.021,18.862a6.432,6.432,0,0,0,.315,1.856,8.242,8.242,0,0,0,1.009,2.364,17.2,17.2,0,0,0,5.123,4.985,0.3,0.3,0,0,0,.311.033,30.57,30.57,0,0,1,7.585-1.239,30.717,30.717,0,0,1,5.261.235,25.886,25.886,0,0,1,4.7.984,0.487,0.487,0,0,0,.463-0.069,19.681,19.681,0,0,0,4.4-4,8.939,8.939,0,0,0,1.951-5.5q0.019-9.311.008-18.623c0-.039,0-0.078,0-0.117a0.2,0.2,0,0,0-.206-0.248,19.546,19.546,0,0,0-2.248-.3h0Zm0.106-1.792q0.005-1.9.01-3.808a0.243,0.243,0,0,0-.205-0.309c-0.569-.1-1.133-0.222-1.7-0.31-1.65-.254-3.3-0.491-4.967-0.641-1.582-.142-3.163-0.268-4.75-0.288a66.341,66.341,0,0,0-7.092.214c-1.1.1-2.2,0.2-3.3,0.341-1.374.175-2.741,0.41-4.1,0.674a0.336,0.336,0,0,0-.341.4c0.012,1.243.009,2.487,0.012,3.731a0.512,0.512,0,0,1-.325.077c0-.363,0-0.726.01-1.088a0.185,0.185,0,0,0-.255-0.223c-1.351.237-2.712,0.412-4.046,0.747a0.412,0.412,0,0,0-.373.5c0.015,1.347.049,2.694,0.055,4.04,0.025,5.623.018,11.246,0.012,16.869a12.941,12.941,0,0,0,.33,3.179,12.111,12.111,0,0,0,2.731,5.218,22.8,22.8,0,0,0,2.58,2.4,14.266,14.266,0,0,0,1.657,1.218,4.444,4.444,0,0,0,.1-1.338,2.882,2.882,0,0,1,1.086-.638c0.121-.055.334-0.02,0.346-0.187a0.424,0.424,0,0,0-.3-0.271,20.968,20.968,0,0,1-3.793-3.408,9.7,9.7,0,0,1-2.372-6.393c-0.025-6.093-.009-12.186-0.009-18.279,0-.091,0-0.182,0-0.272a0.176,0.176,0,0,1,.184-0.2c1.081-.153,2.159-0.328,3.242-0.464,1.02-.128,2.045-0.224,3.068-0.335,1.14-.124,2.283-0.2,3.424-0.279,1.093-.074,2.191-0.14,3.285-0.15,1.863-.017,3.726-0.052,5.592.037q1.991,0.1,3.984.18c0.72,0.03,1.44.091,2.157,0.165,1.1,0.114,2.2.238,3.294,0.382,1.018,0.134,2.031.311,3.05,0.443a0.3,0.3,0,0,1,.309.367c-0.055,6.362.1,12.725-.081,19.086a8.931,8.931,0,0,1-1.429,4.517,15.962,15.962,0,0,1-3.944,4.06c-0.346.27-.7,0.525-1.094,0.815a3.494,3.494,0,0,1,1.548.813v1.387c0.2-.137.329-0.216,0.449-0.305,0.684-.506,1.357-1.027,2-1.582a14.725,14.725,0,0,0,3.151-3.545,11.821,11.821,0,0,0,1.711-5.426c0.079-1.291.023-2.591,0.027-3.887,0.018-6.051-.047-12.1.058-18.154a0.5,0.5,0,0,0-.424-0.6c-1.237-.3-2.487-0.519-3.742-0.71-0.5-.075-0.5-0.052-0.5.455,0,0.285.009,0.57,0.013,0.855l-0.328-.077h0Zm1.843,38.937c0.028,0.034.057,0.051,0.093,0.01l-0.055-.045a0.726,0.726,0,0,0-.022-0.191,5.562,5.562,0,0,0-1.126-1.917,0.375,0.375,0,0,1,.026-0.642,8.564,8.564,0,0,1,1.81-1.408,23.534,23.534,0,0,0-4.619-.582c-0.227-.019-0.286.069-0.281,0.285,0.016,0.712,0,1.425.026,2.136a0.364,0.364,0,0,1-.434.465,9.559,9.559,0,0,1-1.329-.2,6.565,6.565,0,0,0-1.527-.186,0.449,0.449,0,0,0-.462.337,0.4,0.4,0,0,0,.282.419,2.75,2.75,0,0,0,.6.257,18.788,18.788,0,0,0,3.515.448,10.4,10.4,0,0,1,3.5.82h0Zm-20.425-4.085a3.717,3.717,0,0,0-.909.145c-0.3.075-.6,0.131-0.93,0.2,0.055,0.041.073,0.058,0.095,0.07,2.232,1.259,4.579,2.278,6.919,3.31a0.466,0.466,0,0,0,.4-0.007c1.206-.546,2.428-1.058,3.624-1.625,1.137-.54,2.273-1.086,3.421-1.761l-1.809-.4c-0.444-.068-0.886-0.158-1.333-0.2a2.926,2.926,0,0,0-1.8.037c-0.649.345-1.334,0.621-2,.935a0.624,0.624,0,0,1-.523.047c-0.334-.137-0.67-0.272-0.994-0.431a3.536,3.536,0,0,0-2.591-.63,12.531,12.531,0,0,0-1.577.307h0Zm21.541-.137a12.765,12.765,0,0,0-1.363.894c-0.227.195-.417,0.427-0.652,0.607-0.268.2-.186,0.36,0,0.562a6.749,6.749,0,0,1,1.32,2.624,8.725,8.725,0,0,0-4.122-1.128,24.378,24.378,0,0,1-2.837-.307,2.462,2.462,0,0,1-1.537-.735,2.02,2.02,0,0,1-.39-1.273c-0.591.3-1.145,0.569-1.7,0.85-1.51.768-3.072,1.421-4.622,2.1a1.175,1.175,0,0,1-1.022-.2c-1.935-.857-3.878-1.7-5.769-2.713-0.02.2-.027,0.375-0.058,0.546-0.16.883-.787,1.235-1.854,1.423s-2.175.23-3.263,0.339a7.577,7.577,0,0,0-3.37.894c-0.065.041-.15,0.14-0.237,0.042a0.216,0.216,0,0,1,.026-0.218,5.194,5.194,0,0,1,1.255-2.371c0.161-.163.124-0.227,0-0.361a6.959,6.959,0,0,0-1.914-1.457,1.659,1.659,0,0,1-.183-0.135,9.7,9.7,0,0,1,2.062-.453c1-.135,2-0.171,3.005-0.236,0.109-.007.217-0.01,0.222-0.153a0.556,0.556,0,0,0-.172-0.6c-0.674-.433-1.294-0.94-1.921-1.437a14.032,14.032,0,0,1-4.734-6.066,10.1,10.1,0,0,1-.726-3.578c0.027-7.507.014-15.015,0.01-22.522a0.365,0.365,0,0,1,.352-0.45,31.779,31.779,0,0,1,3.947-.716c0.532-.057.549-0.271,0.534-0.67-0.022-.6,0-1.193-0.008-1.789a0.318,0.318,0,0,1,.316-0.4c1.449-.3,2.911-0.527,4.374-0.74,0.827-.12,1.666-0.158,2.5-0.257a86.615,86.615,0,0,1,9.969-.213,32.59,32.59,0,0,1,3.464.269q1.653,0.171,3.293.421c0.966,0.146,1.923.349,2.887,0.51a0.291,0.291,0,0,1,.279.363c-0.013.687,0,1.374-.008,2.061a0.281,0.281,0,0,0,.292.344q1.692,0.267,3.375.585c0.376,0.071.735,0.225,1.106,0.324a0.313,0.313,0,0,1,.212.4q0,1.634,0,3.267,0,8.947,0,17.893a12.956,12.956,0,0,1-2.243,7.514,15.5,15.5,0,0,1-2.868,3.029c-0.761.641-1.543,1.251-2.356,1.824a0.568,0.568,0,0,0-.144.636c0.02,0.236.242,0.136,0.378,0.143a29.218,29.218,0,0,1,4.333.488,1.3,1.3,0,0,1,.56.225h0Z" transform="translate(6179.076 -1395.156)"/></g><path class="cls-3" d="M-6174.247,1400.85q-1.825.277-3.649,0.551a0.158,0.158,0,0,0-.148.185c0,0.156,0,.311,0,0.467,0,6.48-.016,12.96.01,19.44a11.154,11.154,0,0,0,2.657,7.287,21.918,21.918,0,0,0,3.933,3.591,4.445,4.445,0,0,1-.1,1.338,14.266,14.266,0,0,1-1.657-1.218,22.8,22.8,0,0,1-2.58-2.4,12.111,12.111,0,0,1-2.731-5.218,12.941,12.941,0,0,1-.33-3.179c0.006-5.623.013-11.246-.012-16.869-0.006-1.346-.041-2.693-0.055-4.04a0.412,0.412,0,0,1,.373-0.5c1.334-.335,2.7-0.511,4.046-0.747a0.185,0.185,0,0,1,.255.223c-0.014.362-.008,0.725-0.01,1.088h0Z" transform="translate(6179.076 -1395.156)"/><path class="cls-3" d="M-6149.9,1432.362c0.818-.666,1.654-1.309,2.429-2.03a12.06,12.06,0,0,0,3.945-6.922,13.2,13.2,0,0,0,.173-2.2q0-9.685.005-19.369a0.376,0.376,0,0,0-.385-0.479c-1.141-.166-2.274-0.381-3.42-0.515,0-.285-0.012-0.57-0.013-0.855,0-.507,0-0.53.5-0.455,1.256,0.191,2.506.413,3.742,0.71a0.5,0.5,0,0,1,.424.6c-0.1,6.051-.039,12.1-0.058,18.154,0,1.3.052,2.6-.027,3.887a11.821,11.821,0,0,1-1.711,5.426,14.725,14.725,0,0,1-3.151,3.545c-0.647.555-1.319,1.076-2,1.582-0.12.089-.247,0.168-0.449,0.305v-1.387h0Z" transform="translate(6179.076 -1395.156)"/><path class="cls-3" d="M-6155.25,1435.559l1.809,0.4c-1.148.675-2.284,1.221-3.421,1.761-1.2.567-2.418,1.079-3.624,1.625a0.466,0.466,0,0,1-.4.007c-2.34-1.032-4.687-2.051-6.919-3.31-0.021-.012-0.04-0.029-0.095-0.07,0.329-.07.632-0.126,0.93-0.2a3.717,3.717,0,0,1,.909-0.145c1.672,0.884,3.387,1.677,5.121,2.432a0.675,0.675,0,0,0,.588-0.03c0.386-.17.77-0.345,1.153-0.521,1.335-.613,2.679-1.207,3.952-1.946h0Z" transform="translate(6179.076 -1395.156)"/><path class="cls-3" d="M-6162.986,1435.242a23.9,23.9,0,0,1,4.571-.073,20.376,20.376,0,0,1-2.173,1.065,0.3,0.3,0,0,1-.259-0.033q-1.068-.482-2.139-0.959h0Z" transform="translate(6179.076 -1395.156)"/><path d="M-6145.6,1439.674l0.055,0.045c-0.036.041-.065,0.024-0.093-0.01l0.038-.035h0Z" transform="translate(6179.076 -1395.156)"/><path d="M-6157.98,1413.15l0.059,0.018c-0.047.072-.043,0-0.056-0.02l0,0h0Z" transform="translate(6179.076 -1395.156)"/><path class="cls-3" d="M-6147.127,1420.41c-0.719.362-1.367,0.863-2.05,1.3a0.792,0.792,0,0,0-.451,1.075c0.014,0.061.039,0.119,0.063,0.193a0.97,0.97,0,0,1-.547-1.1,0.427,0.427,0,0,1,.262-0.262c0.9-.575,1.787-1.159,2.686-1.728a0.394,0.394,0,0,0,.238-0.393,6.763,6.763,0,0,0-.062-1.214,0.828,0.828,0,0,1,.528.723,1.19,1.19,0,0,1-.665,1.408h0Zm-1.848,4.666a0.819,0.819,0,0,1-1.031-.08,2.316,2.316,0,0,0,1.25-.634c0.39-.248.769-0.513,1.148-0.777,0.333-.232.33-0.236,0.745,0.019-0.72.5-1.412,0.994-2.113,1.472h0Zm-1.742-.437a5.476,5.476,0,0,1-1.235-.776,1.267,1.267,0,0,1-.456-1.019q0.01-1.789,0-3.577a0.464,0.464,0,0,1,.255-0.434c0.76-.476,1.521-0.95,2.271-1.441a1.447,1.447,0,0,1,1.107.043,2.241,2.241,0,0,1,.548.159,1.378,1.378,0,0,1,.91,1.823,0.476,0.476,0,0,1-.271.249c-0.877.574-1.755,1.147-2.651,1.69a0.522,0.522,0,0,0-.273.525,1.671,1.671,0,0,0,1.492,1.6,0.666,0.666,0,0,0,.553-0.3,0.423,0.423,0,0,1,.684.005c-0.74.494-1.481,0.993-2.227,1.483a0.691,0.691,0,0,1-.7-0.026h0Zm-1.522-.232c-0.351.261-.728,0.49-1.065,0.768a0.413,0.413,0,0,1-.68-0.083c0.5-.348,1-0.667,1.457-1.035a0.3,0.3,0,0,1,.483.1c0.122,0.156-.11.184-0.2,0.247h0Zm-2.453.411a2.359,2.359,0,0,1-1.268-2.106c0.019-1.555,0-3.11,0-4.665,0-.941-0.042-1-0.935-1.339l2.819-1.7a0.507,0.507,0,0,1,.061.363c0,2.151.02,4.3-.009,6.453a1.946,1.946,0,0,0,.9,1.762,0.454,0.454,0,0,1,.241.187c-0.48.337-.965,0.671-1.441,1.017a0.282,0.282,0,0,1-.376.03h0Zm-2.25,2.4c-0.885.6-1.769,1.2-2.639,1.814a2.048,2.048,0,0,1-1.906.246,3.063,3.063,0,0,0,1.863-.753c0.744-.53,1.5-1.048,2.252-1.562a0.533,0.533,0,0,0,.256-0.506c-0.01-2.657,0-5.314-.015-7.971a0.643,0.643,0,0,1,.477-0.713v0.314c0,2.852,0,5.7.006,8.555a0.61,0.61,0,0,1-.294.576h0Zm-3.708-2.286,0.937-.552a0.457,0.457,0,0,1-.119.537,0.592,0.592,0,0,1-.818.014h0Zm-1.893,3.77a15.607,15.607,0,0,1-1.732-.821,1.134,1.134,0,0,0-1.44.08,0.4,0.4,0,0,1-.6-0.037q1.182-.831,2.419-1.542a0.817,0.817,0,0,1,.824.142,9.245,9.245,0,0,0,2.342,1.055,1.873,1.873,0,0,0,.654.026,0.706,0.706,0,0,0,.7-0.843c0-.972,0-1.944,0-2.985-0.426.253-.816,0.483-1.2,0.715a0.846,0.846,0,0,1-1.243-.073,2.752,2.752,0,0,1-1.134-2.33c0.018-.648,0-1.3,0-1.944a0.837,0.837,0,0,0-.855-1.059l2.862-1.724v0.7c0,1.348.015,2.7-.005,4.045a1.46,1.46,0,0,0,1.314,1.378,0.208,0.208,0,0,0,.265-0.243c0-1.167.01-2.334-.009-3.5-0.007-.412-0.277-0.587-0.922-0.621l1.382-.88,1.414-.9c0,3.031,0,5.986,0,8.942a0.455,0.455,0,0,1-.227.413c-0.942.646-1.87,1.312-2.827,1.935a2.033,2.033,0,0,1-1.985.075h0Zm-2.879-.237a0.747,0.747,0,0,1,1.24-.2c-0.513-.154-0.734.635-1.24,0.2h0Zm1.143-11.707c0,0.09,0,.195-0.125.194a0.329,0.329,0,0,1-.322-0.057,0.924,0.924,0,0,1,.448-1.136c0,0.34,0,.67,0,1h0Zm1.117,7.353c-0.409.3-.84,0.6-1.256,0.928a0.45,0.45,0,0,1-.694-0.022,4.461,4.461,0,0,1,.754-0.607c0.134-.119.307-0.193,0.439-0.312,0.252-.229.491-0.4,0.757,0.013h0Zm-1.124-5.542c0.021,1.319.012,2.638,0,3.957a1.411,1.411,0,0,0,.14.593,1.08,1.08,0,0,1-.6-0.956c0-1.293,0-2.587-.007-3.88,0-.231.06-0.328,0.3-0.313a1.483,1.483,0,0,0,.992-0.2,1.7,1.7,0,0,1,.719-0.059,1.217,1.217,0,0,1-1.154.494c-0.284-.045-0.4.041-0.4,0.366h0Zm-2.846,3.863c0.01-1.413-.022-2.827.01-4.24,0.01-.434-0.145-0.515-0.506-0.441h-0.658a1.139,1.139,0,0,1,.9-0.482,0.194,0.194,0,0,0,.251-0.262,0.548,0.548,0,0,1,.336-0.609c0.505-.315.989-0.664,1.482-1a0.112,0.112,0,0,1-.039,0,0.532,0.532,0,0,1-.377-0.221,0.424,0.424,0,0,1,.3-0.314c0.865-.673,1.724-1.353,2.6-2.013a0.449,0.449,0,0,0,.2-0.416c0-2.126,0-4.252,0-6.378,0-.147-0.026-0.294-0.043-0.479a0.9,0.9,0,0,1,.513.825c0,2.1-.008,4.2.007,6.3a0.537,0.537,0,0,1-.3.453q-1.271,1.01-2.562,1.994c-0.1.076-.194,0.115-0.114,0.255q0.011,0.233.022,0.466c0.539-.4,1.075-0.8,1.617-1.2-0.542.4-1.078,0.8-1.617,1.2,0,0.389,0,.778-0.017,1.166-0.009.2,0.072,0.238,0.248,0.234,0.413-.01.827,0,1.257,0a1.159,1.159,0,0,1-1.18.467c-0.247-.033-0.33.05-0.327,0.314,0.014,1.387,0,2.775.01,4.162a1.446,1.446,0,0,0,.688,1.1c0.438,0.351.438,0.35,0,.667-0.313.225-.639,0.436-0.935,0.682a0.342,0.342,0,0,1-.465.027,2.422,2.422,0,0,1-1.286-2.257h0Zm-0.644.217a0.45,0.45,0,0,1-.207.414q-1.308.991-2.587,2.022a0.936,0.936,0,0,1-1.076.01,4.036,4.036,0,0,0,1.567-.994c0.56-.389,1.068-0.851,1.618-1.254a0.477,0.477,0,0,0,.214-0.45c-0.007-.913,0-1.826,0-2.787a0.834,0.834,0,0,1,.474.748c-0.01.764-.007,1.528,0,2.292h0Zm-4.2-5.813a0.6,0.6,0,0,1-.473-0.691c0.019-.523,0-1.047,0-1.6a0.583,0.583,0,0,1,.475.7c-0.027.526-.007,1.055-0.007,1.6h0Zm-0.47,7.792a13.129,13.129,0,0,1-2.3-1.461,2.618,2.618,0,0,1-.344-1.741,0.507,0.507,0,0,1,.285-0.345c0.53-.427,1.071-0.841,1.66-1.3,0,0.554,0,1.076,0,1.6a1.05,1.05,0,0,0,.089.49h0a14.526,14.526,0,0,0,2.4,1.682c0-1.027,0-1.966,0-2.9a0.643,0.643,0,0,0-.194-0.444c-1.177-.78-2.346-1.572-3.534-2.335a0.966,0.966,0,0,1-.467-0.868c-0.01-.518,0-1.037,0-1.556a0.482,0.482,0,0,1,.189-0.432q1.367-1.11,2.717-2.239a0.5,0.5,0,0,1,.514-0.075,7.871,7.871,0,0,1,2.629,1.559,1.258,1.258,0,0,1-.11,1.785c-0.525.413-1.052,0.823-1.657,1.3,0-.559-0.016-1.042.006-1.523a0.73,0.73,0,0,0-.332-0.7c-0.619-.406-1.247-0.8-1.927-1.231,0,0.888-.006,1.723,0,2.558a0.507,0.507,0,0,0,.249.416c1.126,0.713,2.224,1.469,3.38,2.134,0.064-.054.129-0.106,0.195-0.158-0.066.051-.131,0.1-0.195,0.158a1.123,1.123,0,0,1,.575,1.189c-0.042.644-.017,1.294-0.007,1.941a0.508,0.508,0,0,1-.228.479c-0.833.623-1.658,1.257-2.459,1.921a0.952,0.952,0,0,1-1.131.1h0Zm4.285-9.133a5.29,5.29,0,0,0-.06-0.918,0.306,0.306,0,0,1,.3.186,1.354,1.354,0,0,1,.229.947,0.822,0.822,0,0,1-.395.838c-0.554.366-1.056,0.809-1.607,1.242a0.656,0.656,0,0,1,.3-0.83c0.295-.177.528-0.456,0.824-0.632a0.763,0.763,0,0,0,.4-0.831h0Zm-0.985-9.668c0.893-.72,1.777-1.45,2.662-2.179a0.551,0.551,0,0,1,.68-0.044,23.428,23.428,0,0,1,2.459,1.581,0.907,0.907,0,0,1,.311.759c0,2.06,0,4.121,0,6.181a0.429,0.429,0,0,1-.181.388q-1.453,1.118-2.89,2.258a0.278,0.278,0,0,1-.35.006,21.887,21.887,0,0,1-2.658-1.759,0.6,0.6,0,0,1-.228-0.544c0.008-1.037,0-2.073,0-3.11s0-2.073,0-3.11a0.479,0.479,0,0,1,.191-0.427h0Zm9.05,12.378a0.743,0.743,0,0,1-.277.813c-0.1.068-.175,0.254,0.056,0.263,0.274,0.011.227,0.183,0.227,0.346q0,1.379,0,2.757a1.956,1.956,0,0,0,.09.7,1.157,1.157,0,0,1-.6-1.115c-0.009-1.191,0-2.381,0-3.572a0.588,0.588,0,0,1,.037-0.264,0.452,0.452,0,0,1,.381-0.291c0.187,0.025.071,0.235,0.087,0.361h0Zm2.18-5.041c-0.045.068-.044,0.009-0.055-0.016l0.055,0.016h0Zm-1.176-8.428c0,0.944,0,1.806,0,2.669,0.006,1.295.017,2.589,0.026,3.884l0.381-.241c0-1.706.017-3.412,0-5.118a0.652,0.652,0,0,1,.492-0.746v5.468l0.3-.225-0.3.225a6.253,6.253,0,0,0,.214,2.488,1.715,1.715,0,0,1-.7-1.441c-0.01-.216-0.008-0.434-0.011-0.651l-0.381.241a2.043,2.043,0,0,0,1.155,2.22c-0.53.368-1.04,0.709-1.533,1.072a0.227,0.227,0,0,1-.3,0,2.6,2.6,0,0,1-1.271-1.752q0-2.623,0-5.245a0.924,0.924,0,0,0-1-1.088l2.925-1.764h0Zm1.589,9.026a0.289,0.289,0,0,1,.386.141c0.119,0.128-.062.187-0.14,0.243-0.363.262-.732,0.517-1.1,0.769-0.329.224-.331,0.221-0.717-0.049,0.548-.386,1.057-0.751,1.572-1.1h0Zm3.891,2.084a0.37,0.37,0,0,1,.385-0.311c0.181,0,.084.207,0.084,0.316q0.009,2.854,0,5.708a4.722,4.722,0,0,0,.192,1.754,1.667,1.667,0,0,1-.664-1.409c-0.01-1.967,0-3.935,0-5.9a1.248,1.248,0,0,1,0-.155h0Zm-2.8-7.448a5.807,5.807,0,0,0,.771-0.577,0.452,0.452,0,0,1,.752.042,0.3,0.3,0,0,0,.224.138,4.875,4.875,0,0,1,.663-0.531,4.873,4.873,0,0,0-.663.531,3.619,3.619,0,0,0,.916.7c0-.417,0-0.79,0-1.162,0-.077-0.013-0.153-0.02-0.23,0.026-.6-0.109-0.722-0.931-0.813l2.814-1.759a6.865,6.865,0,0,1,.067,1.031l0.3-.157a1.272,1.272,0,0,1,.461-0.326q0,3.986.009,7.972a0.268,0.268,0,0,1-.089.277c-0.81.538-1.618,1.08-2.439,1.63a0.558,0.558,0,0,1,.3-0.729c0.529-.318,1.027-0.689,1.542-1.031a0.428,0.428,0,0,0,.221-0.4c-0.01-2.463-.008-4.926-0.009-7.389l-0.3.157c0,2.225-.015,4.451,0,6.677a0.738,0.738,0,0,1-.368.723c-0.7.444-1.395,0.907-2.069,1.394a0.406,0.406,0,0,1-.542.008q-0.888-.575-1.786-1.134a1.431,1.431,0,0,1-.687-1.3q-0.007-1.087-.012-2.173h0a1.4,1.4,0,0,1,.875-1.567h0Zm11.075-5.534a19.546,19.546,0,0,0-2.248-.3c-0.23.2-.466,0.392-0.705,0.581,0.239-.188.475-0.381,0.705-0.581a1.608,1.608,0,0,0-.743-0.136c-1.481-.183-2.964-0.367-4.452-0.469-1.662-.114-3.325-0.258-4.994-0.249-0.311,0-.622-0.012-0.932-0.031-1.256-.078-2.514-0.059-3.77-0.018-1.6.053-3.2,0.129-4.807,0.209-0.744.037-1.489,0.092-2.23,0.167q-1.631.166-3.258,0.376c-1.031.131-2.057,0.307-3.09,0.419a0.4,0.4,0,0,0-.414.506q0.018,9.431.021,18.862a6.43,6.43,0,0,0,.315,1.856,8.241,8.241,0,0,0,1.009,2.364,17.2,17.2,0,0,0,5.123,4.985,0.3,0.3,0,0,0,.311.033,30.57,30.57,0,0,1,7.585-1.239,30.717,30.717,0,0,1,5.261.235,25.886,25.886,0,0,1,4.7.984,0.487,0.487,0,0,0,.463-0.069,19.681,19.681,0,0,0,4.4-4,8.939,8.939,0,0,0,1.951-5.5q0.019-9.311.008-18.623c0-.039,0-0.078,0-0.117a0.2,0.2,0,0,0-.206-0.248h0Z" transform="translate(6179.076 -1395.156)"/><path class="cls-3" d="M-6169.9,1399.3l-0.912.045a1.432,1.432,0,0,0-.129-1.726l0.87-.1a0.581,0.581,0,0,0-.156.747,1.492,1.492,0,0,0,.855-0.057,0.551,0.551,0,0,0-.285-0.705,5.465,5.465,0,0,0,.975-0.191,1.649,1.649,0,0,0,.047,1.823l-0.824.1a0.5,0.5,0,0,0,.166-0.685,1.03,1.03,0,0,0-.787-0.077c-0.076-.014-0.2.036-0.155,0.111,0.123,0.21-.179.645,0.43,0.595l-0.1.125h0Z" transform="translate(6179.076 -1395.156)"/><path class="cls-3" d="M-6149.816,1398.445c0.293,0.007.4-.111,0.4-0.326a0.3,0.3,0,0,0-.357-0.306c-0.206.046-.148,0.3-0.184,0.468-0.04.186,0.1,0.164,0.145,0.164h0Zm-0.727-.846c0.416,0.03.775,0.036,1.126,0.09a0.492,0.492,0,0,1,.422.4,0.39,0.39,0,0,1-.218.443c-0.1.063-.165,0.115-0.083,0.242a1.431,1.431,0,0,0,.54.746c-0.438.051-.714-0.013-0.81-0.405a0.2,0.2,0,0,0-.018-0.075c-0.107-.131-0.041-0.386-0.28-0.415a0.171,0.171,0,0,0-.155.19c-0.03.2-.1,0.419,0.174,0.518a0.608,0.608,0,0,1,.052.169,5.038,5.038,0,0,0-.873-0.158,1.558,1.558,0,0,0,.124-1.74h0Z" transform="translate(6179.076 -1395.156)"/><path class="cls-3" d="M-6155.809,1397.658c0.042,0.119-.105.333,0.159,0.31a0.347,0.347,0,0,0,.372-0.314,0.339,0.339,0,0,0-.366-0.325c-0.285-.015-0.092.229-0.164,0.329h0Zm-0.074.785c0.027,0.175-.1.418,0.248,0.4a0.335,0.335,0,0,0,.383-0.365,0.38,0.38,0,0,0-.416-0.4c-0.328-.028-0.165.238-0.215,0.367h0Zm-0.594.459a1.568,1.568,0,0,0,.04-1.7c0.343,0,.631,0,0.918,0a0.571,0.571,0,0,1,.579.3,0.464,0.464,0,0,1-.2.533,0.45,0.45,0,0,1,.256.614,0.619,0.619,0,0,1-.666.355c-0.293-.006-0.586-0.058-0.922-0.094h0Z" transform="translate(6179.076 -1395.156)"/><path class="cls-3" d="M-6161.093,1397.923c0,0.535.23,0.854,0.574,0.832a0.633,0.633,0,0,0,.519-0.7,0.7,0.7,0,0,0-.484-0.844,0.453,0.453,0,0,0-.541.323,1.069,1.069,0,0,0-.069.385h0Zm0.519,0.964a0.891,0.891,0,0,1-.971-0.918,0.948,0.948,0,0,1,1.012-.928,0.971,0.971,0,0,1,.982.922,0.949,0.949,0,0,1-1.024.923h0Z" transform="translate(6179.076 -1395.156)"/><path class="cls-3" d="M-6152.952,1397.824a0.566,0.566,0,0,0-.526-0.358,0.34,0.34,0,0,0-.394.058,0.8,0.8,0,0,0-.051.531c0.01,0.108.118,0.082,0.187,0.076,0.154-.013.351,0.077,0.424-0.156,0.014-.044,0-0.1.107-0.09l-0.039.643a0.476,0.476,0,0,1-.165-0.2,0.415,0.415,0,0,0-.437-0.082,0.818,0.818,0,0,0-.135.534c-0.071.184,0.148,0.144,0.229,0.173a0.686,0.686,0,0,0,.867-0.353c0.008,0.56-.069.639-0.535,0.524-0.415-.1-0.848.029-1.273-0.109a1.325,1.325,0,0,0,.129-1.732c0.554,0.027,1.065.018,1.564,0.09,0.272,0.039.119,0.274,0.047,0.451h0Z" transform="translate(6179.076 -1395.156)"/><path class="cls-3" d="M-6162.425,1398.055h0.763c-0.392.2,0.005,0.647-.379,0.777a1.356,1.356,0,0,1-.911.047,0.918,0.918,0,0,1-.618-1.025,1.068,1.068,0,0,1,1.182-.806c0.417,0.07.457,0.119,0.435,0.532a0.158,0.158,0,0,1-.146-0.1,0.511,0.511,0,0,0-.668-0.2,0.831,0.831,0,0,0-.333,1.021,0.522,0.522,0,0,0,.5.454c0.115,0,.293.076,0.328-0.106a0.493,0.493,0,0,0-.155-0.591h0Z" transform="translate(6179.076 -1395.156)"/><path class="cls-3" d="M-6151.287,1398.782c-0.1-.147-0.044-0.348-0.255-0.347-0.155,0-.361-0.19-0.439.092-0.1.356,0.015,0.57,0.295,0.616a0.729,0.729,0,0,0,.786-0.366c-0.025.314,0.017,0.572-.339,0.538-0.471-.045-0.941-0.1-1.514-0.168,0.2-.109.432-0.04,0.38-0.275-0.1-.467.354-1-0.147-1.428,0.467-.057.935,0.1,1.415,0.08,0.228-.008.243,0.072,0.146,0.514a0.545,0.545,0,0,0-.48-0.4c-0.151-.014-0.352-0.111-0.429.038a0.993,0.993,0,0,0-.035.531c0.015,0.133.413,0.12,0.55-.015,0.034-.034.063-0.072,0.126-0.145a1.487,1.487,0,0,1-.057.738h0Z" transform="translate(6179.076 -1395.156)"/><path class="cls-3" d="M-6165.684,1397.715c-0.37-.209-0.681-0.626-1.065-0.147a1.053,1.053,0,0,0,.053,1.152c0.469,0.471.737-.018,1.063-0.257-0.019.477-.141,0.577-0.693,0.6a0.91,0.91,0,0,1-.987-0.783,0.936,0.936,0,0,1,.769-1.075c0.6-.094.729-0.028,0.86,0.511h0Z" transform="translate(6179.076 -1395.156)"/><path class="cls-3" d="M-6171.188,1398.077c-0.678-.314-0.856-0.313-1.044-0.015a1.264,1.264,0,0,0,.171,1.2c0.274,0.2.493,0.125,0.955-.33,0.087,0.38.06,0.433-.262,0.519a0.991,0.991,0,0,1-1.349-.6,0.907,0.907,0,0,1,.849-1.182c0.608-.02.608-0.02,0.679,0.41h0Z" transform="translate(6179.076 -1395.156)"/><path class="cls-3" d="M-6164.545,1398.1a0.545,0.545,0,0,0-.261-0.353c0,0.187-.261.5,0.261,0.353h0Zm0.048,0.792c0.349-.159.165-0.367,0.052-0.5a0.349,0.349,0,0,0-.506-0.017c-0.132.135-.3,0.369,0.1,0.537l-0.733.052a1.786,1.786,0,0,0,.6-1.093,0.945,0.945,0,0,1,.334-0.7,1.012,1.012,0,0,1,.39.649,2.133,2.133,0,0,0,.647,1.038,2.024,2.024,0,0,1-.886.036h0Z" transform="translate(6179.076 -1395.156)"/><path class="cls-3" d="M-6158.56,1398.321a0.737,0.737,0,0,0,.631.441,0.25,0.25,0,0,0,.259-0.18,0.243,0.243,0,0,0-.134-0.292c-0.161-.079-0.325-0.151-0.489-0.224a0.481,0.481,0,0,1-.282-0.506,0.493,0.493,0,0,1,.354-0.454,0.719,0.719,0,0,1,.651.077,0.5,0.5,0,0,1,.046.441,1.166,1.166,0,0,1-.3-0.341,0.284,0.284,0,0,0-.415.038c-0.129.163-.037,0.289,0.128,0.366,0.116,0.054.236,0.1,0.353,0.15a0.531,0.531,0,0,1,.331.655,0.527,0.527,0,0,1-.523.429,0.468,0.468,0,0,1-.609-0.6h0Z" transform="translate(6179.076 -1395.156)"/><path class="cls-3" d="M-6168.442,1399.152a1.492,1.492,0,0,0-.041-1.757,6.156,6.156,0,0,0,.88-0.12,1.671,1.671,0,0,0,.03,1.781l-0.869.1h0Z" transform="translate(6179.076 -1395.156)"/><path class="cls-3" d="M-6159.3,1397.956c0.151-.217.285-0.409,0.013-0.631a0.144,0.144,0,0,1,.115-0.226,0.255,0.255,0,0,1,.3.162c0.131,0.271,0,.5-0.43.694h0Z" transform="translate(6179.076 -1395.156)"/><path class="cls-3" d="M-6163.851,1433.432c-0.081-.418.127-0.952-0.483-1.245l0.818-.13c-0.514.45-.1,0.889-0.11,1.312a1.164,1.164,0,0,1,.025.671c-0.176.118-.366-0.191-0.552-0.312a8.58,8.58,0,0,0-1.166-.817,0.965,0.965,0,0,0,.473,1.244,2.65,2.65,0,0,1-.838.113,0.52,0.52,0,0,0,.208-0.775c-0.11-.352.185-0.945-0.526-1.037a0.882,0.882,0,0,1,.865,0c0.413,0.343.856,0.651,1.286,0.974h0Z" transform="translate(6179.076 -1395.156)"/><path class="cls-3" d="M-6161.139,1433.876c0.5-.482.192-1.049,0.289-1.54,0.049-.248-0.154-0.269-0.3-0.356,0.578,0,1.158-.035,1.731.015,0.272,0.024.041,0.285,0.091,0.447a0.768,0.768,0,0,0-.606-0.325c-0.146.006-.35-0.113-0.418,0.062a1.316,1.316,0,0,0-.027.574c0.011,0.124.144,0.079,0.225,0.078,0.147,0,.324.051,0.384-0.16,0.017-.059,0-0.133.129-0.131v0.738c-0.2,0-.06-0.241-0.205-0.276a0.511,0.511,0,0,0-.484,0,0.729,0.729,0,0,0-.064.561c0,0.2.193,0.132,0.3,0.145a0.706,0.706,0,0,0,.837-0.434c0.051,0.618.007,0.644-.505,0.609-0.451-.031-0.905-0.006-1.378-0.006h0Z" transform="translate(6179.076 -1395.156)"/><path class="cls-3" d="M-6161.4,1432.486c-0.692-.441-0.925-0.468-1.155-0.171a1.139,1.139,0,0,0,.058,1.3c0.254,0.268.495,0.2,1.141-.314a0.421,0.421,0,0,1-.318.581,1.076,1.076,0,0,1-1.493-.729,1.029,1.029,0,0,1,.432-1.044,1.312,1.312,0,0,1,1.141-.112,0.64,0.64,0,0,1,.2.493h0Z" transform="translate(6179.076 -1395.156)"/><path class="cls-3" d="M-6167.494,1433.23a0.578,0.578,0,0,1-.351-0.239,0.277,0.277,0,0,0-.318,0,0.237,0.237,0,0,0-.159.237,0.247,0.247,0,0,0,.226.227,1.993,1.993,0,0,0,.415.077,0.551,0.551,0,0,1,.579.5,0.569,0.569,0,0,1-.362.652c-0.524.26-.844,0.117-0.825-0.368a0.466,0.466,0,0,1,.3.21,0.366,0.366,0,0,0,.463.005,0.275,0.275,0,0,0,.193-0.3,0.375,0.375,0,0,0-.364-0.24c-0.114-.013-0.225-0.053-0.339-0.062a0.525,0.525,0,0,1-.5-0.359,0.541,0.541,0,0,1,.145-0.638,0.755,0.755,0,0,1,.721-0.158,0.369,0.369,0,0,1,.175.448h0Z" transform="translate(6179.076 -1395.156)"/><path class="cls-3" d="M-6154.617,1433.11c-0.041-.209.071-0.455-0.194-0.484-0.222-.024-0.239.216-0.275,0.358a8.549,8.549,0,0,0-.168.98c-0.017.133-.037,0.307,0.159,0.336a0.263,0.263,0,0,0,.27-0.271c0.085-.317.147-0.641,0.209-0.919h0Zm0.3,0.2a1.284,1.284,0,0,1-.285.923,0.506,0.506,0,0,1-.5.227,0.49,0.49,0,0,1-.427-0.4,1.579,1.579,0,0,1,.2-1.257,0.552,0.552,0,0,1,.594-0.329,0.582,0.582,0,0,1,.419.621c0,0.065,0,.129,0,0.213h0Z" transform="translate(6179.076 -1395.156)"/><path class="cls-3" d="M-6153.948,1433.236a0.46,0.46,0,0,1,.43-0.465,0.609,0.609,0,0,1,.637.339,0.518,0.518,0,0,1-.181.656c-0.255.192-.535,0.349-0.87,0.562,0.34,0.057.6,0.3,0.89-.083-0.062.59-.085,0.643-0.558,0.486-0.252-.084-0.518-0.124-0.8-0.19a4.361,4.361,0,0,1,.865-0.7,0.81,0.81,0,0,0,.291-0.4,0.307,0.307,0,0,0-.116-0.408,0.323,0.323,0,0,0-.419.082c-0.04.05-.062,0.153-0.168,0.121h0Z" transform="translate(6179.076 -1395.156)"/><path class="cls-3" d="M-6156.981,1434.088a1.141,1.141,0,0,0,.93-1.169,0.894,0.894,0,0,0-.013-0.343,0.2,0.2,0,0,0-.2-0.192,0.223,0.223,0,0,0-.23.167c-0.1.311-.233,0.632,0.321,0.807-0.379.076-.61,0.071-0.709-0.233a0.673,0.673,0,0,1,.335-0.846,0.511,0.511,0,0,1,.725.222,1.125,1.125,0,0,1-.075,1.172,0.912,0.912,0,0,1-1.08.414h0Z" transform="translate(6179.076 -1395.156)"/><path class="cls-3" d="M-6165.919,1434.365l-0.822.117a1.82,1.82,0,0,0-.415-1.847l0.976-.192a0.8,0.8,0,0,0-.113.983,0.962,0.962,0,0,0,.375.939h0Z" transform="translate(6179.076 -1395.156)"/><path class="cls-3" d="M-6157.3,1434.056l-0.8-.073a2.151,2.151,0,0,0,.376-1.457,2.948,2.948,0,0,1-.393-0.044,4.132,4.132,0,0,1,.566-0.4c0.193-.094.208,0.082,0.2,0.213-0.039.408-.092,0.815-0.134,1.223-0.02.192-.127,0.427,0.29,0.436l-0.1.1h0Z" transform="translate(6179.076 -1395.156)"/><path class="cls-3" d="M-6154.41,1412.467c0-.878-0.022-1.732.01-2.583a0.68,0.68,0,0,0-.529-0.728c0,0.881.02,1.734-.009,2.586a0.648,0.648,0,0,0,.528.725h0Zm0.668,0.947c-0.493-.338-0.934-0.638-1.37-0.944a0.319,0.319,0,0,1-.143-0.264c0-1.21,0-2.419,0-3.725l1.374,1.094a0.491,0.491,0,0,1,.136.426c0.008,1.11,0,2.22,0,3.412h0Z" transform="translate(6179.076 -1395.156)"/><path class="cls-3" d="M-6150.121,1420.048a0.533,0.533,0,0,0,.474-0.641c-0.024-.186-0.081-0.429.24-0.451a0.465,0.465,0,0,0-.586-0.182c-0.206.075-.119,0.289-0.126,0.447-0.011.268,0,.536,0,0.828h0Zm-0.39.666c0-.727,0-1.385,0-2.043a0.227,0.227,0,0,1,.2-0.257,1.081,1.081,0,0,1,1.361,1.125,0.3,0.3,0,0,1-.126.226c-0.462.31-.928,0.614-1.436,0.95h0Z" transform="translate(6179.076 -1395.156)"/><path class="cls-3" d="M-6166.8,1405.451a0.23,0.23,0,0,0-.04.074q0,3.089,0,6.178a0.522,0.522,0,0,0,.464.5c0-2.065-.01-4.1.009-6.132a0.575,0.575,0,0,0-.429-0.617h0Zm-0.505-.73c0.728,0.5,1.4.958,2.051,1.427a0.635,0.635,0,0,1,.166.572c0.007,2.24,0,4.481,0,6.785a11.25,11.25,0,0,0-1.236-.792,1.74,1.74,0,0,1-1.007-1.9c0.067-2,.021-4.009.021-6.094h0Z" transform="translate(6179.076 -1395.156)"/></svg>