<svg id="Layer_1" data-name="Layer 1" xmlns="http://www.w3.org/2000/svg" viewBox="0 0 32.64 40.456"><defs><style>.cls-1{fill:#484748;}</style></defs><title>ParadigmLanding1</title><path class="cls-1" d="M-6860.638,1416.614l-0.03-.029-0.028.029-4.01-4.011,1.741-1.742,2.3,2.3,2.3-2.3,1.741,1.742-4.009,4.011h0Zm-5.605,5.8-2.3-2.3-2.3,2.3-1.741-1.741,4.011-4.01,0.028,0.028,0.028-.028,4.011,4.01-1.742,1.741h0Zm-10.227-5.829-0.029.029-4.011-4.011,1.741-1.742,2.3,2.3,2.3-2.3,1.741,1.742-4.01,4.011-0.028-.029h0Zm-8.419,16.373h32.64v-32.641h-32.64v32.641h0Z" transform="translate(6884.89 -1400.317)"/><path class="cls-1" d="M-6882.509,1436.68a0.684,0.684,0,0,0-.635-0.327,0.723,0.723,0,0,0-.726.5,1.86,1.86,0,0,0-.1.668,1.06,1.06,0,0,0,.344.9,0.789,0.789,0,0,0,.484.152,0.7,0.7,0,0,0,.619-0.31,1.435,1.435,0,0,0,.213-0.826,1.435,1.435,0,0,0-.2-0.752m0.737-.691a1.958,1.958,0,0,1,.45,1.4,2.205,2.205,0,0,1-.44,1.48,1.427,1.427,0,0,1-1.132.509,1.187,1.187,0,0,1-.733-0.219,1.42,1.42,0,0,1-.312-0.354v1.915h-0.951v-5.122h0.921v0.543a1.539,1.539,0,0,1,.332-0.378,1.227,1.227,0,0,1,.767-0.246,1.453,1.453,0,0,1,1.1.475" transform="translate(6884.89 -1400.317)"/><path class="cls-1" d="M-6878.853,1437.482a1.077,1.077,0,0,1-.186.093,1.57,1.57,0,0,1-.258.066l-0.219.04a1.442,1.442,0,0,0-.442.131,0.439,0.439,0,0,0-.227.408,0.426,0.426,0,0,0,.138.356,0.527,0.527,0,0,0,.337.11,1,1,0,0,0,.58-0.182,0.771,0.771,0,0,0,.276-0.664v-0.357h0Zm-0.588-.448a1.517,1.517,0,0,0,.384-0.084,0.289,0.289,0,0,0,.207-0.273,0.323,0.323,0,0,0-.159-0.312,1,1,0,0,0-.467-0.086,0.613,0.613,0,0,0-.489.169,0.693,0.693,0,0,0-.137.337h-0.927a1.4,1.4,0,0,1,.271-0.792,1.579,1.579,0,0,1,1.314-.486,2.344,2.344,0,0,1,1.077.239,0.918,0.918,0,0,1,.471.9v1.686q0,0.176.007,0.425a0.536,0.536,0,0,0,.057.256,0.343,0.343,0,0,0,.142.111v0.142h-1.045a1.084,1.084,0,0,1-.061-0.209q-0.017-.1-0.027-0.223a1.979,1.979,0,0,1-.461.368,1.4,1.4,0,0,1-.706.179,1.217,1.217,0,0,1-.829-0.285,1.014,1.014,0,0,1-.327-0.808,1.047,1.047,0,0,1,.527-0.981,2.352,2.352,0,0,1,.849-0.236l0.329-.04h0Z" transform="translate(6884.89 -1400.317)"/><path class="cls-1" d="M-6875.422,1435.508l0.082,0.005v0.985q-0.091-.01-0.162-0.014l-0.115,0a0.8,0.8,0,0,0-.779.378,1.468,1.468,0,0,0-.111.654v1.757h-0.968v-3.676h0.917v0.641a2.04,2.04,0,0,1,.388-0.5,1.057,1.057,0,0,1,.7-0.226l0.046,0" transform="translate(6884.89 -1400.317)"/><path class="cls-1" d="M-6872.864,1437.482a1.078,1.078,0,0,1-.186.093,1.57,1.57,0,0,1-.258.066l-0.219.04a1.442,1.442,0,0,0-.442.131,0.439,0.439,0,0,0-.227.408,0.426,0.426,0,0,0,.138.356,0.527,0.527,0,0,0,.337.11,1,1,0,0,0,.58-0.182,0.771,0.771,0,0,0,.276-0.664v-0.357h0Zm-0.588-.448a1.517,1.517,0,0,0,.384-0.084,0.289,0.289,0,0,0,.207-0.273,0.323,0.323,0,0,0-.159-0.312,1,1,0,0,0-.467-0.086,0.613,0.613,0,0,0-.489.169,0.693,0.693,0,0,0-.137.337h-0.927a1.4,1.4,0,0,1,.271-0.792,1.579,1.579,0,0,1,1.314-.486,2.344,2.344,0,0,1,1.077.239,0.918,0.918,0,0,1,.471.9v1.686q0,0.176.007,0.425a0.535,0.535,0,0,0,.057.256,0.343,0.343,0,0,0,.142.111v0.142h-1.045a1.076,1.076,0,0,1-.061-0.209q-0.017-.1-0.027-0.223a1.982,1.982,0,0,1-.461.368,1.4,1.4,0,0,1-.706.179,1.217,1.217,0,0,1-.829-0.285,1.014,1.014,0,0,1-.327-0.808,1.047,1.047,0,0,1,.527-0.981,2.353,2.353,0,0,1,.849-0.236l0.329-.04h0Z" transform="translate(6884.89 -1400.317)"/><path class="cls-1" d="M-6869.137,1438.271a1.341,1.341,0,0,0,.213-0.786,1.206,1.206,0,0,0-.34-0.964,0.735,0.735,0,0,0-.486-0.175,0.675,0.675,0,0,0-.619.319,1.476,1.476,0,0,0-.2.791,1.462,1.462,0,0,0,.2.814,0.678,0.678,0,0,0,.609.305,0.709,0.709,0,0,0,.62-0.3m-0.236-2.618a1.167,1.167,0,0,1,.422.406v-1.753h0.974v4.963h-0.934v-0.509a1.351,1.351,0,0,1-.469.475,1.316,1.316,0,0,1-.654.148,1.366,1.366,0,0,1-1.084-.521,2,2,0,0,1-.44-1.337,2.3,2.3,0,0,1,.433-1.48,1.41,1.41,0,0,1,1.158-.539,1.184,1.184,0,0,1,.593.147" transform="translate(6884.89 -1400.317)"/><path class="cls-1" d="M-6867.532,1435.594h0.974v3.675h-0.974v-3.675h0Zm0.974-.438h-0.974v-0.887h0.974v0.887h0Z" transform="translate(6884.89 -1400.317)"/><path class="cls-1" d="M-6863.764,1438.226a1.183,1.183,0,0,0,.232-0.811,1.243,1.243,0,0,0-.22-0.8,0.716,0.716,0,0,0-.589-0.273,0.7,0.7,0,0,0-.695.475,1.693,1.693,0,0,0-.1.624,1.431,1.431,0,0,0,.107.57,0.7,0.7,0,0,0,.7.465,0.738,0.738,0,0,0,.568-0.255m-0.327-2.635a1.154,1.154,0,0,1,.566.533v-0.53h0.937v3.487a1.951,1.951,0,0,1-.24,1.072,1.761,1.761,0,0,1-1.578.62,2.148,2.148,0,0,1-1.15-.276,1.02,1.02,0,0,1-.492-0.826H-6865a0.432,0.432,0,0,0,.131.243,0.811,0.811,0,0,0,.523.131,0.7,0.7,0,0,0,.695-0.347,1.761,1.761,0,0,0,.115-0.749v-0.236a1.178,1.178,0,0,1-.3.354,1.193,1.193,0,0,1-.745.219,1.41,1.41,0,0,1-1.131-.5,2.009,2.009,0,0,1-.423-1.347,2.274,2.274,0,0,1,.407-1.378,1.346,1.346,0,0,1,1.155-.558,1.26,1.26,0,0,1,.481.084" transform="translate(6884.89 -1400.317)"/><path class="cls-1" d="M-6857.54,1435.608a1.07,1.07,0,0,1,.428.33,1.066,1.066,0,0,1,.209.472,3.286,3.286,0,0,1,.034.543l-0.007,2.317h-0.985v-2.34a0.765,0.765,0,0,0-.068-0.344,0.478,0.478,0,0,0-.472-0.256,0.552,0.552,0,0,0-.55.331,1.034,1.034,0,0,0-.078.421v2.189H-6860v-2.189a1.228,1.228,0,0,0-.067-0.475,0.471,0.471,0,0,0-.475-0.266,0.568,0.568,0,0,0-.553.266,1.026,1.026,0,0,0-.077.452v2.212h-0.975V1435.6h0.934v0.536a1.553,1.553,0,0,1,.337-0.408,1.154,1.154,0,0,1,.725-0.216,1.145,1.145,0,0,1,.681.185,1.081,1.081,0,0,1,.317.442,1.22,1.22,0,0,1,.469-0.475,1.429,1.429,0,0,1,.661-0.152,1.283,1.283,0,0,1,.479.094" transform="translate(6884.89 -1400.317)"/><polygon class="cls-1" points="28.455 38.612 32.309 38.612 32.309 38.952 28.455 38.952 28.455 38.612 28.455 38.612"/></svg>