<svg id="Layer_1" data-name="Layer 1" xmlns="http://www.w3.org/2000/svg" xmlns:xlink="http://www.w3.org/1999/xlink" viewBox="0 0 37.994 43.319"><defs><style>.cls-1{fill:none;}.cls-2{fill:#484749;}.cls-3{clip-path:url(#clip-path);}</style><clipPath id="clip-path" transform="translate(6696.186 -1396.653)"><rect class="cls-1" x="-6696.3" y="1396.653" width="38.223" height="43.433"/></clipPath></defs><title>PaxahauLandingLogo</title><path class="cls-2" d="M-6661.522,1404.79l-4.806,0v-4.8l4.807,0,0,4.808h0Zm-6.334,2.813-4.8,4.749-1.155-1.237,4.8-4.75,1.226-1.253,1.161,1.227-1.235,1.263h0Zm5-10.95h-27.526q-5.842.03-5.787,5.609l0,8.666a10.926,10.926,0,0,1,1.714-2.224,10.557,10.557,0,0,1,7.573-3.074,10.847,10.847,0,0,1,7.556,2.435,10.54,10.54,0,0,1,2.565,3.155l0.02,0a4.114,4.114,0,0,1,2.586,1.242l0.016,0.017c0.021,0.021.04,0.039,0.054,0.055l0.021,0.021,0.017,0.015a6.968,6.968,0,0,1,.695.945,3.822,3.822,0,0,1,.494,2.039,4.2,4.2,0,0,1-1.3,3.077,5.465,5.465,0,0,1-.71.6c-0.021,0-.021,0-0.018.018a8.251,8.251,0,0,0,1.766,1.855,8.93,8.93,0,0,0,5.754,1.876,7.682,7.682,0,0,0,5.26-1.766,18.365,18.365,0,0,0,2.366-2.421l1.526-2.258,0-14.69q-0.272-4.779-4.645-5.187h0Z" transform="translate(6696.186 -1396.653)"/><path class="cls-2" d="M-6682.809,1422.422l-3.763,3.728-1.224-1.231,3.768-3.734,2.218-2.233,1.231,1.227-2.229,2.244h0Zm-5.149,8.766h-4.8l0-4.808,4.805,0m28.033-4.038a10.656,10.656,0,0,1-7.556,3.1,10.95,10.95,0,0,1-7.553-2.44,10.823,10.823,0,0,1-2.55-3.079,4.269,4.269,0,0,1-2.7-1.239,0.182,0.182,0,0,0-.035-0.035l-0.016-.018a9.071,9.071,0,0,1-.655-0.764,3.844,3.844,0,0,1-.62-2.316,4.231,4.231,0,0,1,1.27-3.09,4.84,4.84,0,0,1,.732-0.586,0.237,0.237,0,0,1,.111-0.091,7.789,7.789,0,0,0-1.77-1.836,8.883,8.883,0,0,0-5.751-1.86,7.5,7.5,0,0,0-5.241,1.768,17.555,17.555,0,0,0-2.385,2.4l-1.531,2.258,0,14.363c0,0.056,0,.128,0,0.18,0.092,3.663,1.856,5.517,5.261,5.611l0.166,0h26.706c0.054,0,.125,0,0.2,0q5.545-.138,5.629-5.372v-9.175a10.927,10.927,0,0,1-1.714,2.22h0Z" transform="translate(6696.186 -1396.653)"/><path class="cls-2" d="M-6693.159,1437.045h-2.341v1.178h2.341a0.554,0.554,0,0,0,.346-0.08,0.344,0.344,0,0,0,.094-0.275V1437.4a0.344,0.344,0,0,0-.094-0.275,0.556,0.556,0,0,0-.346-0.08h0Zm-3.027,2.926v-3.36h3.293a1.121,1.121,0,0,1,.665.154,0.585,0.585,0,0,1,.2.5v0.754a0.584,0.584,0,0,1-.2.5,1.113,1.113,0,0,1-.665.155h-2.608v1.3h-0.685Z" transform="translate(6696.186 -1396.653)"/><g class="cls-3"><path class="cls-1" d="M-6693.159,1437.045h-2.341v1.178h2.341a0.554,0.554,0,0,0,.346-0.08,0.344,0.344,0,0,0,.094-0.275V1437.4a0.344,0.344,0,0,0-.094-0.275,0.556,0.556,0,0,0-.346-0.08h0Zm-3.027,2.926v-3.36h3.293a1.121,1.121,0,0,1,.665.154,0.585,0.585,0,0,1,.2.5v0.754a0.584,0.584,0,0,1-.2.5,1.113,1.113,0,0,1-.665.155h-2.608v1.3h-0.685Z" transform="translate(6696.186 -1396.653)"/></g><path class="cls-2" d="M-6690.194,1438.716h2.2l-1.1-1.72-1.1,1.72h0Zm-1.479,1.256,2.228-3.36h0.73l2.267,3.36h-0.749l-0.521-.821h-2.761l-0.521.821h-0.672Z" transform="translate(6696.186 -1396.653)"/><g class="cls-3"><path class="cls-1" d="M-6690.194,1438.716h2.2l-1.1-1.72-1.1,1.72h0Zm-1.479,1.256,2.228-3.36h0.73l2.267,3.36h-0.749l-0.521-.821h-2.761l-0.521.821h-0.672Z" transform="translate(6696.186 -1396.653)"/></g><polygon class="cls-2" points="10.563 43.319 12.542 41.586 10.532 39.958 11.514 39.958 12.945 41.23 14.29 39.958 15.14 39.958 13.343 41.535 15.535 43.319 14.553 43.319 12.929 41.885 11.425 43.319 10.563 43.319 10.563 43.319"/><g class="cls-3"><polygon class="cls-2" points="10.563 43.319 12.542 41.586 10.532 39.958 11.514 39.958 12.945 41.23 14.29 39.958 15.14 39.958 13.343 41.535 15.535 43.319 14.553 43.319 12.929 41.885 11.425 43.319 10.563 43.319 10.563 43.319"/></g><path class="cls-2" d="M-6678.378,1438.716h2.2l-1.1-1.72-1.1,1.72h0Zm-1.479,1.256,2.228-3.36h0.73l2.267,3.36h-0.749l-0.521-.821h-2.761l-0.521.821h-0.672Z" transform="translate(6696.186 -1396.653)"/><g class="cls-3"><path class="cls-2" d="M-6678.378,1438.716h2.2l-1.1-1.72-1.1,1.72h0Zm-1.479,1.256,2.228-3.36h0.73l2.267,3.36h-0.749l-0.521-.821h-2.761l-0.521.821h-0.672Z" transform="translate(6696.186 -1396.653)"/></g><polygon class="cls-2" points="22.348 43.319 22.348 39.958 23.034 39.958 23.034 41.339 26.259 41.339 26.259 39.958 26.935 39.958 26.935 43.319 26.259 43.319 26.259 41.803 23.034 41.803 23.034 43.319 22.348 43.319 22.348 43.319"/><g class="cls-3"><polygon class="cls-2" points="22.348 43.319 22.348 39.958 23.034 39.958 23.034 41.339 26.259 41.339 26.259 39.958 26.935 39.958 26.935 43.319 26.259 43.319 26.259 41.803 23.034 41.803 23.034 43.319 22.348 43.319 22.348 43.319"/></g><path class="cls-2" d="M-6666.977,1438.716h2.2l-1.1-1.72-1.1,1.72h0Zm-1.479,1.256,2.229-3.36h0.729l2.267,3.36h-0.749l-0.521-.821h-2.761l-0.521.821h-0.672Z" transform="translate(6696.186 -1396.653)"/><g class="cls-3"><path class="cls-2" d="M-6666.977,1438.716h2.2l-1.1-1.72-1.1,1.72h0Zm-1.479,1.256,2.229-3.36h0.729l2.267,3.36h-0.749l-0.521-.821h-2.761l-0.521.821h-0.672Z" transform="translate(6696.186 -1396.653)"/></g><path class="cls-2" d="M-6661.842,1436.611v2.9h2.974v-2.9h0.676v2.569a0.784,0.784,0,0,1-.2.627,1.24,1.24,0,0,1-.754.164h-2.422a1.234,1.234,0,0,1-.758-0.168,0.783,0.783,0,0,1-.2-0.624v-2.569h0.686Z" transform="translate(6696.186 -1396.653)"/><g class="cls-3"><path class="cls-2" d="M-6661.842,1436.611v2.9h2.974v-2.9h0.676v2.569a0.784,0.784,0,0,1-.2.627,1.24,1.24,0,0,1-.754.164h-2.422a1.234,1.234,0,0,1-.758-0.168,0.783,0.783,0,0,1-.2-0.624v-2.569h0.686Z" transform="translate(6696.186 -1396.653)"/></g></svg>