<svg xmlns="http://www.w3.org/2000/svg" viewBox="0 0 461.36 341.75"><defs><style>.cls-1{fill:none;}.cls-2{fill:#494749;}</style></defs><title>Roxwell 1_1</title><g id="Layer_2" data-name="Layer 2"><g id="Layer_1-2" data-name="Layer 1"><path class="cls-1" d="M424.42,300.34h-3.61V315h2.92c2.8,0,4.5-1.22,4.5-5v-4.69C428.23,301.83,427.07,300.34,424.42,300.34Z"/><path class="cls-1" d="M54.23,33.27H36.6v71.52H50.9c13.64,0,22-6,22-24.62v-23C72.86,40.59,67.2,33.27,54.23,33.27Z"/><path class="cls-1" d="M186.28,30.61c-11.65,0-19,6.32-19,23V179.31c0,16.64,7.32,22.95,19,22.95s18.95-6.31,18.95-22.95V53.56C205.23,36.93,197.92,30.61,186.28,30.61Z"/><path class="cls-2" d="M109.78,168.66c0-24.28-6-41.91-24.28-49.57,16.3-7.64,24-23.28,24-47.23V53.56C109.45,17.63,93.15,0,55.23,0H0V232.87H36.6V138.06H49.24c16.63,0,23.94,8,23.94,29.61v36.59c0,19,1.34,22.63,3.34,28.61h37.26c-3.66-8.65-4-17-4-28.27ZM72.86,80.17c0,18.63-8.32,24.62-22,24.62H36.6V33.27H54.23c13,0,18.63,7.32,18.63,23.95Z"/><path class="cls-2" d="M186.28,0c-35.94,0-55.56,21.05-55.56,57.9V177.64c0,36.84,19.62,57.89,55.56,57.89s55.55-21.05,55.55-57.89V57.9C241.83,21.05,222.2,0,186.28,0Zm18.95,179.94c0,16.45-7.31,22.69-18.95,22.69s-19-6.24-19-22.69V55.59c0-16.44,7.32-22.69,19-22.69s18.95,6.25,18.95,22.69Z"/><polygon class="cls-2" points="385.2 232.87 344.29 113.11 382.54 0 348.61 0 320.33 85.83 292.72 0 254.79 0 293.05 113.11 252.13 232.87 286.4 232.87 316.68 140.72 346.62 232.87 385.2 232.87"/><polygon class="cls-2" points="450.39 183.64 430.76 0 395.16 0 421.12 232.87 461.36 232.87 461.36 69.35 450.39 183.64"/><path class="cls-2" d="M343.41,293c-7.35,0-11.15,4.35-11.15,12v24.76c0,7.61,3.8,12,11.15,12s11.15-4.35,11.15-12V323.4h-7.07v6.79c0,3.4-1.5,4.63-3.88,4.63s-3.87-1.23-3.87-4.63v-25.7c0-3.4,1.49-4.69,3.87-4.69s3.88,1.29,3.88,4.69v5.1h7.07V305C354.56,297.35,350.75,293,343.41,293Z"/><path class="cls-2" d="M387.59,330.26c0,3.4-1.5,4.62-3.88,4.62s-3.87-1.22-3.87-4.62V293.54h-7.48v36.24c0,7.62,3.81,12,11.15,12s11.15-4.35,11.15-12V293.54h-7.07Z"/><path class="cls-2" d="M435.77,328c0-5-1.22-8.57-5-10.13,3.33-1.57,4.9-4.77,4.9-9.66v-3.74c0-7.34-3.34-10.95-11.09-10.95H413.33v47.6h7.48V321.76h2.59c3.4,0,4.89,1.64,4.89,6.05v7.48c0,3.88.27,4.62.68,5.85h7.61a14.17,14.17,0,0,1-.81-5.78Zm-7.54-18.09c0,3.81-1.7,5-4.5,5h-2.92V300.34h3.61c2.65,0,3.81,1.49,3.81,4.9Z"/><polygon class="cls-2" points="459.9 293.54 452.28 341.14 459.15 341.14 460.44 332.5 461.36 332.5 461.36 293.54 459.9 293.54"/></g></g></svg>