<svg xmlns="http://www.w3.org/2000/svg" viewBox="0 0 127.24 47.49"><defs><style>.cls-1{fill:#484749;}</style></defs><title>Asset 2</title><g id="Layer_2" data-name="Layer 2"><g id="Layer_1-2" data-name="Layer 1"><path class="cls-1" d="M10.55,32.48a10,10,0,0,1-.46-3.95v-5c0-3-1-4.09-3.3-4.09H5.05V32.48H0V.37H7.62c5.22,0,7.47,2.43,7.47,7.38v2.53c0,3.3-1.05,5.45-3.3,6.51,2.52,1.06,3.35,3.49,3.35,6.83v5a9.36,9.36,0,0,0,.55,3.9ZM5.05,5v9.87H7c1.88,0,3-.83,3-3.4V8.26C10.05,6,9.27,5,7.48,5Z"/><path class="cls-1" d="M18,8.07C18,2.94,20.73,0,25.69,0s7.66,2.94,7.66,8.07v16.7c0,5.14-2.71,8.08-7.66,8.08S18,29.91,18,24.77Zm5,17c0,2.3,1,3.17,2.62,3.17s2.61-.87,2.61-3.17V7.75c0-2.29-1-3.16-2.61-3.16s-2.62.87-2.62,3.16Z"/><path class="cls-1" d="M52.75.37,47.48,16l5.64,16.52H47.8L43.67,19.77,39.49,32.48H34.77L40.41,16,35.13.37h5.24l3.8,11.83L48.07.37Z"/><path class="cls-1" d="M66.83,15.37,65,32.48H58.07L54.49.37H59.4l2.71,25.32L64.54.37H69.4l2.52,25.5L74.54.37h4.4L75.36,32.48H68.67Z"/><path class="cls-1" d="M86.51,13.9h6.92v4.59H86.51v9.4h8.71v4.59H81.46V.37H95.22V5H86.51Z"/><path class="cls-1" d="M98.34.37h5V27.89h8.3v4.59H98.34Z"/><path class="cls-1" d="M113.89.37h5V27.89h8.3v4.59H113.89Z"/><path class="cls-1" d="M48.89,45v.87c0,1.05-.52,1.65-1.54,1.65s-1.53-.6-1.53-1.65V42.42c0-1.05.52-1.65,1.53-1.65s1.54.6,1.54,1.65v.64h-1v-.71c0-.46-.21-.64-.54-.64s-.53.18-.53.64V45.9c0,.47.2.64.53.64s.54-.17.54-.64V45Z"/><path class="cls-1" d="M52.38,40.84v5.07c0,.47.2.64.53.64s.54-.17.54-.64V40.84h1v5c0,1-.52,1.65-1.54,1.65s-1.53-.6-1.53-1.65v-5Z"/><path class="cls-1" d="M59.15,47.41a2.19,2.19,0,0,1-.09-.81v-1c0-.61-.21-.83-.68-.83H58v2.67H57V40.84h1.55c1.07,0,1.53.5,1.53,1.51v.52a1.29,1.29,0,0,1-.67,1.33c.51.22.68.71.68,1.4v1a2,2,0,0,0,.11.8ZM58,41.78v2h.4c.39,0,.62-.17.62-.7v-.64c0-.47-.16-.68-.53-.68Z"/><path class="cls-1" d="M66,47.41h-1l-.18-1.19H63.49l-.18,1.19h-.94l1.05-6.57h1.51Zm-2.36-2.08h1L64.12,42Z"/><path class="cls-1" d="M67.67,40.84h3.19v.94H69.78v5.63h-1V41.78H67.67Z"/><path class="cls-1" d="M74.21,43.61h1.42v.94H74.21v1.92H76v.94H73.18V40.84H76v.94H74.21Z"/><path class="cls-1" d="M79.89,40.77c1,0,1.52.6,1.52,1.65v.21h-1v-.28c0-.46-.19-.64-.52-.64s-.51.18-.51.64c0,1.35,2,1.61,2,3.48,0,1.05-.52,1.65-1.54,1.65s-1.53-.6-1.53-1.65v-.4h1v.47c0,.47.21.64.54.64s.53-.17.53-.64c0-1.35-2-1.6-2-3.48C78.37,41.37,78.89,40.77,79.89,40.77Z"/></g></g></svg>