<svg xmlns="http://www.w3.org/2000/svg" viewBox="0 0 461.36 341.68"><defs><style>.cls-1{fill:none;}.cls-2{fill:#494749;}</style></defs><title>Roxwell 2_2</title><g id="Layer_2" data-name="Layer 2"><g id="Layer_1-2" data-name="Layer 1"><path class="cls-1" d="M52.5,300.34H44.69v40.8H37.21v-40.8H29.38v-6.8H52.5Zm37.25,0H76.83V313.6H87.1v6.8H76.83v13.94H89.75v6.8H69.35v-47.6h20.4ZM118,341.68c-7.35,0-11.16-4.35-11.16-12v-2.93h7.07v3.4c0,3.4,1.5,4.63,3.88,4.63s3.88-1.23,3.88-4.63c0-9.79-14.63-11.62-14.63-25.23,0-7.61,3.75-12,11-12s11,4.35,11,12v1.51H122v-2c0-3.4-1.35-4.69-3.73-4.69s-3.75,1.29-3.75,4.69c0,9.79,14.63,11.62,14.63,25.23C129.11,337.33,125.3,341.68,118,341.68Z"/><rect class="cls-1" x="401.15" width="60.21" height="199.61"/><polygon class="cls-2" points="23.3 108.78 36.6 232.87 85.17 232.87 111.11 0 79.18 0 60.22 184.97 41.92 0 6.66 0 0 69.35 0 232.87 9.98 232.87 23.3 108.78"/><polygon class="cls-2" points="229.19 232.87 229.19 199.61 165.99 199.61 165.99 131.4 216.22 131.4 216.22 98.14 165.99 98.14 165.99 33.27 229.19 33.27 229.19 0 129.39 0 129.39 232.87 229.19 232.87"/><polygon class="cls-2" points="348.6 232.87 348.6 199.61 288.39 199.61 288.39 0 251.79 0 251.79 232.87 348.6 232.87"/><polygon class="cls-2" points="401.15 0 364.55 0 364.55 232.87 461.36 232.87 461.36 199.61 401.15 199.61 401.15 0"/><path class="cls-2" d="M9.55,341.14h7.54l-7.61-47.6H0v39H8.26Z"/><polygon class="cls-2" points="29.38 300.34 37.21 300.34 37.21 341.14 44.69 341.14 44.69 300.34 52.5 300.34 52.5 293.54 29.38 293.54 29.38 300.34"/><polygon class="cls-2" points="69.35 341.14 89.75 341.14 89.75 334.34 76.83 334.34 76.83 320.4 87.1 320.4 87.1 313.6 76.83 313.6 76.83 300.34 89.75 300.34 89.75 293.54 69.35 293.54 69.35 341.14"/><path class="cls-2" d="M114.48,304.49c0-3.4,1.36-4.69,3.75-4.69s3.73,1.29,3.73,4.69v2H129V305c0-7.61-3.73-12-11-12s-11,4.35-11,12c0,13.61,14.63,15.44,14.63,25.23,0,3.4-1.5,4.63-3.88,4.63s-3.88-1.23-3.88-4.63v-3.4H106.8v2.93c0,7.61,3.81,12,11.16,12s11.15-4.35,11.15-12C129.11,316.11,114.48,314.28,114.48,304.49Z"/></g></g></svg>