<svg id="Layer_1" data-name="Layer 1" xmlns="http://www.w3.org/2000/svg" xmlns:xlink="http://www.w3.org/1999/xlink" viewBox="0 0 58.366 24.551"><defs><style>.cls-1{fill:none;}.cls-2{fill:#484748;}.cls-3{clip-path:url(#clip-path);}</style><clipPath id="clip-path" transform="translate(6282.347 -1458.607)"><rect class="cls-1" x="-6390.927" y="1412.933" width="166.946" height="70.225"/></clipPath></defs><title>StolenRumLandingLogo</title><path class="cls-2" d="M-6240.827,1483.158c-0.161-.064-0.328-0.117-0.482-0.195a1.161,1.161,0,0,1-.71-0.94,0.767,0.767,0,0,1,.156-0.56,1.985,1.985,0,0,0,.6-1.116c0.266-1.468.521-2.939,0.78-4.409l-0.093-.047a2.511,2.511,0,0,0-.212.237c-0.564.81-1.132,1.619-1.684,2.438a1.264,1.264,0,0,1-.861.55,0.963,0.963,0,0,1-1.1-.461,1.493,1.493,0,0,0-.361-0.407c-0.025.3-.043,0.6-0.079,0.892a1.615,1.615,0,0,1-.108.416c-0.294.713-.608,1.417-0.886,2.135a1.463,1.463,0,0,0-.049.632,0.465,0.465,0,0,1-.358.555,1.7,1.7,0,0,1-1.337-.118,1.024,1.024,0,0,1-.333-1.346c0.377-.921.8-1.832,1.081-2.783,0.328-1.1.544-2.238,0.773-3.366a1.519,1.519,0,0,0-.095-0.761,0.9,0.9,0,0,1,.127-1.083,1.111,1.111,0,0,1,1.286-.107,1.419,1.419,0,0,1,.784,1.427,0.856,0.856,0,0,0,.057.429c0.174,0.412.372,0.815,0.6,1.3,0.306-.379.58-0.692,0.824-1.026,0.46-.633.887-1.291,1.359-1.914a10.806,10.806,0,0,0,1.219-1.68,0.625,0.625,0,0,1,.663-0.336,1.793,1.793,0,0,1,1.367.7,1.2,1.2,0,0,1,.132,1.452,8.1,8.1,0,0,0-.883,3.014c-0.385,1.976-.792,3.947-1.19,5.92a0.735,0.735,0,0,1-.566.569h-0.411Z" transform="translate(6282.347 -1458.607)"/><path class="cls-2" d="M-6249.519,1458.607a2.541,2.541,0,0,1,1.14,1.141,0.555,0.555,0,0,1,.008.484,15.769,15.769,0,0,0-1.787,4.5c-0.171.518-.384,1.023-0.6,1.525a4.74,4.74,0,0,0-.417,1.4c1.409,0.055,2.792.111,4.175,0.16a1.553,1.553,0,0,1,1.341,1.4,1.05,1.05,0,0,1-1.422.8,2.266,2.266,0,0,1-.29-0.14,4.063,4.063,0,0,0-4.5.283,1.386,1.386,0,0,1-1.493.163,1.53,1.53,0,0,1-.718-1.5,2.744,2.744,0,0,1,.492-0.738,1.571,1.571,0,0,0,.239-0.321c0.7-1.97,1.4-3.938,2.078-5.917,0.295-.867.528-1.756,0.771-2.64a0.936,0.936,0,0,1,.505-0.6h0.47Z" transform="translate(6282.347 -1458.607)"/><path class="cls-2" d="M-6261.231,1473.925c-0.321-.077-0.526-0.141-0.736-0.175a5.451,5.451,0,0,0-2.541.279c-0.362.115-.732,0.215-1.081,0.363a0.387,0.387,0,0,0-.239.571,1,1,0,0,0,.576.5,3.62,3.62,0,0,0,3.47-.79,3.612,3.612,0,0,0,.55-0.752h0Zm-1.578,3.519c0.235,0.416.44,0.79,0.655,1.157,0.355,0.606.7,1.219,1.082,1.809,0.216,0.335.5,0.627,0.743,0.942,0.558,0.716.385,1.174-.51,1.354a1.032,1.032,0,0,1-1.316-.6c-0.463-.816-0.872-1.662-1.342-2.474-0.361-.624-0.772-1.22-1.183-1.813a0.967,0.967,0,0,0-.4-0.254c-0.249-.112-0.507-0.2-0.762-0.3-0.343-.133-0.384-0.1-0.485.25-0.32,1.1-.614,2.2-0.994,3.275a15.085,15.085,0,0,1-.9,1.84,0.689,0.689,0,0,1-.943.4,1.125,1.125,0,0,1-.715-1.713,13.146,13.146,0,0,0,1.848-5.21,4.556,4.556,0,0,0,.013-0.879,0.4,0.4,0,0,0-.188-0.259,0.559,0.559,0,0,1-.307-0.529,3.418,3.418,0,0,1,.116-0.951,0.919,0.919,0,0,1,.479-0.474,11.45,11.45,0,0,1,1.634-.546c0.938-.228,1.881-0.452,2.835-0.591a6.389,6.389,0,0,1,3.247.454,1.753,1.753,0,0,1,1.2,2.064,2.558,2.558,0,0,1-1.056,1.857,6.5,6.5,0,0,1-2.355,1.082c-0.1.03-.2,0.058-0.39,0.111h0Z" transform="translate(6282.347 -1458.607)"/><g class="cls-3"><path class="cls-2" d="M-6237.133,1465.62c-0.813.153-1.628,0.3-2.439,0.461a3.69,3.69,0,0,1-1.595.1,0.349,0.349,0,0,0-.466.3c-0.084.3-.21,0.588-0.312,0.883a0.313,0.313,0,0,0,.274.482,3.83,3.83,0,0,0,.633.1c0.908-.021,1.818-0.036,2.723-0.11a6.419,6.419,0,0,0,1.305-.3,0.882,0.882,0,0,1,1.074.279,0.819,0.819,0,0,1,.075.09,1.1,1.1,0,0,1,.247,1.142,0.969,0.969,0,0,1-1.025.485,30.769,30.769,0,0,0-4.781.434c-0.241.024-.486,0-0.729,0.008-0.341.008-.683,0.023-1.024,0.032a1.385,1.385,0,0,1-1.412-.929,1.055,1.055,0,0,1,.051-0.93,16.137,16.137,0,0,0,1.72-4.592,6.181,6.181,0,0,0,.009-1.628,0.634,0.634,0,0,1,.439-0.834,6.476,6.476,0,0,1,1.508-.344,27.656,27.656,0,0,0,4.239-.567,3.909,3.909,0,0,1,.9-0.058,1.178,1.178,0,0,1,.824,1.612,0.638,0.638,0,0,1-.642.336c-0.478,0-.957-0.033-1.433-0.081a3.126,3.126,0,0,0-1.4.188,12.274,12.274,0,0,1-2.019.475,0.576,0.576,0,0,0-.579.521c-0.046.338-.1,0.675-0.153,1.012-0.035.227,0.056,0.3,0.287,0.316a7.838,7.838,0,0,0,2.056-.278c0.516-.108,1.036-0.2,1.555-0.285a2.321,2.321,0,0,1,.439-0.012,0.972,0.972,0,0,1,1,1.2,0.524,0.524,0,0,1-.486.538c-0.279.04-.565,0.039-0.847,0.056l-0.015-.09h0Z" transform="translate(6282.347 -1458.607)"/><path class="cls-2" d="M-6230.735,1465.577c-0.4.961-.734,1.868-1.145,2.74a8.44,8.44,0,0,1-.938,1.508,1.081,1.081,0,0,1-1.428.187,1.094,1.094,0,0,1-.185-1.389,25.019,25.019,0,0,0,2.365-4.642,24.371,24.371,0,0,0,.7-2.534c0.151-.573.371-0.792,0.85-0.707a1.233,1.233,0,0,1,.6.331,2.117,2.117,0,0,1,.6,1.4,20.414,20.414,0,0,0,1.1,4.093,0.1,0.1,0,0,0,.041.033,11.982,11.982,0,0,0,1.346-3.632,16.408,16.408,0,0,1,.686-2.265,1.335,1.335,0,0,1,1.624-.773,0.618,0.618,0,0,1,.543.6,3.059,3.059,0,0,1-.138.972c-0.173.518-.432,1.006-0.619,1.52-0.692,1.9-1.368,3.8-2.051,5.705-0.132.367-.264,0.735-0.41,1.1a0.816,0.816,0,0,1-.8.532c-0.156,0-.313.01-0.469,0a1.022,1.022,0,0,1-1.018-.882,24.157,24.157,0,0,0-1.247-3.9h0Z" transform="translate(6282.347 -1458.607)"/><path class="cls-2" d="M-6277.253,1463.264c0.382,0.092.763,0.189,1.147,0.275,0.628,0.142,1.269.239,1.884,0.422a2.746,2.746,0,0,1,1.595,4.023,4.447,4.447,0,0,1-3,2.067,6.208,6.208,0,0,1-3.988-.367,16.777,16.777,0,0,1-1.651-.753,1.35,1.35,0,0,1-.719-1.656,0.68,0.68,0,0,1,.9-0.526,3.772,3.772,0,0,1,.947.442,5.639,5.639,0,0,0,2.342,1.023,4.214,4.214,0,0,0,2.808-.618,1.509,1.509,0,0,0,.72-0.891,0.843,0.843,0,0,0-.594-1.106c-0.611-.169-1.245-0.251-1.855-0.422a12.616,12.616,0,0,1-1.934-.656,2.342,2.342,0,0,1-1.427-1.747,0.835,0.835,0,0,1,.814-1.178c0.952-.169,1.9-0.389,2.85-0.54a5.567,5.567,0,0,1,3.137.335,1.238,1.238,0,0,1,.657,1.368,0.7,0.7,0,0,1-1.066.495,3.856,3.856,0,0,0-2.226-.356c-0.443.058-.881,0.157-1.321,0.238l-0.014.131h0Z" transform="translate(6282.347 -1458.607)"/><path class="cls-2" d="M-6257.793,1479.313c0.1-.777.237-1.637,0.312-2.5a9.063,9.063,0,0,0-.01-1.694,1.308,1.308,0,0,1,.746-1.462,1.376,1.376,0,0,1,1.7.886,3.746,3.746,0,0,1,.03,2.085c-0.172.631-.371,1.254-0.567,1.878a3.949,3.949,0,0,0,0,2.029,0.452,0.452,0,0,0,.237.259,2.106,2.106,0,0,0,1.6.044,9.113,9.113,0,0,0,1.293-.547,2.344,2.344,0,0,0,1.2-1.564,24.828,24.828,0,0,0,.492-2.909,3,3,0,0,0-.185-1.089,1.142,1.142,0,0,1,.337-1.148,0.876,0.876,0,0,1,1.006-.171,2.06,2.06,0,0,1,1.251,1.163,1.152,1.152,0,0,1,.016.818c-0.234.855-.4,1.728-0.6,2.593-0.134.59-.242,1.188-0.413,1.767a2.653,2.653,0,0,1-1.167,1.63,3.339,3.339,0,0,0-.373.406,4.07,4.07,0,0,1-.729.569,5.633,5.633,0,0,1-3.419.7,2.762,2.762,0,0,1-2.638-2.572c-0.055-.357-0.074-0.719-0.118-1.171h0Z" transform="translate(6282.347 -1458.607)"/><path class="cls-2" d="M-6231.947,1475.818c-0.579-.274-1.168-0.529-1.735-0.827a7.379,7.379,0,0,1-1.259-.783,0.989,0.989,0,0,1-.111-1.4,1,1,0,0,1,1.279-.408,3.062,3.062,0,0,1,.868.582,14.143,14.143,0,0,0,2.387,1.795,0.3,0.3,0,0,0,.414-0.008c0.611-.5,1.22-1,1.846-1.487a8.633,8.633,0,0,1,1.267-.876,0.972,0.972,0,0,1,1.284.442,1,1,0,0,1-.076,1.319,3.233,3.233,0,0,1-.732.525c-0.648.36-1.31,0.694-1.964,1.042a2.4,2.4,0,0,0-.239.17,22.991,22.991,0,0,0,3.367,2.1,3.033,3.033,0,0,1,.739.462,1.02,1.02,0,0,1,.22,1.282,1,1,0,0,1-1.239.378,7.54,7.54,0,0,1-2.133-1.2c-0.772-.616-1.57-1.2-2.364-1.787a0.334,0.334,0,0,0-.3-0.039c-1.1.722-2.2,1.451-3.294,2.2-0.28.192-.512,0.453-0.777,0.67a1.248,1.248,0,0,1-1.352.3,0.927,0.927,0,0,1-.31-1.532,7.422,7.422,0,0,1,1.373-1.173c0.912-.584,1.873-1.093,2.813-1.633l0.026-.109h0Z" transform="translate(6282.347 -1458.607)"/><path class="cls-2" d="M-6278.4,1476.067c-0.78-.4-1.553-0.81-2.343-1.187a3.7,3.7,0,0,1-1.249-.8,1.093,1.093,0,0,1-.1-1.493,1.037,1.037,0,0,1,1.418-.248,9.226,9.226,0,0,1,.869.642c0.933,0.677,1.87,1.348,2.8,2.027a0.362,0.362,0,0,0,.472-0.006,13.731,13.731,0,0,0,2.548-1.966,4.158,4.158,0,0,1,1.126-.772,1,1,0,0,1,1.313.444,1.021,1.021,0,0,1-.106,1.342,2.656,2.656,0,0,1-.769.521,13.333,13.333,0,0,0-2.566,1.464c-0.062.045-.121,0.094-0.205,0.159a18.644,18.644,0,0,0,2.767,1.678,2.916,2.916,0,0,1,.714.448,1.029,1.029,0,0,1,.225,1.282,0.988,0.988,0,0,1-1.238.378,4.123,4.123,0,0,1-.862-0.432c-1-.682-1.992-1.38-2.977-2.085a0.361,0.361,0,0,0-.484-0.021,22.007,22.007,0,0,0-3.326,2.4,1.694,1.694,0,0,1-.614.326,1.019,1.019,0,0,1-1.1-.342,0.944,0.944,0,0,1,.019-1.148,2.393,2.393,0,0,1,.575-0.534c0.907-.6,1.827-1.171,2.743-1.754,0.106-.068.211-0.137,0.316-0.206l0.038-.119h0Z" transform="translate(6282.347 -1458.607)"/></g><path class="cls-2" d="M-6264.734,1461.605a17.1,17.1,0,0,1-1.724,4.67c-0.387.843-.757,1.7-1.181,2.521a5.764,5.764,0,0,1-.8,1.118,0.832,0.832,0,0,1-1.071.172,1.145,1.145,0,0,1-.484-1.84,14.038,14.038,0,0,0,1.712-2.719c0.315-.65.718-1.26,1.007-1.921a8.7,8.7,0,0,0,.443-1.537c0.073-.315.02-0.35-0.319-0.321-0.634.054-1.266,0.156-1.9,0.164a5.529,5.529,0,0,1-1.561-.163,1.3,1.3,0,0,1-.877-1.676,0.6,0.6,0,0,1,.7-0.447,0.686,0.686,0,0,1,.256.06,3.615,3.615,0,0,0,2.09.26c2.239-.128,4.46-0.41,6.676-0.744a4.871,4.871,0,0,1,1.159-.051,1.065,1.065,0,0,1,.843,1.306,1.059,1.059,0,0,1-1.07,1.031,0.84,0.84,0,0,1-.263-0.015,6.759,6.759,0,0,0-2.906.031c-0.233.022-.464,0.065-0.733,0.1h0Z" transform="translate(6282.347 -1458.607)"/><path class="cls-2" d="M-6259.578,1467.159c-0.009.563,0.024,0.6,0.584,0.581a0.666,0.666,0,0,0,.175-0.011c0.455-.14.92-0.257,1.358-0.44a1.587,1.587,0,0,0,.637-0.483,2.578,2.578,0,0,0,.05-2.893,0.5,0.5,0,0,0-.892-0.1c-0.41.433-.814,0.874-1.185,1.34a3.181,3.181,0,0,0-.727,2h0Zm5.2-1.521c-0.133.633-.209,1.238-0.392,1.809a2.655,2.655,0,0,1-1.913,1.823c-0.752.208-1.518,0.373-2.285,0.517a2.652,2.652,0,0,1-1.633-.216,2.449,2.449,0,0,1-1.309-2.894,9.023,9.023,0,0,1,2.783-4.463,4.937,4.937,0,0,0,.617-0.743,0.864,0.864,0,0,1,1.021-.292,3.609,3.609,0,0,1,2.635,2.514c0.193,0.641.321,1.3,0.476,1.944h0Z" transform="translate(6282.347 -1458.607)"/></svg>