<svg xmlns="http://www.w3.org/2000/svg" viewBox="0 0 78.87 46.28"><defs><style>.cls-1{fill:#BD612E}.cls-1,.cls-2{stroke:#994b28;stroke-miterlimit:10;}.cls-2{fill:none;}</style></defs><title>Speaker</title><g id="Layer_2" data-name="Layer 2"><g id="Layer_1-2" data-name="Layer 1"><rect class="cls-1" x="0.59" y="9.24" width="77.69" height="36.33" rx="3" ry="3" transform="translate(-0.16 0.23) rotate(-0.34)"/><rect class="cls-2" x="25.91" y="0.58" width="26.78" height="8.66" transform="translate(-0.03 0.23) rotate(-0.34)"/><circle class="cls-2" cx="17.5" cy="27.54" r="11.13"/><circle class="cls-2" cx="62.2" cy="27.27" r="11.13"/><rect class="cls-2" x="41.23" y="18.69" width="1.85" height="1.85" transform="translate(-0.12 0.25) rotate(-0.34)"/><rect class="cls-2" x="39.36" y="18.7" width="1.85" height="1.85" transform="translate(-0.12 0.24) rotate(-0.34)"/><rect class="cls-2" x="37.51" y="18.71" width="1.85" height="1.85" transform="translate(-0.12 0.23) rotate(-0.34)"/><circle class="cls-2" cx="42.19" cy="25.29" r="0.93"/><circle class="cls-2" cx="42.21" cy="29.2" r="0.93"/><circle class="cls-2" cx="38.46" cy="25.31" r="0.93"/><circle class="cls-2" cx="38.49" cy="29.22" r="0.93"/><rect class="cls-2" x="34.93" y="33.79" width="10.96" height="4.77" transform="translate(-0.21 0.24) rotate(-0.34)"/></g></g></svg>