<svg id="Layer_1" data-name="Layer 1" xmlns="http://www.w3.org/2000/svg" viewBox="0 0 315.066 805.57"><defs><style>.cls-1{fill:#484748;}</style></defs><title>AstroWifeyGrey</title><path class="cls-1" d="M424.1,559.1c11-28.3,22.1-56.6,35.1-90,4,11.7,6.8,19.6,11.4,33.1,7.6-24,13.8-43.6,21.6-68.3-13.1,5.5-21.5,9.1-29.8,12.6-0.8-1.2-1.7-2.4-2.5-3.6,5.5-4.1,10.5-10.8,16.5-11.8,17-2.8,18.6-14.1,18.8-27.5,0.1-3.6,1.4-7.1,5.9-10.8v31.8c11.2-2.7,20.9-5,30.6-7.3,0.7,1.5,1.4,2.9,2.1,4.4-6.5,3-12.7,7.6-19.5,8.6-12.4,1.8-16.1,8.3-16.2,19.9-0.2,15.9-1.9,31.8-2.3,47.7-0.1,5.7,1.7,11.5,3.2,20.6,13.6-25.3-7-63.4,35-70.8v48.8c1.6,0.4,3.1.9,4.7,1.3,2.2-4.3,4.6-8.4,6.4-12.8,4.2-10.1,7.8-20.5,12.1-30.6,3.9-9,8.9-15,21-14.3s33.6-17.9,34.3-29.6c0.4-6.6-4.6-15.1-9.7-20.3-13.8-13.8-29-26.3-45.4-40.9-33.3,8.1-69.9,19.9-108.4,19.4l-0.9-5.4c11.4-1.7,22.9-3,34.2-5.3,21.5-4.3,43.1-8.5,64.3-14.2,4.2-1.1,9.6-8.6,9.6-13-1.1-64.3-3.3-128.5-4.7-192.8-0.5-23.1.2-46.2,0.3-69.3V51.5c1.6-.2,3.3-0.4,4.9-0.6,0.8,5.3,2.2,10.6,2.2,15.8,0.3,58.8.3,117.6,0.7,176.4,0.2,20.9,2.4,41.8,1.9,62.6-0.7,30.7,10.2,55.3,36.6,71,35.7,21.2,24.9,44.2-2.6,65.1-4.7,3.6-10.6,5.7-16,8.6-1.3,10.6-1.2,21.8-4.3,31.9-4.7,15.1-9.5,15.5-21.1,3.5a7.183,7.183,0,0,0-2,1.4c-5.2,6.2-10.3,12.4-15.5,18.6-4-7.8-9.1-15.3-11.6-23.6-1.8-5.9-.4-12.9-0.4-19.3-1.4-.5-2.9-1-4.3-1.6-2.5,6.1-6.1,12.1-7.3,18.5-1.8,10.2-1,20.9-3.1,31.1-1.1,5.6-5.8,10.6-8.9,15.8-2.4-.2-4.8-0.5-7.1-0.7-2.5-14.6-4.9-29.3-8-47.7-8.3,21.7-15.2,41-23.2,59.7-2,4.6-7.4,7.8-11.2,11.6-0.7-5.6-3.2-11.8-1.8-16.8,3.2-11.5,8.4-22.5,12.8-33.7-1.5-.6-2.9-1.2-4.4-1.8q-16.5,36.45-33.1,72.9c-2.3-.2-4.6-0.3-6.9-0.5-3.5-7.9-7.1-15.9-9.7-21.8-5.3,6.3-11.6,13.9-17.9,21.4-2.8-4.1-5.7-8.1-8.9-12.8-3,5.3-6,11.6-10,17.1-2.6,3.6-6.8,6-10.3,9-2.6-4.5-7.7-9.3-7.3-13.5,1.8-21.2,1.4-43.6,8.6-63.2A627.06,627.06,0,0,1,408,407.4c28.7-49.9,27.8-104,29.4-158.4q2.4-88.95,8.8-177.7c2-27.7,10.5-34.7,37.9-39.6,16.7-3,33.6-5.9,50.5-6.5,6.1-.2,12.5,6.4,18.8,9.9-3.9,5.3-7,14-11.9,15.2a356.256,356.256,0,0,1-72.3,10.5c22.8-16.3,54.6-.9,78-25-6.7-1.3-11.7-3.7-16.2-3C511,36,490.9,39.4,471.2,44c-15.5,3.6-17.5,17.8-18.4,30.1-3.3,40.5-6,81.1-7.7,121.7-1.8,43.4-1.7,86.8-3.6,130.2-1.5,33.8-16.5,63.4-31.8,92.8-20,38.4-42.4,76.1-48.1,120.2-1.4,11.1-1.2,22.3-2,38.1,19.8-30.5,36.8-56.6,53.7-82.7,2.2,0.8,4.5,1.7,6.7,2.5l-3,60C419.3,557.8,421.7,558.4,424.1,559.1Zm-11.5-44.2c-1.6-1-3.1-2.1-4.7-3.1-5.7,13.6-11.4,27.3-17.1,40.9,1.7,0.7,3.4,1.4,5.2,2.1C401.5,541.5,407,528.2,412.6,514.9Zm159.4-61c-2-.4-4-0.7-6-1.1-1.8,10.4-3.6,20.8-5.3,31.2,2.3,0.4,4.6.8,7,1.2C569.1,474.8,570.5,464.4,572,453.9Z" transform="translate(-342.436 -25.196)"/><path class="cls-1" d="M541,581c10.2-18,17.8-31.5,25.5-45,2.2,0.7,4.3,1.3,6.5,2-1.2,11.1-2.4,22.1-3.5,33.2,0.7,0.3,1.4.5,2.1,0.8,5.7-15,11.4-30.1,17-45.1,1.4,0.1,2.9.3,4.3,0.4-0.6,12.5-1.2,24.9-1.9,40.2,13.8-15.3,25.4-29.2,38.3-41.9,4.9-4.8,12.6-6.7,19.1-10,3.1,6.6,8.8,13.2,8.8,19.9,0.4,69.1.6,138.2-.7,207.3-0.4,23.9-15.5,39.5-36.1,51.4-46,26.6-94.5,38.9-148.1,36.2-33.2-1.7-65.5-3.5-96.7-16.4-22.4-9.3-32.1-24.9-31.4-48.6,0.4-12.1-.3-24.2-1.1-36.3-2.3-31.4.3-60.6,25.2-84.6,11-10.6,17.6-25.9,29.8-38.4v57.2c2,0.5,4,.9,6,1.4,5.7-17.6,11.3-35.2,17-52.7,1.3,0.2,2.6.4,3.8,0.6v40.8c2,0.3,4,.5,6,0.8,2.4-12.8,5.4-25.6,6.9-38.5,1-9.1,2.3-16.1,12.5-20.1,6.6-2.6,11.6-9.1,18.1-14.6v51.1c27.8-25.3,11.9-66.7,41.2-89.9,6.4,21-1.6,36.9-9.8,51.8-11,20-14.2,39.5-4.6,60.2,1.8,0.1,3.7.1,5.5,0.2V620.3c0-4.1-1.1-11.4.4-11.9,16.5-6.4,16-22.1,20.3-35.2,1-3.1,1.8-6.9,4.1-8.9,3.7-3.2,8.4-5.3,12.7-7.8,1.7,4.2,3.9,8.3,5,12.7C543.6,571.5,542.2,574.3,541,581ZM403.3,676.7c-2.6-.3-5.1-0.7-7.7-1-1.8-16-3.6-31.9-5.5-48-24.1,28.2-47.7,55.9-40.4,97.2,2.7,15,2.7,30.7,2.6,46-0.1,17.2,7.9,27.1,23,34.1,30.3,14,62.1,15.7,94.8,17,52,2.2,100-7.9,145.2-34.4,22.2-13,34.9-29.8,35.5-55q2.1-86.4,2.7-173c0.1-12.1-3-24.2-4.6-36.4-2.1-.4-4.1-0.8-6.2-1.3-22.2,25.9-54.7,44.7-52.1,87.1,0.8,12.3-1.6,25.3-5,37.3-1.7,5.9-8.9,10.3-13.6,15.4-3-6.9-9.6-14.6-8.3-20.6,3.8-17.5,11-34.3,16.4-51.5,2.3-7.3,3.5-14.9,6-25.9-8.8,9.3-14.4,15.4-20.1,21.4-1.4-1-2.9-1.9-4.3-2.9V557.8c-7.2,14.5-12.1,26.9-19.3,37.7-4.1,6.2-13.8,15.2-18,13.8-18.7-6-16.7,4.2-15.6,16,1.3,14.6,2.7,29.6-15.1,42.1-4.9-12.5-9.1-23.4-12.8-32.8-4.9,1.3-9.3,2.5-13.7,3.8-2.8-13-5.7-26-8.5-38.7-16.1,5-12.6,21.9-16.3,35.3-3.1,11.3-7.6,22.2-11.5,33.2-2-.3-4.1-0.6-6.1-0.9-2.4-5.2-4.8-10.4-6.9-14.8C413.3,660.4,408.3,668.6,403.3,676.7ZM569,652.2c2.7,0.5,5.5,1,8.2,1.5,2.7-15.5,5.4-31,8.2-46.5-2.1-.4-4.1-0.8-6.2-1.2Z" transform="translate(-342.436 -25.196)"/></svg>