<?xml version="1.0" encoding="utf-8"?>
<!-- Generator: Adobe Illustrator 18.0.0, SVG Export Plug-In . SVG Version: 6.00 Build 0)  -->
<!DOCTYPE svg PUBLIC "-//W3C//DTD SVG 1.1//EN" "http://www.w3.org/Graphics/SVG/1.1/DTD/svg11.dtd">
<svg version="1.1" id="Layer_1" xmlns="http://www.w3.org/2000/svg" xmlns:xlink="http://www.w3.org/1999/xlink" x="0px" y="0px"
	 viewBox="0 0 1000 856" enable-background="new 0 0 1000 856" xml:space="preserve">
<g>
	<path d="M244,340.6c85.8-85.3,171.4-170.4,257.3-255.8C587,170,672.5,255.1,758.5,340.6c-85.7,85.3-171.3,170.3-257.2,255.8
		C415.5,511.1,329.9,426,244,340.6z M501.3,583.4c81.7-81.2,162.8-161.9,244.3-242.9C664,259.5,582.7,178.7,501.3,97.7
		C419.6,178.8,338.4,259.6,257,340.6C338.6,421.7,419.7,502.4,501.3,583.4z"/>
	<path d="M466.8,770.6c0-19.9,0-39.6,0-59.6c0.9-0.2,1.8-0.5,2.7-0.5c10.6,0,21.2,0.1,31.7,0.1c3.5,0,6.7,0.8,9.8,2.6
		c10.3,6,9.2,20.8,0.5,25.4c-0.5,0.2-0.9,0.6-1.4,1c0.4,0.4,0.6,0.8,0.9,1c6.7,3.9,9.4,9.7,8.1,17.3c-1.1,6.5-6.3,11.3-13.5,12.6
		c-1.1,0.2-2.2,0.4-3.3,0.4c-11.3,0-22.5,0-33.8,0C468.1,771,467.6,770.8,466.8,770.6z M478.9,759.6c7.4,0,14.4,0,21.4,0
		c0.9,0,1.9-0.4,2.8-0.8c2.3-1,3.8-2.7,4-5.3c0.2-2.8-1-5-3.3-6.1c-1.8-0.9-3.9-1.4-5.9-1.5c-5.4-0.2-10.7-0.1-16.1-0.1
		c-0.9,0-1.8,0.3-2.9,0.4C478.9,750.7,478.9,754.9,478.9,759.6z M479,721.8c0,4.5,0,8.4,0,12.3c0.6,0.2,1,0.5,1.3,0.5
		c6.2,0,12.3,0,18.5,0c1.1,0,2.2-0.4,3.2-0.8c2.3-1,3.9-2.6,4-5.2c0.1-2.6-1.2-4.4-3.5-5.6c-1-0.5-2-1-3.1-1.1
		C492.8,721.8,486.1,721.8,479,721.8z"/>
	<path d="M100.3,710.8c1.1-0.1,2.3-0.3,3.5-0.3c10,0,20.1,0.1,30.1,0.1c3.6,0,7.1,0.7,10.3,2.6c11,6.4,8.9,21.5,0.4,25.6
		c-0.4,0.2-0.7,0.5-1.3,0.9c0.7,0.5,1.3,1,1.9,1.4c5.8,3.5,7.9,8.9,7.3,15.4c-0.6,6.4-4,10.7-9.9,13c-2.3,0.9-4.8,1.4-7.2,1.4
		c-11.1,0.1-22.3,0.1-33.4,0c-0.5,0-1.1-0.2-1.5-0.2C99.7,767.6,99.5,715.7,100.3,710.8z M112.2,759.6c7.4,0,14.4,0,21.3,0
		c1,0,2.2-0.5,3.1-0.9c4.7-2.4,5.1-8.3,0.7-11c-1.8-1.1-4.1-1.6-6.2-1.7c-5.3-0.3-10.7-0.1-16.1-0.1c-0.9,0-1.8,0.3-2.9,0.4
		C112.2,750.6,112.2,754.9,112.2,759.6z M112.3,734.1c0.6,0.2,1,0.5,1.4,0.5c6.2,0,12.3,0.1,18.5,0c1.2,0,2.4-0.5,3.5-1
		c2.1-1,3.5-2.7,3.6-5.1c0.1-2.4-1-4.4-3.2-5.3c-1.7-0.8-3.6-1.3-5.5-1.4c-5.2-0.2-10.4-0.1-15.6,0c-0.9,0-1.8,0.3-2.7,0.4
		C112.3,726.3,112.3,730.3,112.3,734.1z"/>
	<path d="M696.8,770.8c0-20.2,0-40,0-60c1.4-0.1,2.6-0.3,3.8-0.3c9.8,0,19.5,0.1,29.3,0.1c4.1,0,7.9,0.7,11.4,2.9
		c10.4,6.7,8.1,21.2-0.1,25.2c-0.4,0.2-0.8,0.6-1.5,1c0.7,0.5,1.1,0.8,1.5,1c6.4,3.1,8.7,10.7,7.9,16c-1,6.8-5.5,11.8-12.3,13.5
		c-1.7,0.4-3.5,0.7-5.3,0.7c-10.9,0.1-21.7,0-32.6,0C698.5,771,697.9,770.9,696.8,770.8z M708.9,759.7c7.1,0,13.7,0.1,20.2,0
		c4.6-0.1,7.6-2.8,7.9-6.3c0.3-3.7-2.7-6.7-7.4-7.4c-1.1-0.2-2.2-0.2-3.3-0.2c-3.7,0-7.4,0-11.1,0c-2,0-4,0-6.3,0
		C708.9,750.6,708.9,754.9,708.9,759.7z M708.9,734.5c7.1,0,13.8,0.1,20.5-0.1c1.3,0,2.7-0.7,3.8-1.4c3.7-2.4,3.8-7.3,0.1-9.6
		c-1.8-1.1-4.1-1.6-6.2-1.7c-4.2-0.3-8.5-0.1-12.7-0.1c-1.7,0-3.5,0-5.4,0C708.9,726.2,708.9,730.1,708.9,734.5z"/>
	<path d="M281.7,710.5c3.6,0,7.3-0.2,10.9,0.1c1.1,0.1,2.2,1.5,3,2.6c7.5,10,14.9,20.1,22.4,30.2c1,1.3,2,2.6,2.9,3.8
		c0.4-0.1,0.5-0.1,0.6-0.2c0.1-0.1,0.2-0.2,0.2-0.3c0-11.8,0-23.6,0-35.9c4.1-0.7,7.8-0.4,11.5-0.3c0.9,3.1,1.2,54.8,0.3,60.4
		c-3.3,0-6.7,0.2-10-0.1c-1.2-0.1-2.4-1.6-3.2-2.8c-7.9-10.7-15.8-21.5-23.7-32.3c-0.8-1-1.6-2-2.4-3c-0.3,0.1-0.5,0.2-0.8,0.3
		c0,12.4,0,24.9,0,37.6c-4.1,0-7.7,0-11.4,0C281,767.7,280.8,716,281.7,710.5z"/>
	<path d="M859.1,749.8c0,7.4,0,14.2,0,21.2c-4.1,0-7.8,0-11.4,0c-0.8-3-1-54.5-0.1-59.9c1-0.1,2-0.3,3.1-0.3c10,0,20.1,0.1,30.1,0.1
		c17.1,0,22.5,15.8,17.8,27.8c-1.9,4.8-5.7,7.6-10.8,9.7c4.2,7.5,8.2,14.9,12.5,22.6c-4.8,0-9.1,0-13.7,0c-1.8-3.4-3.7-7-5.6-10.6
		c-1.5-2.9-3.1-5.8-4.6-8.8c-0.6-1.2-1.4-2-2.8-1.9C868.9,749.8,864.4,749.8,859.1,749.8z M859.5,738.4c7.2,0,13.9,0.1,20.6-0.1
		c4.2-0.1,6.8-2.6,7.5-6.4c0.9-5.3-2-9.3-7.4-9.7c-3.5-0.3-7.1-0.2-10.7-0.2c-3.3,0-6.5,0-10,0C859.5,727.7,859.5,732.8,859.5,738.4
		z"/>
	<path d="M629.2,750c0,7.2,0,13.9,0,21c-3.9,0-7.6,0-11.2,0c-1-2.9-1.3-51.9-0.3-59.7c1-0.1,2-0.3,3.1-0.3c10,0,20.1,0,30.1,0
		c17.7,0,22.5,16.6,17.8,27.8c-1.5,3.7-4.1,6.5-7.7,8.3c-1,0.5-1.9,1-3.2,1.6c2.2,3.9,4.2,7.6,6.3,11.3c2,3.6,4,7.1,6.2,11.1
		c-5,0-9.3,0-13.8,0c-3.6-7-7.3-14-11-21.1C640.1,750,634.9,750,629.2,750z M629.5,738.4c7.5,0,14.6,0.2,21.7-0.1
		c3.9-0.2,6.4-3.3,6.7-7.2c0.4-4.8-2.7-8.5-7.7-8.8c-5.9-0.3-11.8-0.2-17.7-0.2c-0.9,0-1.8,0.2-3,0.4
		C629.5,727.7,629.5,732.7,629.5,738.4z"/>
	<path d="M361,710.9c0.5-0.2,1-0.4,1.6-0.4c8.4,0.1,16.8-0.3,25.1,0.4c15,1.3,25.3,12.7,25.8,27.8c0.1,3.1-0.1,6.4-0.7,9.4
		c-2.5,12-10,19.5-21.9,22c-9.7,2-19.7,0.6-29.9,1C361,750.8,361,730.9,361,710.9z M373,759.6c4.5,0,8.6,0.3,12.7-0.1
		c4.9-0.4,8.9-2.8,11.8-6.8c4.6-6.4,4.9-16.7,0.7-23.4c-2.1-3.3-5-5.5-8.7-6.6c-5.4-1.6-10.8-0.9-16.5-0.8
		C373,734.5,373,746.8,373,759.6z"/>
	<path d="M820,711.3c0,2.7,0,5.1,0,7.6c0,0.8-0.1,1.6-0.2,2.9c-10.6,0-21.1,0-31.9,0c0,4.6,0,8.6,0,13c10.5,0,20.7,0,31.3,0
		c0,3.9,0,7.3,0,11.2c-10.5,0-20.7,0-31.2,0c-0.8,4.7-0.3,9-0.4,13.7c10.7,0.5,21.3,0,32.1,0.3c0,3.7,0,7.2,0,10.9
		c-14.6,0-29.1,0-44,0c0-20,0-39.7,0-59.4C778.4,710.6,813.3,710.3,820,711.3z"/>
	<path d="M561.8,710.3c3.9,0,7.7,0,12.1,0c8.3,19.8,16.7,39.8,25.4,60.4c-3.9,0-7.1,0-10.2,0c-1.5,0-2.2-0.8-2.7-2
		c-0.8-2-1.8-4-2.5-6.1c-0.6-1.5-1.5-2.1-3.1-2.1c-9.3,0-18.7,0-28.3,0c-1.5,3.3-2.9,6.5-4.5,9.9c-3.7,0-7.4,0-11.1,0
		C537.1,767.1,556.4,720.7,561.8,710.3z M578.1,748.9c-3.5-8.2-6.7-16-10.4-24.7c-3.7,8.8-7,16.5-10.5,24.7
		C564.4,748.9,570.9,748.9,578.1,748.9z"/>
	<path d="M187.2,710.4c0,8.7,0,16.8,0,24.9c0,7.9,0,15.9,0,24.2c10.8,0,21,0,31.6,0c0,3.9,0,7.4,0,11.1c-14.4,0-28.8,0-43.5,0
		c0-19.9,0-39.7,0-60C179.1,710.1,182.8,710.6,187.2,710.4z"/>
	<path d="M251.3,770.8c-3.8,0-7.3,0-10.8,0c-1-3-1.4-54.2-0.4-60c3.6,0,7.2,0,10.8,0C251.8,713.7,252.2,763.5,251.3,770.8z"/>
	<path d="M570.7,235.8c1.3,5.6,0.6,10.6-1.7,15.5c-7.8,17-15.5,34.1-23.3,51.1c-8.5,18.7-17,37.3-25.5,56c-0.4,0.9-0.7,1.8-1.3,3.2
		c6.4,0.9,12.5,1.9,16.4,7.4c3.8,5.4,4.3,11.5,3.3,18.1c1,0.2,1.9,0.4,2.8,0.5c2.7,0.4,5.5,0.5,8.2,1.1
		c18.3,3.9,27.2,24.5,18.7,41.8c-6.4,13.1-19.4,19.2-34,16.3c-1.2-3.1-2.1-6.1-3.4-8.9c-7.2-15.5-14.5-30.9-21.8-46.3
		c-1-2.1-1.9-3.9-4.5-4.2c-2.8-0.3-2.5-3.4-4.3-5c-0.5,0.6-1.1,1.1-1.4,1.7c-0.7,2-1.9,3.3-4.1,3.5c-2.2,0.3-2.7,2.2-3.4,3.8
		c-6.3,13.3-12.6,26.6-18.9,39.9c-1.4,2.9-2.8,5.7-4,8.6c-0.8,2-1.3,4.1-2.2,6.8c-9.8,1.6-19.6,0.5-27.5-7.3
		c-9.1-9-12-19.8-8.4-32.2c1.2-4.3,3.6-8,6.7-11.2c3.1-3.2,6.8-5.7,11.2-6.7c4.2-1,8.6-1.5,13.4-2.4c-0.9-6.1-0.6-12.3,3.2-17.8
		c3.9-5.6,10-6.8,16.6-7.5c-0.7-1.7-1.2-2.9-1.8-4.2c-15.9-35.1-31.9-70.1-47.9-105.2c-2.1-4.6-3.2-9.3-3.1-14.4
		c0-0.6,0.2-1.3,0.4-2.9c23.9,38.7,47.2,76.6,71,115.2C524,311.5,547.3,273.6,570.7,235.8z M477.6,398.2c-6.4-3.3-12.4-4.9-19.1-4.6
		c-10.5,0.6-18.5,6.3-21.6,16.1c-2.9,8.9,0.7,20,8.3,25.9c3.7,2.8,7.8,4.4,12.7,4.4C464.4,426,470.9,412.3,477.6,398.2z
		 M542.5,439.8c11.5,0.1,19-8.7,21.3-17.6c2.5-10.1-1.8-21-10.6-25.5c-10.1-5.2-20.1-3.8-30.3,1.4C529.5,412.2,536,426,542.5,439.8z
		 M480.8,391.3c2.5-5.3,4.9-10.1,7.1-15c1.9-4.2-0.3-7.7-4.9-7.6c-1.4,0-2.8,0-4.1,0.2c-6.3,0.6-10,4.6-10.5,11.2
		c-0.4,5.1,2.7,8.9,8.5,10.5C478,390.9,479.2,391,480.8,391.3z M519.5,391.1c10.8-0.8,15.3-7.7,11.2-16.3c-1.6-3.4-4.4-5.2-8-5.8
		c-1.9-0.3-3.8-0.3-5.8-0.3c-3.8,0-6.3,3.5-4.7,7C514.5,380.8,517,385.9,519.5,391.1z"/>
	<path d="M642.9,331.3c0,1.6,0,2.8,0,4.3c-23.6,0-47,0-70.8,0c0-1.4,0-2.7,0-4.3C595.7,331.3,619.1,331.3,642.9,331.3z"/>
	<path d="M357.5,349.8c0-1.6,0-2.8,0-4.3c23.6,0,47,0,70.8,0c0.1,1.4,0.1,2.7,0.2,4.3C404.8,349.8,381.3,349.8,357.5,349.8z"/>
	<path d="M572.1,345.4c23.6,0,46.9,0,70.7,0c0.1,1.3,0.2,2.6,0.3,3.8c-3.2,1-66.6,1.2-71,0.2C572.1,348.3,572.1,347,572.1,345.4z"/>
	<path d="M357.3,331.3c24,0,47.3,0,71,0c0.1,1.5,0.1,2.8,0.2,4.4c-23.8,0-47.2,0-71,0C357.5,334.2,357.4,332.9,357.3,331.3z"/>
</g>
</svg>
