<svg id="Layer_1" data-name="Layer 1" xmlns="http://www.w3.org/2000/svg" viewBox="0 0 800.509 686.408"><defs><style>.cls-1{fill:#484748;}</style></defs><title>BlindBarberGrey</title><path class="cls-1" d="M-879.946,340.4l257.3-255.8q128.55,127.8,257.2,255.8Q-494,468.347-622.646,596.2Zm257.3,242.8c81.7-81.2,162.8-161.9,244.3-242.9q-122.4-121.5-244.3-242.8-122.55,121.65-244.3,242.9C-785.346,421.5-704.246,502.2-622.646,583.2Z" transform="translate(1024.156 -84.596)"/><path class="cls-1" d="M-657.146,770.4V710.8a12.815,12.815,0,0,1,2.7-.5c10.6,0,21.2.1,31.7,0.1a18.944,18.944,0,0,1,9.8,2.6c10.3,6,9.2,20.8.5,25.4a6.077,6.077,0,0,0-1.4,1,10.011,10.011,0,0,0,.9,1c6.7,3.9,9.4,9.7,8.1,17.3-1.1,6.5-6.3,11.3-13.5,12.6a18.587,18.587,0,0,1-3.3.4h-33.8A4.276,4.276,0,0,1-657.146,770.4Zm12.1-11h21.4a7.416,7.416,0,0,0,2.8-.8,6.062,6.062,0,0,0,4-5.3,5.89,5.89,0,0,0-3.3-6.1,15.134,15.134,0,0,0-5.9-1.5c-5.4-.2-10.7-0.1-16.1-0.1-0.9,0-1.8.3-2.9,0.4v13.4Zm0.1-37.8v12.3a7.91,7.91,0,0,0,1.3.5h18.5a8.874,8.874,0,0,0,3.2-.8c2.3-1,3.9-2.6,4-5.2a5.755,5.755,0,0,0-3.5-5.6,8.864,8.864,0,0,0-3.1-1.1C-631.146,721.6-637.846,721.6-644.946,721.6Z" transform="translate(1024.156 -84.596)"/><path class="cls-1" d="M-1023.646,710.6c1.1-.1,2.3-0.3,3.5-0.3,10,0,20.1.1,30.1,0.1a19.752,19.752,0,0,1,10.3,2.6c11,6.4,8.9,21.5.4,25.6-0.4.2-.7,0.5-1.3,0.9,0.7,0.5,1.3,1,1.9,1.4,5.8,3.5,7.9,8.9,7.3,15.4-0.6,6.4-4,10.7-9.9,13a20.037,20.037,0,0,1-7.2,1.4c-11.1.1-22.3,0.1-33.4,0-0.5,0-1.1-.2-1.5-0.2C-1024.246,767.4-1024.446,715.5-1023.646,710.6Zm11.9,48.8h21.3a8.507,8.507,0,0,0,3.1-.9c4.7-2.4,5.1-8.3.7-11a13.4,13.4,0,0,0-6.2-1.7c-5.3-.3-10.7-0.1-16.1-0.1-0.9,0-1.8.3-2.9,0.4C-1011.746,750.4-1011.746,754.7-1011.746,759.4Zm0.1-25.5a6.006,6.006,0,0,0,1.4.5c6.2,0,12.3.1,18.5,0a8.785,8.785,0,0,0,3.5-1,5.779,5.779,0,0,0,3.6-5.1,5.17,5.17,0,0,0-3.2-5.3,14.891,14.891,0,0,0-5.5-1.4c-5.2-.2-10.4-0.1-15.6,0a25.113,25.113,0,0,0-2.7.4C-1011.646,726.1-1011.646,730.1-1011.646,733.9Z" transform="translate(1024.156 -84.596)"/><path class="cls-1" d="M-427.146,770.6v-60c1.4-.1,2.6-0.3,3.8-0.3,9.8,0,19.5.1,29.3,0.1a20.657,20.657,0,0,1,11.4,2.9c10.4,6.7,8.1,21.2-.1,25.2-0.4.2-.8,0.6-1.5,1a12.647,12.647,0,0,0,1.5,1c6.4,3.1,8.7,10.7,7.9,16a15.845,15.845,0,0,1-12.3,13.5,23.33,23.33,0,0,1-5.3.7c-10.9.1-21.7,0-32.6,0A8.32,8.32,0,0,1-427.146,770.6Zm12.1-11.1c7.1,0,13.7.1,20.2,0,4.6-.1,7.6-2.8,7.9-6.3,0.3-3.7-2.7-6.7-7.4-7.4a18.286,18.286,0,0,0-3.3-.2h-17.4C-415.046,750.4-415.046,754.7-415.046,759.5Zm0-25.2c7.1,0,13.8.1,20.5-.1a7.665,7.665,0,0,0,3.8-1.4c3.7-2.4,3.8-7.3.1-9.6a13.4,13.4,0,0,0-6.2-1.7c-4.2-.3-8.5-0.1-12.7-0.1h-5.4C-415.046,726-415.046,729.9-415.046,734.3Z" transform="translate(1024.156 -84.596)"/><path class="cls-1" d="M-842.246,710.3c3.6,0,7.3-.2,10.9.1,1.1,0.1,2.2,1.5,3,2.6,7.5,10,14.9,20.1,22.4,30.2,1,1.3,2,2.6,2.9,3.8a1.267,1.267,0,0,0,.6-0.2,0.53,0.53,0,0,0,.2-0.3V710.6c4.1-.7,7.8-0.4,11.5-0.3,0.9,3.1,1.2,54.8.3,60.4-3.3,0-6.7.2-10-.1-1.2-.1-2.4-1.6-3.2-2.8-7.9-10.7-15.8-21.5-23.7-32.3l-2.4-3c-0.3.1-.5,0.2-0.8,0.3v37.6h-11.4C-842.946,767.5-843.146,715.8-842.246,710.3Z" transform="translate(1024.156 -84.596)"/><path class="cls-1" d="M-264.846,749.6v21.2h-11.4c-0.8-3-1-54.5-.1-59.9a29.632,29.632,0,0,1,3.1-.3c10,0,20.1.1,30.1,0.1,17.1,0,22.5,15.8,17.8,27.8-1.9,4.8-5.7,7.6-10.8,9.7,4.2,7.5,8.2,14.9,12.5,22.6h-13.7c-1.8-3.4-3.7-7-5.6-10.6-1.5-2.9-3.1-5.8-4.6-8.8a2.788,2.788,0,0,0-2.8-1.9C-255.046,749.6-259.546,749.6-264.846,749.6Zm0.4-11.4c7.2,0,13.9.1,20.6-.1a7.322,7.322,0,0,0,7.5-6.4c0.9-5.3-2-9.3-7.4-9.7-3.5-.3-7.1-0.2-10.7-0.2h-10C-264.446,727.5-264.446,732.6-264.446,738.2Z" transform="translate(1024.156 -84.596)"/><path class="cls-1" d="M-494.746,749.8v21h-11.2c-1-2.9-1.3-51.9-.3-59.7a29.632,29.632,0,0,1,3.1-.3h30.1c17.7,0,22.5,16.6,17.8,27.8a15.619,15.619,0,0,1-7.7,8.3c-1,.5-1.9,1-3.2,1.6,2.2,3.9,4.2,7.6,6.3,11.3,2,3.6,4,7.1,6.2,11.1h-13.8c-3.6-7-7.3-14-11-21.1h-16.3Zm0.3-11.6c7.5,0,14.6.2,21.7-.1,3.9-.2,6.4-3.3,6.7-7.2a7.8,7.8,0,0,0-7.7-8.8c-5.9-.3-11.8-0.2-17.7-0.2a19.157,19.157,0,0,0-3,.4v15.9Z" transform="translate(1024.156 -84.596)"/><path class="cls-1" d="M-762.946,710.7a4.192,4.192,0,0,1,1.6-.4c8.4,0.1,16.8-.3,25.1.4,15,1.3,25.3,12.7,25.8,27.8a42.111,42.111,0,0,1-.7,9.4c-2.5,12-10,19.5-21.9,22-9.7,2-19.7.6-29.9,1V710.7Zm12,48.7c4.5,0,8.6.3,12.7-.1a15.787,15.787,0,0,0,11.8-6.8c4.6-6.4,4.9-16.7.7-23.4a15.125,15.125,0,0,0-8.7-6.6c-5.4-1.6-10.8-.9-16.5-0.8v37.7Z" transform="translate(1024.156 -84.596)"/><path class="cls-1" d="M-303.946,711.1v7.6c0,0.8-.1,1.6-0.2,2.9h-31.9v13h31.3v11.2h-31.2c-0.8,4.7-.3,9-0.4,13.7,10.7,0.5,21.3,0,32.1.3v10.9h-44V711.3C-345.546,710.4-310.646,710.1-303.946,711.1Z" transform="translate(1024.156 -84.596)"/><path class="cls-1" d="M-562.146,710.1h12.1c8.3,19.8,16.7,39.8,25.4,60.4h-10.2a2.7,2.7,0,0,1-2.7-2c-0.8-2-1.8-4-2.5-6.1a2.93,2.93,0,0,0-3.1-2.1h-28.3c-1.5,3.3-2.9,6.5-4.5,9.9h-11.1C-586.846,766.9-567.546,720.5-562.146,710.1Zm16.3,38.6c-3.5-8.2-6.7-16-10.4-24.7-3.7,8.8-7,16.5-10.5,24.7h20.9Z" transform="translate(1024.156 -84.596)"/><path class="cls-1" d="M-936.746,710.2v49.1h31.6v11.1h-43.5v-60C-944.846,709.9-941.146,710.4-936.746,710.2Z" transform="translate(1024.156 -84.596)"/><path class="cls-1" d="M-872.646,770.6h-10.8c-1-3-1.4-54.2-.4-60h10.8C-872.146,713.5-871.746,763.3-872.646,770.6Z" transform="translate(1024.156 -84.596)"/><path class="cls-1" d="M-553.246,235.6a22.856,22.856,0,0,1-1.7,15.5c-7.8,17-15.5,34.1-23.3,51.1-8.5,18.7-17,37.3-25.5,56-0.4.9-.7,1.8-1.3,3.2,6.4,0.9,12.5,1.9,16.4,7.4,3.8,5.4,4.3,11.5,3.3,18.1,1,0.2,1.9.4,2.8,0.5,2.7,0.4,5.5.5,8.2,1.1,18.3,3.9,27.2,24.5,18.7,41.8-6.4,13.1-19.4,19.2-34,16.3-1.2-3.1-2.1-6.1-3.4-8.9q-10.8-23.25-21.8-46.3c-1-2.1-1.9-3.9-4.5-4.2-2.8-.3-2.5-3.4-4.3-5a10.48,10.48,0,0,0-1.4,1.7c-0.7,2-1.9,3.3-4.1,3.5-2.2.3-2.7,2.2-3.4,3.8l-18.9,39.9c-1.4,2.9-2.8,5.7-4,8.6-0.8,2-1.3,4.1-2.2,6.8-9.8,1.6-19.6.5-27.5-7.3-9.1-9-12-19.8-8.4-32.2a26.276,26.276,0,0,1,6.7-11.2,22.7,22.7,0,0,1,11.2-6.7c4.2-1,8.6-1.5,13.4-2.4-0.9-6.1-.6-12.3,3.2-17.8,3.9-5.6,10-6.8,16.6-7.5-0.7-1.7-1.2-2.9-1.8-4.2q-23.85-52.65-47.9-105.2a32.482,32.482,0,0,1-3.1-14.4c0-.6.2-1.3,0.4-2.9,23.9,38.7,47.2,76.6,71,115.2C-599.946,311.3-576.646,273.4-553.246,235.6Zm-93.1,162.4c-6.4-3.3-12.4-4.9-19.1-4.6-10.5.6-18.5,6.3-21.6,16.1-2.9,8.9.7,20,8.3,25.9a20.385,20.385,0,0,0,12.7,4.4C-659.546,425.8-653.046,412.1-646.346,398Zm64.9,41.6c11.5,0.1,19-8.7,21.3-17.6,2.5-10.1-1.8-21-10.6-25.5-10.1-5.2-20.1-3.8-30.3,1.4C-594.446,412-587.946,425.8-581.446,439.6Zm-61.7-48.5c2.5-5.3,4.9-10.1,7.1-15,1.9-4.2-.3-7.7-4.9-7.6a27.477,27.477,0,0,0-4.1.2c-6.3.6-10,4.6-10.5,11.2-0.4,5.1,2.7,8.9,8.5,10.5C-645.946,390.7-644.746,390.8-643.146,391.1Zm38.7-.2c10.8-.8,15.3-7.7,11.2-16.3a10.1,10.1,0,0,0-8-5.8,36.946,36.946,0,0,0-5.8-.3c-3.8,0-6.3,3.5-4.7,7C-609.446,380.6-606.946,385.7-604.446,390.9Z" transform="translate(1024.156 -84.596)"/><path class="cls-1" d="M-481.046,331.1v4.3h-70.8v-4.3h70.8Z" transform="translate(1024.156 -84.596)"/><path class="cls-1" d="M-766.446,349.6v-4.3h70.8c0.1,1.4.1,2.7,0.2,4.3h-71Z" transform="translate(1024.156 -84.596)"/><path class="cls-1" d="M-551.846,345.2h70.7c0.1,1.3.2,2.6,0.3,3.8-3.2,1-66.6,1.2-71,.2v-4Z" transform="translate(1024.156 -84.596)"/><path class="cls-1" d="M-766.646,331.1h71c0.1,1.5.1,2.8,0.2,4.4h-71C-766.446,334-766.546,332.7-766.646,331.1Z" transform="translate(1024.156 -84.596)"/></svg>