<?xml version="1.0" encoding="utf-8"?>
<!-- Generator: Adobe Illustrator 16.0.0, SVG Export Plug-In . SVG Version: 6.00 Build 0)  -->
<!DOCTYPE svg PUBLIC "-//W3C//DTD SVG 1.1//EN" "http://www.w3.org/Graphics/SVG/1.1/DTD/svg11.dtd">
<svg version="1.1" id="Layer_1" xmlns="http://www.w3.org/2000/svg" xmlns:xlink="http://www.w3.org/1999/xlink" x="0px" y="0px"
	 width="337.311px" height="337.311px" viewBox="202 180.445 337.311 337.311" enable-background="new 202 180.445 337.311 337.311"
	 xml:space="preserve">
<title>FewLandingLogo</title>
<g>
	<path fill-rule="evenodd" clip-rule="evenodd" fill="#333333" d="M528.872,512.797H212.439V185.405h316.433V512.797
		L528.872,512.797z M316.021,224.642c7.306-5.48,10.958-6.85,21.917-6.85c6.849-4.11,10.958-5.479,15.525-5.479
		c1.826,0,1.826,0,13.24,1.37c4.109-2.739,6.849-3.653,10.045-3.653c4.565,0,8.22,1.827,18.723,6.392
		c10.957,0,15.523-0.456,25.568,10.502c8.675,0,14.157,2.74,23.744,16.895c6.85,0,11.416,4.565,17.353,21.003
		c9.133,2.74,11.415,8.676,11.415,25.571c3.65,3.196,6.392,7.762,6.392,13.698c0,3.197-0.912,7.763-1.825,15.068l4.108,7.306h11.416
		v47.031h-27.397c-1.371,11.416-5.021,16.436-15.982,21.915l-3.653,6.849l73.06,101.37V194.048H295.016L316.021,224.642
		L316.021,224.642z M483.381,381.736c5.619,0,10.229,4.614,10.229,10.229c0,5.619-4.61,10.23-10.229,10.23
		c-5.615,0-10.229-4.611-10.229-10.23C473.152,386.35,477.766,381.736,483.381,381.736L483.381,381.736z M483.381,383.339
		c-4.713,0-8.623,3.914-8.623,8.626c0,4.713,3.91,8.627,8.623,8.627c4.717,0,8.627-3.914,8.627-8.627
		C492.008,387.252,488.098,383.339,483.381,383.339L483.381,383.339z M481.239,393.039v4.614h-2.308v-11.638h6.32
		c1.804,0,3.007,1.709,3.007,3.312c-0.099,1.302-1.001,2.607-2.304,3.007c0.8,0.202,1.303,0.502,1.604,1.306
		c0.399,1.104,0.502,2.406,0.502,4.013h-2.307c0-0.803,0-2.109-0.099-2.608c-0.403-1.405-1.104-2.006-2.109-2.006H481.239
		L481.239,393.039z M481.239,387.786v3.312h2.908c2.006,0,2.108-3.312,0.202-3.312H481.239L481.239,387.786z M221.032,504.119
		h224.653l-28.31-37.439l-36.072,18.265l-10.959-31.964l-10.502,31.048l-39.269-17.349l-45.204,3.65l21.003-68.945
		c-13.698-4.112-14.611-6.395-18.264-26.485h-30.137v-53.424h12.785c-1.826-2.739-2.283-4.109-2.283-6.849
		c0-5.023,0-5.023,6.85-15.981c-1.371-3.197-1.827-5.023-1.827-7.762c0-6.393,2.74-10.502,11.873-20.091l-54.338-75.341V504.119
		L221.032,504.119z M269.932,321.466c-1.826-3.653-2.74-5.479-2.74-7.762c0-3.197,2.284-6.85,7.307-14.612
		c-1.37-4.566-2.283-6.393-2.283-7.762c0-5.023,7.306-12.329,11.872-16.438c-0.913-3.196-1.37-4.109-1.37-5.48
		c0-5.479,5.936-10.045,13.698-14.155c3.197-10.502,10.044-16.438,23.289-17.808c3.651-9.131,8.218-10.045,23.287-10.045
		c3.653-5.023,6.392-7.306,11.871-7.306c4.11,0,7.307,0.914,14.612,3.197c2.739-3.197,4.563-4.567,7.762-4.567
		c4.108,0,8.22,1.827,17.349,7.306c3.199-1.37,5.024-1.826,7.308-1.826c5.024,0,11.416,4.566,17.353,11.416
		c7.304,0,11.87,0.456,20.545,15.524c9.59,0,11.873,3.653,15.527,20.091c10.045,2.283,10.503,5.479,10.503,23.744
		c5.021,2.283,6.846,4.109,6.846,9.589c0,3.652-0.454,8.675-1.825,15.981l3.195,5.936h4.566l-3.65-6.848
		c1.371-6.393,1.825-9.589,1.825-13.699c0-9.132-3.195-12.328-6.395-13.699c0-18.264-2.737-24.657-10.958-25.114
		c-3.649-13.241-8.674-20.547-16.436-20.547c-9.591-13.698-15.527-17.351-22.832-17.351c-10.045-9.589-12.786-10.046-24.201-10.046
		c-9.133-4.565-13.241-6.393-18.265-6.393c-2.738,0-5.478,1.372-9.588,4.11c-8.218-1.827-10.501-2.283-13.697-2.283
		c-5.479,0-9.133,1.827-14.156,6.393c-15.523,0-21.46,3.195-23.286,11.872c-14.611,1.826-20.548,7.306-22.832,17.807
		c-9.132,3.653-16.895,10.503-16.895,17.353c0,0.913,0,2.282,0.914,4.565c-11.871,12.328-11.871,12.328-11.871,19.177
		c0,2.74,0.456,3.653,2.282,6.85c-6.849,11.871-7.306,12.328-7.306,15.524c0,2.283,0.914,3.653,2.74,7.306H269.932L269.932,321.466z
		 M300.061,399.105l-21.003,68.49l42.007-3.654l37.443,16.44l10.959-31.964l-2.74-6.392l-10.959,31.961l-32.419-15.982
		l-37.899,3.199l18.722-54.795c2.283,3.196,8.676,7.762,19.178,7.762c3.196,5.479,9.132,10.96,16.895,10.96
		c1.827,0,4.109-0.458,6.85-1.37c7.306,5.479,12.328,6.392,20.547,6.392l15.068,50.683l35.614-17.349l42.921,4.566l-17.349-65.753
		l1.825-7.762c10.958-5.482,15.981-11.874,16.895-21.006h-4.566c0,9.132-6.392,14.157-16.895,16.894
		c-1.37,11.874-4.566,14.157-19.178,15.527c-0.912,3.65-5.479,10.958-16.439,10.958c-0.912,0-2.737,0-6.85-0.912
		c-3.195,5.021-5.934,7.304-13.695,7.304c-3.653,0-6.85-0.454-12.788-2.741c-2.281,2.741-4.106,3.653-7.76,3.653
		c-4.566,0-8.219-1.366-16.895-6.391c-4.567,0.913-6.85,1.825-8.219,1.825c-4.566,0-9.589-3.65-16.438-11.87
		c-10.045,0-12.329,0-22.831-15.524c-8.219,0-11.871-5.479-13.698-17.353h-5.479C282.254,389.973,285.906,397.735,300.061,399.105
		L300.061,399.105z M385.44,428.766c7.304,0,10.499-1.371,15.523-6.395c15.069,0,22.373-3.651,25.114-11.413
		c5.934-0.458,7.762-1.371,13.241-4.566l15.523,55.25l-37.438-3.195l-31.964,15.065l-13.701-45.662
		C380.873,428.766,382.698,428.766,385.44,428.766L385.44,428.766z M370.851,411.437c28.312,0,55.709-16.437,70.774-37.897h-2.283
		c-18.72,21.002-39.268,34.701-68.491,34.701c-22.829,0-54.793-11.87-66.664-33.331h-3.196
		C311.035,395.913,345.282,411.437,370.851,411.437L370.851,411.437z M324.286,248.408c16.438-9.131,34.246-13.242,46.574-13.242
		c52.052,0,84.016,41.096,85.387,91.322h1.825c-0.455-49.771-32.877-94.062-86.754-94.062c-18.265,0-32.877,5.48-47.945,14.155
		L324.286,248.408L324.286,248.408z M350.322,312.359c3.197,0,5.479-1.37,11.416-5.023c1.826,3.653,3.652,5.48,8.676,5.48
		c6.393,0,10.501-4.11,14.609-12.328c5.024-0.457,5.479-0.914,12.786-5.938c-0.455,10.047-0.913,10.503-8.675,10.503l-3.653,3.196
		c2.283,2.74,4.566,4.566,7.762,4.566c7.308,0,9.133-5.48,10.503-13.242l2.737-13.242h-6.849c-4.566,5.023-5.934,6.392-11.87,8.217
		c-0.458-4.564-2.283-9.588-7.308-9.588c-1.367,0-2.737,0-6.85,1.371l9.133-24.201h-6.85l-10.957,28.31
		c-3.195,7.763-7.762,14.611-10.957,14.611c-0.914,0-1.827-0.457-1.827-1.37c0-0.457,1.827-5.479,2.282-6.393l4.11-11.417h-5.479
		l-2.74,1.827c-2.739-1.369-4.565-2.283-7.306-2.283c-6.849,0-17.352,10.958-17.352,20.092c0,4.565,4.109,7.762,7.763,7.762
		c3.654,0,5.937-1.37,10.959-5.022C346.213,310.989,347.582,312.359,350.322,312.359L350.322,312.359z M336.588,305.948
		c-1.827,0-2.739-1.37-2.739-3.197c0-4.566,7.307-10.958,10.502-10.958c1.827,0,2.74,1.37,2.74,2.739
		C347.091,299.555,339.328,305.948,336.588,305.948L336.588,305.948z M376.776,291.335c1.824,0,3.195,0.914,3.195,3.197
		c0,5.479-5.024,11.416-8.677,11.416c-2.282,0-3.196-1.37-3.196-2.283s0.457-1.827,0.914-2.739l1.368-4.111
		C371.749,293.163,373.119,291.335,376.776,291.335L376.776,291.335z M305.531,266.261c11.415-5.936,21.46-9.132,31.049-9.132
		c6.85,0,9.59,2.283,9.59,7.306c0,6.849-7.763,12.328-20.548,12.328l5.479-14.611l-7.306,0.457l-19.179,49.313l7.307-0.457
		l10.959-26.026c19.635,0,31.049-8.676,31.049-21.004c0-10.046-5.936-15.525-17.808-15.525c-9.589,0-15.068,1.827-33.333,10.503
		L305.531,266.261L305.531,266.261z M418.742,278.542c-2.282,7.763-4.565,10.502-12.786,15.981l1.829,5.479l3.195-1.368
		c-0.912,2.738-1.37,5.022-1.37,6.849c0,4.565,3.195,6.849,6.392,6.849c6.395,0,10.961-4.566,13.698-10.502l-3.65-1.828
		c-2.741,3.655-5.482,5.938-6.853,5.938c-0.909,0-1.825-0.456-1.825-2.741c0-1.826,0.458-3.197,3.653-11.415l5.024-13.242h6.846
		l2.741-6.848h-6.391l1.825-6.85l-5.479-0.456l-3.195,7.306h-20.09l-2.741,6.848H418.742L418.742,278.542z M252.132,331.059
		c2.74,0,3.653,0.913,3.653,5.479v22.832c0,4.566-0.457,5.479-3.653,5.479v4.566h11.873c11.415,0,15.981-1.371,15.981-11.416
		c0-6.85-2.283-10.045-5.935-11.873c3.652-2.282,5.022-4.109,5.022-8.675c0-10.502-4.566-10.958-14.611-10.958h-12.329V331.059
		L252.132,331.059z M271.291,355.706c0,8.674-0.913,8.674-6.392,8.674v-15.067C269.922,349.313,271.291,349.769,271.291,355.706
		L271.291,355.706z M264.9,343.84v-12.328c3.652,0,5.936,0,5.936,4.109C270.836,343.84,270.379,343.84,264.9,343.84L264.9,343.84z
		 M347.516,331.059c3.196,0.456,3.652,0.913,3.652,5.479v22.832c0,5.021,0,5.021-2.739,5.479v4.566h13.699v-4.566
		c-2.74-0.913-3.196-0.913-3.196-6.849v-8.678c5.479,0,6.393,0.914,6.393,6.849v3.654c0,9.132,0.456,9.59,5.021,9.59h5.022v-4.566
		c-2.282-1.829-2.736-2.741-2.736-6.395v-3.196c0-5.479-0.916-6.392-4.567-9.132c3.651-2.282,5.479-4.565,5.479-9.131
		c0-9.589-5.936-10.502-15.523-10.502h-10.503V331.059L347.516,331.059z M358.973,343.84v-12.785c4.11,0,6.85,0.912,6.85,6.392
		C365.823,342.47,364.453,343.84,358.973,343.84L358.973,343.84z M292.724,347.477c2.283,1.827,2.739,2.281,2.739,5.935v8.22
		c0,5.479,0.914,9.133,8.219,9.133c2.282,0,4.109-0.913,6.393-1.829c2.739,0.458,6.393,0.458,8.676,0.458v-5.024
		c-2.283-0.913-2.283-0.913-2.283-5.021v-15.981h-10.046v4.109c2.739,1.827,2.283,2.281,2.283,5.935v6.85
		c0,3.195,0,4.566-2.283,4.566c-2.739,0-3.195-0.913-3.195-4.566v-16.894h-10.502V347.477L292.724,347.477z M465.397,351.604v7.766
		c0,3.196-0.458,3.65-2.283,5.479v4.566h11.415v-4.566c-1.828-1.371-1.828-1.371-1.828-4.569v-7.762
		c0-2.738,0.458-4.563,3.199-4.563c2.283,0,2.741,1.367,2.741,4.108v10.045c0,6.849,0.909,7.307,5.934,7.307h4.565v-4.566
		c-3.195,0-3.653-0.458-3.653-4.111v-9.133c0-6.39-0.912-9.13-6.392-9.13c-2.283,0-4.108,0.457-6.395,1.827l-9.587-0.913v4.109
		C465.397,348.41,465.397,348.41,465.397,351.604L465.397,351.604z M392.281,331.053c1.825,0.913,2.283,1.369,2.283,4.108v23.744
		c0,5.021,0,5.021-1.828,5.937v4.566h8.22v-1.371c2.283,1.371,3.196,1.825,5.937,1.825c5.938,0,7.308-3.196,7.308-8.217v-10.048
		c0-6.39-0.916-9.586-7.766-9.586c-2.282,0-3.195,0.456-5.479,1.37v-16.896h-8.675V331.053L392.281,331.053z M404.153,347.943
		c2.282,0,3.195,1.369,3.195,3.65v8.678c0,3.195-0.455,4.108-3.195,4.108c-2.283,0-3.196-1.371-3.196-4.566v-7.304
		C400.956,349.313,401.411,347.943,404.153,347.943L404.153,347.943z M416.057,331.053c1.825,0.913,2.282,1.369,2.282,4.108v23.744
		c0,5.021,0,5.021-1.828,5.937v4.566h8.22l0.913-1.829c1.37,1.371,2.283,2.283,5.024,2.283c6.391,0,7.307-3.196,7.307-8.217v-10.048
		c0-6.847-1.828-9.586-7.765-9.586c-2.283,0-3.196,0.456-5.479,1.37v-16.896h-8.674V331.053L416.057,331.053z M427.927,347.943
		c2.283,0,3.195,1.369,3.195,3.65v8.678c0,3.195-0.454,4.108-3.195,4.108c-2.283,0-3.196-1.371-3.196-4.566v-7.304
		C424.731,349.313,425.186,347.943,427.927,347.943L427.927,347.943z M339.776,357.568c0-10.5-0.457-15.066-10.503-15.066
		c-7.306,0-9.132,3.652-9.132,10.045v8.674c0,5.479,2.283,9.133,9.589,9.133c8.219,0,10.046-3.196,10.046-10.503h-5.937
		c0,3.653-0.457,5.024-3.196,5.024s-3.653-1.829-3.653-7.307H339.776L339.776,357.568z M332.95,353.005h-5.936
		c0-4.11,0.457-5.479,3.196-5.479C332.494,347.526,332.95,349.352,332.95,353.005L332.95,353.005z M450.768,370.354
		c6.85,0,9.591-2.283,9.591-8.675v-10.048c0-5.933-1.371-10.042-9.133-10.042s-10.045,5.479-10.045,10.5v8.675
		C441.181,368.071,443.006,370.354,450.768,370.354L450.768,370.354z M451.171,347.022c2.283,0,2.738,1.828,2.738,4.564v9.591
		c0,2.741-0.455,3.65-3.196,3.65c-1.828,0-2.741-1.367-2.741-4.108v-8.675C447.972,348.393,448.43,347.022,451.171,347.022
		L451.171,347.022z M285.016,320.14c2.74-21.46,5.479-32.876,16.437-49.314l-0.911-2.283
		c-10.047,10.958-17.352,31.507-17.352,52.055L285.016,320.14L285.016,320.14z M390.03,382.669c0.916,0.916,0.916,1.371,0.916,2.741
		v1.825c0,2.283,0,2.283-0.916,3.195v0.916h5.024v-0.916c-0.913-0.912-0.913-0.912-0.913-2.737h4.108l2.741,3.653h3.196
		l-3.196-4.566c0.913-1.371,1.367-1.829,1.367-2.741c0-2.738-1.825-3.196-6.85-3.196h-5.479V382.669L390.03,382.669z
		 M399.145,384.043c0,1.371-0.912,1.371-3.195,1.371h-1.825v-2.741h1.825C397.775,382.672,399.145,382.672,399.145,384.043
		L399.145,384.043z M279.957,331.059c2.283,1.371,2.74,1.827,2.74,5.023v23.742c0,3.653,0,3.653-2.74,5.024v4.566h13.698v-4.566
		c-3.196-0.913-3.196-1.371-3.196-5.479v-32.877h-10.502V331.059L279.957,331.059z M345.744,391.34c3.653,0,5.937,0.458,5.937-2.283
		c0-0.912-0.914-1.828-1.827-2.741c1.369-1.371,1.827-1.825,1.827-2.738c0-2.741-3.197-2.741-6.85-2.741h-6.851v1.825
		c0.914,0.916,1.371,0.916,1.371,2.283v2.283c0,1.37-0.457,1.828-1.371,3.199v0.913H345.744L345.744,391.34z M348.467,388.134
		c0,0.913-1.37,1.371-3.653,1.371h-2.74v-2.283h2.74C346.183,387.222,348.467,387.222,348.467,388.134L348.467,388.134z
		 M348.467,383.551c0,0.916-0.914,1.371-3.196,1.371h-3.197v-2.283h3.197C347.553,382.638,348.467,382.638,348.467,383.551
		L348.467,383.551z M355.331,382.669c0.914,0.458,0.914,0.458,0.914,2.283v2.741c0,1.825,0,2.283-0.914,2.737v0.916h12.785v-2.741
		c-1.369,1.371-1.826,0.913-4.565,0.913h-3.653v-2.283h4.109v-2.283h-4.109v-2.283l7.763,0.458v-2.283h-12.329V382.669
		L355.331,382.669z M377.715,347.497c2.283,0.458,2.737,0.914,2.737,4.107v8.22c0,3.653,0,3.653-1.825,5.024v4.566h11.416v-4.566
		c-2.741-1.371-2.741-1.829-2.741-8.22v-13.241h-9.587V347.497L377.715,347.497z M385.009,391.347v-2.741
		c-1.371,0.913-2.283,0.913-4.108,0.913h-3.653v-2.283h3.653v-2.283h-3.653v-2.283h3.653c2.737,0,2.283,0,3.653,0.458v-2.283
		h-11.872v1.825c0.455,0.916,0.911,1.829,0.911,2.741v1.825c0,1.828,0,1.828-0.911,3.195v0.916H385.009L385.009,391.347z
		 M377.715,333.326c0,3.197,2.283,5.48,5.021,5.48c2.741,0,5.024-1.828,5.024-5.024c0-2.739-2.283-5.022-5.024-5.022
		C379.998,328.761,377.715,330.587,377.715,333.326L377.715,333.326z"/>
</g>
</svg>
