<svg id="Layer_1" data-name="Layer 1" xmlns="http://www.w3.org/2000/svg" xmlns:xlink="http://www.w3.org/1999/xlink" viewBox="0 0 86.869 26.784"><defs><style>.cls-1,.cls-4{fill:none;}.cls-2{fill:#484748;}.cls-3{clip-path:url(#clip-path);}.cls-4{stroke:#484748;stroke-miterlimit:10;}</style><clipPath id="clip-path" transform="translate(7008.462 -1454.433)"><rect class="cls-1" x="-7008.462" y="1454.433" width="86.869" height="26.374"/></clipPath></defs><title>GreyGhostLanding1</title><path class="cls-2" d="M-7004.154,1465.111a2.129,2.129,0,0,0-1.282.383,1.3,1.3,0,0,0-.582.959v0.088a1.26,1.26,0,0,0,.514,1.047,2.11,2.11,0,0,0,1.333.4,2.29,2.29,0,0,0,1.394-.4,1.215,1.215,0,0,0,.539-1.017,1.264,1.264,0,0,0-.548-1.047,2.208,2.208,0,0,0-1.368-.413h0Zm0.018,5.721a5.351,5.351,0,0,0-2.156.354,1.084,1.084,0,0,0-.786.958,1.067,1.067,0,0,0,.769.951,5.116,5.116,0,0,0,2.069.347,5.418,5.418,0,0,0,2.163-.354,1.083,1.083,0,0,0,.8-0.943,1.073,1.073,0,0,0-.753-0.966,5.147,5.147,0,0,0-2.1-.346h0Zm-0.069-6.694a5.006,5.006,0,0,1,1.009.118q0.086-1.446,1.95-1.445a2.324,2.324,0,0,1,1.317.354,1.051,1.051,0,0,1,.53.9,0.8,0.8,0,0,1-.265.6,0.88,0.88,0,0,1-.625.251,0.749,0.749,0,0,1-.479-0.162,0.48,0.48,0,0,1-.2-0.384,0.67,0.67,0,0,1,.376-0.487,0.917,0.917,0,0,0-.7-0.295,0.848,0.848,0,0,0-.923.973,2.269,2.269,0,0,1,1.3,2.02,2.055,2.055,0,0,1-.892,1.7,3.573,3.573,0,0,1-2.229.679,5.511,5.511,0,0,1-1.955-.384,1.352,1.352,0,0,0-.462-0.1,0.6,0.6,0,0,0-.428.184,0.586,0.586,0,0,0-.189.435q0,0.767,1.8.767h0.618a10.766,10.766,0,0,1,2.64.265,3.328,3.328,0,0,1,1.491.779,1.618,1.618,0,0,1,.549,1.19,1.892,1.892,0,0,1-1.155,1.7,6.582,6.582,0,0,1-3.12.625,6.7,6.7,0,0,1-3.087-.589,1.8,1.8,0,0,1-1.12-1.622,1.822,1.822,0,0,1,1.556-1.7,1.629,1.629,0,0,1-1.4-1.415,1.531,1.531,0,0,1,1.4-1.416,1.793,1.793,0,0,1-.445-1.209,2,2,0,0,1,.9-1.666,3.682,3.682,0,0,1,2.248-.663h0Z" transform="translate(7008.462 -1454.433)"/><path class="cls-2" d="M-6995.911,1464.809v0.4a2.927,2.927,0,0,1,2.377-1.076,3.059,3.059,0,0,1,1.94.582,1.816,1.816,0,0,1,.744,1.5,1.489,1.489,0,0,1-.376,1.055,1.292,1.292,0,0,1-.992.4,1.072,1.072,0,0,1-.667-0.206,0.613,0.613,0,0,1-.274-0.5,0.553,0.553,0,0,1,.207-0.421,0.692,0.692,0,0,1,.478-0.184,1.2,1.2,0,0,1,.221.044,0.651,0.651,0,0,0,.1-0.325,0.857,0.857,0,0,0-.436-0.722,1.894,1.894,0,0,0-1.086-.3,1.742,1.742,0,0,0-1.779,1.033,5.092,5.092,0,0,0-.273,1.917v0.973q0,0.988.016,1.105,0.086,0.841.53,0.841a2.273,2.273,0,0,0,.462-0.051,1.632,1.632,0,0,1,.325-0.039,0.452,0.452,0,0,1,.548.465q0,0.508-.7.508h-0.067c-0.171,0-.429-0.017-0.776-0.052s-0.605-.052-0.776-0.052c-0.455,0-.813.011-1.073,0.029l-0.955.074c-0.466,0-.7-0.172-0.7-0.516q0-.457.655-0.457a1.706,1.706,0,0,1,.259.015l0.259,0.044a1.659,1.659,0,0,0,.24.03c0.288,0,.444-0.226.466-0.679V1469.5l-0.051-3.347q-0.05-.869-0.512-0.87a2.236,2.236,0,0,0-.377.044,2.205,2.205,0,0,1-.375.044,0.462,0.462,0,0,1-.564-0.472q0-.516.735-0.516c0.114,0,.285.013,0.513,0.036a5.066,5.066,0,0,0,.512.037,4.148,4.148,0,0,0,.445-0.037,1.275,1.275,0,0,1,.324-0.036,0.383,0.383,0,0,1,.445.42h0Z" transform="translate(7008.462 -1454.433)"/><path class="cls-2" d="M-6988.541,1467.042q0,0.206.378,0.207h4.087q0.359,0,.359-0.207a1.725,1.725,0,0,0-.685-1.356,2.421,2.421,0,0,0-1.607-.576,2.811,2.811,0,0,0-1.744.6,1.684,1.684,0,0,0-.788,1.334h0Zm6.208,0.384a1.6,1.6,0,0,1-.085.685,0.628,0.628,0,0,1-.5.125h-5.438a0.535,0.535,0,0,0-.29.051,0.2,0.2,0,0,0-.068.17,2.444,2.444,0,0,0,.77,1.843,2.658,2.658,0,0,0,1.915.737,2.746,2.746,0,0,0,1.376-.354,1.68,1.68,0,0,0,.813-0.9l0.153-.428a0.528,0.528,0,0,1,.565-0.354,0.529,0.529,0,0,1,.632.56,2.082,2.082,0,0,1-1.129,1.7,4.555,4.555,0,0,1-2.565.744,3.9,3.9,0,0,1-2.855-1.04,3.733,3.733,0,0,1-1.061-2.794,3.94,3.94,0,0,1,1.128-2.919,4,4,0,0,1,2.943-1.121,3.835,3.835,0,0,1,2.649.928,3.023,3.023,0,0,1,1.043,2.36h0Z" transform="translate(7008.462 -1454.433)"/><path class="cls-2" d="M-6978.365,1465.8l1.966,4.984,2.086-4.91a0.909,0.909,0,0,0,.085-0.324q0-.251-0.392-0.251a1.432,1.432,0,0,0-.326.029c-0.182.02-.3,0.029-0.359,0.029a0.462,0.462,0,0,1-.563-0.471c0-.334.246-0.5,0.734-0.5a3.363,3.363,0,0,1,.343.029l0.614,0.074a4.265,4.265,0,0,0,.514.029,8.028,8.028,0,0,0,.854-0.066,7.958,7.958,0,0,1,.856-0.066q0.735,0,.735.494a0.465,0.465,0,0,1-.564.479,0.824,0.824,0,0,1-.257-0.029,1.914,1.914,0,0,0-.308-0.044,1.027,1.027,0,0,0-.667.753l-2.326,5.012a9.8,9.8,0,0,1-1.454,2.418,3.758,3.758,0,0,1-2.907,1.283,3.169,3.169,0,0,1-1.753-.457,1.311,1.311,0,0,1-.71-1.106,0.973,0.973,0,0,1,.308-0.744,1.128,1.128,0,0,1,.8-0.288,1.023,1.023,0,0,1,.648.2,0.6,0.6,0,0,1,.258.494,0.585,0.585,0,0,1-.5.6,1.2,1.2,0,0,0,.976.325,2.541,2.541,0,0,0,1.632-.583,1.667,1.667,0,0,0,.728-1.3,4.19,4.19,0,0,0-.462-1.371l-1.881-4.1-0.2-.472a0.87,0.87,0,0,0-.669-0.663,3.143,3.143,0,0,0-.367.037,3.2,3.2,0,0,1-.351.036,0.481,0.481,0,0,1-.6-0.471q0-.5.787-0.5a3.329,3.329,0,0,1,.393.018l0.685,0.086h0.136a1.624,1.624,0,0,0,.205.015q0.616,0,1.318-.068c0.352-.034.586-0.051,0.7-0.051,0.478,0,.719.162,0.719,0.486s-0.216.486-.65,0.486a2.645,2.645,0,0,1-.325-0.029,2.728,2.728,0,0,0-.325-0.029,0.2,0.2,0,0,0-.239.206,0.839,0.839,0,0,0,.068.295h0Z" transform="translate(7008.462 -1454.433)"/><path class="cls-2" d="M-6961.437,1465.28a2.128,2.128,0,0,0-1.282.383,1.3,1.3,0,0,0-.582.958v0.089a1.259,1.259,0,0,0,.514,1.047,2.111,2.111,0,0,0,1.333.4,2.291,2.291,0,0,0,1.395-.4,1.216,1.216,0,0,0,.539-1.018,1.264,1.264,0,0,0-.549-1.047,2.2,2.2,0,0,0-1.367-.412h0Zm0.018,5.72a5.345,5.345,0,0,0-2.155.355,1.083,1.083,0,0,0-.787.958,1.068,1.068,0,0,0,.77.951,5.133,5.133,0,0,0,2.069.347,5.423,5.423,0,0,0,2.163-.355,1.082,1.082,0,0,0,.8-0.944,1.072,1.072,0,0,0-.753-0.965,5.148,5.148,0,0,0-2.1-.347h0Zm-0.069-6.694a4.963,4.963,0,0,1,1.008.118q0.087-1.446,1.95-1.445a2.324,2.324,0,0,1,1.316.354,1.05,1.05,0,0,1,.53.9,0.8,0.8,0,0,1-.265.6,0.879,0.879,0,0,1-.625.251,0.75,0.75,0,0,1-.478-0.163,0.477,0.477,0,0,1-.2-0.383,0.671,0.671,0,0,1,.375-0.486,0.912,0.912,0,0,0-.7-0.295,0.848,0.848,0,0,0-.923.973,2.27,2.27,0,0,1,1.3,2.02,2.054,2.054,0,0,1-.892,1.7,3.574,3.574,0,0,1-2.229.678,5.513,5.513,0,0,1-1.956-.383,1.346,1.346,0,0,0-.462-0.1,0.6,0.6,0,0,0-.428.184,0.589,0.589,0,0,0-.189.436q0,0.766,1.8.767h0.618a10.708,10.708,0,0,1,2.64.265,3.337,3.337,0,0,1,1.491.778,1.619,1.619,0,0,1,.549,1.191,1.892,1.892,0,0,1-1.155,1.7,6.586,6.586,0,0,1-3.12.625,6.693,6.693,0,0,1-3.086-.59,1.8,1.8,0,0,1-1.12-1.622,1.824,1.824,0,0,1,1.556-1.7,1.628,1.628,0,0,1-1.4-1.415,1.53,1.53,0,0,1,1.4-1.416,1.792,1.792,0,0,1-.445-1.209,2,2,0,0,1,.9-1.666,3.679,3.679,0,0,1,2.248-.663h0Z" transform="translate(7008.462 -1454.433)"/><path class="cls-2" d="M-6953.538,1462.422l-0.068,2.873a4.657,4.657,0,0,1,1.253-.774,3.772,3.772,0,0,1,1.337-.214,3.653,3.653,0,0,1,2.367.722,2.33,2.33,0,0,1,.892,1.9v2.462q0,0.87.017,0.958c0.045,0.492.194,0.737,0.443,0.737a1.425,1.425,0,0,0,.394-0.082,1.425,1.425,0,0,1,.274-0.021,0.51,0.51,0,0,1,.632.5c0,0.334-.273.5-0.821,0.5-0.148,0-.365-0.014-0.65-0.043-0.478-.05-0.865-0.074-1.162-0.074a5.883,5.883,0,0,0-.685.029q-0.718.088-.889,0.088a0.823,0.823,0,0,1-.512-0.154,0.47,0.47,0,0,1-.206-0.391,0.393,0.393,0,0,1,.18-0.325,0.686,0.686,0,0,1,.418-0.133,1.657,1.657,0,0,1,.445.074,1.065,1.065,0,0,0,.292.044q0.511,0,.53-0.958c0-.117.01-0.348,0.033-0.693v-1.43a4.015,4.015,0,0,0-.343-2.02,1.927,1.927,0,0,0-1.751-.767,2.343,2.343,0,0,0-1.973.8,2.908,2.908,0,0,0-.447,1.755v1.062a1.042,1.042,0,0,1-.068.294v0.281c0,0.56.006,0.884,0.018,0.974q0.088,0.721.509,0.722a1.705,1.705,0,0,0,.4-0.066,1.694,1.694,0,0,1,.378-0.066,0.461,0.461,0,0,1,.562.471q0,0.532-.757.531c-0.162,0-.4-0.014-0.724-0.043q-0.653-.06-1.119-0.059-0.293,0-.808.044c-0.459.039-.754,0.059-0.879,0.059a0.565,0.565,0,0,1-.707-0.546c0-.3.222-0.456,0.663-0.456a0.966,0.966,0,0,1,.331.041,2.335,2.335,0,0,0,.418.062,0.442,0.442,0,0,0,.375-0.449,11.6,11.6,0,0,0,.112-1.836v-2.64a22.237,22.237,0,0,0-.1-2.794,0.551,0.551,0,0,0-.48-0.582,2.126,2.126,0,0,0-.359.044,2.161,2.161,0,0,1-.376.044,0.472,0.472,0,0,1-.582-0.471,0.425,0.425,0,0,1,.207-0.353,0.821,0.821,0,0,1,.495-0.148q0.086,0,.582.044,0.324,0.03.7,0.029a3.45,3.45,0,0,0,.428-0.036,3.4,3.4,0,0,1,.393-0.037,0.4,0.4,0,0,1,.392.489v0.029h0Z" transform="translate(7008.462 -1454.433)"/><path class="cls-2" d="M-6941.294,1465.28a2.467,2.467,0,0,0-1.881.722,3.1,3.1,0,0,0-.752,2.05v0.191a3.234,3.234,0,0,0,.675,2.175,2.352,2.352,0,0,0,1.891.789,2.5,2.5,0,0,0,1.958-.789,3.154,3.154,0,0,0,.709-2.189q0-2.949-2.6-2.949h0Zm-0.086,6.9a3.9,3.9,0,0,1-2.872-1.069,3.86,3.86,0,0,1-1.077-2.868,3.845,3.845,0,0,1,1.085-2.868,3.976,3.976,0,0,1,2.916-1.069,4.04,4.04,0,0,1,2.942,1.047,3.784,3.784,0,0,1,1.077,2.846,3.864,3.864,0,0,1-1.111,2.89,4.037,4.037,0,0,1-2.959,1.091h0Z" transform="translate(7008.462 -1454.433)"/><path class="cls-2" d="M-6932.378,1464.307a3.353,3.353,0,0,1,1.909.516v-0.059a0.482,0.482,0,0,1,.546-0.545,0.463,0.463,0,0,1,.565.471c0,0.059-.01.207-0.029,0.442a3.124,3.124,0,0,0-.058.59,4.338,4.338,0,0,0,.044.516,4.644,4.644,0,0,1,.043.516,0.494,0.494,0,0,1-.557.56,0.465,0.465,0,0,1-.554-0.472v-0.486a0.952,0.952,0,0,0-.591-0.759,2.722,2.722,0,0,0-1.342-.318,2.361,2.361,0,0,0-1.317.347,1.012,1.012,0,0,0-.531.862q0,0.943,1.506,1.12l0.991,0.119q2.907,0.339,2.907,2.078a2.007,2.007,0,0,1-.937,1.718,4.2,4.2,0,0,1-2.455.656,4.327,4.327,0,0,1-2.455-.692v0.28a0.493,0.493,0,0,1-.581.53,0.548,0.548,0,0,1-.634-0.6,6.611,6.611,0,0,0,.1-0.766,2.6,2.6,0,0,0,.035-0.412,3.126,3.126,0,0,0-.068-0.664,2.438,2.438,0,0,1-.069-0.486,0.47,0.47,0,0,1,.549-0.516,0.515,0.515,0,0,1,.451.147,1.977,1.977,0,0,1,.111.782,1.216,1.216,0,0,0,.77,1.032,4.077,4.077,0,0,0,1.915.4,2.436,2.436,0,0,0,1.387-.369,1.09,1.09,0,0,0,.546-0.929q0-1-1.847-1.164a8.342,8.342,0,0,1-2.685-.6,1.55,1.55,0,0,1-.924-1.526,1.967,1.967,0,0,1,.9-1.674,3.982,3.982,0,0,1,2.353-.641h0Z" transform="translate(7008.462 -1454.433)"/><path class="cls-2" d="M-6922.808,1469.9v-0.944a0.549,0.549,0,0,1,.616-0.6,0.567,0.567,0,0,1,.6.678,3.88,3.88,0,0,1-.476,2.241,2.489,2.489,0,0,1-2.122.854,2.294,2.294,0,0,1-1.938-.751,3.1,3.1,0,0,1-.425-1.858v-3.539a0.283,0.283,0,0,0-.332-0.309h-0.56a0.693,0.693,0,0,1-.463-0.155,0.476,0.476,0,0,1-.184-0.376,0.49,0.49,0,0,1,.179-0.368,0.589,0.589,0,0,1,.4-0.162h0.666a0.252,0.252,0,0,0,.291-0.281V1462.8a0.547,0.547,0,0,1,.666-0.56,0.522,0.522,0,0,1,.617.56v1.578c0,0.147.1,0.221,0.308,0.221h1.863a0.523,0.523,0,0,1,.65.516,0.561,0.561,0,0,1-.7.545h-1.882a0.247,0.247,0,0,0-.239.309v3.627q0,1.548,1.2,1.548a1.142,1.142,0,0,0,1.265-1.253h0Z" transform="translate(7008.462 -1454.433)"/><path class="cls-2" d="M-6972.1,1477.94V1479a0.143,0.143,0,0,0,.145.14,2.141,2.141,0,0,0,.272.01,0.809,0.809,0,0,0,.563-0.163,0.668,0.668,0,0,0,.21-0.514,0.692,0.692,0,0,0-.128-0.424,0.574,0.574,0,0,0-.351-0.223,1.567,1.567,0,0,0-.343-0.033,1.23,1.23,0,0,0-.312.022,0.122,0.122,0,0,0-.056.128h0Zm-0.272.025a0.157,0.157,0,0,0-.165-0.188,0.517,0.517,0,0,0-.068,0,0.642,0.642,0,0,1-.087.008,0.081,0.081,0,0,1-.1-0.08c0-.059.048-0.087,0.146-0.087a0.323,0.323,0,0,1,.042,0l0.172,0.017a1.93,1.93,0,0,0,.207.01q0.091,0,.181-0.008l0.21-.017c0.041,0,.094,0,0.162,0a1.573,1.573,0,0,1,.492.065,0.791,0.791,0,0,1,.409.3,0.818,0.818,0,0,1,.15.489,0.837,0.837,0,0,1-.12.443,0.72,0.72,0,0,1-.327.29,1.462,1.462,0,0,1-.6.112c-0.048,0-.1,0-0.145,0l-0.223-.015c-0.076,0-.155-0.007-0.237-0.007s-0.129,0-.175.007l-0.155.017-0.023,0h-0.026c-0.093,0-.139-0.029-0.139-0.087a0.074,0.074,0,0,1,.029-0.059,0.111,0.111,0,0,1,.071-0.024,0.55,0.55,0,0,1,.087.008,0.338,0.338,0,0,0,.068,0,0.157,0.157,0,0,0,.165-0.188v-1.006h0Z" transform="translate(7008.462 -1454.433)"/><path class="cls-2" d="M-6970.013,1477.965a0.155,0.155,0,0,0-.165-0.185,0.332,0.332,0,0,0-.068,0,0.637,0.637,0,0,1-.087.008,0.112,0.112,0,0,1-.071-0.024,0.074,0.074,0,0,1-.029-0.059c0-.059.045-0.087,0.135-0.087l0.049,0c0.322,0.017.473,0.025,0.451,0.025h0.033l0.777-.017,0.168-.008c0.034,0,.065,0,0.093,0,0.112,0,.168.038,0.168,0.115,0,0.013,0,.056-0.009.128,0,0.053-.007.1-0.007,0.148a0.876,0.876,0,0,0,.006.123,0.866,0.866,0,0,1,.01.107,0.094,0.094,0,0,1-.115.095,0.11,0.11,0,0,1-.115-0.133v-0.13a0.228,0.228,0,0,0-.114-0.248,1.948,1.948,0,0,0-.434-0.028,2.569,2.569,0,0,0-.271.008,0.147,0.147,0,0,0-.139.15v0.251a0.1,0.1,0,0,0,.058.115,0.385,0.385,0,0,0,.076,0h0.131c0.134,0,.2-0.036.2-0.107a0.5,0.5,0,0,0-.008-0.078,0.511,0.511,0,0,1-.008-0.085,0.1,0.1,0,0,1,.115-0.1,0.1,0.1,0,0,1,.115.108c0,0.014-.006.065-0.02,0.156a1.275,1.275,0,0,0-.018.2c0,0.033,0,.092.013,0.177q0,0.021.016,0.088a0.544,0.544,0,0,1,.01.088,0.093,0.093,0,0,1-.116.09,0.1,0.1,0,0,1-.113-0.105,0.563,0.563,0,0,1,.008-0.08,0.592,0.592,0,0,0,.008-0.081c0-.071-0.061-0.107-0.184-0.107h-0.146a0.162,0.162,0,0,0-.115.026,0.18,0.18,0,0,0-.021.107v0.156c0,0.026,0,.062,0,0.107s0,0.091,0,.11a0.135,0.135,0,0,0,.052.125,0.475,0.475,0,0,0,.168.018h0.44a0.552,0.552,0,0,0,.262-0.044,0.178,0.178,0,0,0,.071-0.165c0-.024,0-0.062-0.005-0.112s0-.087,0-0.112a0.1,0.1,0,0,1,.115-0.112,0.1,0.1,0,0,1,.121.115c0,0.031,0,.076,0,0.137s-0.005.108-.005,0.138,0,0.059.005,0.1,0,0.08,0,.1a0.12,0.12,0,0,1-.149.118c-0.024,0-.061,0-0.114,0-0.026,0-.073,0-0.142,0l-0.252-.006c-0.184,0-.342,0-0.476,0q-0.3,0-.6.015l-0.029,0h-0.019c-0.091,0-.136-0.03-0.136-0.09a0.081,0.081,0,0,1,.1-0.08l0.087,0a0.3,0.3,0,0,0,.068.008,0.157,0.157,0,0,0,.165-0.188v-1.006h0Z" transform="translate(7008.462 -1454.433)"/><path class="cls-2" d="M-6967.165,1478.973a0.157,0.157,0,0,0,.165.188c0.017,0,.043,0,0.077-0.006a0.759,0.759,0,0,1,.078-0.007,0.115,0.115,0,0,1,.073.024,0.069,0.069,0,0,1,.031.057c0,0.059-.049.087-0.145,0.087h-0.02l-0.023,0-0.159-.017a1.98,1.98,0,0,0-.2-0.01c-0.082,0-.155,0-0.217.01l-0.162.017-0.023,0h-0.023c-0.1,0-.142-0.029-0.142-0.087a0.083,0.083,0,0,1,.1-0.081,0.751,0.751,0,0,1,.078.007c0.034,0,.06.006,0.078,0.006a0.156,0.156,0,0,0,.162-0.188v-1.018c0-.119-0.079-0.178-0.236-0.178h-0.1c-0.155,0-.233.059-0.233,0.176a0.642,0.642,0,0,0,0,.085l0.013,0.092a0.416,0.416,0,0,1,0,.063,0.128,0.128,0,0,1-.126.158,0.1,0.1,0,0,1-.119-0.116c0-.022,0-0.059.006-0.112,0.006-.08.01-0.131,0.01-0.153,0-.042,0-0.085-0.006-0.13a0.924,0.924,0,0,0-.01-0.113,0.1,0.1,0,0,1,.123-0.1c0.03,0,.1,0,0.21.007l0.265,0.01h0.368l0.346,0q0.062,0,.21-0.006c0.088,0,.157-0.006.207-0.006q0.161,0,.161.1v0c0,0.017,0,.047-0.008.093s-0.011.094-.018,0.145V1478a1.171,1.171,0,0,0,.009.118c0.009,0.07.013,0.114,0.013,0.13a0.1,0.1,0,0,1-.127.1,0.11,0.11,0,0,1-.123-0.126c0-.03,0-0.075.01-0.135s0.01-.1.01-0.135c0-.115-0.085-0.174-0.256-0.174h-0.091a0.291,0.291,0,0,0-.171.039,0.166,0.166,0,0,0-.058.129l-0.013.175v0.852h0Z" transform="translate(7008.462 -1454.433)"/><path class="cls-2" d="M-6965.418,1478.36h0.3a1.06,1.06,0,0,0,.408-0.061,0.249,0.249,0,0,0,.165-0.243q0-.286-0.506-0.286a1.382,1.382,0,0,0-.366.031,0.127,0.127,0,0,0-.1.124v0.369a0.057,0.057,0,0,0,.02.054,0.156,0.156,0,0,0,.074.012h0Zm0.9,0.019a1.239,1.239,0,0,1-.239.061,0.425,0.425,0,0,1,.262.11,0.412,0.412,0,0,1,.072.273v0.145a0.146,0.146,0,0,0,.147.179q0.151,0,.151-0.214v-0.172a0.271,0.271,0,0,1,.013-0.1,0.109,0.109,0,0,1,.1-0.042,0.1,0.1,0,0,1,.117.1l0,0.056v0.183a0.183,0.183,0,0,0,0,.045,0.273,0.273,0,0,1-.105.227,0.472,0.472,0,0,1-.293.081,0.305,0.305,0,0,1-.381-0.3V1478.8a0.249,0.249,0,0,0-.082-0.222,0.712,0.712,0,0,0-.341-0.054h-0.3a0.089,0.089,0,0,0-.1.1v0.193a1.8,1.8,0,0,0,.006.211,0.15,0.15,0,0,0,.162.126,0.512,0.512,0,0,0,.068,0l0.084,0a0.083,0.083,0,0,1,.1.083c0,0.059-.046.087-0.139,0.087l-0.049,0-0.174-.017c-0.067-.006-0.127-0.01-0.178-0.01s-0.14,0-.227.013l-0.155.015-0.049,0q-0.139,0-.139-0.09a0.081,0.081,0,0,1,.1-0.08l0.088,0a0.294,0.294,0,0,0,.068.008,0.157,0.157,0,0,0,.165-0.188v-1.006a0.157,0.157,0,0,0-.165-0.188,0.708,0.708,0,0,0-.077.006,0.709,0.709,0,0,1-.078.006,0.112,0.112,0,0,1-.071-0.024,0.072,0.072,0,0,1-.029-0.057c0-.059.048-0.087,0.143-0.087a0.437,0.437,0,0,1,.045,0l0.165,0.013c0.043,0,.1,0,0.162,0s0.142,0,.223,0l0.247-.01c0.081,0,.157,0,0.226,0q0.712,0,.712.419a0.334,0.334,0,0,1-.247.336h0Z" transform="translate(7008.462 -1454.433)"/><path class="cls-2" d="M-6962.79,1477.758a0.624,0.624,0,0,0-.482.185,0.737,0.737,0,0,0-.171.521,0.749,0.749,0,0,0,.171.528,0.619,0.619,0,0,0,.478.187,0.615,0.615,0,0,0,.478-0.194,0.758,0.758,0,0,0,.176-0.528,0.733,0.733,0,0,0-.168-0.518,0.624,0.624,0,0,0-.482-0.181h0Zm-0.006,1.6a0.945,0.945,0,0,1-.681-0.241,0.863,0.863,0,0,1-.251-0.653,0.851,0.851,0,0,1,.253-0.653,0.977,0.977,0,0,1,.7-0.237,0.961,0.961,0,0,1,.675.23,0.809,0.809,0,0,1,.25.625,0.909,0.909,0,0,1-.254.676,0.934,0.934,0,0,1-.687.251h0Z" transform="translate(7008.462 -1454.433)"/><path class="cls-2" d="M-6961.25,1477.965a0.155,0.155,0,0,0-.165-0.185,0.329,0.329,0,0,0-.068,0,0.642,0.642,0,0,1-.088.008,0.115,0.115,0,0,1-.071-0.024,0.075,0.075,0,0,1-.029-0.059c0-.059.048-0.087,0.142-0.087a0.358,0.358,0,0,1,.045,0l0.171,0.017a1.888,1.888,0,0,0,.2.01c0.067,0,.14,0,0.22-0.013l0.146-.015a0.363,0.363,0,0,1,.045,0c0.095,0,.142.029,0.142,0.087a0.073,0.073,0,0,1-.029.059,0.112,0.112,0,0,1-.07.024,0.713,0.713,0,0,1-.088-0.008,0.329,0.329,0,0,0-.068,0,0.156,0.156,0,0,0-.165.185v1.006a0.157,0.157,0,0,0,.165.188,0.57,0.57,0,0,0,.068,0,0.712,0.712,0,0,1,.088-0.008,0.081,0.081,0,0,1,.1.08q0,0.09-.142.09h-0.023l-0.023,0-0.168-.02a1.581,1.581,0,0,0-.178-0.01,2.269,2.269,0,0,0-.243.013l-0.149.017-0.022,0h-0.026c-0.092,0-.139-0.03-0.139-0.09a0.081,0.081,0,0,1,.1-0.08l0.088,0a0.3,0.3,0,0,0,.068.008,0.157,0.157,0,0,0,.165-0.188v-1.006h0Z" transform="translate(7008.462 -1454.433)"/><path class="cls-2" d="M-6959.341,1478.973a0.157,0.157,0,0,0,.165.188c0.017,0,.043,0,0.078-0.006a0.754,0.754,0,0,1,.078-0.007,0.118,0.118,0,0,1,.073.024,0.07,0.07,0,0,1,.031.057c0,0.059-.049.087-0.146,0.087h-0.019l-0.023,0-0.159-.017a1.994,1.994,0,0,0-.2-0.01c-0.082,0-.154,0-0.217.01l-0.162.017-0.022,0h-0.023c-0.095,0-.142-0.029-0.142-0.087a0.083,0.083,0,0,1,.1-0.081,0.764,0.764,0,0,1,.078.007c0.034,0,.06.006,0.078,0.006a0.156,0.156,0,0,0,.162-0.188v-1.018q0-.178-0.237-0.178h-0.1c-0.155,0-.233.059-0.233,0.176a0.556,0.556,0,0,0,0,.085l0.013,0.092a0.469,0.469,0,0,1,0,.063,0.128,0.128,0,0,1-.127.158,0.1,0.1,0,0,1-.119-0.116c0-.022,0-0.059.007-0.112,0.006-.08.009-0.131,0.009-0.153,0-.042,0-0.085-0.005-0.13a0.95,0.95,0,0,0-.011-0.113,0.1,0.1,0,0,1,.123-0.1c0.031,0,.1,0,0.21.007l0.264,0.01h0.369l0.345,0q0.062,0,.21-0.006c0.089,0,.158-0.006.207-0.006q0.161,0,.161.1v0c0,0.017,0,.047-0.008.093l-0.018.145V1478c0,0.025,0,.065.01,0.118,0.009,0.07.013,0.114,0.013,0.13a0.1,0.1,0,0,1-.126.1,0.11,0.11,0,0,1-.122-0.126c0-.03,0-0.075.009-0.135a1.252,1.252,0,0,0,.01-0.135c0-.115-0.085-0.174-0.256-0.174h-0.091a0.288,0.288,0,0,0-.171.039,0.165,0.165,0,0,0-.059.129l-0.014.175v0.852h0Z" transform="translate(7008.462 -1454.433)"/><g class="cls-3"><path class="cls-4" d="M-7008.462,1476.1h86.869m-86.869,4.613h86.869m-86.869-3.008h34.909m-34.909,1.375h34.909m15.753-1.375h36.207m-36.207,1.375h36.207m-86.869-20.524h37.945" transform="translate(7008.462 -1454.433)"/></g><path class="cls-2" d="M-6968.4,1457.548c0.077,0.072.322,0.29,0.4,0.355a0.016,0.016,0,0,0,.026-0.009l0.069-.4-0.261-.231a0.431,0.431,0,0,1-.127-0.3c0.012-.17.1-0.31-0.079-0.346s-0.237-.043-0.3.1a0.437,0.437,0,0,1-.388.389s-0.194-.012-0.146.219,0.079,0.285.225,0.261,0.358-.073.358-0.073a0.259,0.259,0,0,1,.231.043h0Z" transform="translate(7008.462 -1454.433)"/><path class="cls-2" d="M-6967.8,1460.074a0.019,0.019,0,0,0-.026-0.008c-0.031.018-.1,0.058-0.183,0.111a0.54,0.54,0,0,1-.314.028,0.32,0.32,0,0,1-.091-0.028,0.222,0.222,0,0,0-.348.122,0.15,0.15,0,0,0,.079.195,0.3,0.3,0,0,1,.243.267s-0.013.171,0.255,0.17c0.147,0,.164-0.091.176-0.213a0.284,0.284,0,0,1,.1-0.188l0.235-.172a0.019,0.019,0,0,0,.006-0.024l-0.135-.259h0Z" transform="translate(7008.462 -1454.433)"/><path class="cls-2" d="M-6960.926,1457.919a1.186,1.186,0,0,1-.213-0.334,0.334,0.334,0,0,1-.039-0.14,0.069,0.069,0,0,1,.132-0.024l0.016,0.037a0.335,0.335,0,0,0,.067-0.182c0.012-.121-0.1-0.2-0.292-0.194s-0.219.049-.34,0.3a1.223,1.223,0,0,1-.4.431l-0.43.236a0.022,0.022,0,0,0-.01.011l-0.172.47a0.021,0.021,0,0,0,.03.025c0.08-.046.25-0.14,0.466-0.244a0.605,0.605,0,0,1,.638,0,0.446,0.446,0,0,0,.547-0.152c0.115-.17,0-0.243,0-0.243h0Z" transform="translate(7008.462 -1454.433)"/><path class="cls-2" d="M-6962.476,1460.129a0.355,0.355,0,0,1-.352,0l-0.334-.179a0.012,0.012,0,0,0-.018.011v0.282a0.012,0.012,0,0,0,.006.011l0.352,0.2a0.285,0.285,0,0,1,.182.206c0.03,0.158.067,0.17,0.152,0.164s0.158,0.012.176-.134a0.416,0.416,0,0,1,.152-0.306,0.2,0.2,0,0,0,.049-0.277,0.245,0.245,0,0,0-.364.024h0Z" transform="translate(7008.462 -1454.433)"/><g class="cls-3"><path class="cls-2" d="M-6965.619,1458.476s-0.077.211-.469,0.055c-0.366-.146-0.3-0.31-0.3-0.31s0-.266.478-0.1c0.372,0.124.291,0.36,0.291,0.36h0Zm-0.833-1.111c-0.141,0-.3-0.141-0.2-0.638a0.451,0.451,0,0,1,.455-0.451s0.319,0.036.146,0.583-0.264.505-.405,0.505h0Zm3.024,2.509a0.423,0.423,0,0,0-.161.163,0.041,0.041,0,0,1-.074-0.03,7.457,7.457,0,0,1,.757-1.36,6,6,0,0,0,.416-1.065l-0.993-.325a1.14,1.14,0,0,1-1.318.666c-0.832-.324-0.546-1.647-0.546-1.647l-1.354-1.094a2.855,2.855,0,0,0-.638,1.025,6.33,6.33,0,0,0-.23,3.777,3.984,3.984,0,0,0,2.537,2.252,0.041,0.041,0,0,0,.052-0.045l-0.067-.462a0.041,0.041,0,0,1,.049-0.046l1.507,0.315a0.041,0.041,0,0,0,.048-0.049l-0.175-.733a0.041,0.041,0,0,1,.05-0.049l0.227,0.061a0.041,0.041,0,0,0,.05-0.051,6.856,6.856,0,0,1-.137-1.3h0Z" transform="translate(7008.462 -1454.433)"/><path class="cls-2" d="M-6962.44,1457.385a2.841,2.841,0,0,0,.008-1.421,2.666,2.666,0,0,0-1.6-1.348h0a2.586,2.586,0,0,0-2.015.061,2.758,2.758,0,0,0-.5.361,19.042,19.042,0,0,0,2.166,1.481,15.484,15.484,0,0,0,1.948.866h0Z" transform="translate(7008.462 -1454.433)"/><line class="cls-4" x1="48.924" y1="4.277" x2="86.869" y2="4.277"/></g></svg>