<svg id="Layer_1" data-name="Layer 1" xmlns="http://www.w3.org/2000/svg" viewBox="0 0 81.009 23.05"><defs><style>.cls-1{fill:#484748;}</style></defs><title>WheatleyLogoLanding</title><path class="cls-1" d="M5813.41,2307.962c0.042-.426.085-0.853,0.126-1.279q0.17-1.763.338-3.526c0.044-.462.091-0.924,0.129-1.387a0.108,0.108,0,0,1,.131-0.123q0.487,0.007.974,0c0.1,0,.12.029,0.107,0.128q-0.467,3.485-.927,6.971-0.209,1.581-.411,3.162a0.126,0.126,0,0,1-.153.14c-0.285-.008-0.571-0.005-0.857,0a0.1,0.1,0,0,1-.126-0.109c-0.131-1.032-.267-2.064-0.4-3.1q-0.191-1.482-.38-2.963a0.114,0.114,0,0,0-.055-0.11c-0.091.69-.18,1.374-0.27,2.059-0.178,1.353-.358,2.707-0.531,4.061a0.148,0.148,0,0,1-.185.16c-0.263-.011-0.526-0.009-0.789,0a0.135,0.135,0,0,1-.17-0.14c-0.1-.833-0.208-1.666-0.314-2.5q-0.21-1.648-.421-3.3-0.228-1.781-.456-3.563c-0.032-.25-0.061-0.5-0.1-0.748-0.016-.108,0-0.159.129-0.156,0.358,0.009.717,0.007,1.075,0a0.123,0.123,0,0,1,.149.14c0.085,0.936.177,1.872,0.266,2.808q0.154,1.6.308,3.207a0.626,0.626,0,0,0,.042.18l0.351-2.582q0.245-1.8.488-3.609a0.133,0.133,0,0,1,.164-0.145c0.246,0.01.493,0.007,0.739,0a0.128,0.128,0,0,1,.161.131q0.279,2.113.569,4.225,0.133,0.979.266,1.959h0.029Z" transform="translate(-5805.609 -2301.473)"/><path class="cls-1" d="M5867.939,2306.843c0-1.674,0-3.347,0-5.021,0-.137.028-0.179,0.172-0.176,0.683,0.011,1.366-.009,2.048.018a2,2,0,0,1,1.824,1.766c0.012,0.133.017,0.268,0.017,0.4q0,3.09,0,6.18a2.021,2.021,0,0,1-1.521,1.975,1.722,1.722,0,0,1-.447.059c-0.644,0-1.288-.005-1.931,0-0.138,0-.161-0.042-0.161-0.168Q5867.942,2309.362,5867.939,2306.843Zm1.179-.01c0,1.3,0,2.607,0,3.911,0,0.141.023,0.2,0.181,0.189,0.183-.015.369,0,0.554,0a0.862,0.862,0,0,0,.966-0.975q0-.948,0-1.9,0-2.19,0-4.381a0.849,0.849,0,0,0-.9-0.909c-0.2,0-.4.009-0.6,0-0.15-.009-0.2.031-0.2,0.19C5869.121,2304.248,5869.118,2305.54,5869.118,2306.833Z" transform="translate(-5805.609 -2301.473)"/><path class="cls-1" d="M5820.936,2306.856c0,1.674,0,3.348,0,5.022,0,0.144-.04.176-0.176,0.171-0.285-.011-0.571-0.011-0.856,0-0.131,0-.155-0.039-0.154-0.161,0-1.461,0-2.922.007-4.384,0-.162-0.037-0.206-0.2-0.2-0.442.013-.885,0.01-1.327,0-0.137,0-.178.03-0.177,0.173,0.006,1.461,0,2.922.007,4.384,0,0.157-.044.195-0.194,0.188-0.285-.012-0.571-0.009-0.856,0-0.115,0-.138-0.037-0.138-0.143,0-.711,0-1.422,0-2.133q0-3.955,0-7.911c0-.241-0.024-0.21.218-0.211,0.263,0,.527.012,0.789,0,0.162-.01.177,0.055,0.177,0.19,0,1.383,0,2.766-.007,4.148,0,0.161.037,0.208,0.2,0.2,0.442-.012.885-0.01,1.327,0,0.14,0,.177-0.036.177-0.177-0.005-1.388,0-2.777-.007-4.165,0-.166.045-0.208,0.2-0.2,0.262,0.014.526,0.012,0.789,0,0.146-.006.2,0.027,0.2,0.187C5820.934,2303.508,5820.936,2305.182,5820.936,2306.856Z" transform="translate(-5805.609 -2301.473)"/><path class="cls-1" d="M5862.051,2306.854q0-1.679,0-3.359a2.028,2.028,0,1,1,4.056.016q0,3.35,0,6.7a2.03,2.03,0,0,1-4.02.4,1.906,1.906,0,0,1-.035-0.384Q5862.052,2308.541,5862.051,2306.854Zm1.182,0q0,1.7,0,3.391a0.825,0.825,0,0,0,.844.869,0.836,0.836,0,0,0,.845-0.873q0-3.382,0-6.765a0.842,0.842,0,0,0-.857-0.88,0.833,0.833,0,0,0-.832.884Q5863.233,2305.168,5863.233,2306.855Z" transform="translate(-5805.609 -2301.473)"/><path class="cls-1" d="M5875.026,2305.094c0.046-.08.092-0.159,0.136-0.24q0.849-1.535,1.694-3.072a0.227,0.227,0,0,1,.235-0.136c0.4,0.007.805,0,1.205,0a0.109,0.109,0,0,1-.034.125q-1.155,1.969-2.313,3.936a0.306,0.306,0,0,0-.026.307q1.184,2.941,2.355,5.888c0.016,0.04.027,0.083,0.046,0.139-0.421,0-.828,0-1.236,0-0.1,0-.1-0.077-0.12-0.135q-0.5-1.29-1-2.581l-0.877-2.269a0.455,0.455,0,0,0-.1-0.163v0.172c0,1.6,0,3.2,0,4.8,0,0.136-.026.183-0.171,0.176-0.285-.013-0.571-0.011-0.856,0-0.134.005-.165-0.036-0.165-0.166q0.006-3.729,0-7.457c0-.873,0-1.747,0-2.62,0-.126.032-0.163,0.158-0.158,0.285,0.01.572,0.015,0.856,0,0.16-.009.178,0.052,0.177,0.189-0.005,1.036,0,2.071,0,3.107v0.144Z" transform="translate(-5805.609 -2301.473)"/><path class="cls-1" d="M5831.44,2312.045c-0.162,0-.325-0.006-0.487,0a0.117,0.117,0,0,1-.148-0.124c-0.044-.361-0.1-0.72-0.147-1.081a0.135,0.135,0,0,0-.164-0.148c-0.375.008-.75,0.007-1.125,0a0.133,0.133,0,0,0-.167.141c-0.04.356-.1,0.709-0.142,1.064a0.135,0.135,0,0,1-.165.148c-0.324-.009-0.649-0.006-0.974,0-0.1,0-.146-0.012-0.126-0.136q0.433-2.75.856-5.5,0.348-2.254.691-4.51c0.038-.249.035-0.25,0.293-0.25,0.241,0,.482.006,0.722,0a0.145,0.145,0,0,1,.183.149q0.337,2.29.685,4.578,0.41,2.711.825,5.422a0.509,0.509,0,0,0,.014.083c0.049,0.149-.017.178-0.153,0.169C5831.754,2312.036,5831.6,2312.045,5831.44,2312.045Zm-1.488-6.75-0.032.006q-0.284,2.12-.571,4.239c-0.013.1,0.021,0.114,0.1,0.113,0.3,0,.594-0.012.89,0,0.171,0.009.175-.06,0.157-0.194-0.157-1.181-.309-2.362-0.463-3.543C5830.011,2305.71,5829.981,2305.5,5829.952,2305.295Z" transform="translate(-5805.609 -2301.473)"/><path class="cls-1" d="M5883.456,2312.045c-0.151,0-.3-0.008-0.453,0a0.147,0.147,0,0,1-.188-0.16c-0.04-.355-0.1-0.708-0.144-1.063a0.123,0.123,0,0,0-.158-0.129c-0.375,0-.75.01-1.125,0a0.142,0.142,0,0,0-.172.157c-0.044.338-.1,0.675-0.139,1.013a0.165,0.165,0,0,1-.2.186c-0.318-.017-0.638-0.01-0.957,0-0.115,0-.125-0.037-0.11-0.136q0.488-3.14.971-6.282,0.3-1.922.593-3.845a0.13,0.13,0,0,1,.158-0.138q0.428,0.012.856,0a0.132,0.132,0,0,1,.162.134q0.2,1.377.412,2.754,0.323,2.13.649,4.26,0.239,1.567.478,3.133c0.013,0.084,0,.122-0.1.118C5883.814,2312.04,5883.635,2312.045,5883.456,2312.045Zm-1.49-6.761h-0.03q-0.03.227-.06,0.454c-0.167,1.253-.332,2.506-0.5,3.758-0.018.134,0.017,0.162,0.144,0.157,0.28-.009.56-0.013,0.839,0,0.163,0.009.179-.046,0.16-0.19-0.147-1.092-.286-2.184-0.428-3.277C5882.048,2305.887,5882.006,2305.586,5881.965,2305.284Z" transform="translate(-5805.609 -2301.473)"/><path class="cls-1" d="M5858.566,2308.384q0.084-.774.168-1.549,0.273-2.528.543-5.057a0.118,0.118,0,0,1,.143-0.13c0.319,0.005.638,0.006,0.957,0,0.109,0,.129.031,0.114,0.136q-0.338,2.3-.67,4.6-0.276,1.91-.551,3.82-0.124.864-.247,1.728a0.105,0.105,0,0,1-.122.117c-0.3-.006-0.594-0.007-0.89,0-0.107,0-.111-0.054-0.122-0.132q-0.2-1.4-.395-2.809-0.263-1.861-.525-3.722-0.254-1.8-.509-3.606c-0.016-.11.018-0.134,0.121-0.132,0.353,0.005.706,0.009,1.058,0a0.15,0.15,0,0,1,.186.163q0.171,1.644.351,3.288t0.358,3.285Z" transform="translate(-5805.609 -2301.473)"/><path class="cls-1" d="M5822.765,2306.839q0-2.5,0-5.006c0-.14.024-0.19,0.18-0.189q1.537,0.012,3.074,0c0.143,0,.178.041,0.173,0.178-0.011.268-.008,0.538,0,0.806,0,0.112-.034.141-0.142,0.141-0.644,0-1.288,0-1.932-.006-0.134,0-.167.037-0.166,0.168q0.008,1.512,0,3.024c0,0.137.041,0.166,0.17,0.164,0.437-.008.874,0,1.31-0.006,0.132,0,.157.039,0.153,0.16-0.009.274-.008,0.549,0,0.823,0,0.112-.033.141-0.141,0.139-0.442-.006-0.885,0-1.327,0-0.117,0-.165.016-0.164,0.151q0.009,1.7,0,3.393c0,0.129.037,0.158,0.161,0.156,0.644-.006,1.288,0,1.932-0.006,0.134,0,.187.025,0.181,0.172-0.012.268-.008,0.537,0,0.806,0,0.1-.021.144-0.136,0.143q-1.587-.007-3.175,0c-0.144,0-.145-0.063-0.145-0.17Q5822.767,2309.359,5822.765,2306.839Z" transform="translate(-5805.609 -2301.473)"/><path class="cls-1" d="M5842.933,2306.84c0-1.674,0-3.348,0-5.022,0-.143.04-0.173,0.176-0.172q1.537,0.009,3.073,0c0.13,0,.174.03,0.168,0.165-0.011.263-.012,0.527,0,0.789,0.007,0.149-.05.172-0.182,0.17-0.627-.007-1.254,0-1.881-0.006-0.14,0-.177.037-0.176,0.176q0.009,1.5,0,3.006c0,0.142.041,0.176,0.178,0.174,0.436-.009.873,0,1.31-0.006a0.113,0.113,0,0,1,.139.142c-0.007.28-.008,0.56,0,0.84,0,0.115-.039.14-0.145,0.139-0.437-.005-0.873,0-1.31,0-0.123,0-.174.019-0.173,0.161q0.01,1.688,0,3.376c0,0.139.045,0.165,0.171,0.164,0.649-.006,1.3,0,1.948-0.005a0.12,0.12,0,0,1,.149.151c-0.008.285-.006,0.571,0,0.856a0.092,0.092,0,0,1-.114.113q-1.612,0-3.225,0c-0.151,0-.1-0.1-0.1-0.169Q5842.932,2309.359,5842.933,2306.84Z" transform="translate(-5805.609 -2301.473)"/><path class="cls-1" d="M5848.019,2301.65c0.444,0,.874,0,1.3,0,0.1,0,.1.074,0.111,0.136l0.833,3.319c0.014,0.054.028,0.108,0.054,0.206,0.077-.294.145-0.548,0.209-0.8,0.228-.9.457-1.8,0.68-2.7a0.167,0.167,0,0,1,.2-0.161c0.324,0.011.649,0.01,0.974,0,0.14,0,.167.026,0.125,0.164-0.471,1.54-.929,3.084-1.408,4.621a4.543,4.543,0,0,0-.213,1.432c0.016,1.332,0,2.665.009,4,0,0.139-.02.2-0.179,0.189-0.285-.015-0.571-0.012-0.856,0-0.128,0-.157-0.034-0.157-0.159,0-1.5,0-3,0-4.5a1.324,1.324,0,0,0-.059-0.4q-0.79-2.582-1.576-5.165C5848.055,2301.775,5848.04,2301.722,5848.019,2301.65Z" transform="translate(-5805.609 -2301.473)"/><path class="cls-1" d="M5835.113,2307.415c0,1.489,0,2.978,0,4.467,0,0.13-.03.172-0.164,0.167-0.3-.011-0.6-0.006-0.907,0-0.087,0-.125-0.022-0.114-0.113a0.925,0.925,0,0,0,0-.117q0-4.425,0-8.85c0-.162-0.039-0.21-0.2-0.2-0.285.014-.571,0-0.856,0.006-0.1,0-.139-0.024-0.137-0.13,0.006-.285.006-0.571,0-0.856a0.108,0.108,0,0,1,.13-0.136q1.663,0.005,3.325,0c0.085,0,.119.022,0.118,0.113,0,0.3-.005.593,0,0.89,0,0.1-.039.121-0.129,0.119-0.3,0-.6,0-0.907,0-0.13,0-.169.03-0.168,0.165C5835.115,2304.425,5835.113,2305.92,5835.113,2307.415Z" transform="translate(-5805.609 -2301.473)"/><path class="cls-1" d="M5837.913,2306.847q0-2.511,0-5.023c0-.137.031-0.184,0.173-0.179,0.28,0.011.56,0.011,0.84,0,0.144-.006.188,0.028,0.187,0.182-0.007,1.383,0,2.766,0,4.149,0,1.59,0,3.18,0,4.771,0,0.146.032,0.188,0.183,0.186,0.554-.01,1.109,0,1.663-0.006,0.115,0,.157.027,0.153,0.149-0.009.285-.006,0.571,0,0.857a0.093,0.093,0,0,1-.114.115c-0.985,0-1.971,0-2.956,0-0.141,0-.118-0.079-0.118-0.161v-5.039Z" transform="translate(-5805.609 -2301.473)"/><path class="cls-1" d="M5815.585,2320.007c0.171,0.328.334,0.644,0.5,0.96,0.067,0.129.145,0.253,0.2,0.385a0.538,0.538,0,0,0,.535.33c0.039,0,.079,0,0.117,0a0.093,0.093,0,0,1,.1.086,0.086,0.086,0,0,1-.105.081c-0.1,0-.2,0-0.3,0-0.42,0-.84,0-1.259,0a0.22,0.22,0,0,1-.23-0.143c-0.259-.5-0.526-1-0.79-1.5a0.486,0.486,0,0,0-.493-0.136,0.1,0.1,0,0,0-.035.1c0,0.381-.006.761,0,1.142a0.319,0.319,0,0,0,.369.356c0.078,0,.157,0,0.235,0a0.091,0.091,0,0,1,.112.094c0,0.068-.055.075-0.108,0.076h-2.687c-0.053,0-.107-0.006-0.112-0.073a0.089,0.089,0,0,1,.107-0.1c0.14,0,.28,0,0.42,0a0.313,0.313,0,0,0,.365-0.358q0.006-1.352,0-2.7a0.313,0.313,0,0,0-.35-0.358c-0.123-.007-0.246,0-0.369,0-0.068,0-.168.027-0.171-0.08s0.1-.083.165-0.083c0.509,0,1.019,0,1.528,0h1.965a2.022,2.022,0,0,1,.834.162,0.827,0.827,0,0,1,.549.7,0.855,0.855,0,0,1-.418.823A1.443,1.443,0,0,1,5815.585,2320.007Zm-1.755-.935c0,0.241,0,.481,0,0.722,0,0.07.009,0.119,0.1,0.116,0.218-.007.437,0,0.654-0.014a0.644,0.644,0,0,0,.583-0.5,1.44,1.44,0,0,0-.043-0.777,0.443,0.443,0,0,0-.451-0.353c-0.246-.006-0.492,0-0.738-0.009a0.087,0.087,0,0,0-.1.109C5813.832,2318.6,5813.83,2318.837,5813.83,2319.072Zm2.229,0.474h-0.59c-0.188,0-.188,0-0.265.217A1,1,0,0,0,5816.059,2319.546Zm-3.018,1.618c-0.084,0-.168,0-0.251,0a0.08,0.08,0,0,0-.1.095c0,0.064.012,0.107,0.091,0.1q0.26-.006.52,0c0.079,0,.09-0.038.092-0.1a0.08,0.08,0,0,0-.1-0.1C5813.208,2321.167,5813.124,2321.164,5813.041,2321.164Zm0.013-1.618c-0.089,0-.179,0-0.268,0a0.081,0.081,0,0,0-.1.1,0.088,0.088,0,0,0,.1.11c0.162,0,.324,0,0.486,0,0.072,0,.113-0.011.115-0.1a0.093,0.093,0,0,0-.12-0.11C5813.2,2319.55,5813.127,2319.546,5813.054,2319.546Zm-0.015.852c0.084,0,.168,0,0.252,0s0.1-.04.1-0.112a0.081,0.081,0,0,0-.1-0.1c-0.162,0-.325,0-0.487,0a0.094,0.094,0,0,0-.119.112c0,0.089.046,0.1,0.117,0.1S5812.961,2320.4,5813.039,2320.4Zm2.738-1.293c0.1,0,.2,0,0.3,0,0.046,0,.125.034,0.117-0.067a0.114,0.114,0,0,0-.127-0.135c-0.2.007-.4,0-0.6,0-0.068,0-.12,0-0.114.1,0,0.077.026,0.111,0.108,0.107C5815.564,2319.1,5815.671,2319.105,5815.777,2319.105Zm0,0.123c-0.111,0-.223,0-0.334,0-0.095,0-.085.061-0.094,0.121-0.011.076,0.03,0.082,0.087,0.082q0.317,0,.635,0a0.125,0.125,0,0,0,.118-0.151c0.007-.083-0.071-0.047-0.111-0.049C5815.978,2319.224,5815.878,2319.228,5815.778,2319.228Zm-0.891.963c-0.073,0-.145,0-0.218,0-0.042,0-.1-0.022-0.118.029a0.253,0.253,0,0,0,.047.121,0.114,0.114,0,0,0,.128.056c0.14,0,.28,0,0.419,0,0.049,0,.144.046,0.137-0.051a0.142,0.142,0,0,0-.144-0.154C5815.054,2320.194,5814.97,2320.192,5814.886,2320.191Zm-2.276,1.492c0.256,0,.5,0,0.747,0,0.105,0,.106-0.035.077-0.116a0.109,0.109,0,0,0-.123-0.084,4.011,4.011,0,0,1-.435,0A0.214,0.214,0,0,0,5812.61,2321.683Zm3.108-2.894c0.083,0,.167,0,0.25,0,0.044,0,.115.034,0.127-0.033a0.253,0.253,0,0,0-.064-0.13,0.135,0.135,0,0,0-.136-0.041c-0.161,0-.323,0-0.484,0-0.048,0-.137-0.042-0.123.073,0.01,0.076.027,0.14,0.13,0.132S5815.618,2318.789,5815.718,2318.789Zm-2.681.316c0.083,0,.167,0,0.25,0,0.064,0,.106-0.009.1-0.089s-0.009-.117-0.1-0.114c-0.167,0-.334,0-0.5,0a0.089,0.089,0,0,0-.1.109,0.079,0.079,0,0,0,.1.094C5812.87,2319.1,5812.954,2319.105,5813.037,2319.105Zm-0.433-.846a0.225,0.225,0,0,0,.27.207,3.156,3.156,0,0,1,.4,0c0.073,0,.114-0.014.114-0.1a0.087,0.087,0,0,0-.106-0.106C5813.062,2318.263,5812.839,2318.26,5812.6,2318.26Zm0.45,2.259c-0.089,0-.179,0-0.268,0a0.081,0.081,0,0,0-.1.1,0.08,0.08,0,0,0,.095.1c0.168,0,.335,0,0.5,0a0.086,0.086,0,0,0,.106-0.106,0.081,0.081,0,0,0-.1-0.092C5813.211,2320.521,5813.132,2320.518,5813.054,2320.518Zm-0.031-1.73c0.089,0,.178,0,0.267,0s0.1-.041.1-0.113a0.081,0.081,0,0,0-.1-0.094c-0.167,0-.334,0-0.5,0-0.086,0-.1.042-0.1,0.114a0.081,0.081,0,0,0,.1.094C5812.867,2318.786,5812.945,2318.789,5813.023,2318.789Zm0.014,2.25c0.089,0,.178,0,0.267,0s0.084-.049.086-0.11a0.074,0.074,0,0,0-.09-0.087c-0.172,0-.345,0-0.517,0a0.1,0.1,0,0,0,0,.2C5812.87,2321.036,5812.954,2321.039,5813.037,2321.039Zm2.421-.324a0.189,0.189,0,0,0-.224-0.2c-0.122.012-.246,0-0.369,0-0.048,0-.137-0.04-0.136.038a0.14,0.14,0,0,0,.139.156C5815.062,2320.713,5815.257,2320.714,5815.458,2320.714Zm-0.578.129c0.039,0.089.033,0.191,0.145,0.194,0.2,0.006.394,0,.591,0-0.043-.081-0.021-0.195-0.139-0.2h-0.6Zm0.188-2.6a0.4,0.4,0,0,0,.2.216c0.191,0.012.383,0,.6,0A0.855,0.855,0,0,0,5815.068,2318.244Zm-2.015.984c-0.09,0-.179,0-0.269,0s-0.1.032-.095,0.1,0.017,0.1.094,0.1c0.168,0,.336,0,0.5,0,0.085,0,.1-0.038.1-0.112a0.08,0.08,0,0,0-.1-0.093C5813.21,2319.231,5813.131,2319.228,5813.053,2319.228Zm-0.016.845c0.083,0,.167,0,0.25,0s0.105-.031.1-0.108a0.082,0.082,0,0,0-.1-0.1c-0.166,0-.333,0-0.5,0a0.087,0.087,0,0,0-.1.108,0.081,0.081,0,0,0,.1.1C5812.87,2320.07,5812.954,2320.073,5813.037,2320.073Zm2.195,1.413c0.058,0.188.058,0.193,0.154,0.2,0.188,0,.377,0,0.608,0a0.319,0.319,0,0,0-.177-0.195C5815.623,2321.482,5815.43,2321.486,5815.231,2321.486Zm0.212-.126c0.084,0,.168,0,0.252,0,0.1,0,.092-0.044.06-0.114a0.135,0.135,0,0,0-.147-0.083c-0.14,0-.28,0-0.419,0-0.043,0-.122-0.032-0.122.039a0.14,0.14,0,0,0,.124.153C5815.276,2321.365,5815.36,2321.36,5815.444,2321.361Zm-0.034-1.464a2.525,2.525,0,0,0-.959.13l0.024,0.038a0.168,0.168,0,0,0,.065.008,0.727,0.727,0,0,0,.621-0.118,0.165,0.165,0,0,1,.08-0.018Z" transform="translate(-5805.609 -2301.473)"/><path class="cls-1" d="M5838.934,2321.855h-1.663c-0.039,0-.078,0-0.117,0a0.079,0.079,0,0,1-.093-0.074,0.084,0.084,0,0,1,.093-0.094c0.145,0,.291,0,0.437,0a0.3,0.3,0,0,0,.354-0.329c0.016-.324.011-0.649,0.012-0.973q0-.823,0-1.646c0-.387-0.09-0.473-0.477-0.474h-0.319a0.084,0.084,0,0,1-.1-0.086c0-.069.048-0.078,0.1-0.078h0.672c0.851,0,1.7,0,2.553,0a1.883,1.883,0,0,1,1.948,1.883,1.844,1.844,0,0,1-1.824,1.869c-0.526,0-1.052,0-1.578,0v0.007Zm0.311-1.9c0,0.532,0,1.064,0,1.6,0,0.1.027,0.136,0.131,0.133,0.224-.008.448,0,0.672,0a0.569,0.569,0,0,0,.315-0.1,1.017,1.017,0,0,0,.433-0.617,3.877,3.877,0,0,0,.1-1.066,2.769,2.769,0,0,0-.171-1.1,0.835,0.835,0,0,0-.741-0.547c-0.195-.015-0.392,0-0.587-0.018-0.133-.01-0.157.043-0.156,0.163C5839.248,2318.916,5839.245,2319.437,5839.245,2319.957Zm2.189-.411c-0.089,0-.178,0-0.267,0s-0.121.014-.119,0.108a0.087,0.087,0,0,0,.111.1c0.184,0,.367,0,0.551,0,0.054,0,.119.014,0.1-0.082-0.011-.068-0.011-0.134-0.111-0.126S5841.522,2319.546,5841.433,2319.546Zm-2.979.206c0.084,0,.167,0,0.251,0a0.087,0.087,0,0,0,.11-0.1,0.088,0.088,0,0,0-.107-0.106c-0.162,0-.323,0-0.485,0a0.1,0.1,0,1,0,0,.208C5838.3,2319.749,5838.376,2319.752,5838.454,2319.752Zm0.008,1.609c0.089,0,.178,0,0.267,0,0.068,0,.083-0.033.084-0.093s-0.008-.107-0.088-0.106q-0.259,0-.518,0a0.1,0.1,0,0,0,0,.2C5838.3,2321.359,5838.379,2321.362,5838.462,2321.362Zm0.006-1.17c-0.084,0-.168,0-0.251,0s-0.105.03-.106,0.108,0.039,0.1.113,0.1c0.162,0,.324,0,0.485,0a0.088,0.088,0,0,0,.1-0.108,0.087,0.087,0,0,0-.112-0.1C5838.625,2320.194,5838.547,2320.191,5838.469,2320.191Zm2.984-.321c-0.1,0-.2,0-0.3,0s-0.1.037-.1,0.11a0.08,0.08,0,0,0,.1.1c0.2,0,.392,0,0.587,0,0.088,0,.1-0.043.1-0.114s-0.033-.094-0.1-0.092C5841.643,2319.872,5841.547,2319.87,5841.452,2319.87Zm-3.428,1.813c0.236,0,.464,0,0.692,0a0.079,0.079,0,0,0,.1-0.1c0-.067-0.015-0.105-0.092-0.1a3.192,3.192,0,0,1-.436,0A0.22,0.22,0,0,0,5838.025,2321.683Zm-0.033-3.423c0.089,0.09.08,0.211,0.215,0.206,0.167-.007.335,0,0.5,0a0.089,0.089,0,0,0,.105-0.108c0-.088-0.041-0.1-0.113-0.1C5838.479,2318.262,5838.256,2318.26,5837.992,2318.26Zm3.427,2.138h0c0.1,0,.2,0,0.3,0s0.081-.07.089-0.128c0.011-.077-0.04-0.078-0.093-0.078-0.189,0-.378,0-0.566,0-0.089,0-.095.051-0.1,0.117s0.037,0.092.1,0.09C5841.241,2320.4,5841.33,2320.4,5841.419,2320.4Zm-2.945-1.17c-0.083,0-.167,0-0.25,0s-0.113.014-.112,0.1a0.088,0.088,0,0,0,.109.1c0.161,0,.322,0,0.483,0a0.088,0.088,0,0,0,.111-0.1,0.086,0.086,0,0,0-.108-0.1C5838.629,2319.232,5838.551,2319.228,5838.474,2319.228Zm-0.022.845c0.083,0,.167,0,0.25,0s0.113-.012.112-0.1a0.087,0.087,0,0,0-.106-0.106c-0.161,0-.322,0-0.484,0-0.073,0-.114.013-0.113,0.1a0.087,0.087,0,0,0,.107.106C5838.3,2320.069,5838.374,2320.073,5838.452,2320.073Zm0.016-1.169c-0.078,0-.155,0-0.233,0s-0.124.012-.124,0.107,0.047,0.1.115,0.1c0.161,0,.322,0,0.483,0a0.086,0.086,0,0,0,.106-0.1,0.088,0.088,0,0,0-.113-0.1C5838.624,2318.907,5838.546,2318.9,5838.468,2318.9Zm0,1.939c-0.083,0-.167,0-0.25,0-0.062,0-.108.006-0.108,0.087s0.02,0.113.1,0.111c0.161,0,.322,0,0.483,0,0.07,0,.115-0.009.115-0.1a0.086,0.086,0,0,0-.111-0.1C5838.626,2320.846,5838.548,2320.843,5838.47,2320.843Zm2.867-.128h0c0.095,0,.19,0,0.284,0a0.125,0.125,0,0,0,.108-0.145c0.007-.083-0.073-0.046-0.113-0.048-0.156,0-.313,0-0.468,0a0.106,0.106,0,0,0-.133.12c-0.008.117,0.072,0.072,0.121,0.077C5841.2,2320.719,5841.27,2320.715,5841.337,2320.715Zm-2.863-1.926c0.083,0,.167,0,0.25,0s0.088-.042.089-0.105a0.081,0.081,0,0,0-.093-0.1c-0.167,0-.334,0-0.5,0a0.1,0.1,0,1,0,0,.208C5838.307,2318.786,5838.391,2318.789,5838.474,2318.789Zm0,1.73c-0.084,0-.167,0-0.251,0a0.088,0.088,0,0,0-.106.108c0,0.079.039,0.091,0.1,0.09,0.162,0,.323,0,0.485,0,0.07,0,.115-0.007.114-0.1a0.087,0.087,0,0,0-.112-0.1C5838.625,2320.521,5838.547,2320.518,5838.469,2320.518Zm2.922-1.088a1.544,1.544,0,0,0,.2,0c0.051-.007.14,0.044,0.143-0.051a0.13,0.13,0,0,0-.15-0.152c-0.149.009-.3,0-0.45,0-0.048,0-.119-0.028-0.114.07,0,0.081.017,0.142,0.122,0.133C5841.224,2319.425,5841.308,2319.43,5841.391,2319.43Zm0.2,1.413h-0.54c-0.1,0-.1.082-0.1,0.143,0,0.087.07,0.049,0.111,0.051,0.089,0.006.179-.006,0.267,0A0.224,0.224,0,0,0,5841.591,2320.843Zm0.006-1.738c-0.079-.2-0.081-0.2-0.249-0.2-0.095,0-.19,0-0.285,0-0.042,0-.116-0.027-0.107.06,0.007,0.062,0,.141.1,0.14C5841.238,2319.1,5841.414,2319.105,5841.6,2319.105Zm-0.227-.316a0.337,0.337,0,0,0-.406-0.2c-0.047,0-.137-0.039-0.133.043a0.142,0.142,0,0,0,.149.162C5841.1,2318.784,5841.224,2318.789,5841.371,2318.789Zm-0.046,2.388c-0.446-.042-0.446-0.042-0.519.174A0.438,0.438,0,0,0,5841.325,2321.177Zm-0.356-2.737a1.121,1.121,0,0,0-.4-0.168A0.286,0.286,0,0,0,5840.969,2318.44Zm-0.059,3.078c-0.19-.068-0.234-0.05-0.323.137A0.963,0.963,0,0,0,5840.91,2321.518Z" transform="translate(-5805.609 -2301.473)"/><path class="cls-1" d="M5881.858,2321.855c-0.565,0-1.13,0-1.7,0-0.066,0-.167.031-0.164-0.084s0.1-.084.168-0.086c0.134,0,.269,0,0.4,0a0.29,0.29,0,0,0,.311-0.287,1.066,1.066,0,0,0,.008-0.151q0-1.268,0-2.535a0.363,0.363,0,0,0-.45-0.448h-0.3c-0.061,0-.136.011-0.139-0.078,0-.106.083-0.085,0.146-0.085,0.705,0,1.41,0,2.115,0a11.727,11.727,0,0,1,1.409.026,1.864,1.864,0,0,1,1.6,1.968,1.823,1.823,0,0,1-1.8,1.755c-0.537.009-1.074,0-1.611,0v0.007Zm1.974-1.9a3.3,3.3,0,0,0-.138-1.081,0.867,0.867,0,0,0-.8-0.632c-0.2-.012-0.4-0.005-0.6-0.013-0.082,0-.1.026-0.1,0.106q0,1.62,0,3.241a0.085,0.085,0,0,0,.1.1c0.224,0,.448,0,0.672,0a0.6,0.6,0,0,0,.346-0.107,1,1,0,0,0,.422-0.6A4.109,4.109,0,0,0,5883.832,2319.96Zm0.522-.207a2.182,2.182,0,0,0,.25,0c0.052-.006.147,0.054,0.143-0.073a0.115,0.115,0,0,0-.141-0.134c-0.167.009-.334,0-0.5,0-0.053,0-.132-0.03-0.125.079,0.005,0.082.02,0.139,0.123,0.128A2.381,2.381,0,0,1,5884.354,2319.752Zm-2.972,0c0.089,0,.178,0,0.266,0s0.1-.038.1-0.111a0.08,0.08,0,0,0-.1-0.1q-0.25.005-.5,0a0.1,0.1,0,1,0,0,.209C5881.226,2319.749,5881.3,2319.752,5881.382,2319.752Zm0.009,0.646c0.083,0,.167,0,0.25,0a0.085,0.085,0,0,0,.107-0.1,0.086,0.086,0,0,0-.1-0.106q-0.241.007-.483,0a0.093,0.093,0,0,0-.117.112c0,0.089.045,0.1,0.115,0.1S5881.313,2320.4,5881.391,2320.4Zm0,0.766c-0.078,0-.155,0-0.233,0s-0.118,0-.116.095a0.088,0.088,0,0,0,.107.1c0.166,0,.333,0,0.5,0a0.081,0.081,0,0,0,.1-0.1,0.084,0.084,0,0,0-.106-0.1C5881.559,2321.168,5881.476,2321.164,5881.392,2321.164Zm2.992-1.294c-0.106,0-.212,0-0.317,0-0.078,0-.092.036-0.092,0.1s0.016,0.1.093,0.1c0.2,0,.4,0,0.6,0,0.087,0,.1-0.045.1-0.115s-0.039-.092-0.1-0.091C5884.574,2319.872,5884.479,2319.87,5884.384,2319.87Zm-3.423,1.813c0.234,0,.457,0,0.68,0a0.086,0.086,0,0,0,.107-0.1c0-.09-0.046-0.1-0.115-0.1a3.524,3.524,0,0,1-.4,0A0.219,0.219,0,0,0,5880.961,2321.683Zm0-3.423a0.226,0.226,0,0,0,.278.207,3.288,3.288,0,0,1,.4,0,0.087,0.087,0,0,0,.11-0.1,0.086,0.086,0,0,0-.106-0.1C5881.419,2318.263,5881.2,2318.26,5880.959,2318.26Zm3.392,2.138c0.1,0,.2,0,0.3,0s0.084-.07.092-0.129c0.011-.076-0.041-0.078-0.094-0.077-0.184,0-.368,0-0.552,0-0.094,0-.106.041-0.114,0.12-0.011.107,0.059,0.086,0.116,0.087C5884.183,2320.4,5884.267,2320.4,5884.351,2320.4Zm-2.939.445c-0.084,0-.168,0-0.251,0-0.068,0-.118,0-0.117.1a0.089,0.089,0,0,0,.111.1c0.162,0,.324,0,0.486,0a0.087,0.087,0,0,0,.107-0.105,0.08,0.08,0,0,0-.1-0.093C5881.568,2320.846,5881.49,2320.843,5881.412,2320.843Zm-0.028-2.054c0.084,0,.168,0,0.252,0s0.115-.011.113-0.1-0.021-.111-0.1-0.109c-0.168,0-.336,0-0.5,0a0.082,0.082,0,0,0-.1.1c0,0.078.022,0.114,0.1,0.108S5881.3,2318.789,5881.383,2318.789Zm0.016,0.316c0.084,0,.167,0,0.251,0a0.079,0.079,0,0,0,.1-0.1,0.087,0.087,0,0,0-.1-0.108q-0.251.007-.5,0c-0.088,0-.1.045-0.1,0.115s0.043,0.089.105,0.088C5881.232,2319.1,5881.316,2319.105,5881.4,2319.105Zm0,0.325c0.084,0,.168,0,0.251,0s0.1-.037.1-0.111a0.079,0.079,0,0,0-.1-0.094c-0.167,0-.335,0-0.5,0-0.067,0-.1.014-0.1,0.092s0.013,0.118.1,0.112S5881.312,2319.431,5881.4,2319.43Zm2.922,0a1.968,1.968,0,0,0,.217,0c0.05-.006.139,0.044,0.138-0.056a0.131,0.131,0,0,0-.156-0.147c-0.149.01-.3,0-0.45,0-0.043,0-.127-0.04-0.115.064,0.008,0.069,0,.149.116,0.138A2.481,2.481,0,0,1,5884.317,2319.431Zm-2.934.643c0.078,0,.156,0,0.235,0s0.131,0.009.131-.1-0.043-.109-0.122-0.107c-0.156,0-.313,0-0.469,0-0.071,0-.113.01-0.115,0.1s0.044,0.112.123,0.107S5881.311,2320.073,5881.383,2320.073Zm0.006,0.641c0.089,0,.178,0,0.266,0s0.092-.031.092-0.1a0.08,0.08,0,0,0-.094-0.1q-0.258.005-.516,0a0.081,0.081,0,0,0-.094.1,0.079,0.079,0,0,0,.1.1C5881.222,2320.712,5881.306,2320.715,5881.389,2320.715Zm2.935-.2c-0.1,0-.19,0-0.285,0s-0.08.061-.09,0.114-0.015.082,0.046,0.082c0.19,0,.381,0,0.571,0a0.125,0.125,0,0,0,.1-0.151c0-.066-0.067-0.039-0.106-0.041C5884.481,2320.515,5884.4,2320.518,5884.324,2320.519Zm0.215-1.413a0.235,0.235,0,0,0-.282-0.2c-0.082.01-.167,0-0.25,0-0.044,0-.128-0.039-0.117.061,0.008,0.067.009,0.146,0.121,0.14C5884.181,2319.1,5884.354,2319.105,5884.538,2319.105Zm-0.312,1.738c-0.078,0-.157,0-0.234,0-0.1-.007-0.1.076-0.109,0.135-0.016.089,0.061,0.06,0.1,0.061,0.123,0,.245,0,0.368,0a0.155,0.155,0,0,0,.152-0.151c0-.083-0.094-0.033-0.145-0.043A0.735,0.735,0,0,0,5884.226,2320.843Zm-0.491.514a0.447,0.447,0,0,0,.518-0.172C5883.91,2321.114,5883.813,2321.143,5883.735,2321.357Zm0.559-2.568a0.379,0.379,0,0,0-.442-0.207c-0.087,0-.108.024-0.069,0.107a0.138,0.138,0,0,0,.148.1C5884.046,2318.784,5884.162,2318.789,5884.294,2318.789Zm-0.391-.345a1.514,1.514,0,0,0-.419-0.192A0.325,0.325,0,0,0,5883.9,2318.445Zm-0.039,3.054a0.256,0.256,0,0,0-.353.164A0.974,0.974,0,0,0,5883.864,2321.5Z" transform="translate(-5805.609 -2301.473)"/><path class="cls-1" d="M5876.211,2321.855h-2.285a0.083,0.083,0,0,1-.1-0.084,0.09,0.09,0,0,1,.1-0.086c0.134,0,.269,0,0.4,0a0.316,0.316,0,0,0,.385-0.355q0.012-1.352,0-2.7a0.314,0.314,0,0,0-.364-0.361c-0.14-.006-0.28,0-0.42,0a0.088,0.088,0,0,1-.109-0.078c0-.079.053-0.086,0.113-0.086h0.571c1.288,0,2.576,0,3.864,0,0.14,0,.179.037,0.176,0.176-0.006.33,0.008,0.66,0.008,0.991,0,0.068.04,0.167-.042,0.2s-0.126-.072-0.173-0.128a6.078,6.078,0,0,0-.64-0.664,1.544,1.544,0,0,0-1.106-.407c-0.151.006-.3,0.006-0.453,0-0.1,0-.139.016-0.137,0.127,0.006,0.414.005,0.829,0,1.243,0,0.1.031,0.117,0.124,0.127a1.072,1.072,0,0,0,.983-0.468c0.054-.066.1-0.2,0.184-0.168,0.1,0.036.044,0.169,0.045,0.259,0.006,0.33,0,.661,0,0.991,0,0.068.038,0.17-.047,0.193s-0.107-.083-0.148-0.138a1.565,1.565,0,0,0-.388-0.367,1.116,1.116,0,0,0-.681-0.129c-0.077,0-.072.053-0.071,0.1,0,0.515,0,1.03,0,1.545a0.091,0.091,0,0,0,.1.108,2.229,2.229,0,0,0,2.072-.864c0.09-.108.181-0.213,0.272-0.32a0.1,0.1,0,0,1,.11-0.059,0.094,0.094,0,0,1,.048.113c0,0.4-.012.806-0.014,1.209,0,0.126-.091.089-0.154,0.089Q5877.328,2321.856,5876.211,2321.855Zm-1-.493c0.084,0,.168,0,0.252,0s0.106-.028.105-0.107a0.081,0.081,0,0,0-.1-0.092c-0.162,0-.324,0-0.486,0a0.087,0.087,0,0,0-.107.107,0.082,0.082,0,0,0,.1.093C5875.058,2321.359,5875.136,2321.362,5875.214,2321.362Zm0-1.61c0.084,0,.168,0,0.251,0s0.1-.038.1-0.112a0.081,0.081,0,0,0-.1-0.1c-0.162,0-.324,0-0.486,0a0.089,0.089,0,0,0-.111.1,0.088,0.088,0,0,0,.109.1C5875.062,2319.749,5875.141,2319.752,5875.219,2319.752Zm0.007,0.646c0.078,0,.157,0,0.235,0a0.086,0.086,0,0,0,.111-0.1,0.088,0.088,0,0,0-.107-0.107c-0.157,0-.313,0-0.47,0-0.083,0-.122.018-0.12,0.111s0.045,0.1.116,0.1S5875.148,2320.4,5875.226,2320.4Zm-0.425-2.138-0.019.039c0.067,0.047.049,0.169,0.177,0.166,0.173,0,.346,0,0.518,0,0.076,0,.093-0.035.092-0.1s-0.007-.106-0.088-0.1C5875.255,2318.262,5875.028,2318.26,5874.8,2318.26Zm-0.009,3.423c0.237,0,.464,0,0.691,0a0.071,0.071,0,0,0,.087-0.088c0-.059,0-0.112-0.083-0.111a4.03,4.03,0,0,1-.452,0A0.208,0.208,0,0,0,5874.792,2321.683Zm0.425-2.894c0.084,0,.168,0,0.251,0s0.1-.033.1-0.109a0.081,0.081,0,0,0-.1-0.1q-0.251.005-.5,0a0.083,0.083,0,0,0-.1.1,0.087,0.087,0,0,0,.107.107C5875.06,2318.785,5875.139,2318.789,5875.217,2318.789Zm0.011,0.316c0.083,0,.167,0,0.25,0s0.095-.029.093-0.1-0.013-.106-0.091-0.1c-0.167,0-.334,0-0.5,0-0.084,0-.1.036-0.1,0.111a0.08,0.08,0,0,0,.1.092C5875.06,2319.1,5875.144,2319.105,5875.227,2319.105Zm0.011,1.738c-0.089,0-.179,0-0.268,0s-0.095.032-.095,0.1a0.083,0.083,0,0,0,.1.1q0.251,0,.5,0c0.076,0,.092-0.035.093-0.1a0.079,0.079,0,0,0-.1-0.1C5875.394,2320.846,5875.316,2320.843,5875.238,2320.843Zm-0.02-.128c0.084,0,.168,0,0.252,0,0.066,0,.1-0.012.1-0.091a0.088,0.088,0,0,0-.106-0.107q-0.243.007-.486,0c-0.084,0-.1.035-0.1,0.111s0.045,0.089.108,0.087C5875.061,2320.713,5875.139,2320.715,5875.218,2320.715Zm0.009-.641c0.078,0,.156,0,0.234,0a0.086,0.086,0,0,0,.111-0.1,0.087,0.087,0,0,0-.107-0.105c-0.161,0-.323,0-0.485,0a0.088,0.088,0,0,0-.1.109,0.082,0.082,0,0,0,.1.1C5875.059,2320.07,5875.143,2320.073,5875.226,2320.073Zm2.1,1.635h0.706a0.068,0.068,0,0,0,.075-0.084c0-.048.013-0.111-0.062-0.112A0.8,0.8,0,0,0,5877.33,2321.708Zm-2.114-2.481c-0.072,0-.145,0-0.217,0s-0.126.009-.124,0.106,0.044,0.1.116,0.1q0.234,0,.468,0a0.089,0.089,0,0,0,.113-0.1c0-.1-0.045-0.109-0.122-0.105S5875.294,2319.228,5875.216,2319.228Zm2.155-.968a0.722,0.722,0,0,0,.622.16,0.063,0.063,0,0,0,.065-0.077,0.066,0.066,0,0,0-.075-0.083C5877.783,2318.261,5877.585,2318.26,5877.37,2318.26Zm0.461,3.124c0.305,0.035.322,0.015,0.262-.217Zm-0.035-2.816a1.134,1.134,0,0,0,.251.193C5878.066,2318.521,5878.059,2318.516,5877.8,2318.568Zm-0.77,1.54c-0.024-.1.048-0.193-0.073-0.209-0.044-.006-0.126-0.024-0.129.025A0.3,0.3,0,0,0,5877.026,2320.108Zm-0.01-.539a0.312,0.312,0,0,0-.19.169c0,0.061.1,0.036,0.141,0.026C5877.065,2319.74,5877.007,2319.662,5877.016,2319.569Z" transform="translate(-5805.609 -2301.473)"/><path class="cls-1" d="M5851.568,2319.463c-0.214-.192-0.383-0.416-0.59-0.6a2.411,2.411,0,0,0-1.923-.7,1.274,1.274,0,0,0-.526.159,0.423,0.423,0,0,0-.271.39,0.413,0.413,0,0,0,.314.355,3.966,3.966,0,0,0,.829.205c0.556,0.1,1.119.159,1.665,0.31a1.184,1.184,0,0,1,.906.811,1.085,1.085,0,0,1-.578,1.328,2.487,2.487,0,0,1-2.159.014,2.981,2.981,0,0,1-.575-0.31,0.21,0.21,0,0,0-.3.025c-0.183.156-.377,0.3-0.567,0.447a0.08,0.08,0,0,1-.085.038,0.081,0.081,0,0,1-.028-0.089q-0.009-.688-0.015-1.376a0.1,0.1,0,0,1,.039-0.117,0.1,0.1,0,0,1,.107.064,5.162,5.162,0,0,0,.792.8,2.487,2.487,0,0,0,2,.578,1.147,1.147,0,0,0,.553-0.224,0.371,0.371,0,0,0-.039-0.651,2.428,2.428,0,0,0-.98-0.265,11.944,11.944,0,0,1-1.478-.2,2.421,2.421,0,0,1-.533-0.2,1.067,1.067,0,0,1-.277-1.706,1.827,1.827,0,0,1,1.579-.532,2.97,2.97,0,0,1,1.3.47,0.172,0.172,0,0,0,.247-0.019c0.152-.14.315-0.269,0.476-0.4,0.07-.056.162-0.088,0.158,0.047C5851.59,2318.551,5851.587,2319,5851.568,2319.463Zm0.007,0.927a0.34,0.34,0,0,0-.336-0.213c-0.872.008-1.745,0-2.617,0h-0.151a0.41,0.41,0,0,0,.171.09,3.218,3.218,0,0,0,.944.12C5850.239,2320.386,5850.893,2320.39,5851.576,2320.39Zm-0.434-.323,0.005-.043a2.182,2.182,0,0,0-.712-0.158q-1.174,0-2.348,0a0.135,0.135,0,0,0-.129.027,0.461,0.461,0,0,0,.373.177c0.682-.009,1.364,0,2.046,0h0.765Zm-1.671-.33a4.7,4.7,0,0,0-1.564-.195c-0.047,0-.132-0.038-0.131.049a0.131,0.131,0,0,0,.141.148C5848.435,2319.734,5848.953,2319.736,5849.471,2319.736Zm1.033,0.77a2.973,2.973,0,0,0,1.072.2c0.043-.007.127,0.043,0.12-0.056a0.123,0.123,0,0,0-.122-0.147C5851.218,2320.507,5850.861,2320.506,5850.5,2320.506Zm-2.2-1.088a0.405,0.405,0,0,0-.474-0.223c-0.067.005-.123,0-0.11,0.1,0.01,0.072.012,0.131,0.112,0.127C5847.986,2319.413,5848.141,2319.417,5848.3,2319.417Zm3.035,1.412a0.27,0.27,0,0,0,.28.2,0.107,0.107,0,0,0,.095-0.127c0.009-.077-0.041-0.076-0.094-0.076h-0.281Zm-3.12.474-0.363-.3C5847.791,2321.316,5847.791,2321.316,5848.219,2321.3Zm-0.332-2.232c0.043-.026.133,0.043,0.133-0.066,0-.074-0.011-0.138-0.12-0.137a0.129,0.129,0,0,0-.142.147C5847.757,2319.112,5847.844,2319.049,5847.888,2319.072Zm-0.046,2.59a0.909,0.909,0,0,0,.252-0.225C5847.822,2321.421,5847.822,2321.421,5847.842,2321.662Zm3.24-3.1c0.132,0.008.228,0.036,0.178-.142Zm0.437,2.759a0.189,0.189,0,0,0,.1-0.17,0.1,0.1,0,0,0-.076,0C5851.474,2321.2,5851.514,2321.264,5851.519,2321.326Zm-0.428-2.616a0.58,0.58,0,0,0,.173.117C5851.307,2318.681,5851.228,2318.681,5851.091,2318.71Z" transform="translate(-5805.609 -2301.473)"/><path class="cls-1" d="M5855.3,2318.1c0.722,0,1.445,0,2.167,0,0.121,0,.164.025,0.163,0.156,0,0.459-.019.918,0.013,1.377a0.364,0.364,0,0,1,0,.084,0.112,0.112,0,0,1-.067.123c-0.066.013-.081-0.051-0.1-0.093a3.871,3.871,0,0,0-.6-0.93,2.776,2.776,0,0,0-.575-0.487,0.453,0.453,0,0,0-.087-0.051c-0.184-.066-0.266-0.009-0.266.181q0,1.377,0,2.755c0,0.389.087,0.476,0.472,0.476h0.3c0.066,0,.131.011,0.126,0.1s-0.069.076-.127,0.076h-1.025c-0.588,0-1.176,0-1.764,0-0.065,0-.166.033-0.168-0.081s0.1-.088.165-0.089c0.134,0,.269,0,0.4,0a0.288,0.288,0,0,0,.312-0.285,2.021,2.021,0,0,0,.017-0.268q0-1.319,0-2.637c0-.241-0.094-0.3-0.325-0.2a1.392,1.392,0,0,0-.387.263,4.341,4.341,0,0,0-.848,1.16c-0.026.046-.035,0.13-0.1,0.116s-0.053-.1-0.053-0.159c0-.481.015-0.963,0.013-1.444,0-.126.059-0.13,0.154-0.13C5853.841,2318.1,5854.569,2318.1,5855.3,2318.1Zm-0.125,1.45c-0.084,0-.168,0-0.251,0a0.087,0.087,0,0,0-.108.105,0.088,0.088,0,0,0,.111.1c0.156,0,.313,0,0.469,0,0.069,0,.115-0.006.116-0.1a0.092,0.092,0,0,0-.119-0.111C5855.318,2319.55,5855.245,2319.546,5855.172,2319.546Zm-0.017,1.816c0.084,0,.168,0,0.251,0a0.081,0.081,0,0,0,.1-0.093,0.087,0.087,0,0,0-.106-0.106c-0.162,0-.324,0-0.486,0a0.082,0.082,0,0,0-.1.093,0.087,0.087,0,0,0,.107.106C5855,2321.358,5855.077,2321.362,5855.155,2321.362Zm-0.013-.964c0.089,0,.179,0,0.268,0a0.081,0.081,0,0,0,.1-0.1c0-.075-0.016-0.114-0.1-0.112q-0.243.007-.486,0a0.1,0.1,0,1,0,0,.209C5855,2320.395,5855.069,2320.4,5855.142,2320.4Zm-0.418,1.277h0.844a0.165,0.165,0,0,0-.217-0.192,1.6,1.6,0,0,1-.366,0A0.218,0.218,0,0,0,5854.724,2321.675Zm0.429-1.6c0.084,0,.167,0,0.251,0s0.105-.03.1-0.108a0.081,0.081,0,0,0-.1-0.1c-0.167,0-.334,0-0.5,0a0.082,0.082,0,0,0-.1.1,0.086,0.086,0,0,0,.106.106C5855,2320.069,5855.075,2320.073,5855.153,2320.073Zm0-1.813c-0.078,0-.156,0-0.234,0a0.086,0.086,0,0,0-.111.1,0.089,0.089,0,0,0,.109.106q0.234-.007.469,0a0.094,0.094,0,0,0,.119-0.112c0-.092-0.049-0.1-0.117-0.094S5855.236,2318.26,5855.158,2318.26Zm-0.007.845c0.089,0,.178,0,0.267,0s0.09-.036.09-0.1a0.082,0.082,0,0,0-.095-0.1c-0.167,0-.333,0-0.5,0-0.088,0-.1.044-0.1,0.115s0.041,0.091.1,0.089S5855.073,2319.105,5855.151,2319.105Zm0,1.934c0.084,0,.167,0,0.251,0s0.1-.032.1-0.109-0.042-.089-0.106-0.089c-0.161,0-.323,0-0.484,0-0.066,0-.1.012-0.1,0.09a0.088,0.088,0,0,0,.107.108C5855,2321.036,5855.076,2321.039,5855.154,2321.039Zm0.018-1.609c0.078,0,.156,0,0.234,0s0.1-.035.1-0.11a0.08,0.08,0,0,0-.1-0.095c-0.161,0-.323,0-0.484,0-0.074,0-.113.014-0.112,0.1a0.088,0.088,0,0,0,.109.1C5855,2319.427,5855.089,2319.431,5855.172,2319.43Zm-0.02,1.284c0.084,0,.168,0,0.251,0,0.064,0,.105-0.008.1-0.089s-0.021-.111-0.1-0.109q-0.243.007-.486,0a0.088,0.088,0,0,0-.105.109c0,0.08.04,0.092,0.1,0.09S5855.074,2320.715,5855.152,2320.715Zm0.015-2.131c-0.084,0-.167,0-0.251,0s-0.1.034-.1,0.11a0.082,0.082,0,0,0,.1.1c0.162,0,.323,0,0.485,0,0.074,0,.112-0.016.111-0.1a0.087,0.087,0,0,0-.107-0.106C5855.324,2318.587,5855.245,2318.583,5855.167,2318.583Zm1.31-.356a0.584,0.584,0,0,0,.594.2c0.072,0,.115-0.01.115-0.1a0.088,0.088,0,0,0-.111-0.1C5856.88,2318.23,5856.684,2318.227,5856.477,2318.227Zm-2.8,0c-0.167,0-.317,0-0.468,0a0.073,0.073,0,0,0-.085.091c0,0.06,0,.106.085,0.11A0.421,0.421,0,0,0,5853.674,2318.228Zm3.193,0.349,0.306,0.367C5857.2,2318.524,5857.194,2318.513,5856.867,2318.577Zm-3.488-.012c-0.29-.026-0.292-0.023-0.237.336Z" transform="translate(-5805.609 -2301.473)"/><path class="cls-1" d="M5831.664,2318.1c0.728,0,1.456,0,2.184,0,0.116,0,.154.03,0.152,0.149-0.006.459-.01,0.918,0.018,1.376a0.273,0.273,0,0,1,0,.05,0.145,0.145,0,0,1-.064.159c-0.082.021-.092-0.067-0.117-0.118a3.249,3.249,0,0,0-1.057-1.322,1.468,1.468,0,0,0-.155-0.1c-0.189-.1-0.3-0.032-0.3.175q0,1.377,0,2.755c0,0.374.093,0.465,0.467,0.465,0.084,0,.168,0,0.252,0s0.18-.027.179,0.091-0.1.077-.17,0.079c-0.157,0-.314,0-0.47,0h-2.217c-0.045,0-.09,0-0.134,0a0.078,0.078,0,0,1-.092-0.075,0.084,0.084,0,0,1,.095-0.093c0.123,0,.246,0,0.369,0,0.325,0,.418-0.077.427-0.4,0.012-.448.009-0.9,0.01-1.343,0-.515,0-1.03,0-1.545,0-.112-0.032-0.137-0.14-0.141a0.635,0.635,0,0,0-.4.154,3.081,3.081,0,0,0-.8.917c-0.081.128-.15,0.262-0.227,0.392-0.026.045-.033,0.126-0.105,0.107s-0.049-.1-0.049-0.147c0-.218.014-0.436,0.017-0.654,0-.258.008-0.515,0-0.773,0-.126.031-0.161,0.158-0.16C5830.219,2318.1,5830.941,2318.1,5831.664,2318.1Zm-0.112,3.069c-0.089,0-.178,0-0.267,0s-0.092.034-.093,0.1a0.081,0.081,0,0,0,.1.1q0.251,0,.5,0a0.08,0.08,0,0,0,.1-0.094c0-.079-0.023-0.112-0.1-0.106S5831.63,2321.164,5831.552,2321.164Zm0-1.618c-0.084,0-.167,0-0.251,0a0.1,0.1,0,1,0,0,.209c0.156,0,.312,0,0.468,0,0.076,0,.123-0.006.123-0.1s-0.049-.107-0.124-0.1S5831.622,2319.546,5831.549,2319.546Zm-0.011.852c0.084,0,.168,0,0.251,0s0.1-.036.1-0.11-0.019-.1-0.094-0.1c-0.167,0-.334,0-0.5,0-0.084,0-.1.035-0.1,0.11s0.04,0.1.113,0.1S5831.46,2320.4,5831.538,2320.4Zm-0.426,1.276h0.838a0.166,0.166,0,0,0-.22-0.191,1.893,1.893,0,0,1-.368,0A0.2,0.2,0,0,0,5831.112,2321.674Zm0.42-2.569c0.09,0,.179,0,0.268,0s0.088-.038.089-0.1a0.081,0.081,0,0,0-.095-0.1c-0.168,0-.336,0-0.5,0-0.089,0-.1.043-0.1,0.114s0.041,0.091.105,0.089S5831.453,2319.105,5831.531,2319.105Zm-0.005.325c0.094,0,.189,0,0.283,0s0.076-.057.079-0.112a0.071,0.071,0,0,0-.082-0.091q-0.258,0-.516,0a0.08,0.08,0,0,0-.1.1c0,0.075.017,0.115,0.1,0.11S5831.448,2319.431,5831.526,2319.43Zm0.016-.641c0.083,0,.167,0,0.25,0a0.079,0.079,0,0,0,.1-0.1c0-.073-0.012-0.114-0.1-0.112-0.161.005-.322,0-0.483,0-0.069,0-.115.007-0.116,0.1a0.092,0.092,0,0,0,.118.111C5831.386,2318.785,5831.464,2318.789,5831.542,2318.789Zm0,1.926c0.078,0,.156,0,0.234,0s0.117,0,.115-0.094a0.087,0.087,0,0,0-.107-0.1q-0.242.007-.484,0a0.088,0.088,0,0,0-.108.1c0,0.093.049,0.1,0.117,0.094S5831.463,2320.715,5831.541,2320.715Zm0-2.455c-0.083,0-.167,0-0.25,0a0.079,0.079,0,0,0-.1.095c0,0.073.015,0.115,0.1,0.112,0.161,0,.323-0.005.484,0a0.093,0.093,0,0,0,.114-0.114c0-.094-0.05-0.094-0.116-0.092S5831.618,2318.26,5831.54,2318.26Zm-0.011,2.779c0.089,0,.178,0,0.266,0s0.093-.032.093-0.1a0.079,0.079,0,0,0-.094-0.1c-0.166,0-.333,0-0.5,0-0.065,0-.1.012-0.1,0.09s0.023,0.113.1,0.108S5831.451,2321.039,5831.529,2321.039Zm0.021-.966c0.078,0,.156,0,0.233,0a0.1,0.1,0,1,0,0-.206q-0.241.006-.483,0a0.1,0.1,0,1,0,0,.206C5831.383,2320.07,5831.467,2320.073,5831.55,2320.073Zm1.31-1.846a0.577,0.577,0,0,0,.592.2c0.072,0,.115-0.01.115-0.1a0.088,0.088,0,0,0-.111-0.1C5833.261,2318.23,5833.065,2318.228,5832.86,2318.228Zm-2.8,0c-0.162,0-.307,0-0.453,0-0.067,0-.1.011-0.1,0.09s0.013,0.108.1,0.111A0.42,0.42,0,0,0,5830.056,2318.228Zm3.191,0.346a2.894,2.894,0,0,0,.306.348C5833.591,2318.534,5833.578,2318.519,5833.246,2318.574Zm-3.729.343c0.052-.077.092-0.13,0.125-0.188a0.276,0.276,0,0,0,.09-0.167C5829.478,2318.539,5829.478,2318.539,5829.517,2318.917Z" transform="translate(-5805.609 -2301.473)"/><path class="cls-1" d="M5826.084,2318.1c0.734,0,1.467,0,2.2,0,0.115,0,.154.027,0.151,0.147a10.022,10.022,0,0,0,.022,1.074,0.124,0.124,0,0,1-.048.148,0.122,0.122,0,0,1-.132-0.081,7.143,7.143,0,0,0-.595-0.638,1.609,1.609,0,0,0-1.244-.484c-0.14.008-.28,0.005-0.42,0a0.093,0.093,0,0,0-.118.111q0.006,0.63,0,1.26c0,0.1.033,0.116,0.125,0.125a1.062,1.062,0,0,0,.972-0.456c0.057-.07.108-0.211,0.194-0.179,0.1,0.038.043,0.179,0.044,0.274,0.007,0.341,0,.683,0,1.025,0,0.053.022,0.127-.045,0.146s-0.089-.056-0.12-0.1a1.553,1.553,0,0,0-.417-0.408,1.126,1.126,0,0,0-.68-0.13c-0.076,0-.074.05-0.073,0.1,0,0.431,0,.862.009,1.293a0.314,0.314,0,0,0,.378.36c0.129,0,.258,0,0.386,0,0.066,0,.131.014,0.126,0.1s-0.071.074-.128,0.074h-2.822c-0.062,0-.136.006-0.133-0.084s0.072-.087.136-0.087h0.353a0.33,0.33,0,0,0,.4-0.389c0.006-.481,0-0.963,0-1.445,0-.392,0-0.784,0-1.176a0.343,0.343,0,0,0-.415-0.413c-0.1,0-.191,0-0.285,0-0.071,0-.183.038-0.187-0.079s0.112-.081.179-0.082C5824.628,2318.094,5825.356,2318.1,5826.084,2318.1Zm-0.95,1.45c-0.089,0-.179,0-0.268,0a0.081,0.081,0,0,0-.1.1c0,0.075.017,0.113,0.1,0.111,0.167,0,.335,0,0.5,0a0.082,0.082,0,0,0,.1-0.1c0-.076-0.019-0.116-0.1-0.111S5825.213,2319.546,5825.134,2319.546Zm0,1.618c-0.089,0-.179,0-0.268,0s-0.093.032-.094,0.1a0.081,0.081,0,0,0,.1.1c0.167,0,.335,0,0.5,0a0.089,0.089,0,0,0,.1-0.11c0-.081-0.043-0.091-0.107-0.089S5825.209,2321.164,5825.13,2321.164Zm-0.479-2.9c0.083,0.086.073,0.207,0.2,0.2,0.173,0,.346,0,0.519,0a0.082,0.082,0,0,0,.1-0.1c0-.064-0.008-0.107-0.089-0.106C5825.15,2318.262,5824.918,2318.26,5824.651,2318.26Zm0.028,3.423c0.243,0,.475,0,0.707,0a0.074,0.074,0,0,0,.085-0.092c0-.064-0.01-0.108-0.089-0.107a3.3,3.3,0,0,1-.435,0A0.227,0.227,0,0,0,5824.68,2321.683Zm0.455-1.491h0c-0.095,0-.19,0-0.285,0s-0.079.056-.08,0.114a0.074,0.074,0,0,0,.085.093c0.173,0,.346,0,0.519,0a0.082,0.082,0,0,0,.1-0.1c0-.076-0.018-0.116-0.1-0.111S5825.213,2320.191,5825.135,2320.191Zm-0.021-.761c0.089,0,.178,0,0.267,0s0.089-.041.09-0.105a0.08,0.08,0,0,0-.1-0.1c-0.167,0-.334,0-0.5,0a0.1,0.1,0,1,0,.005.2C5824.958,2319.428,5825.036,2319.43,5825.114,2319.43Zm0.006-.325c0.083,0,.167,0,0.25,0a0.08,0.08,0,0,0,.1-0.092c0-.075-0.019-0.113-0.1-0.111q-0.25.006-.5,0c-0.086,0-.1.04-0.1,0.112s0.037,0.093.1,0.091C5824.954,2319.1,5825.037,2319.105,5825.12,2319.105Zm0-.316c0.084,0,.167,0,0.251,0a0.081,0.081,0,0,0,.1-0.094c0-.073-0.015-0.116-0.1-0.113-0.162,0-.323,0-0.485,0a0.094,0.094,0,0,0-.118.112c0,0.09.048,0.1,0.117,0.1S5825.041,2318.789,5825.119,2318.789Zm0.017,1.729c-0.084,0-.167,0-0.251,0s-0.116.005-.117,0.1a0.087,0.087,0,0,0,.11.1q0.243-.006.485,0a0.087,0.087,0,0,0,.109-0.1c0-.091-0.051-0.1-0.119-0.095S5825.208,2320.518,5825.136,2320.518Zm-0.01.325c-0.084,0-.167,0-0.25,0a0.086,0.086,0,0,0-.107.105,0.082,0.082,0,0,0,.1.093q0.242,0,.484,0c0.07,0,.116-0.009.116-0.1a0.087,0.087,0,0,0-.113-0.1C5825.281,2320.846,5825.2,2320.843,5825.125,2320.843Zm-0.007-.77c0.083,0,.167,0,0.25,0s0.1-.035.1-0.11a0.082,0.082,0,0,0-.1-0.1c-0.161,0-.323,0-0.484,0-0.082,0-.12.018-0.119,0.11s0.049,0.1.117,0.095S5825.041,2320.073,5825.119,2320.073Zm2.149-1.813a0.708,0.708,0,0,0,.613.161,0.081,0.081,0,0,0,0-.161C5827.682,2318.261,5827.484,2318.26,5827.267,2318.26Zm0.413,0.3,0.269,0.234C5827.964,2318.53,5827.964,2318.53,5827.68,2318.559Zm-0.77,1.014a0.286,0.286,0,0,0-.188.164c0,0.063.1,0.037,0.139,0.026C5826.957,2319.74,5826.9,2319.663,5826.91,2319.573Zm-0.013.5c0.022-.164.022-0.17-0.051-0.175-0.043,0-.129-0.031-0.126.03A0.209,0.209,0,0,0,5826.9,2320.075Z" transform="translate(-5805.609 -2301.473)"/><path class="cls-1" d="M5821.6,2321.855c-0.431,0-.862,0-1.292,0-0.067,0-.183.047-0.183-0.077s0.119-.087.194-0.091c0.106-.006.213,0,0.318-0.007,0.2-.022.251-0.128,0.162-0.3s-0.18-.323-0.262-0.487a0.152,0.152,0,0,0-.16-0.089c-0.453,0-.906,0-1.36,0a0.115,0.115,0,0,0-.138.133,0.629,0.629,0,0,0,.682.753c0.067,0,.149-0.009.147,0.09s-0.09.081-.153,0.082q-0.9,0-1.8,0c-0.056,0-.141.025-0.153-0.058s0.077-.084.131-0.093a1.1,1.1,0,0,0,.781-0.581c0.461-.806.915-1.615,1.372-2.423,0.124-.219.246-0.439,0.371-0.658,0.082-.145.111-0.147,0.2,0q0.545,0.944,1.085,1.891c0.261,0.456.527,0.91,0.783,1.369a0.634,0.634,0,0,0,.632.382c0.063,0,.135,0,0.136.083,0,0.1-.084.087-0.148,0.087C5822.5,2321.855,5822.052,2321.855,5821.6,2321.855Zm-1.9-2.491-0.669,1.186c-0.031.055-.018,0.082,0.049,0.082h1.208c0.077,0,.086-0.03.051-0.092C5820.138,2320.157,5819.93,2319.775,5819.707,2319.363Zm1.178,0.389a0.282,0.282,0,0,0-.149-0.2c-0.252-.012-0.5,0-0.781,0,0.07,0.1.07,0.208,0.195,0.206C5820.384,2319.75,5820.617,2319.752,5820.885,2319.752Zm0.361,0.646a0.271,0.271,0,0,0-.151-0.2c-0.253-.01-0.506,0-0.783,0,0.067,0.1.07,0.209,0.2,0.206C5820.748,2320.394,5820.981,2320.4,5821.246,2320.4Zm0.7,1.278c-0.054-.188-0.054-0.189-0.215-0.19h-0.551c-0.186,0-.186,0-0.215.19h0.98Zm-0.836-.833c-0.089,0-.18-0.006-0.268,0-0.045,0-.134-0.045-0.13.043a0.143,0.143,0,0,0,.146.151c0.218,0,.436,0,0.654,0,0.069,0,.093-0.017.061-0.088a0.148,0.148,0,0,0-.162-0.111C5821.307,2320.85,5821.206,2320.843,5821.105,2320.843Zm0.314-.129a0.229,0.229,0,0,0-.146-0.191c-0.252-.01-0.505,0-0.78,0,0.059,0.088.056,0.191,0.157,0.193C5820.9,2320.717,5821.15,2320.714,5821.419,2320.714Zm-0.853-.844c-0.089,0-.179,0-0.268,0-0.044,0-.124-0.033-0.126.032a0.163,0.163,0,0,0,.113.167,0.308,0.308,0,0,0,.083,0c0.179,0,.358,0,0.537,0,0.044,0,.115.034,0.127-0.032a0.27,0.27,0,0,0-.061-0.132,0.112,0.112,0,0,0-.12-0.037C5820.756,2319.869,5820.661,2319.87,5820.566,2319.87Zm-0.367-.642a2.239,2.239,0,0,0-.233,0c-0.05.005-.144-0.043-0.142,0.047a0.143,0.143,0,0,0,.142.154q0.317,0,.634,0c0.07,0,.092-0.023.059-0.089a0.154,0.154,0,0,0-.16-0.116C5820.4,2319.234,5820.3,2319.228,5820.2,2319.228Zm1.56,2.133c-0.018-.094-0.036-0.186-0.127-0.19-0.252-.01-0.5,0-0.781,0,0.058,0.1.068,0.194,0.181,0.194C5821.271,2321.36,5821.51,2321.361,5821.759,2321.361Zm-1.915-2.255c0.178,0,.344,0,0.51,0,0.048,0,.139.036,0.137-0.035a0.15,0.15,0,0,0-.149-0.165,1.589,1.589,0,0,1-.233,0A0.211,0.211,0,0,0,5819.844,2319.105Zm0.323-.647a0.575,0.575,0,0,0-.126.306,0.339,0.339,0,0,0,.26.021,0.1,0.1,0,0,0,.028-0.029Zm-1.956,3.224c0.1,0,.194,0,0.291,0,0.04,0,.111.035,0.109-0.053a0.106,0.106,0,0,0-.118-0.121A0.375,0.375,0,0,0,5818.21,2321.683Z" transform="translate(-5805.609 -2301.473)"/><path class="cls-1" d="M5870.612,2321.855h-2.3a0.084,0.084,0,0,1-.1-0.082,0.089,0.089,0,0,1,.1-0.088c0.123,0,.246,0,0.369,0a0.347,0.347,0,0,0,.425-0.419c0.005-.375,0-0.75,0-1.125,0-.476,0-0.952,0-1.427a0.364,0.364,0,0,0-.449-0.451H5868.3a0.082,0.082,0,0,1-.1-0.09,0.076,0.076,0,0,1,.093-0.073h2.939a0.075,0.075,0,0,1,.086.081,0.082,0.082,0,0,1-.09.081c-0.123,0-.246,0-0.369,0a0.349,0.349,0,0,0-.415.418q0,1.293,0,2.586c0,0.323.1,0.4,0.424,0.422a2.143,2.143,0,0,0,1.838-.985c0.054-.064.1-0.136,0.15-0.2a0.107,0.107,0,0,1,.112-0.058c0.059,0.015.05,0.069,0.05,0.111,0,0.4-.01.806-0.011,1.209,0,0.124-.086.093-0.152,0.093Q5871.738,2321.856,5870.612,2321.855Zm-0.989-1.456c0.089,0,.179,0,0.268,0s0.123-.016.121-0.109-0.04-.1-0.113-0.1c-0.173,0-.347,0-0.52,0-0.081,0-.122.015-0.122,0.11s0.061,0.1.131,0.1S5869.545,2320.4,5869.623,2320.4Zm-0.442,1.274h0.895a0.173,0.173,0,0,0-.228-0.189,2.428,2.428,0,0,1-.417,0A0.2,0.2,0,0,0,5869.181,2321.672Zm0-3.408a0.216,0.216,0,0,0,.26.2,2.152,2.152,0,0,1,.4,0c0.152,0.012.246-.027,0.239-0.2h-0.9Zm0.463,0.964c-0.078,0-.156,0-0.234,0s-0.147-.027-0.148.1,0.065,0.107.14,0.106c0.161,0,.323,0,0.484,0,0.071,0,.13,0,0.131-0.1s-0.045-.109-0.123-0.105S5869.723,2319.228,5869.639,2319.228Zm0.01,0.642c-0.1,0-.2,0-0.3,0-0.079,0-.089.04-0.09,0.1a0.081,0.081,0,0,0,.095.1c0.184,0,.368,0,0.551,0a0.1,0.1,0,1,0,0-.206C5869.817,2319.873,5869.733,2319.87,5869.65,2319.87Zm-0.006,1.169c0.084,0,.167,0,0.251,0s0.117-.007.118-0.1a0.087,0.087,0,0,0-.11-0.1c-0.178,0-.357,0-0.535,0a0.088,0.088,0,0,0-.11.1c0,0.091.051,0.1,0.118,0.095C5869.466,2321.038,5869.555,2321.039,5869.644,2321.039Zm-0.012-2.25c0.089,0,.179,0,0.268,0a0.1,0.1,0,1,0,.007-0.208c-0.178,0-.357,0-0.535,0a0.089,0.089,0,0,0-.113.1c0,0.1.045,0.11,0.123,0.107S5869.548,2318.789,5869.632,2318.789Zm0,1.926c0.095,0,.19,0,0.285,0a0.079,0.079,0,0,0,.095-0.1,0.082,0.082,0,0,0-.1-0.1c-0.184,0-.369,0-0.553,0a0.088,0.088,0,0,0-.1.11c0,0.081.043,0.09,0.106,0.089C5869.453,2320.713,5869.543,2320.715,5869.632,2320.715Zm0-1.609c0.094,0,.189,0,0.283,0a0.079,0.079,0,0,0,.1-0.093c0-.074-0.019-0.113-0.1-0.11q-0.275.007-.55,0c-0.087,0-.1.041-0.1,0.113s0.04,0.091.1,0.09C5869.451,2319.1,5869.54,2319.105,5869.628,2319.105Zm0.01,0.646c0.078,0,.155,0,0.233,0s0.143,0.007.14-.106-0.061-.1-0.131-0.1c-0.167,0-.333,0-0.5,0-0.077,0-.125.008-0.123,0.106s0.06,0.1.131,0.1S5869.555,2319.751,5869.638,2319.751Zm2.133,1.957c0.224,0,.435,0,0.646,0a0.086,0.086,0,0,0,.109-0.1,0.083,0.083,0,0,0-.1-0.1A0.727,0.727,0,0,0,5871.771,2321.709Zm-2.128-.348c0.089,0,.178,0,0.267,0a0.081,0.081,0,0,0,.1-0.094c0-.066-0.014-0.1-0.091-0.1-0.189,0-.378,0-0.566,0a0.1,0.1,0,0,0,.006.2C5869.454,2321.359,5869.549,2321.361,5869.643,2321.361Zm2.635,0.036c0.271,0.026.281,0.014,0.218-.248Z" transform="translate(-5805.609 -2301.473)"/><path class="cls-1" d="M5864.995,2321.855h-2.3a0.088,0.088,0,1,1-.005-0.17c0.14,0,.28,0,0.42,0a0.313,0.313,0,0,0,.364-0.358q0.006-1.352,0-2.7a0.313,0.313,0,0,0-.351-0.357c-0.14-.007-0.28,0-0.42,0-0.061,0-.119-0.011-0.12-0.084s0.06-.081.12-0.081h2.873c0.058,0,.12,0,0.119.08s-0.058.084-.119,0.084c-0.129,0-.258,0-0.386,0a0.326,0.326,0,0,0-.361.368c-0.006.235,0,.47,0,0.706q0,0.958,0,1.915c0,0.337.1,0.408,0.426,0.436a2.108,2.108,0,0,0,1.776-.909c0.082-.091.148-0.2,0.223-0.294a0.094,0.094,0,0,1,.1-0.043,0.082,0.082,0,0,1,.051.095q-0.012.621-.025,1.242c0,0.116-.093.075-0.149,0.075C5866.484,2321.855,5865.74,2321.855,5864.995,2321.855Zm-0.979-2.309c-0.1,0-.19,0-0.285,0a0.08,0.08,0,0,0-.1.1c0,0.073.013,0.115,0.1,0.112,0.179,0,.358,0,0.537,0,0.068,0,.116,0,0.117-0.1a0.093,0.093,0,0,0-.119-0.112C5864.184,2319.55,5864.1,2319.546,5864.016,2319.546Zm-0.009,1.816c0.089,0,.179,0,0.268,0a0.087,0.087,0,0,0,.11-0.1,0.082,0.082,0,0,0-.1-0.1q-0.277,0-.554,0a0.081,0.081,0,0,0-.1.094,0.086,0.086,0,0,0,.107.105C5863.828,2321.358,5863.918,2321.362,5864.007,2321.362Zm-0.457.307h0.893a0.164,0.164,0,0,0-.215-0.185,2.415,2.415,0,0,1-.417,0A0.211,0.211,0,0,0,5863.55,2321.669Zm-0.008-3.4a0.232,0.232,0,0,0,.279.2,2.035,2.035,0,0,1,.4,0,0.172,0.172,0,0,0,.222-0.207h-0.833C5863.591,2318.26,5863.571,2318.264,5863.543,2318.266Zm0.472,2.773c0.089,0,.179,0,0.268,0s0.1-.035.1-0.111-0.045-.088-0.107-0.087c-0.178,0-.357,0-0.535,0-0.074,0-.111.015-0.111,0.1s0.044,0.1.115,0.1C5863.836,2321.037,5863.925,2321.039,5864.015,2321.039Zm-0.017-.324c0.1,0,.19,0,0.285,0,0.066,0,.1-0.012.1-0.091a0.088,0.088,0,0,0-.107-0.107q-0.268.006-.537,0a0.088,0.088,0,0,0-.11.1c0,0.091.045,0.1,0.114,0.1S5863.914,2320.715,5864,2320.715Zm0.011-1.284c0.089,0,.179,0,0.268,0a0.088,0.088,0,0,0,.11-0.1c0-.085-0.036-0.1-0.111-0.1-0.178,0-.357,0-0.535,0a0.1,0.1,0,1,0,0,.2C5863.83,2319.427,5863.919,2319.43,5864.009,2319.43Zm0,0.643c0.089,0,.179,0,0.268,0a0.1,0.1,0,1,0,0-.205c-0.178,0-.357,0-0.535,0a0.1,0.1,0,1,0,0,.206C5863.831,2320.07,5863.92,2320.073,5864.009,2320.073Zm0.005-1.49c-0.095,0-.19,0-0.285,0a0.08,0.08,0,0,0-.1.1c0,0.074.014,0.114,0.1,0.111,0.184-.005.369,0,0.553,0a0.082,0.082,0,0,0,.1-0.1c0-.076-0.018-0.115-0.1-0.11S5864.1,2318.583,5864.015,2318.583Zm0.011,0.321c-0.095,0-.189,0-0.284,0a0.087,0.087,0,0,0-.11.1c0,0.084.033,0.1,0.108,0.1,0.178,0,.356,0,0.535,0,0.072,0,.113-0.01.112-0.1a0.088,0.088,0,0,0-.11-0.1C5864.193,2318.907,5864.109,2318.9,5864.026,2318.9Zm-0.014,1.288c-0.089,0-.179,0-0.268,0-0.073,0-.114.012-0.112,0.1s0.02,0.111.1,0.109c0.179,0,.357,0,0.536,0,0.073,0,.112-0.013.114-0.1s-0.044-.111-0.123-0.108S5864.1,2320.192,5864.012,2320.192Zm2.132,1.516c0.237,0,.453,0,0.67,0a0.07,0.07,0,0,0,.086-0.088c-0.005-.045.021-0.109-0.061-0.111A0.757,0.757,0,0,0,5866.145,2321.709Zm0.475-.315c0.3,0.029.3,0.029,0.262-.245Z" transform="translate(-5805.609 -2301.473)"/><path class="cls-1" d="M5807.953,2319.959a3.624,3.624,0,0,0,.124,1.079,0.907,0.907,0,0,0,1.225.69,1.885,1.885,0,0,0,1.258-1.027c0.015-.03.028-0.061,0.042-0.092,0.023-.05.041-0.122,0.112-0.1s0.043,0.1.022,0.158a2,2,0,0,1-.408.631,2.418,2.418,0,0,1-3.556-.261,1.952,1.952,0,0,1,1.129-2.959,2.344,2.344,0,0,1,1.761.173,0.531,0.531,0,0,0,.524-0.02c0.074-.039.147-0.082,0.22-0.123,0.17-.1.172-0.1,0.171,0.091a8.445,8.445,0,0,0,.07,1.155c0.01,0.075.064,0.19-.039,0.222s-0.107-.095-0.142-0.157a2.611,2.611,0,0,0-.84-1.007,1.726,1.726,0,0,0-.65-0.259,0.684,0.684,0,0,0-.768.38,2.623,2.623,0,0,0-.255,1.136C5807.948,2319.769,5807.953,2319.864,5807.953,2319.959Zm-0.927-.1c-0.106,0-.213,0-0.319,0a0.087,0.087,0,0,0-.108.105,0.09,0.09,0,0,0,.111.1q0.31-.005.621,0a0.09,0.09,0,0,0,.107-0.108,0.086,0.086,0,0,0-.11-0.1C5807.227,2319.861,5807.126,2319.858,5807.026,2319.858Zm0-.122c0.106,0,.213-0.005.318,0s0.094-.047.1-0.114a0.076,0.076,0,0,0-.091-0.1c-0.2,0-.391.007-0.587,0-0.123-.005-0.12.083-0.127,0.153-0.01.1,0.075,0.054,0.119,0.058C5806.843,2319.741,5806.933,2319.736,5807.022,2319.736Zm0.07,0.777c-0.089,0-.178,0-0.267,0s-0.113.027-.076,0.115a0.125,0.125,0,0,0,.142.083c0.156,0,.312,0,0.468,0,0.047,0,.12.031,0.112-0.07-0.006-.073-0.013-0.133-0.111-0.127S5807.181,2320.513,5807.092,2320.513Zm0-1.114h0.3c0.087,0,.068-0.07.078-0.121s0-.076-0.054-0.076c-0.19,0-.381,0-0.571,0a0.134,0.134,0,0,0-.113.159c0,0.065.079,0.031,0.123,0.035C5806.937,2319.4,5807.016,2319.4,5807.094,2319.4Zm-0.059.794c-0.1,0-.191,0-0.286,0-0.047,0-.125-0.027-0.11.074a0.109,0.109,0,0,0,.121.123c0.19-.007.381,0,0.571,0,0.058,0,.114.006,0.108-0.083,0-.069-0.014-0.119-0.1-0.114S5807.136,2320.192,5807.035,2320.192Zm-0.158.646a0.215,0.215,0,0,0,.254.193c0.1-.01.2,0,0.3,0,0.04,0,.114.03,0.105-0.058-0.007-.065-0.011-0.135-0.112-0.132C5807.249,2320.842,5807.071,2320.838,5806.877,2320.838Zm0.012-1.764c0.2,0,.392,0,0.583,0a0.114,0.114,0,0,0,.1-0.133c0.013-.089-0.066-0.052-0.1-0.054-0.111-.006-0.223.006-0.333,0A0.207,0.207,0,0,0,5806.889,2319.074Zm0.245-.317a3.453,3.453,0,0,1,.355,0,0.21,0.21,0,0,0,.265-0.2C5807.339,2318.521,5807.287,2318.536,5807.134,2318.757Zm0.569,2.593c-0.1-.212-0.248-0.251-0.573-0.171A0.519,0.519,0,0,0,5807.7,2321.35Zm0.4,0.381a0.535,0.535,0,0,0-.589-0.237A1.289,1.289,0,0,0,5808.1,2321.731Zm-0.538-3.317a0.469,0.469,0,0,0,.546-0.223A1.737,1.737,0,0,0,5807.561,2318.414Zm2.412,0.04a0.147,0.147,0,0,0,.158.112c0.059-.015.036-0.085,0.02-0.112C5810.106,2318.377,5810.049,2318.446,5809.973,2318.454Z" transform="translate(-5805.609 -2301.473)"/><path class="cls-1" d="M5844.926,2321.855c-0.464,0-.929,0-1.393,0-0.062,0-.152.024-0.155-0.077s0.091-.092.16-0.093c0.14,0,.28,0,0.42,0a0.286,0.286,0,0,0,.3-0.279,1.639,1.639,0,0,0,.017-0.234q0-1.192,0-2.384a1.671,1.671,0,0,0-.014-0.217,0.29,0.29,0,0,0-.315-0.3c-0.15-.011-0.3,0-0.453-0.006-0.06,0-.117-0.009-0.116-0.086s0.065-.077.121-0.077h2.837c0.057,0,.124,0,0.129.071s-0.06.093-.127,0.093c-0.129,0-.258,0-0.386,0a0.337,0.337,0,0,0-.388.394c-0.005.425,0,.851,0,1.276s0,0.873,0,1.309a0.359,0.359,0,0,0,.438.443h0.319c0.07,0,.148,0,0.144.1s-0.081.076-.142,0.076h-1.393Zm-0.144-1.663c-0.083,0-.167,0-0.25,0a0.1,0.1,0,1,0,0,.209q0.241-.006.482,0a0.1,0.1,0,1,0,0-.209C5844.938,2320.195,5844.86,2320.191,5844.783,2320.191Zm0.4-1.925h-0.854a0.235,0.235,0,0,0,.278.2,1.546,1.546,0,0,1,.35,0A0.172,0.172,0,0,0,5845.186,2318.266Zm0,3.412a0.165,0.165,0,0,0-.211-0.195,1.941,1.941,0,0,1-.383,0,0.205,0.205,0,0,0-.248.195h0.843Zm-0.411-2.248c0.084,0,.167,0,0.251,0a0.081,0.081,0,0,0,.1-0.1,0.086,0.086,0,0,0-.1-0.108c-0.162,0-.323,0-0.485,0a0.1,0.1,0,1,0,.005.2C5844.618,2319.428,5844.7,2319.431,5844.774,2319.43Zm-0.013-.325c0.084,0,.167,0,0.251,0s0.115-.009.113-0.1a0.089,0.089,0,0,0-.109-0.105c-0.161,0-.323,0-0.484,0a0.089,0.089,0,0,0-.1.11,0.08,0.08,0,0,0,.1.094C5844.6,2319.1,5844.683,2319.105,5844.761,2319.105Zm0.024-.316c0.078,0,.157,0,0.235,0s0.105-.031.1-0.109a0.082,0.082,0,0,0-.1-0.1q-0.251,0-.5,0a0.083,0.083,0,0,0-.1.1,0.086,0.086,0,0,0,.107.107C5844.617,2318.785,5844.7,2318.789,5844.785,2318.789Zm-0.023,1.926c0.084,0,.168,0,0.252,0a0.086,0.086,0,0,0,.11-0.1,0.082,0.082,0,0,0-.1-0.1q-0.252,0-.5,0c-0.077,0-.092.036-0.093,0.1a0.08,0.08,0,0,0,.1.095C5844.605,2320.712,5844.684,2320.715,5844.762,2320.715Zm0.015-.642c0.078,0,.156,0,0.234,0s0.114-.013.113-0.1a0.088,0.088,0,0,0-.107-0.106q-0.243.006-.485,0a0.087,0.087,0,0,0-.1.108,0.081,0.081,0,0,0,.1.1C5844.609,2320.07,5844.693,2320.073,5844.777,2320.073Zm0,0.77c-0.078,0-.156,0-0.234,0s-0.117.006-.116,0.1a0.089,0.089,0,0,0,.113.1c0.156,0,.313,0,0.469,0,0.07,0,.116-0.008.116-0.1a0.087,0.087,0,0,0-.112-0.1C5844.934,2320.846,5844.855,2320.843,5844.777,2320.843Zm0.005-1.3c-0.084,0-.168,0-0.251,0s-0.106.031-.1,0.109a0.083,0.083,0,0,0,.1.1q0.251,0,.5,0a0.083,0.083,0,0,0,.1-0.1,0.086,0.086,0,0,0-.107-0.106C5844.939,2319.55,5844.861,2319.546,5844.782,2319.546Zm-0.01,1.815c0.083,0,.167,0,0.25,0a0.1,0.1,0,0,0,.006-0.2q-0.25,0-.5,0a0.1,0.1,0,0,0-.006.2C5844.606,2321.359,5844.689,2321.361,5844.772,2321.361Z" transform="translate(-5805.609 -2301.473)"/><path class="cls-1" d="M5860.03,2321.855c-0.459,0-.918,0-1.377,0-0.066,0-.165.03-0.16-0.088,0-.1.09-0.081,0.155-0.082,0.14,0,.28,0,0.42,0a0.286,0.286,0,0,0,.307-0.29,3.341,3.341,0,0,0,.011-0.352q0-1.108,0-2.216c0-.514-0.05-0.563-0.571-0.563h-0.185c-0.062,0-.134.006-0.137-0.082s0.072-.082.132-0.082h0.722q1.032,0,2.065,0c0.065,0,.168-0.033.165,0.082s-0.1.079-.17,0.081c-0.123,0-.246,0-0.369,0a0.315,0.315,0,0,0-.354.354c-0.01.235-.009,0.47-0.009,0.7,0,0.666,0,1.332.009,2a0.319,0.319,0,0,0,.377.363c0.112,0,.224,0,0.336,0,0.074,0,.181-0.024.18,0.092s-0.1.078-.171,0.078C5860.948,2321.856,5860.489,2321.855,5860.03,2321.855Zm-0.148-.493c0.089,0,.179,0,0.268,0a0.1,0.1,0,0,0,0-.2c-0.167,0-.335,0-0.5,0-0.064,0-.105.01-0.106,0.09s0.023,0.114.1,0.109S5859.8,2321.362,5859.882,2321.362Zm0.027-1.816c-0.089,0-.179,0-0.268,0a0.081,0.081,0,0,0-.1.1,0.088,0.088,0,0,0,.1.111c0.162,0,.324,0,0.486,0,0.071,0,.113-0.009.115-0.1a0.092,0.092,0,0,0-.12-0.11C5860.055,2319.55,5859.982,2319.546,5859.909,2319.546Zm0.4-1.273h-0.842a0.216,0.216,0,0,0,.278.194,1.7,1.7,0,0,1,.333,0A0.174,0.174,0,0,0,5860.3,2318.273Zm0,3.406a0.17,0.17,0,0,0-.213-0.2,1.786,1.786,0,0,1-.366,0,0.212,0.212,0,0,0-.265.2h0.844Zm-0.412-2.89c0.084,0,.167,0,0.251,0s0.1-.037.1-0.111a0.081,0.081,0,0,0-.1-0.1c-0.167,0-.334,0-0.5,0-0.084,0-.1.037-0.1,0.112a0.081,0.081,0,0,0,.1.1C5859.726,2318.786,5859.81,2318.789,5859.894,2318.789Zm0.015,1.4c-0.095,0-.189,0-0.284,0s-0.08.056-.081,0.114a0.075,0.075,0,0,0,.086.092c0.173,0,.345,0,0.518,0a0.081,0.081,0,0,0,.1-0.1c0-.076-0.019-0.115-0.1-0.11S5859.987,2320.192,5859.909,2320.193Zm0-.323c-0.089,0-.178,0-0.267,0a0.081,0.081,0,0,0-.1.1,0.087,0.087,0,0,0,.1.108c0.167,0,.334,0,0.5,0a0.081,0.081,0,0,0,.1-0.1c0-.077-0.021-0.114-0.1-0.108S5859.986,2319.87,5859.908,2319.87Zm-0.011-.642c-0.078,0-.156,0-0.234,0s-0.124.011-.122,0.107,0.046,0.1.117,0.1c0.156,0,.312,0,0.467,0,0.081,0,.122-0.015.121-0.109s-0.047-.1-0.116-0.1S5859.975,2319.228,5859.9,2319.228Zm0.006,1.615c-0.078,0-.156,0-0.234,0s-0.13,0-.127.1,0.051,0.1.119,0.1q0.234,0,.468,0c0.068,0,.115,0,0.118-0.1s-0.053-.1-0.126-0.1S5859.975,2320.843,5859.9,2320.843Zm-0.023-.128c0.089,0,.179,0,0.268,0a0.079,0.079,0,0,0,.1-0.1c0-.068-0.016-0.1-0.093-0.1-0.167,0-.335,0-0.5,0a0.088,0.088,0,0,0-.108.106,0.08,0.08,0,0,0,.1.092C5859.723,2320.713,5859.8,2320.715,5859.88,2320.715Zm0.012-1.609c0.083,0,.167,0,0.25,0,0.063,0,.107-0.007.1-0.088s-0.01-.117-0.1-0.115c-0.167,0-.333,0-0.5,0a0.089,0.089,0,0,0-.106.109,0.079,0.079,0,0,0,.1.094C5859.725,2319.1,5859.808,2319.105,5859.892,2319.105Z" transform="translate(-5805.609 -2301.473)"/><path class="cls-1" d="M5822.282,2307.1q0-2.637,0-5.274c0-.128.027-0.187,0.166-0.171a0.087,0.087,0,0,1,.1.1c0,0.045,0,.09,0,0.134q0,5.072,0,10.144c0,0.271-.026.238,0.246,0.238h3.258c0.075,0,.16-0.023.161,0.106,0,0.11-.021.174-0.146,0.156a0.717,0.717,0,0,0-.1,0h-3.393c-0.288,0-.288,0-0.288-0.3V2307.1Z" transform="translate(-5805.609 -2301.473)"/><path class="cls-1" d="M5842.441,2307.106q0-2.637,0-5.274c0-.127.026-0.189,0.166-0.172a0.087,0.087,0,0,1,.1.1c0,0.05,0,.1,0,0.151q0,5.073,0,10.146c0,0.22,0,.22.214,0.22h3.275c0.091,0,.178-0.017.175,0.128s-0.079.135-.175,0.135c-1.193,0-2.385,0-3.578,0a0.144,0.144,0,0,1-.177-0.179Q5842.445,2309.735,5842.441,2307.106Z" transform="translate(-5805.609 -2301.473)"/><path class="cls-1" d="M5837.432,2307.1q0-2.636,0-5.272c0-.129.029-0.187,0.167-0.171a0.087,0.087,0,0,1,.1.1c0,0.045,0,.09,0,0.134q0,5.079,0,10.158c0,0.225,0,.225.227,0.225h2.989c0.084,0,.181-0.031.182,0.12s-0.083.142-.184,0.142c-1.1,0-2.194,0-3.291,0-0.146,0-.189-0.035-0.188-0.186C5837.434,2310.606,5837.432,2308.854,5837.432,2307.1Z" transform="translate(-5805.609 -2301.473)"/><path class="cls-1" d="M5871.341,2311.832a2.165,2.165,0,0,1-1.288.681,8.66,8.66,0,0,1-1.107.026c-0.448.006-.9,0-1.344,0a0.134,0.134,0,0,1-.162-0.165q0-5.283,0-10.566c0-.1.013-0.152,0.134-0.154,0.145,0,.13.082,0.13,0.174q0,5.1,0,10.2c0,0.284-.032.249,0.251,0.25,0.582,0,1.165-.014,1.747,0A2.506,2.506,0,0,0,5871.341,2311.832Z" transform="translate(-5805.609 -2301.473)"/><path class="cls-1" d="M5833.441,2307.874c0-1.472,0-2.944,0-4.416,0-.15-0.033-0.207-0.193-0.2-0.285.013-.571,0-0.856,0.006a0.109,0.109,0,0,1-.137-0.132q0.007-.672,0-1.343c0-.108.042-0.128,0.138-0.131,0.112,0,.128.049,0.127,0.143,0,0.347,0,.694,0,1.041a0.129,0.129,0,0,0,.161.161c0.291-.009.582,0,0.873-0.005a0.123,0.123,0,0,1,.152.152c0,0.683,0,1.366,0,2.048q0,3.425,0,6.85c0,0.229,0,.229.221,0.229,0.336,0,.672,0,1.007,0,0.091,0,.159,0,0.161.127s-0.07.138-.168,0.137c-0.437,0-.873-0.007-1.31,0-0.146,0-.176-0.052-0.176-0.186Q5833.444,2310.116,5833.441,2307.874Z" transform="translate(-5805.609 -2301.473)"/><path class="cls-1" d="M5858.2,2312.54c-0.207,0-.414,0-0.621,0a0.128,0.128,0,0,1-.151-0.133q-0.219-1.6-.443-3.2c-0.151-1.078-.306-2.156-0.458-3.235-0.13-.924-0.255-1.848-0.384-2.771-0.065-.465-0.134-0.928-0.2-1.393-0.007-.051-0.071-0.145.06-0.143,0.1,0,.218-0.04.236,0.13,0.028,0.272.068,0.543,0.106,0.814q0.211,1.5.423,3c0.152,1.084.3,2.168,0.454,3.252,0.127,0.9.259,1.8,0.388,2.7,0.027,0.188.058,0.376,0.073,0.565a0.137,0.137,0,0,0,.168.149c0.325-.006.649,0,0.974,0,0.068,0,.152-0.023.147,0.1,0,0.1-.026.168-0.152,0.163C5858.616,2312.534,5858.409,2312.54,5858.2,2312.54Z" transform="translate(-5805.609 -2301.473)"/><path class="cls-1" d="M5810.278,2312.54c-0.207,0-.414,0-0.621,0a0.123,0.123,0,0,1-.147-0.133q-0.2-1.588-.4-3.175c-0.141-1.1-.286-2.193-0.426-3.29s-0.277-2.195-.415-3.292q-0.053-.424-0.11-0.847c-0.009-.066-0.044-0.144.071-0.14,0.086,0,.2-0.043.214,0.112,0.039,0.35.087,0.7,0.132,1.047q0.181,1.4.361,2.809c0.128,1.008.253,2.017,0.383,3.026,0.116,0.9.237,1.805,0.354,2.708q0.048,0.374.087,0.749a0.155,0.155,0,0,0,.189.167c0.324-.011.649,0,0.974,0,0.076,0,.148-0.007.139,0.109-0.007.1-.024,0.159-0.143,0.155C5810.7,2312.535,5810.49,2312.54,5810.278,2312.54Z" transform="translate(-5805.609 -2301.473)"/><path class="cls-1" d="M5849.469,2309.695c0,0.789,0,1.578,0,2.367,0,0.164.034,0.227,0.212,0.22,0.346-.015.694,0,1.041-0.005,0.094,0,.158,0,0.157.129s-0.051.136-.152,0.136c-0.442,0-.884-0.007-1.326,0-0.141,0-.179-0.04-0.178-0.179,0.005-1.086,0-2.171,0-3.257a7.412,7.412,0,0,1,0-.755,4.968,4.968,0,0,0-.345-2c-0.465-1.5-.92-3-1.377-4.506-0.017-.057-0.1-0.135,0-0.181a0.226,0.226,0,0,1,.3.106q0.15,0.48.3,0.961,0.651,2.133,1.3,4.266a1.313,1.313,0,0,1,.061.395C5849.468,2308.161,5849.469,2308.928,5849.469,2309.695Z" transform="translate(-5805.609 -2301.473)"/><path class="cls-1" d="M5862.2,2302.234a2.259,2.259,0,0,0-.381,1.253q0,3.367,0,6.733a2.263,2.263,0,0,0,3.36,1.961,0.093,0.093,0,0,1,.093-0.025c0.019,0.05-.025.068-0.052,0.088a2.271,2.271,0,0,1-3.635-1.415,2.31,2.31,0,0,1-.03-0.434q0-3.35,0-6.7a2.231,2.231,0,0,1,.518-1.388A0.149,0.149,0,0,1,5862.2,2302.234Z" transform="translate(-5805.609 -2301.473)"/><path class="cls-1" d="M5873.583,2306.973c0,1.7,0,3.4,0,5.1,0,0.161.039,0.21,0.2,0.2,0.358-.013.716,0,1.074-0.005,0.085,0,.138.013,0.135,0.117s-0.016.148-.128,0.148q-0.705-.005-1.41,0a0.111,0.111,0,0,1-.133-0.141c0-.022,0-0.045,0-0.067q0-5.238,0-10.476c0-.069-0.058-0.177.085-0.2s0.178,0.035.178,0.175Q5873.579,2304.4,5873.583,2306.973Z" transform="translate(-5805.609 -2301.473)"/><path class="cls-1" d="M5816.4,2307.1q0-2.627,0-5.255c0-.062-0.047-0.159.064-0.18s0.186-.005.183,0.149c-0.009.6,0,1.209,0,1.813q0,4.222,0,8.445c0,0.177.051,0.215,0.216,0.209,0.347-.012.694,0,1.041,0,0.081,0,.156-0.01.154,0.114a0.122,0.122,0,0,1-.143.15c-0.459,0-.918-0.007-1.377,0-0.158,0-.132-0.095-0.132-0.188Q5816.4,2309.727,5816.4,2307.1Z" transform="translate(-5805.609 -2301.473)"/><path class="cls-1" d="M5828.128,2312.54c-0.252,0-.5,0-0.756,0-0.084,0-.121-0.018-0.105-0.116q0.239-1.514.471-3.03,0.265-1.722.527-3.445,0.224-1.457.452-2.914c0.063-.408.126-0.817,0.185-1.226,0.014-.094.037-0.161,0.153-0.148s0.079,0.107.07,0.166c-0.158,1.032-.32,2.064-0.48,3.1-0.165,1.065-.326,2.131-0.49,3.2q-0.24,1.557-.483,3.113c-0.047.3-.095,0.607-0.146,0.909-0.018.1,0.016,0.139,0.122,0.138q0.613-.007,1.226,0c0.049,0,.155-0.054.137,0.076-0.012.086,0.013,0.194-.145,0.186C5828.621,2312.531,5828.375,2312.54,5828.128,2312.54Z" transform="translate(-5805.609 -2301.473)"/><path class="cls-1" d="M5880.134,2312.54c-0.241,0-.481,0-0.722,0-0.1,0-.146-0.009-0.125-0.138,0.206-1.29.4-2.582,0.6-3.874s0.392-2.573.589-3.86q0.219-1.432.441-2.865c0.014-.092.04-0.163,0.157-0.143s0.07,0.114.062,0.172c-0.228,1.49-.462,2.98-0.691,4.47q-0.377,2.442-.75,4.885c-0.048.315-.093,0.63-0.15,0.943-0.021.115,0.006,0.149,0.121,0.147,0.409,0,.817,0,1.226,0,0.054,0,.157-0.041.134,0.083-0.014.078,0.011,0.186-.137,0.18C5880.638,2312.533,5880.386,2312.54,5880.134,2312.54Z" transform="translate(-5805.609 -2301.473)"/><path class="cls-1" d="M5819.525,2309.907c0,0.733,0,1.466,0,2.2a0.142,0.142,0,0,0,.18.175c0.363-.009.727,0,1.091,0,0.1,0,.141.024,0.139,0.131a0.116,0.116,0,0,1-.142.134c-0.453,0-.907-0.008-1.36,0-0.157,0-.168-0.069-0.168-0.193q0-2.123,0-4.247a1.023,1.023,0,0,1,0-.134c0.017-.131-0.031-0.177-0.167-0.171-0.223.011-.448,0-0.671,0a0.115,0.115,0,0,1-.143-0.133,0.11,0.11,0,0,1,.138-0.132c0.319,0,.638.007,0.957,0,0.121,0,.15.039,0.149,0.154C5819.523,2308.43,5819.525,2309.168,5819.525,2309.907Z" transform="translate(-5805.609 -2301.473)"/><path class="cls-1" d="M5875.263,2308.144c0.135,0.346.271,0.692,0.405,1.039,0.379,0.981.759,1.962,1.132,2.945a0.2,0.2,0,0,0,.232.153c0.386-.009.773,0,1.159,0a0.152,0.152,0,0,1,.169.074c0.082,0.161.07,0.187-.11,0.187-0.5,0-1,0-1.495,0a0.179,0.179,0,0,1-.2-0.134c-0.427-1.112-.865-2.22-1.284-3.335A2.354,2.354,0,0,1,5875.263,2308.144Z" transform="translate(-5805.609 -2301.473)"/><path class="cls-1" d="M5811.939,2307.515c0.041,0.309.083,0.617,0.124,0.926q0.183,1.4.365,2.806c0.038,0.293.079,0.586,0.107,0.881a0.137,0.137,0,0,0,.164.153c0.335-.006.671,0,1.007,0,0.052,0,.147-0.032.126,0.074-0.014.072,0.024,0.19-.128,0.188q-0.646-.009-1.292,0c-0.116,0-.124-0.074-0.134-0.151-0.059-.454-0.115-0.908-0.173-1.362-0.1-.808-0.206-1.616-0.313-2.424a3.237,3.237,0,0,1,.055-0.63c0.009-.155.044-0.309,0.067-0.463Z" transform="translate(-5805.609 -2301.473)"/><path class="cls-1" d="M5885.915,2307.585a0.693,0.693,0,0,1,.01-1.386,0.706,0.706,0,0,1,.693.7A0.7,0.7,0,0,1,5885.915,2307.585Z" transform="translate(-5805.609 -2301.473)"/><path class="cls-1" d="M5806.708,2307.585a0.693,0.693,0,1,1,.016-1.386A0.693,0.693,0,0,1,5806.708,2307.585Z" transform="translate(-5805.609 -2301.473)"/><path class="cls-1" d="M5819.525,2303.808c0,0.666,0,1.331,0,2,0,0.095,0,.156-0.13.156s-0.134-.055-0.134-0.153q0-2,0-3.994c0-.1.007-0.156,0.131-0.156s0.133,0.056.133,0.154C5819.524,2302.477,5819.525,2303.143,5819.525,2303.808Z" transform="translate(-5805.609 -2301.473)"/><path class="cls-1" d="M5831.221,2312.54c-0.241,0-.481,0-0.722,0a0.131,0.131,0,0,1-.156-0.142c-0.043-.354-0.1-0.707-0.145-1.061a0.139,0.139,0,0,0-.17-0.147c-0.173.01-.347,0-0.52,0-0.064,0-.114-0.011-0.1-0.091s-0.016-.165.092-0.168c0.291-.006.582,0,0.873,0,0.072,0,.071.055,0.078,0.105,0.053,0.364.112,0.728,0.157,1.093a0.139,0.139,0,0,0,.169.149c0.386,0,.772,0,1.158,0a0.137,0.137,0,0,1,.165.153c0.009,0.132-.077.11-0.153,0.111h-0.722Z" transform="translate(-5805.609 -2301.473)"/><path class="cls-1" d="M5883.231,2312.54c-0.241,0-.481,0-0.722,0a0.127,0.127,0,0,1-.151-0.133c-0.044-.355-0.1-0.708-0.14-1.063a0.14,0.14,0,0,0-.167-0.154c-0.173.008-.347,0-0.52,0-0.066,0-.13,0-0.115-0.1,0.011-.074,0-0.167.117-0.167,0.274,0,.548,0,0.822,0,0.086,0,.1.049,0.106,0.117,0.051,0.365.111,0.728,0.156,1.094a0.131,0.131,0,0,0,.158.139c0.392,0,.783,0,1.175,0a0.131,0.131,0,0,1,.157.154c0.007,0.133-.08.109-0.155,0.11C5883.712,2312.541,5883.472,2312.54,5883.231,2312.54Z" transform="translate(-5805.609 -2301.473)"/><path class="cls-1" d="M5858.56,2306.31a4.9,4.9,0,0,1-.053-1.69c0.079-.6.133-1.2,0.2-1.8q0.054-.507.106-1.015a0.135,0.135,0,0,1,.169-0.147,0.075,0.075,0,0,1,.079.1q-0.084.757-.167,1.513-0.113,1.031-.226,2.062C5858.632,2305.642,5858.6,2305.952,5858.56,2306.31Z" transform="translate(-5805.609 -2301.473)"/><path class="cls-1" d="M5813.37,2306.014a4.392,4.392,0,0,1-.084-1.667c0.074-.632.128-1.267,0.19-1.9,0.022-.228.049-0.456,0.065-0.684,0.008-.113.078-0.1,0.152-0.1,0.1,0,.088.065,0.082,0.127q-0.145,1.492-.291,2.985C5813.444,2305.178,5813.409,2305.583,5813.37,2306.014Z" transform="translate(-5805.609 -2301.473)"/><path class="cls-1" d="M5810.677,2305.956a4.456,4.456,0,0,1,.027-1.8q0.163-1.168.319-2.337c0.012-.087.01-0.169,0.136-0.163a0.084,0.084,0,0,1,.1.113Q5810.966,2303.861,5810.677,2305.956Z" transform="translate(-5805.609 -2301.473)"/><path class="cls-1" d="M5850.32,2304.335a1.09,1.09,0,0,1-.05-0.719c0.159-.581.293-1.169,0.437-1.754a0.67,0.67,0,0,1,.041-0.145,0.164,0.164,0,0,1,.209-0.049c0.081,0.013.033,0.079,0.023,0.122q-0.31,1.233-.623,2.466A0.575,0.575,0,0,1,5850.32,2304.335Z" transform="translate(-5805.609 -2301.473)"/><path class="cls-1" d="M5875.24,2304.2a0.944,0.944,0,0,1,.066-0.546c0.352-.611.689-1.23,1.033-1.845a0.45,0.45,0,0,1,.073-0.112,0.17,0.17,0,0,1,.2-0.016c0.053,0.032-.01.089-0.031,0.128q-0.634,1.154-1.273,2.307A0.773,0.773,0,0,1,5875.24,2304.2Z" transform="translate(-5805.609 -2301.473)"/><path class="cls-1" d="M5825.17,2303.247c-0.279,0-.559,0-0.838,0-0.09,0-.147-0.01-0.147-0.124s0.055-.125.146-0.125q0.855,0,1.71,0c0.082,0,.138.007,0.138,0.114a0.111,0.111,0,0,1-.136.135C5825.751,2303.243,5825.46,2303.247,5825.17,2303.247Z" transform="translate(-5805.609 -2301.473)"/><path class="cls-1" d="M5845.346,2303.247c-0.29,0-.581,0-0.871,0a0.125,0.125,0,1,1,0-.249q0.863,0,1.725,0c0.1,0,.141.024,0.139,0.131s-0.049.119-.135,0.118C5845.916,2303.245,5845.631,2303.247,5845.346,2303.247Z" transform="translate(-5805.609 -2301.473)"/><path class="cls-1" d="M5805.781,2306.677a0.978,0.978,0,0,0,1.2,1.143,0.772,0.772,0,0,1-1.052.026A0.842,0.842,0,0,1,5805.781,2306.677Z" transform="translate(-5805.609 -2301.473)"/><path class="cls-1" d="M5886.217,2307.807a0.8,0.8,0,0,1-1.037.073,0.828,0.828,0,0,1-.216-1.151,3.194,3.194,0,0,0,.031.319,0.93,0.93,0,0,0,1.141.766,0.66,0.66,0,0,1,.084,0Z" transform="translate(-5805.609 -2301.473)"/><path class="cls-1" d="M5809.8,2324.2a0.316,0.316,0,0,1-.329.326,0.326,0.326,0,0,1,0-.651A0.315,0.315,0,0,1,5809.8,2324.2Z" transform="translate(-5805.609 -2301.473)"/><path class="cls-1" d="M5883.657,2324.522a0.325,0.325,0,1,1,.328-0.315A0.325,0.325,0,0,1,5883.657,2324.522Z" transform="translate(-5805.609 -2301.473)"/><path class="cls-1" d="M5841.118,2324.19a0.325,0.325,0,0,1-.309.332,0.325,0.325,0,1,1-.012-0.65A0.323,0.323,0,0,1,5841.118,2324.19Z" transform="translate(-5805.609 -2301.473)"/><path class="cls-1" d="M5861.351,2324.189a0.328,0.328,0,0,1-.656.015A0.328,0.328,0,0,1,5861.351,2324.189Z" transform="translate(-5805.609 -2301.473)"/><path class="cls-1" d="M5869.271,2324.205a0.326,0.326,0,1,1-.325-0.334A0.328,0.328,0,0,1,5869.271,2324.205Z" transform="translate(-5805.609 -2301.473)"/><path class="cls-1" d="M5848.622,2315.452a0.326,0.326,0,0,1,.328.314A0.327,0.327,0,1,1,5848.622,2315.452Z" transform="translate(-5805.609 -2301.473)"/><path class="cls-1" d="M5879.131,2323.871a0.32,0.32,0,0,1,.325.331A0.324,0.324,0,1,1,5879.131,2323.871Z" transform="translate(-5805.609 -2301.473)"/><path class="cls-1" d="M5832.969,2324.522a0.326,0.326,0,1,1,.324-0.322A0.332,0.332,0,0,1,5832.969,2324.522Z" transform="translate(-5805.609 -2301.473)"/><path class="cls-1" d="M5810.593,2315.452a0.327,0.327,0,0,1,.327.315A0.327,0.327,0,1,1,5810.593,2315.452Z" transform="translate(-5805.609 -2301.473)"/><path class="cls-1" d="M5875.74,2323.871a0.323,0.323,0,0,1,.32.321,0.326,0.326,0,0,1-.329.331A0.326,0.326,0,1,1,5875.74,2323.871Z" transform="translate(-5805.609 -2301.473)"/><path class="cls-1" d="M5883.661,2315.452a0.325,0.325,0,1,1-.325.315A0.322,0.322,0,0,1,5883.661,2315.452Z" transform="translate(-5805.609 -2301.473)"/><path class="cls-1" d="M5821.787,2323.871a0.325,0.325,0,0,1-.013.65A0.325,0.325,0,1,1,5821.787,2323.871Z" transform="translate(-5805.609 -2301.473)"/><path class="cls-1" d="M5880.588,2315.769a0.324,0.324,0,1,1-.339-0.316A0.324,0.324,0,0,1,5880.588,2315.769Z" transform="translate(-5805.609 -2301.473)"/><path class="cls-1" d="M5872.345,2323.871a0.325,0.325,0,1,1-.33.313A0.33,0.33,0,0,1,5872.345,2323.871Z" transform="translate(-5805.609 -2301.473)"/><path class="cls-1" d="M5826.577,2315.774a0.325,0.325,0,0,1-.329.329A0.325,0.325,0,1,1,5826.577,2315.774Z" transform="translate(-5805.609 -2301.473)"/><path class="cls-1" d="M5848.95,2324.194a0.329,0.329,0,0,1-.316.328,0.326,0.326,0,1,1,0-.652A0.326,0.326,0,0,1,5848.95,2324.194Z" transform="translate(-5805.609 -2301.473)"/><path class="cls-1" d="M5865.542,2316.1a0.325,0.325,0,0,1,.015-0.65,0.321,0.321,0,0,1,.315.324A0.324,0.324,0,0,1,5865.542,2316.1Z" transform="translate(-5805.609 -2301.473)"/><path class="cls-1" d="M5817.311,2323.871a0.325,0.325,0,1,1-.331.327A0.323,0.323,0,0,1,5817.311,2323.871Z" transform="translate(-5805.609 -2301.473)"/><path class="cls-1" d="M5869.272,2315.775a0.326,0.326,0,1,1-.651,0A0.326,0.326,0,0,1,5869.272,2315.775Z" transform="translate(-5805.609 -2301.473)"/><path class="cls-1" d="M5806.12,2315.452a0.325,0.325,0,0,1,0,.651,0.328,0.328,0,0,1-.325-0.335A0.323,0.323,0,0,1,5806.12,2315.452Z" transform="translate(-5805.609 -2301.473)"/><path class="cls-1" d="M5882.209,2315.777a0.321,0.321,0,1,1,.641,0A0.321,0.321,0,1,1,5882.209,2315.777Z" transform="translate(-5805.609 -2301.473)"/><path class="cls-1" d="M5876.06,2315.779a0.324,0.324,0,0,1-.335.323,0.333,0.333,0,0,1-.316-0.328,0.328,0.328,0,0,1,.337-0.322A0.323,0.323,0,0,1,5876.06,2315.779Z" transform="translate(-5805.609 -2301.473)"/><path class="cls-1" d="M5825.129,2323.871a0.325,0.325,0,0,1,.011.65A0.325,0.325,0,0,1,5825.129,2323.871Z" transform="translate(-5805.609 -2301.473)"/><path class="cls-1" d="M5867.494,2315.768a0.314,0.314,0,0,1,.32-0.316A0.325,0.325,0,1,1,5867.494,2315.768Z" transform="translate(-5805.609 -2301.473)"/><path class="cls-1" d="M5813.948,2315.452a0.325,0.325,0,1,1,0,.651A0.325,0.325,0,1,1,5813.948,2315.452Z" transform="translate(-5805.609 -2301.473)"/><path class="cls-1" d="M5828.809,2324.2a0.313,0.313,0,0,1-.313.323,0.325,0.325,0,0,1-.013-0.65A0.313,0.313,0,0,1,5828.809,2324.2Z" transform="translate(-5805.609 -2301.473)"/><path class="cls-1" d="M5872.332,2315.452a0.326,0.326,0,1,1,.019.651A0.326,0.326,0,1,1,5872.332,2315.452Z" transform="translate(-5805.609 -2301.473)"/><path class="cls-1" d="M5818.417,2315.452a0.321,0.321,0,0,1,.331.325,0.327,0.327,0,0,1-.315.326A0.326,0.326,0,0,1,5818.417,2315.452Z" transform="translate(-5805.609 -2301.473)"/><path class="cls-1" d="M5806.918,2315.771a0.316,0.316,0,0,1,.318-0.319,0.323,0.323,0,0,1,.326.331,0.328,0.328,0,0,1-.321.32A0.318,0.318,0,0,1,5806.918,2315.771Z" transform="translate(-5805.609 -2301.473)"/><path class="cls-1" d="M5822.105,2315.782a0.325,0.325,0,1,1-.312-0.329A0.324,0.324,0,0,1,5822.105,2315.782Z" transform="translate(-5805.609 -2301.473)"/><path class="cls-1" d="M5851.975,2324.522a0.326,0.326,0,1,1,.331-0.315A0.332,0.332,0,0,1,5851.975,2324.522Z" transform="translate(-5805.609 -2301.473)"/><path class="cls-1" d="M5854.227,2323.871a0.325,0.325,0,1,1-.322.32A0.328,0.328,0,0,1,5854.227,2323.871Z" transform="translate(-5805.609 -2301.473)"/><path class="cls-1" d="M5857.954,2324.2a0.328,0.328,0,1,1-.335-0.326A0.333,0.333,0,0,1,5857.954,2324.2Z" transform="translate(-5805.609 -2301.473)"/><path class="cls-1" d="M5809.8,2315.778a0.317,0.317,0,0,1-.33.325,0.326,0.326,0,0,1,.019-0.651A0.314,0.314,0,0,1,5809.8,2315.778Z" transform="translate(-5805.609 -2301.473)"/><path class="cls-1" d="M5806.115,2324.522a0.325,0.325,0,1,1,.331-0.329A0.326,0.326,0,0,1,5806.115,2324.522Z" transform="translate(-5805.609 -2301.473)"/><path class="cls-1" d="M5840.789,2315.453a0.322,0.322,0,0,1,.33.311A0.326,0.326,0,1,1,5840.789,2315.453Z" transform="translate(-5805.609 -2301.473)"/><path class="cls-1" d="M5829.936,2324.193a0.327,0.327,0,1,1-.32-0.323A0.327,0.327,0,0,1,5829.936,2324.193Z" transform="translate(-5805.609 -2301.473)"/><path class="cls-1" d="M5844.149,2315.452a0.325,0.325,0,0,1,0,.651,0.329,0.329,0,0,1-.326-0.334A0.326,0.326,0,0,1,5844.149,2315.452Z" transform="translate(-5805.609 -2301.473)"/><path class="cls-1" d="M5836.317,2324.522a0.325,0.325,0,1,1,0-.651A0.325,0.325,0,0,1,5836.317,2324.522Z" transform="translate(-5805.609 -2301.473)"/><path class="cls-1" d="M5882.209,2324.189a0.314,0.314,0,0,1,.318-0.318A0.325,0.325,0,1,1,5882.209,2324.189Z" transform="translate(-5805.609 -2301.473)"/><path class="cls-1" d="M5865.872,2324.189a0.322,0.322,0,0,1-.324.332,0.325,0.325,0,0,1-.014-0.65A0.322,0.322,0,0,1,5865.872,2324.189Z" transform="translate(-5805.609 -2301.473)"/><path class="cls-1" d="M5837.121,2324.187a0.312,0.312,0,0,1,.32-0.316,0.325,0.325,0,0,1,0,.65A0.315,0.315,0,0,1,5837.121,2324.187Z" transform="translate(-5805.609 -2301.473)"/><path class="cls-1" d="M5879.456,2315.778a0.323,0.323,0,1,1-.314-0.326A0.322,0.322,0,0,1,5879.456,2315.778Z" transform="translate(-5805.609 -2301.473)"/><path class="cls-1" d="M5877.192,2315.779a0.323,0.323,0,0,1-.333.323,0.325,0.325,0,1,1,.022-0.65A0.319,0.319,0,0,1,5877.192,2315.779Z" transform="translate(-5805.609 -2301.473)"/><path class="cls-1" d="M5880.258,2323.871a0.325,0.325,0,1,1-.316.324A0.325,0.325,0,0,1,5880.258,2323.871Z" transform="translate(-5805.609 -2301.473)"/><path class="cls-1" d="M5845.268,2324.522a0.326,0.326,0,0,1,0-.651A0.326,0.326,0,1,1,5845.268,2324.522Z" transform="translate(-5805.609 -2301.473)"/><path class="cls-1" d="M5867.494,2324.2a0.315,0.315,0,0,1,.3-0.332,0.325,0.325,0,1,1,.014.65A0.315,0.315,0,0,1,5867.494,2324.2Z" transform="translate(-5805.609 -2301.473)"/><path class="cls-1" d="M5844.474,2324.2a0.323,0.323,0,0,1-.317.324,0.325,0.325,0,1,1,0-.65A0.324,0.324,0,0,1,5844.474,2324.2Z" transform="translate(-5805.609 -2301.473)"/><path class="cls-1" d="M5837.121,2315.778a0.313,0.313,0,0,1,.31-0.325,0.325,0.325,0,1,1,0,.65A0.314,0.314,0,0,1,5837.121,2315.778Z" transform="translate(-5805.609 -2301.473)"/><path class="cls-1" d="M5854.556,2315.783a0.326,0.326,0,1,1-.311-0.331A0.329,0.329,0,0,1,5854.556,2315.783Z" transform="translate(-5805.609 -2301.473)"/><path class="cls-1" d="M5852.307,2315.782a0.328,0.328,0,1,1-.315-0.33A0.332,0.332,0,0,1,5852.307,2315.782Z" transform="translate(-5805.609 -2301.473)"/><path class="cls-1" d="M5828.809,2315.785a0.316,0.316,0,0,1-.318.318,0.326,0.326,0,0,1-.323-0.334,0.321,0.321,0,0,1,.322-0.317A0.313,0.313,0,0,1,5828.809,2315.785Z" transform="translate(-5805.609 -2301.473)"/><path class="cls-1" d="M5857.632,2315.452a0.325,0.325,0,1,1-.332.311A0.334,0.334,0,0,1,5857.632,2315.452Z" transform="translate(-5805.609 -2301.473)"/><path class="cls-1" d="M5858.751,2316.1a0.326,0.326,0,1,1,.014-0.651,0.324,0.324,0,0,1,.317.34A0.328,0.328,0,0,1,5858.751,2316.1Z" transform="translate(-5805.609 -2301.473)"/><path class="cls-1" d="M5842.239,2315.773a0.325,0.325,0,1,1-.65.008,0.324,0.324,0,0,1,.329-0.329A0.327,0.327,0,0,1,5842.239,2315.773Z" transform="translate(-5805.609 -2301.473)"/><path class="cls-1" d="M5861.351,2315.77a0.328,0.328,0,0,1-.656.014,0.328,0.328,0,0,1,.329-0.332A0.334,0.334,0,0,1,5861.351,2315.77Z" transform="translate(-5805.609 -2301.473)"/><path class="cls-1" d="M5862.147,2316.1a0.325,0.325,0,1,1,.014-0.65A0.325,0.325,0,0,1,5862.147,2316.1Z" transform="translate(-5805.609 -2301.473)"/><path class="cls-1" d="M5825.458,2315.773a0.323,0.323,0,0,1-.328.33,0.33,0.33,0,0,1-.32-0.323A0.324,0.324,0,1,1,5825.458,2315.773Z" transform="translate(-5805.609 -2301.473)"/><path class="cls-1" d="M5864.413,2315.452a0.326,0.326,0,1,1-.318.323A0.323,0.323,0,0,1,5864.413,2315.452Z" transform="translate(-5805.609 -2301.473)"/><path class="cls-1" d="M5823.223,2315.774a0.324,0.324,0,1,1-.648.007,0.318,0.318,0,0,1,.328-0.328A0.324,0.324,0,0,1,5823.223,2315.774Z" transform="translate(-5805.609 -2301.473)"/><path class="cls-1" d="M5845.6,2315.777a0.331,0.331,0,0,1-.336.326,0.325,0.325,0,0,1-.316-0.327,0.322,0.322,0,0,1,.333-0.324A0.328,0.328,0,0,1,5845.6,2315.777Z" transform="translate(-5805.609 -2301.473)"/><path class="cls-1" d="M5810.594,2324.522a0.325,0.325,0,1,1,.327-0.317A0.33,0.33,0,0,1,5810.594,2324.522Z" transform="translate(-5805.609 -2301.473)"/><path class="cls-1" d="M5806.918,2324.182a0.316,0.316,0,0,1,.327-0.311,0.326,0.326,0,0,1-.012.651A0.319,0.319,0,0,1,5806.918,2324.182Z" transform="translate(-5805.609 -2301.473)"/><path class="cls-1" d="M5840,2315.772a0.321,0.321,0,0,1-.325.331,0.325,0.325,0,0,1,.006-0.651A0.317,0.317,0,0,1,5840,2315.772Z" transform="translate(-5805.609 -2301.473)"/><path class="cls-1" d="M5864.745,2324.193a0.325,0.325,0,1,1-.651.006,0.323,0.323,0,0,1,.313-0.328A0.327,0.327,0,0,1,5864.745,2324.193Z" transform="translate(-5805.609 -2301.473)"/><path class="cls-1" d="M5833.764,2315.772a0.315,0.315,0,0,1,.317-0.32A0.326,0.326,0,1,1,5833.764,2315.772Z" transform="translate(-5805.609 -2301.473)"/><path class="cls-1" d="M5833.292,2315.775a0.328,0.328,0,1,1-.323-0.323A0.331,0.331,0,0,1,5833.292,2315.775Z" transform="translate(-5805.609 -2301.473)"/><path class="cls-1" d="M5829.935,2315.779a0.327,0.327,0,1,1-.316-0.327A0.326,0.326,0,0,1,5829.935,2315.779Z" transform="translate(-5805.609 -2301.473)"/><path class="cls-1" d="M5852.779,2324.19a0.315,0.315,0,0,1,.319-0.318,0.325,0.325,0,1,1-.013.65A0.318,0.318,0,0,1,5852.779,2324.19Z" transform="translate(-5805.609 -2301.473)"/><path class="cls-1" d="M5838.881,2324.191a0.324,0.324,0,1,1-.337-0.32A0.325,0.325,0,0,1,5838.881,2324.191Z" transform="translate(-5805.609 -2301.473)"/><path class="cls-1" d="M5841.589,2324.193a0.325,0.325,0,0,1,.65.006A0.325,0.325,0,1,1,5841.589,2324.193Z" transform="translate(-5805.609 -2301.473)"/><path class="cls-1" d="M5817.631,2315.775a0.326,0.326,0,1,1-.652,0A0.326,0.326,0,0,1,5817.631,2315.775Z" transform="translate(-5805.609 -2301.473)"/><path class="cls-1" d="M5820.983,2324.2a0.322,0.322,0,0,1-.314.326,0.328,0.328,0,0,1-.334-0.325,0.324,0.324,0,0,1,.333-0.325A0.319,0.319,0,0,1,5820.983,2324.2Z" transform="translate(-5805.609 -2301.473)"/><path class="cls-1" d="M5813.152,2315.78a0.323,0.323,0,0,1-.317.323,0.326,0.326,0,1,1,.007-0.651A0.317,0.317,0,0,1,5813.152,2315.78Z" transform="translate(-5805.609 -2301.473)"/><path class="cls-1" d="M5813.152,2324.2a0.321,0.321,0,0,1-.32.319,0.325,0.325,0,1,1,.014-0.65A0.318,0.318,0,0,1,5813.152,2324.2Z" transform="translate(-5805.609 -2301.473)"/><path class="cls-1" d="M5826.251,2324.522a0.326,0.326,0,1,1,.326-0.315A0.324,0.324,0,0,1,5826.251,2324.522Z" transform="translate(-5805.609 -2301.473)"/><path class="cls-1" d="M5873.8,2315.771a0.325,0.325,0,1,1-.322-0.319A0.323,0.323,0,0,1,5873.8,2315.771Z" transform="translate(-5805.609 -2301.473)"/><path class="cls-1" d="M5813.943,2323.871a0.325,0.325,0,1,1-.32.323A0.328,0.328,0,0,1,5813.943,2323.871Z" transform="translate(-5805.609 -2301.473)"/><path class="cls-1" d="M5824.34,2324.19a0.324,0.324,0,1,1-.322-0.319A0.326,0.326,0,0,1,5824.34,2324.19Z" transform="translate(-5805.609 -2301.473)"/><path class="cls-1" d="M5874.6,2316.1a0.325,0.325,0,0,1-.316-0.341,0.324,0.324,0,1,1,.646.03A0.326,0.326,0,0,1,5874.6,2316.1Z" transform="translate(-5805.609 -2301.473)"/><path class="cls-1" d="M5820.662,2316.1a0.326,0.326,0,0,1,0-.651,0.321,0.321,0,0,1,.325.332A0.325,0.325,0,0,1,5820.662,2316.1Z" transform="translate(-5805.609 -2301.473)"/><path class="cls-1" d="M5873.8,2324.191a0.325,0.325,0,1,1-.321-0.32A0.328,0.328,0,0,1,5873.8,2324.191Z" transform="translate(-5805.609 -2301.473)"/><path class="cls-1" d="M5824.021,2315.452a0.323,0.323,0,0,1,.319.321A0.324,0.324,0,1,1,5824.021,2315.452Z" transform="translate(-5805.609 -2301.473)"/><path class="cls-1" d="M5840,2324.217a0.318,0.318,0,0,1-.334.3,0.325,0.325,0,0,1,.025-0.65A0.319,0.319,0,0,1,5840,2324.217Z" transform="translate(-5805.609 -2301.473)"/><path class="cls-1" d="M5859.883,2316.1a0.327,0.327,0,0,1-.319-0.34A0.324,0.324,0,1,1,5859.883,2316.1Z" transform="translate(-5805.609 -2301.473)"/><path class="cls-1" d="M5808.682,2315.777a0.325,0.325,0,1,1-.649,0,0.321,0.321,0,0,1,.331-0.325A0.326,0.326,0,0,1,5808.682,2315.777Z" transform="translate(-5805.609 -2301.473)"/><path class="cls-1" d="M5855.685,2324.193a0.324,0.324,0,1,1-.319-0.321A0.325,0.325,0,0,1,5855.685,2324.193Z" transform="translate(-5805.609 -2301.473)"/><path class="cls-1" d="M5856.175,2315.78a0.312,0.312,0,0,1,.309-0.327,0.325,0.325,0,1,1,.006.651A0.318,0.318,0,0,1,5856.175,2315.78Z" transform="translate(-5805.609 -2301.473)"/><path class="cls-1" d="M5822.575,2324.188a0.321,0.321,0,0,1,.322-0.317A0.326,0.326,0,1,1,5822.575,2324.188Z" transform="translate(-5805.609 -2301.473)"/><path class="cls-1" d="M5859.083,2324.2a0.325,0.325,0,1,1-.314-0.327A0.328,0.328,0,0,1,5859.083,2324.2Z" transform="translate(-5805.609 -2301.473)"/><path class="cls-1" d="M5884.794,2323.871a0.324,0.324,0,0,1,.322.318,0.325,0.325,0,1,1-.649,0A0.324,0.324,0,0,1,5884.794,2323.871Z" transform="translate(-5805.609 -2301.473)"/><path class="cls-1" d="M5863.287,2323.871a0.325,0.325,0,0,1-.006.651A0.325,0.325,0,0,1,5863.287,2323.871Z" transform="translate(-5805.609 -2301.473)"/><path class="cls-1" d="M5853.1,2316.1a0.322,0.322,0,0,1-.321-0.318,0.316,0.316,0,0,1,.321-0.333A0.325,0.325,0,0,1,5853.1,2316.1Z" transform="translate(-5805.609 -2301.473)"/><path class="cls-1" d="M5876.87,2324.522a0.325,0.325,0,1,1,0-.651A0.325,0.325,0,0,1,5876.87,2324.522Z" transform="translate(-5805.609 -2301.473)"/><path class="cls-1" d="M5851.18,2315.774a0.319,0.319,0,0,1-.324.329,0.322,0.322,0,0,1-.317-0.323,0.317,0.317,0,0,1,.327-0.327A0.313,0.313,0,0,1,5851.18,2315.774Z" transform="translate(-5805.609 -2301.473)"/><path class="cls-1" d="M5870.074,2324.522a0.328,0.328,0,0,1-.322-0.321,0.324,0.324,0,1,1,.648.005A0.33,0.33,0,0,1,5870.074,2324.522Z" transform="translate(-5805.609 -2301.473)"/><path class="cls-1" d="M5816.508,2324.189a0.322,0.322,0,0,1-.324.332,0.325,0.325,0,0,1,0-.65A0.321,0.321,0,0,1,5816.508,2324.189Z" transform="translate(-5805.609 -2301.473)"/><path class="cls-1" d="M5835.2,2324.522a0.325,0.325,0,0,1,0-.651A0.325,0.325,0,0,1,5835.2,2324.522Z" transform="translate(-5805.609 -2301.473)"/><path class="cls-1" d="M5881.077,2315.772a0.316,0.316,0,0,1,.316-0.32,0.32,0.32,0,0,1,.325.329,0.325,0.325,0,0,1-.319.321A0.318,0.318,0,0,1,5881.077,2315.772Z" transform="translate(-5805.609 -2301.473)"/><path class="cls-1" d="M5871.2,2315.453a0.32,0.32,0,0,1,.327.311,0.324,0.324,0,0,1-.317.34,0.317,0.317,0,0,1-.324-0.313A0.313,0.313,0,0,1,5871.2,2315.453Z" transform="translate(-5805.609 -2301.473)"/><path class="cls-1" d="M5885.606,2315.779a0.313,0.313,0,0,1,.324-0.327,0.32,0.32,0,0,1,.316.322,0.325,0.325,0,0,1-.311.328A0.318,0.318,0,0,1,5885.606,2315.779Z" transform="translate(-5805.609 -2301.473)"/><path class="cls-1" d="M5814.749,2315.782a0.321,0.321,0,1,1,.641-0.011A0.321,0.321,0,1,1,5814.749,2315.782Z" transform="translate(-5805.609 -2301.473)"/><path class="cls-1" d="M5847.822,2315.772a0.314,0.314,0,0,1-.321.331,0.327,0.327,0,0,1-.32-0.321,0.322,0.322,0,0,1,.326-0.33A0.311,0.311,0,0,1,5847.822,2315.772Z" transform="translate(-5805.609 -2301.473)"/><path class="cls-1" d="M5867,2315.776a0.322,0.322,0,1,1-.644,0A0.322,0.322,0,1,1,5867,2315.776Z" transform="translate(-5805.609 -2301.473)"/><path class="cls-1" d="M5836.642,2315.777a0.322,0.322,0,0,1-.315.326,0.329,0.329,0,0,1-.333-0.326,0.326,0.326,0,0,1,.334-0.325A0.321,0.321,0,0,1,5836.642,2315.777Z" transform="translate(-5805.609 -2301.473)"/><path class="cls-1" d="M5835.523,2315.783a0.322,0.322,0,0,1-.336.319,0.325,0.325,0,0,1,.029-0.65A0.317,0.317,0,0,1,5835.523,2315.783Z" transform="translate(-5805.609 -2301.473)"/><path class="cls-1" d="M5832.165,2315.782a0.322,0.322,0,0,1-.317.321,0.33,0.33,0,0,1-.328-0.331,0.325,0.325,0,0,1,.338-0.319A0.313,0.313,0,0,1,5832.165,2315.782Z" transform="translate(-5805.609 -2301.473)"/><path class="cls-1" d="M5830.722,2316.1a0.324,0.324,0,0,1-.316-0.341,0.319,0.319,0,0,1,.329-0.309A0.325,0.325,0,0,1,5830.722,2316.1Z" transform="translate(-5805.609 -2301.473)"/><path class="cls-1" d="M5863.607,2315.769a0.323,0.323,0,1,1-.322-0.317A0.322,0.322,0,0,1,5863.607,2315.769Z" transform="translate(-5805.609 -2301.473)"/><path class="cls-1" d="M5862.144,2323.871a0.325,0.325,0,0,1,.018.65A0.325,0.325,0,1,1,5862.144,2323.871Z" transform="translate(-5805.609 -2301.473)"/><path class="cls-1" d="M5859.893,2324.522a0.326,0.326,0,0,1-.008-0.651A0.326,0.326,0,0,1,5859.893,2324.522Z" transform="translate(-5805.609 -2301.473)"/><path class="cls-1" d="M5856.175,2324.193a0.312,0.312,0,0,1,.315-0.321,0.325,0.325,0,1,1-.007.65A0.315,0.315,0,0,1,5856.175,2324.193Z" transform="translate(-5805.609 -2301.473)"/><path class="cls-1" d="M5849.747,2315.452a0.325,0.325,0,1,1-.325.314A0.323,0.323,0,0,1,5849.747,2315.452Z" transform="translate(-5805.609 -2301.473)"/><path class="cls-1" d="M5816.181,2316.1a0.325,0.325,0,1,1,.011-0.65A0.325,0.325,0,0,1,5816.181,2316.1Z" transform="translate(-5805.609 -2301.473)"/><path class="cls-1" d="M5811.391,2315.778a0.319,0.319,0,0,1,.313-0.326A0.325,0.325,0,1,1,5811.391,2315.778Z" transform="translate(-5805.609 -2301.473)"/><path class="cls-1" d="M5855.685,2315.783a0.324,0.324,0,1,1-.31-0.331A0.322,0.322,0,0,1,5855.685,2315.783Z" transform="translate(-5805.609 -2301.473)"/><path class="cls-1" d="M5811.7,2323.871a0.325,0.325,0,1,1-.313.325A0.32,0.32,0,0,1,5811.7,2323.871Z" transform="translate(-5805.609 -2301.473)"/><path class="cls-1" d="M5846.384,2316.1a0.326,0.326,0,0,1,.007-0.651,0.322,0.322,0,0,1,.32.32A0.326,0.326,0,0,1,5846.384,2316.1Z" transform="translate(-5805.609 -2301.473)"/><path class="cls-1" d="M5808.681,2324.2a0.324,0.324,0,1,1-.332-0.326A0.324,0.324,0,0,1,5808.681,2324.2Z" transform="translate(-5805.609 -2301.473)"/><path class="cls-1" d="M5842.71,2315.766a0.322,0.322,0,1,1,.643.023,0.326,0.326,0,0,1-.325.315A0.321,0.321,0,0,1,5842.71,2315.766Z" transform="translate(-5805.609 -2301.473)"/><path class="cls-1" d="M5838.881,2315.772a0.324,0.324,0,1,1-.32-0.32A0.326,0.326,0,0,1,5838.881,2315.772Z" transform="translate(-5805.609 -2301.473)"/><path class="cls-1" d="M5827.7,2315.776a0.324,0.324,0,1,1-.316-0.324A0.326,0.326,0,0,1,5827.7,2315.776Z" transform="translate(-5805.609 -2301.473)"/><path class="cls-1" d="M5819.866,2315.771a0.323,0.323,0,1,1-.321-0.319A0.326,0.326,0,0,1,5819.866,2315.771Z" transform="translate(-5805.609 -2301.473)"/><path class="cls-1" d="M5874.609,2324.522a0.326,0.326,0,1,1,.319-0.322A0.324,0.324,0,0,1,5874.609,2324.522Z" transform="translate(-5805.609 -2301.473)"/><path class="cls-1" d="M5818.417,2323.871a0.32,0.32,0,0,1,.331.325,0.324,0.324,0,0,1-.315.326A0.325,0.325,0,0,1,5818.417,2323.871Z" transform="translate(-5805.609 -2301.473)"/><path class="cls-1" d="M5819.866,2324.193a0.323,0.323,0,1,1-.334-0.322A0.323,0.323,0,0,1,5819.866,2324.193Z" transform="translate(-5805.609 -2301.473)"/><path class="cls-1" d="M5885.116,2315.783a0.324,0.324,0,1,1-.326-0.331A0.32,0.32,0,0,1,5885.116,2315.783Z" transform="translate(-5805.609 -2301.473)"/><path class="cls-1" d="M5878.323,2324.192a0.322,0.322,0,1,1-.318-0.32A0.322,0.322,0,0,1,5878.323,2324.192Z" transform="translate(-5805.609 -2301.473)"/><path class="cls-1" d="M5827.379,2324.522a0.325,0.325,0,1,1,.317-0.341A0.324,0.324,0,0,1,5827.379,2324.522Z" transform="translate(-5805.609 -2301.473)"/><path class="cls-1" d="M5866.359,2324.187a0.322,0.322,0,1,1,.644.017A0.322,0.322,0,1,1,5866.359,2324.187Z" transform="translate(-5805.609 -2301.473)"/><path class="cls-1" d="M5832.165,2324.2a0.317,0.317,0,0,1-.316.321,0.325,0.325,0,1,1,.009-0.65A0.315,0.315,0,0,1,5832.165,2324.2Z" transform="translate(-5805.609 -2301.473)"/><path class="cls-1" d="M5851.18,2324.194a0.32,0.32,0,1,1-.313-0.323A0.314,0.314,0,0,1,5851.18,2324.194Z" transform="translate(-5805.609 -2301.473)"/><path class="cls-1" d="M5846.379,2323.871a0.325,0.325,0,1,1-.316.324A0.324,0.324,0,0,1,5846.379,2323.871Z" transform="translate(-5805.609 -2301.473)"/><path class="cls-1" d="M5815.39,2324.2a0.321,0.321,0,1,1-.641-0.014A0.321,0.321,0,1,1,5815.39,2324.2Z" transform="translate(-5805.609 -2301.473)"/><path class="cls-1" d="M5871.2,2323.871a0.319,0.319,0,0,1,.328.31,0.323,0.323,0,0,1-.316.34A0.325,0.325,0,0,1,5871.2,2323.871Z" transform="translate(-5805.609 -2301.473)"/><path class="cls-1" d="M5831.054,2324.2a0.328,0.328,0,0,1-.333.326A0.325,0.325,0,1,1,5831.054,2324.2Z" transform="translate(-5805.609 -2301.473)"/><path class="cls-1" d="M5885.606,2324.2a0.313,0.313,0,0,1,.319-0.333,0.325,0.325,0,0,1,0,.65A0.313,0.313,0,0,1,5885.606,2324.2Z" transform="translate(-5805.609 -2301.473)"/><path class="cls-1" d="M5881.719,2324.205a0.325,0.325,0,0,1-.323.317,0.32,0.32,0,0,1-.319-0.336,0.316,0.316,0,0,1,.338-0.315A0.321,0.321,0,0,1,5881.719,2324.205Z" transform="translate(-5805.609 -2301.473)"/><path class="cls-1" d="M5833.764,2324.192a0.316,0.316,0,0,1,.317-0.32,0.325,0.325,0,1,1-.009.65A0.318,0.318,0,0,1,5833.764,2324.192Z" transform="translate(-5805.609 -2301.473)"/><path class="cls-1" d="M5849.733,2323.871a0.325,0.325,0,0,1,.022.65A0.325,0.325,0,0,1,5849.733,2323.871Z" transform="translate(-5805.609 -2301.473)"/><path class="cls-1" d="M5870.081,2316.1a0.326,0.326,0,0,1-.009-0.651,0.321,0.321,0,0,1,.327.312A0.325,0.325,0,0,1,5870.081,2316.1Z" transform="translate(-5805.609 -2301.473)"/><path class="cls-1" d="M5878,2315.452a0.321,0.321,0,0,1,.324.331,0.327,0.327,0,0,1-.32.32,0.322,0.322,0,0,1-.324-0.333A0.318,0.318,0,0,1,5878,2315.452Z" transform="translate(-5805.609 -2301.473)"/><path class="cls-1" d="M5842.71,2324.185a0.322,0.322,0,1,1,.643.022A0.322,0.322,0,1,1,5842.71,2324.185Z" transform="translate(-5805.609 -2301.473)"/><path class="cls-1" d="M5847.822,2324.2a0.312,0.312,0,0,1-.318.318,0.327,0.327,0,0,1-.323-0.334,0.323,0.323,0,0,1,.323-0.316A0.311,0.311,0,0,1,5847.822,2324.2Z" transform="translate(-5805.609 -2301.473)"/><path class="cls-1" d="M5845.027,2307.468c0.2,0,.392,0,0.588,0,0.093,0,.113.041,0.112,0.122s-0.015.125-.11,0.124q-0.579-.005-1.159,0c-0.093,0-.112-0.042-0.111-0.122s0.014-.127.109-0.124C5844.646,2307.472,5844.836,2307.468,5845.027,2307.468Z" transform="translate(-5805.609 -2301.473)"/><path class="cls-1" d="M5824.885,2307.712c-0.2,0-.391,0-0.586,0a0.1,0.1,0,0,1-.114-0.121c0-.078.013-0.126,0.108-0.126q0.586,0,1.172,0c0.1,0,.1.054,0.1,0.129a0.1,0.1,0,0,1-.116.118C5825.265,2307.709,5825.075,2307.712,5824.885,2307.712Z" transform="translate(-5805.609 -2301.473)"/><path class="cls-1" d="M5835.821,2303.247c-0.117,0-.235,0-0.352,0-0.1,0-.124-0.036-0.125-0.128a0.1,0.1,0,0,1,.132-0.121q0.343,0.006.687,0c0.087,0,.133.017,0.134,0.119a0.11,0.11,0,0,1-.141.13C5836.044,2303.242,5835.932,2303.247,5835.821,2303.247Z" transform="translate(-5805.609 -2301.473)"/><path class="cls-1" d="M5865.354,2312.109l-0.019.023c-0.021-.027,0-0.022.017-0.025Z" transform="translate(-5805.609 -2301.473)"/><path class="cls-1" d="M5865.353,2312.107l0.013-.023c0.023,0.02,0,.019-0.011.024Z" transform="translate(-5805.609 -2301.473)"/><path class="cls-1" d="M5886.219,2307.809l0.007-.013-0.009.011Z" transform="translate(-5805.609 -2301.473)"/><path class="cls-1" d="M5862.228,2302.163l-0.012.018,0-.009,0.012-.007Z" transform="translate(-5805.609 -2301.473)"/><path class="cls-1" d="M5862.229,2302.164l0.008-.013-0.01.011Z" transform="translate(-5805.609 -2301.473)"/><path class="cls-1" d="M5870.287,2310.6a2.273,2.273,0,0,0,.039-0.622q0-3.023,0-6.046a2.278,2.278,0,0,0-.007-0.252,0.436,0.436,0,0,0-.405-0.417,2.675,2.675,0,0,0-.419-0.013c-0.086,0-.148,0-0.15-0.12s0.064-.132.157-0.129c0.134,0,.269,0,0.4,0a0.625,0.625,0,0,1,.681.63c0,0.039,0,.078,0,0.117q0,3.107,0,6.214A0.668,0.668,0,0,1,5870.287,2310.6Z" transform="translate(-5805.609 -2301.473)"/><path class="cls-1" d="M5863.637,2303.034a0.563,0.563,0,0,1,.617-0.18,0.61,0.61,0,0,1,.429.489,1.49,1.49,0,0,1,0,.151q0,3.365,0,6.73a0.612,0.612,0,0,1-.271.55c0.009-.144.022-0.261,0.022-0.378q0-3.315,0-6.629c0-.632-0.176-0.792-0.8-0.724Z" transform="translate(-5805.609 -2301.473)"/><path class="cls-1" d="M5863.645,2303.042l-0.018.018c-0.023-.018,0-0.02.01-0.026Z" transform="translate(-5805.609 -2301.473)"/><path class="cls-1" d="M5829.947,2307.067c0.031,0.213.064,0.426,0.092,0.639q0.1,0.787.2,1.575c0.007,0.056.037,0.137-.065,0.136-0.083,0-.193.053-0.214-0.105a5.435,5.435,0,0,1-.065-2.073,1.261,1.261,0,0,0,.02-0.166Z" transform="translate(-5805.609 -2301.473)"/><path class="cls-1" d="M5881.97,2307.116q0.034,0.26.068,0.519c0.071,0.537.139,1.074,0.216,1.61,0.021,0.145-.026.193-0.168,0.177a0.1,0.1,0,0,1-.109-0.1c-0.053-.432-0.138-0.863-0.155-1.3a5.709,5.709,0,0,1,.1-0.915h0.044Z" transform="translate(-5805.609 -2301.473)"/></svg>