<svg xmlns="http://www.w3.org/2000/svg" viewBox="0 0 91.99 59.96"><defs><style>.cls-1{fill:#dbb64f;stroke:#ad8b45;stroke-miterlimit:10;}.cls-2{fill:#ad8b45;}</style></defs><title>Barber Pole</title><g id="Layer_2" data-name="Layer 2"><g id="Layer_1-2" data-name="Layer 1"><g id="Layer_2-2" data-name="Layer 2"><g id="Layer_1-2-2" data-name="Layer 1-2"><circle class="cls-1" cx="9.04" cy="10.69" r="8.54"/><rect class="cls-1" x="32.75" y="-6.53" width="17.43" height="68.65" transform="translate(-2.52 51.39) rotate(-62.05)"/><polygon class="cls-2" points="65.28 50.2 61.23 28.31 54.09 24.52 58.14 46.41 65.28 50.2"/><polygon class="cls-2" points="79.53 57.86 75.48 35.98 68.33 32.18 72.39 54.07 79.53 57.86"/><polygon class="cls-2" points="51.11 42.78 47.06 20.89 39.92 17.1 43.97 38.99 51.11 42.78"/><polygon class="cls-2" points="36.83 35.2 32.77 13.31 25.63 9.52 29.68 31.41 36.83 35.2"/><polygon class="cls-2" points="22.7 27.7 18.64 5.81 13.34 3 13.09 2.87 12.29 6.27 15.55 23.91 22.7 27.7"/><path class="cls-1" d="M15.66,3,6.39,20.47a1.71,1.71,0,0,1-2.31.71h0a1.71,1.71,0,0,1-.71-2.31L12.64,1.41A1.71,1.71,0,0,1,15,.7h0A1.71,1.71,0,0,1,15.66,3Z"/><path class="cls-1" d="M76.21,39.1a10.72,10.72,0,1,1-5.89,11.81"/><path class="cls-1" d="M79.48,36.88,70.21,54.34a1.71,1.71,0,0,1-2.31.71h0a1.72,1.72,0,0,1-.71-2.31l9.27-17.46a1.7,1.7,0,0,1,2.31-.71h0A1.71,1.71,0,0,1,79.48,36.88Z"/></g></g></g></g></svg>