<svg xmlns="http://www.w3.org/2000/svg" viewBox="0 0 44.95 88.57"><defs><style>.cls-1{fill:none;}.cls-1,.cls-2{stroke:#ad8b45;stroke-miterlimit:10;}.cls-2{fill:#dbb64f;}</style></defs><title>Nail Polish</title><g id="Layer_2" data-name="Layer 2"><g id="Layer_1-2" data-name="Layer 1"><g id="Layer_2-2" data-name="Layer 2"><g id="Layer_1-2-2" data-name="Layer 1-2"><line class="cls-1" x1="37.2" y1="9.21" x2="19.86" y2="42.78"/><path class="cls-2" d="M14.19,44.52l12.7.15a1,1,0,0,1,1,1h0a1,1,0,0,1-1,1l-12.69-.15a1,1,0,0,1-1-1h0A1,1,0,0,1,14.19,44.52Z"/><path class="cls-2" d="M14.22,42.55l12.69.15a1,1,0,0,1,1,1h0a1,1,0,0,1-1,1l-12.7-.15a1,1,0,0,1-1-1h0A1,1,0,0,1,14.22,42.55Z"/><path class="cls-2" d="M14.24,40.58l12.69.15a1,1,0,0,1,1,1h0a1,1,0,0,1-1,1l-12.69-.15a1,1,0,0,1-1-1h0A1,1,0,0,1,14.24,40.58Z"/><path class="cls-2" d="M20.36,87.93l12.19.14a2.22,2.22,0,0,0,2.19-1.75l5.87-35.77a3.11,3.11,0,0,0-2.4-3.71,2.54,2.54,0,0,0-.61-.07l-33.94-.4A3.13,3.13,0,0,0,.5,49.46a4.21,4.21,0,0,0,.05.62L5.58,86a2.22,2.22,0,0,0,2.15,1.81Z"/><polyline class="cls-2" points="30.38 39.9 44.32 4.48 40.63 2.57 36.94 0.65 16 32.44"/><path class="cls-2" d="M14,33.15h0a1.53,1.53,0,0,1,2.06-.66l14.18,7.36a1.54,1.54,0,0,1,.66,2.07h0a1.54,1.54,0,0,1-2.07.65L14.69,35.21A1.53,1.53,0,0,1,14,33.15Z"/></g></g></g></g></svg>